G04 (created by PCBNEW (22-Jun-2014 BZR 4027)-stable) date Thu 31 Jul 2014 05:41:25 PM UTC*
%MOIN*%
G04 Gerber Fmt 3.4, Leading zero omitted, Abs format*
%FSLAX34Y34*%
G01*
G70*
G90*
G04 APERTURE LIST*
%ADD10C,0.00590551*%
%ADD11R,0.025X0.045*%
%ADD12R,0.06X0.06*%
%ADD13C,0.06*%
%ADD14C,0.0453*%
%ADD15R,0.0453X0.0453*%
%ADD16R,0.045X0.025*%
%ADD17R,0.0275591X0.0590551*%
%ADD18R,0.0393701X0.0590551*%
%ADD19O,2.75591X0.295276*%
%ADD20R,0.0787402X0.314961*%
%ADD21C,0.035*%
%ADD22C,0.024*%
%ADD23C,0.01*%
G04 APERTURE END LIST*
G54D10*
G54D11*
X30368Y-33513D03*
X29768Y-33513D03*
X31737Y-29281D03*
X32337Y-29281D03*
X31737Y-30364D03*
X32337Y-30364D03*
G54D12*
X32620Y-40994D03*
G54D13*
X33620Y-40994D03*
G54D12*
X29990Y-40939D03*
G54D13*
X28990Y-40939D03*
X27990Y-40939D03*
X26990Y-40939D03*
X25990Y-40939D03*
X24990Y-40939D03*
G54D12*
X24990Y-23939D03*
G54D13*
X25990Y-23939D03*
X26990Y-23939D03*
X27990Y-23939D03*
X28990Y-23939D03*
X29990Y-23939D03*
G54D14*
X32037Y-28100D03*
X28888Y-28100D03*
X29675Y-28100D03*
X30463Y-28100D03*
X31250Y-28100D03*
X28100Y-28100D03*
X27313Y-28100D03*
X26525Y-28100D03*
G54D15*
X24951Y-28100D03*
G54D14*
X25738Y-28100D03*
X32037Y-36761D03*
X28888Y-36761D03*
X29675Y-36761D03*
X30463Y-36761D03*
X31250Y-36761D03*
X28100Y-36761D03*
X27313Y-36761D03*
X26525Y-36761D03*
G54D15*
X24951Y-36761D03*
G54D14*
X25738Y-36761D03*
G54D16*
X29478Y-30172D03*
X29478Y-29572D03*
X29478Y-31845D03*
X29478Y-31245D03*
G54D11*
X28498Y-33513D03*
X27898Y-33513D03*
X27701Y-30167D03*
X28301Y-30167D03*
X27701Y-31840D03*
X28301Y-31840D03*
G54D17*
X32706Y-32431D03*
X31958Y-32431D03*
X32706Y-34005D03*
G54D18*
X31958Y-34005D03*
G54D19*
X62942Y-32431D03*
G54D20*
X47785Y-34399D03*
X47785Y-30462D03*
G54D21*
X30610Y-32874D03*
X33267Y-32381D03*
G54D22*
X24951Y-36761D02*
X24951Y-37844D01*
X29990Y-39537D02*
X29990Y-40939D01*
X29232Y-38779D02*
X29990Y-39537D01*
X25885Y-38779D02*
X29232Y-38779D01*
X24951Y-37844D02*
X25885Y-38779D01*
X29990Y-40939D02*
X32565Y-40939D01*
X32565Y-40939D02*
X32620Y-40994D01*
G54D23*
X31737Y-30364D02*
X31737Y-30654D01*
X32381Y-33681D02*
X32706Y-34005D01*
X32381Y-31299D02*
X32381Y-33681D01*
X31737Y-30654D02*
X32381Y-31299D01*
G54D22*
X31737Y-29281D02*
X31737Y-30364D01*
X31250Y-28100D02*
X31250Y-28794D01*
X31250Y-28794D02*
X31737Y-29281D01*
X28888Y-28100D02*
X28888Y-28494D01*
X29478Y-29084D02*
X29478Y-29572D01*
X28888Y-28494D02*
X29478Y-29084D01*
X31958Y-32431D02*
X31446Y-32431D01*
X28498Y-33912D02*
X28498Y-33513D01*
X28838Y-34251D02*
X28498Y-33912D01*
X30708Y-34251D02*
X28838Y-34251D01*
X31102Y-33858D02*
X30708Y-34251D01*
X31102Y-32775D02*
X31102Y-33858D01*
X31446Y-32431D02*
X31102Y-32775D01*
X30463Y-28100D02*
X30463Y-30167D01*
X31958Y-31663D02*
X31958Y-32431D01*
X30463Y-30167D02*
X31958Y-31663D01*
X26525Y-28100D02*
X26525Y-32725D01*
X27312Y-33513D02*
X27898Y-33513D01*
X26525Y-32725D02*
X27312Y-33513D01*
X28990Y-23939D02*
X28990Y-25537D01*
X28100Y-26427D02*
X28100Y-28100D01*
X28990Y-25537D02*
X28100Y-26427D01*
X28301Y-30167D02*
X29473Y-30167D01*
X29473Y-30167D02*
X29478Y-30172D01*
X29478Y-31245D02*
X29478Y-30172D01*
X29768Y-33513D02*
X29768Y-32135D01*
X29768Y-32135D02*
X29478Y-31845D01*
X28301Y-31840D02*
X29473Y-31840D01*
X29473Y-31840D02*
X29478Y-31845D01*
X30368Y-33115D02*
X30368Y-33513D01*
X30610Y-32874D02*
X30368Y-33115D01*
X33267Y-32381D02*
X33267Y-32431D01*
X62942Y-32431D02*
X33267Y-32431D01*
X33267Y-32431D02*
X32706Y-32431D01*
G54D10*
G36*
X82486Y-32431D02*
X78620Y-36296D01*
X77846Y-36296D01*
X77846Y-32431D01*
X77670Y-31545D01*
X77168Y-30795D01*
X76417Y-30293D01*
X75532Y-30117D01*
X50353Y-30117D01*
X49467Y-30293D01*
X48717Y-30795D01*
X48349Y-31345D01*
X48349Y-28854D01*
X48323Y-28791D01*
X48275Y-28743D01*
X48213Y-28717D01*
X48145Y-28717D01*
X47837Y-28717D01*
X47795Y-28760D01*
X47795Y-30452D01*
X48306Y-30452D01*
X48349Y-30410D01*
X48349Y-28854D01*
X48349Y-31345D01*
X48349Y-31346D01*
X48349Y-30515D01*
X48306Y-30472D01*
X47795Y-30472D01*
X47795Y-30480D01*
X47775Y-30480D01*
X47775Y-30472D01*
X47775Y-30452D01*
X47775Y-28760D01*
X47732Y-28717D01*
X47425Y-28717D01*
X47357Y-28717D01*
X47295Y-28743D01*
X47247Y-28791D01*
X47221Y-28854D01*
X47221Y-30410D01*
X47264Y-30452D01*
X47775Y-30452D01*
X47775Y-30472D01*
X47264Y-30472D01*
X47221Y-30515D01*
X47221Y-32071D01*
X47247Y-32133D01*
X47275Y-32161D01*
X33506Y-32161D01*
X33452Y-32106D01*
X33332Y-32056D01*
X33203Y-32056D01*
X33083Y-32106D01*
X33028Y-32161D01*
X32994Y-32161D01*
X32994Y-32106D01*
X32971Y-32050D01*
X32929Y-32008D01*
X32874Y-31985D01*
X32814Y-31985D01*
X32632Y-31985D01*
X32632Y-30555D01*
X32632Y-30172D01*
X32632Y-29472D01*
X32632Y-29090D01*
X32632Y-29022D01*
X32606Y-28960D01*
X32558Y-28912D01*
X32496Y-28886D01*
X32413Y-28886D01*
X32413Y-28025D01*
X32356Y-27887D01*
X32250Y-27781D01*
X32112Y-27723D01*
X31962Y-27723D01*
X31824Y-27781D01*
X31718Y-27886D01*
X31660Y-28025D01*
X31660Y-28174D01*
X31717Y-28313D01*
X31823Y-28419D01*
X31961Y-28476D01*
X32111Y-28476D01*
X32250Y-28419D01*
X32356Y-28313D01*
X32413Y-28175D01*
X32413Y-28025D01*
X32413Y-28886D01*
X32389Y-28886D01*
X32347Y-28928D01*
X32347Y-29271D01*
X32589Y-29271D01*
X32632Y-29228D01*
X32632Y-29090D01*
X32632Y-29472D01*
X32632Y-29333D01*
X32589Y-29291D01*
X32347Y-29291D01*
X32347Y-29633D01*
X32389Y-29676D01*
X32496Y-29676D01*
X32558Y-29650D01*
X32606Y-29602D01*
X32632Y-29540D01*
X32632Y-29472D01*
X32632Y-30172D01*
X32632Y-30105D01*
X32606Y-30042D01*
X32558Y-29994D01*
X32496Y-29969D01*
X32389Y-29969D01*
X32347Y-30011D01*
X32347Y-30354D01*
X32589Y-30354D01*
X32632Y-30311D01*
X32632Y-30172D01*
X32632Y-30555D01*
X32632Y-30416D01*
X32589Y-30374D01*
X32347Y-30374D01*
X32347Y-30716D01*
X32389Y-30759D01*
X32496Y-30759D01*
X32558Y-30733D01*
X32606Y-30685D01*
X32632Y-30623D01*
X32632Y-30555D01*
X32632Y-31985D01*
X32581Y-31985D01*
X32581Y-31299D01*
X32566Y-31222D01*
X32566Y-31222D01*
X32552Y-31201D01*
X32523Y-31157D01*
X32523Y-31157D01*
X32327Y-30961D01*
X32327Y-30716D01*
X32327Y-30374D01*
X32327Y-30354D01*
X32327Y-30011D01*
X32327Y-29633D01*
X32327Y-29291D01*
X32327Y-29271D01*
X32327Y-28928D01*
X32284Y-28886D01*
X32178Y-28886D01*
X32116Y-28912D01*
X32068Y-28960D01*
X32042Y-29022D01*
X32042Y-29090D01*
X32042Y-29228D01*
X32084Y-29271D01*
X32327Y-29271D01*
X32327Y-29291D01*
X32084Y-29291D01*
X32042Y-29333D01*
X32042Y-29472D01*
X32042Y-29540D01*
X32068Y-29602D01*
X32116Y-29650D01*
X32178Y-29676D01*
X32284Y-29676D01*
X32327Y-29633D01*
X32327Y-30011D01*
X32284Y-29969D01*
X32178Y-29969D01*
X32116Y-29994D01*
X32068Y-30042D01*
X32042Y-30105D01*
X32042Y-30172D01*
X32042Y-30311D01*
X32084Y-30354D01*
X32327Y-30354D01*
X32327Y-30374D01*
X32084Y-30374D01*
X32042Y-30416D01*
X32042Y-30555D01*
X32042Y-30623D01*
X32068Y-30685D01*
X32116Y-30733D01*
X32178Y-30759D01*
X32284Y-30759D01*
X32327Y-30716D01*
X32327Y-30961D01*
X32004Y-30638D01*
X32012Y-30619D01*
X32012Y-30559D01*
X32012Y-30109D01*
X32007Y-30097D01*
X32007Y-29548D01*
X32012Y-29536D01*
X32012Y-29476D01*
X32012Y-29026D01*
X31989Y-28971D01*
X31947Y-28929D01*
X31892Y-28906D01*
X31832Y-28906D01*
X31744Y-28906D01*
X31520Y-28682D01*
X31520Y-28362D01*
X31569Y-28313D01*
X31626Y-28175D01*
X31626Y-28025D01*
X31569Y-27887D01*
X31463Y-27781D01*
X31325Y-27723D01*
X31175Y-27723D01*
X31037Y-27781D01*
X30931Y-27886D01*
X30873Y-28025D01*
X30873Y-28174D01*
X30930Y-28313D01*
X30980Y-28362D01*
X30980Y-28794D01*
X31000Y-28897D01*
X31059Y-28985D01*
X31462Y-29388D01*
X31462Y-29536D01*
X31467Y-29548D01*
X31467Y-30097D01*
X31462Y-30109D01*
X31462Y-30168D01*
X31462Y-30618D01*
X31485Y-30674D01*
X31527Y-30716D01*
X31551Y-30726D01*
X31552Y-30731D01*
X31595Y-30796D01*
X32181Y-31382D01*
X32181Y-31520D01*
X32149Y-31472D01*
X32149Y-31472D01*
X30733Y-30055D01*
X30733Y-28362D01*
X30782Y-28313D01*
X30839Y-28175D01*
X30839Y-28025D01*
X30782Y-27887D01*
X30676Y-27781D01*
X30538Y-27723D01*
X30440Y-27723D01*
X30440Y-23850D01*
X30371Y-23685D01*
X30245Y-23558D01*
X30080Y-23489D01*
X29901Y-23489D01*
X29735Y-23558D01*
X29608Y-23684D01*
X29540Y-23849D01*
X29540Y-24028D01*
X29608Y-24194D01*
X29734Y-24321D01*
X29900Y-24389D01*
X30079Y-24389D01*
X30244Y-24321D01*
X30371Y-24195D01*
X30440Y-24029D01*
X30440Y-23850D01*
X30440Y-27723D01*
X30388Y-27723D01*
X30250Y-27781D01*
X30144Y-27886D01*
X30086Y-28025D01*
X30086Y-28174D01*
X30143Y-28313D01*
X30193Y-28362D01*
X30193Y-30167D01*
X30213Y-30271D01*
X30272Y-30358D01*
X31688Y-31775D01*
X31688Y-32063D01*
X31670Y-32105D01*
X31670Y-32161D01*
X31446Y-32161D01*
X31446Y-32161D01*
X31426Y-32165D01*
X31343Y-32181D01*
X31255Y-32240D01*
X31255Y-32240D01*
X30911Y-32584D01*
X30858Y-32663D01*
X30858Y-32663D01*
X30794Y-32598D01*
X30675Y-32549D01*
X30545Y-32548D01*
X30426Y-32598D01*
X30334Y-32689D01*
X30285Y-32809D01*
X30285Y-32817D01*
X30177Y-32924D01*
X30119Y-33012D01*
X30098Y-33115D01*
X30098Y-33246D01*
X30093Y-33258D01*
X30093Y-33318D01*
X30093Y-33768D01*
X30116Y-33823D01*
X30158Y-33865D01*
X30213Y-33888D01*
X30273Y-33888D01*
X30523Y-33888D01*
X30578Y-33866D01*
X30620Y-33823D01*
X30643Y-33768D01*
X30643Y-33709D01*
X30643Y-33259D01*
X30638Y-33246D01*
X30638Y-33227D01*
X30667Y-33199D01*
X30674Y-33199D01*
X30794Y-33149D01*
X30832Y-33111D01*
X30832Y-33746D01*
X30596Y-33981D01*
X30051Y-33981D01*
X30051Y-28025D01*
X29994Y-27887D01*
X29888Y-27781D01*
X29750Y-27723D01*
X29600Y-27723D01*
X29462Y-27781D01*
X29440Y-27802D01*
X29440Y-23850D01*
X29371Y-23685D01*
X29245Y-23558D01*
X29080Y-23489D01*
X28901Y-23489D01*
X28735Y-23558D01*
X28608Y-23684D01*
X28540Y-23849D01*
X28540Y-24028D01*
X28608Y-24194D01*
X28720Y-24306D01*
X28720Y-25425D01*
X28440Y-25705D01*
X28440Y-23850D01*
X28371Y-23685D01*
X28245Y-23558D01*
X28080Y-23489D01*
X27901Y-23489D01*
X27735Y-23558D01*
X27608Y-23684D01*
X27540Y-23849D01*
X27540Y-24028D01*
X27608Y-24194D01*
X27734Y-24321D01*
X27900Y-24389D01*
X28079Y-24389D01*
X28244Y-24321D01*
X28371Y-24195D01*
X28440Y-24029D01*
X28440Y-23850D01*
X28440Y-25705D01*
X27909Y-26236D01*
X27850Y-26324D01*
X27830Y-26427D01*
X27830Y-27837D01*
X27781Y-27886D01*
X27723Y-28025D01*
X27723Y-28174D01*
X27780Y-28313D01*
X27886Y-28419D01*
X28024Y-28476D01*
X28174Y-28476D01*
X28313Y-28419D01*
X28419Y-28313D01*
X28476Y-28175D01*
X28476Y-28025D01*
X28419Y-27887D01*
X28370Y-27837D01*
X28370Y-26539D01*
X29181Y-25728D01*
X29239Y-25640D01*
X29239Y-25640D01*
X29260Y-25537D01*
X29260Y-24306D01*
X29371Y-24195D01*
X29440Y-24029D01*
X29440Y-23850D01*
X29440Y-27802D01*
X29356Y-27886D01*
X29298Y-28025D01*
X29298Y-28174D01*
X29355Y-28313D01*
X29461Y-28419D01*
X29599Y-28476D01*
X29749Y-28476D01*
X29888Y-28419D01*
X29994Y-28313D01*
X30051Y-28175D01*
X30051Y-28025D01*
X30051Y-33981D01*
X30043Y-33981D01*
X30043Y-33709D01*
X30043Y-33259D01*
X30038Y-33246D01*
X30038Y-32135D01*
X30018Y-32032D01*
X30018Y-32032D01*
X29959Y-31944D01*
X29959Y-31944D01*
X29853Y-31838D01*
X29853Y-31690D01*
X29853Y-31340D01*
X29853Y-31090D01*
X29830Y-31035D01*
X29788Y-30993D01*
X29748Y-30976D01*
X29748Y-30440D01*
X29788Y-30424D01*
X29830Y-30382D01*
X29853Y-30327D01*
X29853Y-30267D01*
X29853Y-30017D01*
X29853Y-29667D01*
X29853Y-29417D01*
X29830Y-29362D01*
X29788Y-29319D01*
X29748Y-29303D01*
X29748Y-29084D01*
X29727Y-28981D01*
X29727Y-28981D01*
X29669Y-28893D01*
X29669Y-28893D01*
X29158Y-28382D01*
X29158Y-28362D01*
X29207Y-28313D01*
X29264Y-28175D01*
X29264Y-28025D01*
X29207Y-27887D01*
X29101Y-27781D01*
X28963Y-27723D01*
X28813Y-27723D01*
X28675Y-27781D01*
X28569Y-27886D01*
X28511Y-28025D01*
X28511Y-28174D01*
X28568Y-28313D01*
X28618Y-28362D01*
X28618Y-28494D01*
X28638Y-28597D01*
X28697Y-28685D01*
X29208Y-29196D01*
X29208Y-29303D01*
X29168Y-29319D01*
X29126Y-29361D01*
X29103Y-29417D01*
X29103Y-29476D01*
X29103Y-29726D01*
X29126Y-29781D01*
X29168Y-29824D01*
X29223Y-29847D01*
X29283Y-29847D01*
X29733Y-29847D01*
X29788Y-29824D01*
X29830Y-29782D01*
X29853Y-29727D01*
X29853Y-29667D01*
X29853Y-30017D01*
X29830Y-29962D01*
X29788Y-29919D01*
X29733Y-29897D01*
X29673Y-29897D01*
X29223Y-29897D01*
X29222Y-29897D01*
X28570Y-29897D01*
X28554Y-29857D01*
X28512Y-29815D01*
X28456Y-29792D01*
X28397Y-29792D01*
X28147Y-29792D01*
X28092Y-29815D01*
X28049Y-29857D01*
X28026Y-29912D01*
X28026Y-29972D01*
X28026Y-30422D01*
X28049Y-30477D01*
X28091Y-30519D01*
X28147Y-30542D01*
X28206Y-30542D01*
X28456Y-30542D01*
X28511Y-30519D01*
X28554Y-30477D01*
X28570Y-30437D01*
X29200Y-30437D01*
X29208Y-30440D01*
X29208Y-30976D01*
X29168Y-30993D01*
X29126Y-31035D01*
X29103Y-31090D01*
X29103Y-31149D01*
X29103Y-31399D01*
X29126Y-31455D01*
X29168Y-31497D01*
X29223Y-31520D01*
X29283Y-31520D01*
X29733Y-31520D01*
X29788Y-31497D01*
X29830Y-31455D01*
X29853Y-31400D01*
X29853Y-31340D01*
X29853Y-31690D01*
X29830Y-31635D01*
X29788Y-31593D01*
X29733Y-31570D01*
X29673Y-31570D01*
X29223Y-31570D01*
X29222Y-31570D01*
X28570Y-31570D01*
X28554Y-31530D01*
X28512Y-31488D01*
X28456Y-31465D01*
X28397Y-31465D01*
X28147Y-31465D01*
X28092Y-31488D01*
X28049Y-31530D01*
X28026Y-31585D01*
X28026Y-31645D01*
X28026Y-32095D01*
X28049Y-32150D01*
X28091Y-32192D01*
X28147Y-32215D01*
X28206Y-32215D01*
X28456Y-32215D01*
X28511Y-32192D01*
X28554Y-32150D01*
X28570Y-32110D01*
X29200Y-32110D01*
X29223Y-32120D01*
X29283Y-32120D01*
X29371Y-32120D01*
X29498Y-32247D01*
X29498Y-33246D01*
X29493Y-33258D01*
X29493Y-33318D01*
X29493Y-33768D01*
X29516Y-33823D01*
X29558Y-33865D01*
X29613Y-33888D01*
X29673Y-33888D01*
X29923Y-33888D01*
X29978Y-33866D01*
X30020Y-33823D01*
X30043Y-33768D01*
X30043Y-33709D01*
X30043Y-33981D01*
X28950Y-33981D01*
X28768Y-33800D01*
X28768Y-33780D01*
X28773Y-33768D01*
X28773Y-33709D01*
X28773Y-33259D01*
X28751Y-33203D01*
X28708Y-33161D01*
X28653Y-33138D01*
X28594Y-33138D01*
X28344Y-33138D01*
X28288Y-33161D01*
X28246Y-33203D01*
X28223Y-33258D01*
X28223Y-33318D01*
X28223Y-33768D01*
X28228Y-33780D01*
X28228Y-33912D01*
X28249Y-34015D01*
X28307Y-34103D01*
X28647Y-34442D01*
X28735Y-34501D01*
X28735Y-34501D01*
X28838Y-34521D01*
X30708Y-34521D01*
X30811Y-34501D01*
X30811Y-34501D01*
X30899Y-34442D01*
X31293Y-34049D01*
X31293Y-34049D01*
X31293Y-34049D01*
X31351Y-33961D01*
X31351Y-33961D01*
X31372Y-33858D01*
X31372Y-32887D01*
X31558Y-32701D01*
X31670Y-32701D01*
X31670Y-32756D01*
X31693Y-32811D01*
X31735Y-32853D01*
X31790Y-32876D01*
X31850Y-32876D01*
X32126Y-32876D01*
X32181Y-32853D01*
X32181Y-32853D01*
X32181Y-33540D01*
X32011Y-33540D01*
X31968Y-33583D01*
X31968Y-33995D01*
X32283Y-33995D01*
X32325Y-33953D01*
X32325Y-33907D01*
X32418Y-34000D01*
X32418Y-34330D01*
X32441Y-34386D01*
X32483Y-34428D01*
X32538Y-34451D01*
X32598Y-34451D01*
X32874Y-34451D01*
X32929Y-34428D01*
X32971Y-34386D01*
X32994Y-34331D01*
X32994Y-34271D01*
X32994Y-33680D01*
X32971Y-33625D01*
X32929Y-33583D01*
X32874Y-33560D01*
X32814Y-33560D01*
X32581Y-33560D01*
X32581Y-32876D01*
X32598Y-32876D01*
X32874Y-32876D01*
X32929Y-32853D01*
X32971Y-32811D01*
X32994Y-32756D01*
X32994Y-32701D01*
X33188Y-32701D01*
X33202Y-32706D01*
X33332Y-32706D01*
X33346Y-32701D01*
X47275Y-32701D01*
X47247Y-32728D01*
X47221Y-32791D01*
X47221Y-34347D01*
X47264Y-34389D01*
X47775Y-34389D01*
X47775Y-34381D01*
X47795Y-34381D01*
X47795Y-34389D01*
X48306Y-34389D01*
X48349Y-34347D01*
X48349Y-33516D01*
X48717Y-34067D01*
X49467Y-34568D01*
X50353Y-34744D01*
X75532Y-34744D01*
X76417Y-34568D01*
X77168Y-34067D01*
X77670Y-33316D01*
X77846Y-32431D01*
X77846Y-36296D01*
X76722Y-36296D01*
X48349Y-36296D01*
X48349Y-36008D01*
X48349Y-34452D01*
X48306Y-34409D01*
X47795Y-34409D01*
X47795Y-36101D01*
X47837Y-36144D01*
X48145Y-36144D01*
X48213Y-36144D01*
X48275Y-36118D01*
X48323Y-36070D01*
X48349Y-36008D01*
X48349Y-36296D01*
X47775Y-36296D01*
X47775Y-36101D01*
X47775Y-34409D01*
X47264Y-34409D01*
X47221Y-34452D01*
X47221Y-36008D01*
X47247Y-36070D01*
X47295Y-36118D01*
X47357Y-36144D01*
X47425Y-36144D01*
X47732Y-36144D01*
X47775Y-36101D01*
X47775Y-36296D01*
X34694Y-36296D01*
X34629Y-36309D01*
X34574Y-36346D01*
X34538Y-36401D01*
X34525Y-36466D01*
X34525Y-41414D01*
X34091Y-41414D01*
X34091Y-40909D01*
X34023Y-40735D01*
X34013Y-40720D01*
X33935Y-40692D01*
X33921Y-40706D01*
X33921Y-40678D01*
X33893Y-40600D01*
X33722Y-40525D01*
X33535Y-40522D01*
X33361Y-40590D01*
X33346Y-40600D01*
X33318Y-40678D01*
X33620Y-40979D01*
X33921Y-40678D01*
X33921Y-40706D01*
X33634Y-40994D01*
X33935Y-41295D01*
X34013Y-41267D01*
X34088Y-41096D01*
X34091Y-40909D01*
X34091Y-41414D01*
X33834Y-41414D01*
X33878Y-41397D01*
X33893Y-41387D01*
X33921Y-41309D01*
X33620Y-41008D01*
X33605Y-41022D01*
X33605Y-40994D01*
X33304Y-40692D01*
X33226Y-40720D01*
X33151Y-40891D01*
X33148Y-41078D01*
X33216Y-41252D01*
X33226Y-41267D01*
X33304Y-41295D01*
X33605Y-40994D01*
X33605Y-41022D01*
X33318Y-41309D01*
X33346Y-41387D01*
X33409Y-41414D01*
X33011Y-41414D01*
X33047Y-41379D01*
X33070Y-41324D01*
X33070Y-41264D01*
X33070Y-40664D01*
X33047Y-40609D01*
X33005Y-40567D01*
X32950Y-40544D01*
X32890Y-40544D01*
X32434Y-40544D01*
X32434Y-36688D01*
X32376Y-36542D01*
X32369Y-36532D01*
X32325Y-36520D01*
X32325Y-34267D01*
X32325Y-34058D01*
X32283Y-34015D01*
X31968Y-34015D01*
X31968Y-34428D01*
X32011Y-34471D01*
X32189Y-34471D01*
X32251Y-34445D01*
X32299Y-34397D01*
X32325Y-34335D01*
X32325Y-34267D01*
X32325Y-36520D01*
X32299Y-36513D01*
X32285Y-36527D01*
X32285Y-36499D01*
X32266Y-36428D01*
X32121Y-36366D01*
X31963Y-36364D01*
X31948Y-36370D01*
X31948Y-34428D01*
X31948Y-34015D01*
X31948Y-33995D01*
X31948Y-33583D01*
X31906Y-33540D01*
X31728Y-33540D01*
X31665Y-33566D01*
X31617Y-33614D01*
X31591Y-33676D01*
X31591Y-33744D01*
X31591Y-33953D01*
X31634Y-33995D01*
X31948Y-33995D01*
X31948Y-34015D01*
X31634Y-34015D01*
X31591Y-34058D01*
X31591Y-34267D01*
X31591Y-34335D01*
X31617Y-34397D01*
X31665Y-34445D01*
X31728Y-34471D01*
X31906Y-34471D01*
X31948Y-34428D01*
X31948Y-36370D01*
X31817Y-36422D01*
X31807Y-36428D01*
X31788Y-36499D01*
X32037Y-36747D01*
X32285Y-36499D01*
X32285Y-36527D01*
X32051Y-36761D01*
X32299Y-37010D01*
X32369Y-36991D01*
X32432Y-36846D01*
X32434Y-36688D01*
X32434Y-40544D01*
X32290Y-40544D01*
X32285Y-40545D01*
X32285Y-37024D01*
X32037Y-36775D01*
X32022Y-36790D01*
X32022Y-36761D01*
X31774Y-36513D01*
X31704Y-36532D01*
X31641Y-36677D01*
X31639Y-36834D01*
X31697Y-36981D01*
X31704Y-36991D01*
X31774Y-37010D01*
X32022Y-36761D01*
X32022Y-36790D01*
X31788Y-37024D01*
X31807Y-37094D01*
X31952Y-37157D01*
X32110Y-37159D01*
X32256Y-37101D01*
X32266Y-37094D01*
X32285Y-37024D01*
X32285Y-40545D01*
X32235Y-40566D01*
X32192Y-40609D01*
X32170Y-40664D01*
X32170Y-40669D01*
X31626Y-40669D01*
X31626Y-36687D01*
X31569Y-36548D01*
X31463Y-36442D01*
X31325Y-36385D01*
X31175Y-36385D01*
X31037Y-36442D01*
X30931Y-36548D01*
X30873Y-36686D01*
X30873Y-36836D01*
X30930Y-36974D01*
X31036Y-37080D01*
X31174Y-37138D01*
X31324Y-37138D01*
X31463Y-37081D01*
X31569Y-36975D01*
X31626Y-36837D01*
X31626Y-36687D01*
X31626Y-40669D01*
X30839Y-40669D01*
X30839Y-36687D01*
X30782Y-36548D01*
X30676Y-36442D01*
X30538Y-36385D01*
X30388Y-36385D01*
X30250Y-36442D01*
X30144Y-36548D01*
X30086Y-36686D01*
X30086Y-36836D01*
X30143Y-36974D01*
X30249Y-37080D01*
X30387Y-37138D01*
X30537Y-37138D01*
X30676Y-37081D01*
X30782Y-36975D01*
X30839Y-36837D01*
X30839Y-36687D01*
X30839Y-40669D01*
X30440Y-40669D01*
X30440Y-40610D01*
X30417Y-40554D01*
X30375Y-40512D01*
X30320Y-40489D01*
X30260Y-40489D01*
X30260Y-40489D01*
X30260Y-39537D01*
X30239Y-39434D01*
X30239Y-39434D01*
X30181Y-39346D01*
X30051Y-39217D01*
X30051Y-36687D01*
X29994Y-36548D01*
X29888Y-36442D01*
X29750Y-36385D01*
X29600Y-36385D01*
X29462Y-36442D01*
X29356Y-36548D01*
X29298Y-36686D01*
X29298Y-36836D01*
X29355Y-36974D01*
X29461Y-37080D01*
X29599Y-37138D01*
X29749Y-37138D01*
X29888Y-37081D01*
X29994Y-36975D01*
X30051Y-36837D01*
X30051Y-36687D01*
X30051Y-39217D01*
X29423Y-38588D01*
X29335Y-38530D01*
X29264Y-38515D01*
X29264Y-36687D01*
X29207Y-36548D01*
X29101Y-36442D01*
X28963Y-36385D01*
X28813Y-36385D01*
X28675Y-36442D01*
X28569Y-36548D01*
X28511Y-36686D01*
X28511Y-36836D01*
X28568Y-36974D01*
X28674Y-37080D01*
X28812Y-37138D01*
X28962Y-37138D01*
X29101Y-37081D01*
X29207Y-36975D01*
X29264Y-36837D01*
X29264Y-36687D01*
X29264Y-38515D01*
X29232Y-38509D01*
X28476Y-38509D01*
X28476Y-36687D01*
X28419Y-36548D01*
X28313Y-36442D01*
X28175Y-36385D01*
X28173Y-36385D01*
X28173Y-33709D01*
X28173Y-33259D01*
X28151Y-33203D01*
X28108Y-33161D01*
X28053Y-33138D01*
X27996Y-33138D01*
X27996Y-32031D01*
X27996Y-31649D01*
X27996Y-30358D01*
X27996Y-29975D01*
X27996Y-29908D01*
X27971Y-29845D01*
X27923Y-29798D01*
X27860Y-29772D01*
X27754Y-29772D01*
X27711Y-29814D01*
X27711Y-30157D01*
X27954Y-30157D01*
X27996Y-30114D01*
X27996Y-29975D01*
X27996Y-30358D01*
X27996Y-30219D01*
X27954Y-30177D01*
X27711Y-30177D01*
X27711Y-30519D01*
X27754Y-30562D01*
X27860Y-30562D01*
X27923Y-30536D01*
X27971Y-30488D01*
X27996Y-30426D01*
X27996Y-30358D01*
X27996Y-31649D01*
X27996Y-31581D01*
X27971Y-31519D01*
X27923Y-31471D01*
X27860Y-31445D01*
X27754Y-31445D01*
X27711Y-31488D01*
X27711Y-31830D01*
X27954Y-31830D01*
X27996Y-31788D01*
X27996Y-31649D01*
X27996Y-32031D01*
X27996Y-31893D01*
X27954Y-31850D01*
X27711Y-31850D01*
X27711Y-32193D01*
X27754Y-32235D01*
X27860Y-32235D01*
X27923Y-32209D01*
X27971Y-32161D01*
X27996Y-32099D01*
X27996Y-32031D01*
X27996Y-33138D01*
X27994Y-33138D01*
X27744Y-33138D01*
X27691Y-33160D01*
X27691Y-32193D01*
X27691Y-31850D01*
X27691Y-31830D01*
X27691Y-31488D01*
X27691Y-30519D01*
X27691Y-30177D01*
X27691Y-30157D01*
X27691Y-29814D01*
X27689Y-29812D01*
X27689Y-28025D01*
X27632Y-27887D01*
X27526Y-27781D01*
X27440Y-27745D01*
X27440Y-23850D01*
X27371Y-23685D01*
X27245Y-23558D01*
X27080Y-23489D01*
X26901Y-23489D01*
X26735Y-23558D01*
X26608Y-23684D01*
X26540Y-23849D01*
X26540Y-24028D01*
X26608Y-24194D01*
X26734Y-24321D01*
X26900Y-24389D01*
X27079Y-24389D01*
X27244Y-24321D01*
X27371Y-24195D01*
X27440Y-24029D01*
X27440Y-23850D01*
X27440Y-27745D01*
X27388Y-27723D01*
X27238Y-27723D01*
X27100Y-27781D01*
X26994Y-27886D01*
X26936Y-28025D01*
X26936Y-28174D01*
X26993Y-28313D01*
X27099Y-28419D01*
X27237Y-28476D01*
X27387Y-28476D01*
X27526Y-28419D01*
X27632Y-28313D01*
X27689Y-28175D01*
X27689Y-28025D01*
X27689Y-29812D01*
X27649Y-29772D01*
X27543Y-29772D01*
X27480Y-29798D01*
X27432Y-29845D01*
X27406Y-29908D01*
X27406Y-29975D01*
X27406Y-30114D01*
X27449Y-30157D01*
X27691Y-30157D01*
X27691Y-30177D01*
X27449Y-30177D01*
X27406Y-30219D01*
X27406Y-30358D01*
X27406Y-30426D01*
X27432Y-30488D01*
X27480Y-30536D01*
X27543Y-30562D01*
X27649Y-30562D01*
X27691Y-30519D01*
X27691Y-31488D01*
X27649Y-31445D01*
X27543Y-31445D01*
X27480Y-31471D01*
X27432Y-31519D01*
X27406Y-31581D01*
X27406Y-31649D01*
X27406Y-31788D01*
X27449Y-31830D01*
X27691Y-31830D01*
X27691Y-31850D01*
X27449Y-31850D01*
X27406Y-31893D01*
X27406Y-32031D01*
X27406Y-32099D01*
X27432Y-32161D01*
X27480Y-32209D01*
X27543Y-32235D01*
X27649Y-32235D01*
X27691Y-32193D01*
X27691Y-33160D01*
X27688Y-33161D01*
X27646Y-33203D01*
X27630Y-33243D01*
X27424Y-33243D01*
X26795Y-32614D01*
X26795Y-28362D01*
X26844Y-28313D01*
X26901Y-28175D01*
X26901Y-28025D01*
X26844Y-27887D01*
X26738Y-27781D01*
X26600Y-27723D01*
X26450Y-27723D01*
X26440Y-27728D01*
X26440Y-23850D01*
X26371Y-23685D01*
X26245Y-23558D01*
X26080Y-23489D01*
X25901Y-23489D01*
X25735Y-23558D01*
X25608Y-23684D01*
X25540Y-23849D01*
X25540Y-24028D01*
X25608Y-24194D01*
X25734Y-24321D01*
X25900Y-24389D01*
X26079Y-24389D01*
X26244Y-24321D01*
X26371Y-24195D01*
X26440Y-24029D01*
X26440Y-23850D01*
X26440Y-27728D01*
X26312Y-27781D01*
X26206Y-27886D01*
X26148Y-28025D01*
X26148Y-28174D01*
X26205Y-28313D01*
X26255Y-28362D01*
X26255Y-32725D01*
X26275Y-32829D01*
X26334Y-32916D01*
X27122Y-33704D01*
X27209Y-33763D01*
X27209Y-33763D01*
X27312Y-33783D01*
X27630Y-33783D01*
X27646Y-33823D01*
X27688Y-33865D01*
X27743Y-33888D01*
X27803Y-33888D01*
X28053Y-33888D01*
X28108Y-33866D01*
X28150Y-33823D01*
X28173Y-33768D01*
X28173Y-33709D01*
X28173Y-36385D01*
X28025Y-36385D01*
X27887Y-36442D01*
X27781Y-36548D01*
X27723Y-36686D01*
X27723Y-36836D01*
X27780Y-36974D01*
X27886Y-37080D01*
X28024Y-37138D01*
X28174Y-37138D01*
X28313Y-37081D01*
X28419Y-36975D01*
X28476Y-36837D01*
X28476Y-36687D01*
X28476Y-38509D01*
X27689Y-38509D01*
X27689Y-36687D01*
X27632Y-36548D01*
X27526Y-36442D01*
X27388Y-36385D01*
X27238Y-36385D01*
X27100Y-36442D01*
X26994Y-36548D01*
X26936Y-36686D01*
X26936Y-36836D01*
X26993Y-36974D01*
X27099Y-37080D01*
X27237Y-37138D01*
X27387Y-37138D01*
X27526Y-37081D01*
X27632Y-36975D01*
X27689Y-36837D01*
X27689Y-36687D01*
X27689Y-38509D01*
X26901Y-38509D01*
X26901Y-36687D01*
X26844Y-36548D01*
X26738Y-36442D01*
X26600Y-36385D01*
X26450Y-36385D01*
X26312Y-36442D01*
X26206Y-36548D01*
X26148Y-36686D01*
X26148Y-36836D01*
X26205Y-36974D01*
X26311Y-37080D01*
X26449Y-37138D01*
X26599Y-37138D01*
X26738Y-37081D01*
X26844Y-36975D01*
X26901Y-36837D01*
X26901Y-36687D01*
X26901Y-38509D01*
X26114Y-38509D01*
X26114Y-36687D01*
X26114Y-28025D01*
X26057Y-27887D01*
X25951Y-27781D01*
X25813Y-27723D01*
X25663Y-27723D01*
X25525Y-27781D01*
X25440Y-27865D01*
X25440Y-24210D01*
X25440Y-23610D01*
X25417Y-23554D01*
X25375Y-23512D01*
X25320Y-23489D01*
X25260Y-23489D01*
X24660Y-23489D01*
X24605Y-23512D01*
X24563Y-23554D01*
X24540Y-23609D01*
X24540Y-23669D01*
X24540Y-24269D01*
X24562Y-24324D01*
X24605Y-24366D01*
X24660Y-24389D01*
X24719Y-24389D01*
X25319Y-24389D01*
X25375Y-24367D01*
X25417Y-24324D01*
X25440Y-24269D01*
X25440Y-24210D01*
X25440Y-27865D01*
X25419Y-27886D01*
X25361Y-28025D01*
X25361Y-28174D01*
X25418Y-28313D01*
X25524Y-28419D01*
X25662Y-28476D01*
X25812Y-28476D01*
X25951Y-28419D01*
X26057Y-28313D01*
X26114Y-28175D01*
X26114Y-28025D01*
X26114Y-36687D01*
X26057Y-36548D01*
X25951Y-36442D01*
X25813Y-36385D01*
X25663Y-36385D01*
X25525Y-36442D01*
X25419Y-36548D01*
X25361Y-36686D01*
X25361Y-36836D01*
X25418Y-36974D01*
X25524Y-37080D01*
X25662Y-37138D01*
X25812Y-37138D01*
X25951Y-37081D01*
X26057Y-36975D01*
X26114Y-36837D01*
X26114Y-36687D01*
X26114Y-38509D01*
X25997Y-38509D01*
X25221Y-37732D01*
X25221Y-37132D01*
X25262Y-37115D01*
X25304Y-37073D01*
X25327Y-37018D01*
X25327Y-36958D01*
X25327Y-36505D01*
X25327Y-28297D01*
X25327Y-27844D01*
X25304Y-27789D01*
X25262Y-27746D01*
X25207Y-27723D01*
X25147Y-27723D01*
X24694Y-27723D01*
X24639Y-27746D01*
X24597Y-27788D01*
X24574Y-27843D01*
X24574Y-27903D01*
X24574Y-28356D01*
X24597Y-28411D01*
X24639Y-28453D01*
X24694Y-28476D01*
X24754Y-28476D01*
X25207Y-28476D01*
X25262Y-28454D01*
X25304Y-28411D01*
X25327Y-28356D01*
X25327Y-28297D01*
X25327Y-36505D01*
X25304Y-36450D01*
X25262Y-36408D01*
X25207Y-36385D01*
X25147Y-36385D01*
X24694Y-36385D01*
X24639Y-36408D01*
X24597Y-36450D01*
X24574Y-36505D01*
X24574Y-36565D01*
X24574Y-37018D01*
X24597Y-37073D01*
X24639Y-37115D01*
X24681Y-37132D01*
X24681Y-37844D01*
X24701Y-37948D01*
X24760Y-38035D01*
X25694Y-38970D01*
X25782Y-39028D01*
X25782Y-39028D01*
X25885Y-39049D01*
X29120Y-39049D01*
X29720Y-39649D01*
X29720Y-40489D01*
X29660Y-40489D01*
X29605Y-40512D01*
X29563Y-40554D01*
X29540Y-40609D01*
X29540Y-40669D01*
X29540Y-41269D01*
X29562Y-41324D01*
X29605Y-41366D01*
X29660Y-41389D01*
X29719Y-41389D01*
X30319Y-41389D01*
X30375Y-41367D01*
X30417Y-41324D01*
X30440Y-41269D01*
X30440Y-41210D01*
X30440Y-41209D01*
X32170Y-41209D01*
X32170Y-41323D01*
X32192Y-41378D01*
X32228Y-41414D01*
X29461Y-41414D01*
X29461Y-40854D01*
X29393Y-40680D01*
X29383Y-40666D01*
X29305Y-40638D01*
X29291Y-40652D01*
X29291Y-40623D01*
X29263Y-40546D01*
X29092Y-40471D01*
X28905Y-40468D01*
X28731Y-40536D01*
X28716Y-40546D01*
X28688Y-40623D01*
X28990Y-40925D01*
X29291Y-40623D01*
X29291Y-40652D01*
X29004Y-40939D01*
X29305Y-41241D01*
X29383Y-41213D01*
X29458Y-41041D01*
X29461Y-40854D01*
X29461Y-41414D01*
X29291Y-41414D01*
X29291Y-41255D01*
X28990Y-40953D01*
X28976Y-40968D01*
X28976Y-40939D01*
X28674Y-40638D01*
X28596Y-40666D01*
X28521Y-40837D01*
X28518Y-41024D01*
X28586Y-41198D01*
X28596Y-41213D01*
X28674Y-41241D01*
X28976Y-40939D01*
X28976Y-40968D01*
X28688Y-41255D01*
X28716Y-41333D01*
X28888Y-41407D01*
X29074Y-41411D01*
X29249Y-41343D01*
X29263Y-41333D01*
X29291Y-41255D01*
X29291Y-41414D01*
X28440Y-41414D01*
X28440Y-40850D01*
X28371Y-40685D01*
X28245Y-40558D01*
X28080Y-40489D01*
X27901Y-40489D01*
X27735Y-40558D01*
X27608Y-40684D01*
X27540Y-40849D01*
X27540Y-41028D01*
X27608Y-41194D01*
X27734Y-41321D01*
X27900Y-41389D01*
X28079Y-41389D01*
X28244Y-41321D01*
X28371Y-41195D01*
X28440Y-41029D01*
X28440Y-40850D01*
X28440Y-41414D01*
X27440Y-41414D01*
X27440Y-40850D01*
X27371Y-40685D01*
X27245Y-40558D01*
X27080Y-40489D01*
X26901Y-40489D01*
X26735Y-40558D01*
X26608Y-40684D01*
X26540Y-40849D01*
X26540Y-41028D01*
X26608Y-41194D01*
X26734Y-41321D01*
X26900Y-41389D01*
X27079Y-41389D01*
X27244Y-41321D01*
X27371Y-41195D01*
X27440Y-41029D01*
X27440Y-40850D01*
X27440Y-41414D01*
X26440Y-41414D01*
X26440Y-40850D01*
X26371Y-40685D01*
X26245Y-40558D01*
X26080Y-40489D01*
X25901Y-40489D01*
X25735Y-40558D01*
X25608Y-40684D01*
X25540Y-40849D01*
X25540Y-41028D01*
X25608Y-41194D01*
X25734Y-41321D01*
X25900Y-41389D01*
X26079Y-41389D01*
X26244Y-41321D01*
X26371Y-41195D01*
X26440Y-41029D01*
X26440Y-40850D01*
X26440Y-41414D01*
X25440Y-41414D01*
X25440Y-40850D01*
X25371Y-40685D01*
X25245Y-40558D01*
X25080Y-40489D01*
X24901Y-40489D01*
X24735Y-40558D01*
X24608Y-40684D01*
X24540Y-40849D01*
X24540Y-41028D01*
X24608Y-41194D01*
X24734Y-41321D01*
X24900Y-41389D01*
X25079Y-41389D01*
X25244Y-41321D01*
X25371Y-41195D01*
X25440Y-41029D01*
X25440Y-40850D01*
X25440Y-41414D01*
X24529Y-41414D01*
X24529Y-23447D01*
X34525Y-23447D01*
X34525Y-28395D01*
X34538Y-28460D01*
X34574Y-28515D01*
X34629Y-28552D01*
X34694Y-28565D01*
X76722Y-28565D01*
X78620Y-28565D01*
X82486Y-32431D01*
X82486Y-32431D01*
G37*
G54D23*
X82486Y-32431D02*
X78620Y-36296D01*
X77846Y-36296D01*
X77846Y-32431D01*
X77670Y-31545D01*
X77168Y-30795D01*
X76417Y-30293D01*
X75532Y-30117D01*
X50353Y-30117D01*
X49467Y-30293D01*
X48717Y-30795D01*
X48349Y-31345D01*
X48349Y-28854D01*
X48323Y-28791D01*
X48275Y-28743D01*
X48213Y-28717D01*
X48145Y-28717D01*
X47837Y-28717D01*
X47795Y-28760D01*
X47795Y-30452D01*
X48306Y-30452D01*
X48349Y-30410D01*
X48349Y-28854D01*
X48349Y-31345D01*
X48349Y-31346D01*
X48349Y-30515D01*
X48306Y-30472D01*
X47795Y-30472D01*
X47795Y-30480D01*
X47775Y-30480D01*
X47775Y-30472D01*
X47775Y-30452D01*
X47775Y-28760D01*
X47732Y-28717D01*
X47425Y-28717D01*
X47357Y-28717D01*
X47295Y-28743D01*
X47247Y-28791D01*
X47221Y-28854D01*
X47221Y-30410D01*
X47264Y-30452D01*
X47775Y-30452D01*
X47775Y-30472D01*
X47264Y-30472D01*
X47221Y-30515D01*
X47221Y-32071D01*
X47247Y-32133D01*
X47275Y-32161D01*
X33506Y-32161D01*
X33452Y-32106D01*
X33332Y-32056D01*
X33203Y-32056D01*
X33083Y-32106D01*
X33028Y-32161D01*
X32994Y-32161D01*
X32994Y-32106D01*
X32971Y-32050D01*
X32929Y-32008D01*
X32874Y-31985D01*
X32814Y-31985D01*
X32632Y-31985D01*
X32632Y-30555D01*
X32632Y-30172D01*
X32632Y-29472D01*
X32632Y-29090D01*
X32632Y-29022D01*
X32606Y-28960D01*
X32558Y-28912D01*
X32496Y-28886D01*
X32413Y-28886D01*
X32413Y-28025D01*
X32356Y-27887D01*
X32250Y-27781D01*
X32112Y-27723D01*
X31962Y-27723D01*
X31824Y-27781D01*
X31718Y-27886D01*
X31660Y-28025D01*
X31660Y-28174D01*
X31717Y-28313D01*
X31823Y-28419D01*
X31961Y-28476D01*
X32111Y-28476D01*
X32250Y-28419D01*
X32356Y-28313D01*
X32413Y-28175D01*
X32413Y-28025D01*
X32413Y-28886D01*
X32389Y-28886D01*
X32347Y-28928D01*
X32347Y-29271D01*
X32589Y-29271D01*
X32632Y-29228D01*
X32632Y-29090D01*
X32632Y-29472D01*
X32632Y-29333D01*
X32589Y-29291D01*
X32347Y-29291D01*
X32347Y-29633D01*
X32389Y-29676D01*
X32496Y-29676D01*
X32558Y-29650D01*
X32606Y-29602D01*
X32632Y-29540D01*
X32632Y-29472D01*
X32632Y-30172D01*
X32632Y-30105D01*
X32606Y-30042D01*
X32558Y-29994D01*
X32496Y-29969D01*
X32389Y-29969D01*
X32347Y-30011D01*
X32347Y-30354D01*
X32589Y-30354D01*
X32632Y-30311D01*
X32632Y-30172D01*
X32632Y-30555D01*
X32632Y-30416D01*
X32589Y-30374D01*
X32347Y-30374D01*
X32347Y-30716D01*
X32389Y-30759D01*
X32496Y-30759D01*
X32558Y-30733D01*
X32606Y-30685D01*
X32632Y-30623D01*
X32632Y-30555D01*
X32632Y-31985D01*
X32581Y-31985D01*
X32581Y-31299D01*
X32566Y-31222D01*
X32566Y-31222D01*
X32552Y-31201D01*
X32523Y-31157D01*
X32523Y-31157D01*
X32327Y-30961D01*
X32327Y-30716D01*
X32327Y-30374D01*
X32327Y-30354D01*
X32327Y-30011D01*
X32327Y-29633D01*
X32327Y-29291D01*
X32327Y-29271D01*
X32327Y-28928D01*
X32284Y-28886D01*
X32178Y-28886D01*
X32116Y-28912D01*
X32068Y-28960D01*
X32042Y-29022D01*
X32042Y-29090D01*
X32042Y-29228D01*
X32084Y-29271D01*
X32327Y-29271D01*
X32327Y-29291D01*
X32084Y-29291D01*
X32042Y-29333D01*
X32042Y-29472D01*
X32042Y-29540D01*
X32068Y-29602D01*
X32116Y-29650D01*
X32178Y-29676D01*
X32284Y-29676D01*
X32327Y-29633D01*
X32327Y-30011D01*
X32284Y-29969D01*
X32178Y-29969D01*
X32116Y-29994D01*
X32068Y-30042D01*
X32042Y-30105D01*
X32042Y-30172D01*
X32042Y-30311D01*
X32084Y-30354D01*
X32327Y-30354D01*
X32327Y-30374D01*
X32084Y-30374D01*
X32042Y-30416D01*
X32042Y-30555D01*
X32042Y-30623D01*
X32068Y-30685D01*
X32116Y-30733D01*
X32178Y-30759D01*
X32284Y-30759D01*
X32327Y-30716D01*
X32327Y-30961D01*
X32004Y-30638D01*
X32012Y-30619D01*
X32012Y-30559D01*
X32012Y-30109D01*
X32007Y-30097D01*
X32007Y-29548D01*
X32012Y-29536D01*
X32012Y-29476D01*
X32012Y-29026D01*
X31989Y-28971D01*
X31947Y-28929D01*
X31892Y-28906D01*
X31832Y-28906D01*
X31744Y-28906D01*
X31520Y-28682D01*
X31520Y-28362D01*
X31569Y-28313D01*
X31626Y-28175D01*
X31626Y-28025D01*
X31569Y-27887D01*
X31463Y-27781D01*
X31325Y-27723D01*
X31175Y-27723D01*
X31037Y-27781D01*
X30931Y-27886D01*
X30873Y-28025D01*
X30873Y-28174D01*
X30930Y-28313D01*
X30980Y-28362D01*
X30980Y-28794D01*
X31000Y-28897D01*
X31059Y-28985D01*
X31462Y-29388D01*
X31462Y-29536D01*
X31467Y-29548D01*
X31467Y-30097D01*
X31462Y-30109D01*
X31462Y-30168D01*
X31462Y-30618D01*
X31485Y-30674D01*
X31527Y-30716D01*
X31551Y-30726D01*
X31552Y-30731D01*
X31595Y-30796D01*
X32181Y-31382D01*
X32181Y-31520D01*
X32149Y-31472D01*
X32149Y-31472D01*
X30733Y-30055D01*
X30733Y-28362D01*
X30782Y-28313D01*
X30839Y-28175D01*
X30839Y-28025D01*
X30782Y-27887D01*
X30676Y-27781D01*
X30538Y-27723D01*
X30440Y-27723D01*
X30440Y-23850D01*
X30371Y-23685D01*
X30245Y-23558D01*
X30080Y-23489D01*
X29901Y-23489D01*
X29735Y-23558D01*
X29608Y-23684D01*
X29540Y-23849D01*
X29540Y-24028D01*
X29608Y-24194D01*
X29734Y-24321D01*
X29900Y-24389D01*
X30079Y-24389D01*
X30244Y-24321D01*
X30371Y-24195D01*
X30440Y-24029D01*
X30440Y-23850D01*
X30440Y-27723D01*
X30388Y-27723D01*
X30250Y-27781D01*
X30144Y-27886D01*
X30086Y-28025D01*
X30086Y-28174D01*
X30143Y-28313D01*
X30193Y-28362D01*
X30193Y-30167D01*
X30213Y-30271D01*
X30272Y-30358D01*
X31688Y-31775D01*
X31688Y-32063D01*
X31670Y-32105D01*
X31670Y-32161D01*
X31446Y-32161D01*
X31446Y-32161D01*
X31426Y-32165D01*
X31343Y-32181D01*
X31255Y-32240D01*
X31255Y-32240D01*
X30911Y-32584D01*
X30858Y-32663D01*
X30858Y-32663D01*
X30794Y-32598D01*
X30675Y-32549D01*
X30545Y-32548D01*
X30426Y-32598D01*
X30334Y-32689D01*
X30285Y-32809D01*
X30285Y-32817D01*
X30177Y-32924D01*
X30119Y-33012D01*
X30098Y-33115D01*
X30098Y-33246D01*
X30093Y-33258D01*
X30093Y-33318D01*
X30093Y-33768D01*
X30116Y-33823D01*
X30158Y-33865D01*
X30213Y-33888D01*
X30273Y-33888D01*
X30523Y-33888D01*
X30578Y-33866D01*
X30620Y-33823D01*
X30643Y-33768D01*
X30643Y-33709D01*
X30643Y-33259D01*
X30638Y-33246D01*
X30638Y-33227D01*
X30667Y-33199D01*
X30674Y-33199D01*
X30794Y-33149D01*
X30832Y-33111D01*
X30832Y-33746D01*
X30596Y-33981D01*
X30051Y-33981D01*
X30051Y-28025D01*
X29994Y-27887D01*
X29888Y-27781D01*
X29750Y-27723D01*
X29600Y-27723D01*
X29462Y-27781D01*
X29440Y-27802D01*
X29440Y-23850D01*
X29371Y-23685D01*
X29245Y-23558D01*
X29080Y-23489D01*
X28901Y-23489D01*
X28735Y-23558D01*
X28608Y-23684D01*
X28540Y-23849D01*
X28540Y-24028D01*
X28608Y-24194D01*
X28720Y-24306D01*
X28720Y-25425D01*
X28440Y-25705D01*
X28440Y-23850D01*
X28371Y-23685D01*
X28245Y-23558D01*
X28080Y-23489D01*
X27901Y-23489D01*
X27735Y-23558D01*
X27608Y-23684D01*
X27540Y-23849D01*
X27540Y-24028D01*
X27608Y-24194D01*
X27734Y-24321D01*
X27900Y-24389D01*
X28079Y-24389D01*
X28244Y-24321D01*
X28371Y-24195D01*
X28440Y-24029D01*
X28440Y-23850D01*
X28440Y-25705D01*
X27909Y-26236D01*
X27850Y-26324D01*
X27830Y-26427D01*
X27830Y-27837D01*
X27781Y-27886D01*
X27723Y-28025D01*
X27723Y-28174D01*
X27780Y-28313D01*
X27886Y-28419D01*
X28024Y-28476D01*
X28174Y-28476D01*
X28313Y-28419D01*
X28419Y-28313D01*
X28476Y-28175D01*
X28476Y-28025D01*
X28419Y-27887D01*
X28370Y-27837D01*
X28370Y-26539D01*
X29181Y-25728D01*
X29239Y-25640D01*
X29239Y-25640D01*
X29260Y-25537D01*
X29260Y-24306D01*
X29371Y-24195D01*
X29440Y-24029D01*
X29440Y-23850D01*
X29440Y-27802D01*
X29356Y-27886D01*
X29298Y-28025D01*
X29298Y-28174D01*
X29355Y-28313D01*
X29461Y-28419D01*
X29599Y-28476D01*
X29749Y-28476D01*
X29888Y-28419D01*
X29994Y-28313D01*
X30051Y-28175D01*
X30051Y-28025D01*
X30051Y-33981D01*
X30043Y-33981D01*
X30043Y-33709D01*
X30043Y-33259D01*
X30038Y-33246D01*
X30038Y-32135D01*
X30018Y-32032D01*
X30018Y-32032D01*
X29959Y-31944D01*
X29959Y-31944D01*
X29853Y-31838D01*
X29853Y-31690D01*
X29853Y-31340D01*
X29853Y-31090D01*
X29830Y-31035D01*
X29788Y-30993D01*
X29748Y-30976D01*
X29748Y-30440D01*
X29788Y-30424D01*
X29830Y-30382D01*
X29853Y-30327D01*
X29853Y-30267D01*
X29853Y-30017D01*
X29853Y-29667D01*
X29853Y-29417D01*
X29830Y-29362D01*
X29788Y-29319D01*
X29748Y-29303D01*
X29748Y-29084D01*
X29727Y-28981D01*
X29727Y-28981D01*
X29669Y-28893D01*
X29669Y-28893D01*
X29158Y-28382D01*
X29158Y-28362D01*
X29207Y-28313D01*
X29264Y-28175D01*
X29264Y-28025D01*
X29207Y-27887D01*
X29101Y-27781D01*
X28963Y-27723D01*
X28813Y-27723D01*
X28675Y-27781D01*
X28569Y-27886D01*
X28511Y-28025D01*
X28511Y-28174D01*
X28568Y-28313D01*
X28618Y-28362D01*
X28618Y-28494D01*
X28638Y-28597D01*
X28697Y-28685D01*
X29208Y-29196D01*
X29208Y-29303D01*
X29168Y-29319D01*
X29126Y-29361D01*
X29103Y-29417D01*
X29103Y-29476D01*
X29103Y-29726D01*
X29126Y-29781D01*
X29168Y-29824D01*
X29223Y-29847D01*
X29283Y-29847D01*
X29733Y-29847D01*
X29788Y-29824D01*
X29830Y-29782D01*
X29853Y-29727D01*
X29853Y-29667D01*
X29853Y-30017D01*
X29830Y-29962D01*
X29788Y-29919D01*
X29733Y-29897D01*
X29673Y-29897D01*
X29223Y-29897D01*
X29222Y-29897D01*
X28570Y-29897D01*
X28554Y-29857D01*
X28512Y-29815D01*
X28456Y-29792D01*
X28397Y-29792D01*
X28147Y-29792D01*
X28092Y-29815D01*
X28049Y-29857D01*
X28026Y-29912D01*
X28026Y-29972D01*
X28026Y-30422D01*
X28049Y-30477D01*
X28091Y-30519D01*
X28147Y-30542D01*
X28206Y-30542D01*
X28456Y-30542D01*
X28511Y-30519D01*
X28554Y-30477D01*
X28570Y-30437D01*
X29200Y-30437D01*
X29208Y-30440D01*
X29208Y-30976D01*
X29168Y-30993D01*
X29126Y-31035D01*
X29103Y-31090D01*
X29103Y-31149D01*
X29103Y-31399D01*
X29126Y-31455D01*
X29168Y-31497D01*
X29223Y-31520D01*
X29283Y-31520D01*
X29733Y-31520D01*
X29788Y-31497D01*
X29830Y-31455D01*
X29853Y-31400D01*
X29853Y-31340D01*
X29853Y-31690D01*
X29830Y-31635D01*
X29788Y-31593D01*
X29733Y-31570D01*
X29673Y-31570D01*
X29223Y-31570D01*
X29222Y-31570D01*
X28570Y-31570D01*
X28554Y-31530D01*
X28512Y-31488D01*
X28456Y-31465D01*
X28397Y-31465D01*
X28147Y-31465D01*
X28092Y-31488D01*
X28049Y-31530D01*
X28026Y-31585D01*
X28026Y-31645D01*
X28026Y-32095D01*
X28049Y-32150D01*
X28091Y-32192D01*
X28147Y-32215D01*
X28206Y-32215D01*
X28456Y-32215D01*
X28511Y-32192D01*
X28554Y-32150D01*
X28570Y-32110D01*
X29200Y-32110D01*
X29223Y-32120D01*
X29283Y-32120D01*
X29371Y-32120D01*
X29498Y-32247D01*
X29498Y-33246D01*
X29493Y-33258D01*
X29493Y-33318D01*
X29493Y-33768D01*
X29516Y-33823D01*
X29558Y-33865D01*
X29613Y-33888D01*
X29673Y-33888D01*
X29923Y-33888D01*
X29978Y-33866D01*
X30020Y-33823D01*
X30043Y-33768D01*
X30043Y-33709D01*
X30043Y-33981D01*
X28950Y-33981D01*
X28768Y-33800D01*
X28768Y-33780D01*
X28773Y-33768D01*
X28773Y-33709D01*
X28773Y-33259D01*
X28751Y-33203D01*
X28708Y-33161D01*
X28653Y-33138D01*
X28594Y-33138D01*
X28344Y-33138D01*
X28288Y-33161D01*
X28246Y-33203D01*
X28223Y-33258D01*
X28223Y-33318D01*
X28223Y-33768D01*
X28228Y-33780D01*
X28228Y-33912D01*
X28249Y-34015D01*
X28307Y-34103D01*
X28647Y-34442D01*
X28735Y-34501D01*
X28735Y-34501D01*
X28838Y-34521D01*
X30708Y-34521D01*
X30811Y-34501D01*
X30811Y-34501D01*
X30899Y-34442D01*
X31293Y-34049D01*
X31293Y-34049D01*
X31293Y-34049D01*
X31351Y-33961D01*
X31351Y-33961D01*
X31372Y-33858D01*
X31372Y-32887D01*
X31558Y-32701D01*
X31670Y-32701D01*
X31670Y-32756D01*
X31693Y-32811D01*
X31735Y-32853D01*
X31790Y-32876D01*
X31850Y-32876D01*
X32126Y-32876D01*
X32181Y-32853D01*
X32181Y-32853D01*
X32181Y-33540D01*
X32011Y-33540D01*
X31968Y-33583D01*
X31968Y-33995D01*
X32283Y-33995D01*
X32325Y-33953D01*
X32325Y-33907D01*
X32418Y-34000D01*
X32418Y-34330D01*
X32441Y-34386D01*
X32483Y-34428D01*
X32538Y-34451D01*
X32598Y-34451D01*
X32874Y-34451D01*
X32929Y-34428D01*
X32971Y-34386D01*
X32994Y-34331D01*
X32994Y-34271D01*
X32994Y-33680D01*
X32971Y-33625D01*
X32929Y-33583D01*
X32874Y-33560D01*
X32814Y-33560D01*
X32581Y-33560D01*
X32581Y-32876D01*
X32598Y-32876D01*
X32874Y-32876D01*
X32929Y-32853D01*
X32971Y-32811D01*
X32994Y-32756D01*
X32994Y-32701D01*
X33188Y-32701D01*
X33202Y-32706D01*
X33332Y-32706D01*
X33346Y-32701D01*
X47275Y-32701D01*
X47247Y-32728D01*
X47221Y-32791D01*
X47221Y-34347D01*
X47264Y-34389D01*
X47775Y-34389D01*
X47775Y-34381D01*
X47795Y-34381D01*
X47795Y-34389D01*
X48306Y-34389D01*
X48349Y-34347D01*
X48349Y-33516D01*
X48717Y-34067D01*
X49467Y-34568D01*
X50353Y-34744D01*
X75532Y-34744D01*
X76417Y-34568D01*
X77168Y-34067D01*
X77670Y-33316D01*
X77846Y-32431D01*
X77846Y-36296D01*
X76722Y-36296D01*
X48349Y-36296D01*
X48349Y-36008D01*
X48349Y-34452D01*
X48306Y-34409D01*
X47795Y-34409D01*
X47795Y-36101D01*
X47837Y-36144D01*
X48145Y-36144D01*
X48213Y-36144D01*
X48275Y-36118D01*
X48323Y-36070D01*
X48349Y-36008D01*
X48349Y-36296D01*
X47775Y-36296D01*
X47775Y-36101D01*
X47775Y-34409D01*
X47264Y-34409D01*
X47221Y-34452D01*
X47221Y-36008D01*
X47247Y-36070D01*
X47295Y-36118D01*
X47357Y-36144D01*
X47425Y-36144D01*
X47732Y-36144D01*
X47775Y-36101D01*
X47775Y-36296D01*
X34694Y-36296D01*
X34629Y-36309D01*
X34574Y-36346D01*
X34538Y-36401D01*
X34525Y-36466D01*
X34525Y-41414D01*
X34091Y-41414D01*
X34091Y-40909D01*
X34023Y-40735D01*
X34013Y-40720D01*
X33935Y-40692D01*
X33921Y-40706D01*
X33921Y-40678D01*
X33893Y-40600D01*
X33722Y-40525D01*
X33535Y-40522D01*
X33361Y-40590D01*
X33346Y-40600D01*
X33318Y-40678D01*
X33620Y-40979D01*
X33921Y-40678D01*
X33921Y-40706D01*
X33634Y-40994D01*
X33935Y-41295D01*
X34013Y-41267D01*
X34088Y-41096D01*
X34091Y-40909D01*
X34091Y-41414D01*
X33834Y-41414D01*
X33878Y-41397D01*
X33893Y-41387D01*
X33921Y-41309D01*
X33620Y-41008D01*
X33605Y-41022D01*
X33605Y-40994D01*
X33304Y-40692D01*
X33226Y-40720D01*
X33151Y-40891D01*
X33148Y-41078D01*
X33216Y-41252D01*
X33226Y-41267D01*
X33304Y-41295D01*
X33605Y-40994D01*
X33605Y-41022D01*
X33318Y-41309D01*
X33346Y-41387D01*
X33409Y-41414D01*
X33011Y-41414D01*
X33047Y-41379D01*
X33070Y-41324D01*
X33070Y-41264D01*
X33070Y-40664D01*
X33047Y-40609D01*
X33005Y-40567D01*
X32950Y-40544D01*
X32890Y-40544D01*
X32434Y-40544D01*
X32434Y-36688D01*
X32376Y-36542D01*
X32369Y-36532D01*
X32325Y-36520D01*
X32325Y-34267D01*
X32325Y-34058D01*
X32283Y-34015D01*
X31968Y-34015D01*
X31968Y-34428D01*
X32011Y-34471D01*
X32189Y-34471D01*
X32251Y-34445D01*
X32299Y-34397D01*
X32325Y-34335D01*
X32325Y-34267D01*
X32325Y-36520D01*
X32299Y-36513D01*
X32285Y-36527D01*
X32285Y-36499D01*
X32266Y-36428D01*
X32121Y-36366D01*
X31963Y-36364D01*
X31948Y-36370D01*
X31948Y-34428D01*
X31948Y-34015D01*
X31948Y-33995D01*
X31948Y-33583D01*
X31906Y-33540D01*
X31728Y-33540D01*
X31665Y-33566D01*
X31617Y-33614D01*
X31591Y-33676D01*
X31591Y-33744D01*
X31591Y-33953D01*
X31634Y-33995D01*
X31948Y-33995D01*
X31948Y-34015D01*
X31634Y-34015D01*
X31591Y-34058D01*
X31591Y-34267D01*
X31591Y-34335D01*
X31617Y-34397D01*
X31665Y-34445D01*
X31728Y-34471D01*
X31906Y-34471D01*
X31948Y-34428D01*
X31948Y-36370D01*
X31817Y-36422D01*
X31807Y-36428D01*
X31788Y-36499D01*
X32037Y-36747D01*
X32285Y-36499D01*
X32285Y-36527D01*
X32051Y-36761D01*
X32299Y-37010D01*
X32369Y-36991D01*
X32432Y-36846D01*
X32434Y-36688D01*
X32434Y-40544D01*
X32290Y-40544D01*
X32285Y-40545D01*
X32285Y-37024D01*
X32037Y-36775D01*
X32022Y-36790D01*
X32022Y-36761D01*
X31774Y-36513D01*
X31704Y-36532D01*
X31641Y-36677D01*
X31639Y-36834D01*
X31697Y-36981D01*
X31704Y-36991D01*
X31774Y-37010D01*
X32022Y-36761D01*
X32022Y-36790D01*
X31788Y-37024D01*
X31807Y-37094D01*
X31952Y-37157D01*
X32110Y-37159D01*
X32256Y-37101D01*
X32266Y-37094D01*
X32285Y-37024D01*
X32285Y-40545D01*
X32235Y-40566D01*
X32192Y-40609D01*
X32170Y-40664D01*
X32170Y-40669D01*
X31626Y-40669D01*
X31626Y-36687D01*
X31569Y-36548D01*
X31463Y-36442D01*
X31325Y-36385D01*
X31175Y-36385D01*
X31037Y-36442D01*
X30931Y-36548D01*
X30873Y-36686D01*
X30873Y-36836D01*
X30930Y-36974D01*
X31036Y-37080D01*
X31174Y-37138D01*
X31324Y-37138D01*
X31463Y-37081D01*
X31569Y-36975D01*
X31626Y-36837D01*
X31626Y-36687D01*
X31626Y-40669D01*
X30839Y-40669D01*
X30839Y-36687D01*
X30782Y-36548D01*
X30676Y-36442D01*
X30538Y-36385D01*
X30388Y-36385D01*
X30250Y-36442D01*
X30144Y-36548D01*
X30086Y-36686D01*
X30086Y-36836D01*
X30143Y-36974D01*
X30249Y-37080D01*
X30387Y-37138D01*
X30537Y-37138D01*
X30676Y-37081D01*
X30782Y-36975D01*
X30839Y-36837D01*
X30839Y-36687D01*
X30839Y-40669D01*
X30440Y-40669D01*
X30440Y-40610D01*
X30417Y-40554D01*
X30375Y-40512D01*
X30320Y-40489D01*
X30260Y-40489D01*
X30260Y-40489D01*
X30260Y-39537D01*
X30239Y-39434D01*
X30239Y-39434D01*
X30181Y-39346D01*
X30051Y-39217D01*
X30051Y-36687D01*
X29994Y-36548D01*
X29888Y-36442D01*
X29750Y-36385D01*
X29600Y-36385D01*
X29462Y-36442D01*
X29356Y-36548D01*
X29298Y-36686D01*
X29298Y-36836D01*
X29355Y-36974D01*
X29461Y-37080D01*
X29599Y-37138D01*
X29749Y-37138D01*
X29888Y-37081D01*
X29994Y-36975D01*
X30051Y-36837D01*
X30051Y-36687D01*
X30051Y-39217D01*
X29423Y-38588D01*
X29335Y-38530D01*
X29264Y-38515D01*
X29264Y-36687D01*
X29207Y-36548D01*
X29101Y-36442D01*
X28963Y-36385D01*
X28813Y-36385D01*
X28675Y-36442D01*
X28569Y-36548D01*
X28511Y-36686D01*
X28511Y-36836D01*
X28568Y-36974D01*
X28674Y-37080D01*
X28812Y-37138D01*
X28962Y-37138D01*
X29101Y-37081D01*
X29207Y-36975D01*
X29264Y-36837D01*
X29264Y-36687D01*
X29264Y-38515D01*
X29232Y-38509D01*
X28476Y-38509D01*
X28476Y-36687D01*
X28419Y-36548D01*
X28313Y-36442D01*
X28175Y-36385D01*
X28173Y-36385D01*
X28173Y-33709D01*
X28173Y-33259D01*
X28151Y-33203D01*
X28108Y-33161D01*
X28053Y-33138D01*
X27996Y-33138D01*
X27996Y-32031D01*
X27996Y-31649D01*
X27996Y-30358D01*
X27996Y-29975D01*
X27996Y-29908D01*
X27971Y-29845D01*
X27923Y-29798D01*
X27860Y-29772D01*
X27754Y-29772D01*
X27711Y-29814D01*
X27711Y-30157D01*
X27954Y-30157D01*
X27996Y-30114D01*
X27996Y-29975D01*
X27996Y-30358D01*
X27996Y-30219D01*
X27954Y-30177D01*
X27711Y-30177D01*
X27711Y-30519D01*
X27754Y-30562D01*
X27860Y-30562D01*
X27923Y-30536D01*
X27971Y-30488D01*
X27996Y-30426D01*
X27996Y-30358D01*
X27996Y-31649D01*
X27996Y-31581D01*
X27971Y-31519D01*
X27923Y-31471D01*
X27860Y-31445D01*
X27754Y-31445D01*
X27711Y-31488D01*
X27711Y-31830D01*
X27954Y-31830D01*
X27996Y-31788D01*
X27996Y-31649D01*
X27996Y-32031D01*
X27996Y-31893D01*
X27954Y-31850D01*
X27711Y-31850D01*
X27711Y-32193D01*
X27754Y-32235D01*
X27860Y-32235D01*
X27923Y-32209D01*
X27971Y-32161D01*
X27996Y-32099D01*
X27996Y-32031D01*
X27996Y-33138D01*
X27994Y-33138D01*
X27744Y-33138D01*
X27691Y-33160D01*
X27691Y-32193D01*
X27691Y-31850D01*
X27691Y-31830D01*
X27691Y-31488D01*
X27691Y-30519D01*
X27691Y-30177D01*
X27691Y-30157D01*
X27691Y-29814D01*
X27689Y-29812D01*
X27689Y-28025D01*
X27632Y-27887D01*
X27526Y-27781D01*
X27440Y-27745D01*
X27440Y-23850D01*
X27371Y-23685D01*
X27245Y-23558D01*
X27080Y-23489D01*
X26901Y-23489D01*
X26735Y-23558D01*
X26608Y-23684D01*
X26540Y-23849D01*
X26540Y-24028D01*
X26608Y-24194D01*
X26734Y-24321D01*
X26900Y-24389D01*
X27079Y-24389D01*
X27244Y-24321D01*
X27371Y-24195D01*
X27440Y-24029D01*
X27440Y-23850D01*
X27440Y-27745D01*
X27388Y-27723D01*
X27238Y-27723D01*
X27100Y-27781D01*
X26994Y-27886D01*
X26936Y-28025D01*
X26936Y-28174D01*
X26993Y-28313D01*
X27099Y-28419D01*
X27237Y-28476D01*
X27387Y-28476D01*
X27526Y-28419D01*
X27632Y-28313D01*
X27689Y-28175D01*
X27689Y-28025D01*
X27689Y-29812D01*
X27649Y-29772D01*
X27543Y-29772D01*
X27480Y-29798D01*
X27432Y-29845D01*
X27406Y-29908D01*
X27406Y-29975D01*
X27406Y-30114D01*
X27449Y-30157D01*
X27691Y-30157D01*
X27691Y-30177D01*
X27449Y-30177D01*
X27406Y-30219D01*
X27406Y-30358D01*
X27406Y-30426D01*
X27432Y-30488D01*
X27480Y-30536D01*
X27543Y-30562D01*
X27649Y-30562D01*
X27691Y-30519D01*
X27691Y-31488D01*
X27649Y-31445D01*
X27543Y-31445D01*
X27480Y-31471D01*
X27432Y-31519D01*
X27406Y-31581D01*
X27406Y-31649D01*
X27406Y-31788D01*
X27449Y-31830D01*
X27691Y-31830D01*
X27691Y-31850D01*
X27449Y-31850D01*
X27406Y-31893D01*
X27406Y-32031D01*
X27406Y-32099D01*
X27432Y-32161D01*
X27480Y-32209D01*
X27543Y-32235D01*
X27649Y-32235D01*
X27691Y-32193D01*
X27691Y-33160D01*
X27688Y-33161D01*
X27646Y-33203D01*
X27630Y-33243D01*
X27424Y-33243D01*
X26795Y-32614D01*
X26795Y-28362D01*
X26844Y-28313D01*
X26901Y-28175D01*
X26901Y-28025D01*
X26844Y-27887D01*
X26738Y-27781D01*
X26600Y-27723D01*
X26450Y-27723D01*
X26440Y-27728D01*
X26440Y-23850D01*
X26371Y-23685D01*
X26245Y-23558D01*
X26080Y-23489D01*
X25901Y-23489D01*
X25735Y-23558D01*
X25608Y-23684D01*
X25540Y-23849D01*
X25540Y-24028D01*
X25608Y-24194D01*
X25734Y-24321D01*
X25900Y-24389D01*
X26079Y-24389D01*
X26244Y-24321D01*
X26371Y-24195D01*
X26440Y-24029D01*
X26440Y-23850D01*
X26440Y-27728D01*
X26312Y-27781D01*
X26206Y-27886D01*
X26148Y-28025D01*
X26148Y-28174D01*
X26205Y-28313D01*
X26255Y-28362D01*
X26255Y-32725D01*
X26275Y-32829D01*
X26334Y-32916D01*
X27122Y-33704D01*
X27209Y-33763D01*
X27209Y-33763D01*
X27312Y-33783D01*
X27630Y-33783D01*
X27646Y-33823D01*
X27688Y-33865D01*
X27743Y-33888D01*
X27803Y-33888D01*
X28053Y-33888D01*
X28108Y-33866D01*
X28150Y-33823D01*
X28173Y-33768D01*
X28173Y-33709D01*
X28173Y-36385D01*
X28025Y-36385D01*
X27887Y-36442D01*
X27781Y-36548D01*
X27723Y-36686D01*
X27723Y-36836D01*
X27780Y-36974D01*
X27886Y-37080D01*
X28024Y-37138D01*
X28174Y-37138D01*
X28313Y-37081D01*
X28419Y-36975D01*
X28476Y-36837D01*
X28476Y-36687D01*
X28476Y-38509D01*
X27689Y-38509D01*
X27689Y-36687D01*
X27632Y-36548D01*
X27526Y-36442D01*
X27388Y-36385D01*
X27238Y-36385D01*
X27100Y-36442D01*
X26994Y-36548D01*
X26936Y-36686D01*
X26936Y-36836D01*
X26993Y-36974D01*
X27099Y-37080D01*
X27237Y-37138D01*
X27387Y-37138D01*
X27526Y-37081D01*
X27632Y-36975D01*
X27689Y-36837D01*
X27689Y-36687D01*
X27689Y-38509D01*
X26901Y-38509D01*
X26901Y-36687D01*
X26844Y-36548D01*
X26738Y-36442D01*
X26600Y-36385D01*
X26450Y-36385D01*
X26312Y-36442D01*
X26206Y-36548D01*
X26148Y-36686D01*
X26148Y-36836D01*
X26205Y-36974D01*
X26311Y-37080D01*
X26449Y-37138D01*
X26599Y-37138D01*
X26738Y-37081D01*
X26844Y-36975D01*
X26901Y-36837D01*
X26901Y-36687D01*
X26901Y-38509D01*
X26114Y-38509D01*
X26114Y-36687D01*
X26114Y-28025D01*
X26057Y-27887D01*
X25951Y-27781D01*
X25813Y-27723D01*
X25663Y-27723D01*
X25525Y-27781D01*
X25440Y-27865D01*
X25440Y-24210D01*
X25440Y-23610D01*
X25417Y-23554D01*
X25375Y-23512D01*
X25320Y-23489D01*
X25260Y-23489D01*
X24660Y-23489D01*
X24605Y-23512D01*
X24563Y-23554D01*
X24540Y-23609D01*
X24540Y-23669D01*
X24540Y-24269D01*
X24562Y-24324D01*
X24605Y-24366D01*
X24660Y-24389D01*
X24719Y-24389D01*
X25319Y-24389D01*
X25375Y-24367D01*
X25417Y-24324D01*
X25440Y-24269D01*
X25440Y-24210D01*
X25440Y-27865D01*
X25419Y-27886D01*
X25361Y-28025D01*
X25361Y-28174D01*
X25418Y-28313D01*
X25524Y-28419D01*
X25662Y-28476D01*
X25812Y-28476D01*
X25951Y-28419D01*
X26057Y-28313D01*
X26114Y-28175D01*
X26114Y-28025D01*
X26114Y-36687D01*
X26057Y-36548D01*
X25951Y-36442D01*
X25813Y-36385D01*
X25663Y-36385D01*
X25525Y-36442D01*
X25419Y-36548D01*
X25361Y-36686D01*
X25361Y-36836D01*
X25418Y-36974D01*
X25524Y-37080D01*
X25662Y-37138D01*
X25812Y-37138D01*
X25951Y-37081D01*
X26057Y-36975D01*
X26114Y-36837D01*
X26114Y-36687D01*
X26114Y-38509D01*
X25997Y-38509D01*
X25221Y-37732D01*
X25221Y-37132D01*
X25262Y-37115D01*
X25304Y-37073D01*
X25327Y-37018D01*
X25327Y-36958D01*
X25327Y-36505D01*
X25327Y-28297D01*
X25327Y-27844D01*
X25304Y-27789D01*
X25262Y-27746D01*
X25207Y-27723D01*
X25147Y-27723D01*
X24694Y-27723D01*
X24639Y-27746D01*
X24597Y-27788D01*
X24574Y-27843D01*
X24574Y-27903D01*
X24574Y-28356D01*
X24597Y-28411D01*
X24639Y-28453D01*
X24694Y-28476D01*
X24754Y-28476D01*
X25207Y-28476D01*
X25262Y-28454D01*
X25304Y-28411D01*
X25327Y-28356D01*
X25327Y-28297D01*
X25327Y-36505D01*
X25304Y-36450D01*
X25262Y-36408D01*
X25207Y-36385D01*
X25147Y-36385D01*
X24694Y-36385D01*
X24639Y-36408D01*
X24597Y-36450D01*
X24574Y-36505D01*
X24574Y-36565D01*
X24574Y-37018D01*
X24597Y-37073D01*
X24639Y-37115D01*
X24681Y-37132D01*
X24681Y-37844D01*
X24701Y-37948D01*
X24760Y-38035D01*
X25694Y-38970D01*
X25782Y-39028D01*
X25782Y-39028D01*
X25885Y-39049D01*
X29120Y-39049D01*
X29720Y-39649D01*
X29720Y-40489D01*
X29660Y-40489D01*
X29605Y-40512D01*
X29563Y-40554D01*
X29540Y-40609D01*
X29540Y-40669D01*
X29540Y-41269D01*
X29562Y-41324D01*
X29605Y-41366D01*
X29660Y-41389D01*
X29719Y-41389D01*
X30319Y-41389D01*
X30375Y-41367D01*
X30417Y-41324D01*
X30440Y-41269D01*
X30440Y-41210D01*
X30440Y-41209D01*
X32170Y-41209D01*
X32170Y-41323D01*
X32192Y-41378D01*
X32228Y-41414D01*
X29461Y-41414D01*
X29461Y-40854D01*
X29393Y-40680D01*
X29383Y-40666D01*
X29305Y-40638D01*
X29291Y-40652D01*
X29291Y-40623D01*
X29263Y-40546D01*
X29092Y-40471D01*
X28905Y-40468D01*
X28731Y-40536D01*
X28716Y-40546D01*
X28688Y-40623D01*
X28990Y-40925D01*
X29291Y-40623D01*
X29291Y-40652D01*
X29004Y-40939D01*
X29305Y-41241D01*
X29383Y-41213D01*
X29458Y-41041D01*
X29461Y-40854D01*
X29461Y-41414D01*
X29291Y-41414D01*
X29291Y-41255D01*
X28990Y-40953D01*
X28976Y-40968D01*
X28976Y-40939D01*
X28674Y-40638D01*
X28596Y-40666D01*
X28521Y-40837D01*
X28518Y-41024D01*
X28586Y-41198D01*
X28596Y-41213D01*
X28674Y-41241D01*
X28976Y-40939D01*
X28976Y-40968D01*
X28688Y-41255D01*
X28716Y-41333D01*
X28888Y-41407D01*
X29074Y-41411D01*
X29249Y-41343D01*
X29263Y-41333D01*
X29291Y-41255D01*
X29291Y-41414D01*
X28440Y-41414D01*
X28440Y-40850D01*
X28371Y-40685D01*
X28245Y-40558D01*
X28080Y-40489D01*
X27901Y-40489D01*
X27735Y-40558D01*
X27608Y-40684D01*
X27540Y-40849D01*
X27540Y-41028D01*
X27608Y-41194D01*
X27734Y-41321D01*
X27900Y-41389D01*
X28079Y-41389D01*
X28244Y-41321D01*
X28371Y-41195D01*
X28440Y-41029D01*
X28440Y-40850D01*
X28440Y-41414D01*
X27440Y-41414D01*
X27440Y-40850D01*
X27371Y-40685D01*
X27245Y-40558D01*
X27080Y-40489D01*
X26901Y-40489D01*
X26735Y-40558D01*
X26608Y-40684D01*
X26540Y-40849D01*
X26540Y-41028D01*
X26608Y-41194D01*
X26734Y-41321D01*
X26900Y-41389D01*
X27079Y-41389D01*
X27244Y-41321D01*
X27371Y-41195D01*
X27440Y-41029D01*
X27440Y-40850D01*
X27440Y-41414D01*
X26440Y-41414D01*
X26440Y-40850D01*
X26371Y-40685D01*
X26245Y-40558D01*
X26080Y-40489D01*
X25901Y-40489D01*
X25735Y-40558D01*
X25608Y-40684D01*
X25540Y-40849D01*
X25540Y-41028D01*
X25608Y-41194D01*
X25734Y-41321D01*
X25900Y-41389D01*
X26079Y-41389D01*
X26244Y-41321D01*
X26371Y-41195D01*
X26440Y-41029D01*
X26440Y-40850D01*
X26440Y-41414D01*
X25440Y-41414D01*
X25440Y-40850D01*
X25371Y-40685D01*
X25245Y-40558D01*
X25080Y-40489D01*
X24901Y-40489D01*
X24735Y-40558D01*
X24608Y-40684D01*
X24540Y-40849D01*
X24540Y-41028D01*
X24608Y-41194D01*
X24734Y-41321D01*
X24900Y-41389D01*
X25079Y-41389D01*
X25244Y-41321D01*
X25371Y-41195D01*
X25440Y-41029D01*
X25440Y-40850D01*
X25440Y-41414D01*
X24529Y-41414D01*
X24529Y-23447D01*
X34525Y-23447D01*
X34525Y-28395D01*
X34538Y-28460D01*
X34574Y-28515D01*
X34629Y-28552D01*
X34694Y-28565D01*
X76722Y-28565D01*
X78620Y-28565D01*
X82486Y-32431D01*
M02*
