M48
;DRILL file {Pcbnew (22-Jun-2014 BZR 4027)-stable} date Thu 31 Jul 2014 05:41:28 PM UTC
;FORMAT={-:-/ absolute / metric / decimal}
FMAT,2
METRIC,TZ
T1C0.635
T2C0.650
T3C1.016
%
G90
G05
M71
T1
X77.75Y-83.5
X84.5Y-82.25
T2
X63.376Y-71.375
X63.376Y-93.375
X65.375Y-71.375
X65.375Y-93.375
X67.374Y-71.375
X67.374Y-93.375
X69.375Y-71.375
X69.375Y-93.375
X71.374Y-71.375
X71.374Y-93.375
X73.376Y-71.375
X73.376Y-93.375
X75.375Y-71.375
X75.375Y-93.375
X77.376Y-71.375
X77.376Y-93.375
X79.375Y-71.375
X79.375Y-93.375
X81.374Y-71.375
X81.374Y-93.375
T3
X63.475Y-60.807
X63.475Y-103.987
X66.015Y-60.807
X66.015Y-103.987
X68.555Y-60.807
X68.555Y-103.987
X71.095Y-60.807
X71.095Y-103.987
X73.635Y-60.807
X73.635Y-103.987
X76.175Y-60.807
X76.175Y-103.987
X82.855Y-104.125
X85.395Y-104.125
T0
M30
