G04 (created by PCBNEW (22-Jun-2014 BZR 4027)-stable) date Thu 31 Jul 2014 05:41:25 PM UTC*
%MOIN*%
G04 Gerber Fmt 3.4, Leading zero omitted, Abs format*
%FSLAX34Y34*%
G01*
G70*
G90*
G04 APERTURE LIST*
%ADD10C,0.00590551*%
%ADD11R,0.06X0.06*%
%ADD12C,0.06*%
%ADD13C,0.0453*%
%ADD14R,0.0453X0.0453*%
%ADD15R,0.0787402X0.314961*%
%ADD16O,2.75591X0.295276*%
%ADD17C,0.035*%
%ADD18C,0.01*%
%ADD19C,0.024*%
G04 APERTURE END LIST*
G54D10*
G54D11*
X32620Y-40994D03*
G54D12*
X33620Y-40994D03*
G54D11*
X29990Y-40939D03*
G54D12*
X28990Y-40939D03*
X27990Y-40939D03*
X26990Y-40939D03*
X25990Y-40939D03*
X24990Y-40939D03*
G54D11*
X24990Y-23939D03*
G54D12*
X25990Y-23939D03*
X26990Y-23939D03*
X27990Y-23939D03*
X28990Y-23939D03*
X29990Y-23939D03*
G54D13*
X32037Y-28100D03*
X28888Y-28100D03*
X29675Y-28100D03*
X30463Y-28100D03*
X31250Y-28100D03*
X28100Y-28100D03*
X27313Y-28100D03*
X26525Y-28100D03*
G54D14*
X24951Y-28100D03*
G54D13*
X25738Y-28100D03*
X32037Y-36761D03*
X28888Y-36761D03*
X29675Y-36761D03*
X30463Y-36761D03*
X31250Y-36761D03*
X28100Y-36761D03*
X27313Y-36761D03*
X26525Y-36761D03*
G54D14*
X24951Y-36761D03*
G54D13*
X25738Y-36761D03*
G54D15*
X47785Y-34399D03*
X47785Y-30462D03*
G54D16*
X62942Y-32431D03*
G54D17*
X30610Y-32874D03*
X33267Y-32381D03*
G54D18*
X32037Y-28100D02*
X32037Y-28395D01*
X24507Y-40457D02*
X24990Y-40939D01*
X24507Y-29330D02*
X24507Y-40457D01*
X25098Y-28740D02*
X24507Y-29330D01*
X31692Y-28740D02*
X25098Y-28740D01*
X32037Y-28395D02*
X31692Y-28740D01*
G54D19*
X33267Y-32381D02*
X33267Y-32480D01*
X32874Y-32874D02*
X30610Y-32874D01*
X33267Y-32480D02*
X32874Y-32874D01*
X62942Y-32431D02*
X33316Y-32431D01*
X33316Y-32431D02*
X33267Y-32381D01*
G54D10*
G36*
X82486Y-32431D02*
X78620Y-36296D01*
X77846Y-36296D01*
X77846Y-32431D01*
X77670Y-31545D01*
X77168Y-30795D01*
X76417Y-30293D01*
X75532Y-30117D01*
X50353Y-30117D01*
X49467Y-30293D01*
X48717Y-30795D01*
X48349Y-31345D01*
X48349Y-28854D01*
X48323Y-28791D01*
X48275Y-28743D01*
X48213Y-28717D01*
X48145Y-28717D01*
X47837Y-28717D01*
X47795Y-28760D01*
X47795Y-30452D01*
X48306Y-30452D01*
X48349Y-30410D01*
X48349Y-28854D01*
X48349Y-31345D01*
X48349Y-31346D01*
X48349Y-30515D01*
X48306Y-30472D01*
X47795Y-30472D01*
X47795Y-30480D01*
X47775Y-30480D01*
X47775Y-30472D01*
X47775Y-30452D01*
X47775Y-28760D01*
X47732Y-28717D01*
X47425Y-28717D01*
X47357Y-28717D01*
X47295Y-28743D01*
X47247Y-28791D01*
X47221Y-28854D01*
X47221Y-30410D01*
X47264Y-30452D01*
X47775Y-30452D01*
X47775Y-30472D01*
X47264Y-30472D01*
X47221Y-30515D01*
X47221Y-32071D01*
X47247Y-32133D01*
X47275Y-32161D01*
X33506Y-32161D01*
X33452Y-32106D01*
X33332Y-32056D01*
X33203Y-32056D01*
X33083Y-32106D01*
X32992Y-32197D01*
X32942Y-32316D01*
X32942Y-32423D01*
X32762Y-32604D01*
X30799Y-32604D01*
X30794Y-32598D01*
X30675Y-32549D01*
X30545Y-32548D01*
X30426Y-32598D01*
X30334Y-32689D01*
X30285Y-32809D01*
X30285Y-32938D01*
X30334Y-33057D01*
X30425Y-33149D01*
X30545Y-33198D01*
X30674Y-33199D01*
X30794Y-33149D01*
X30799Y-33144D01*
X32874Y-33144D01*
X32977Y-33123D01*
X32977Y-33123D01*
X33064Y-33064D01*
X33428Y-32701D01*
X47275Y-32701D01*
X47247Y-32728D01*
X47221Y-32791D01*
X47221Y-34347D01*
X47264Y-34389D01*
X47775Y-34389D01*
X47775Y-34381D01*
X47795Y-34381D01*
X47795Y-34389D01*
X48306Y-34389D01*
X48349Y-34347D01*
X48349Y-33516D01*
X48717Y-34067D01*
X49467Y-34568D01*
X50353Y-34744D01*
X75532Y-34744D01*
X76417Y-34568D01*
X77168Y-34067D01*
X77670Y-33316D01*
X77846Y-32431D01*
X77846Y-36296D01*
X76722Y-36296D01*
X48349Y-36296D01*
X48349Y-36008D01*
X48349Y-34452D01*
X48306Y-34409D01*
X47795Y-34409D01*
X47795Y-36101D01*
X47837Y-36144D01*
X48145Y-36144D01*
X48213Y-36144D01*
X48275Y-36118D01*
X48323Y-36070D01*
X48349Y-36008D01*
X48349Y-36296D01*
X47775Y-36296D01*
X47775Y-36101D01*
X47775Y-34409D01*
X47264Y-34409D01*
X47221Y-34452D01*
X47221Y-36008D01*
X47247Y-36070D01*
X47295Y-36118D01*
X47357Y-36144D01*
X47425Y-36144D01*
X47732Y-36144D01*
X47775Y-36101D01*
X47775Y-36296D01*
X34694Y-36296D01*
X34629Y-36309D01*
X34574Y-36346D01*
X34538Y-36401D01*
X34525Y-36466D01*
X34525Y-41414D01*
X34091Y-41414D01*
X34091Y-40909D01*
X34023Y-40735D01*
X34013Y-40720D01*
X33935Y-40692D01*
X33921Y-40706D01*
X33921Y-40678D01*
X33893Y-40600D01*
X33722Y-40525D01*
X33535Y-40522D01*
X33361Y-40590D01*
X33346Y-40600D01*
X33318Y-40678D01*
X33620Y-40979D01*
X33921Y-40678D01*
X33921Y-40706D01*
X33634Y-40994D01*
X33935Y-41295D01*
X34013Y-41267D01*
X34088Y-41096D01*
X34091Y-40909D01*
X34091Y-41414D01*
X33834Y-41414D01*
X33878Y-41397D01*
X33893Y-41387D01*
X33921Y-41309D01*
X33620Y-41008D01*
X33605Y-41022D01*
X33605Y-40994D01*
X33304Y-40692D01*
X33226Y-40720D01*
X33151Y-40891D01*
X33148Y-41078D01*
X33216Y-41252D01*
X33226Y-41267D01*
X33304Y-41295D01*
X33605Y-40994D01*
X33605Y-41022D01*
X33318Y-41309D01*
X33346Y-41387D01*
X33409Y-41414D01*
X33011Y-41414D01*
X33047Y-41379D01*
X33070Y-41324D01*
X33070Y-41264D01*
X33070Y-40664D01*
X33047Y-40609D01*
X33005Y-40567D01*
X32950Y-40544D01*
X32890Y-40544D01*
X32434Y-40544D01*
X32434Y-36688D01*
X32376Y-36542D01*
X32369Y-36532D01*
X32299Y-36513D01*
X32285Y-36527D01*
X32285Y-36499D01*
X32266Y-36428D01*
X32121Y-36366D01*
X31963Y-36364D01*
X31817Y-36422D01*
X31807Y-36428D01*
X31788Y-36499D01*
X32037Y-36747D01*
X32285Y-36499D01*
X32285Y-36527D01*
X32051Y-36761D01*
X32299Y-37010D01*
X32369Y-36991D01*
X32432Y-36846D01*
X32434Y-36688D01*
X32434Y-40544D01*
X32290Y-40544D01*
X32285Y-40545D01*
X32285Y-37024D01*
X32037Y-36775D01*
X32022Y-36790D01*
X32022Y-36761D01*
X31774Y-36513D01*
X31704Y-36532D01*
X31641Y-36677D01*
X31639Y-36834D01*
X31697Y-36981D01*
X31704Y-36991D01*
X31774Y-37010D01*
X32022Y-36761D01*
X32022Y-36790D01*
X31788Y-37024D01*
X31807Y-37094D01*
X31952Y-37157D01*
X32110Y-37159D01*
X32256Y-37101D01*
X32266Y-37094D01*
X32285Y-37024D01*
X32285Y-40545D01*
X32235Y-40566D01*
X32192Y-40609D01*
X32170Y-40664D01*
X32170Y-40723D01*
X32170Y-41323D01*
X32192Y-41378D01*
X32228Y-41414D01*
X31626Y-41414D01*
X31626Y-36687D01*
X31569Y-36548D01*
X31463Y-36442D01*
X31325Y-36385D01*
X31175Y-36385D01*
X31037Y-36442D01*
X30931Y-36548D01*
X30873Y-36686D01*
X30873Y-36836D01*
X30930Y-36974D01*
X31036Y-37080D01*
X31174Y-37138D01*
X31324Y-37138D01*
X31463Y-37081D01*
X31569Y-36975D01*
X31626Y-36837D01*
X31626Y-36687D01*
X31626Y-41414D01*
X30839Y-41414D01*
X30839Y-36687D01*
X30782Y-36548D01*
X30676Y-36442D01*
X30538Y-36385D01*
X30388Y-36385D01*
X30250Y-36442D01*
X30144Y-36548D01*
X30086Y-36686D01*
X30086Y-36836D01*
X30143Y-36974D01*
X30249Y-37080D01*
X30387Y-37138D01*
X30537Y-37138D01*
X30676Y-37081D01*
X30782Y-36975D01*
X30839Y-36837D01*
X30839Y-36687D01*
X30839Y-41414D01*
X30440Y-41414D01*
X30440Y-41210D01*
X30440Y-40610D01*
X30417Y-40554D01*
X30375Y-40512D01*
X30320Y-40489D01*
X30260Y-40489D01*
X30051Y-40489D01*
X30051Y-36687D01*
X29994Y-36548D01*
X29888Y-36442D01*
X29750Y-36385D01*
X29600Y-36385D01*
X29462Y-36442D01*
X29356Y-36548D01*
X29298Y-36686D01*
X29298Y-36836D01*
X29355Y-36974D01*
X29461Y-37080D01*
X29599Y-37138D01*
X29749Y-37138D01*
X29888Y-37081D01*
X29994Y-36975D01*
X30051Y-36837D01*
X30051Y-36687D01*
X30051Y-40489D01*
X29660Y-40489D01*
X29605Y-40512D01*
X29563Y-40554D01*
X29540Y-40609D01*
X29540Y-40669D01*
X29540Y-41269D01*
X29562Y-41324D01*
X29605Y-41366D01*
X29660Y-41389D01*
X29719Y-41389D01*
X30319Y-41389D01*
X30375Y-41367D01*
X30417Y-41324D01*
X30440Y-41269D01*
X30440Y-41210D01*
X30440Y-41414D01*
X29461Y-41414D01*
X29461Y-40854D01*
X29393Y-40680D01*
X29383Y-40666D01*
X29305Y-40638D01*
X29291Y-40652D01*
X29291Y-40623D01*
X29264Y-40548D01*
X29264Y-36687D01*
X29207Y-36548D01*
X29101Y-36442D01*
X28963Y-36385D01*
X28813Y-36385D01*
X28675Y-36442D01*
X28569Y-36548D01*
X28511Y-36686D01*
X28511Y-36836D01*
X28568Y-36974D01*
X28674Y-37080D01*
X28812Y-37138D01*
X28962Y-37138D01*
X29101Y-37081D01*
X29207Y-36975D01*
X29264Y-36837D01*
X29264Y-36687D01*
X29264Y-40548D01*
X29263Y-40546D01*
X29092Y-40471D01*
X28905Y-40468D01*
X28731Y-40536D01*
X28716Y-40546D01*
X28688Y-40623D01*
X28990Y-40925D01*
X29291Y-40623D01*
X29291Y-40652D01*
X29004Y-40939D01*
X29305Y-41241D01*
X29383Y-41213D01*
X29458Y-41041D01*
X29461Y-40854D01*
X29461Y-41414D01*
X29291Y-41414D01*
X29291Y-41255D01*
X28990Y-40953D01*
X28976Y-40968D01*
X28976Y-40939D01*
X28674Y-40638D01*
X28596Y-40666D01*
X28521Y-40837D01*
X28518Y-41024D01*
X28586Y-41198D01*
X28596Y-41213D01*
X28674Y-41241D01*
X28976Y-40939D01*
X28976Y-40968D01*
X28688Y-41255D01*
X28716Y-41333D01*
X28888Y-41407D01*
X29074Y-41411D01*
X29249Y-41343D01*
X29263Y-41333D01*
X29291Y-41255D01*
X29291Y-41414D01*
X28476Y-41414D01*
X28476Y-36687D01*
X28419Y-36548D01*
X28313Y-36442D01*
X28175Y-36385D01*
X28025Y-36385D01*
X27887Y-36442D01*
X27781Y-36548D01*
X27723Y-36686D01*
X27723Y-36836D01*
X27780Y-36974D01*
X27886Y-37080D01*
X28024Y-37138D01*
X28174Y-37138D01*
X28313Y-37081D01*
X28419Y-36975D01*
X28476Y-36837D01*
X28476Y-36687D01*
X28476Y-41414D01*
X28440Y-41414D01*
X28440Y-40850D01*
X28371Y-40685D01*
X28245Y-40558D01*
X28080Y-40489D01*
X27901Y-40489D01*
X27735Y-40558D01*
X27689Y-40603D01*
X27689Y-36687D01*
X27632Y-36548D01*
X27526Y-36442D01*
X27388Y-36385D01*
X27238Y-36385D01*
X27100Y-36442D01*
X26994Y-36548D01*
X26936Y-36686D01*
X26936Y-36836D01*
X26993Y-36974D01*
X27099Y-37080D01*
X27237Y-37138D01*
X27387Y-37138D01*
X27526Y-37081D01*
X27632Y-36975D01*
X27689Y-36837D01*
X27689Y-36687D01*
X27689Y-40603D01*
X27608Y-40684D01*
X27540Y-40849D01*
X27540Y-41028D01*
X27608Y-41194D01*
X27734Y-41321D01*
X27900Y-41389D01*
X28079Y-41389D01*
X28244Y-41321D01*
X28371Y-41195D01*
X28440Y-41029D01*
X28440Y-40850D01*
X28440Y-41414D01*
X27440Y-41414D01*
X27440Y-40850D01*
X27371Y-40685D01*
X27245Y-40558D01*
X27080Y-40489D01*
X26901Y-40489D01*
X26901Y-36687D01*
X26844Y-36548D01*
X26738Y-36442D01*
X26600Y-36385D01*
X26450Y-36385D01*
X26312Y-36442D01*
X26206Y-36548D01*
X26148Y-36686D01*
X26148Y-36836D01*
X26205Y-36974D01*
X26311Y-37080D01*
X26449Y-37138D01*
X26599Y-37138D01*
X26738Y-37081D01*
X26844Y-36975D01*
X26901Y-36837D01*
X26901Y-36687D01*
X26901Y-40489D01*
X26901Y-40489D01*
X26735Y-40558D01*
X26608Y-40684D01*
X26540Y-40849D01*
X26540Y-41028D01*
X26608Y-41194D01*
X26734Y-41321D01*
X26900Y-41389D01*
X27079Y-41389D01*
X27244Y-41321D01*
X27371Y-41195D01*
X27440Y-41029D01*
X27440Y-40850D01*
X27440Y-41414D01*
X26440Y-41414D01*
X26440Y-40850D01*
X26371Y-40685D01*
X26245Y-40558D01*
X26114Y-40504D01*
X26114Y-36687D01*
X26057Y-36548D01*
X25951Y-36442D01*
X25813Y-36385D01*
X25663Y-36385D01*
X25525Y-36442D01*
X25419Y-36548D01*
X25361Y-36686D01*
X25361Y-36836D01*
X25418Y-36974D01*
X25524Y-37080D01*
X25662Y-37138D01*
X25812Y-37138D01*
X25951Y-37081D01*
X26057Y-36975D01*
X26114Y-36837D01*
X26114Y-36687D01*
X26114Y-40504D01*
X26080Y-40489D01*
X25901Y-40489D01*
X25735Y-40558D01*
X25608Y-40684D01*
X25540Y-40849D01*
X25540Y-41028D01*
X25608Y-41194D01*
X25734Y-41321D01*
X25900Y-41389D01*
X26079Y-41389D01*
X26244Y-41321D01*
X26371Y-41195D01*
X26440Y-41029D01*
X26440Y-40850D01*
X26440Y-41414D01*
X24529Y-41414D01*
X24529Y-40762D01*
X24562Y-40795D01*
X24540Y-40849D01*
X24540Y-41028D01*
X24608Y-41194D01*
X24734Y-41321D01*
X24900Y-41389D01*
X25079Y-41389D01*
X25244Y-41321D01*
X25371Y-41195D01*
X25440Y-41029D01*
X25440Y-40850D01*
X25371Y-40685D01*
X25245Y-40558D01*
X25080Y-40489D01*
X24901Y-40489D01*
X24845Y-40512D01*
X24707Y-40374D01*
X24707Y-37138D01*
X24754Y-37138D01*
X25207Y-37138D01*
X25262Y-37115D01*
X25304Y-37073D01*
X25327Y-37018D01*
X25327Y-36958D01*
X25327Y-36505D01*
X25304Y-36450D01*
X25262Y-36408D01*
X25207Y-36385D01*
X25147Y-36385D01*
X24707Y-36385D01*
X24707Y-29413D01*
X25181Y-28940D01*
X31692Y-28940D01*
X31769Y-28924D01*
X31834Y-28881D01*
X32178Y-28537D01*
X32178Y-28537D01*
X32207Y-28494D01*
X32221Y-28472D01*
X32221Y-28472D01*
X32230Y-28427D01*
X32250Y-28419D01*
X32356Y-28313D01*
X32413Y-28175D01*
X32413Y-28025D01*
X32356Y-27887D01*
X32250Y-27781D01*
X32112Y-27723D01*
X31962Y-27723D01*
X31824Y-27781D01*
X31718Y-27886D01*
X31660Y-28025D01*
X31660Y-28174D01*
X31717Y-28313D01*
X31777Y-28372D01*
X31626Y-28523D01*
X31626Y-28025D01*
X31569Y-27887D01*
X31463Y-27781D01*
X31325Y-27723D01*
X31175Y-27723D01*
X31037Y-27781D01*
X30931Y-27886D01*
X30873Y-28025D01*
X30873Y-28174D01*
X30930Y-28313D01*
X31036Y-28419D01*
X31174Y-28476D01*
X31324Y-28476D01*
X31463Y-28419D01*
X31569Y-28313D01*
X31626Y-28175D01*
X31626Y-28025D01*
X31626Y-28523D01*
X31610Y-28540D01*
X30839Y-28540D01*
X30839Y-28025D01*
X30782Y-27887D01*
X30676Y-27781D01*
X30538Y-27723D01*
X30440Y-27723D01*
X30440Y-23850D01*
X30371Y-23685D01*
X30245Y-23558D01*
X30080Y-23489D01*
X29901Y-23489D01*
X29735Y-23558D01*
X29608Y-23684D01*
X29540Y-23849D01*
X29540Y-24028D01*
X29608Y-24194D01*
X29734Y-24321D01*
X29900Y-24389D01*
X30079Y-24389D01*
X30244Y-24321D01*
X30371Y-24195D01*
X30440Y-24029D01*
X30440Y-23850D01*
X30440Y-27723D01*
X30388Y-27723D01*
X30250Y-27781D01*
X30144Y-27886D01*
X30086Y-28025D01*
X30086Y-28174D01*
X30143Y-28313D01*
X30249Y-28419D01*
X30387Y-28476D01*
X30537Y-28476D01*
X30676Y-28419D01*
X30782Y-28313D01*
X30839Y-28175D01*
X30839Y-28025D01*
X30839Y-28540D01*
X30051Y-28540D01*
X30051Y-28025D01*
X29994Y-27887D01*
X29888Y-27781D01*
X29750Y-27723D01*
X29600Y-27723D01*
X29462Y-27781D01*
X29440Y-27802D01*
X29440Y-23850D01*
X29371Y-23685D01*
X29245Y-23558D01*
X29080Y-23489D01*
X28901Y-23489D01*
X28735Y-23558D01*
X28608Y-23684D01*
X28540Y-23849D01*
X28540Y-24028D01*
X28608Y-24194D01*
X28734Y-24321D01*
X28900Y-24389D01*
X29079Y-24389D01*
X29244Y-24321D01*
X29371Y-24195D01*
X29440Y-24029D01*
X29440Y-23850D01*
X29440Y-27802D01*
X29356Y-27886D01*
X29298Y-28025D01*
X29298Y-28174D01*
X29355Y-28313D01*
X29461Y-28419D01*
X29599Y-28476D01*
X29749Y-28476D01*
X29888Y-28419D01*
X29994Y-28313D01*
X30051Y-28175D01*
X30051Y-28025D01*
X30051Y-28540D01*
X29264Y-28540D01*
X29264Y-28025D01*
X29207Y-27887D01*
X29101Y-27781D01*
X28963Y-27723D01*
X28813Y-27723D01*
X28675Y-27781D01*
X28569Y-27886D01*
X28511Y-28025D01*
X28511Y-28174D01*
X28568Y-28313D01*
X28674Y-28419D01*
X28812Y-28476D01*
X28962Y-28476D01*
X29101Y-28419D01*
X29207Y-28313D01*
X29264Y-28175D01*
X29264Y-28025D01*
X29264Y-28540D01*
X28476Y-28540D01*
X28476Y-28025D01*
X28440Y-27937D01*
X28440Y-23850D01*
X28371Y-23685D01*
X28245Y-23558D01*
X28080Y-23489D01*
X27901Y-23489D01*
X27735Y-23558D01*
X27608Y-23684D01*
X27540Y-23849D01*
X27540Y-24028D01*
X27608Y-24194D01*
X27734Y-24321D01*
X27900Y-24389D01*
X28079Y-24389D01*
X28244Y-24321D01*
X28371Y-24195D01*
X28440Y-24029D01*
X28440Y-23850D01*
X28440Y-27937D01*
X28419Y-27887D01*
X28313Y-27781D01*
X28175Y-27723D01*
X28025Y-27723D01*
X27887Y-27781D01*
X27781Y-27886D01*
X27723Y-28025D01*
X27723Y-28174D01*
X27780Y-28313D01*
X27886Y-28419D01*
X28024Y-28476D01*
X28174Y-28476D01*
X28313Y-28419D01*
X28419Y-28313D01*
X28476Y-28175D01*
X28476Y-28025D01*
X28476Y-28540D01*
X27689Y-28540D01*
X27689Y-28025D01*
X27632Y-27887D01*
X27526Y-27781D01*
X27440Y-27745D01*
X27440Y-23850D01*
X27371Y-23685D01*
X27245Y-23558D01*
X27080Y-23489D01*
X26901Y-23489D01*
X26735Y-23558D01*
X26608Y-23684D01*
X26540Y-23849D01*
X26540Y-24028D01*
X26608Y-24194D01*
X26734Y-24321D01*
X26900Y-24389D01*
X27079Y-24389D01*
X27244Y-24321D01*
X27371Y-24195D01*
X27440Y-24029D01*
X27440Y-23850D01*
X27440Y-27745D01*
X27388Y-27723D01*
X27238Y-27723D01*
X27100Y-27781D01*
X26994Y-27886D01*
X26936Y-28025D01*
X26936Y-28174D01*
X26993Y-28313D01*
X27099Y-28419D01*
X27237Y-28476D01*
X27387Y-28476D01*
X27526Y-28419D01*
X27632Y-28313D01*
X27689Y-28175D01*
X27689Y-28025D01*
X27689Y-28540D01*
X26901Y-28540D01*
X26901Y-28025D01*
X26844Y-27887D01*
X26738Y-27781D01*
X26600Y-27723D01*
X26450Y-27723D01*
X26440Y-27728D01*
X26440Y-23850D01*
X26371Y-23685D01*
X26245Y-23558D01*
X26080Y-23489D01*
X25901Y-23489D01*
X25735Y-23558D01*
X25608Y-23684D01*
X25540Y-23849D01*
X25540Y-24028D01*
X25608Y-24194D01*
X25734Y-24321D01*
X25900Y-24389D01*
X26079Y-24389D01*
X26244Y-24321D01*
X26371Y-24195D01*
X26440Y-24029D01*
X26440Y-23850D01*
X26440Y-27728D01*
X26312Y-27781D01*
X26206Y-27886D01*
X26148Y-28025D01*
X26148Y-28174D01*
X26205Y-28313D01*
X26311Y-28419D01*
X26449Y-28476D01*
X26599Y-28476D01*
X26738Y-28419D01*
X26844Y-28313D01*
X26901Y-28175D01*
X26901Y-28025D01*
X26901Y-28540D01*
X26114Y-28540D01*
X26114Y-28025D01*
X26057Y-27887D01*
X25951Y-27781D01*
X25813Y-27723D01*
X25663Y-27723D01*
X25525Y-27781D01*
X25440Y-27865D01*
X25440Y-24210D01*
X25440Y-23610D01*
X25417Y-23554D01*
X25375Y-23512D01*
X25320Y-23489D01*
X25260Y-23489D01*
X24660Y-23489D01*
X24605Y-23512D01*
X24563Y-23554D01*
X24540Y-23609D01*
X24540Y-23669D01*
X24540Y-24269D01*
X24562Y-24324D01*
X24605Y-24366D01*
X24660Y-24389D01*
X24719Y-24389D01*
X25319Y-24389D01*
X25375Y-24367D01*
X25417Y-24324D01*
X25440Y-24269D01*
X25440Y-24210D01*
X25440Y-27865D01*
X25419Y-27886D01*
X25361Y-28025D01*
X25361Y-28174D01*
X25418Y-28313D01*
X25524Y-28419D01*
X25662Y-28476D01*
X25812Y-28476D01*
X25951Y-28419D01*
X26057Y-28313D01*
X26114Y-28175D01*
X26114Y-28025D01*
X26114Y-28540D01*
X25327Y-28540D01*
X25327Y-28297D01*
X25327Y-27844D01*
X25304Y-27789D01*
X25262Y-27746D01*
X25207Y-27723D01*
X25147Y-27723D01*
X24694Y-27723D01*
X24639Y-27746D01*
X24597Y-27788D01*
X24574Y-27843D01*
X24574Y-27903D01*
X24574Y-28356D01*
X24597Y-28411D01*
X24639Y-28453D01*
X24694Y-28476D01*
X24754Y-28476D01*
X25207Y-28476D01*
X25262Y-28454D01*
X25304Y-28411D01*
X25327Y-28356D01*
X25327Y-28297D01*
X25327Y-28540D01*
X25098Y-28540D01*
X25034Y-28552D01*
X25021Y-28555D01*
X24957Y-28598D01*
X24529Y-29025D01*
X24529Y-23447D01*
X34525Y-23447D01*
X34525Y-28395D01*
X34538Y-28460D01*
X34574Y-28515D01*
X34629Y-28552D01*
X34694Y-28565D01*
X76722Y-28565D01*
X78620Y-28565D01*
X82486Y-32431D01*
X82486Y-32431D01*
G37*
G54D18*
X82486Y-32431D02*
X78620Y-36296D01*
X77846Y-36296D01*
X77846Y-32431D01*
X77670Y-31545D01*
X77168Y-30795D01*
X76417Y-30293D01*
X75532Y-30117D01*
X50353Y-30117D01*
X49467Y-30293D01*
X48717Y-30795D01*
X48349Y-31345D01*
X48349Y-28854D01*
X48323Y-28791D01*
X48275Y-28743D01*
X48213Y-28717D01*
X48145Y-28717D01*
X47837Y-28717D01*
X47795Y-28760D01*
X47795Y-30452D01*
X48306Y-30452D01*
X48349Y-30410D01*
X48349Y-28854D01*
X48349Y-31345D01*
X48349Y-31346D01*
X48349Y-30515D01*
X48306Y-30472D01*
X47795Y-30472D01*
X47795Y-30480D01*
X47775Y-30480D01*
X47775Y-30472D01*
X47775Y-30452D01*
X47775Y-28760D01*
X47732Y-28717D01*
X47425Y-28717D01*
X47357Y-28717D01*
X47295Y-28743D01*
X47247Y-28791D01*
X47221Y-28854D01*
X47221Y-30410D01*
X47264Y-30452D01*
X47775Y-30452D01*
X47775Y-30472D01*
X47264Y-30472D01*
X47221Y-30515D01*
X47221Y-32071D01*
X47247Y-32133D01*
X47275Y-32161D01*
X33506Y-32161D01*
X33452Y-32106D01*
X33332Y-32056D01*
X33203Y-32056D01*
X33083Y-32106D01*
X32992Y-32197D01*
X32942Y-32316D01*
X32942Y-32423D01*
X32762Y-32604D01*
X30799Y-32604D01*
X30794Y-32598D01*
X30675Y-32549D01*
X30545Y-32548D01*
X30426Y-32598D01*
X30334Y-32689D01*
X30285Y-32809D01*
X30285Y-32938D01*
X30334Y-33057D01*
X30425Y-33149D01*
X30545Y-33198D01*
X30674Y-33199D01*
X30794Y-33149D01*
X30799Y-33144D01*
X32874Y-33144D01*
X32977Y-33123D01*
X32977Y-33123D01*
X33064Y-33064D01*
X33428Y-32701D01*
X47275Y-32701D01*
X47247Y-32728D01*
X47221Y-32791D01*
X47221Y-34347D01*
X47264Y-34389D01*
X47775Y-34389D01*
X47775Y-34381D01*
X47795Y-34381D01*
X47795Y-34389D01*
X48306Y-34389D01*
X48349Y-34347D01*
X48349Y-33516D01*
X48717Y-34067D01*
X49467Y-34568D01*
X50353Y-34744D01*
X75532Y-34744D01*
X76417Y-34568D01*
X77168Y-34067D01*
X77670Y-33316D01*
X77846Y-32431D01*
X77846Y-36296D01*
X76722Y-36296D01*
X48349Y-36296D01*
X48349Y-36008D01*
X48349Y-34452D01*
X48306Y-34409D01*
X47795Y-34409D01*
X47795Y-36101D01*
X47837Y-36144D01*
X48145Y-36144D01*
X48213Y-36144D01*
X48275Y-36118D01*
X48323Y-36070D01*
X48349Y-36008D01*
X48349Y-36296D01*
X47775Y-36296D01*
X47775Y-36101D01*
X47775Y-34409D01*
X47264Y-34409D01*
X47221Y-34452D01*
X47221Y-36008D01*
X47247Y-36070D01*
X47295Y-36118D01*
X47357Y-36144D01*
X47425Y-36144D01*
X47732Y-36144D01*
X47775Y-36101D01*
X47775Y-36296D01*
X34694Y-36296D01*
X34629Y-36309D01*
X34574Y-36346D01*
X34538Y-36401D01*
X34525Y-36466D01*
X34525Y-41414D01*
X34091Y-41414D01*
X34091Y-40909D01*
X34023Y-40735D01*
X34013Y-40720D01*
X33935Y-40692D01*
X33921Y-40706D01*
X33921Y-40678D01*
X33893Y-40600D01*
X33722Y-40525D01*
X33535Y-40522D01*
X33361Y-40590D01*
X33346Y-40600D01*
X33318Y-40678D01*
X33620Y-40979D01*
X33921Y-40678D01*
X33921Y-40706D01*
X33634Y-40994D01*
X33935Y-41295D01*
X34013Y-41267D01*
X34088Y-41096D01*
X34091Y-40909D01*
X34091Y-41414D01*
X33834Y-41414D01*
X33878Y-41397D01*
X33893Y-41387D01*
X33921Y-41309D01*
X33620Y-41008D01*
X33605Y-41022D01*
X33605Y-40994D01*
X33304Y-40692D01*
X33226Y-40720D01*
X33151Y-40891D01*
X33148Y-41078D01*
X33216Y-41252D01*
X33226Y-41267D01*
X33304Y-41295D01*
X33605Y-40994D01*
X33605Y-41022D01*
X33318Y-41309D01*
X33346Y-41387D01*
X33409Y-41414D01*
X33011Y-41414D01*
X33047Y-41379D01*
X33070Y-41324D01*
X33070Y-41264D01*
X33070Y-40664D01*
X33047Y-40609D01*
X33005Y-40567D01*
X32950Y-40544D01*
X32890Y-40544D01*
X32434Y-40544D01*
X32434Y-36688D01*
X32376Y-36542D01*
X32369Y-36532D01*
X32299Y-36513D01*
X32285Y-36527D01*
X32285Y-36499D01*
X32266Y-36428D01*
X32121Y-36366D01*
X31963Y-36364D01*
X31817Y-36422D01*
X31807Y-36428D01*
X31788Y-36499D01*
X32037Y-36747D01*
X32285Y-36499D01*
X32285Y-36527D01*
X32051Y-36761D01*
X32299Y-37010D01*
X32369Y-36991D01*
X32432Y-36846D01*
X32434Y-36688D01*
X32434Y-40544D01*
X32290Y-40544D01*
X32285Y-40545D01*
X32285Y-37024D01*
X32037Y-36775D01*
X32022Y-36790D01*
X32022Y-36761D01*
X31774Y-36513D01*
X31704Y-36532D01*
X31641Y-36677D01*
X31639Y-36834D01*
X31697Y-36981D01*
X31704Y-36991D01*
X31774Y-37010D01*
X32022Y-36761D01*
X32022Y-36790D01*
X31788Y-37024D01*
X31807Y-37094D01*
X31952Y-37157D01*
X32110Y-37159D01*
X32256Y-37101D01*
X32266Y-37094D01*
X32285Y-37024D01*
X32285Y-40545D01*
X32235Y-40566D01*
X32192Y-40609D01*
X32170Y-40664D01*
X32170Y-40723D01*
X32170Y-41323D01*
X32192Y-41378D01*
X32228Y-41414D01*
X31626Y-41414D01*
X31626Y-36687D01*
X31569Y-36548D01*
X31463Y-36442D01*
X31325Y-36385D01*
X31175Y-36385D01*
X31037Y-36442D01*
X30931Y-36548D01*
X30873Y-36686D01*
X30873Y-36836D01*
X30930Y-36974D01*
X31036Y-37080D01*
X31174Y-37138D01*
X31324Y-37138D01*
X31463Y-37081D01*
X31569Y-36975D01*
X31626Y-36837D01*
X31626Y-36687D01*
X31626Y-41414D01*
X30839Y-41414D01*
X30839Y-36687D01*
X30782Y-36548D01*
X30676Y-36442D01*
X30538Y-36385D01*
X30388Y-36385D01*
X30250Y-36442D01*
X30144Y-36548D01*
X30086Y-36686D01*
X30086Y-36836D01*
X30143Y-36974D01*
X30249Y-37080D01*
X30387Y-37138D01*
X30537Y-37138D01*
X30676Y-37081D01*
X30782Y-36975D01*
X30839Y-36837D01*
X30839Y-36687D01*
X30839Y-41414D01*
X30440Y-41414D01*
X30440Y-41210D01*
X30440Y-40610D01*
X30417Y-40554D01*
X30375Y-40512D01*
X30320Y-40489D01*
X30260Y-40489D01*
X30051Y-40489D01*
X30051Y-36687D01*
X29994Y-36548D01*
X29888Y-36442D01*
X29750Y-36385D01*
X29600Y-36385D01*
X29462Y-36442D01*
X29356Y-36548D01*
X29298Y-36686D01*
X29298Y-36836D01*
X29355Y-36974D01*
X29461Y-37080D01*
X29599Y-37138D01*
X29749Y-37138D01*
X29888Y-37081D01*
X29994Y-36975D01*
X30051Y-36837D01*
X30051Y-36687D01*
X30051Y-40489D01*
X29660Y-40489D01*
X29605Y-40512D01*
X29563Y-40554D01*
X29540Y-40609D01*
X29540Y-40669D01*
X29540Y-41269D01*
X29562Y-41324D01*
X29605Y-41366D01*
X29660Y-41389D01*
X29719Y-41389D01*
X30319Y-41389D01*
X30375Y-41367D01*
X30417Y-41324D01*
X30440Y-41269D01*
X30440Y-41210D01*
X30440Y-41414D01*
X29461Y-41414D01*
X29461Y-40854D01*
X29393Y-40680D01*
X29383Y-40666D01*
X29305Y-40638D01*
X29291Y-40652D01*
X29291Y-40623D01*
X29264Y-40548D01*
X29264Y-36687D01*
X29207Y-36548D01*
X29101Y-36442D01*
X28963Y-36385D01*
X28813Y-36385D01*
X28675Y-36442D01*
X28569Y-36548D01*
X28511Y-36686D01*
X28511Y-36836D01*
X28568Y-36974D01*
X28674Y-37080D01*
X28812Y-37138D01*
X28962Y-37138D01*
X29101Y-37081D01*
X29207Y-36975D01*
X29264Y-36837D01*
X29264Y-36687D01*
X29264Y-40548D01*
X29263Y-40546D01*
X29092Y-40471D01*
X28905Y-40468D01*
X28731Y-40536D01*
X28716Y-40546D01*
X28688Y-40623D01*
X28990Y-40925D01*
X29291Y-40623D01*
X29291Y-40652D01*
X29004Y-40939D01*
X29305Y-41241D01*
X29383Y-41213D01*
X29458Y-41041D01*
X29461Y-40854D01*
X29461Y-41414D01*
X29291Y-41414D01*
X29291Y-41255D01*
X28990Y-40953D01*
X28976Y-40968D01*
X28976Y-40939D01*
X28674Y-40638D01*
X28596Y-40666D01*
X28521Y-40837D01*
X28518Y-41024D01*
X28586Y-41198D01*
X28596Y-41213D01*
X28674Y-41241D01*
X28976Y-40939D01*
X28976Y-40968D01*
X28688Y-41255D01*
X28716Y-41333D01*
X28888Y-41407D01*
X29074Y-41411D01*
X29249Y-41343D01*
X29263Y-41333D01*
X29291Y-41255D01*
X29291Y-41414D01*
X28476Y-41414D01*
X28476Y-36687D01*
X28419Y-36548D01*
X28313Y-36442D01*
X28175Y-36385D01*
X28025Y-36385D01*
X27887Y-36442D01*
X27781Y-36548D01*
X27723Y-36686D01*
X27723Y-36836D01*
X27780Y-36974D01*
X27886Y-37080D01*
X28024Y-37138D01*
X28174Y-37138D01*
X28313Y-37081D01*
X28419Y-36975D01*
X28476Y-36837D01*
X28476Y-36687D01*
X28476Y-41414D01*
X28440Y-41414D01*
X28440Y-40850D01*
X28371Y-40685D01*
X28245Y-40558D01*
X28080Y-40489D01*
X27901Y-40489D01*
X27735Y-40558D01*
X27689Y-40603D01*
X27689Y-36687D01*
X27632Y-36548D01*
X27526Y-36442D01*
X27388Y-36385D01*
X27238Y-36385D01*
X27100Y-36442D01*
X26994Y-36548D01*
X26936Y-36686D01*
X26936Y-36836D01*
X26993Y-36974D01*
X27099Y-37080D01*
X27237Y-37138D01*
X27387Y-37138D01*
X27526Y-37081D01*
X27632Y-36975D01*
X27689Y-36837D01*
X27689Y-36687D01*
X27689Y-40603D01*
X27608Y-40684D01*
X27540Y-40849D01*
X27540Y-41028D01*
X27608Y-41194D01*
X27734Y-41321D01*
X27900Y-41389D01*
X28079Y-41389D01*
X28244Y-41321D01*
X28371Y-41195D01*
X28440Y-41029D01*
X28440Y-40850D01*
X28440Y-41414D01*
X27440Y-41414D01*
X27440Y-40850D01*
X27371Y-40685D01*
X27245Y-40558D01*
X27080Y-40489D01*
X26901Y-40489D01*
X26901Y-36687D01*
X26844Y-36548D01*
X26738Y-36442D01*
X26600Y-36385D01*
X26450Y-36385D01*
X26312Y-36442D01*
X26206Y-36548D01*
X26148Y-36686D01*
X26148Y-36836D01*
X26205Y-36974D01*
X26311Y-37080D01*
X26449Y-37138D01*
X26599Y-37138D01*
X26738Y-37081D01*
X26844Y-36975D01*
X26901Y-36837D01*
X26901Y-36687D01*
X26901Y-40489D01*
X26901Y-40489D01*
X26735Y-40558D01*
X26608Y-40684D01*
X26540Y-40849D01*
X26540Y-41028D01*
X26608Y-41194D01*
X26734Y-41321D01*
X26900Y-41389D01*
X27079Y-41389D01*
X27244Y-41321D01*
X27371Y-41195D01*
X27440Y-41029D01*
X27440Y-40850D01*
X27440Y-41414D01*
X26440Y-41414D01*
X26440Y-40850D01*
X26371Y-40685D01*
X26245Y-40558D01*
X26114Y-40504D01*
X26114Y-36687D01*
X26057Y-36548D01*
X25951Y-36442D01*
X25813Y-36385D01*
X25663Y-36385D01*
X25525Y-36442D01*
X25419Y-36548D01*
X25361Y-36686D01*
X25361Y-36836D01*
X25418Y-36974D01*
X25524Y-37080D01*
X25662Y-37138D01*
X25812Y-37138D01*
X25951Y-37081D01*
X26057Y-36975D01*
X26114Y-36837D01*
X26114Y-36687D01*
X26114Y-40504D01*
X26080Y-40489D01*
X25901Y-40489D01*
X25735Y-40558D01*
X25608Y-40684D01*
X25540Y-40849D01*
X25540Y-41028D01*
X25608Y-41194D01*
X25734Y-41321D01*
X25900Y-41389D01*
X26079Y-41389D01*
X26244Y-41321D01*
X26371Y-41195D01*
X26440Y-41029D01*
X26440Y-40850D01*
X26440Y-41414D01*
X24529Y-41414D01*
X24529Y-40762D01*
X24562Y-40795D01*
X24540Y-40849D01*
X24540Y-41028D01*
X24608Y-41194D01*
X24734Y-41321D01*
X24900Y-41389D01*
X25079Y-41389D01*
X25244Y-41321D01*
X25371Y-41195D01*
X25440Y-41029D01*
X25440Y-40850D01*
X25371Y-40685D01*
X25245Y-40558D01*
X25080Y-40489D01*
X24901Y-40489D01*
X24845Y-40512D01*
X24707Y-40374D01*
X24707Y-37138D01*
X24754Y-37138D01*
X25207Y-37138D01*
X25262Y-37115D01*
X25304Y-37073D01*
X25327Y-37018D01*
X25327Y-36958D01*
X25327Y-36505D01*
X25304Y-36450D01*
X25262Y-36408D01*
X25207Y-36385D01*
X25147Y-36385D01*
X24707Y-36385D01*
X24707Y-29413D01*
X25181Y-28940D01*
X31692Y-28940D01*
X31769Y-28924D01*
X31834Y-28881D01*
X32178Y-28537D01*
X32178Y-28537D01*
X32207Y-28494D01*
X32221Y-28472D01*
X32221Y-28472D01*
X32230Y-28427D01*
X32250Y-28419D01*
X32356Y-28313D01*
X32413Y-28175D01*
X32413Y-28025D01*
X32356Y-27887D01*
X32250Y-27781D01*
X32112Y-27723D01*
X31962Y-27723D01*
X31824Y-27781D01*
X31718Y-27886D01*
X31660Y-28025D01*
X31660Y-28174D01*
X31717Y-28313D01*
X31777Y-28372D01*
X31626Y-28523D01*
X31626Y-28025D01*
X31569Y-27887D01*
X31463Y-27781D01*
X31325Y-27723D01*
X31175Y-27723D01*
X31037Y-27781D01*
X30931Y-27886D01*
X30873Y-28025D01*
X30873Y-28174D01*
X30930Y-28313D01*
X31036Y-28419D01*
X31174Y-28476D01*
X31324Y-28476D01*
X31463Y-28419D01*
X31569Y-28313D01*
X31626Y-28175D01*
X31626Y-28025D01*
X31626Y-28523D01*
X31610Y-28540D01*
X30839Y-28540D01*
X30839Y-28025D01*
X30782Y-27887D01*
X30676Y-27781D01*
X30538Y-27723D01*
X30440Y-27723D01*
X30440Y-23850D01*
X30371Y-23685D01*
X30245Y-23558D01*
X30080Y-23489D01*
X29901Y-23489D01*
X29735Y-23558D01*
X29608Y-23684D01*
X29540Y-23849D01*
X29540Y-24028D01*
X29608Y-24194D01*
X29734Y-24321D01*
X29900Y-24389D01*
X30079Y-24389D01*
X30244Y-24321D01*
X30371Y-24195D01*
X30440Y-24029D01*
X30440Y-23850D01*
X30440Y-27723D01*
X30388Y-27723D01*
X30250Y-27781D01*
X30144Y-27886D01*
X30086Y-28025D01*
X30086Y-28174D01*
X30143Y-28313D01*
X30249Y-28419D01*
X30387Y-28476D01*
X30537Y-28476D01*
X30676Y-28419D01*
X30782Y-28313D01*
X30839Y-28175D01*
X30839Y-28025D01*
X30839Y-28540D01*
X30051Y-28540D01*
X30051Y-28025D01*
X29994Y-27887D01*
X29888Y-27781D01*
X29750Y-27723D01*
X29600Y-27723D01*
X29462Y-27781D01*
X29440Y-27802D01*
X29440Y-23850D01*
X29371Y-23685D01*
X29245Y-23558D01*
X29080Y-23489D01*
X28901Y-23489D01*
X28735Y-23558D01*
X28608Y-23684D01*
X28540Y-23849D01*
X28540Y-24028D01*
X28608Y-24194D01*
X28734Y-24321D01*
X28900Y-24389D01*
X29079Y-24389D01*
X29244Y-24321D01*
X29371Y-24195D01*
X29440Y-24029D01*
X29440Y-23850D01*
X29440Y-27802D01*
X29356Y-27886D01*
X29298Y-28025D01*
X29298Y-28174D01*
X29355Y-28313D01*
X29461Y-28419D01*
X29599Y-28476D01*
X29749Y-28476D01*
X29888Y-28419D01*
X29994Y-28313D01*
X30051Y-28175D01*
X30051Y-28025D01*
X30051Y-28540D01*
X29264Y-28540D01*
X29264Y-28025D01*
X29207Y-27887D01*
X29101Y-27781D01*
X28963Y-27723D01*
X28813Y-27723D01*
X28675Y-27781D01*
X28569Y-27886D01*
X28511Y-28025D01*
X28511Y-28174D01*
X28568Y-28313D01*
X28674Y-28419D01*
X28812Y-28476D01*
X28962Y-28476D01*
X29101Y-28419D01*
X29207Y-28313D01*
X29264Y-28175D01*
X29264Y-28025D01*
X29264Y-28540D01*
X28476Y-28540D01*
X28476Y-28025D01*
X28440Y-27937D01*
X28440Y-23850D01*
X28371Y-23685D01*
X28245Y-23558D01*
X28080Y-23489D01*
X27901Y-23489D01*
X27735Y-23558D01*
X27608Y-23684D01*
X27540Y-23849D01*
X27540Y-24028D01*
X27608Y-24194D01*
X27734Y-24321D01*
X27900Y-24389D01*
X28079Y-24389D01*
X28244Y-24321D01*
X28371Y-24195D01*
X28440Y-24029D01*
X28440Y-23850D01*
X28440Y-27937D01*
X28419Y-27887D01*
X28313Y-27781D01*
X28175Y-27723D01*
X28025Y-27723D01*
X27887Y-27781D01*
X27781Y-27886D01*
X27723Y-28025D01*
X27723Y-28174D01*
X27780Y-28313D01*
X27886Y-28419D01*
X28024Y-28476D01*
X28174Y-28476D01*
X28313Y-28419D01*
X28419Y-28313D01*
X28476Y-28175D01*
X28476Y-28025D01*
X28476Y-28540D01*
X27689Y-28540D01*
X27689Y-28025D01*
X27632Y-27887D01*
X27526Y-27781D01*
X27440Y-27745D01*
X27440Y-23850D01*
X27371Y-23685D01*
X27245Y-23558D01*
X27080Y-23489D01*
X26901Y-23489D01*
X26735Y-23558D01*
X26608Y-23684D01*
X26540Y-23849D01*
X26540Y-24028D01*
X26608Y-24194D01*
X26734Y-24321D01*
X26900Y-24389D01*
X27079Y-24389D01*
X27244Y-24321D01*
X27371Y-24195D01*
X27440Y-24029D01*
X27440Y-23850D01*
X27440Y-27745D01*
X27388Y-27723D01*
X27238Y-27723D01*
X27100Y-27781D01*
X26994Y-27886D01*
X26936Y-28025D01*
X26936Y-28174D01*
X26993Y-28313D01*
X27099Y-28419D01*
X27237Y-28476D01*
X27387Y-28476D01*
X27526Y-28419D01*
X27632Y-28313D01*
X27689Y-28175D01*
X27689Y-28025D01*
X27689Y-28540D01*
X26901Y-28540D01*
X26901Y-28025D01*
X26844Y-27887D01*
X26738Y-27781D01*
X26600Y-27723D01*
X26450Y-27723D01*
X26440Y-27728D01*
X26440Y-23850D01*
X26371Y-23685D01*
X26245Y-23558D01*
X26080Y-23489D01*
X25901Y-23489D01*
X25735Y-23558D01*
X25608Y-23684D01*
X25540Y-23849D01*
X25540Y-24028D01*
X25608Y-24194D01*
X25734Y-24321D01*
X25900Y-24389D01*
X26079Y-24389D01*
X26244Y-24321D01*
X26371Y-24195D01*
X26440Y-24029D01*
X26440Y-23850D01*
X26440Y-27728D01*
X26312Y-27781D01*
X26206Y-27886D01*
X26148Y-28025D01*
X26148Y-28174D01*
X26205Y-28313D01*
X26311Y-28419D01*
X26449Y-28476D01*
X26599Y-28476D01*
X26738Y-28419D01*
X26844Y-28313D01*
X26901Y-28175D01*
X26901Y-28025D01*
X26901Y-28540D01*
X26114Y-28540D01*
X26114Y-28025D01*
X26057Y-27887D01*
X25951Y-27781D01*
X25813Y-27723D01*
X25663Y-27723D01*
X25525Y-27781D01*
X25440Y-27865D01*
X25440Y-24210D01*
X25440Y-23610D01*
X25417Y-23554D01*
X25375Y-23512D01*
X25320Y-23489D01*
X25260Y-23489D01*
X24660Y-23489D01*
X24605Y-23512D01*
X24563Y-23554D01*
X24540Y-23609D01*
X24540Y-23669D01*
X24540Y-24269D01*
X24562Y-24324D01*
X24605Y-24366D01*
X24660Y-24389D01*
X24719Y-24389D01*
X25319Y-24389D01*
X25375Y-24367D01*
X25417Y-24324D01*
X25440Y-24269D01*
X25440Y-24210D01*
X25440Y-27865D01*
X25419Y-27886D01*
X25361Y-28025D01*
X25361Y-28174D01*
X25418Y-28313D01*
X25524Y-28419D01*
X25662Y-28476D01*
X25812Y-28476D01*
X25951Y-28419D01*
X26057Y-28313D01*
X26114Y-28175D01*
X26114Y-28025D01*
X26114Y-28540D01*
X25327Y-28540D01*
X25327Y-28297D01*
X25327Y-27844D01*
X25304Y-27789D01*
X25262Y-27746D01*
X25207Y-27723D01*
X25147Y-27723D01*
X24694Y-27723D01*
X24639Y-27746D01*
X24597Y-27788D01*
X24574Y-27843D01*
X24574Y-27903D01*
X24574Y-28356D01*
X24597Y-28411D01*
X24639Y-28453D01*
X24694Y-28476D01*
X24754Y-28476D01*
X25207Y-28476D01*
X25262Y-28454D01*
X25304Y-28411D01*
X25327Y-28356D01*
X25327Y-28297D01*
X25327Y-28540D01*
X25098Y-28540D01*
X25034Y-28552D01*
X25021Y-28555D01*
X24957Y-28598D01*
X24529Y-29025D01*
X24529Y-23447D01*
X34525Y-23447D01*
X34525Y-28395D01*
X34538Y-28460D01*
X34574Y-28515D01*
X34629Y-28552D01*
X34694Y-28565D01*
X76722Y-28565D01*
X78620Y-28565D01*
X82486Y-32431D01*
M02*
