G04 (created by PCBNEW (22-Jun-2014 BZR 4027)-stable) date Thu 31 Jul 2014 05:41:25 PM UTC*
%MOIN*%
G04 Gerber Fmt 3.4, Leading zero omitted, Abs format*
%FSLAX34Y34*%
G01*
G70*
G90*
G04 APERTURE LIST*
%ADD10C,0.00590551*%
%ADD11C,0.00984252*%
%ADD12C,0.011811*%
%ADD13C,0.023622*%
%ADD14C,0.00787402*%
%ADD15C,0.005*%
%ADD16C,0.0047*%
%ADD17C,0.006*%
%ADD18C,0.012*%
%ADD19C,0.0001*%
G04 APERTURE END LIST*
G54D10*
G54D11*
X31381Y-27334D02*
X31400Y-27352D01*
X31419Y-27409D01*
X31419Y-27446D01*
X31400Y-27502D01*
X31362Y-27540D01*
X31325Y-27559D01*
X31250Y-27577D01*
X31194Y-27577D01*
X31119Y-27559D01*
X31081Y-27540D01*
X31044Y-27502D01*
X31025Y-27446D01*
X31025Y-27409D01*
X31044Y-27352D01*
X31062Y-27334D01*
X31306Y-27184D02*
X31306Y-26996D01*
X31419Y-27221D02*
X31025Y-27090D01*
X31419Y-26959D01*
X31419Y-26827D02*
X31025Y-26827D01*
X31025Y-26677D01*
X31044Y-26640D01*
X31062Y-26621D01*
X31100Y-26602D01*
X31156Y-26602D01*
X31194Y-26621D01*
X31212Y-26640D01*
X31231Y-26677D01*
X31231Y-26827D01*
X31456Y-26527D02*
X31456Y-26227D01*
X31306Y-26152D02*
X31306Y-25965D01*
X31419Y-26190D02*
X31025Y-26059D01*
X31419Y-25928D01*
X31419Y-25796D02*
X31025Y-25796D01*
X31025Y-25703D01*
X31044Y-25646D01*
X31081Y-25609D01*
X31119Y-25590D01*
X31194Y-25571D01*
X31250Y-25571D01*
X31325Y-25590D01*
X31362Y-25609D01*
X31400Y-25646D01*
X31419Y-25703D01*
X31419Y-25796D01*
X31381Y-25178D02*
X31400Y-25196D01*
X31419Y-25253D01*
X31419Y-25290D01*
X31400Y-25346D01*
X31362Y-25384D01*
X31325Y-25403D01*
X31250Y-25421D01*
X31194Y-25421D01*
X31119Y-25403D01*
X31081Y-25384D01*
X31044Y-25346D01*
X31025Y-25290D01*
X31025Y-25253D01*
X31044Y-25196D01*
X31062Y-25178D01*
X29019Y-27324D02*
X29038Y-27343D01*
X29056Y-27399D01*
X29056Y-27437D01*
X29038Y-27493D01*
X29000Y-27530D01*
X28963Y-27549D01*
X28888Y-27568D01*
X28832Y-27568D01*
X28757Y-27549D01*
X28719Y-27530D01*
X28682Y-27493D01*
X28663Y-27437D01*
X28663Y-27399D01*
X28682Y-27343D01*
X28700Y-27324D01*
X28944Y-27174D02*
X28944Y-26987D01*
X29056Y-27212D02*
X28663Y-27080D01*
X29056Y-26949D01*
X29056Y-26818D02*
X28663Y-26818D01*
X28663Y-26668D01*
X28682Y-26631D01*
X28700Y-26612D01*
X28738Y-26593D01*
X28794Y-26593D01*
X28832Y-26612D01*
X28850Y-26631D01*
X28869Y-26668D01*
X28869Y-26818D01*
X29094Y-26518D02*
X29094Y-26218D01*
X29019Y-25899D02*
X29038Y-25918D01*
X29056Y-25974D01*
X29056Y-26012D01*
X29038Y-26068D01*
X29000Y-26106D01*
X28963Y-26124D01*
X28888Y-26143D01*
X28832Y-26143D01*
X28757Y-26124D01*
X28719Y-26106D01*
X28682Y-26068D01*
X28663Y-26012D01*
X28663Y-25974D01*
X28682Y-25918D01*
X28700Y-25899D01*
X29056Y-25543D02*
X29056Y-25731D01*
X28663Y-25731D01*
X29056Y-25412D02*
X28663Y-25412D01*
X29056Y-25187D02*
X28832Y-25356D01*
X28663Y-25187D02*
X28888Y-25412D01*
X30238Y-32877D02*
X30238Y-32652D01*
X30631Y-32765D02*
X30238Y-32765D01*
X30425Y-32521D02*
X30425Y-32390D01*
X30631Y-32334D02*
X30631Y-32521D01*
X30238Y-32521D01*
X30238Y-32334D01*
X30631Y-32165D02*
X30238Y-32165D01*
X30519Y-32034D01*
X30238Y-31902D01*
X30631Y-31902D01*
X30631Y-31715D02*
X30238Y-31715D01*
X30238Y-31565D01*
X30256Y-31527D01*
X30275Y-31509D01*
X30313Y-31490D01*
X30369Y-31490D01*
X30406Y-31509D01*
X30425Y-31527D01*
X30444Y-31565D01*
X30444Y-31715D01*
X30669Y-31415D02*
X30669Y-31115D01*
X30519Y-31040D02*
X30519Y-30853D01*
X30631Y-31077D02*
X30238Y-30946D01*
X30631Y-30815D01*
X30631Y-30684D02*
X30238Y-30684D01*
X30238Y-30590D01*
X30256Y-30534D01*
X30294Y-30496D01*
X30331Y-30478D01*
X30406Y-30459D01*
X30463Y-30459D01*
X30538Y-30478D01*
X30575Y-30496D01*
X30613Y-30534D01*
X30631Y-30590D01*
X30631Y-30684D01*
X30238Y-30178D02*
X30519Y-30178D01*
X30575Y-30196D01*
X30613Y-30234D01*
X30631Y-30290D01*
X30631Y-30328D01*
X30669Y-30084D02*
X30669Y-29784D01*
X30519Y-29709D02*
X30519Y-29521D01*
X30631Y-29746D02*
X30238Y-29615D01*
X30631Y-29484D01*
X30631Y-29353D02*
X30238Y-29353D01*
X30238Y-29259D01*
X30256Y-29203D01*
X30294Y-29165D01*
X30331Y-29146D01*
X30406Y-29128D01*
X30463Y-29128D01*
X30538Y-29146D01*
X30575Y-29165D01*
X30613Y-29203D01*
X30631Y-29259D01*
X30631Y-29353D01*
X30594Y-28734D02*
X30613Y-28753D01*
X30631Y-28809D01*
X30631Y-28847D01*
X30613Y-28903D01*
X30575Y-28940D01*
X30538Y-28959D01*
X30463Y-28978D01*
X30406Y-28978D01*
X30331Y-28959D01*
X30294Y-28940D01*
X30256Y-28903D01*
X30238Y-28847D01*
X30238Y-28809D01*
X30256Y-28753D01*
X30275Y-28734D01*
X26301Y-32877D02*
X26301Y-32652D01*
X26694Y-32765D02*
X26301Y-32765D01*
X26488Y-32521D02*
X26488Y-32390D01*
X26694Y-32334D02*
X26694Y-32521D01*
X26301Y-32521D01*
X26301Y-32334D01*
X26694Y-32165D02*
X26301Y-32165D01*
X26582Y-32034D01*
X26301Y-31902D01*
X26694Y-31902D01*
X26694Y-31715D02*
X26301Y-31715D01*
X26301Y-31565D01*
X26319Y-31527D01*
X26338Y-31509D01*
X26376Y-31490D01*
X26432Y-31490D01*
X26469Y-31509D01*
X26488Y-31527D01*
X26507Y-31565D01*
X26507Y-31715D01*
X26732Y-31415D02*
X26732Y-31115D01*
X26582Y-31040D02*
X26582Y-30853D01*
X26694Y-31077D02*
X26301Y-30946D01*
X26694Y-30815D01*
X26694Y-30684D02*
X26301Y-30684D01*
X26301Y-30590D01*
X26319Y-30534D01*
X26357Y-30496D01*
X26394Y-30478D01*
X26469Y-30459D01*
X26526Y-30459D01*
X26601Y-30478D01*
X26638Y-30496D01*
X26676Y-30534D01*
X26694Y-30590D01*
X26694Y-30684D01*
X26301Y-30178D02*
X26582Y-30178D01*
X26638Y-30196D01*
X26676Y-30234D01*
X26694Y-30290D01*
X26694Y-30328D01*
X26732Y-30084D02*
X26732Y-29784D01*
X26301Y-29746D02*
X26694Y-29615D01*
X26301Y-29484D01*
X26657Y-29128D02*
X26676Y-29146D01*
X26694Y-29203D01*
X26694Y-29240D01*
X26676Y-29296D01*
X26638Y-29334D01*
X26601Y-29353D01*
X26526Y-29371D01*
X26469Y-29371D01*
X26394Y-29353D01*
X26357Y-29334D01*
X26319Y-29296D01*
X26301Y-29240D01*
X26301Y-29203D01*
X26319Y-29146D01*
X26338Y-29128D01*
X26657Y-28734D02*
X26676Y-28753D01*
X26694Y-28809D01*
X26694Y-28847D01*
X26676Y-28903D01*
X26638Y-28940D01*
X26601Y-28959D01*
X26526Y-28978D01*
X26469Y-28978D01*
X26394Y-28959D01*
X26357Y-28940D01*
X26319Y-28903D01*
X26301Y-28847D01*
X26301Y-28809D01*
X26319Y-28753D01*
X26338Y-28734D01*
G54D12*
X28712Y-39820D02*
X28683Y-39876D01*
X28683Y-39960D01*
X28712Y-40044D01*
X28768Y-40101D01*
X28824Y-40129D01*
X28937Y-40157D01*
X29021Y-40157D01*
X29133Y-40129D01*
X29190Y-40101D01*
X29246Y-40044D01*
X29274Y-39960D01*
X29274Y-39904D01*
X29246Y-39820D01*
X29218Y-39791D01*
X29021Y-39791D01*
X29021Y-39904D01*
X29274Y-39538D02*
X28683Y-39538D01*
X29274Y-39201D01*
X28683Y-39201D01*
X29274Y-38920D02*
X28683Y-38920D01*
X28683Y-38779D01*
X28712Y-38695D01*
X28768Y-38638D01*
X28824Y-38610D01*
X28937Y-38582D01*
X29021Y-38582D01*
X29133Y-38610D01*
X29190Y-38638D01*
X29246Y-38695D01*
X29274Y-38779D01*
X29274Y-38920D01*
X29668Y-40101D02*
X30258Y-39904D01*
X29668Y-39707D01*
X30202Y-39173D02*
X30230Y-39201D01*
X30258Y-39285D01*
X30258Y-39341D01*
X30230Y-39426D01*
X30174Y-39482D01*
X30118Y-39510D01*
X30005Y-39538D01*
X29921Y-39538D01*
X29808Y-39510D01*
X29752Y-39482D01*
X29696Y-39426D01*
X29668Y-39341D01*
X29668Y-39285D01*
X29696Y-39201D01*
X29724Y-39173D01*
X30202Y-38582D02*
X30230Y-38610D01*
X30258Y-38695D01*
X30258Y-38751D01*
X30230Y-38835D01*
X30174Y-38892D01*
X30118Y-38920D01*
X30005Y-38948D01*
X29921Y-38948D01*
X29808Y-38920D01*
X29752Y-38892D01*
X29696Y-38835D01*
X29668Y-38751D01*
X29668Y-38695D01*
X29696Y-38610D01*
X29724Y-38582D01*
X33436Y-40073D02*
X33886Y-40073D01*
X32353Y-40073D02*
X32803Y-40073D01*
X32578Y-40298D02*
X32578Y-39848D01*
G54D13*
X43475Y-34669D02*
X43550Y-34444D01*
X43550Y-34069D01*
X43475Y-33919D01*
X43400Y-33844D01*
X43250Y-33769D01*
X43100Y-33769D01*
X42950Y-33844D01*
X42875Y-33919D01*
X42800Y-34069D01*
X42725Y-34369D01*
X42650Y-34519D01*
X42575Y-34594D01*
X42425Y-34669D01*
X42275Y-34669D01*
X42125Y-34594D01*
X42050Y-34519D01*
X41976Y-34369D01*
X41976Y-33994D01*
X42050Y-33769D01*
X41976Y-32794D02*
X41976Y-32494D01*
X42050Y-32344D01*
X42200Y-32194D01*
X42500Y-32119D01*
X43025Y-32119D01*
X43325Y-32194D01*
X43475Y-32344D01*
X43550Y-32494D01*
X43550Y-32794D01*
X43475Y-32944D01*
X43325Y-33094D01*
X43025Y-33169D01*
X42500Y-33169D01*
X42200Y-33094D01*
X42050Y-32944D01*
X41976Y-32794D01*
X43550Y-31444D02*
X41976Y-31444D01*
X43550Y-29944D02*
X43550Y-30694D01*
X41976Y-30694D01*
G54D14*
X44192Y-28543D02*
X44192Y-36220D01*
G54D15*
X30265Y-33788D02*
X30543Y-33788D01*
X30543Y-33788D02*
X30543Y-33238D01*
X30543Y-33238D02*
X30265Y-33238D01*
X29593Y-33788D02*
X29871Y-33788D01*
X29593Y-33788D02*
X29593Y-33238D01*
X29593Y-33238D02*
X29871Y-33238D01*
X31840Y-29006D02*
X31562Y-29006D01*
X31562Y-29006D02*
X31562Y-29556D01*
X31562Y-29556D02*
X31840Y-29556D01*
X32512Y-29006D02*
X32234Y-29006D01*
X32512Y-29006D02*
X32512Y-29556D01*
X32512Y-29556D02*
X32234Y-29556D01*
G54D16*
X32234Y-30620D02*
X32509Y-30620D01*
X31840Y-30620D02*
X31565Y-30620D01*
X32234Y-30108D02*
X32509Y-30108D01*
X31565Y-30108D02*
X31840Y-30108D01*
X32509Y-30114D02*
X32509Y-30614D01*
X31565Y-30614D02*
X31565Y-30114D01*
G54D17*
X32120Y-41494D02*
X32120Y-40494D01*
X32120Y-40494D02*
X34120Y-40494D01*
X34120Y-40494D02*
X34120Y-41494D01*
X34120Y-41494D02*
X32120Y-41494D01*
G54D18*
X30490Y-40439D02*
X30490Y-41439D01*
X30490Y-41439D02*
X24490Y-41439D01*
X24490Y-41439D02*
X24490Y-40439D01*
X24490Y-40439D02*
X30490Y-40439D01*
X29490Y-40439D02*
X29490Y-41439D01*
X24490Y-24439D02*
X24490Y-23439D01*
X24490Y-23439D02*
X30490Y-23439D01*
X30490Y-23439D02*
X30490Y-24439D01*
X30490Y-24439D02*
X24490Y-24439D01*
X25490Y-24439D02*
X25490Y-23439D01*
X32520Y-27716D02*
X32520Y-28474D01*
X24537Y-28484D02*
X24537Y-27716D01*
X24537Y-28494D02*
X32520Y-28494D01*
X32520Y-27706D02*
X24537Y-27706D01*
X32520Y-36377D02*
X32520Y-37135D01*
X24537Y-37145D02*
X24537Y-36377D01*
X24537Y-37155D02*
X32520Y-37155D01*
X32520Y-36367D02*
X24537Y-36367D01*
G54D15*
X29203Y-30069D02*
X29203Y-30347D01*
X29203Y-30347D02*
X29753Y-30347D01*
X29753Y-30347D02*
X29753Y-30069D01*
X29203Y-29397D02*
X29203Y-29675D01*
X29203Y-29397D02*
X29753Y-29397D01*
X29753Y-29397D02*
X29753Y-29675D01*
X29203Y-31742D02*
X29203Y-32020D01*
X29203Y-32020D02*
X29753Y-32020D01*
X29753Y-32020D02*
X29753Y-31742D01*
X29203Y-31070D02*
X29203Y-31348D01*
X29203Y-31070D02*
X29753Y-31070D01*
X29753Y-31070D02*
X29753Y-31348D01*
X28395Y-33788D02*
X28673Y-33788D01*
X28673Y-33788D02*
X28673Y-33238D01*
X28673Y-33238D02*
X28395Y-33238D01*
X27723Y-33788D02*
X28001Y-33788D01*
X27723Y-33788D02*
X27723Y-33238D01*
X27723Y-33238D02*
X28001Y-33238D01*
G54D16*
X28198Y-30423D02*
X28473Y-30423D01*
X27804Y-30423D02*
X27529Y-30423D01*
X28198Y-29911D02*
X28473Y-29911D01*
X27529Y-29911D02*
X27804Y-29911D01*
X28473Y-29917D02*
X28473Y-30417D01*
X27529Y-30417D02*
X27529Y-29917D01*
X28198Y-32096D02*
X28473Y-32096D01*
X27804Y-32096D02*
X27529Y-32096D01*
X28198Y-31584D02*
X28473Y-31584D01*
X27529Y-31584D02*
X27804Y-31584D01*
X28473Y-31590D02*
X28473Y-32090D01*
X27529Y-32090D02*
X27529Y-31590D01*
G54D10*
X33082Y-33618D02*
X31532Y-33618D01*
X31532Y-33618D02*
X31532Y-32818D01*
X31532Y-32818D02*
X33082Y-32818D01*
X33082Y-32818D02*
X33082Y-33618D01*
X82627Y-32431D02*
X76722Y-28494D01*
X76722Y-28494D02*
X47194Y-28494D01*
X47194Y-28494D02*
X47194Y-36368D01*
X47194Y-36368D02*
X76722Y-36368D01*
X76722Y-36368D02*
X82627Y-32431D01*
G54D19*
G36*
X37718Y-30338D02*
X37725Y-30341D01*
X37731Y-30346D01*
X37740Y-30354D01*
X37743Y-30364D01*
X37742Y-30372D01*
X37741Y-30378D01*
X37737Y-30384D01*
X37731Y-30390D01*
X37722Y-30398D01*
X37709Y-30408D01*
X37694Y-30420D01*
X37618Y-30472D01*
X37538Y-30521D01*
X37453Y-30567D01*
X37375Y-30604D01*
X37354Y-30613D01*
X37339Y-30620D01*
X37327Y-30624D01*
X37318Y-30626D01*
X37311Y-30627D01*
X37305Y-30627D01*
X37299Y-30625D01*
X37299Y-30625D01*
X37291Y-30619D01*
X37286Y-30609D01*
X37283Y-30599D01*
X37283Y-30592D01*
X37285Y-30586D01*
X37289Y-30581D01*
X37296Y-30575D01*
X37306Y-30569D01*
X37320Y-30562D01*
X37339Y-30553D01*
X37346Y-30551D01*
X37401Y-30525D01*
X37457Y-30496D01*
X37513Y-30465D01*
X37567Y-30432D01*
X37618Y-30399D01*
X37664Y-30367D01*
X37670Y-30363D01*
X37686Y-30351D01*
X37699Y-30343D01*
X37709Y-30339D01*
X37718Y-30338D01*
X37718Y-30338D01*
X37718Y-30338D01*
G37*
G36*
X37689Y-30599D02*
X37701Y-30602D01*
X37710Y-30609D01*
X37715Y-30620D01*
X37717Y-30631D01*
X37713Y-30643D01*
X37712Y-30646D01*
X37706Y-30651D01*
X37697Y-30656D01*
X37693Y-30657D01*
X37688Y-30659D01*
X37677Y-30663D01*
X37661Y-30668D01*
X37642Y-30674D01*
X37620Y-30680D01*
X37595Y-30688D01*
X37568Y-30696D01*
X37541Y-30705D01*
X37513Y-30713D01*
X37485Y-30722D01*
X37459Y-30730D01*
X37434Y-30737D01*
X37412Y-30744D01*
X37393Y-30749D01*
X37378Y-30754D01*
X37367Y-30757D01*
X37362Y-30758D01*
X37353Y-30759D01*
X37347Y-30757D01*
X37336Y-30748D01*
X37330Y-30737D01*
X37329Y-30726D01*
X37332Y-30715D01*
X37341Y-30706D01*
X37347Y-30702D01*
X37354Y-30699D01*
X37366Y-30695D01*
X37382Y-30690D01*
X37402Y-30684D01*
X37426Y-30677D01*
X37451Y-30669D01*
X37478Y-30660D01*
X37506Y-30652D01*
X37534Y-30643D01*
X37562Y-30635D01*
X37589Y-30627D01*
X37614Y-30620D01*
X37637Y-30613D01*
X37656Y-30608D01*
X37672Y-30604D01*
X37683Y-30601D01*
X37689Y-30599D01*
X37689Y-30599D01*
X37689Y-30599D01*
X37689Y-30599D01*
G37*
G36*
X37618Y-30814D02*
X37627Y-30814D01*
X37633Y-30814D01*
X37638Y-30816D01*
X37642Y-30817D01*
X37644Y-30819D01*
X37647Y-30822D01*
X37648Y-30823D01*
X37655Y-30835D01*
X37656Y-30846D01*
X37651Y-30857D01*
X37647Y-30861D01*
X37639Y-30868D01*
X37629Y-30872D01*
X37628Y-30872D01*
X37622Y-30873D01*
X37611Y-30874D01*
X37596Y-30876D01*
X37576Y-30878D01*
X37553Y-30880D01*
X37527Y-30883D01*
X37500Y-30886D01*
X37493Y-30886D01*
X37462Y-30890D01*
X37436Y-30892D01*
X37416Y-30894D01*
X37400Y-30895D01*
X37387Y-30896D01*
X37378Y-30897D01*
X37371Y-30897D01*
X37366Y-30896D01*
X37363Y-30896D01*
X37360Y-30894D01*
X37357Y-30893D01*
X37347Y-30885D01*
X37342Y-30874D01*
X37342Y-30862D01*
X37347Y-30852D01*
X37355Y-30844D01*
X37359Y-30842D01*
X37367Y-30840D01*
X37380Y-30838D01*
X37398Y-30836D01*
X37421Y-30833D01*
X37449Y-30830D01*
X37483Y-30826D01*
X37483Y-30826D01*
X37518Y-30822D01*
X37547Y-30819D01*
X37571Y-30817D01*
X37591Y-30815D01*
X37606Y-30814D01*
X37618Y-30814D01*
X37618Y-30814D01*
X37618Y-30814D01*
G37*
G36*
X37367Y-30978D02*
X37384Y-30978D01*
X37406Y-30980D01*
X37430Y-30983D01*
X37455Y-30987D01*
X37478Y-30991D01*
X37498Y-30996D01*
X37502Y-30997D01*
X37526Y-31004D01*
X37548Y-31012D01*
X37567Y-31020D01*
X37581Y-31029D01*
X37591Y-31037D01*
X37593Y-31040D01*
X37596Y-31052D01*
X37594Y-31065D01*
X37590Y-31073D01*
X37582Y-31081D01*
X37572Y-31084D01*
X37559Y-31082D01*
X37543Y-31076D01*
X37539Y-31074D01*
X37514Y-31064D01*
X37484Y-31055D01*
X37451Y-31048D01*
X37412Y-31042D01*
X37370Y-31038D01*
X37355Y-31036D01*
X37345Y-31035D01*
X37338Y-31033D01*
X37334Y-31031D01*
X37330Y-31027D01*
X37330Y-31027D01*
X37323Y-31015D01*
X37323Y-31003D01*
X37328Y-30991D01*
X37332Y-30987D01*
X37336Y-30982D01*
X37341Y-30980D01*
X37348Y-30978D01*
X37358Y-30978D01*
X37367Y-30978D01*
X37367Y-30978D01*
X37367Y-30978D01*
G37*
G36*
X35674Y-29292D02*
X35685Y-29294D01*
X35695Y-29300D01*
X35696Y-29301D01*
X35699Y-29306D01*
X35703Y-29316D01*
X35710Y-29330D01*
X35717Y-29347D01*
X35725Y-29365D01*
X35727Y-29370D01*
X35733Y-29384D01*
X35741Y-29403D01*
X35750Y-29426D01*
X35762Y-29454D01*
X35774Y-29484D01*
X35787Y-29516D01*
X35802Y-29550D01*
X35816Y-29585D01*
X35831Y-29621D01*
X35833Y-29627D01*
X35861Y-29696D01*
X35890Y-29766D01*
X35920Y-29838D01*
X35949Y-29910D01*
X35977Y-29981D01*
X36005Y-30050D01*
X36031Y-30117D01*
X36056Y-30180D01*
X36078Y-30238D01*
X36081Y-30245D01*
X36090Y-30269D01*
X36098Y-30290D01*
X36106Y-30310D01*
X36112Y-30326D01*
X36117Y-30339D01*
X36120Y-30347D01*
X36121Y-30349D01*
X36123Y-30352D01*
X36127Y-30354D01*
X36135Y-30356D01*
X36146Y-30358D01*
X36161Y-30361D01*
X36175Y-30363D01*
X36187Y-30364D01*
X36196Y-30365D01*
X36199Y-30365D01*
X36198Y-30362D01*
X36196Y-30353D01*
X36193Y-30339D01*
X36189Y-30320D01*
X36184Y-30296D01*
X36178Y-30269D01*
X36172Y-30237D01*
X36164Y-30203D01*
X36156Y-30165D01*
X36147Y-30125D01*
X36138Y-30083D01*
X36132Y-30054D01*
X36123Y-30011D01*
X36114Y-29969D01*
X36105Y-29929D01*
X36097Y-29891D01*
X36090Y-29857D01*
X36083Y-29825D01*
X36078Y-29798D01*
X36073Y-29774D01*
X36069Y-29755D01*
X36066Y-29741D01*
X36065Y-29733D01*
X36065Y-29731D01*
X36067Y-29717D01*
X36075Y-29708D01*
X36085Y-29702D01*
X36093Y-29701D01*
X36105Y-29703D01*
X36114Y-29710D01*
X36118Y-29717D01*
X36120Y-29721D01*
X36122Y-29731D01*
X36126Y-29746D01*
X36130Y-29766D01*
X36136Y-29791D01*
X36142Y-29819D01*
X36150Y-29852D01*
X36158Y-29888D01*
X36166Y-29926D01*
X36175Y-29967D01*
X36184Y-30010D01*
X36194Y-30054D01*
X36265Y-30382D01*
X36296Y-30393D01*
X36313Y-30399D01*
X36325Y-30403D01*
X36332Y-30406D01*
X36336Y-30407D01*
X36338Y-30406D01*
X36339Y-30405D01*
X36339Y-30404D01*
X36339Y-30399D01*
X36341Y-30388D01*
X36343Y-30373D01*
X36345Y-30354D01*
X36348Y-30331D01*
X36351Y-30306D01*
X36355Y-30280D01*
X36359Y-30252D01*
X36362Y-30224D01*
X36366Y-30197D01*
X36370Y-30171D01*
X36373Y-30147D01*
X36377Y-30125D01*
X36379Y-30107D01*
X36381Y-30094D01*
X36383Y-30085D01*
X36384Y-30081D01*
X36391Y-30071D01*
X36402Y-30065D01*
X36415Y-30064D01*
X36428Y-30069D01*
X36436Y-30078D01*
X36440Y-30090D01*
X36440Y-30092D01*
X36439Y-30097D01*
X36438Y-30108D01*
X36436Y-30124D01*
X36434Y-30144D01*
X36431Y-30168D01*
X36427Y-30195D01*
X36424Y-30224D01*
X36419Y-30256D01*
X36418Y-30270D01*
X36413Y-30302D01*
X36410Y-30331D01*
X36406Y-30359D01*
X36403Y-30383D01*
X36401Y-30403D01*
X36399Y-30420D01*
X36398Y-30431D01*
X36398Y-30437D01*
X36398Y-30438D01*
X36401Y-30440D01*
X36409Y-30444D01*
X36421Y-30451D01*
X36435Y-30459D01*
X36443Y-30464D01*
X36485Y-30488D01*
X36546Y-30396D01*
X36561Y-30375D01*
X36575Y-30355D01*
X36587Y-30337D01*
X36598Y-30321D01*
X36607Y-30310D01*
X36613Y-30302D01*
X36616Y-30299D01*
X36628Y-30294D01*
X36640Y-30295D01*
X36651Y-30303D01*
X36651Y-30303D01*
X36656Y-30307D01*
X36659Y-30312D01*
X36660Y-30317D01*
X36660Y-30323D01*
X36658Y-30330D01*
X36654Y-30339D01*
X36648Y-30351D01*
X36639Y-30366D01*
X36627Y-30385D01*
X36612Y-30408D01*
X36599Y-30427D01*
X36585Y-30449D01*
X36572Y-30469D01*
X36560Y-30486D01*
X36551Y-30501D01*
X36543Y-30513D01*
X36539Y-30520D01*
X36538Y-30522D01*
X36540Y-30525D01*
X36546Y-30531D01*
X36554Y-30540D01*
X36559Y-30544D01*
X36569Y-30554D01*
X36579Y-30565D01*
X36590Y-30578D01*
X36599Y-30589D01*
X36606Y-30598D01*
X36609Y-30602D01*
X36611Y-30600D01*
X36619Y-30596D01*
X36630Y-30589D01*
X36645Y-30580D01*
X36663Y-30569D01*
X36683Y-30557D01*
X36699Y-30547D01*
X36726Y-30531D01*
X36748Y-30518D01*
X36766Y-30507D01*
X36780Y-30500D01*
X36791Y-30495D01*
X36799Y-30492D01*
X36806Y-30491D01*
X36811Y-30492D01*
X36815Y-30495D01*
X36820Y-30499D01*
X36822Y-30501D01*
X36829Y-30513D01*
X36830Y-30524D01*
X36825Y-30535D01*
X36820Y-30541D01*
X36815Y-30545D01*
X36805Y-30552D01*
X36792Y-30561D01*
X36775Y-30572D01*
X36755Y-30584D01*
X36734Y-30597D01*
X36726Y-30602D01*
X36705Y-30615D01*
X36686Y-30626D01*
X36670Y-30637D01*
X36657Y-30645D01*
X36647Y-30651D01*
X36642Y-30654D01*
X36642Y-30655D01*
X36643Y-30658D01*
X36647Y-30665D01*
X36654Y-30676D01*
X36662Y-30689D01*
X36667Y-30697D01*
X36692Y-30738D01*
X36710Y-30730D01*
X36780Y-30701D01*
X36853Y-30676D01*
X36930Y-30654D01*
X36968Y-30645D01*
X37005Y-30638D01*
X37044Y-30632D01*
X37084Y-30627D01*
X37123Y-30624D01*
X37160Y-30622D01*
X37191Y-30622D01*
X37224Y-30623D01*
X37239Y-30637D01*
X37250Y-30649D01*
X37259Y-30661D01*
X37266Y-30675D01*
X37272Y-30692D01*
X37278Y-30713D01*
X37287Y-30752D01*
X37293Y-30788D01*
X37296Y-30823D01*
X37297Y-30861D01*
X37294Y-30901D01*
X37294Y-30910D01*
X37291Y-30941D01*
X37287Y-30967D01*
X37284Y-30989D01*
X37279Y-31009D01*
X37273Y-31029D01*
X37266Y-31049D01*
X37257Y-31072D01*
X37253Y-31080D01*
X37231Y-31128D01*
X37205Y-31172D01*
X37196Y-31185D01*
X35903Y-31185D01*
X35890Y-31187D01*
X35866Y-31193D01*
X35846Y-31202D01*
X35835Y-31211D01*
X35823Y-31225D01*
X35813Y-31244D01*
X35804Y-31265D01*
X35798Y-31287D01*
X35795Y-31302D01*
X35794Y-31322D01*
X35793Y-31345D01*
X35793Y-31369D01*
X35793Y-31395D01*
X35794Y-31419D01*
X35796Y-31441D01*
X35798Y-31455D01*
X35803Y-31482D01*
X35809Y-31512D01*
X35817Y-31545D01*
X35827Y-31579D01*
X35836Y-31613D01*
X35846Y-31645D01*
X35856Y-31673D01*
X35859Y-31680D01*
X35871Y-31710D01*
X35873Y-31695D01*
X35876Y-31676D01*
X35878Y-31654D01*
X35881Y-31628D01*
X35884Y-31601D01*
X35887Y-31573D01*
X35889Y-31546D01*
X35891Y-31520D01*
X35893Y-31497D01*
X35894Y-31478D01*
X35895Y-31465D01*
X35895Y-31464D01*
X35895Y-31439D01*
X35903Y-31450D01*
X35913Y-31460D01*
X35923Y-31464D01*
X35934Y-31463D01*
X35937Y-31462D01*
X35946Y-31456D01*
X35953Y-31446D01*
X35960Y-31431D01*
X35963Y-31424D01*
X35965Y-31411D01*
X35966Y-31395D01*
X35965Y-31378D01*
X35963Y-31364D01*
X35959Y-31353D01*
X35959Y-31352D01*
X35949Y-31341D01*
X35939Y-31335D01*
X35927Y-31335D01*
X35916Y-31341D01*
X35913Y-31343D01*
X35910Y-31346D01*
X35908Y-31347D01*
X35908Y-31346D01*
X35908Y-31340D01*
X35910Y-31329D01*
X35912Y-31318D01*
X35914Y-31303D01*
X35916Y-31284D01*
X35918Y-31265D01*
X35919Y-31256D01*
X35920Y-31240D01*
X35920Y-31229D01*
X35919Y-31222D01*
X35917Y-31215D01*
X35914Y-31208D01*
X35912Y-31203D01*
X35903Y-31185D01*
X37196Y-31185D01*
X37175Y-31214D01*
X37141Y-31256D01*
X37115Y-31284D01*
X37080Y-31318D01*
X37047Y-31349D01*
X37013Y-31376D01*
X36978Y-31400D01*
X36941Y-31422D01*
X36901Y-31443D01*
X36857Y-31463D01*
X36815Y-31480D01*
X36792Y-31489D01*
X36771Y-31496D01*
X36749Y-31503D01*
X36727Y-31509D01*
X36703Y-31515D01*
X36676Y-31521D01*
X36646Y-31526D01*
X36612Y-31532D01*
X36573Y-31539D01*
X36555Y-31542D01*
X36492Y-31552D01*
X36436Y-31562D01*
X36384Y-31572D01*
X36337Y-31582D01*
X36293Y-31593D01*
X36252Y-31604D01*
X36214Y-31617D01*
X36177Y-31630D01*
X36141Y-31645D01*
X36105Y-31661D01*
X36076Y-31675D01*
X36063Y-31682D01*
X36046Y-31692D01*
X36027Y-31704D01*
X36008Y-31717D01*
X35988Y-31731D01*
X35969Y-31745D01*
X35952Y-31758D01*
X35937Y-31769D01*
X35926Y-31779D01*
X35920Y-31786D01*
X35920Y-31786D01*
X35901Y-31814D01*
X35881Y-31847D01*
X35861Y-31884D01*
X35841Y-31924D01*
X35822Y-31965D01*
X35805Y-32007D01*
X35789Y-32047D01*
X35776Y-32086D01*
X35775Y-32090D01*
X35765Y-32127D01*
X35756Y-32158D01*
X35749Y-32187D01*
X35744Y-32213D01*
X35739Y-32240D01*
X35736Y-32266D01*
X35733Y-32295D01*
X35732Y-32312D01*
X35731Y-32326D01*
X35730Y-32335D01*
X35728Y-32340D01*
X35726Y-32342D01*
X35724Y-32342D01*
X35721Y-32342D01*
X35719Y-32339D01*
X35717Y-32334D01*
X35716Y-32326D01*
X35715Y-32315D01*
X35715Y-32299D01*
X35716Y-32279D01*
X35716Y-32253D01*
X35717Y-32224D01*
X35720Y-32161D01*
X35724Y-32104D01*
X35730Y-32052D01*
X35736Y-32003D01*
X35744Y-31958D01*
X35753Y-31916D01*
X35764Y-31875D01*
X35777Y-31836D01*
X35792Y-31797D01*
X35799Y-31780D01*
X35805Y-31765D01*
X35810Y-31752D01*
X35814Y-31742D01*
X35815Y-31735D01*
X35815Y-31735D01*
X35813Y-31730D01*
X35809Y-31720D01*
X35805Y-31708D01*
X35802Y-31700D01*
X35792Y-31674D01*
X35782Y-31643D01*
X35772Y-31609D01*
X35763Y-31574D01*
X35754Y-31540D01*
X35746Y-31508D01*
X35741Y-31479D01*
X35739Y-31466D01*
X35735Y-31440D01*
X35733Y-31410D01*
X35732Y-31380D01*
X35731Y-31351D01*
X35732Y-31325D01*
X35734Y-31310D01*
X35740Y-31270D01*
X35751Y-31235D01*
X35765Y-31204D01*
X35782Y-31179D01*
X35803Y-31158D01*
X35827Y-31143D01*
X35838Y-31138D01*
X35848Y-31135D01*
X35859Y-31132D01*
X35872Y-31129D01*
X35888Y-31127D01*
X35907Y-31125D01*
X35929Y-31123D01*
X35956Y-31121D01*
X35988Y-31120D01*
X36025Y-31118D01*
X36032Y-31118D01*
X36077Y-31116D01*
X36117Y-31114D01*
X36151Y-31112D01*
X36181Y-31109D01*
X36206Y-31106D01*
X36228Y-31103D01*
X36247Y-31099D01*
X36262Y-31095D01*
X36276Y-31091D01*
X36288Y-31085D01*
X36288Y-31085D01*
X36294Y-31082D01*
X36298Y-31079D01*
X36304Y-31074D01*
X36310Y-31067D01*
X36317Y-31058D01*
X36328Y-31045D01*
X36337Y-31032D01*
X36362Y-31000D01*
X36348Y-30981D01*
X36332Y-30960D01*
X36315Y-30934D01*
X36296Y-30904D01*
X36276Y-30870D01*
X36255Y-30833D01*
X36235Y-30795D01*
X36215Y-30757D01*
X36196Y-30718D01*
X36178Y-30680D01*
X36168Y-30656D01*
X36156Y-30629D01*
X36144Y-30598D01*
X36131Y-30566D01*
X36119Y-30533D01*
X36106Y-30500D01*
X36095Y-30468D01*
X36085Y-30439D01*
X36076Y-30413D01*
X36070Y-30392D01*
X36070Y-30391D01*
X36065Y-30377D01*
X36059Y-30358D01*
X36050Y-30333D01*
X36038Y-30303D01*
X36025Y-30268D01*
X36010Y-30228D01*
X35993Y-30184D01*
X35974Y-30136D01*
X35953Y-30084D01*
X35931Y-30028D01*
X35907Y-29969D01*
X35882Y-29906D01*
X35855Y-29840D01*
X35827Y-29772D01*
X35798Y-29701D01*
X35768Y-29627D01*
X35737Y-29552D01*
X35705Y-29474D01*
X35677Y-29408D01*
X35667Y-29384D01*
X35659Y-29364D01*
X35653Y-29349D01*
X35649Y-29338D01*
X35646Y-29329D01*
X35645Y-29323D01*
X35644Y-29319D01*
X35645Y-29315D01*
X35646Y-29311D01*
X35646Y-29310D01*
X35652Y-29300D01*
X35662Y-29294D01*
X35674Y-29292D01*
X35674Y-29292D01*
X35674Y-29292D01*
G37*
G36*
X36771Y-31723D02*
X36815Y-31725D01*
X36855Y-31731D01*
X36892Y-31740D01*
X36927Y-31754D01*
X36936Y-31758D01*
X36974Y-31780D01*
X37007Y-31806D01*
X37018Y-31817D01*
X36799Y-31817D01*
X36764Y-31817D01*
X36732Y-31821D01*
X36703Y-31828D01*
X36679Y-31839D01*
X36659Y-31852D01*
X36644Y-31868D01*
X36634Y-31887D01*
X36630Y-31906D01*
X36631Y-31927D01*
X36638Y-31949D01*
X36650Y-31972D01*
X36666Y-31996D01*
X36687Y-32019D01*
X36712Y-32042D01*
X36741Y-32064D01*
X36746Y-32067D01*
X36776Y-32087D01*
X36890Y-32087D01*
X37003Y-32087D01*
X37008Y-32063D01*
X37011Y-32043D01*
X37013Y-32021D01*
X37013Y-31999D01*
X37012Y-31979D01*
X37010Y-31963D01*
X37009Y-31958D01*
X37002Y-31936D01*
X36992Y-31917D01*
X36978Y-31898D01*
X36962Y-31880D01*
X36938Y-31860D01*
X36913Y-31843D01*
X36885Y-31831D01*
X36853Y-31823D01*
X36817Y-31818D01*
X36799Y-31817D01*
X37018Y-31817D01*
X37034Y-31834D01*
X37055Y-31865D01*
X37072Y-31899D01*
X37082Y-31936D01*
X37083Y-31940D01*
X37084Y-31951D01*
X37085Y-31966D01*
X37085Y-31985D01*
X37085Y-32005D01*
X37085Y-32026D01*
X37084Y-32045D01*
X37083Y-32062D01*
X37081Y-32074D01*
X37081Y-32078D01*
X37079Y-32087D01*
X37180Y-32087D01*
X37281Y-32087D01*
X37281Y-32131D01*
X37281Y-32175D01*
X36920Y-32175D01*
X36559Y-32175D01*
X36560Y-32132D01*
X36561Y-32089D01*
X36617Y-32088D01*
X36673Y-32087D01*
X36647Y-32067D01*
X36616Y-32040D01*
X36590Y-32009D01*
X36571Y-31977D01*
X36560Y-31953D01*
X36552Y-31931D01*
X36548Y-31910D01*
X36548Y-31888D01*
X36548Y-31881D01*
X36551Y-31855D01*
X36560Y-31832D01*
X36573Y-31809D01*
X36592Y-31786D01*
X36593Y-31785D01*
X36605Y-31772D01*
X36617Y-31763D01*
X36631Y-31754D01*
X36643Y-31748D01*
X36665Y-31739D01*
X36686Y-31732D01*
X36709Y-31727D01*
X36735Y-31724D01*
X36766Y-31723D01*
X36771Y-31723D01*
X36771Y-31723D01*
X36771Y-31723D01*
G37*
G36*
X36890Y-35153D02*
X36923Y-35154D01*
X36955Y-35161D01*
X36984Y-35171D01*
X37013Y-35188D01*
X37038Y-35211D01*
X37060Y-35237D01*
X37077Y-35268D01*
X37089Y-35304D01*
X37094Y-35322D01*
X37096Y-35338D01*
X37098Y-35359D01*
X37100Y-35382D01*
X37100Y-35406D01*
X37100Y-35429D01*
X37100Y-35449D01*
X37098Y-35464D01*
X37094Y-35491D01*
X37087Y-35521D01*
X37078Y-35552D01*
X37074Y-35564D01*
X37065Y-35590D01*
X37020Y-35591D01*
X36976Y-35592D01*
X36989Y-35563D01*
X37001Y-35531D01*
X37012Y-35496D01*
X37020Y-35462D01*
X37026Y-35430D01*
X37029Y-35400D01*
X37029Y-35392D01*
X37027Y-35368D01*
X37022Y-35343D01*
X37015Y-35320D01*
X37005Y-35299D01*
X36994Y-35283D01*
X36992Y-35281D01*
X36974Y-35265D01*
X36952Y-35254D01*
X36928Y-35247D01*
X36904Y-35246D01*
X36902Y-35246D01*
X36886Y-35249D01*
X36870Y-35254D01*
X36855Y-35262D01*
X36840Y-35272D01*
X36826Y-35287D01*
X36810Y-35305D01*
X36794Y-35327D01*
X36776Y-35354D01*
X36756Y-35387D01*
X36742Y-35411D01*
X36727Y-35437D01*
X36714Y-35458D01*
X36703Y-35476D01*
X36693Y-35490D01*
X36684Y-35503D01*
X36674Y-35514D01*
X36664Y-35525D01*
X36662Y-35526D01*
X36635Y-35550D01*
X36606Y-35567D01*
X36575Y-35578D01*
X36543Y-35583D01*
X36530Y-35583D01*
X36495Y-35581D01*
X36464Y-35573D01*
X36436Y-35561D01*
X36410Y-35543D01*
X36398Y-35531D01*
X36380Y-35510D01*
X36365Y-35489D01*
X36354Y-35464D01*
X36346Y-35437D01*
X36341Y-35404D01*
X36339Y-35387D01*
X36337Y-35362D01*
X36338Y-35334D01*
X36340Y-35305D01*
X36343Y-35276D01*
X36347Y-35249D01*
X36352Y-35226D01*
X36358Y-35210D01*
X36361Y-35201D01*
X36398Y-35201D01*
X36413Y-35201D01*
X36425Y-35201D01*
X36434Y-35202D01*
X36437Y-35202D01*
X36437Y-35206D01*
X36435Y-35214D01*
X36432Y-35225D01*
X36430Y-35231D01*
X36419Y-35272D01*
X36412Y-35315D01*
X36410Y-35338D01*
X36410Y-35373D01*
X36415Y-35403D01*
X36425Y-35430D01*
X36441Y-35453D01*
X36448Y-35462D01*
X36463Y-35475D01*
X36479Y-35483D01*
X36497Y-35488D01*
X36519Y-35489D01*
X36533Y-35489D01*
X36547Y-35487D01*
X36559Y-35483D01*
X36571Y-35477D01*
X36583Y-35469D01*
X36595Y-35458D01*
X36607Y-35443D01*
X36621Y-35424D01*
X36637Y-35401D01*
X36654Y-35374D01*
X36674Y-35341D01*
X36679Y-35332D01*
X36698Y-35301D01*
X36713Y-35276D01*
X36727Y-35255D01*
X36740Y-35238D01*
X36751Y-35223D01*
X36762Y-35211D01*
X36773Y-35201D01*
X36784Y-35192D01*
X36797Y-35183D01*
X36800Y-35181D01*
X36828Y-35167D01*
X36858Y-35157D01*
X36890Y-35153D01*
X36890Y-35153D01*
X36890Y-35153D01*
G37*
G36*
X36842Y-33995D02*
X36871Y-33997D01*
X36898Y-34001D01*
X36922Y-34007D01*
X36946Y-34016D01*
X36982Y-34035D01*
X37014Y-34058D01*
X37040Y-34085D01*
X37042Y-34087D01*
X36815Y-34087D01*
X36778Y-34089D01*
X36744Y-34095D01*
X36712Y-34105D01*
X36685Y-34119D01*
X36664Y-34135D01*
X36645Y-34155D01*
X36632Y-34176D01*
X36623Y-34201D01*
X36620Y-34228D01*
X36620Y-34246D01*
X36621Y-34261D01*
X36623Y-34273D01*
X36625Y-34283D01*
X36630Y-34295D01*
X36631Y-34297D01*
X36646Y-34322D01*
X36666Y-34343D01*
X36691Y-34360D01*
X36722Y-34374D01*
X36738Y-34379D01*
X36748Y-34382D01*
X36757Y-34384D01*
X36767Y-34385D01*
X36780Y-34386D01*
X36795Y-34386D01*
X36816Y-34386D01*
X36820Y-34386D01*
X36845Y-34386D01*
X36866Y-34385D01*
X36884Y-34383D01*
X36899Y-34380D01*
X36914Y-34375D01*
X36929Y-34369D01*
X36941Y-34364D01*
X36967Y-34347D01*
X36989Y-34328D01*
X37005Y-34305D01*
X37016Y-34279D01*
X37021Y-34251D01*
X37021Y-34221D01*
X37020Y-34213D01*
X37012Y-34186D01*
X36999Y-34161D01*
X36981Y-34139D01*
X36958Y-34121D01*
X36931Y-34107D01*
X36898Y-34096D01*
X36862Y-34089D01*
X36853Y-34088D01*
X36815Y-34087D01*
X37042Y-34087D01*
X37062Y-34115D01*
X37078Y-34148D01*
X37089Y-34184D01*
X37094Y-34222D01*
X37093Y-34259D01*
X37087Y-34297D01*
X37076Y-34332D01*
X37059Y-34365D01*
X37037Y-34394D01*
X37011Y-34420D01*
X36980Y-34442D01*
X36944Y-34459D01*
X36906Y-34472D01*
X36895Y-34475D01*
X36884Y-34477D01*
X36873Y-34479D01*
X36860Y-34480D01*
X36845Y-34480D01*
X36824Y-34480D01*
X36821Y-34480D01*
X36800Y-34480D01*
X36783Y-34480D01*
X36769Y-34479D01*
X36758Y-34478D01*
X36747Y-34476D01*
X36738Y-34474D01*
X36701Y-34461D01*
X36666Y-34444D01*
X36634Y-34423D01*
X36607Y-34398D01*
X36584Y-34371D01*
X36580Y-34365D01*
X36566Y-34339D01*
X36556Y-34311D01*
X36550Y-34281D01*
X36547Y-34247D01*
X36548Y-34226D01*
X36550Y-34194D01*
X36555Y-34167D01*
X36563Y-34142D01*
X36575Y-34119D01*
X36578Y-34114D01*
X36595Y-34090D01*
X36617Y-34066D01*
X36643Y-34045D01*
X36670Y-34027D01*
X36697Y-34015D01*
X36716Y-34008D01*
X36732Y-34003D01*
X36748Y-33999D01*
X36764Y-33997D01*
X36784Y-33996D01*
X36808Y-33995D01*
X36809Y-33995D01*
X36842Y-33995D01*
X36842Y-33995D01*
X36842Y-33995D01*
G37*
G36*
X37064Y-32872D02*
X37067Y-32880D01*
X37069Y-32886D01*
X37072Y-32897D01*
X37076Y-32911D01*
X37078Y-32918D01*
X37087Y-32964D01*
X37092Y-33008D01*
X37093Y-33050D01*
X37092Y-33071D01*
X37087Y-33099D01*
X37079Y-33129D01*
X37068Y-33157D01*
X37057Y-33178D01*
X37038Y-33206D01*
X37014Y-33231D01*
X36987Y-33254D01*
X36958Y-33273D01*
X36952Y-33276D01*
X36918Y-33290D01*
X36881Y-33299D01*
X36843Y-33304D01*
X36804Y-33304D01*
X36766Y-33300D01*
X36729Y-33292D01*
X36696Y-33279D01*
X36694Y-33278D01*
X36660Y-33258D01*
X36630Y-33233D01*
X36603Y-33205D01*
X36581Y-33173D01*
X36564Y-33140D01*
X36555Y-33109D01*
X36549Y-33074D01*
X36547Y-33035D01*
X36550Y-32994D01*
X36556Y-32951D01*
X36566Y-32907D01*
X36569Y-32895D01*
X36576Y-32872D01*
X36617Y-32872D01*
X36634Y-32872D01*
X36645Y-32872D01*
X36652Y-32873D01*
X36656Y-32874D01*
X36657Y-32876D01*
X36656Y-32877D01*
X36655Y-32882D01*
X36651Y-32892D01*
X36647Y-32905D01*
X36642Y-32918D01*
X36636Y-32935D01*
X36631Y-32952D01*
X36626Y-32968D01*
X36624Y-32977D01*
X36621Y-32997D01*
X36620Y-33020D01*
X36620Y-33043D01*
X36621Y-33064D01*
X36624Y-33081D01*
X36624Y-33081D01*
X36635Y-33111D01*
X36651Y-33137D01*
X36672Y-33160D01*
X36697Y-33179D01*
X36725Y-33193D01*
X36758Y-33204D01*
X36793Y-33209D01*
X36816Y-33210D01*
X36844Y-33209D01*
X36867Y-33205D01*
X36891Y-33199D01*
X36914Y-33189D01*
X36944Y-33172D01*
X36968Y-33153D01*
X36987Y-33131D01*
X37001Y-33105D01*
X37005Y-33096D01*
X37008Y-33083D01*
X37011Y-33066D01*
X37012Y-33045D01*
X37013Y-33024D01*
X37013Y-33003D01*
X37012Y-32984D01*
X37011Y-32975D01*
X37008Y-32964D01*
X37005Y-32950D01*
X37000Y-32933D01*
X36995Y-32915D01*
X36990Y-32898D01*
X36986Y-32885D01*
X36983Y-32877D01*
X36983Y-32875D01*
X36985Y-32873D01*
X36990Y-32872D01*
X36999Y-32872D01*
X37013Y-32872D01*
X37023Y-32872D01*
X37064Y-32872D01*
X37064Y-32872D01*
X37064Y-32872D01*
G37*
G36*
X37076Y-32293D02*
X37078Y-32294D01*
X37079Y-32299D01*
X37079Y-32306D01*
X37080Y-32319D01*
X37080Y-32336D01*
X37080Y-32337D01*
X37080Y-32382D01*
X37047Y-32388D01*
X37030Y-32390D01*
X37012Y-32393D01*
X36996Y-32394D01*
X36991Y-32395D01*
X36979Y-32396D01*
X36970Y-32397D01*
X36966Y-32398D01*
X36966Y-32399D01*
X36966Y-32399D01*
X36864Y-32399D01*
X36751Y-32400D01*
X36637Y-32401D01*
X36633Y-32418D01*
X36631Y-32429D01*
X36629Y-32443D01*
X36628Y-32460D01*
X36627Y-32468D01*
X36627Y-32501D01*
X36632Y-32530D01*
X36641Y-32556D01*
X36656Y-32581D01*
X36677Y-32605D01*
X36679Y-32607D01*
X36701Y-32626D01*
X36725Y-32642D01*
X36752Y-32653D01*
X36779Y-32661D01*
X36798Y-32665D01*
X36821Y-32667D01*
X36845Y-32668D01*
X36870Y-32669D01*
X36893Y-32667D01*
X36912Y-32665D01*
X36921Y-32663D01*
X36950Y-32653D01*
X36974Y-32639D01*
X36992Y-32622D01*
X37001Y-32609D01*
X37009Y-32590D01*
X37010Y-32568D01*
X37006Y-32546D01*
X37003Y-32538D01*
X36997Y-32524D01*
X36989Y-32511D01*
X36985Y-32505D01*
X36973Y-32489D01*
X36957Y-32471D01*
X36938Y-32453D01*
X36918Y-32437D01*
X36899Y-32422D01*
X36894Y-32419D01*
X36864Y-32399D01*
X36966Y-32399D01*
X36969Y-32401D01*
X36975Y-32406D01*
X36981Y-32410D01*
X36998Y-32422D01*
X37015Y-32438D01*
X37032Y-32455D01*
X37047Y-32473D01*
X37053Y-32481D01*
X37072Y-32514D01*
X37085Y-32545D01*
X37092Y-32576D01*
X37093Y-32607D01*
X37092Y-32615D01*
X37086Y-32641D01*
X37074Y-32666D01*
X37058Y-32690D01*
X37037Y-32712D01*
X37013Y-32730D01*
X36991Y-32742D01*
X36980Y-32746D01*
X36965Y-32751D01*
X36949Y-32755D01*
X36947Y-32755D01*
X36904Y-32762D01*
X36860Y-32763D01*
X36817Y-32760D01*
X36775Y-32752D01*
X36735Y-32740D01*
X36697Y-32724D01*
X36663Y-32704D01*
X36633Y-32680D01*
X36607Y-32652D01*
X36603Y-32647D01*
X36588Y-32626D01*
X36576Y-32605D01*
X36567Y-32583D01*
X36562Y-32567D01*
X36560Y-32557D01*
X36558Y-32547D01*
X36557Y-32534D01*
X36556Y-32520D01*
X36555Y-32502D01*
X36555Y-32480D01*
X36556Y-32455D01*
X36556Y-32424D01*
X36558Y-32388D01*
X36558Y-32383D01*
X36560Y-32311D01*
X36763Y-32311D01*
X36811Y-32311D01*
X36852Y-32311D01*
X36889Y-32310D01*
X36920Y-32310D01*
X36948Y-32309D01*
X36971Y-32308D01*
X36991Y-32307D01*
X37009Y-32306D01*
X37024Y-32304D01*
X37037Y-32302D01*
X37050Y-32300D01*
X37061Y-32297D01*
X37072Y-32294D01*
X37074Y-32293D01*
X37076Y-32293D01*
X37076Y-32293D01*
X37076Y-32293D01*
G37*
G36*
X37080Y-34589D02*
X37080Y-34632D01*
X37080Y-34674D01*
X36893Y-34675D01*
X36848Y-34676D01*
X36808Y-34676D01*
X36774Y-34677D01*
X36745Y-34678D01*
X36722Y-34678D01*
X36705Y-34679D01*
X36694Y-34680D01*
X36690Y-34681D01*
X36669Y-34688D01*
X36652Y-34700D01*
X36638Y-34715D01*
X36629Y-34733D01*
X36626Y-34747D01*
X36627Y-34768D01*
X36634Y-34790D01*
X36645Y-34814D01*
X36660Y-34838D01*
X36680Y-34861D01*
X36702Y-34884D01*
X36728Y-34905D01*
X36756Y-34924D01*
X36758Y-34925D01*
X36777Y-34936D01*
X36928Y-34936D01*
X37080Y-34936D01*
X37080Y-34979D01*
X37080Y-35021D01*
X36820Y-35021D01*
X36560Y-35021D01*
X36560Y-34979D01*
X36560Y-34936D01*
X36616Y-34936D01*
X36671Y-34936D01*
X36661Y-34927D01*
X36643Y-34914D01*
X36630Y-34903D01*
X36619Y-34893D01*
X36610Y-34883D01*
X36600Y-34873D01*
X36600Y-34872D01*
X36579Y-34843D01*
X36563Y-34812D01*
X36552Y-34781D01*
X36547Y-34750D01*
X36548Y-34720D01*
X36555Y-34691D01*
X36568Y-34663D01*
X36572Y-34657D01*
X36585Y-34638D01*
X36601Y-34624D01*
X36619Y-34612D01*
X36640Y-34604D01*
X36665Y-34597D01*
X36695Y-34593D01*
X36700Y-34593D01*
X36710Y-34592D01*
X36725Y-34592D01*
X36745Y-34591D01*
X36770Y-34590D01*
X36797Y-34590D01*
X36828Y-34590D01*
X36860Y-34590D01*
X36893Y-34590D01*
X36907Y-34590D01*
X37080Y-34589D01*
X37080Y-34589D01*
X37080Y-34589D01*
G37*
G36*
X36562Y-33392D02*
X36565Y-33392D01*
X36574Y-33394D01*
X36589Y-33396D01*
X36608Y-33399D01*
X36632Y-33403D01*
X36659Y-33407D01*
X36690Y-33412D01*
X36724Y-33418D01*
X36761Y-33424D01*
X36800Y-33430D01*
X36822Y-33433D01*
X37080Y-33475D01*
X37079Y-33516D01*
X37078Y-33556D01*
X36911Y-33606D01*
X36878Y-33616D01*
X36847Y-33625D01*
X36817Y-33634D01*
X36788Y-33642D01*
X36763Y-33649D01*
X36742Y-33655D01*
X36724Y-33659D01*
X36712Y-33663D01*
X36709Y-33663D01*
X36695Y-33666D01*
X36683Y-33669D01*
X36676Y-33671D01*
X36673Y-33672D01*
X36676Y-33674D01*
X36684Y-33676D01*
X36695Y-33678D01*
X36709Y-33681D01*
X36718Y-33683D01*
X36734Y-33687D01*
X36754Y-33691D01*
X36777Y-33697D01*
X36805Y-33704D01*
X36834Y-33711D01*
X36866Y-33719D01*
X36898Y-33728D01*
X36912Y-33731D01*
X37080Y-33774D01*
X37080Y-33816D01*
X37080Y-33833D01*
X37079Y-33845D01*
X37079Y-33852D01*
X37078Y-33857D01*
X37076Y-33859D01*
X37073Y-33860D01*
X37073Y-33860D01*
X37068Y-33860D01*
X37058Y-33862D01*
X37043Y-33865D01*
X37023Y-33868D01*
X36999Y-33872D01*
X36971Y-33876D01*
X36940Y-33882D01*
X36906Y-33887D01*
X36870Y-33893D01*
X36831Y-33899D01*
X36821Y-33901D01*
X36783Y-33907D01*
X36746Y-33913D01*
X36711Y-33919D01*
X36679Y-33924D01*
X36650Y-33929D01*
X36624Y-33933D01*
X36603Y-33936D01*
X36586Y-33939D01*
X36575Y-33941D01*
X36569Y-33942D01*
X36568Y-33942D01*
X36560Y-33944D01*
X36560Y-33904D01*
X36560Y-33886D01*
X36560Y-33874D01*
X36562Y-33866D01*
X36563Y-33863D01*
X36564Y-33863D01*
X36567Y-33862D01*
X36577Y-33861D01*
X36591Y-33858D01*
X36610Y-33855D01*
X36633Y-33852D01*
X36658Y-33848D01*
X36687Y-33843D01*
X36717Y-33838D01*
X36720Y-33838D01*
X36768Y-33830D01*
X36811Y-33824D01*
X36847Y-33818D01*
X36877Y-33813D01*
X36901Y-33809D01*
X36920Y-33806D01*
X36933Y-33803D01*
X36941Y-33801D01*
X36943Y-33801D01*
X36941Y-33800D01*
X36933Y-33798D01*
X36922Y-33796D01*
X36912Y-33794D01*
X36902Y-33792D01*
X36888Y-33789D01*
X36868Y-33784D01*
X36845Y-33779D01*
X36818Y-33772D01*
X36789Y-33765D01*
X36759Y-33757D01*
X36727Y-33749D01*
X36720Y-33747D01*
X36561Y-33705D01*
X36561Y-33666D01*
X36561Y-33627D01*
X36714Y-33582D01*
X36745Y-33573D01*
X36776Y-33564D01*
X36806Y-33555D01*
X36833Y-33547D01*
X36858Y-33541D01*
X36879Y-33535D01*
X36895Y-33531D01*
X36906Y-33528D01*
X36906Y-33528D01*
X36923Y-33524D01*
X36933Y-33521D01*
X36939Y-33519D01*
X36939Y-33517D01*
X36938Y-33517D01*
X36933Y-33516D01*
X36922Y-33514D01*
X36907Y-33512D01*
X36889Y-33509D01*
X36869Y-33506D01*
X36856Y-33504D01*
X36834Y-33500D01*
X36807Y-33496D01*
X36777Y-33491D01*
X36745Y-33486D01*
X36713Y-33481D01*
X36682Y-33477D01*
X36673Y-33475D01*
X36648Y-33471D01*
X36624Y-33467D01*
X36604Y-33464D01*
X36586Y-33462D01*
X36573Y-33460D01*
X36565Y-33458D01*
X36562Y-33458D01*
X36561Y-33455D01*
X36560Y-33448D01*
X36560Y-33437D01*
X36560Y-33425D01*
X36560Y-33412D01*
X36560Y-33402D01*
X36561Y-33394D01*
X36562Y-33392D01*
X36562Y-33392D01*
X36562Y-33392D01*
G37*
M02*
