G04 (created by PCBNEW (22-Jun-2014 BZR 4027)-stable) date Thu 31 Jul 2014 05:41:25 PM UTC*
%MOIN*%
G04 Gerber Fmt 3.4, Leading zero omitted, Abs format*
%FSLAX34Y34*%
G01*
G70*
G90*
G04 APERTURE LIST*
%ADD10C,0.00590551*%
%ADD11R,0.025X0.045*%
%ADD12R,0.06X0.06*%
%ADD13C,0.06*%
%ADD14C,0.0453*%
%ADD15R,0.0453X0.0453*%
%ADD16R,0.045X0.025*%
%ADD17R,0.0275591X0.0590551*%
%ADD18R,0.0393701X0.0590551*%
G04 APERTURE END LIST*
G54D10*
G54D11*
X30368Y-33513D03*
X29768Y-33513D03*
X31737Y-29281D03*
X32337Y-29281D03*
X31737Y-30364D03*
X32337Y-30364D03*
G54D12*
X32620Y-40994D03*
G54D13*
X33620Y-40994D03*
G54D12*
X29990Y-40939D03*
G54D13*
X28990Y-40939D03*
X27990Y-40939D03*
X26990Y-40939D03*
X25990Y-40939D03*
X24990Y-40939D03*
G54D12*
X24990Y-23939D03*
G54D13*
X25990Y-23939D03*
X26990Y-23939D03*
X27990Y-23939D03*
X28990Y-23939D03*
X29990Y-23939D03*
G54D14*
X32037Y-28100D03*
X28888Y-28100D03*
X29675Y-28100D03*
X30463Y-28100D03*
X31250Y-28100D03*
X28100Y-28100D03*
X27313Y-28100D03*
X26525Y-28100D03*
G54D15*
X24951Y-28100D03*
G54D14*
X25738Y-28100D03*
X32037Y-36761D03*
X28888Y-36761D03*
X29675Y-36761D03*
X30463Y-36761D03*
X31250Y-36761D03*
X28100Y-36761D03*
X27313Y-36761D03*
X26525Y-36761D03*
G54D15*
X24951Y-36761D03*
G54D14*
X25738Y-36761D03*
G54D16*
X29478Y-30172D03*
X29478Y-29572D03*
X29478Y-31845D03*
X29478Y-31245D03*
G54D11*
X28498Y-33513D03*
X27898Y-33513D03*
X27701Y-30167D03*
X28301Y-30167D03*
X27701Y-31840D03*
X28301Y-31840D03*
G54D17*
X32706Y-32431D03*
X31958Y-32431D03*
X32706Y-34005D03*
G54D18*
X31958Y-34005D03*
M02*
