G04 (created by PCBNEW (22-Jun-2014 BZR 4027)-stable) date Thu 31 Jul 2014 05:41:25 PM UTC*
%MOIN*%
G04 Gerber Fmt 3.4, Leading zero omitted, Abs format*
%FSLAX34Y34*%
G01*
G70*
G90*
G04 APERTURE LIST*
%ADD10C,0.00590551*%
%ADD11C,0.011811*%
%ADD12C,0.00787402*%
%ADD13C,0.023622*%
G04 APERTURE END LIST*
G54D10*
G54D11*
X34029Y-26020D02*
X34057Y-26105D01*
X34057Y-26245D01*
X34029Y-26302D01*
X34001Y-26330D01*
X33945Y-26358D01*
X33889Y-26358D01*
X33832Y-26330D01*
X33804Y-26302D01*
X33776Y-26245D01*
X33748Y-26133D01*
X33720Y-26077D01*
X33692Y-26048D01*
X33636Y-26020D01*
X33579Y-26020D01*
X33523Y-26048D01*
X33495Y-26077D01*
X33467Y-26133D01*
X33467Y-26273D01*
X33495Y-26358D01*
X33467Y-26723D02*
X33467Y-26836D01*
X33495Y-26892D01*
X33551Y-26948D01*
X33664Y-26976D01*
X33861Y-26976D01*
X33973Y-26948D01*
X34029Y-26892D01*
X34057Y-26836D01*
X34057Y-26723D01*
X34029Y-26667D01*
X33973Y-26611D01*
X33861Y-26583D01*
X33664Y-26583D01*
X33551Y-26611D01*
X33495Y-26667D01*
X33467Y-26723D01*
X34057Y-27230D02*
X33467Y-27230D01*
X34057Y-27792D02*
X34057Y-27511D01*
X33467Y-27511D01*
X34057Y-28439D02*
X33467Y-28439D01*
X33889Y-28636D01*
X33467Y-28832D01*
X34057Y-28832D01*
X33467Y-29226D02*
X33467Y-29339D01*
X33495Y-29395D01*
X33551Y-29451D01*
X33664Y-29479D01*
X33861Y-29479D01*
X33973Y-29451D01*
X34029Y-29395D01*
X34057Y-29339D01*
X34057Y-29226D01*
X34029Y-29170D01*
X33973Y-29114D01*
X33861Y-29086D01*
X33664Y-29086D01*
X33551Y-29114D01*
X33495Y-29170D01*
X33467Y-29226D01*
X34057Y-29732D02*
X33467Y-29732D01*
X34029Y-29985D02*
X34057Y-30070D01*
X34057Y-30210D01*
X34029Y-30267D01*
X34001Y-30295D01*
X33945Y-30323D01*
X33889Y-30323D01*
X33832Y-30295D01*
X33804Y-30267D01*
X33776Y-30210D01*
X33748Y-30098D01*
X33720Y-30042D01*
X33692Y-30014D01*
X33636Y-29985D01*
X33579Y-29985D01*
X33523Y-30014D01*
X33495Y-30042D01*
X33467Y-30098D01*
X33467Y-30239D01*
X33495Y-30323D01*
X33467Y-30492D02*
X33467Y-30829D01*
X34057Y-30660D02*
X33467Y-30660D01*
X33467Y-31026D02*
X33945Y-31026D01*
X34001Y-31054D01*
X34029Y-31082D01*
X34057Y-31138D01*
X34057Y-31251D01*
X34029Y-31307D01*
X34001Y-31335D01*
X33945Y-31363D01*
X33467Y-31363D01*
X34057Y-31982D02*
X33776Y-31785D01*
X34057Y-31645D02*
X33467Y-31645D01*
X33467Y-31870D01*
X33495Y-31926D01*
X33523Y-31954D01*
X33579Y-31982D01*
X33664Y-31982D01*
X33720Y-31954D01*
X33748Y-31926D01*
X33776Y-31870D01*
X33776Y-31645D01*
X33748Y-32235D02*
X33748Y-32432D01*
X34057Y-32516D02*
X34057Y-32235D01*
X33467Y-32235D01*
X33467Y-32516D01*
X34029Y-33191D02*
X34057Y-33276D01*
X34057Y-33416D01*
X34029Y-33473D01*
X34001Y-33501D01*
X33945Y-33529D01*
X33889Y-33529D01*
X33832Y-33501D01*
X33804Y-33473D01*
X33776Y-33416D01*
X33748Y-33304D01*
X33720Y-33248D01*
X33692Y-33219D01*
X33636Y-33191D01*
X33579Y-33191D01*
X33523Y-33219D01*
X33495Y-33248D01*
X33467Y-33304D01*
X33467Y-33444D01*
X33495Y-33529D01*
X33748Y-33782D02*
X33748Y-33979D01*
X34057Y-34063D02*
X34057Y-33782D01*
X33467Y-33782D01*
X33467Y-34063D01*
X34057Y-34316D02*
X33467Y-34316D01*
X34057Y-34654D01*
X33467Y-34654D01*
X34029Y-34907D02*
X34057Y-34991D01*
X34057Y-35132D01*
X34029Y-35188D01*
X34001Y-35216D01*
X33945Y-35244D01*
X33889Y-35244D01*
X33832Y-35216D01*
X33804Y-35188D01*
X33776Y-35132D01*
X33748Y-35019D01*
X33720Y-34963D01*
X33692Y-34935D01*
X33636Y-34907D01*
X33579Y-34907D01*
X33523Y-34935D01*
X33495Y-34963D01*
X33467Y-35019D01*
X33467Y-35160D01*
X33495Y-35244D01*
X33467Y-35610D02*
X33467Y-35722D01*
X33495Y-35778D01*
X33551Y-35835D01*
X33664Y-35863D01*
X33861Y-35863D01*
X33973Y-35835D01*
X34029Y-35778D01*
X34057Y-35722D01*
X34057Y-35610D01*
X34029Y-35553D01*
X33973Y-35497D01*
X33861Y-35469D01*
X33664Y-35469D01*
X33551Y-35497D01*
X33495Y-35553D01*
X33467Y-35610D01*
X34057Y-36453D02*
X33776Y-36257D01*
X34057Y-36116D02*
X33467Y-36116D01*
X33467Y-36341D01*
X33495Y-36397D01*
X33523Y-36425D01*
X33579Y-36453D01*
X33664Y-36453D01*
X33720Y-36425D01*
X33748Y-36397D01*
X33776Y-36341D01*
X33776Y-36116D01*
X33664Y-37100D02*
X34057Y-37241D01*
X33664Y-37381D01*
X34057Y-37916D02*
X34057Y-37578D01*
X34057Y-37747D02*
X33467Y-37747D01*
X33551Y-37691D01*
X33607Y-37634D01*
X33636Y-37578D01*
G54D12*
X44192Y-28543D02*
X44192Y-36318D01*
G54D13*
X43475Y-30094D02*
X43550Y-30319D01*
X43550Y-30694D01*
X43475Y-30844D01*
X43400Y-30919D01*
X43250Y-30994D01*
X43100Y-30994D01*
X42950Y-30919D01*
X42875Y-30844D01*
X42800Y-30694D01*
X42725Y-30394D01*
X42650Y-30244D01*
X42575Y-30169D01*
X42425Y-30094D01*
X42275Y-30094D01*
X42125Y-30169D01*
X42050Y-30244D01*
X41976Y-30394D01*
X41976Y-30769D01*
X42050Y-30994D01*
X41976Y-31969D02*
X41976Y-32269D01*
X42050Y-32419D01*
X42200Y-32569D01*
X42500Y-32644D01*
X43025Y-32644D01*
X43325Y-32569D01*
X43475Y-32419D01*
X43550Y-32269D01*
X43550Y-31969D01*
X43475Y-31819D01*
X43325Y-31669D01*
X43025Y-31594D01*
X42500Y-31594D01*
X42200Y-31669D01*
X42050Y-31819D01*
X41976Y-31969D01*
X43550Y-33319D02*
X41976Y-33319D01*
X43550Y-34819D02*
X43550Y-34069D01*
X41976Y-34069D01*
M02*
