G04 (created by PCBNEW-RS274X (2012-apr-16-27)-stable) date Sun 15 Dec 2013 09:24:04 PM EET*
G01*
G70*
G90*
%MOIN*%
G04 Gerber Fmt 3.4, Leading zero omitted, Abs format*
%FSLAX34Y34*%
G04 APERTURE LIST*
%ADD10C,0.006000*%
%ADD11C,0.015000*%
%ADD12R,0.060000X0.060000*%
%ADD13C,0.060000*%
%ADD14C,0.008000*%
%ADD15C,0.032000*%
G04 APERTURE END LIST*
G54D10*
G54D11*
X24500Y-12400D02*
X24500Y-30700D01*
X30700Y-12400D02*
X24500Y-12400D01*
X30700Y-30700D02*
X30700Y-12400D01*
X24500Y-30700D02*
X30700Y-30700D01*
G54D12*
X30100Y-14900D03*
G54D13*
X29100Y-14900D03*
X28100Y-14900D03*
X27100Y-14900D03*
X26100Y-14900D03*
X25100Y-14900D03*
G54D12*
X30100Y-16900D03*
G54D13*
X29100Y-16900D03*
X28100Y-16900D03*
X27100Y-16900D03*
X26100Y-16900D03*
X25100Y-16900D03*
G54D12*
X30100Y-18800D03*
G54D13*
X29100Y-18800D03*
X28100Y-18800D03*
X27100Y-18800D03*
X26100Y-18800D03*
X25100Y-18800D03*
G54D12*
X30100Y-20600D03*
G54D13*
X29100Y-20600D03*
X28100Y-20600D03*
X27100Y-20600D03*
X26100Y-20600D03*
X25100Y-20600D03*
G54D12*
X30100Y-22500D03*
G54D13*
X29100Y-22500D03*
X28100Y-22500D03*
X27100Y-22500D03*
X26100Y-22500D03*
X25100Y-22500D03*
G54D12*
X30100Y-24400D03*
G54D13*
X29100Y-24400D03*
X28100Y-24400D03*
X27100Y-24400D03*
X26100Y-24400D03*
X25100Y-24400D03*
G54D12*
X30100Y-26300D03*
G54D13*
X29100Y-26300D03*
X28100Y-26300D03*
X27100Y-26300D03*
X26100Y-26300D03*
X25100Y-26300D03*
G54D12*
X30100Y-28200D03*
G54D13*
X29100Y-28200D03*
X28100Y-28200D03*
X27100Y-28200D03*
X26100Y-28200D03*
X25100Y-28200D03*
G54D12*
X25100Y-13100D03*
G54D13*
X26100Y-13100D03*
X27100Y-13100D03*
X28100Y-13100D03*
X29100Y-13100D03*
X30100Y-13100D03*
G54D12*
X30100Y-30100D03*
G54D13*
X29100Y-30100D03*
X28100Y-30100D03*
X27100Y-30100D03*
X26100Y-30100D03*
X25100Y-30100D03*
G54D14*
X29500Y-12600D02*
X29600Y-12700D01*
X27600Y-12600D02*
X29500Y-12600D01*
X27100Y-13100D02*
X27600Y-12600D01*
X30100Y-14000D02*
X30100Y-14900D01*
X29600Y-13500D02*
X30100Y-14000D01*
X29600Y-12700D02*
X29600Y-13500D01*
X30100Y-16100D02*
X30100Y-16900D01*
X28100Y-13100D02*
X29000Y-14000D01*
X29600Y-15600D02*
X30100Y-16100D01*
X29600Y-14200D02*
X29600Y-15600D01*
X29000Y-14000D02*
X29400Y-14000D01*
X29400Y-14000D02*
X29600Y-14200D01*
X30100Y-13100D02*
X30600Y-13600D01*
X30600Y-20100D02*
X30100Y-20600D01*
X30600Y-13600D02*
X30600Y-20100D01*
X25100Y-30100D02*
X25100Y-30300D01*
X30100Y-23100D02*
X30100Y-22500D01*
X30600Y-28900D02*
X30600Y-23600D01*
X30400Y-29100D02*
X30600Y-28900D01*
X30600Y-23600D02*
X30100Y-23100D01*
X30100Y-29100D02*
X30400Y-29100D01*
X29600Y-29600D02*
X30100Y-29100D01*
X29600Y-30400D02*
X29600Y-29600D01*
X25100Y-30300D02*
X25400Y-30600D01*
X29400Y-30600D02*
X29600Y-30400D01*
X25400Y-30600D02*
X29400Y-30600D01*
X26100Y-30100D02*
X27300Y-28900D01*
X30100Y-25300D02*
X30100Y-24400D01*
X29600Y-25800D02*
X30100Y-25300D01*
X29600Y-26700D02*
X29600Y-25800D01*
X28600Y-27700D02*
X29600Y-26700D01*
X28600Y-28600D02*
X28600Y-27700D01*
X28300Y-28900D02*
X28600Y-28600D01*
X27300Y-28900D02*
X28300Y-28900D01*
X30100Y-27100D02*
X30100Y-26300D01*
X29600Y-27600D02*
X30100Y-27100D01*
X27100Y-30100D02*
X28000Y-29200D01*
X28000Y-29200D02*
X29200Y-29200D01*
X29600Y-28800D02*
X29600Y-27600D01*
X29200Y-29200D02*
X29600Y-28800D01*
X28100Y-30100D02*
X28100Y-29900D01*
X30100Y-28700D02*
X30100Y-28200D01*
X29300Y-29500D02*
X30100Y-28700D01*
X28500Y-29500D02*
X29300Y-29500D01*
X28100Y-29900D02*
X28500Y-29500D01*
G54D15*
X26100Y-14300D02*
X26100Y-14900D01*
X29100Y-14800D02*
X28300Y-14000D01*
X25100Y-14900D02*
X26100Y-14900D01*
X26400Y-14000D02*
X26100Y-14300D01*
X29100Y-14900D02*
X29100Y-14800D01*
X28300Y-14000D02*
X26400Y-14000D01*
X25100Y-16900D02*
X26100Y-16900D01*
X29100Y-16900D02*
X29100Y-16500D01*
X26100Y-16400D02*
X26100Y-16900D01*
X26400Y-16100D02*
X26100Y-16400D01*
X28700Y-16100D02*
X26400Y-16100D01*
X29100Y-16500D02*
X28700Y-16100D01*
X29100Y-18800D02*
X29100Y-18500D01*
X26100Y-18800D02*
X25100Y-18800D01*
X26100Y-18400D02*
X26100Y-18800D01*
X26500Y-18000D02*
X26100Y-18400D01*
X29100Y-18500D02*
X28600Y-18000D01*
X28600Y-18000D02*
X26500Y-18000D01*
X26100Y-20600D02*
X25100Y-20600D01*
X29100Y-20600D02*
X29100Y-20100D01*
X26100Y-20200D02*
X26100Y-20600D01*
X26500Y-19800D02*
X26100Y-20200D01*
X28800Y-19800D02*
X26500Y-19800D01*
X29100Y-20100D02*
X28800Y-19800D01*
X26100Y-22500D02*
X25100Y-22500D01*
X29100Y-22500D02*
X29100Y-22100D01*
X26100Y-22000D02*
X26100Y-22500D01*
X26400Y-21700D02*
X26100Y-22000D01*
X28700Y-21700D02*
X26400Y-21700D01*
X29100Y-22100D02*
X28700Y-21700D01*
X26100Y-24400D02*
X25100Y-24400D01*
X29100Y-24400D02*
X29100Y-23800D01*
X29100Y-23800D02*
X28900Y-23600D01*
X26100Y-23800D02*
X26100Y-24400D01*
X28900Y-23600D02*
X26300Y-23600D01*
X26300Y-23600D02*
X26100Y-23800D01*
X29100Y-26300D02*
X29100Y-25900D01*
X26100Y-25800D02*
X26100Y-26300D01*
X26400Y-25500D02*
X26100Y-25800D01*
X28700Y-25500D02*
X26400Y-25500D01*
X29100Y-25900D02*
X28700Y-25500D01*
X25100Y-26300D02*
X26100Y-26300D01*
X25100Y-28200D02*
X26100Y-28200D01*
M02*
