M48
;DRILL file {Pcbnew (2012-apr-16-27)-stable} date Sun 15 Dec 2013 09:24:19 PM EET
;FORMAT={-:-/ absolute / metric / decimal}
FMAT,2
METRIC,TZ
T1C1.016
%
G90
G05
M71
T1
X63.754Y-33.274
X63.754Y-37.846
X63.754Y-42.926
X63.754Y-47.752
X63.754Y-52.324
X63.754Y-57.150
X63.754Y-61.976
X63.754Y-66.802
X63.754Y-71.628
X63.754Y-76.454
X66.294Y-33.274
X66.294Y-37.846
X66.294Y-42.926
X66.294Y-47.752
X66.294Y-52.324
X66.294Y-57.150
X66.294Y-61.976
X66.294Y-66.802
X66.294Y-71.628
X66.294Y-76.454
X68.834Y-33.274
X68.834Y-37.846
X68.834Y-42.926
X68.834Y-47.752
X68.834Y-52.324
X68.834Y-57.150
X68.834Y-61.976
X68.834Y-66.802
X68.834Y-71.628
X68.834Y-76.454
X71.374Y-33.274
X71.374Y-37.846
X71.374Y-42.926
X71.374Y-47.752
X71.374Y-52.324
X71.374Y-57.150
X71.374Y-61.976
X71.374Y-66.802
X71.374Y-71.628
X71.374Y-76.454
X73.914Y-33.274
X73.914Y-37.846
X73.914Y-42.926
X73.914Y-47.752
X73.914Y-52.324
X73.914Y-57.150
X73.914Y-61.976
X73.914Y-66.802
X73.914Y-71.628
X73.914Y-76.454
X76.454Y-33.274
X76.454Y-37.846
X76.454Y-42.926
X76.454Y-47.752
X76.454Y-52.324
X76.454Y-57.150
X76.454Y-61.976
X76.454Y-66.802
X76.454Y-71.628
X76.454Y-76.454
T0
M30
