G04 (created by PCBNEW-RS274X (2012-apr-16-27)-stable) date Sun 15 Dec 2013 09:24:04 PM EET*
G01*
G70*
G90*
%MOIN*%
G04 Gerber Fmt 3.4, Leading zero omitted, Abs format*
%FSLAX34Y34*%
G04 APERTURE LIST*
%ADD10C,0.006000*%
%ADD11C,0.007500*%
%ADD12C,0.015000*%
%ADD13C,0.000100*%
G04 APERTURE END LIST*
G54D10*
G54D11*
X29244Y-14162D02*
X29244Y-13762D01*
X29129Y-13762D01*
X29101Y-13781D01*
X29086Y-13800D01*
X29072Y-13838D01*
X29072Y-13895D01*
X29086Y-13933D01*
X29101Y-13952D01*
X29129Y-13971D01*
X29244Y-13971D01*
X28972Y-13762D02*
X28901Y-14162D01*
X28844Y-13876D01*
X28786Y-14162D01*
X28715Y-13762D01*
X28601Y-14162D02*
X28601Y-13762D01*
X28501Y-14048D01*
X28401Y-13762D01*
X28401Y-14162D01*
X27929Y-13952D02*
X27886Y-13971D01*
X27871Y-13990D01*
X27857Y-14029D01*
X27857Y-14086D01*
X27871Y-14124D01*
X27886Y-14143D01*
X27914Y-14162D01*
X28029Y-14162D01*
X28029Y-13762D01*
X27929Y-13762D01*
X27900Y-13781D01*
X27886Y-13800D01*
X27871Y-13838D01*
X27871Y-13876D01*
X27886Y-13914D01*
X27900Y-13933D01*
X27929Y-13952D01*
X28029Y-13952D01*
X27671Y-13762D02*
X27614Y-13762D01*
X27586Y-13781D01*
X27557Y-13819D01*
X27543Y-13895D01*
X27543Y-14029D01*
X27557Y-14105D01*
X27586Y-14143D01*
X27614Y-14162D01*
X27671Y-14162D01*
X27700Y-14143D01*
X27729Y-14105D01*
X27743Y-14029D01*
X27743Y-13895D01*
X27729Y-13819D01*
X27700Y-13781D01*
X27671Y-13762D01*
X27429Y-14048D02*
X27286Y-14048D01*
X27457Y-14162D02*
X27357Y-13762D01*
X27257Y-14162D01*
X26986Y-14162D02*
X27086Y-13971D01*
X27158Y-14162D02*
X27158Y-13762D01*
X27043Y-13762D01*
X27015Y-13781D01*
X27000Y-13800D01*
X26986Y-13838D01*
X26986Y-13895D01*
X27000Y-13933D01*
X27015Y-13952D01*
X27043Y-13971D01*
X27158Y-13971D01*
X26858Y-14162D02*
X26858Y-13762D01*
X26786Y-13762D01*
X26743Y-13781D01*
X26715Y-13819D01*
X26700Y-13857D01*
X26686Y-13933D01*
X26686Y-13990D01*
X26700Y-14067D01*
X26715Y-14105D01*
X26743Y-14143D01*
X26786Y-14162D01*
X26858Y-14162D01*
X26357Y-13895D02*
X26286Y-14162D01*
X26214Y-13895D01*
X25942Y-14162D02*
X26114Y-14162D01*
X26028Y-14162D02*
X26028Y-13762D01*
X26057Y-13819D01*
X26085Y-13857D01*
X26114Y-13876D01*
G54D12*
X24500Y-12400D02*
X24500Y-30700D01*
X30700Y-12400D02*
X24500Y-12400D01*
X30700Y-30700D02*
X30700Y-12400D01*
X24500Y-30700D02*
X30700Y-30700D01*
G54D13*
G36*
X27178Y-19188D02*
X27171Y-19186D01*
X27159Y-19182D01*
X27142Y-19176D01*
X27123Y-19167D01*
X27101Y-19157D01*
X27076Y-19145D01*
X27051Y-19132D01*
X27025Y-19119D01*
X26998Y-19105D01*
X26973Y-19091D01*
X26949Y-19078D01*
X26931Y-19067D01*
X26907Y-19053D01*
X26883Y-19038D01*
X26859Y-19022D01*
X26835Y-19006D01*
X26814Y-18991D01*
X26794Y-18977D01*
X26778Y-18965D01*
X26765Y-18955D01*
X26758Y-18948D01*
X26751Y-18937D01*
X26750Y-18925D01*
X26752Y-18916D01*
X26757Y-18909D01*
X26764Y-18903D01*
X26772Y-18899D01*
X26781Y-18899D01*
X26791Y-18902D01*
X26805Y-18910D01*
X26820Y-18921D01*
X26874Y-18959D01*
X26932Y-18997D01*
X26993Y-19033D01*
X27056Y-19067D01*
X27119Y-19098D01*
X27146Y-19111D01*
X27163Y-19118D01*
X27177Y-19125D01*
X27189Y-19131D01*
X27198Y-19136D01*
X27200Y-19138D01*
X27207Y-19148D01*
X27209Y-19159D01*
X27207Y-19170D01*
X27200Y-19180D01*
X27189Y-19186D01*
X27178Y-19188D01*
X27178Y-19188D01*
X27178Y-19188D01*
G37*
G36*
X27137Y-19319D02*
X27130Y-19318D01*
X27124Y-19317D01*
X27114Y-19314D01*
X27099Y-19309D01*
X27080Y-19304D01*
X27058Y-19297D01*
X27033Y-19289D01*
X27006Y-19281D01*
X26979Y-19273D01*
X26951Y-19265D01*
X26923Y-19256D01*
X26897Y-19248D01*
X26872Y-19240D01*
X26849Y-19233D01*
X26830Y-19227D01*
X26815Y-19223D01*
X26804Y-19219D01*
X26799Y-19217D01*
X26786Y-19211D01*
X26778Y-19201D01*
X26776Y-19189D01*
X26776Y-19187D01*
X26778Y-19175D01*
X26783Y-19167D01*
X26793Y-19161D01*
X26803Y-19159D01*
X26808Y-19160D01*
X26818Y-19163D01*
X26833Y-19167D01*
X26851Y-19172D01*
X26873Y-19179D01*
X26898Y-19186D01*
X26925Y-19194D01*
X26952Y-19202D01*
X26981Y-19210D01*
X27009Y-19219D01*
X27036Y-19227D01*
X27062Y-19235D01*
X27086Y-19242D01*
X27106Y-19249D01*
X27123Y-19255D01*
X27136Y-19259D01*
X27144Y-19262D01*
X27145Y-19262D01*
X27156Y-19270D01*
X27162Y-19280D01*
X27163Y-19292D01*
X27160Y-19303D01*
X27151Y-19313D01*
X27145Y-19317D01*
X27137Y-19319D01*
X27137Y-19319D01*
X27137Y-19319D01*
G37*
G36*
X27112Y-19457D02*
X27103Y-19456D01*
X27090Y-19455D01*
X27073Y-19454D01*
X27051Y-19452D01*
X27025Y-19449D01*
X26999Y-19446D01*
X26971Y-19443D01*
X26945Y-19441D01*
X26922Y-19438D01*
X26901Y-19436D01*
X26884Y-19434D01*
X26872Y-19433D01*
X26865Y-19432D01*
X26864Y-19432D01*
X26855Y-19428D01*
X26846Y-19422D01*
X26845Y-19421D01*
X26837Y-19410D01*
X26836Y-19399D01*
X26841Y-19387D01*
X26844Y-19383D01*
X26847Y-19380D01*
X26850Y-19378D01*
X26853Y-19376D01*
X26858Y-19374D01*
X26864Y-19374D01*
X26872Y-19374D01*
X26884Y-19374D01*
X26898Y-19375D01*
X26917Y-19377D01*
X26940Y-19379D01*
X26969Y-19382D01*
X27002Y-19385D01*
X27009Y-19386D01*
X27043Y-19390D01*
X27071Y-19393D01*
X27094Y-19396D01*
X27112Y-19398D01*
X27125Y-19400D01*
X27133Y-19402D01*
X27137Y-19404D01*
X27137Y-19404D01*
X27146Y-19413D01*
X27150Y-19424D01*
X27149Y-19436D01*
X27143Y-19446D01*
X27135Y-19453D01*
X27132Y-19455D01*
X27129Y-19456D01*
X27125Y-19456D01*
X27120Y-19457D01*
X27112Y-19457D01*
X27112Y-19457D01*
X27112Y-19457D01*
G37*
G36*
X26923Y-19644D02*
X26919Y-19643D01*
X26908Y-19638D01*
X26900Y-19630D01*
X26896Y-19618D01*
X26896Y-19607D01*
X26900Y-19598D01*
X26908Y-19591D01*
X26922Y-19582D01*
X26940Y-19573D01*
X26962Y-19565D01*
X26987Y-19558D01*
X26990Y-19557D01*
X27009Y-19552D01*
X27031Y-19548D01*
X27056Y-19544D01*
X27080Y-19541D01*
X27103Y-19539D01*
X27121Y-19538D01*
X27125Y-19538D01*
X27138Y-19538D01*
X27147Y-19539D01*
X27152Y-19540D01*
X27157Y-19544D01*
X27160Y-19547D01*
X27168Y-19558D01*
X27170Y-19570D01*
X27165Y-19583D01*
X27162Y-19587D01*
X27159Y-19591D01*
X27154Y-19593D01*
X27148Y-19595D01*
X27138Y-19596D01*
X27123Y-19598D01*
X27122Y-19598D01*
X27078Y-19602D01*
X27040Y-19608D01*
X27007Y-19615D01*
X26978Y-19624D01*
X26953Y-19634D01*
X26940Y-19640D01*
X26930Y-19643D01*
X26923Y-19644D01*
X26923Y-19644D01*
X26923Y-19644D01*
G37*
G36*
X28768Y-20902D02*
X28765Y-20902D01*
X28763Y-20899D01*
X28762Y-20893D01*
X28761Y-20883D01*
X28760Y-20872D01*
X28758Y-20841D01*
X28755Y-20813D01*
X28751Y-20787D01*
X28746Y-20761D01*
X28740Y-20734D01*
X28732Y-20704D01*
X28723Y-20670D01*
X28717Y-20650D01*
X28704Y-20612D01*
X28689Y-20571D01*
X28672Y-20529D01*
X28653Y-20488D01*
X28633Y-20448D01*
X28613Y-20411D01*
X28593Y-20377D01*
X28574Y-20348D01*
X28572Y-20346D01*
X28566Y-20339D01*
X28555Y-20329D01*
X28541Y-20318D01*
X28523Y-20305D01*
X28504Y-20291D01*
X28485Y-20278D01*
X28474Y-20270D01*
X28621Y-20270D01*
X28633Y-20240D01*
X28642Y-20214D01*
X28652Y-20183D01*
X28662Y-20150D01*
X28672Y-20116D01*
X28680Y-20082D01*
X28687Y-20051D01*
X28693Y-20023D01*
X28694Y-20015D01*
X28696Y-19996D01*
X28698Y-19973D01*
X28699Y-19949D01*
X28699Y-19923D01*
X28699Y-19899D01*
X28698Y-19876D01*
X28696Y-19858D01*
X28694Y-19847D01*
X28688Y-19825D01*
X28679Y-19804D01*
X28669Y-19785D01*
X28657Y-19771D01*
X28642Y-19759D01*
X28620Y-19751D01*
X28602Y-19747D01*
X28589Y-19745D01*
X28580Y-19763D01*
X28576Y-19771D01*
X28574Y-19778D01*
X28573Y-19785D01*
X28572Y-19794D01*
X28573Y-19807D01*
X28573Y-19816D01*
X28575Y-19834D01*
X28577Y-19854D01*
X28579Y-19871D01*
X28580Y-19879D01*
X28582Y-19892D01*
X28583Y-19902D01*
X28584Y-19908D01*
X28583Y-19909D01*
X28582Y-19908D01*
X28582Y-19907D01*
X28579Y-19903D01*
X28572Y-19899D01*
X28564Y-19895D01*
X28557Y-19894D01*
X28557Y-19894D01*
X28548Y-19897D01*
X28540Y-19904D01*
X28532Y-19914D01*
X28529Y-19921D01*
X28526Y-19936D01*
X28526Y-19955D01*
X28528Y-19975D01*
X28533Y-19994D01*
X28535Y-19999D01*
X28541Y-20010D01*
X28547Y-20017D01*
X28554Y-20021D01*
X28555Y-20021D01*
X28566Y-20024D01*
X28577Y-20021D01*
X28586Y-20013D01*
X28589Y-20010D01*
X28597Y-19999D01*
X28597Y-20024D01*
X28598Y-20038D01*
X28599Y-20056D01*
X28600Y-20079D01*
X28603Y-20105D01*
X28605Y-20132D01*
X28608Y-20160D01*
X28610Y-20187D01*
X28613Y-20212D01*
X28616Y-20235D01*
X28619Y-20254D01*
X28619Y-20255D01*
X28621Y-20270D01*
X28474Y-20270D01*
X28465Y-20264D01*
X28447Y-20252D01*
X28430Y-20242D01*
X28416Y-20235D01*
X28416Y-20235D01*
X28380Y-20217D01*
X28344Y-20202D01*
X28308Y-20187D01*
X28271Y-20174D01*
X28232Y-20162D01*
X28191Y-20151D01*
X28146Y-20140D01*
X28098Y-20130D01*
X28045Y-20120D01*
X27988Y-20110D01*
X27937Y-20102D01*
X27895Y-20095D01*
X27859Y-20089D01*
X27827Y-20083D01*
X27800Y-20077D01*
X27774Y-20072D01*
X27751Y-20066D01*
X27730Y-20059D01*
X27708Y-20052D01*
X27687Y-20044D01*
X27677Y-20040D01*
X27629Y-20020D01*
X27585Y-20000D01*
X27545Y-19979D01*
X27509Y-19957D01*
X27474Y-19932D01*
X27441Y-19905D01*
X27407Y-19874D01*
X27377Y-19844D01*
X27339Y-19802D01*
X27307Y-19761D01*
X27279Y-19719D01*
X27255Y-19675D01*
X27241Y-19646D01*
X27230Y-19621D01*
X27222Y-19599D01*
X27215Y-19578D01*
X27210Y-19558D01*
X27206Y-19536D01*
X27203Y-19511D01*
X27200Y-19482D01*
X27197Y-19438D01*
X27195Y-19400D01*
X27196Y-19366D01*
X27199Y-19339D01*
X27200Y-19336D01*
X27203Y-19317D01*
X27208Y-19297D01*
X27213Y-19277D01*
X27218Y-19258D01*
X27224Y-19242D01*
X27228Y-19229D01*
X27231Y-19224D01*
X27238Y-19215D01*
X27247Y-19204D01*
X27253Y-19197D01*
X27268Y-19183D01*
X27301Y-19182D01*
X27353Y-19182D01*
X27408Y-19187D01*
X27466Y-19195D01*
X27526Y-19206D01*
X27587Y-19221D01*
X27647Y-19239D01*
X27707Y-19259D01*
X27765Y-19282D01*
X27782Y-19290D01*
X27800Y-19298D01*
X27825Y-19257D01*
X27834Y-19243D01*
X27841Y-19231D01*
X27847Y-19221D01*
X27850Y-19216D01*
X27850Y-19215D01*
X27848Y-19213D01*
X27841Y-19208D01*
X27829Y-19201D01*
X27814Y-19192D01*
X27797Y-19181D01*
X27777Y-19169D01*
X27766Y-19162D01*
X27745Y-19149D01*
X27725Y-19137D01*
X27707Y-19125D01*
X27692Y-19115D01*
X27680Y-19107D01*
X27673Y-19102D01*
X27672Y-19101D01*
X27663Y-19090D01*
X27661Y-19078D01*
X27666Y-19067D01*
X27670Y-19061D01*
X27675Y-19057D01*
X27679Y-19053D01*
X27684Y-19052D01*
X27690Y-19052D01*
X27698Y-19053D01*
X27707Y-19057D01*
X27720Y-19064D01*
X27736Y-19073D01*
X27756Y-19085D01*
X27781Y-19100D01*
X27793Y-19107D01*
X27814Y-19120D01*
X27834Y-19132D01*
X27851Y-19143D01*
X27865Y-19151D01*
X27876Y-19157D01*
X27882Y-19161D01*
X27883Y-19162D01*
X27888Y-19155D01*
X27896Y-19145D01*
X27906Y-19133D01*
X27917Y-19121D01*
X27927Y-19110D01*
X27933Y-19104D01*
X27942Y-19095D01*
X27950Y-19088D01*
X27954Y-19083D01*
X27954Y-19082D01*
X27953Y-19079D01*
X27948Y-19072D01*
X27941Y-19060D01*
X27931Y-19045D01*
X27919Y-19027D01*
X27906Y-19007D01*
X27893Y-18987D01*
X27876Y-18961D01*
X27861Y-18939D01*
X27850Y-18921D01*
X27842Y-18907D01*
X27836Y-18896D01*
X27833Y-18887D01*
X27831Y-18881D01*
X27832Y-18875D01*
X27834Y-18871D01*
X27838Y-18866D01*
X27841Y-18863D01*
X27852Y-18855D01*
X27864Y-18854D01*
X27876Y-18859D01*
X27876Y-18859D01*
X27880Y-18863D01*
X27887Y-18872D01*
X27896Y-18884D01*
X27907Y-18900D01*
X27920Y-18918D01*
X27934Y-18939D01*
X27946Y-18956D01*
X28006Y-19048D01*
X28049Y-19024D01*
X28064Y-19015D01*
X28077Y-19008D01*
X28087Y-19002D01*
X28093Y-18999D01*
X28094Y-18998D01*
X28094Y-18995D01*
X28093Y-18986D01*
X28092Y-18972D01*
X28090Y-18953D01*
X28087Y-18931D01*
X28084Y-18905D01*
X28081Y-18876D01*
X28077Y-18846D01*
X28074Y-18830D01*
X28070Y-18798D01*
X28066Y-18767D01*
X28063Y-18739D01*
X28059Y-18714D01*
X28057Y-18692D01*
X28055Y-18674D01*
X28053Y-18661D01*
X28052Y-18653D01*
X28052Y-18652D01*
X28055Y-18639D01*
X28063Y-18630D01*
X28075Y-18625D01*
X28077Y-18625D01*
X28091Y-18625D01*
X28102Y-18631D01*
X28108Y-18642D01*
X28109Y-18646D01*
X28111Y-18656D01*
X28113Y-18670D01*
X28116Y-18689D01*
X28119Y-18711D01*
X28123Y-18735D01*
X28126Y-18762D01*
X28130Y-18789D01*
X28134Y-18817D01*
X28138Y-18844D01*
X28141Y-18871D01*
X28145Y-18895D01*
X28147Y-18917D01*
X28150Y-18936D01*
X28152Y-18950D01*
X28153Y-18960D01*
X28153Y-18964D01*
X28153Y-18966D01*
X28154Y-18967D01*
X28157Y-18966D01*
X28163Y-18965D01*
X28173Y-18961D01*
X28187Y-18956D01*
X28196Y-18953D01*
X28227Y-18942D01*
X28298Y-18614D01*
X28308Y-18569D01*
X28317Y-18526D01*
X28326Y-18485D01*
X28335Y-18446D01*
X28343Y-18411D01*
X28350Y-18379D01*
X28356Y-18350D01*
X28362Y-18325D01*
X28366Y-18305D01*
X28370Y-18290D01*
X28372Y-18281D01*
X28374Y-18277D01*
X28381Y-18267D01*
X28391Y-18262D01*
X28399Y-18261D01*
X28412Y-18264D01*
X28421Y-18272D01*
X28426Y-18283D01*
X28427Y-18291D01*
X28427Y-18296D01*
X28425Y-18306D01*
X28422Y-18322D01*
X28417Y-18343D01*
X28412Y-18368D01*
X28406Y-18397D01*
X28399Y-18430D01*
X28392Y-18466D01*
X28384Y-18504D01*
X28375Y-18545D01*
X28366Y-18587D01*
X28360Y-18614D01*
X28351Y-18657D01*
X28342Y-18699D01*
X28333Y-18738D01*
X28325Y-18775D01*
X28318Y-18808D01*
X28312Y-18838D01*
X28306Y-18865D01*
X28301Y-18887D01*
X28297Y-18905D01*
X28295Y-18917D01*
X28293Y-18924D01*
X28293Y-18925D01*
X28296Y-18925D01*
X28305Y-18924D01*
X28316Y-18923D01*
X28331Y-18921D01*
X28331Y-18921D01*
X28347Y-18918D01*
X28358Y-18916D01*
X28365Y-18914D01*
X28369Y-18912D01*
X28371Y-18909D01*
X28373Y-18904D01*
X28376Y-18895D01*
X28382Y-18881D01*
X28388Y-18863D01*
X28396Y-18843D01*
X28405Y-18820D01*
X28411Y-18805D01*
X28433Y-18747D01*
X28458Y-18685D01*
X28484Y-18619D01*
X28511Y-18550D01*
X28540Y-18479D01*
X28569Y-18407D01*
X28598Y-18335D01*
X28627Y-18264D01*
X28655Y-18195D01*
X28659Y-18187D01*
X28673Y-18152D01*
X28688Y-18117D01*
X28702Y-18082D01*
X28716Y-18049D01*
X28728Y-18019D01*
X28740Y-17991D01*
X28750Y-17967D01*
X28758Y-17947D01*
X28764Y-17932D01*
X28765Y-17930D01*
X28773Y-17911D01*
X28780Y-17894D01*
X28787Y-17879D01*
X28792Y-17868D01*
X28796Y-17862D01*
X28796Y-17861D01*
X28806Y-17854D01*
X28817Y-17852D01*
X28829Y-17854D01*
X28839Y-17860D01*
X28846Y-17869D01*
X28846Y-17870D01*
X28847Y-17874D01*
X28848Y-17878D01*
X28848Y-17882D01*
X28846Y-17887D01*
X28844Y-17895D01*
X28840Y-17905D01*
X28835Y-17919D01*
X28827Y-17937D01*
X28818Y-17960D01*
X28815Y-17968D01*
X28782Y-18047D01*
X28750Y-18124D01*
X28719Y-18199D01*
X28689Y-18272D01*
X28660Y-18343D01*
X28633Y-18411D01*
X28606Y-18476D01*
X28581Y-18539D01*
X28558Y-18597D01*
X28536Y-18653D01*
X28515Y-18704D01*
X28496Y-18752D01*
X28480Y-18795D01*
X28465Y-18834D01*
X28452Y-18868D01*
X28441Y-18897D01*
X28432Y-18921D01*
X28426Y-18940D01*
X28422Y-18951D01*
X28416Y-18972D01*
X28407Y-18998D01*
X28397Y-19028D01*
X28386Y-19059D01*
X28373Y-19092D01*
X28361Y-19126D01*
X28348Y-19158D01*
X28336Y-19188D01*
X28324Y-19216D01*
X28324Y-19216D01*
X28308Y-19253D01*
X28289Y-19291D01*
X28270Y-19330D01*
X28250Y-19369D01*
X28229Y-19406D01*
X28209Y-19442D01*
X28190Y-19475D01*
X28171Y-19504D01*
X28154Y-19528D01*
X28144Y-19541D01*
X28130Y-19560D01*
X28155Y-19592D01*
X28167Y-19608D01*
X28177Y-19620D01*
X28184Y-19629D01*
X28190Y-19635D01*
X28195Y-19639D01*
X28200Y-19643D01*
X28204Y-19645D01*
X28216Y-19650D01*
X28229Y-19655D01*
X28245Y-19659D01*
X28263Y-19663D01*
X28285Y-19666D01*
X28310Y-19669D01*
X28340Y-19671D01*
X28374Y-19674D01*
X28414Y-19676D01*
X28459Y-19678D01*
X28460Y-19678D01*
X28499Y-19680D01*
X28531Y-19681D01*
X28559Y-19683D01*
X28582Y-19685D01*
X28601Y-19687D01*
X28617Y-19689D01*
X28631Y-19692D01*
X28643Y-19694D01*
X28653Y-19698D01*
X28654Y-19698D01*
X28680Y-19711D01*
X28702Y-19730D01*
X28721Y-19753D01*
X28736Y-19782D01*
X28748Y-19815D01*
X28756Y-19853D01*
X28758Y-19870D01*
X28760Y-19893D01*
X28761Y-19920D01*
X28760Y-19950D01*
X28758Y-19980D01*
X28756Y-20009D01*
X28753Y-20026D01*
X28749Y-20053D01*
X28742Y-20084D01*
X28734Y-20117D01*
X28725Y-20152D01*
X28715Y-20187D01*
X28705Y-20219D01*
X28695Y-20248D01*
X28690Y-20260D01*
X28685Y-20273D01*
X28681Y-20284D01*
X28678Y-20292D01*
X28677Y-20295D01*
X28678Y-20299D01*
X28681Y-20309D01*
X28685Y-20321D01*
X28691Y-20336D01*
X28693Y-20340D01*
X28709Y-20379D01*
X28722Y-20419D01*
X28734Y-20459D01*
X28744Y-20500D01*
X28753Y-20544D01*
X28760Y-20591D01*
X28766Y-20642D01*
X28770Y-20697D01*
X28773Y-20757D01*
X28775Y-20784D01*
X28776Y-20815D01*
X28776Y-20840D01*
X28777Y-20860D01*
X28776Y-20875D01*
X28776Y-20887D01*
X28775Y-20894D01*
X28773Y-20899D01*
X28771Y-20902D01*
X28768Y-20902D01*
X28768Y-20902D01*
X28768Y-20902D01*
G37*
G36*
X27211Y-20735D02*
X27211Y-20691D01*
X27211Y-20647D01*
X27312Y-20647D01*
X27413Y-20647D01*
X27489Y-20647D01*
X27602Y-20647D01*
X27716Y-20647D01*
X27746Y-20627D01*
X27776Y-20605D01*
X27801Y-20583D01*
X27823Y-20559D01*
X27840Y-20536D01*
X27853Y-20513D01*
X27860Y-20490D01*
X27862Y-20469D01*
X27862Y-20466D01*
X27857Y-20445D01*
X27847Y-20427D01*
X27831Y-20411D01*
X27811Y-20398D01*
X27786Y-20388D01*
X27758Y-20381D01*
X27725Y-20377D01*
X27693Y-20377D01*
X27655Y-20380D01*
X27621Y-20387D01*
X27592Y-20397D01*
X27565Y-20412D01*
X27541Y-20430D01*
X27530Y-20440D01*
X27512Y-20460D01*
X27498Y-20480D01*
X27489Y-20500D01*
X27483Y-20517D01*
X27481Y-20532D01*
X27479Y-20551D01*
X27479Y-20573D01*
X27480Y-20595D01*
X27483Y-20616D01*
X27484Y-20619D01*
X27489Y-20647D01*
X27413Y-20647D01*
X27411Y-20638D01*
X27410Y-20628D01*
X27409Y-20613D01*
X27408Y-20594D01*
X27407Y-20574D01*
X27407Y-20554D01*
X27407Y-20534D01*
X27408Y-20517D01*
X27409Y-20504D01*
X27409Y-20500D01*
X27419Y-20463D01*
X27435Y-20428D01*
X27456Y-20397D01*
X27482Y-20368D01*
X27514Y-20343D01*
X27552Y-20321D01*
X27556Y-20318D01*
X27591Y-20303D01*
X27627Y-20293D01*
X27667Y-20286D01*
X27710Y-20283D01*
X27721Y-20283D01*
X27752Y-20284D01*
X27779Y-20286D01*
X27802Y-20291D01*
X27824Y-20297D01*
X27846Y-20307D01*
X27849Y-20308D01*
X27865Y-20317D01*
X27878Y-20325D01*
X27890Y-20335D01*
X27899Y-20345D01*
X27918Y-20368D01*
X27932Y-20391D01*
X27940Y-20414D01*
X27944Y-20440D01*
X27944Y-20441D01*
X27944Y-20464D01*
X27941Y-20485D01*
X27935Y-20506D01*
X27925Y-20530D01*
X27921Y-20537D01*
X27900Y-20571D01*
X27873Y-20602D01*
X27845Y-20627D01*
X27819Y-20647D01*
X27875Y-20648D01*
X27931Y-20649D01*
X27932Y-20692D01*
X27933Y-20735D01*
X27572Y-20735D01*
X27211Y-20735D01*
X27211Y-20735D01*
X27211Y-20735D01*
G37*
G36*
X27516Y-24152D02*
X27471Y-24151D01*
X27427Y-24150D01*
X27416Y-24117D01*
X27407Y-24086D01*
X27400Y-24059D01*
X27396Y-24032D01*
X27393Y-24004D01*
X27392Y-23980D01*
X27392Y-23961D01*
X27392Y-23942D01*
X27392Y-23925D01*
X27393Y-23912D01*
X27394Y-23909D01*
X27401Y-23869D01*
X27413Y-23833D01*
X27429Y-23801D01*
X27450Y-23774D01*
X27475Y-23751D01*
X27505Y-23733D01*
X27506Y-23732D01*
X27529Y-23723D01*
X27552Y-23717D01*
X27578Y-23714D01*
X27595Y-23714D01*
X27628Y-23716D01*
X27658Y-23724D01*
X27687Y-23737D01*
X27714Y-23757D01*
X27725Y-23767D01*
X27734Y-23775D01*
X27742Y-23784D01*
X27750Y-23793D01*
X27758Y-23805D01*
X27768Y-23820D01*
X27780Y-23837D01*
X27793Y-23859D01*
X27809Y-23885D01*
X27813Y-23892D01*
X27833Y-23926D01*
X27851Y-23954D01*
X27867Y-23978D01*
X27881Y-23998D01*
X27894Y-24014D01*
X27906Y-24026D01*
X27918Y-24035D01*
X27930Y-24042D01*
X27942Y-24046D01*
X27955Y-24048D01*
X27969Y-24049D01*
X27973Y-24049D01*
X27995Y-24048D01*
X28013Y-24043D01*
X28029Y-24035D01*
X28044Y-24021D01*
X28061Y-24000D01*
X28074Y-23974D01*
X28081Y-23945D01*
X28083Y-23912D01*
X28082Y-23898D01*
X28077Y-23853D01*
X28068Y-23811D01*
X28062Y-23791D01*
X28058Y-23779D01*
X28056Y-23769D01*
X28055Y-23763D01*
X28055Y-23762D01*
X28058Y-23762D01*
X28067Y-23761D01*
X28079Y-23761D01*
X28094Y-23761D01*
X28131Y-23761D01*
X28134Y-23770D01*
X28140Y-23789D01*
X28146Y-23813D01*
X28150Y-23841D01*
X28153Y-23870D01*
X28154Y-23899D01*
X28154Y-23926D01*
X28153Y-23947D01*
X28149Y-23982D01*
X28142Y-24012D01*
X28132Y-24037D01*
X28120Y-24060D01*
X28103Y-24081D01*
X28094Y-24091D01*
X28070Y-24112D01*
X28043Y-24127D01*
X28013Y-24138D01*
X27981Y-24143D01*
X27962Y-24143D01*
X27929Y-24140D01*
X27898Y-24132D01*
X27868Y-24117D01*
X27840Y-24096D01*
X27830Y-24086D01*
X27819Y-24075D01*
X27810Y-24064D01*
X27800Y-24052D01*
X27790Y-24038D01*
X27779Y-24021D01*
X27766Y-24000D01*
X27751Y-23974D01*
X27750Y-23970D01*
X27729Y-23935D01*
X27710Y-23904D01*
X27692Y-23879D01*
X27676Y-23858D01*
X27661Y-23841D01*
X27646Y-23828D01*
X27632Y-23819D01*
X27617Y-23812D01*
X27601Y-23808D01*
X27590Y-23806D01*
X27566Y-23807D01*
X27543Y-23813D01*
X27521Y-23824D01*
X27502Y-23839D01*
X27500Y-23841D01*
X27489Y-23856D01*
X27479Y-23876D01*
X27471Y-23899D01*
X27465Y-23924D01*
X27463Y-23948D01*
X27463Y-23952D01*
X27465Y-23980D01*
X27469Y-24012D01*
X27477Y-24045D01*
X27487Y-24080D01*
X27499Y-24113D01*
X27503Y-24123D01*
X27516Y-24152D01*
X27516Y-24152D01*
X27516Y-24152D01*
G37*
G36*
X27639Y-21323D02*
X27595Y-21322D01*
X27552Y-21316D01*
X27545Y-21315D01*
X27530Y-21311D01*
X27515Y-21307D01*
X27502Y-21302D01*
X27501Y-21302D01*
X27474Y-21286D01*
X27450Y-21267D01*
X27429Y-21243D01*
X27420Y-21229D01*
X27633Y-21229D01*
X27658Y-21228D01*
X27682Y-21226D01*
X27703Y-21223D01*
X27713Y-21221D01*
X27744Y-21212D01*
X27771Y-21200D01*
X27794Y-21184D01*
X27813Y-21167D01*
X27834Y-21143D01*
X27849Y-21119D01*
X27859Y-21093D01*
X27865Y-21064D01*
X27865Y-21032D01*
X27865Y-21028D01*
X27864Y-21012D01*
X27862Y-20996D01*
X27860Y-20983D01*
X27859Y-20978D01*
X27855Y-20961D01*
X27741Y-20960D01*
X27628Y-20959D01*
X27598Y-20979D01*
X27579Y-20992D01*
X27559Y-21009D01*
X27540Y-21027D01*
X27523Y-21044D01*
X27509Y-21061D01*
X27507Y-21064D01*
X27493Y-21089D01*
X27484Y-21113D01*
X27482Y-21135D01*
X27485Y-21156D01*
X27491Y-21169D01*
X27506Y-21188D01*
X27526Y-21204D01*
X27551Y-21216D01*
X27571Y-21223D01*
X27588Y-21226D01*
X27609Y-21228D01*
X27633Y-21229D01*
X27420Y-21229D01*
X27413Y-21217D01*
X27410Y-21212D01*
X27406Y-21202D01*
X27404Y-21193D01*
X27401Y-21181D01*
X27399Y-21166D01*
X27399Y-21161D01*
X27398Y-21153D01*
X27399Y-21142D01*
X27400Y-21135D01*
X27407Y-21106D01*
X27419Y-21077D01*
X27435Y-21048D01*
X27455Y-21021D01*
X27478Y-20996D01*
X27502Y-20976D01*
X27507Y-20973D01*
X27516Y-20967D01*
X27523Y-20962D01*
X27526Y-20959D01*
X27526Y-20959D01*
X27523Y-20958D01*
X27515Y-20956D01*
X27504Y-20955D01*
X27501Y-20955D01*
X27487Y-20953D01*
X27469Y-20951D01*
X27452Y-20949D01*
X27445Y-20948D01*
X27412Y-20942D01*
X27412Y-20897D01*
X27412Y-20879D01*
X27413Y-20867D01*
X27413Y-20859D01*
X27414Y-20855D01*
X27416Y-20853D01*
X27418Y-20853D01*
X27418Y-20853D01*
X27429Y-20856D01*
X27441Y-20859D01*
X27453Y-20862D01*
X27466Y-20864D01*
X27481Y-20866D01*
X27498Y-20867D01*
X27518Y-20868D01*
X27541Y-20869D01*
X27568Y-20870D01*
X27598Y-20870D01*
X27634Y-20871D01*
X27675Y-20871D01*
X27721Y-20871D01*
X27729Y-20871D01*
X27932Y-20871D01*
X27934Y-20943D01*
X27935Y-20979D01*
X27936Y-21011D01*
X27937Y-21037D01*
X27937Y-21059D01*
X27936Y-21077D01*
X27936Y-21093D01*
X27934Y-21105D01*
X27932Y-21116D01*
X27930Y-21126D01*
X27930Y-21127D01*
X27922Y-21151D01*
X27912Y-21172D01*
X27900Y-21193D01*
X27889Y-21207D01*
X27864Y-21235D01*
X27834Y-21260D01*
X27800Y-21281D01*
X27763Y-21298D01*
X27723Y-21311D01*
X27682Y-21319D01*
X27639Y-21323D01*
X27639Y-21323D01*
X27639Y-21323D01*
G37*
G36*
X27695Y-21865D02*
X27651Y-21864D01*
X27640Y-21863D01*
X27598Y-21856D01*
X27559Y-21844D01*
X27523Y-21826D01*
X27491Y-21803D01*
X27467Y-21781D01*
X27442Y-21750D01*
X27423Y-21716D01*
X27410Y-21679D01*
X27401Y-21639D01*
X27399Y-21595D01*
X27400Y-21562D01*
X27406Y-21514D01*
X27418Y-21464D01*
X27419Y-21458D01*
X27427Y-21433D01*
X27469Y-21432D01*
X27486Y-21432D01*
X27497Y-21432D01*
X27505Y-21433D01*
X27508Y-21434D01*
X27509Y-21435D01*
X27509Y-21437D01*
X27505Y-21447D01*
X27501Y-21462D01*
X27496Y-21479D01*
X27491Y-21497D01*
X27486Y-21513D01*
X27483Y-21527D01*
X27481Y-21535D01*
X27480Y-21551D01*
X27479Y-21571D01*
X27479Y-21592D01*
X27480Y-21614D01*
X27482Y-21633D01*
X27485Y-21649D01*
X27487Y-21656D01*
X27500Y-21683D01*
X27518Y-21707D01*
X27540Y-21727D01*
X27569Y-21744D01*
X27578Y-21749D01*
X27603Y-21759D01*
X27626Y-21766D01*
X27650Y-21769D01*
X27676Y-21770D01*
X27713Y-21768D01*
X27747Y-21760D01*
X27778Y-21748D01*
X27805Y-21732D01*
X27829Y-21712D01*
X27847Y-21688D01*
X27862Y-21660D01*
X27868Y-21641D01*
X27871Y-21624D01*
X27872Y-21603D01*
X27872Y-21580D01*
X27871Y-21557D01*
X27868Y-21537D01*
X27868Y-21537D01*
X27864Y-21524D01*
X27860Y-21507D01*
X27854Y-21489D01*
X27850Y-21478D01*
X27845Y-21463D01*
X27840Y-21451D01*
X27837Y-21442D01*
X27836Y-21437D01*
X27835Y-21435D01*
X27837Y-21434D01*
X27842Y-21432D01*
X27850Y-21432D01*
X27862Y-21432D01*
X27875Y-21432D01*
X27916Y-21432D01*
X27923Y-21455D01*
X27932Y-21492D01*
X27939Y-21529D01*
X27943Y-21565D01*
X27945Y-21600D01*
X27944Y-21632D01*
X27941Y-21655D01*
X27930Y-21692D01*
X27916Y-21726D01*
X27895Y-21757D01*
X27876Y-21779D01*
X27845Y-21808D01*
X27812Y-21830D01*
X27775Y-21847D01*
X27736Y-21859D01*
X27695Y-21865D01*
X27695Y-21865D01*
X27695Y-21865D01*
G37*
G36*
X27671Y-23040D02*
X27650Y-23040D01*
X27633Y-23040D01*
X27621Y-23039D01*
X27610Y-23038D01*
X27599Y-23035D01*
X27587Y-23033D01*
X27586Y-23032D01*
X27547Y-23019D01*
X27512Y-23001D01*
X27481Y-22979D01*
X27454Y-22953D01*
X27449Y-22948D01*
X27448Y-22946D01*
X27672Y-22946D01*
X27694Y-22946D01*
X27710Y-22946D01*
X27723Y-22945D01*
X27733Y-22944D01*
X27743Y-22942D01*
X27752Y-22939D01*
X27754Y-22939D01*
X27787Y-22927D01*
X27814Y-22911D01*
X27837Y-22892D01*
X27854Y-22869D01*
X27861Y-22857D01*
X27866Y-22846D01*
X27869Y-22835D01*
X27871Y-22824D01*
X27872Y-22809D01*
X27872Y-22806D01*
X27871Y-22776D01*
X27866Y-22750D01*
X27855Y-22726D01*
X27840Y-22706D01*
X27828Y-22695D01*
X27805Y-22678D01*
X27778Y-22664D01*
X27746Y-22655D01*
X27711Y-22649D01*
X27674Y-22647D01*
X27639Y-22648D01*
X27601Y-22654D01*
X27568Y-22664D01*
X27539Y-22678D01*
X27515Y-22695D01*
X27496Y-22716D01*
X27483Y-22739D01*
X27474Y-22762D01*
X27470Y-22786D01*
X27471Y-22812D01*
X27472Y-22822D01*
X27480Y-22850D01*
X27493Y-22874D01*
X27511Y-22896D01*
X27535Y-22914D01*
X27551Y-22924D01*
X27568Y-22931D01*
X27583Y-22937D01*
X27597Y-22941D01*
X27613Y-22944D01*
X27631Y-22945D01*
X27654Y-22946D01*
X27672Y-22946D01*
X27448Y-22946D01*
X27431Y-22922D01*
X27416Y-22891D01*
X27405Y-22857D01*
X27399Y-22821D01*
X27398Y-22784D01*
X27400Y-22766D01*
X27407Y-22729D01*
X27419Y-22695D01*
X27437Y-22663D01*
X27460Y-22635D01*
X27487Y-22610D01*
X27519Y-22590D01*
X27554Y-22573D01*
X27593Y-22561D01*
X27601Y-22560D01*
X27614Y-22557D01*
X27626Y-22555D01*
X27639Y-22554D01*
X27655Y-22554D01*
X27674Y-22554D01*
X27683Y-22555D01*
X27707Y-22556D01*
X27727Y-22557D01*
X27744Y-22559D01*
X27759Y-22563D01*
X27775Y-22568D01*
X27794Y-22574D01*
X27795Y-22575D01*
X27823Y-22588D01*
X27850Y-22606D01*
X27875Y-22627D01*
X27898Y-22650D01*
X27914Y-22674D01*
X27927Y-22698D01*
X27935Y-22722D01*
X27941Y-22749D01*
X27944Y-22779D01*
X27944Y-22786D01*
X27944Y-22822D01*
X27940Y-22854D01*
X27932Y-22883D01*
X27921Y-22910D01*
X27912Y-22925D01*
X27890Y-22954D01*
X27863Y-22979D01*
X27833Y-23001D01*
X27798Y-23018D01*
X27761Y-23032D01*
X27754Y-23034D01*
X27742Y-23036D01*
X27731Y-23038D01*
X27719Y-23039D01*
X27705Y-23040D01*
X27687Y-23040D01*
X27671Y-23040D01*
X27671Y-23040D01*
X27671Y-23040D01*
G37*
G36*
X27932Y-22504D02*
X27924Y-22502D01*
X27919Y-22501D01*
X27909Y-22500D01*
X27894Y-22497D01*
X27874Y-22494D01*
X27849Y-22490D01*
X27821Y-22485D01*
X27790Y-22480D01*
X27755Y-22475D01*
X27719Y-22469D01*
X27681Y-22462D01*
X27671Y-22461D01*
X27632Y-22454D01*
X27595Y-22449D01*
X27561Y-22443D01*
X27529Y-22438D01*
X27500Y-22433D01*
X27475Y-22429D01*
X27453Y-22425D01*
X27437Y-22423D01*
X27426Y-22421D01*
X27420Y-22420D01*
X27419Y-22420D01*
X27417Y-22419D01*
X27415Y-22417D01*
X27413Y-22413D01*
X27413Y-22406D01*
X27412Y-22395D01*
X27412Y-22379D01*
X27412Y-22376D01*
X27412Y-22334D01*
X27580Y-22291D01*
X27613Y-22283D01*
X27645Y-22275D01*
X27675Y-22267D01*
X27704Y-22260D01*
X27729Y-22254D01*
X27751Y-22248D01*
X27768Y-22244D01*
X27780Y-22242D01*
X27783Y-22241D01*
X27798Y-22238D01*
X27809Y-22235D01*
X27816Y-22234D01*
X27819Y-22232D01*
X27816Y-22231D01*
X27808Y-22229D01*
X27797Y-22226D01*
X27783Y-22223D01*
X27774Y-22221D01*
X27758Y-22217D01*
X27739Y-22212D01*
X27715Y-22205D01*
X27688Y-22197D01*
X27659Y-22189D01*
X27628Y-22180D01*
X27595Y-22170D01*
X27581Y-22166D01*
X27414Y-22116D01*
X27413Y-22076D01*
X27412Y-22035D01*
X27670Y-21993D01*
X27709Y-21987D01*
X27747Y-21981D01*
X27783Y-21975D01*
X27815Y-21970D01*
X27845Y-21965D01*
X27871Y-21961D01*
X27893Y-21958D01*
X27910Y-21955D01*
X27922Y-21953D01*
X27929Y-21952D01*
X27930Y-21952D01*
X27931Y-21955D01*
X27932Y-21962D01*
X27932Y-21973D01*
X27932Y-21985D01*
X27932Y-21998D01*
X27932Y-22008D01*
X27931Y-22015D01*
X27930Y-22018D01*
X27926Y-22018D01*
X27917Y-22020D01*
X27903Y-22022D01*
X27885Y-22025D01*
X27864Y-22028D01*
X27840Y-22032D01*
X27819Y-22035D01*
X27789Y-22040D01*
X27757Y-22045D01*
X27725Y-22050D01*
X27694Y-22055D01*
X27666Y-22059D01*
X27643Y-22063D01*
X27636Y-22064D01*
X27615Y-22067D01*
X27595Y-22070D01*
X27578Y-22073D01*
X27565Y-22075D01*
X27557Y-22076D01*
X27554Y-22077D01*
X27553Y-22078D01*
X27556Y-22080D01*
X27564Y-22082D01*
X27578Y-22086D01*
X27586Y-22088D01*
X27597Y-22090D01*
X27613Y-22095D01*
X27634Y-22100D01*
X27658Y-22107D01*
X27685Y-22115D01*
X27715Y-22123D01*
X27746Y-22132D01*
X27777Y-22142D01*
X27778Y-22142D01*
X27931Y-22187D01*
X27931Y-22226D01*
X27931Y-22265D01*
X27772Y-22307D01*
X27740Y-22315D01*
X27709Y-22323D01*
X27680Y-22331D01*
X27652Y-22337D01*
X27628Y-22343D01*
X27608Y-22348D01*
X27592Y-22352D01*
X27582Y-22354D01*
X27580Y-22354D01*
X27567Y-22356D01*
X27557Y-22358D01*
X27550Y-22360D01*
X27549Y-22360D01*
X27552Y-22362D01*
X27561Y-22363D01*
X27575Y-22366D01*
X27595Y-22370D01*
X27620Y-22374D01*
X27652Y-22379D01*
X27689Y-22385D01*
X27732Y-22392D01*
X27772Y-22398D01*
X27802Y-22402D01*
X27831Y-22407D01*
X27857Y-22411D01*
X27880Y-22415D01*
X27899Y-22418D01*
X27914Y-22420D01*
X27924Y-22422D01*
X27928Y-22423D01*
X27928Y-22423D01*
X27930Y-22426D01*
X27931Y-22433D01*
X27932Y-22444D01*
X27932Y-22462D01*
X27932Y-22464D01*
X27932Y-22504D01*
X27932Y-22504D01*
X27932Y-22504D01*
G37*
G36*
X27412Y-23581D02*
X27412Y-23539D01*
X27412Y-23496D01*
X27564Y-23496D01*
X27715Y-23496D01*
X27734Y-23485D01*
X27762Y-23467D01*
X27788Y-23446D01*
X27810Y-23423D01*
X27830Y-23400D01*
X27846Y-23376D01*
X27857Y-23352D01*
X27864Y-23329D01*
X27866Y-23308D01*
X27866Y-23307D01*
X27861Y-23287D01*
X27850Y-23270D01*
X27835Y-23256D01*
X27817Y-23245D01*
X27802Y-23241D01*
X27794Y-23240D01*
X27781Y-23239D01*
X27762Y-23238D01*
X27737Y-23237D01*
X27706Y-23237D01*
X27669Y-23236D01*
X27627Y-23236D01*
X27599Y-23235D01*
X27412Y-23234D01*
X27412Y-23192D01*
X27412Y-23149D01*
X27585Y-23149D01*
X27631Y-23150D01*
X27672Y-23150D01*
X27707Y-23150D01*
X27738Y-23151D01*
X27764Y-23152D01*
X27786Y-23153D01*
X27805Y-23154D01*
X27821Y-23156D01*
X27835Y-23158D01*
X27846Y-23161D01*
X27856Y-23165D01*
X27866Y-23168D01*
X27873Y-23172D01*
X27894Y-23186D01*
X27912Y-23205D01*
X27927Y-23227D01*
X27937Y-23253D01*
X27944Y-23280D01*
X27945Y-23300D01*
X27942Y-23332D01*
X27933Y-23363D01*
X27918Y-23395D01*
X27898Y-23425D01*
X27892Y-23432D01*
X27883Y-23443D01*
X27873Y-23452D01*
X27863Y-23462D01*
X27849Y-23473D01*
X27832Y-23487D01*
X27831Y-23487D01*
X27821Y-23496D01*
X27876Y-23496D01*
X27932Y-23496D01*
X27932Y-23539D01*
X27932Y-23581D01*
X27672Y-23581D01*
X27412Y-23581D01*
X27412Y-23581D01*
X27412Y-23581D01*
G37*
M02*
