G04 (created by PCBNEW-RS274X (2012-apr-16-27)-stable) date Sun 15 Dec 2013 09:24:04 PM EET*
G01*
G70*
G90*
%MOIN*%
G04 Gerber Fmt 3.4, Leading zero omitted, Abs format*
%FSLAX34Y34*%
G04 APERTURE LIST*
%ADD10C,0.006000*%
%ADD11C,0.015000*%
%ADD12R,0.080000X0.080000*%
%ADD13C,0.080000*%
G04 APERTURE END LIST*
G54D10*
G54D11*
X24500Y-12400D02*
X24500Y-30700D01*
X30700Y-12400D02*
X24500Y-12400D01*
X30700Y-30700D02*
X30700Y-12400D01*
X24500Y-30700D02*
X30700Y-30700D01*
G54D12*
X30100Y-14900D03*
G54D13*
X29100Y-14900D03*
X28100Y-14900D03*
X27100Y-14900D03*
X26100Y-14900D03*
X25100Y-14900D03*
G54D12*
X30100Y-16900D03*
G54D13*
X29100Y-16900D03*
X28100Y-16900D03*
X27100Y-16900D03*
X26100Y-16900D03*
X25100Y-16900D03*
G54D12*
X30100Y-18800D03*
G54D13*
X29100Y-18800D03*
X28100Y-18800D03*
X27100Y-18800D03*
X26100Y-18800D03*
X25100Y-18800D03*
G54D12*
X30100Y-20600D03*
G54D13*
X29100Y-20600D03*
X28100Y-20600D03*
X27100Y-20600D03*
X26100Y-20600D03*
X25100Y-20600D03*
G54D12*
X30100Y-22500D03*
G54D13*
X29100Y-22500D03*
X28100Y-22500D03*
X27100Y-22500D03*
X26100Y-22500D03*
X25100Y-22500D03*
G54D12*
X30100Y-24400D03*
G54D13*
X29100Y-24400D03*
X28100Y-24400D03*
X27100Y-24400D03*
X26100Y-24400D03*
X25100Y-24400D03*
G54D12*
X30100Y-26300D03*
G54D13*
X29100Y-26300D03*
X28100Y-26300D03*
X27100Y-26300D03*
X26100Y-26300D03*
X25100Y-26300D03*
G54D12*
X30100Y-28200D03*
G54D13*
X29100Y-28200D03*
X28100Y-28200D03*
X27100Y-28200D03*
X26100Y-28200D03*
X25100Y-28200D03*
G54D12*
X25100Y-13100D03*
G54D13*
X26100Y-13100D03*
X27100Y-13100D03*
X28100Y-13100D03*
X29100Y-13100D03*
X30100Y-13100D03*
G54D12*
X30100Y-30100D03*
G54D13*
X29100Y-30100D03*
X28100Y-30100D03*
X27100Y-30100D03*
X26100Y-30100D03*
X25100Y-30100D03*
M02*
