G04 (created by PCBNEW-RS274X (2012-apr-16-27)-stable) date Sun 15 Dec 2013 09:24:04 PM EET*
G01*
G70*
G90*
%MOIN*%
G04 Gerber Fmt 3.4, Leading zero omitted, Abs format*
%FSLAX34Y34*%
G04 APERTURE LIST*
%ADD10C,0.006000*%
%ADD11C,0.007500*%
%ADD12C,0.015000*%
%ADD13C,0.012000*%
G04 APERTURE END LIST*
G54D10*
G54D11*
X25201Y-27162D02*
X25301Y-27562D01*
X25401Y-27162D01*
X25672Y-27524D02*
X25658Y-27543D01*
X25615Y-27562D01*
X25586Y-27562D01*
X25543Y-27543D01*
X25515Y-27505D01*
X25500Y-27467D01*
X25486Y-27390D01*
X25486Y-27333D01*
X25500Y-27257D01*
X25515Y-27219D01*
X25543Y-27181D01*
X25586Y-27162D01*
X25615Y-27162D01*
X25658Y-27181D01*
X25672Y-27200D01*
X25972Y-27524D02*
X25958Y-27543D01*
X25915Y-27562D01*
X25886Y-27562D01*
X25843Y-27543D01*
X25815Y-27505D01*
X25800Y-27467D01*
X25786Y-27390D01*
X25786Y-27333D01*
X25800Y-27257D01*
X25815Y-27219D01*
X25843Y-27181D01*
X25886Y-27162D01*
X25915Y-27162D01*
X25958Y-27181D01*
X25972Y-27200D01*
X25201Y-25162D02*
X25301Y-25562D01*
X25401Y-25162D01*
X25672Y-25524D02*
X25658Y-25543D01*
X25615Y-25562D01*
X25586Y-25562D01*
X25543Y-25543D01*
X25515Y-25505D01*
X25500Y-25467D01*
X25486Y-25390D01*
X25486Y-25333D01*
X25500Y-25257D01*
X25515Y-25219D01*
X25543Y-25181D01*
X25586Y-25162D01*
X25615Y-25162D01*
X25658Y-25181D01*
X25672Y-25200D01*
X25972Y-25524D02*
X25958Y-25543D01*
X25915Y-25562D01*
X25886Y-25562D01*
X25843Y-25543D01*
X25815Y-25505D01*
X25800Y-25467D01*
X25786Y-25390D01*
X25786Y-25333D01*
X25800Y-25257D01*
X25815Y-25219D01*
X25843Y-25181D01*
X25886Y-25162D01*
X25915Y-25162D01*
X25958Y-25181D01*
X25972Y-25200D01*
X25201Y-23262D02*
X25301Y-23662D01*
X25401Y-23262D01*
X25672Y-23624D02*
X25658Y-23643D01*
X25615Y-23662D01*
X25586Y-23662D01*
X25543Y-23643D01*
X25515Y-23605D01*
X25500Y-23567D01*
X25486Y-23490D01*
X25486Y-23433D01*
X25500Y-23357D01*
X25515Y-23319D01*
X25543Y-23281D01*
X25586Y-23262D01*
X25615Y-23262D01*
X25658Y-23281D01*
X25672Y-23300D01*
X25972Y-23624D02*
X25958Y-23643D01*
X25915Y-23662D01*
X25886Y-23662D01*
X25843Y-23643D01*
X25815Y-23605D01*
X25800Y-23567D01*
X25786Y-23490D01*
X25786Y-23433D01*
X25800Y-23357D01*
X25815Y-23319D01*
X25843Y-23281D01*
X25886Y-23262D01*
X25915Y-23262D01*
X25958Y-23281D01*
X25972Y-23300D01*
X25201Y-21362D02*
X25301Y-21762D01*
X25401Y-21362D01*
X25672Y-21724D02*
X25658Y-21743D01*
X25615Y-21762D01*
X25586Y-21762D01*
X25543Y-21743D01*
X25515Y-21705D01*
X25500Y-21667D01*
X25486Y-21590D01*
X25486Y-21533D01*
X25500Y-21457D01*
X25515Y-21419D01*
X25543Y-21381D01*
X25586Y-21362D01*
X25615Y-21362D01*
X25658Y-21381D01*
X25672Y-21400D01*
X25972Y-21724D02*
X25958Y-21743D01*
X25915Y-21762D01*
X25886Y-21762D01*
X25843Y-21743D01*
X25815Y-21705D01*
X25800Y-21667D01*
X25786Y-21590D01*
X25786Y-21533D01*
X25800Y-21457D01*
X25815Y-21419D01*
X25843Y-21381D01*
X25886Y-21362D01*
X25915Y-21362D01*
X25958Y-21381D01*
X25972Y-21400D01*
X25201Y-19562D02*
X25301Y-19962D01*
X25401Y-19562D01*
X25672Y-19924D02*
X25658Y-19943D01*
X25615Y-19962D01*
X25586Y-19962D01*
X25543Y-19943D01*
X25515Y-19905D01*
X25500Y-19867D01*
X25486Y-19790D01*
X25486Y-19733D01*
X25500Y-19657D01*
X25515Y-19619D01*
X25543Y-19581D01*
X25586Y-19562D01*
X25615Y-19562D01*
X25658Y-19581D01*
X25672Y-19600D01*
X25972Y-19924D02*
X25958Y-19943D01*
X25915Y-19962D01*
X25886Y-19962D01*
X25843Y-19943D01*
X25815Y-19905D01*
X25800Y-19867D01*
X25786Y-19790D01*
X25786Y-19733D01*
X25800Y-19657D01*
X25815Y-19619D01*
X25843Y-19581D01*
X25886Y-19562D01*
X25915Y-19562D01*
X25958Y-19581D01*
X25972Y-19600D01*
X25201Y-17762D02*
X25301Y-18162D01*
X25401Y-17762D01*
X25672Y-18124D02*
X25658Y-18143D01*
X25615Y-18162D01*
X25586Y-18162D01*
X25543Y-18143D01*
X25515Y-18105D01*
X25500Y-18067D01*
X25486Y-17990D01*
X25486Y-17933D01*
X25500Y-17857D01*
X25515Y-17819D01*
X25543Y-17781D01*
X25586Y-17762D01*
X25615Y-17762D01*
X25658Y-17781D01*
X25672Y-17800D01*
X25972Y-18124D02*
X25958Y-18143D01*
X25915Y-18162D01*
X25886Y-18162D01*
X25843Y-18143D01*
X25815Y-18105D01*
X25800Y-18067D01*
X25786Y-17990D01*
X25786Y-17933D01*
X25800Y-17857D01*
X25815Y-17819D01*
X25843Y-17781D01*
X25886Y-17762D01*
X25915Y-17762D01*
X25958Y-17781D01*
X25972Y-17800D01*
X25201Y-15862D02*
X25301Y-16262D01*
X25401Y-15862D01*
X25672Y-16224D02*
X25658Y-16243D01*
X25615Y-16262D01*
X25586Y-16262D01*
X25543Y-16243D01*
X25515Y-16205D01*
X25500Y-16167D01*
X25486Y-16090D01*
X25486Y-16033D01*
X25500Y-15957D01*
X25515Y-15919D01*
X25543Y-15881D01*
X25586Y-15862D01*
X25615Y-15862D01*
X25658Y-15881D01*
X25672Y-15900D01*
X25972Y-16224D02*
X25958Y-16243D01*
X25915Y-16262D01*
X25886Y-16262D01*
X25843Y-16243D01*
X25815Y-16205D01*
X25800Y-16167D01*
X25786Y-16090D01*
X25786Y-16033D01*
X25800Y-15957D01*
X25815Y-15919D01*
X25843Y-15881D01*
X25886Y-15862D01*
X25915Y-15862D01*
X25958Y-15881D01*
X25972Y-15900D01*
X25201Y-13862D02*
X25301Y-14262D01*
X25401Y-13862D01*
X25672Y-14224D02*
X25658Y-14243D01*
X25615Y-14262D01*
X25586Y-14262D01*
X25543Y-14243D01*
X25515Y-14205D01*
X25500Y-14167D01*
X25486Y-14090D01*
X25486Y-14033D01*
X25500Y-13957D01*
X25515Y-13919D01*
X25543Y-13881D01*
X25586Y-13862D01*
X25615Y-13862D01*
X25658Y-13881D01*
X25672Y-13900D01*
X25972Y-14224D02*
X25958Y-14243D01*
X25915Y-14262D01*
X25886Y-14262D01*
X25843Y-14243D01*
X25815Y-14205D01*
X25800Y-14167D01*
X25786Y-14090D01*
X25786Y-14033D01*
X25800Y-13957D01*
X25815Y-13919D01*
X25843Y-13881D01*
X25886Y-13862D01*
X25915Y-13862D01*
X25958Y-13881D01*
X25972Y-13900D01*
G54D12*
X27100Y-14900D02*
X27100Y-28200D01*
G54D11*
X29335Y-27462D02*
X29335Y-27062D01*
X29450Y-27062D01*
X29478Y-27081D01*
X29493Y-27100D01*
X29507Y-27138D01*
X29507Y-27195D01*
X29493Y-27233D01*
X29478Y-27252D01*
X29450Y-27271D01*
X29335Y-27271D01*
X29607Y-27062D02*
X29678Y-27462D01*
X29735Y-27176D01*
X29793Y-27462D01*
X29864Y-27062D01*
X29978Y-27462D02*
X29978Y-27062D01*
X30078Y-27348D01*
X30178Y-27062D01*
X30178Y-27462D01*
X30364Y-27233D02*
X30336Y-27214D01*
X30321Y-27195D01*
X30307Y-27157D01*
X30307Y-27138D01*
X30321Y-27100D01*
X30336Y-27081D01*
X30364Y-27062D01*
X30421Y-27062D01*
X30450Y-27081D01*
X30464Y-27100D01*
X30479Y-27138D01*
X30479Y-27157D01*
X30464Y-27195D01*
X30450Y-27214D01*
X30421Y-27233D01*
X30364Y-27233D01*
X30336Y-27252D01*
X30321Y-27271D01*
X30307Y-27310D01*
X30307Y-27386D01*
X30321Y-27424D01*
X30336Y-27443D01*
X30364Y-27462D01*
X30421Y-27462D01*
X30450Y-27443D01*
X30464Y-27424D01*
X30479Y-27386D01*
X30479Y-27310D01*
X30464Y-27271D01*
X30450Y-27252D01*
X30421Y-27233D01*
X29335Y-25562D02*
X29335Y-25162D01*
X29450Y-25162D01*
X29478Y-25181D01*
X29493Y-25200D01*
X29507Y-25238D01*
X29507Y-25295D01*
X29493Y-25333D01*
X29478Y-25352D01*
X29450Y-25371D01*
X29335Y-25371D01*
X29607Y-25162D02*
X29678Y-25562D01*
X29735Y-25276D01*
X29793Y-25562D01*
X29864Y-25162D01*
X29978Y-25562D02*
X29978Y-25162D01*
X30078Y-25448D01*
X30178Y-25162D01*
X30178Y-25562D01*
X30293Y-25162D02*
X30493Y-25162D01*
X30364Y-25562D01*
X29335Y-23662D02*
X29335Y-23262D01*
X29450Y-23262D01*
X29478Y-23281D01*
X29493Y-23300D01*
X29507Y-23338D01*
X29507Y-23395D01*
X29493Y-23433D01*
X29478Y-23452D01*
X29450Y-23471D01*
X29335Y-23471D01*
X29607Y-23262D02*
X29678Y-23662D01*
X29735Y-23376D01*
X29793Y-23662D01*
X29864Y-23262D01*
X29978Y-23662D02*
X29978Y-23262D01*
X30078Y-23548D01*
X30178Y-23262D01*
X30178Y-23662D01*
X30450Y-23262D02*
X30393Y-23262D01*
X30364Y-23281D01*
X30350Y-23300D01*
X30321Y-23357D01*
X30307Y-23433D01*
X30307Y-23586D01*
X30321Y-23624D01*
X30336Y-23643D01*
X30364Y-23662D01*
X30421Y-23662D01*
X30450Y-23643D01*
X30464Y-23624D01*
X30479Y-23586D01*
X30479Y-23490D01*
X30464Y-23452D01*
X30450Y-23433D01*
X30421Y-23414D01*
X30364Y-23414D01*
X30336Y-23433D01*
X30321Y-23452D01*
X30307Y-23490D01*
X29335Y-21762D02*
X29335Y-21362D01*
X29450Y-21362D01*
X29478Y-21381D01*
X29493Y-21400D01*
X29507Y-21438D01*
X29507Y-21495D01*
X29493Y-21533D01*
X29478Y-21552D01*
X29450Y-21571D01*
X29335Y-21571D01*
X29607Y-21362D02*
X29678Y-21762D01*
X29735Y-21476D01*
X29793Y-21762D01*
X29864Y-21362D01*
X29978Y-21762D02*
X29978Y-21362D01*
X30078Y-21648D01*
X30178Y-21362D01*
X30178Y-21762D01*
X30464Y-21362D02*
X30321Y-21362D01*
X30307Y-21552D01*
X30321Y-21533D01*
X30350Y-21514D01*
X30421Y-21514D01*
X30450Y-21533D01*
X30464Y-21552D01*
X30479Y-21590D01*
X30479Y-21686D01*
X30464Y-21724D01*
X30450Y-21743D01*
X30421Y-21762D01*
X30350Y-21762D01*
X30321Y-21743D01*
X30307Y-21724D01*
X29335Y-19862D02*
X29335Y-19462D01*
X29450Y-19462D01*
X29478Y-19481D01*
X29493Y-19500D01*
X29507Y-19538D01*
X29507Y-19595D01*
X29493Y-19633D01*
X29478Y-19652D01*
X29450Y-19671D01*
X29335Y-19671D01*
X29607Y-19462D02*
X29678Y-19862D01*
X29735Y-19576D01*
X29793Y-19862D01*
X29864Y-19462D01*
X29978Y-19862D02*
X29978Y-19462D01*
X30078Y-19748D01*
X30178Y-19462D01*
X30178Y-19862D01*
X30450Y-19595D02*
X30450Y-19862D01*
X30379Y-19443D02*
X30307Y-19729D01*
X30493Y-19729D01*
X29335Y-18062D02*
X29335Y-17662D01*
X29450Y-17662D01*
X29478Y-17681D01*
X29493Y-17700D01*
X29507Y-17738D01*
X29507Y-17795D01*
X29493Y-17833D01*
X29478Y-17852D01*
X29450Y-17871D01*
X29335Y-17871D01*
X29607Y-17662D02*
X29678Y-18062D01*
X29735Y-17776D01*
X29793Y-18062D01*
X29864Y-17662D01*
X29978Y-18062D02*
X29978Y-17662D01*
X30078Y-17948D01*
X30178Y-17662D01*
X30178Y-18062D01*
X30293Y-17662D02*
X30479Y-17662D01*
X30379Y-17814D01*
X30421Y-17814D01*
X30450Y-17833D01*
X30464Y-17852D01*
X30479Y-17890D01*
X30479Y-17986D01*
X30464Y-18024D01*
X30450Y-18043D01*
X30421Y-18062D01*
X30336Y-18062D01*
X30307Y-18043D01*
X30293Y-18024D01*
X29235Y-16162D02*
X29235Y-15762D01*
X29350Y-15762D01*
X29378Y-15781D01*
X29393Y-15800D01*
X29407Y-15838D01*
X29407Y-15895D01*
X29393Y-15933D01*
X29378Y-15952D01*
X29350Y-15971D01*
X29235Y-15971D01*
X29507Y-15762D02*
X29578Y-16162D01*
X29635Y-15876D01*
X29693Y-16162D01*
X29764Y-15762D01*
X29878Y-16162D02*
X29878Y-15762D01*
X29978Y-16048D01*
X30078Y-15762D01*
X30078Y-16162D01*
X30207Y-15800D02*
X30221Y-15781D01*
X30250Y-15762D01*
X30321Y-15762D01*
X30350Y-15781D01*
X30364Y-15800D01*
X30379Y-15838D01*
X30379Y-15876D01*
X30364Y-15933D01*
X30193Y-16162D01*
X30379Y-16162D01*
X29135Y-14162D02*
X29135Y-13762D01*
X29250Y-13762D01*
X29278Y-13781D01*
X29293Y-13800D01*
X29307Y-13838D01*
X29307Y-13895D01*
X29293Y-13933D01*
X29278Y-13952D01*
X29250Y-13971D01*
X29135Y-13971D01*
X29407Y-13762D02*
X29478Y-14162D01*
X29535Y-13876D01*
X29593Y-14162D01*
X29664Y-13762D01*
X29778Y-14162D02*
X29778Y-13762D01*
X29878Y-14048D01*
X29978Y-13762D01*
X29978Y-14162D01*
X30279Y-14162D02*
X30107Y-14162D01*
X30193Y-14162D02*
X30193Y-13762D01*
X30164Y-13819D01*
X30136Y-13857D01*
X30107Y-13876D01*
G54D12*
X24500Y-12400D02*
X24500Y-30700D01*
X30700Y-12400D02*
X24500Y-12400D01*
X30700Y-30700D02*
X30700Y-12400D01*
X24500Y-30700D02*
X30700Y-30700D01*
G54D13*
X30600Y-14400D02*
X30600Y-15400D01*
X30600Y-15400D02*
X24600Y-15400D01*
X24600Y-15400D02*
X24600Y-14400D01*
X24600Y-14400D02*
X30600Y-14400D01*
X29600Y-14400D02*
X29600Y-15400D01*
X30600Y-16400D02*
X30600Y-17400D01*
X30600Y-17400D02*
X24600Y-17400D01*
X24600Y-17400D02*
X24600Y-16400D01*
X24600Y-16400D02*
X30600Y-16400D01*
X29600Y-16400D02*
X29600Y-17400D01*
X30600Y-18300D02*
X30600Y-19300D01*
X30600Y-19300D02*
X24600Y-19300D01*
X24600Y-19300D02*
X24600Y-18300D01*
X24600Y-18300D02*
X30600Y-18300D01*
X29600Y-18300D02*
X29600Y-19300D01*
X30600Y-20100D02*
X30600Y-21100D01*
X30600Y-21100D02*
X24600Y-21100D01*
X24600Y-21100D02*
X24600Y-20100D01*
X24600Y-20100D02*
X30600Y-20100D01*
X29600Y-20100D02*
X29600Y-21100D01*
X30600Y-22000D02*
X30600Y-23000D01*
X30600Y-23000D02*
X24600Y-23000D01*
X24600Y-23000D02*
X24600Y-22000D01*
X24600Y-22000D02*
X30600Y-22000D01*
X29600Y-22000D02*
X29600Y-23000D01*
X30600Y-23900D02*
X30600Y-24900D01*
X30600Y-24900D02*
X24600Y-24900D01*
X24600Y-24900D02*
X24600Y-23900D01*
X24600Y-23900D02*
X30600Y-23900D01*
X29600Y-23900D02*
X29600Y-24900D01*
X30600Y-25800D02*
X30600Y-26800D01*
X30600Y-26800D02*
X24600Y-26800D01*
X24600Y-26800D02*
X24600Y-25800D01*
X24600Y-25800D02*
X30600Y-25800D01*
X29600Y-25800D02*
X29600Y-26800D01*
X30600Y-27700D02*
X30600Y-28700D01*
X30600Y-28700D02*
X24600Y-28700D01*
X24600Y-28700D02*
X24600Y-27700D01*
X24600Y-27700D02*
X30600Y-27700D01*
X29600Y-27700D02*
X29600Y-28700D01*
X24600Y-13600D02*
X24600Y-12600D01*
X24600Y-12600D02*
X30600Y-12600D01*
X30600Y-12600D02*
X30600Y-13600D01*
X30600Y-13600D02*
X24600Y-13600D01*
X25600Y-13600D02*
X25600Y-12600D01*
X30600Y-29600D02*
X30600Y-30600D01*
X30600Y-30600D02*
X24600Y-30600D01*
X24600Y-30600D02*
X24600Y-29600D01*
X24600Y-29600D02*
X30600Y-29600D01*
X29600Y-29600D02*
X29600Y-30600D01*
M02*
