G04 (created by PCBNEW-RS274X (2012-apr-16-27)-stable) date Sun 17 Nov 2013 10:41:53 AM EET*
G01*
G70*
G90*
%MOIN*%
G04 Gerber Fmt 3.4, Leading zero omitted, Abs format*
%FSLAX34Y34*%
G04 APERTURE LIST*
%ADD10C,0.006000*%
%ADD11C,0.007500*%
%ADD12C,0.015000*%
%ADD13C,0.000100*%
G04 APERTURE END LIST*
G54D10*
G54D11*
X20721Y-23662D02*
X20664Y-23662D01*
X20636Y-23681D01*
X20607Y-23719D01*
X20593Y-23795D01*
X20593Y-23929D01*
X20607Y-24005D01*
X20636Y-24043D01*
X20664Y-24062D01*
X20721Y-24062D01*
X20750Y-24043D01*
X20779Y-24005D01*
X20793Y-23929D01*
X20793Y-23795D01*
X20779Y-23719D01*
X20750Y-23681D01*
X20721Y-23662D01*
X20465Y-23662D02*
X20465Y-23986D01*
X20450Y-24024D01*
X20436Y-24043D01*
X20407Y-24062D01*
X20350Y-24062D01*
X20322Y-24043D01*
X20307Y-24024D01*
X20293Y-23986D01*
X20293Y-23662D01*
X20193Y-23662D02*
X20022Y-23662D01*
X20108Y-24062D02*
X20108Y-23662D01*
X19922Y-23852D02*
X19822Y-23852D01*
X19779Y-24062D02*
X19922Y-24062D01*
X19922Y-23662D01*
X19779Y-23662D01*
X19479Y-24062D02*
X19579Y-23871D01*
X19651Y-24062D02*
X19651Y-23662D01*
X19536Y-23662D01*
X19508Y-23681D01*
X19493Y-23700D01*
X19479Y-23738D01*
X19479Y-23795D01*
X19493Y-23833D01*
X19508Y-23852D01*
X19536Y-23871D01*
X19651Y-23871D01*
X19422Y-24100D02*
X19193Y-24100D01*
X19122Y-24062D02*
X19122Y-23662D01*
X19007Y-23662D01*
X18979Y-23681D01*
X18964Y-23700D01*
X18950Y-23738D01*
X18950Y-23795D01*
X18964Y-23833D01*
X18979Y-23852D01*
X19007Y-23871D01*
X19122Y-23871D01*
X18822Y-24062D02*
X18822Y-23662D01*
X18679Y-24062D02*
X18679Y-23662D01*
X18507Y-24062D01*
X18507Y-23662D01*
X18379Y-24043D02*
X18336Y-24062D01*
X18265Y-24062D01*
X18236Y-24043D01*
X18222Y-24024D01*
X18207Y-23986D01*
X18207Y-23948D01*
X18222Y-23910D01*
X18236Y-23890D01*
X18265Y-23871D01*
X18322Y-23852D01*
X18350Y-23833D01*
X18365Y-23814D01*
X18379Y-23776D01*
X18379Y-23738D01*
X18365Y-23700D01*
X18350Y-23681D01*
X18322Y-23662D01*
X18250Y-23662D01*
X18207Y-23681D01*
X14219Y-27671D02*
X14238Y-27700D01*
X14238Y-27743D01*
X14219Y-27786D01*
X14181Y-27814D01*
X14143Y-27829D01*
X14067Y-27843D01*
X14010Y-27843D01*
X13933Y-27829D01*
X13895Y-27814D01*
X13857Y-27786D01*
X13838Y-27743D01*
X13838Y-27714D01*
X13857Y-27671D01*
X13876Y-27657D01*
X14010Y-27657D01*
X14010Y-27714D01*
X13838Y-27529D02*
X14238Y-27529D01*
X14238Y-27414D01*
X14219Y-27386D01*
X14200Y-27371D01*
X14162Y-27357D01*
X14105Y-27357D01*
X14067Y-27371D01*
X14048Y-27386D01*
X14029Y-27414D01*
X14029Y-27529D01*
X13838Y-27229D02*
X14238Y-27229D01*
X14238Y-27028D02*
X14238Y-26971D01*
X14219Y-26943D01*
X14181Y-26914D01*
X14105Y-26900D01*
X13971Y-26900D01*
X13895Y-26914D01*
X13857Y-26943D01*
X13838Y-26971D01*
X13838Y-27028D01*
X13857Y-27057D01*
X13895Y-27086D01*
X13971Y-27100D01*
X14105Y-27100D01*
X14181Y-27086D01*
X14219Y-27057D01*
X14238Y-27028D01*
X13800Y-26843D02*
X13800Y-26614D01*
X14067Y-26500D02*
X14086Y-26528D01*
X14105Y-26543D01*
X14143Y-26557D01*
X14162Y-26557D01*
X14200Y-26543D01*
X14219Y-26528D01*
X14238Y-26500D01*
X14238Y-26443D01*
X14219Y-26414D01*
X14200Y-26400D01*
X14162Y-26385D01*
X14143Y-26385D01*
X14105Y-26400D01*
X14086Y-26414D01*
X14067Y-26443D01*
X14067Y-26500D01*
X14048Y-26528D01*
X14029Y-26543D01*
X13990Y-26557D01*
X13914Y-26557D01*
X13876Y-26543D01*
X13857Y-26528D01*
X13838Y-26500D01*
X13838Y-26443D01*
X13857Y-26414D01*
X13876Y-26400D01*
X13914Y-26385D01*
X13990Y-26385D01*
X14029Y-26400D01*
X14048Y-26414D01*
X14067Y-26443D01*
X14838Y-27829D02*
X15238Y-27829D01*
X15238Y-27714D01*
X15219Y-27686D01*
X15200Y-27671D01*
X15162Y-27657D01*
X15105Y-27657D01*
X15067Y-27671D01*
X15048Y-27686D01*
X15029Y-27714D01*
X15029Y-27829D01*
X15238Y-27557D02*
X14838Y-27486D01*
X15124Y-27429D01*
X14838Y-27371D01*
X15238Y-27300D01*
X14838Y-27186D02*
X15238Y-27186D01*
X14952Y-27086D01*
X15238Y-26986D01*
X14838Y-26986D01*
X14800Y-26914D02*
X14800Y-26685D01*
X15048Y-26514D02*
X15029Y-26471D01*
X15010Y-26456D01*
X14971Y-26442D01*
X14914Y-26442D01*
X14876Y-26456D01*
X14857Y-26471D01*
X14838Y-26499D01*
X14838Y-26614D01*
X15238Y-26614D01*
X15238Y-26514D01*
X15219Y-26485D01*
X15200Y-26471D01*
X15162Y-26456D01*
X15124Y-26456D01*
X15086Y-26471D01*
X15067Y-26485D01*
X15048Y-26514D01*
X15048Y-26614D01*
X15238Y-26342D02*
X15238Y-26156D01*
X15086Y-26256D01*
X15086Y-26214D01*
X15067Y-26185D01*
X15048Y-26171D01*
X15010Y-26156D01*
X14914Y-26156D01*
X14876Y-26171D01*
X14857Y-26185D01*
X14838Y-26214D01*
X14838Y-26299D01*
X14857Y-26328D01*
X14876Y-26342D01*
X15838Y-27829D02*
X16238Y-27829D01*
X16238Y-27714D01*
X16219Y-27686D01*
X16200Y-27671D01*
X16162Y-27657D01*
X16105Y-27657D01*
X16067Y-27671D01*
X16048Y-27686D01*
X16029Y-27714D01*
X16029Y-27829D01*
X16238Y-27557D02*
X15838Y-27486D01*
X16124Y-27429D01*
X15838Y-27371D01*
X16238Y-27300D01*
X15838Y-27186D02*
X16238Y-27186D01*
X15952Y-27086D01*
X16238Y-26986D01*
X15838Y-26986D01*
X15800Y-26914D02*
X15800Y-26685D01*
X16048Y-26514D02*
X16029Y-26471D01*
X16010Y-26456D01*
X15971Y-26442D01*
X15914Y-26442D01*
X15876Y-26456D01*
X15857Y-26471D01*
X15838Y-26499D01*
X15838Y-26614D01*
X16238Y-26614D01*
X16238Y-26514D01*
X16219Y-26485D01*
X16200Y-26471D01*
X16162Y-26456D01*
X16124Y-26456D01*
X16086Y-26471D01*
X16067Y-26485D01*
X16048Y-26514D01*
X16048Y-26614D01*
X15838Y-26156D02*
X15838Y-26328D01*
X15838Y-26242D02*
X16238Y-26242D01*
X16181Y-26271D01*
X16143Y-26299D01*
X16124Y-26328D01*
X16857Y-27843D02*
X16838Y-27800D01*
X16838Y-27729D01*
X16857Y-27700D01*
X16876Y-27686D01*
X16914Y-27671D01*
X16952Y-27671D01*
X16990Y-27686D01*
X17010Y-27700D01*
X17029Y-27729D01*
X17048Y-27786D01*
X17067Y-27814D01*
X17086Y-27829D01*
X17124Y-27843D01*
X17162Y-27843D01*
X17200Y-27829D01*
X17219Y-27814D01*
X17238Y-27786D01*
X17238Y-27714D01*
X17219Y-27671D01*
X16838Y-27543D02*
X17238Y-27543D01*
X17238Y-27428D01*
X17219Y-27400D01*
X17200Y-27385D01*
X17162Y-27371D01*
X17105Y-27371D01*
X17067Y-27385D01*
X17048Y-27400D01*
X17029Y-27428D01*
X17029Y-27543D01*
X16838Y-27243D02*
X17238Y-27243D01*
X17200Y-27114D02*
X17219Y-27100D01*
X17238Y-27071D01*
X17238Y-27000D01*
X17219Y-26971D01*
X17200Y-26957D01*
X17162Y-26942D01*
X17124Y-26942D01*
X17067Y-26957D01*
X16838Y-27128D01*
X16838Y-26942D01*
X16800Y-26885D02*
X16800Y-26656D01*
X16838Y-26585D02*
X17238Y-26585D01*
X16952Y-26485D01*
X17238Y-26385D01*
X16838Y-26385D01*
X16838Y-26242D02*
X17238Y-26242D01*
X16857Y-26113D02*
X16838Y-26070D01*
X16838Y-25999D01*
X16857Y-25970D01*
X16876Y-25956D01*
X16914Y-25941D01*
X16952Y-25941D01*
X16990Y-25956D01*
X17010Y-25970D01*
X17029Y-25999D01*
X17048Y-26056D01*
X17067Y-26084D01*
X17086Y-26099D01*
X17124Y-26113D01*
X17162Y-26113D01*
X17200Y-26099D01*
X17219Y-26084D01*
X17238Y-26056D01*
X17238Y-25984D01*
X17219Y-25941D01*
X17238Y-25755D02*
X17238Y-25698D01*
X17219Y-25670D01*
X17181Y-25641D01*
X17105Y-25627D01*
X16971Y-25627D01*
X16895Y-25641D01*
X16857Y-25670D01*
X16838Y-25698D01*
X16838Y-25755D01*
X16857Y-25784D01*
X16895Y-25813D01*
X16971Y-25827D01*
X17105Y-25827D01*
X17181Y-25813D01*
X17219Y-25784D01*
X17238Y-25755D01*
X17857Y-27843D02*
X17838Y-27800D01*
X17838Y-27729D01*
X17857Y-27700D01*
X17876Y-27686D01*
X17914Y-27671D01*
X17952Y-27671D01*
X17990Y-27686D01*
X18010Y-27700D01*
X18029Y-27729D01*
X18048Y-27786D01*
X18067Y-27814D01*
X18086Y-27829D01*
X18124Y-27843D01*
X18162Y-27843D01*
X18200Y-27829D01*
X18219Y-27814D01*
X18238Y-27786D01*
X18238Y-27714D01*
X18219Y-27671D01*
X17838Y-27543D02*
X18238Y-27543D01*
X18238Y-27428D01*
X18219Y-27400D01*
X18200Y-27385D01*
X18162Y-27371D01*
X18105Y-27371D01*
X18067Y-27385D01*
X18048Y-27400D01*
X18029Y-27428D01*
X18029Y-27543D01*
X17838Y-27243D02*
X18238Y-27243D01*
X18200Y-27114D02*
X18219Y-27100D01*
X18238Y-27071D01*
X18238Y-27000D01*
X18219Y-26971D01*
X18200Y-26957D01*
X18162Y-26942D01*
X18124Y-26942D01*
X18067Y-26957D01*
X17838Y-27128D01*
X17838Y-26942D01*
X17800Y-26885D02*
X17800Y-26656D01*
X17838Y-26585D02*
X18238Y-26585D01*
X17838Y-26413D01*
X18238Y-26413D01*
X17857Y-26285D02*
X17838Y-26242D01*
X17838Y-26171D01*
X17857Y-26142D01*
X17876Y-26128D01*
X17914Y-26113D01*
X17952Y-26113D01*
X17990Y-26128D01*
X18010Y-26142D01*
X18029Y-26171D01*
X18048Y-26228D01*
X18067Y-26256D01*
X18086Y-26271D01*
X18124Y-26285D01*
X18162Y-26285D01*
X18200Y-26271D01*
X18219Y-26256D01*
X18238Y-26228D01*
X18238Y-26156D01*
X18219Y-26113D01*
X17857Y-25999D02*
X17838Y-25956D01*
X17838Y-25885D01*
X17857Y-25856D01*
X17876Y-25842D01*
X17914Y-25827D01*
X17952Y-25827D01*
X17990Y-25842D01*
X18010Y-25856D01*
X18029Y-25885D01*
X18048Y-25942D01*
X18067Y-25970D01*
X18086Y-25985D01*
X18124Y-25999D01*
X18162Y-25999D01*
X18200Y-25985D01*
X18219Y-25970D01*
X18238Y-25942D01*
X18238Y-25870D01*
X18219Y-25827D01*
X18838Y-27829D02*
X19238Y-27829D01*
X19200Y-27700D02*
X19219Y-27686D01*
X19238Y-27657D01*
X19238Y-27586D01*
X19219Y-27557D01*
X19200Y-27543D01*
X19162Y-27528D01*
X19124Y-27528D01*
X19067Y-27543D01*
X18838Y-27714D01*
X18838Y-27528D01*
X18876Y-27228D02*
X18857Y-27242D01*
X18838Y-27285D01*
X18838Y-27314D01*
X18857Y-27357D01*
X18895Y-27385D01*
X18933Y-27400D01*
X19010Y-27414D01*
X19067Y-27414D01*
X19143Y-27400D01*
X19181Y-27385D01*
X19219Y-27357D01*
X19238Y-27314D01*
X19238Y-27285D01*
X19219Y-27242D01*
X19200Y-27228D01*
X19200Y-27114D02*
X19219Y-27100D01*
X19238Y-27071D01*
X19238Y-27000D01*
X19219Y-26971D01*
X19200Y-26957D01*
X19162Y-26942D01*
X19124Y-26942D01*
X19067Y-26957D01*
X18838Y-27128D01*
X18838Y-26942D01*
X18800Y-26885D02*
X18800Y-26656D01*
X18876Y-26413D02*
X18857Y-26427D01*
X18838Y-26470D01*
X18838Y-26499D01*
X18857Y-26542D01*
X18895Y-26570D01*
X18933Y-26585D01*
X19010Y-26599D01*
X19067Y-26599D01*
X19143Y-26585D01*
X19181Y-26570D01*
X19219Y-26542D01*
X19238Y-26499D01*
X19238Y-26470D01*
X19219Y-26427D01*
X19200Y-26413D01*
X18838Y-26142D02*
X18838Y-26285D01*
X19238Y-26285D01*
X18838Y-26042D02*
X19238Y-26042D01*
X18838Y-25870D02*
X19067Y-25999D01*
X19238Y-25870D02*
X19010Y-26042D01*
X19838Y-27829D02*
X20238Y-27829D01*
X20238Y-27714D01*
X20219Y-27686D01*
X20200Y-27671D01*
X20162Y-27657D01*
X20105Y-27657D01*
X20067Y-27671D01*
X20048Y-27686D01*
X20029Y-27714D01*
X20029Y-27829D01*
X20238Y-27557D02*
X19838Y-27486D01*
X20124Y-27429D01*
X19838Y-27371D01*
X20238Y-27300D01*
X19838Y-27186D02*
X20238Y-27186D01*
X19952Y-27086D01*
X20238Y-26986D01*
X19838Y-26986D01*
X19800Y-26914D02*
X19800Y-26685D01*
X19876Y-26442D02*
X19857Y-26456D01*
X19838Y-26499D01*
X19838Y-26528D01*
X19857Y-26571D01*
X19895Y-26599D01*
X19933Y-26614D01*
X20010Y-26628D01*
X20067Y-26628D01*
X20143Y-26614D01*
X20181Y-26599D01*
X20219Y-26571D01*
X20238Y-26528D01*
X20238Y-26499D01*
X20219Y-26456D01*
X20200Y-26442D01*
X19838Y-26156D02*
X19838Y-26328D01*
X19838Y-26242D02*
X20238Y-26242D01*
X20181Y-26271D01*
X20143Y-26299D01*
X20124Y-26328D01*
X21219Y-27671D02*
X21238Y-27700D01*
X21238Y-27743D01*
X21219Y-27786D01*
X21181Y-27814D01*
X21143Y-27829D01*
X21067Y-27843D01*
X21010Y-27843D01*
X20933Y-27829D01*
X20895Y-27814D01*
X20857Y-27786D01*
X20838Y-27743D01*
X20838Y-27714D01*
X20857Y-27671D01*
X20876Y-27657D01*
X21010Y-27657D01*
X21010Y-27714D01*
X20838Y-27529D02*
X21238Y-27529D01*
X21238Y-27414D01*
X21219Y-27386D01*
X21200Y-27371D01*
X21162Y-27357D01*
X21105Y-27357D01*
X21067Y-27371D01*
X21048Y-27386D01*
X21029Y-27414D01*
X21029Y-27529D01*
X20838Y-27229D02*
X21238Y-27229D01*
X21238Y-27028D02*
X21238Y-26971D01*
X21219Y-26943D01*
X21181Y-26914D01*
X21105Y-26900D01*
X20971Y-26900D01*
X20895Y-26914D01*
X20857Y-26943D01*
X20838Y-26971D01*
X20838Y-27028D01*
X20857Y-27057D01*
X20895Y-27086D01*
X20971Y-27100D01*
X21105Y-27100D01*
X21181Y-27086D01*
X21219Y-27057D01*
X21238Y-27028D01*
X20838Y-26757D02*
X20838Y-26700D01*
X20857Y-26672D01*
X20876Y-26657D01*
X20933Y-26629D01*
X21010Y-26614D01*
X21162Y-26614D01*
X21200Y-26629D01*
X21219Y-26643D01*
X21238Y-26672D01*
X21238Y-26729D01*
X21219Y-26757D01*
X21200Y-26772D01*
X21162Y-26786D01*
X21067Y-26786D01*
X21029Y-26772D01*
X21010Y-26757D01*
X20990Y-26729D01*
X20990Y-26672D01*
X21010Y-26643D01*
X21029Y-26629D01*
X21067Y-26614D01*
X21857Y-27843D02*
X21838Y-27800D01*
X21838Y-27729D01*
X21857Y-27700D01*
X21876Y-27686D01*
X21914Y-27671D01*
X21952Y-27671D01*
X21990Y-27686D01*
X22010Y-27700D01*
X22029Y-27729D01*
X22048Y-27786D01*
X22067Y-27814D01*
X22086Y-27829D01*
X22124Y-27843D01*
X22162Y-27843D01*
X22200Y-27829D01*
X22219Y-27814D01*
X22238Y-27786D01*
X22238Y-27714D01*
X22219Y-27671D01*
X21838Y-27543D02*
X22238Y-27543D01*
X22238Y-27428D01*
X22219Y-27400D01*
X22200Y-27385D01*
X22162Y-27371D01*
X22105Y-27371D01*
X22067Y-27385D01*
X22048Y-27400D01*
X22029Y-27428D01*
X22029Y-27543D01*
X21838Y-27243D02*
X22238Y-27243D01*
X21838Y-26942D02*
X21838Y-27114D01*
X21838Y-27028D02*
X22238Y-27028D01*
X22181Y-27057D01*
X22143Y-27085D01*
X22124Y-27114D01*
X21800Y-26885D02*
X21800Y-26656D01*
X21838Y-26585D02*
X22238Y-26585D01*
X21952Y-26485D01*
X22238Y-26385D01*
X21838Y-26385D01*
X21838Y-26242D02*
X22238Y-26242D01*
X21857Y-26113D02*
X21838Y-26070D01*
X21838Y-25999D01*
X21857Y-25970D01*
X21876Y-25956D01*
X21914Y-25941D01*
X21952Y-25941D01*
X21990Y-25956D01*
X22010Y-25970D01*
X22029Y-25999D01*
X22048Y-26056D01*
X22067Y-26084D01*
X22086Y-26099D01*
X22124Y-26113D01*
X22162Y-26113D01*
X22200Y-26099D01*
X22219Y-26084D01*
X22238Y-26056D01*
X22238Y-25984D01*
X22219Y-25941D01*
X22238Y-25755D02*
X22238Y-25698D01*
X22219Y-25670D01*
X22181Y-25641D01*
X22105Y-25627D01*
X21971Y-25627D01*
X21895Y-25641D01*
X21857Y-25670D01*
X21838Y-25698D01*
X21838Y-25755D01*
X21857Y-25784D01*
X21895Y-25813D01*
X21971Y-25827D01*
X22105Y-25827D01*
X22181Y-25813D01*
X22219Y-25784D01*
X22238Y-25755D01*
X22838Y-27829D02*
X23238Y-27829D01*
X23238Y-27757D01*
X23219Y-27714D01*
X23181Y-27686D01*
X23143Y-27671D01*
X23067Y-27657D01*
X23010Y-27657D01*
X22933Y-27671D01*
X22895Y-27686D01*
X22857Y-27714D01*
X22838Y-27757D01*
X22838Y-27829D01*
X22952Y-27543D02*
X22952Y-27400D01*
X22838Y-27571D02*
X23238Y-27471D01*
X22838Y-27371D01*
X22876Y-27100D02*
X22857Y-27114D01*
X22838Y-27157D01*
X22838Y-27186D01*
X22857Y-27229D01*
X22895Y-27257D01*
X22933Y-27272D01*
X23010Y-27286D01*
X23067Y-27286D01*
X23143Y-27272D01*
X23181Y-27257D01*
X23219Y-27229D01*
X23238Y-27186D01*
X23238Y-27157D01*
X23219Y-27114D01*
X23200Y-27100D01*
X22838Y-26814D02*
X22838Y-26986D01*
X22838Y-26900D02*
X23238Y-26900D01*
X23181Y-26929D01*
X23143Y-26957D01*
X23124Y-26986D01*
X24238Y-27829D02*
X23914Y-27829D01*
X23876Y-27814D01*
X23857Y-27800D01*
X23838Y-27771D01*
X23838Y-27714D01*
X23857Y-27686D01*
X23876Y-27671D01*
X23914Y-27657D01*
X24238Y-27657D01*
X23857Y-27529D02*
X23838Y-27486D01*
X23838Y-27415D01*
X23857Y-27386D01*
X23876Y-27372D01*
X23914Y-27357D01*
X23952Y-27357D01*
X23990Y-27372D01*
X24010Y-27386D01*
X24029Y-27415D01*
X24048Y-27472D01*
X24067Y-27500D01*
X24086Y-27515D01*
X24124Y-27529D01*
X24162Y-27529D01*
X24200Y-27515D01*
X24219Y-27500D01*
X24238Y-27472D01*
X24238Y-27400D01*
X24219Y-27357D01*
X23952Y-27243D02*
X23952Y-27100D01*
X23838Y-27271D02*
X24238Y-27171D01*
X23838Y-27071D01*
X23838Y-26800D02*
X24029Y-26900D01*
X23838Y-26972D02*
X24238Y-26972D01*
X24238Y-26857D01*
X24219Y-26829D01*
X24200Y-26814D01*
X24162Y-26800D01*
X24105Y-26800D01*
X24067Y-26814D01*
X24048Y-26829D01*
X24029Y-26857D01*
X24029Y-26972D01*
X24238Y-26714D02*
X24238Y-26543D01*
X23838Y-26629D02*
X24238Y-26629D01*
X24200Y-26457D02*
X24219Y-26443D01*
X24238Y-26414D01*
X24238Y-26343D01*
X24219Y-26314D01*
X24200Y-26300D01*
X24162Y-26285D01*
X24124Y-26285D01*
X24067Y-26300D01*
X23838Y-26471D01*
X23838Y-26285D01*
X23800Y-26228D02*
X23800Y-25999D01*
X24238Y-25970D02*
X24238Y-25799D01*
X23838Y-25885D02*
X24238Y-25885D01*
X24238Y-25727D02*
X23838Y-25527D01*
X24238Y-25527D02*
X23838Y-25727D01*
X24257Y-25198D02*
X23743Y-25455D01*
X23952Y-25113D02*
X23952Y-24970D01*
X23838Y-25141D02*
X24238Y-25041D01*
X23838Y-24941D01*
X23838Y-24842D02*
X24238Y-24842D01*
X23838Y-24670D01*
X24238Y-24670D01*
X24238Y-24556D02*
X24238Y-24370D01*
X24086Y-24470D01*
X24086Y-24428D01*
X24067Y-24399D01*
X24048Y-24385D01*
X24010Y-24370D01*
X23914Y-24370D01*
X23876Y-24385D01*
X23857Y-24399D01*
X23838Y-24428D01*
X23838Y-24513D01*
X23857Y-24542D01*
X23876Y-24556D01*
X25238Y-27829D02*
X24914Y-27829D01*
X24876Y-27814D01*
X24857Y-27800D01*
X24838Y-27771D01*
X24838Y-27714D01*
X24857Y-27686D01*
X24876Y-27671D01*
X24914Y-27657D01*
X25238Y-27657D01*
X24857Y-27529D02*
X24838Y-27486D01*
X24838Y-27415D01*
X24857Y-27386D01*
X24876Y-27372D01*
X24914Y-27357D01*
X24952Y-27357D01*
X24990Y-27372D01*
X25010Y-27386D01*
X25029Y-27415D01*
X25048Y-27472D01*
X25067Y-27500D01*
X25086Y-27515D01*
X25124Y-27529D01*
X25162Y-27529D01*
X25200Y-27515D01*
X25219Y-27500D01*
X25238Y-27472D01*
X25238Y-27400D01*
X25219Y-27357D01*
X24952Y-27243D02*
X24952Y-27100D01*
X24838Y-27271D02*
X25238Y-27171D01*
X24838Y-27071D01*
X24838Y-26800D02*
X25029Y-26900D01*
X24838Y-26972D02*
X25238Y-26972D01*
X25238Y-26857D01*
X25219Y-26829D01*
X25200Y-26814D01*
X25162Y-26800D01*
X25105Y-26800D01*
X25067Y-26814D01*
X25048Y-26829D01*
X25029Y-26857D01*
X25029Y-26972D01*
X25238Y-26714D02*
X25238Y-26543D01*
X24838Y-26629D02*
X25238Y-26629D01*
X25200Y-26457D02*
X25219Y-26443D01*
X25238Y-26414D01*
X25238Y-26343D01*
X25219Y-26314D01*
X25200Y-26300D01*
X25162Y-26285D01*
X25124Y-26285D01*
X25067Y-26300D01*
X24838Y-26471D01*
X24838Y-26285D01*
X24800Y-26228D02*
X24800Y-25999D01*
X24876Y-25756D02*
X24857Y-25770D01*
X24838Y-25813D01*
X24838Y-25842D01*
X24857Y-25885D01*
X24895Y-25913D01*
X24933Y-25928D01*
X25010Y-25942D01*
X25067Y-25942D01*
X25143Y-25928D01*
X25181Y-25913D01*
X25219Y-25885D01*
X25238Y-25842D01*
X25238Y-25813D01*
X25219Y-25770D01*
X25200Y-25756D01*
X25238Y-25670D02*
X25238Y-25499D01*
X24838Y-25585D02*
X25238Y-25585D01*
X24857Y-25413D02*
X24838Y-25370D01*
X24838Y-25299D01*
X24857Y-25270D01*
X24876Y-25256D01*
X24914Y-25241D01*
X24952Y-25241D01*
X24990Y-25256D01*
X25010Y-25270D01*
X25029Y-25299D01*
X25048Y-25356D01*
X25067Y-25384D01*
X25086Y-25399D01*
X25124Y-25413D01*
X25162Y-25413D01*
X25200Y-25399D01*
X25219Y-25384D01*
X25238Y-25356D01*
X25238Y-25284D01*
X25219Y-25241D01*
X25257Y-24898D02*
X24743Y-25155D01*
X24952Y-24813D02*
X24952Y-24670D01*
X24838Y-24841D02*
X25238Y-24741D01*
X24838Y-24641D01*
X24838Y-24542D02*
X25238Y-24542D01*
X24838Y-24370D01*
X25238Y-24370D01*
X24838Y-24070D02*
X24838Y-24242D01*
X24838Y-24156D02*
X25238Y-24156D01*
X25181Y-24185D01*
X25143Y-24213D01*
X25124Y-24242D01*
X20721Y-18862D02*
X20664Y-18862D01*
X20636Y-18881D01*
X20607Y-18919D01*
X20593Y-18995D01*
X20593Y-19129D01*
X20607Y-19205D01*
X20636Y-19243D01*
X20664Y-19262D01*
X20721Y-19262D01*
X20750Y-19243D01*
X20779Y-19205D01*
X20793Y-19129D01*
X20793Y-18995D01*
X20779Y-18919D01*
X20750Y-18881D01*
X20721Y-18862D01*
X20465Y-18862D02*
X20465Y-19186D01*
X20450Y-19224D01*
X20436Y-19243D01*
X20407Y-19262D01*
X20350Y-19262D01*
X20322Y-19243D01*
X20307Y-19224D01*
X20293Y-19186D01*
X20293Y-18862D01*
X20193Y-18862D02*
X20022Y-18862D01*
X20108Y-19262D02*
X20108Y-18862D01*
X19922Y-19052D02*
X19822Y-19052D01*
X19779Y-19262D02*
X19922Y-19262D01*
X19922Y-18862D01*
X19779Y-18862D01*
X19479Y-19262D02*
X19579Y-19071D01*
X19651Y-19262D02*
X19651Y-18862D01*
X19536Y-18862D01*
X19508Y-18881D01*
X19493Y-18900D01*
X19479Y-18938D01*
X19479Y-18995D01*
X19493Y-19033D01*
X19508Y-19052D01*
X19536Y-19071D01*
X19651Y-19071D01*
X19122Y-19262D02*
X19122Y-18862D01*
X19007Y-18862D01*
X18979Y-18881D01*
X18964Y-18900D01*
X18950Y-18938D01*
X18950Y-18995D01*
X18964Y-19033D01*
X18979Y-19052D01*
X19007Y-19071D01*
X19122Y-19071D01*
X18822Y-19262D02*
X18822Y-18862D01*
X18679Y-19262D02*
X18679Y-18862D01*
X18507Y-19262D01*
X18507Y-18862D01*
X18379Y-19243D02*
X18336Y-19262D01*
X18265Y-19262D01*
X18236Y-19243D01*
X18222Y-19224D01*
X18207Y-19186D01*
X18207Y-19148D01*
X18222Y-19110D01*
X18236Y-19090D01*
X18265Y-19071D01*
X18322Y-19052D01*
X18350Y-19033D01*
X18365Y-19014D01*
X18379Y-18976D01*
X18379Y-18938D01*
X18365Y-18900D01*
X18350Y-18881D01*
X18322Y-18862D01*
X18250Y-18862D01*
X18207Y-18881D01*
X14238Y-15314D02*
X13838Y-15214D01*
X14238Y-15114D01*
X14048Y-14915D02*
X14029Y-14872D01*
X14010Y-14857D01*
X13971Y-14843D01*
X13914Y-14843D01*
X13876Y-14857D01*
X13857Y-14872D01*
X13838Y-14900D01*
X13838Y-15015D01*
X14238Y-15015D01*
X14238Y-14915D01*
X14219Y-14886D01*
X14200Y-14872D01*
X14162Y-14857D01*
X14124Y-14857D01*
X14086Y-14872D01*
X14067Y-14886D01*
X14048Y-14915D01*
X14048Y-15015D01*
X13952Y-14729D02*
X13952Y-14586D01*
X13838Y-14757D02*
X14238Y-14657D01*
X13838Y-14557D01*
X14238Y-14500D02*
X14238Y-14329D01*
X13838Y-14415D02*
X14238Y-14415D01*
X15238Y-15229D02*
X15238Y-15043D01*
X15086Y-15143D01*
X15086Y-15101D01*
X15067Y-15072D01*
X15048Y-15058D01*
X15010Y-15043D01*
X14914Y-15043D01*
X14876Y-15058D01*
X14857Y-15072D01*
X14838Y-15101D01*
X14838Y-15186D01*
X14857Y-15215D01*
X14876Y-15229D01*
X14876Y-14915D02*
X14857Y-14900D01*
X14838Y-14915D01*
X14857Y-14929D01*
X14876Y-14915D01*
X14838Y-14915D01*
X15238Y-14800D02*
X15238Y-14614D01*
X15086Y-14714D01*
X15086Y-14672D01*
X15067Y-14643D01*
X15048Y-14629D01*
X15010Y-14614D01*
X14914Y-14614D01*
X14876Y-14629D01*
X14857Y-14643D01*
X14838Y-14672D01*
X14838Y-14757D01*
X14857Y-14786D01*
X14876Y-14800D01*
X15238Y-14528D02*
X14838Y-14428D01*
X15238Y-14328D01*
X15857Y-19103D02*
X15838Y-19060D01*
X15838Y-18989D01*
X15857Y-18960D01*
X15876Y-18946D01*
X15914Y-18931D01*
X15952Y-18931D01*
X15990Y-18946D01*
X16010Y-18960D01*
X16029Y-18989D01*
X16048Y-19046D01*
X16067Y-19074D01*
X16086Y-19089D01*
X16124Y-19103D01*
X16162Y-19103D01*
X16200Y-19089D01*
X16219Y-19074D01*
X16238Y-19046D01*
X16238Y-18974D01*
X16219Y-18931D01*
X15838Y-18803D02*
X16238Y-18803D01*
X16238Y-18688D01*
X16219Y-18660D01*
X16200Y-18645D01*
X16162Y-18631D01*
X16105Y-18631D01*
X16067Y-18645D01*
X16048Y-18660D01*
X16029Y-18688D01*
X16029Y-18803D01*
X15838Y-18503D02*
X16238Y-18503D01*
X16238Y-18388D02*
X16238Y-18202D01*
X16086Y-18302D01*
X16086Y-18260D01*
X16067Y-18231D01*
X16048Y-18217D01*
X16010Y-18202D01*
X15914Y-18202D01*
X15876Y-18217D01*
X15857Y-18231D01*
X15838Y-18260D01*
X15838Y-18345D01*
X15857Y-18374D01*
X15876Y-18388D01*
X15800Y-18145D02*
X15800Y-17916D01*
X15857Y-17859D02*
X15838Y-17816D01*
X15838Y-17745D01*
X15857Y-17716D01*
X15876Y-17702D01*
X15914Y-17687D01*
X15952Y-17687D01*
X15990Y-17702D01*
X16010Y-17716D01*
X16029Y-17745D01*
X16048Y-17802D01*
X16067Y-17830D01*
X16086Y-17845D01*
X16124Y-17859D01*
X16162Y-17859D01*
X16200Y-17845D01*
X16219Y-17830D01*
X16238Y-17802D01*
X16238Y-17730D01*
X16219Y-17687D01*
X15876Y-17387D02*
X15857Y-17401D01*
X15838Y-17444D01*
X15838Y-17473D01*
X15857Y-17516D01*
X15895Y-17544D01*
X15933Y-17559D01*
X16010Y-17573D01*
X16067Y-17573D01*
X16143Y-17559D01*
X16181Y-17544D01*
X16219Y-17516D01*
X16238Y-17473D01*
X16238Y-17444D01*
X16219Y-17401D01*
X16200Y-17387D01*
X15838Y-17259D02*
X16238Y-17259D01*
X15838Y-17087D02*
X16067Y-17216D01*
X16238Y-17087D02*
X16010Y-17259D01*
X16257Y-16744D02*
X15743Y-17001D01*
X16238Y-16645D02*
X15914Y-16645D01*
X15876Y-16630D01*
X15857Y-16616D01*
X15838Y-16587D01*
X15838Y-16530D01*
X15857Y-16502D01*
X15876Y-16487D01*
X15914Y-16473D01*
X16238Y-16473D01*
X15857Y-16345D02*
X15838Y-16302D01*
X15838Y-16231D01*
X15857Y-16202D01*
X15876Y-16188D01*
X15914Y-16173D01*
X15952Y-16173D01*
X15990Y-16188D01*
X16010Y-16202D01*
X16029Y-16231D01*
X16048Y-16288D01*
X16067Y-16316D01*
X16086Y-16331D01*
X16124Y-16345D01*
X16162Y-16345D01*
X16200Y-16331D01*
X16219Y-16316D01*
X16238Y-16288D01*
X16238Y-16216D01*
X16219Y-16173D01*
X15952Y-16059D02*
X15952Y-15916D01*
X15838Y-16087D02*
X16238Y-15987D01*
X15838Y-15887D01*
X15838Y-15616D02*
X16029Y-15716D01*
X15838Y-15788D02*
X16238Y-15788D01*
X16238Y-15673D01*
X16219Y-15645D01*
X16200Y-15630D01*
X16162Y-15616D01*
X16105Y-15616D01*
X16067Y-15630D01*
X16048Y-15645D01*
X16029Y-15673D01*
X16029Y-15788D01*
X16238Y-15530D02*
X16238Y-15359D01*
X15838Y-15445D02*
X16238Y-15445D01*
X16238Y-15287D02*
X16238Y-15101D01*
X16086Y-15201D01*
X16086Y-15159D01*
X16067Y-15130D01*
X16048Y-15116D01*
X16010Y-15101D01*
X15914Y-15101D01*
X15876Y-15116D01*
X15857Y-15130D01*
X15838Y-15159D01*
X15838Y-15244D01*
X15857Y-15273D01*
X15876Y-15287D01*
X15800Y-15044D02*
X15800Y-14815D01*
X16238Y-14786D02*
X16238Y-14615D01*
X15838Y-14701D02*
X16238Y-14701D01*
X16238Y-14543D02*
X15838Y-14343D01*
X16238Y-14343D02*
X15838Y-14543D01*
X16857Y-16573D02*
X16838Y-16530D01*
X16838Y-16459D01*
X16857Y-16430D01*
X16876Y-16416D01*
X16914Y-16401D01*
X16952Y-16401D01*
X16990Y-16416D01*
X17010Y-16430D01*
X17029Y-16459D01*
X17048Y-16516D01*
X17067Y-16544D01*
X17086Y-16559D01*
X17124Y-16573D01*
X17162Y-16573D01*
X17200Y-16559D01*
X17219Y-16544D01*
X17238Y-16516D01*
X17238Y-16444D01*
X17219Y-16401D01*
X16838Y-16273D02*
X17238Y-16273D01*
X17238Y-16158D01*
X17219Y-16130D01*
X17200Y-16115D01*
X17162Y-16101D01*
X17105Y-16101D01*
X17067Y-16115D01*
X17048Y-16130D01*
X17029Y-16158D01*
X17029Y-16273D01*
X16838Y-15973D02*
X17238Y-15973D01*
X17238Y-15858D02*
X17238Y-15672D01*
X17086Y-15772D01*
X17086Y-15730D01*
X17067Y-15701D01*
X17048Y-15687D01*
X17010Y-15672D01*
X16914Y-15672D01*
X16876Y-15687D01*
X16857Y-15701D01*
X16838Y-15730D01*
X16838Y-15815D01*
X16857Y-15844D01*
X16876Y-15858D01*
X16800Y-15615D02*
X16800Y-15386D01*
X16838Y-15315D02*
X17238Y-15315D01*
X16952Y-15215D01*
X17238Y-15115D01*
X16838Y-15115D01*
X17238Y-14914D02*
X17238Y-14857D01*
X17219Y-14829D01*
X17181Y-14800D01*
X17105Y-14786D01*
X16971Y-14786D01*
X16895Y-14800D01*
X16857Y-14829D01*
X16838Y-14857D01*
X16838Y-14914D01*
X16857Y-14943D01*
X16895Y-14972D01*
X16971Y-14986D01*
X17105Y-14986D01*
X17181Y-14972D01*
X17219Y-14943D01*
X17238Y-14914D01*
X16857Y-14672D02*
X16838Y-14629D01*
X16838Y-14558D01*
X16857Y-14529D01*
X16876Y-14515D01*
X16914Y-14500D01*
X16952Y-14500D01*
X16990Y-14515D01*
X17010Y-14529D01*
X17029Y-14558D01*
X17048Y-14615D01*
X17067Y-14643D01*
X17086Y-14658D01*
X17124Y-14672D01*
X17162Y-14672D01*
X17200Y-14658D01*
X17219Y-14643D01*
X17238Y-14615D01*
X17238Y-14543D01*
X17219Y-14500D01*
X16838Y-14372D02*
X17238Y-14372D01*
X17857Y-18030D02*
X17838Y-17987D01*
X17838Y-17916D01*
X17857Y-17887D01*
X17876Y-17873D01*
X17914Y-17858D01*
X17952Y-17858D01*
X17990Y-17873D01*
X18010Y-17887D01*
X18029Y-17916D01*
X18048Y-17973D01*
X18067Y-18001D01*
X18086Y-18016D01*
X18124Y-18030D01*
X18162Y-18030D01*
X18200Y-18016D01*
X18219Y-18001D01*
X18238Y-17973D01*
X18238Y-17901D01*
X18219Y-17858D01*
X17838Y-17730D02*
X18238Y-17730D01*
X18238Y-17615D01*
X18219Y-17587D01*
X18200Y-17572D01*
X18162Y-17558D01*
X18105Y-17558D01*
X18067Y-17572D01*
X18048Y-17587D01*
X18029Y-17615D01*
X18029Y-17730D01*
X17838Y-17430D02*
X18238Y-17430D01*
X18238Y-17315D02*
X18238Y-17129D01*
X18086Y-17229D01*
X18086Y-17187D01*
X18067Y-17158D01*
X18048Y-17144D01*
X18010Y-17129D01*
X17914Y-17129D01*
X17876Y-17144D01*
X17857Y-17158D01*
X17838Y-17187D01*
X17838Y-17272D01*
X17857Y-17301D01*
X17876Y-17315D01*
X17800Y-17072D02*
X17800Y-16843D01*
X17857Y-16786D02*
X17838Y-16743D01*
X17838Y-16672D01*
X17857Y-16643D01*
X17876Y-16629D01*
X17914Y-16614D01*
X17952Y-16614D01*
X17990Y-16629D01*
X18010Y-16643D01*
X18029Y-16672D01*
X18048Y-16729D01*
X18067Y-16757D01*
X18086Y-16772D01*
X18124Y-16786D01*
X18162Y-16786D01*
X18200Y-16772D01*
X18219Y-16757D01*
X18238Y-16729D01*
X18238Y-16657D01*
X18219Y-16614D01*
X17876Y-16314D02*
X17857Y-16328D01*
X17838Y-16371D01*
X17838Y-16400D01*
X17857Y-16443D01*
X17895Y-16471D01*
X17933Y-16486D01*
X18010Y-16500D01*
X18067Y-16500D01*
X18143Y-16486D01*
X18181Y-16471D01*
X18219Y-16443D01*
X18238Y-16400D01*
X18238Y-16371D01*
X18219Y-16328D01*
X18200Y-16314D01*
X17838Y-16186D02*
X18238Y-16186D01*
X17838Y-16014D02*
X18067Y-16143D01*
X18238Y-16014D02*
X18010Y-16186D01*
X18257Y-15671D02*
X17743Y-15928D01*
X18219Y-15414D02*
X18238Y-15443D01*
X18238Y-15486D01*
X18219Y-15529D01*
X18181Y-15557D01*
X18143Y-15572D01*
X18067Y-15586D01*
X18010Y-15586D01*
X17933Y-15572D01*
X17895Y-15557D01*
X17857Y-15529D01*
X17838Y-15486D01*
X17838Y-15457D01*
X17857Y-15414D01*
X17876Y-15400D01*
X18010Y-15400D01*
X18010Y-15457D01*
X17838Y-15272D02*
X18238Y-15272D01*
X18238Y-15157D01*
X18219Y-15129D01*
X18200Y-15114D01*
X18162Y-15100D01*
X18105Y-15100D01*
X18067Y-15114D01*
X18048Y-15129D01*
X18029Y-15157D01*
X18029Y-15272D01*
X17838Y-14972D02*
X18238Y-14972D01*
X18238Y-14771D02*
X18238Y-14714D01*
X18219Y-14686D01*
X18181Y-14657D01*
X18105Y-14643D01*
X17971Y-14643D01*
X17895Y-14657D01*
X17857Y-14686D01*
X17838Y-14714D01*
X17838Y-14771D01*
X17857Y-14800D01*
X17895Y-14829D01*
X17971Y-14843D01*
X18105Y-14843D01*
X18181Y-14829D01*
X18219Y-14800D01*
X18238Y-14771D01*
X18105Y-14386D02*
X17838Y-14386D01*
X18257Y-14457D02*
X17971Y-14529D01*
X17971Y-14343D01*
X18857Y-18230D02*
X18838Y-18187D01*
X18838Y-18116D01*
X18857Y-18087D01*
X18876Y-18073D01*
X18914Y-18058D01*
X18952Y-18058D01*
X18990Y-18073D01*
X19010Y-18087D01*
X19029Y-18116D01*
X19048Y-18173D01*
X19067Y-18201D01*
X19086Y-18216D01*
X19124Y-18230D01*
X19162Y-18230D01*
X19200Y-18216D01*
X19219Y-18201D01*
X19238Y-18173D01*
X19238Y-18101D01*
X19219Y-18058D01*
X18838Y-17930D02*
X19238Y-17930D01*
X19238Y-17815D01*
X19219Y-17787D01*
X19200Y-17772D01*
X19162Y-17758D01*
X19105Y-17758D01*
X19067Y-17772D01*
X19048Y-17787D01*
X19029Y-17815D01*
X19029Y-17930D01*
X18838Y-17630D02*
X19238Y-17630D01*
X19238Y-17515D02*
X19238Y-17329D01*
X19086Y-17429D01*
X19086Y-17387D01*
X19067Y-17358D01*
X19048Y-17344D01*
X19010Y-17329D01*
X18914Y-17329D01*
X18876Y-17344D01*
X18857Y-17358D01*
X18838Y-17387D01*
X18838Y-17472D01*
X18857Y-17501D01*
X18876Y-17515D01*
X18800Y-17272D02*
X18800Y-17043D01*
X18838Y-16972D02*
X19238Y-16972D01*
X18952Y-16872D01*
X19238Y-16772D01*
X18838Y-16772D01*
X19238Y-16571D02*
X19238Y-16514D01*
X19219Y-16486D01*
X19181Y-16457D01*
X19105Y-16443D01*
X18971Y-16443D01*
X18895Y-16457D01*
X18857Y-16486D01*
X18838Y-16514D01*
X18838Y-16571D01*
X18857Y-16600D01*
X18895Y-16629D01*
X18971Y-16643D01*
X19105Y-16643D01*
X19181Y-16629D01*
X19219Y-16600D01*
X19238Y-16571D01*
X18857Y-16329D02*
X18838Y-16286D01*
X18838Y-16215D01*
X18857Y-16186D01*
X18876Y-16172D01*
X18914Y-16157D01*
X18952Y-16157D01*
X18990Y-16172D01*
X19010Y-16186D01*
X19029Y-16215D01*
X19048Y-16272D01*
X19067Y-16300D01*
X19086Y-16315D01*
X19124Y-16329D01*
X19162Y-16329D01*
X19200Y-16315D01*
X19219Y-16300D01*
X19238Y-16272D01*
X19238Y-16200D01*
X19219Y-16157D01*
X18838Y-16029D02*
X19238Y-16029D01*
X19257Y-15671D02*
X18743Y-15928D01*
X19219Y-15414D02*
X19238Y-15443D01*
X19238Y-15486D01*
X19219Y-15529D01*
X19181Y-15557D01*
X19143Y-15572D01*
X19067Y-15586D01*
X19010Y-15586D01*
X18933Y-15572D01*
X18895Y-15557D01*
X18857Y-15529D01*
X18838Y-15486D01*
X18838Y-15457D01*
X18857Y-15414D01*
X18876Y-15400D01*
X19010Y-15400D01*
X19010Y-15457D01*
X18838Y-15272D02*
X19238Y-15272D01*
X19238Y-15157D01*
X19219Y-15129D01*
X19200Y-15114D01*
X19162Y-15100D01*
X19105Y-15100D01*
X19067Y-15114D01*
X19048Y-15129D01*
X19029Y-15157D01*
X19029Y-15272D01*
X18838Y-14972D02*
X19238Y-14972D01*
X19238Y-14771D02*
X19238Y-14714D01*
X19219Y-14686D01*
X19181Y-14657D01*
X19105Y-14643D01*
X18971Y-14643D01*
X18895Y-14657D01*
X18857Y-14686D01*
X18838Y-14714D01*
X18838Y-14771D01*
X18857Y-14800D01*
X18895Y-14829D01*
X18971Y-14843D01*
X19105Y-14843D01*
X19181Y-14829D01*
X19219Y-14800D01*
X19238Y-14771D01*
X19238Y-14386D02*
X19238Y-14443D01*
X19219Y-14472D01*
X19200Y-14486D01*
X19143Y-14515D01*
X19067Y-14529D01*
X18914Y-14529D01*
X18876Y-14515D01*
X18857Y-14500D01*
X18838Y-14472D01*
X18838Y-14415D01*
X18857Y-14386D01*
X18876Y-14372D01*
X18914Y-14357D01*
X19010Y-14357D01*
X19048Y-14372D01*
X19067Y-14386D01*
X19086Y-14415D01*
X19086Y-14472D01*
X19067Y-14500D01*
X19048Y-14515D01*
X19010Y-14529D01*
X19838Y-15987D02*
X20238Y-15987D01*
X20238Y-15872D01*
X20219Y-15844D01*
X20200Y-15829D01*
X20162Y-15815D01*
X20105Y-15815D01*
X20067Y-15829D01*
X20048Y-15844D01*
X20029Y-15872D01*
X20029Y-15987D01*
X20238Y-15715D02*
X19838Y-15644D01*
X20124Y-15587D01*
X19838Y-15529D01*
X20238Y-15458D01*
X19838Y-15344D02*
X20238Y-15344D01*
X19952Y-15244D01*
X20238Y-15144D01*
X19838Y-15144D01*
X19800Y-15072D02*
X19800Y-14843D01*
X19952Y-14786D02*
X19952Y-14643D01*
X19838Y-14814D02*
X20238Y-14714D01*
X19838Y-14614D01*
X20200Y-14529D02*
X20219Y-14515D01*
X20238Y-14486D01*
X20238Y-14415D01*
X20219Y-14386D01*
X20200Y-14372D01*
X20162Y-14357D01*
X20124Y-14357D01*
X20067Y-14372D01*
X19838Y-14543D01*
X19838Y-14357D01*
X20838Y-15987D02*
X21238Y-15987D01*
X21238Y-15872D01*
X21219Y-15844D01*
X21200Y-15829D01*
X21162Y-15815D01*
X21105Y-15815D01*
X21067Y-15829D01*
X21048Y-15844D01*
X21029Y-15872D01*
X21029Y-15987D01*
X21238Y-15715D02*
X20838Y-15644D01*
X21124Y-15587D01*
X20838Y-15529D01*
X21238Y-15458D01*
X20838Y-15344D02*
X21238Y-15344D01*
X20952Y-15244D01*
X21238Y-15144D01*
X20838Y-15144D01*
X20800Y-15072D02*
X20800Y-14843D01*
X20952Y-14786D02*
X20952Y-14643D01*
X20838Y-14814D02*
X21238Y-14714D01*
X20838Y-14614D01*
X21105Y-14386D02*
X20838Y-14386D01*
X21257Y-14457D02*
X20971Y-14529D01*
X20971Y-14343D01*
X22838Y-15358D02*
X23238Y-15358D01*
X22838Y-15186D01*
X23238Y-15186D01*
X22838Y-14872D02*
X23029Y-14972D01*
X22838Y-15044D02*
X23238Y-15044D01*
X23238Y-14929D01*
X23219Y-14901D01*
X23200Y-14886D01*
X23162Y-14872D01*
X23105Y-14872D01*
X23067Y-14886D01*
X23048Y-14901D01*
X23029Y-14929D01*
X23029Y-15044D01*
X22857Y-14758D02*
X22838Y-14715D01*
X22838Y-14644D01*
X22857Y-14615D01*
X22876Y-14601D01*
X22914Y-14586D01*
X22952Y-14586D01*
X22990Y-14601D01*
X23010Y-14615D01*
X23029Y-14644D01*
X23048Y-14701D01*
X23067Y-14729D01*
X23086Y-14744D01*
X23124Y-14758D01*
X23162Y-14758D01*
X23200Y-14744D01*
X23219Y-14729D01*
X23238Y-14701D01*
X23238Y-14629D01*
X23219Y-14586D01*
X23238Y-14500D02*
X23238Y-14329D01*
X22838Y-14415D02*
X23238Y-14415D01*
X24219Y-15414D02*
X24238Y-15443D01*
X24238Y-15486D01*
X24219Y-15529D01*
X24181Y-15557D01*
X24143Y-15572D01*
X24067Y-15586D01*
X24010Y-15586D01*
X23933Y-15572D01*
X23895Y-15557D01*
X23857Y-15529D01*
X23838Y-15486D01*
X23838Y-15457D01*
X23857Y-15414D01*
X23876Y-15400D01*
X24010Y-15400D01*
X24010Y-15457D01*
X23838Y-15272D02*
X24238Y-15272D01*
X24238Y-15157D01*
X24219Y-15129D01*
X24200Y-15114D01*
X24162Y-15100D01*
X24105Y-15100D01*
X24067Y-15114D01*
X24048Y-15129D01*
X24029Y-15157D01*
X24029Y-15272D01*
X23838Y-14972D02*
X24238Y-14972D01*
X24238Y-14771D02*
X24238Y-14714D01*
X24219Y-14686D01*
X24181Y-14657D01*
X24105Y-14643D01*
X23971Y-14643D01*
X23895Y-14657D01*
X23857Y-14686D01*
X23838Y-14714D01*
X23838Y-14771D01*
X23857Y-14800D01*
X23895Y-14829D01*
X23971Y-14843D01*
X24105Y-14843D01*
X24181Y-14829D01*
X24219Y-14800D01*
X24238Y-14771D01*
X24238Y-14543D02*
X24238Y-14357D01*
X24086Y-14457D01*
X24086Y-14415D01*
X24067Y-14386D01*
X24048Y-14372D01*
X24010Y-14357D01*
X23914Y-14357D01*
X23876Y-14372D01*
X23857Y-14386D01*
X23838Y-14415D01*
X23838Y-14500D01*
X23857Y-14529D01*
X23876Y-14543D01*
X24857Y-16001D02*
X24838Y-15958D01*
X24838Y-15887D01*
X24857Y-15858D01*
X24876Y-15844D01*
X24914Y-15829D01*
X24952Y-15829D01*
X24990Y-15844D01*
X25010Y-15858D01*
X25029Y-15887D01*
X25048Y-15944D01*
X25067Y-15972D01*
X25086Y-15987D01*
X25124Y-16001D01*
X25162Y-16001D01*
X25200Y-15987D01*
X25219Y-15972D01*
X25238Y-15944D01*
X25238Y-15872D01*
X25219Y-15829D01*
X25048Y-15601D02*
X25029Y-15558D01*
X25010Y-15543D01*
X24971Y-15529D01*
X24914Y-15529D01*
X24876Y-15543D01*
X24857Y-15558D01*
X24838Y-15586D01*
X24838Y-15701D01*
X25238Y-15701D01*
X25238Y-15601D01*
X25219Y-15572D01*
X25200Y-15558D01*
X25162Y-15543D01*
X25124Y-15543D01*
X25086Y-15558D01*
X25067Y-15572D01*
X25048Y-15601D01*
X25048Y-15701D01*
X25238Y-15429D02*
X24838Y-15358D01*
X25124Y-15301D01*
X24838Y-15243D01*
X25238Y-15172D01*
X25238Y-15100D02*
X25238Y-14929D01*
X24838Y-15015D02*
X25238Y-15015D01*
X24876Y-14657D02*
X24857Y-14671D01*
X24838Y-14714D01*
X24838Y-14743D01*
X24857Y-14786D01*
X24895Y-14814D01*
X24933Y-14829D01*
X25010Y-14843D01*
X25067Y-14843D01*
X25143Y-14829D01*
X25181Y-14814D01*
X25219Y-14786D01*
X25238Y-14743D01*
X25238Y-14714D01*
X25219Y-14671D01*
X25200Y-14657D01*
X24838Y-14529D02*
X25238Y-14529D01*
X24838Y-14357D02*
X25067Y-14486D01*
X25238Y-14357D02*
X25010Y-14529D01*
G54D12*
X13400Y-30100D02*
X51600Y-30100D01*
X51600Y-11800D02*
X13400Y-11800D01*
X51600Y-30100D02*
X51600Y-11800D01*
X13400Y-11800D02*
X13400Y-30100D01*
G54D13*
G36*
X34278Y-19788D02*
X34271Y-19786D01*
X34259Y-19782D01*
X34242Y-19776D01*
X34223Y-19767D01*
X34201Y-19757D01*
X34176Y-19745D01*
X34151Y-19732D01*
X34125Y-19719D01*
X34098Y-19705D01*
X34073Y-19691D01*
X34049Y-19678D01*
X34031Y-19667D01*
X34007Y-19653D01*
X33983Y-19638D01*
X33959Y-19622D01*
X33935Y-19606D01*
X33914Y-19591D01*
X33894Y-19577D01*
X33878Y-19565D01*
X33865Y-19555D01*
X33858Y-19548D01*
X33851Y-19537D01*
X33850Y-19525D01*
X33852Y-19516D01*
X33857Y-19509D01*
X33864Y-19503D01*
X33872Y-19499D01*
X33881Y-19499D01*
X33891Y-19502D01*
X33905Y-19510D01*
X33920Y-19521D01*
X33974Y-19559D01*
X34032Y-19597D01*
X34093Y-19633D01*
X34156Y-19667D01*
X34219Y-19698D01*
X34246Y-19711D01*
X34263Y-19718D01*
X34277Y-19725D01*
X34289Y-19731D01*
X34298Y-19736D01*
X34300Y-19738D01*
X34307Y-19748D01*
X34309Y-19759D01*
X34307Y-19770D01*
X34300Y-19780D01*
X34289Y-19786D01*
X34278Y-19788D01*
X34278Y-19788D01*
X34278Y-19788D01*
G37*
G36*
X34237Y-19919D02*
X34230Y-19918D01*
X34224Y-19917D01*
X34214Y-19914D01*
X34199Y-19909D01*
X34180Y-19904D01*
X34158Y-19897D01*
X34133Y-19889D01*
X34106Y-19881D01*
X34079Y-19873D01*
X34051Y-19865D01*
X34023Y-19856D01*
X33997Y-19848D01*
X33972Y-19840D01*
X33949Y-19833D01*
X33930Y-19827D01*
X33915Y-19823D01*
X33904Y-19819D01*
X33899Y-19817D01*
X33886Y-19811D01*
X33878Y-19801D01*
X33876Y-19789D01*
X33876Y-19787D01*
X33878Y-19775D01*
X33883Y-19767D01*
X33893Y-19761D01*
X33903Y-19759D01*
X33908Y-19760D01*
X33918Y-19763D01*
X33933Y-19767D01*
X33951Y-19772D01*
X33973Y-19779D01*
X33998Y-19786D01*
X34025Y-19794D01*
X34052Y-19802D01*
X34081Y-19810D01*
X34109Y-19819D01*
X34136Y-19827D01*
X34162Y-19835D01*
X34186Y-19842D01*
X34206Y-19849D01*
X34223Y-19855D01*
X34236Y-19859D01*
X34244Y-19862D01*
X34245Y-19862D01*
X34256Y-19870D01*
X34262Y-19880D01*
X34263Y-19892D01*
X34260Y-19903D01*
X34251Y-19913D01*
X34245Y-19917D01*
X34237Y-19919D01*
X34237Y-19919D01*
X34237Y-19919D01*
G37*
G36*
X34212Y-20057D02*
X34203Y-20056D01*
X34190Y-20055D01*
X34173Y-20054D01*
X34151Y-20052D01*
X34125Y-20049D01*
X34099Y-20046D01*
X34071Y-20043D01*
X34045Y-20041D01*
X34022Y-20038D01*
X34001Y-20036D01*
X33984Y-20034D01*
X33972Y-20033D01*
X33965Y-20032D01*
X33964Y-20032D01*
X33955Y-20028D01*
X33946Y-20022D01*
X33945Y-20021D01*
X33937Y-20010D01*
X33936Y-19999D01*
X33941Y-19987D01*
X33944Y-19983D01*
X33947Y-19980D01*
X33950Y-19978D01*
X33953Y-19976D01*
X33958Y-19974D01*
X33964Y-19974D01*
X33972Y-19974D01*
X33984Y-19974D01*
X33998Y-19975D01*
X34017Y-19977D01*
X34040Y-19979D01*
X34069Y-19982D01*
X34102Y-19985D01*
X34109Y-19986D01*
X34143Y-19990D01*
X34171Y-19993D01*
X34194Y-19996D01*
X34212Y-19998D01*
X34225Y-20000D01*
X34233Y-20002D01*
X34237Y-20004D01*
X34237Y-20004D01*
X34246Y-20013D01*
X34250Y-20024D01*
X34249Y-20036D01*
X34243Y-20046D01*
X34235Y-20053D01*
X34232Y-20055D01*
X34229Y-20056D01*
X34225Y-20056D01*
X34220Y-20057D01*
X34212Y-20057D01*
X34212Y-20057D01*
X34212Y-20057D01*
G37*
G36*
X34023Y-20244D02*
X34019Y-20243D01*
X34008Y-20238D01*
X34000Y-20230D01*
X33996Y-20218D01*
X33996Y-20207D01*
X34000Y-20198D01*
X34008Y-20191D01*
X34022Y-20182D01*
X34040Y-20173D01*
X34062Y-20165D01*
X34087Y-20158D01*
X34090Y-20157D01*
X34109Y-20152D01*
X34131Y-20148D01*
X34156Y-20144D01*
X34180Y-20141D01*
X34203Y-20139D01*
X34221Y-20138D01*
X34225Y-20138D01*
X34238Y-20138D01*
X34247Y-20139D01*
X34252Y-20140D01*
X34257Y-20144D01*
X34260Y-20147D01*
X34268Y-20158D01*
X34270Y-20170D01*
X34265Y-20183D01*
X34262Y-20187D01*
X34259Y-20191D01*
X34254Y-20193D01*
X34248Y-20195D01*
X34238Y-20196D01*
X34223Y-20198D01*
X34222Y-20198D01*
X34178Y-20202D01*
X34140Y-20208D01*
X34107Y-20215D01*
X34078Y-20224D01*
X34053Y-20234D01*
X34040Y-20240D01*
X34030Y-20243D01*
X34023Y-20244D01*
X34023Y-20244D01*
X34023Y-20244D01*
G37*
G36*
X35868Y-21502D02*
X35865Y-21502D01*
X35863Y-21499D01*
X35862Y-21493D01*
X35861Y-21483D01*
X35860Y-21472D01*
X35858Y-21441D01*
X35855Y-21413D01*
X35851Y-21387D01*
X35846Y-21361D01*
X35840Y-21334D01*
X35832Y-21304D01*
X35823Y-21270D01*
X35817Y-21250D01*
X35804Y-21212D01*
X35789Y-21171D01*
X35772Y-21129D01*
X35753Y-21088D01*
X35733Y-21048D01*
X35713Y-21011D01*
X35693Y-20977D01*
X35674Y-20948D01*
X35672Y-20946D01*
X35666Y-20939D01*
X35655Y-20929D01*
X35641Y-20918D01*
X35623Y-20905D01*
X35604Y-20891D01*
X35585Y-20878D01*
X35574Y-20870D01*
X35721Y-20870D01*
X35733Y-20840D01*
X35742Y-20814D01*
X35752Y-20783D01*
X35762Y-20750D01*
X35772Y-20716D01*
X35780Y-20682D01*
X35787Y-20651D01*
X35793Y-20623D01*
X35794Y-20615D01*
X35796Y-20596D01*
X35798Y-20573D01*
X35799Y-20549D01*
X35799Y-20523D01*
X35799Y-20499D01*
X35798Y-20476D01*
X35796Y-20458D01*
X35794Y-20447D01*
X35788Y-20425D01*
X35779Y-20404D01*
X35769Y-20385D01*
X35757Y-20371D01*
X35742Y-20359D01*
X35720Y-20351D01*
X35702Y-20347D01*
X35689Y-20345D01*
X35680Y-20363D01*
X35676Y-20371D01*
X35674Y-20378D01*
X35673Y-20385D01*
X35672Y-20394D01*
X35673Y-20407D01*
X35673Y-20416D01*
X35675Y-20434D01*
X35677Y-20454D01*
X35679Y-20471D01*
X35680Y-20479D01*
X35682Y-20492D01*
X35683Y-20502D01*
X35684Y-20508D01*
X35683Y-20509D01*
X35682Y-20508D01*
X35682Y-20507D01*
X35679Y-20503D01*
X35672Y-20499D01*
X35664Y-20495D01*
X35657Y-20494D01*
X35657Y-20494D01*
X35648Y-20497D01*
X35640Y-20504D01*
X35632Y-20514D01*
X35629Y-20521D01*
X35626Y-20536D01*
X35626Y-20555D01*
X35628Y-20575D01*
X35633Y-20594D01*
X35635Y-20599D01*
X35641Y-20610D01*
X35647Y-20617D01*
X35654Y-20621D01*
X35655Y-20621D01*
X35666Y-20624D01*
X35677Y-20621D01*
X35686Y-20613D01*
X35689Y-20610D01*
X35697Y-20599D01*
X35697Y-20624D01*
X35698Y-20638D01*
X35699Y-20656D01*
X35700Y-20679D01*
X35703Y-20705D01*
X35705Y-20732D01*
X35708Y-20760D01*
X35710Y-20787D01*
X35713Y-20812D01*
X35716Y-20835D01*
X35719Y-20854D01*
X35719Y-20855D01*
X35721Y-20870D01*
X35574Y-20870D01*
X35565Y-20864D01*
X35547Y-20852D01*
X35530Y-20842D01*
X35516Y-20835D01*
X35516Y-20835D01*
X35480Y-20817D01*
X35444Y-20802D01*
X35408Y-20787D01*
X35371Y-20774D01*
X35332Y-20762D01*
X35291Y-20751D01*
X35246Y-20740D01*
X35198Y-20730D01*
X35145Y-20720D01*
X35088Y-20710D01*
X35037Y-20702D01*
X34995Y-20695D01*
X34959Y-20689D01*
X34927Y-20683D01*
X34900Y-20677D01*
X34874Y-20672D01*
X34851Y-20666D01*
X34830Y-20659D01*
X34808Y-20652D01*
X34787Y-20644D01*
X34777Y-20640D01*
X34729Y-20620D01*
X34685Y-20600D01*
X34645Y-20579D01*
X34609Y-20557D01*
X34574Y-20532D01*
X34541Y-20505D01*
X34507Y-20474D01*
X34477Y-20444D01*
X34439Y-20402D01*
X34407Y-20361D01*
X34379Y-20319D01*
X34355Y-20275D01*
X34341Y-20246D01*
X34330Y-20221D01*
X34322Y-20199D01*
X34315Y-20178D01*
X34310Y-20158D01*
X34306Y-20136D01*
X34303Y-20111D01*
X34300Y-20082D01*
X34297Y-20038D01*
X34295Y-20000D01*
X34296Y-19966D01*
X34299Y-19939D01*
X34300Y-19936D01*
X34303Y-19917D01*
X34308Y-19897D01*
X34313Y-19877D01*
X34318Y-19858D01*
X34324Y-19842D01*
X34328Y-19829D01*
X34331Y-19824D01*
X34338Y-19815D01*
X34347Y-19804D01*
X34353Y-19797D01*
X34368Y-19783D01*
X34401Y-19782D01*
X34453Y-19782D01*
X34508Y-19787D01*
X34566Y-19795D01*
X34626Y-19806D01*
X34687Y-19821D01*
X34747Y-19839D01*
X34807Y-19859D01*
X34865Y-19882D01*
X34882Y-19890D01*
X34900Y-19898D01*
X34925Y-19857D01*
X34934Y-19843D01*
X34941Y-19831D01*
X34947Y-19821D01*
X34950Y-19816D01*
X34950Y-19815D01*
X34948Y-19813D01*
X34941Y-19808D01*
X34929Y-19801D01*
X34914Y-19792D01*
X34897Y-19781D01*
X34877Y-19769D01*
X34866Y-19762D01*
X34845Y-19749D01*
X34825Y-19737D01*
X34807Y-19725D01*
X34792Y-19715D01*
X34780Y-19707D01*
X34773Y-19702D01*
X34772Y-19701D01*
X34763Y-19690D01*
X34761Y-19678D01*
X34766Y-19667D01*
X34770Y-19661D01*
X34775Y-19657D01*
X34779Y-19653D01*
X34784Y-19652D01*
X34790Y-19652D01*
X34798Y-19653D01*
X34807Y-19657D01*
X34820Y-19664D01*
X34836Y-19673D01*
X34856Y-19685D01*
X34881Y-19700D01*
X34893Y-19707D01*
X34914Y-19720D01*
X34934Y-19732D01*
X34951Y-19743D01*
X34965Y-19751D01*
X34976Y-19757D01*
X34982Y-19761D01*
X34983Y-19762D01*
X34988Y-19755D01*
X34996Y-19745D01*
X35006Y-19733D01*
X35017Y-19721D01*
X35027Y-19710D01*
X35033Y-19704D01*
X35042Y-19695D01*
X35050Y-19688D01*
X35054Y-19683D01*
X35054Y-19682D01*
X35053Y-19679D01*
X35048Y-19672D01*
X35041Y-19660D01*
X35031Y-19645D01*
X35019Y-19627D01*
X35006Y-19607D01*
X34993Y-19587D01*
X34976Y-19561D01*
X34961Y-19539D01*
X34950Y-19521D01*
X34942Y-19507D01*
X34936Y-19496D01*
X34933Y-19487D01*
X34931Y-19481D01*
X34932Y-19475D01*
X34934Y-19471D01*
X34938Y-19466D01*
X34941Y-19463D01*
X34952Y-19455D01*
X34964Y-19454D01*
X34976Y-19459D01*
X34976Y-19459D01*
X34980Y-19463D01*
X34987Y-19472D01*
X34996Y-19484D01*
X35007Y-19500D01*
X35020Y-19518D01*
X35034Y-19539D01*
X35046Y-19556D01*
X35106Y-19648D01*
X35149Y-19624D01*
X35164Y-19615D01*
X35177Y-19608D01*
X35187Y-19602D01*
X35193Y-19599D01*
X35194Y-19598D01*
X35194Y-19595D01*
X35193Y-19586D01*
X35192Y-19572D01*
X35190Y-19553D01*
X35187Y-19531D01*
X35184Y-19505D01*
X35181Y-19476D01*
X35177Y-19446D01*
X35174Y-19430D01*
X35170Y-19398D01*
X35166Y-19367D01*
X35163Y-19339D01*
X35159Y-19314D01*
X35157Y-19292D01*
X35155Y-19274D01*
X35153Y-19261D01*
X35152Y-19253D01*
X35152Y-19252D01*
X35155Y-19239D01*
X35163Y-19230D01*
X35175Y-19225D01*
X35177Y-19225D01*
X35191Y-19225D01*
X35202Y-19231D01*
X35208Y-19242D01*
X35209Y-19246D01*
X35211Y-19256D01*
X35213Y-19270D01*
X35216Y-19289D01*
X35219Y-19311D01*
X35223Y-19335D01*
X35226Y-19362D01*
X35230Y-19389D01*
X35234Y-19417D01*
X35238Y-19444D01*
X35241Y-19471D01*
X35245Y-19495D01*
X35247Y-19517D01*
X35250Y-19536D01*
X35252Y-19550D01*
X35253Y-19560D01*
X35253Y-19564D01*
X35253Y-19566D01*
X35254Y-19567D01*
X35257Y-19566D01*
X35263Y-19565D01*
X35273Y-19561D01*
X35287Y-19556D01*
X35296Y-19553D01*
X35327Y-19542D01*
X35398Y-19214D01*
X35408Y-19169D01*
X35417Y-19126D01*
X35426Y-19085D01*
X35435Y-19046D01*
X35443Y-19011D01*
X35450Y-18979D01*
X35456Y-18950D01*
X35462Y-18925D01*
X35466Y-18905D01*
X35470Y-18890D01*
X35472Y-18881D01*
X35474Y-18877D01*
X35481Y-18867D01*
X35491Y-18862D01*
X35499Y-18861D01*
X35512Y-18864D01*
X35521Y-18872D01*
X35526Y-18883D01*
X35527Y-18891D01*
X35527Y-18896D01*
X35525Y-18906D01*
X35522Y-18922D01*
X35517Y-18943D01*
X35512Y-18968D01*
X35506Y-18997D01*
X35499Y-19030D01*
X35492Y-19066D01*
X35484Y-19104D01*
X35475Y-19145D01*
X35466Y-19187D01*
X35460Y-19214D01*
X35451Y-19257D01*
X35442Y-19299D01*
X35433Y-19338D01*
X35425Y-19375D01*
X35418Y-19408D01*
X35412Y-19438D01*
X35406Y-19465D01*
X35401Y-19487D01*
X35397Y-19505D01*
X35395Y-19517D01*
X35393Y-19524D01*
X35393Y-19525D01*
X35396Y-19525D01*
X35405Y-19524D01*
X35416Y-19523D01*
X35431Y-19521D01*
X35431Y-19521D01*
X35447Y-19518D01*
X35458Y-19516D01*
X35465Y-19514D01*
X35469Y-19512D01*
X35471Y-19509D01*
X35473Y-19504D01*
X35476Y-19495D01*
X35482Y-19481D01*
X35488Y-19463D01*
X35496Y-19443D01*
X35505Y-19420D01*
X35511Y-19405D01*
X35533Y-19347D01*
X35558Y-19285D01*
X35584Y-19219D01*
X35611Y-19150D01*
X35640Y-19079D01*
X35669Y-19007D01*
X35698Y-18935D01*
X35727Y-18864D01*
X35755Y-18795D01*
X35759Y-18787D01*
X35773Y-18752D01*
X35788Y-18717D01*
X35802Y-18682D01*
X35816Y-18649D01*
X35828Y-18619D01*
X35840Y-18591D01*
X35850Y-18567D01*
X35858Y-18547D01*
X35864Y-18532D01*
X35865Y-18530D01*
X35873Y-18511D01*
X35880Y-18494D01*
X35887Y-18479D01*
X35892Y-18468D01*
X35896Y-18462D01*
X35896Y-18461D01*
X35906Y-18454D01*
X35917Y-18452D01*
X35929Y-18454D01*
X35939Y-18460D01*
X35946Y-18469D01*
X35946Y-18470D01*
X35947Y-18474D01*
X35948Y-18478D01*
X35948Y-18482D01*
X35946Y-18487D01*
X35944Y-18495D01*
X35940Y-18505D01*
X35935Y-18519D01*
X35927Y-18537D01*
X35918Y-18560D01*
X35915Y-18568D01*
X35882Y-18647D01*
X35850Y-18724D01*
X35819Y-18799D01*
X35789Y-18872D01*
X35760Y-18943D01*
X35733Y-19011D01*
X35706Y-19076D01*
X35681Y-19139D01*
X35658Y-19197D01*
X35636Y-19253D01*
X35615Y-19304D01*
X35596Y-19352D01*
X35580Y-19395D01*
X35565Y-19434D01*
X35552Y-19468D01*
X35541Y-19497D01*
X35532Y-19521D01*
X35526Y-19540D01*
X35522Y-19551D01*
X35516Y-19572D01*
X35507Y-19598D01*
X35497Y-19628D01*
X35486Y-19659D01*
X35473Y-19692D01*
X35461Y-19726D01*
X35448Y-19758D01*
X35436Y-19788D01*
X35424Y-19816D01*
X35424Y-19816D01*
X35408Y-19853D01*
X35389Y-19891D01*
X35370Y-19930D01*
X35350Y-19969D01*
X35329Y-20006D01*
X35309Y-20042D01*
X35290Y-20075D01*
X35271Y-20104D01*
X35254Y-20128D01*
X35244Y-20141D01*
X35230Y-20160D01*
X35255Y-20192D01*
X35267Y-20208D01*
X35277Y-20220D01*
X35284Y-20229D01*
X35290Y-20235D01*
X35295Y-20239D01*
X35300Y-20243D01*
X35304Y-20245D01*
X35316Y-20250D01*
X35329Y-20255D01*
X35345Y-20259D01*
X35363Y-20263D01*
X35385Y-20266D01*
X35410Y-20269D01*
X35440Y-20271D01*
X35474Y-20274D01*
X35514Y-20276D01*
X35559Y-20278D01*
X35560Y-20278D01*
X35599Y-20280D01*
X35631Y-20281D01*
X35659Y-20283D01*
X35682Y-20285D01*
X35701Y-20287D01*
X35717Y-20289D01*
X35731Y-20292D01*
X35743Y-20294D01*
X35753Y-20298D01*
X35754Y-20298D01*
X35780Y-20311D01*
X35802Y-20330D01*
X35821Y-20353D01*
X35836Y-20382D01*
X35848Y-20415D01*
X35856Y-20453D01*
X35858Y-20470D01*
X35860Y-20493D01*
X35861Y-20520D01*
X35860Y-20550D01*
X35858Y-20580D01*
X35856Y-20609D01*
X35853Y-20626D01*
X35849Y-20653D01*
X35842Y-20684D01*
X35834Y-20717D01*
X35825Y-20752D01*
X35815Y-20787D01*
X35805Y-20819D01*
X35795Y-20848D01*
X35790Y-20860D01*
X35785Y-20873D01*
X35781Y-20884D01*
X35778Y-20892D01*
X35777Y-20895D01*
X35778Y-20899D01*
X35781Y-20909D01*
X35785Y-20921D01*
X35791Y-20936D01*
X35793Y-20940D01*
X35809Y-20979D01*
X35822Y-21019D01*
X35834Y-21059D01*
X35844Y-21100D01*
X35853Y-21144D01*
X35860Y-21191D01*
X35866Y-21242D01*
X35870Y-21297D01*
X35873Y-21357D01*
X35875Y-21384D01*
X35876Y-21415D01*
X35876Y-21440D01*
X35877Y-21460D01*
X35876Y-21475D01*
X35876Y-21487D01*
X35875Y-21494D01*
X35873Y-21499D01*
X35871Y-21502D01*
X35868Y-21502D01*
X35868Y-21502D01*
X35868Y-21502D01*
G37*
G36*
X34311Y-21335D02*
X34311Y-21291D01*
X34311Y-21247D01*
X34412Y-21247D01*
X34513Y-21247D01*
X34589Y-21247D01*
X34702Y-21247D01*
X34816Y-21247D01*
X34846Y-21227D01*
X34876Y-21205D01*
X34901Y-21183D01*
X34923Y-21159D01*
X34940Y-21136D01*
X34953Y-21113D01*
X34960Y-21090D01*
X34962Y-21069D01*
X34962Y-21066D01*
X34957Y-21045D01*
X34947Y-21027D01*
X34931Y-21011D01*
X34911Y-20998D01*
X34886Y-20988D01*
X34858Y-20981D01*
X34825Y-20977D01*
X34793Y-20977D01*
X34755Y-20980D01*
X34721Y-20987D01*
X34692Y-20997D01*
X34665Y-21012D01*
X34641Y-21030D01*
X34630Y-21040D01*
X34612Y-21060D01*
X34598Y-21080D01*
X34589Y-21100D01*
X34583Y-21117D01*
X34581Y-21132D01*
X34579Y-21151D01*
X34579Y-21173D01*
X34580Y-21195D01*
X34583Y-21216D01*
X34584Y-21219D01*
X34589Y-21247D01*
X34513Y-21247D01*
X34511Y-21238D01*
X34510Y-21228D01*
X34509Y-21213D01*
X34508Y-21194D01*
X34507Y-21174D01*
X34507Y-21154D01*
X34507Y-21134D01*
X34508Y-21117D01*
X34509Y-21104D01*
X34509Y-21100D01*
X34519Y-21063D01*
X34535Y-21028D01*
X34556Y-20997D01*
X34582Y-20968D01*
X34614Y-20943D01*
X34652Y-20921D01*
X34656Y-20918D01*
X34691Y-20903D01*
X34727Y-20893D01*
X34767Y-20886D01*
X34810Y-20883D01*
X34821Y-20883D01*
X34852Y-20884D01*
X34879Y-20886D01*
X34902Y-20891D01*
X34924Y-20897D01*
X34946Y-20907D01*
X34949Y-20908D01*
X34965Y-20917D01*
X34978Y-20925D01*
X34990Y-20935D01*
X34999Y-20945D01*
X35018Y-20968D01*
X35032Y-20991D01*
X35040Y-21014D01*
X35044Y-21040D01*
X35044Y-21041D01*
X35044Y-21064D01*
X35041Y-21085D01*
X35035Y-21106D01*
X35025Y-21130D01*
X35021Y-21137D01*
X35000Y-21171D01*
X34973Y-21202D01*
X34945Y-21227D01*
X34919Y-21247D01*
X34975Y-21248D01*
X35031Y-21249D01*
X35032Y-21292D01*
X35033Y-21335D01*
X34672Y-21335D01*
X34311Y-21335D01*
X34311Y-21335D01*
X34311Y-21335D01*
G37*
G36*
X34616Y-24752D02*
X34571Y-24751D01*
X34527Y-24750D01*
X34516Y-24717D01*
X34507Y-24686D01*
X34500Y-24659D01*
X34496Y-24632D01*
X34493Y-24604D01*
X34492Y-24580D01*
X34492Y-24561D01*
X34492Y-24542D01*
X34492Y-24525D01*
X34493Y-24512D01*
X34494Y-24509D01*
X34501Y-24469D01*
X34513Y-24433D01*
X34529Y-24401D01*
X34550Y-24374D01*
X34575Y-24351D01*
X34605Y-24333D01*
X34606Y-24332D01*
X34629Y-24323D01*
X34652Y-24317D01*
X34678Y-24314D01*
X34695Y-24314D01*
X34728Y-24316D01*
X34758Y-24324D01*
X34787Y-24337D01*
X34814Y-24357D01*
X34825Y-24367D01*
X34834Y-24375D01*
X34842Y-24384D01*
X34850Y-24393D01*
X34858Y-24405D01*
X34868Y-24420D01*
X34880Y-24437D01*
X34893Y-24459D01*
X34909Y-24485D01*
X34913Y-24492D01*
X34933Y-24526D01*
X34951Y-24554D01*
X34967Y-24578D01*
X34981Y-24598D01*
X34994Y-24614D01*
X35006Y-24626D01*
X35018Y-24635D01*
X35030Y-24642D01*
X35042Y-24646D01*
X35055Y-24648D01*
X35069Y-24649D01*
X35073Y-24649D01*
X35095Y-24648D01*
X35113Y-24643D01*
X35129Y-24635D01*
X35144Y-24621D01*
X35161Y-24600D01*
X35174Y-24574D01*
X35181Y-24545D01*
X35183Y-24512D01*
X35182Y-24498D01*
X35177Y-24453D01*
X35168Y-24411D01*
X35162Y-24391D01*
X35158Y-24379D01*
X35156Y-24369D01*
X35155Y-24363D01*
X35155Y-24362D01*
X35158Y-24362D01*
X35167Y-24361D01*
X35179Y-24361D01*
X35194Y-24361D01*
X35231Y-24361D01*
X35234Y-24370D01*
X35240Y-24389D01*
X35246Y-24413D01*
X35250Y-24441D01*
X35253Y-24470D01*
X35254Y-24499D01*
X35254Y-24526D01*
X35253Y-24547D01*
X35249Y-24582D01*
X35242Y-24612D01*
X35232Y-24637D01*
X35220Y-24660D01*
X35203Y-24681D01*
X35194Y-24691D01*
X35170Y-24712D01*
X35143Y-24727D01*
X35113Y-24738D01*
X35081Y-24743D01*
X35062Y-24743D01*
X35029Y-24740D01*
X34998Y-24732D01*
X34968Y-24717D01*
X34940Y-24696D01*
X34930Y-24686D01*
X34919Y-24675D01*
X34910Y-24664D01*
X34900Y-24652D01*
X34890Y-24638D01*
X34879Y-24621D01*
X34866Y-24600D01*
X34851Y-24574D01*
X34850Y-24570D01*
X34829Y-24535D01*
X34810Y-24504D01*
X34792Y-24479D01*
X34776Y-24458D01*
X34761Y-24441D01*
X34746Y-24428D01*
X34732Y-24419D01*
X34717Y-24412D01*
X34701Y-24408D01*
X34690Y-24406D01*
X34666Y-24407D01*
X34643Y-24413D01*
X34621Y-24424D01*
X34602Y-24439D01*
X34600Y-24441D01*
X34589Y-24456D01*
X34579Y-24476D01*
X34571Y-24499D01*
X34565Y-24524D01*
X34563Y-24548D01*
X34563Y-24552D01*
X34565Y-24580D01*
X34569Y-24612D01*
X34577Y-24645D01*
X34587Y-24680D01*
X34599Y-24713D01*
X34603Y-24723D01*
X34616Y-24752D01*
X34616Y-24752D01*
X34616Y-24752D01*
G37*
G36*
X34739Y-21923D02*
X34695Y-21922D01*
X34652Y-21916D01*
X34645Y-21915D01*
X34630Y-21911D01*
X34615Y-21907D01*
X34602Y-21902D01*
X34601Y-21902D01*
X34574Y-21886D01*
X34550Y-21867D01*
X34529Y-21843D01*
X34520Y-21829D01*
X34733Y-21829D01*
X34758Y-21828D01*
X34782Y-21826D01*
X34803Y-21823D01*
X34813Y-21821D01*
X34844Y-21812D01*
X34871Y-21800D01*
X34894Y-21784D01*
X34913Y-21767D01*
X34934Y-21743D01*
X34949Y-21719D01*
X34959Y-21693D01*
X34965Y-21664D01*
X34965Y-21632D01*
X34965Y-21628D01*
X34964Y-21612D01*
X34962Y-21596D01*
X34960Y-21583D01*
X34959Y-21578D01*
X34955Y-21561D01*
X34841Y-21560D01*
X34728Y-21559D01*
X34698Y-21579D01*
X34679Y-21592D01*
X34659Y-21609D01*
X34640Y-21627D01*
X34623Y-21644D01*
X34609Y-21661D01*
X34607Y-21664D01*
X34593Y-21689D01*
X34584Y-21713D01*
X34582Y-21735D01*
X34585Y-21756D01*
X34591Y-21769D01*
X34606Y-21788D01*
X34626Y-21804D01*
X34651Y-21816D01*
X34671Y-21823D01*
X34688Y-21826D01*
X34709Y-21828D01*
X34733Y-21829D01*
X34520Y-21829D01*
X34513Y-21817D01*
X34510Y-21812D01*
X34506Y-21802D01*
X34504Y-21793D01*
X34501Y-21781D01*
X34499Y-21766D01*
X34499Y-21761D01*
X34498Y-21753D01*
X34499Y-21742D01*
X34500Y-21735D01*
X34507Y-21706D01*
X34519Y-21677D01*
X34535Y-21648D01*
X34555Y-21621D01*
X34578Y-21596D01*
X34602Y-21576D01*
X34607Y-21573D01*
X34616Y-21567D01*
X34623Y-21562D01*
X34626Y-21559D01*
X34626Y-21559D01*
X34623Y-21558D01*
X34615Y-21556D01*
X34604Y-21555D01*
X34601Y-21555D01*
X34587Y-21553D01*
X34569Y-21551D01*
X34552Y-21549D01*
X34545Y-21548D01*
X34512Y-21542D01*
X34512Y-21497D01*
X34512Y-21479D01*
X34513Y-21467D01*
X34513Y-21459D01*
X34514Y-21455D01*
X34516Y-21453D01*
X34518Y-21453D01*
X34518Y-21453D01*
X34529Y-21456D01*
X34541Y-21459D01*
X34553Y-21462D01*
X34566Y-21464D01*
X34581Y-21466D01*
X34598Y-21467D01*
X34618Y-21468D01*
X34641Y-21469D01*
X34668Y-21470D01*
X34698Y-21470D01*
X34734Y-21471D01*
X34775Y-21471D01*
X34821Y-21471D01*
X34829Y-21471D01*
X35032Y-21471D01*
X35034Y-21543D01*
X35035Y-21579D01*
X35036Y-21611D01*
X35037Y-21637D01*
X35037Y-21659D01*
X35036Y-21677D01*
X35036Y-21693D01*
X35034Y-21705D01*
X35032Y-21716D01*
X35030Y-21726D01*
X35030Y-21727D01*
X35022Y-21751D01*
X35012Y-21772D01*
X35000Y-21793D01*
X34989Y-21807D01*
X34964Y-21835D01*
X34934Y-21860D01*
X34900Y-21881D01*
X34863Y-21898D01*
X34823Y-21911D01*
X34782Y-21919D01*
X34739Y-21923D01*
X34739Y-21923D01*
X34739Y-21923D01*
G37*
G36*
X34795Y-22465D02*
X34751Y-22464D01*
X34740Y-22463D01*
X34698Y-22456D01*
X34659Y-22444D01*
X34623Y-22426D01*
X34591Y-22403D01*
X34567Y-22381D01*
X34542Y-22350D01*
X34523Y-22316D01*
X34510Y-22279D01*
X34501Y-22239D01*
X34499Y-22195D01*
X34500Y-22162D01*
X34506Y-22114D01*
X34518Y-22064D01*
X34519Y-22058D01*
X34527Y-22033D01*
X34569Y-22032D01*
X34586Y-22032D01*
X34597Y-22032D01*
X34605Y-22033D01*
X34608Y-22034D01*
X34609Y-22035D01*
X34609Y-22037D01*
X34605Y-22047D01*
X34601Y-22062D01*
X34596Y-22079D01*
X34591Y-22097D01*
X34586Y-22113D01*
X34583Y-22127D01*
X34581Y-22135D01*
X34580Y-22151D01*
X34579Y-22171D01*
X34579Y-22192D01*
X34580Y-22214D01*
X34582Y-22233D01*
X34585Y-22249D01*
X34587Y-22256D01*
X34600Y-22283D01*
X34618Y-22307D01*
X34640Y-22327D01*
X34669Y-22344D01*
X34678Y-22349D01*
X34703Y-22359D01*
X34726Y-22366D01*
X34750Y-22369D01*
X34776Y-22370D01*
X34813Y-22368D01*
X34847Y-22360D01*
X34878Y-22348D01*
X34905Y-22332D01*
X34929Y-22312D01*
X34947Y-22288D01*
X34962Y-22260D01*
X34968Y-22241D01*
X34971Y-22224D01*
X34972Y-22203D01*
X34972Y-22180D01*
X34971Y-22157D01*
X34968Y-22137D01*
X34968Y-22137D01*
X34964Y-22124D01*
X34960Y-22107D01*
X34954Y-22089D01*
X34950Y-22078D01*
X34945Y-22063D01*
X34940Y-22051D01*
X34937Y-22042D01*
X34936Y-22037D01*
X34935Y-22035D01*
X34937Y-22034D01*
X34942Y-22032D01*
X34950Y-22032D01*
X34962Y-22032D01*
X34975Y-22032D01*
X35016Y-22032D01*
X35023Y-22055D01*
X35032Y-22092D01*
X35039Y-22129D01*
X35043Y-22165D01*
X35045Y-22200D01*
X35044Y-22232D01*
X35041Y-22255D01*
X35030Y-22292D01*
X35016Y-22326D01*
X34995Y-22357D01*
X34976Y-22379D01*
X34945Y-22408D01*
X34912Y-22430D01*
X34875Y-22447D01*
X34836Y-22459D01*
X34795Y-22465D01*
X34795Y-22465D01*
X34795Y-22465D01*
G37*
G36*
X34771Y-23640D02*
X34750Y-23640D01*
X34733Y-23640D01*
X34721Y-23639D01*
X34710Y-23638D01*
X34699Y-23635D01*
X34687Y-23633D01*
X34686Y-23632D01*
X34647Y-23619D01*
X34612Y-23601D01*
X34581Y-23579D01*
X34554Y-23553D01*
X34549Y-23548D01*
X34548Y-23546D01*
X34772Y-23546D01*
X34794Y-23546D01*
X34810Y-23546D01*
X34823Y-23545D01*
X34833Y-23544D01*
X34843Y-23542D01*
X34852Y-23539D01*
X34854Y-23539D01*
X34887Y-23527D01*
X34914Y-23511D01*
X34937Y-23492D01*
X34954Y-23469D01*
X34961Y-23457D01*
X34966Y-23446D01*
X34969Y-23435D01*
X34971Y-23424D01*
X34972Y-23409D01*
X34972Y-23406D01*
X34971Y-23376D01*
X34966Y-23350D01*
X34955Y-23326D01*
X34940Y-23306D01*
X34928Y-23295D01*
X34905Y-23278D01*
X34878Y-23264D01*
X34846Y-23255D01*
X34811Y-23249D01*
X34774Y-23247D01*
X34739Y-23248D01*
X34701Y-23254D01*
X34668Y-23264D01*
X34639Y-23278D01*
X34615Y-23295D01*
X34596Y-23316D01*
X34583Y-23339D01*
X34574Y-23362D01*
X34570Y-23386D01*
X34571Y-23412D01*
X34572Y-23422D01*
X34580Y-23450D01*
X34593Y-23474D01*
X34611Y-23496D01*
X34635Y-23514D01*
X34651Y-23524D01*
X34668Y-23531D01*
X34683Y-23537D01*
X34697Y-23541D01*
X34713Y-23544D01*
X34731Y-23545D01*
X34754Y-23546D01*
X34772Y-23546D01*
X34548Y-23546D01*
X34531Y-23522D01*
X34516Y-23491D01*
X34505Y-23457D01*
X34499Y-23421D01*
X34498Y-23384D01*
X34500Y-23366D01*
X34507Y-23329D01*
X34519Y-23295D01*
X34537Y-23263D01*
X34560Y-23235D01*
X34587Y-23210D01*
X34619Y-23190D01*
X34654Y-23173D01*
X34693Y-23161D01*
X34701Y-23160D01*
X34714Y-23157D01*
X34726Y-23155D01*
X34739Y-23154D01*
X34755Y-23154D01*
X34774Y-23154D01*
X34783Y-23155D01*
X34807Y-23156D01*
X34827Y-23157D01*
X34844Y-23159D01*
X34859Y-23163D01*
X34875Y-23168D01*
X34894Y-23174D01*
X34895Y-23175D01*
X34923Y-23188D01*
X34950Y-23206D01*
X34975Y-23227D01*
X34998Y-23250D01*
X35014Y-23274D01*
X35027Y-23298D01*
X35035Y-23322D01*
X35041Y-23349D01*
X35044Y-23379D01*
X35044Y-23386D01*
X35044Y-23422D01*
X35040Y-23454D01*
X35032Y-23483D01*
X35021Y-23510D01*
X35012Y-23525D01*
X34990Y-23554D01*
X34963Y-23579D01*
X34933Y-23601D01*
X34898Y-23618D01*
X34861Y-23632D01*
X34854Y-23634D01*
X34842Y-23636D01*
X34831Y-23638D01*
X34819Y-23639D01*
X34805Y-23640D01*
X34787Y-23640D01*
X34771Y-23640D01*
X34771Y-23640D01*
X34771Y-23640D01*
G37*
G36*
X35032Y-23104D02*
X35024Y-23102D01*
X35019Y-23101D01*
X35009Y-23100D01*
X34994Y-23097D01*
X34974Y-23094D01*
X34949Y-23090D01*
X34921Y-23085D01*
X34890Y-23080D01*
X34855Y-23075D01*
X34819Y-23069D01*
X34781Y-23062D01*
X34771Y-23061D01*
X34732Y-23054D01*
X34695Y-23049D01*
X34661Y-23043D01*
X34629Y-23038D01*
X34600Y-23033D01*
X34575Y-23029D01*
X34553Y-23025D01*
X34537Y-23023D01*
X34526Y-23021D01*
X34520Y-23020D01*
X34519Y-23020D01*
X34517Y-23019D01*
X34515Y-23017D01*
X34513Y-23013D01*
X34513Y-23006D01*
X34512Y-22995D01*
X34512Y-22979D01*
X34512Y-22976D01*
X34512Y-22934D01*
X34680Y-22891D01*
X34713Y-22883D01*
X34745Y-22875D01*
X34775Y-22867D01*
X34804Y-22860D01*
X34829Y-22854D01*
X34851Y-22848D01*
X34868Y-22844D01*
X34880Y-22842D01*
X34883Y-22841D01*
X34898Y-22838D01*
X34909Y-22835D01*
X34916Y-22834D01*
X34919Y-22832D01*
X34916Y-22831D01*
X34908Y-22829D01*
X34897Y-22826D01*
X34883Y-22823D01*
X34874Y-22821D01*
X34858Y-22817D01*
X34839Y-22812D01*
X34815Y-22805D01*
X34788Y-22797D01*
X34759Y-22789D01*
X34728Y-22780D01*
X34695Y-22770D01*
X34681Y-22766D01*
X34514Y-22716D01*
X34513Y-22676D01*
X34512Y-22635D01*
X34770Y-22593D01*
X34809Y-22587D01*
X34847Y-22581D01*
X34883Y-22575D01*
X34915Y-22570D01*
X34945Y-22565D01*
X34971Y-22561D01*
X34993Y-22558D01*
X35010Y-22555D01*
X35022Y-22553D01*
X35029Y-22552D01*
X35030Y-22552D01*
X35031Y-22555D01*
X35032Y-22562D01*
X35032Y-22573D01*
X35032Y-22585D01*
X35032Y-22598D01*
X35032Y-22608D01*
X35031Y-22615D01*
X35030Y-22618D01*
X35026Y-22618D01*
X35017Y-22620D01*
X35003Y-22622D01*
X34985Y-22625D01*
X34964Y-22628D01*
X34940Y-22632D01*
X34919Y-22635D01*
X34889Y-22640D01*
X34857Y-22645D01*
X34825Y-22650D01*
X34794Y-22655D01*
X34766Y-22659D01*
X34743Y-22663D01*
X34736Y-22664D01*
X34715Y-22667D01*
X34695Y-22670D01*
X34678Y-22673D01*
X34665Y-22675D01*
X34657Y-22676D01*
X34654Y-22677D01*
X34653Y-22678D01*
X34656Y-22680D01*
X34664Y-22682D01*
X34678Y-22686D01*
X34686Y-22688D01*
X34697Y-22690D01*
X34713Y-22695D01*
X34734Y-22700D01*
X34758Y-22707D01*
X34785Y-22715D01*
X34815Y-22723D01*
X34846Y-22732D01*
X34877Y-22742D01*
X34878Y-22742D01*
X35031Y-22787D01*
X35031Y-22826D01*
X35031Y-22865D01*
X34872Y-22907D01*
X34840Y-22915D01*
X34809Y-22923D01*
X34780Y-22931D01*
X34752Y-22937D01*
X34728Y-22943D01*
X34708Y-22948D01*
X34692Y-22952D01*
X34682Y-22954D01*
X34680Y-22954D01*
X34667Y-22956D01*
X34657Y-22958D01*
X34650Y-22960D01*
X34649Y-22960D01*
X34652Y-22962D01*
X34661Y-22963D01*
X34675Y-22966D01*
X34695Y-22970D01*
X34720Y-22974D01*
X34752Y-22979D01*
X34789Y-22985D01*
X34832Y-22992D01*
X34872Y-22998D01*
X34902Y-23002D01*
X34931Y-23007D01*
X34957Y-23011D01*
X34980Y-23015D01*
X34999Y-23018D01*
X35014Y-23020D01*
X35024Y-23022D01*
X35028Y-23023D01*
X35028Y-23023D01*
X35030Y-23026D01*
X35031Y-23033D01*
X35032Y-23044D01*
X35032Y-23062D01*
X35032Y-23064D01*
X35032Y-23104D01*
X35032Y-23104D01*
X35032Y-23104D01*
G37*
G36*
X34512Y-24181D02*
X34512Y-24139D01*
X34512Y-24096D01*
X34664Y-24096D01*
X34815Y-24096D01*
X34834Y-24085D01*
X34862Y-24067D01*
X34888Y-24046D01*
X34910Y-24023D01*
X34930Y-24000D01*
X34946Y-23976D01*
X34957Y-23952D01*
X34964Y-23929D01*
X34966Y-23908D01*
X34966Y-23907D01*
X34961Y-23887D01*
X34950Y-23870D01*
X34935Y-23856D01*
X34917Y-23845D01*
X34902Y-23841D01*
X34894Y-23840D01*
X34881Y-23839D01*
X34862Y-23838D01*
X34837Y-23837D01*
X34806Y-23837D01*
X34769Y-23836D01*
X34727Y-23836D01*
X34699Y-23835D01*
X34512Y-23834D01*
X34512Y-23792D01*
X34512Y-23749D01*
X34685Y-23749D01*
X34731Y-23750D01*
X34772Y-23750D01*
X34807Y-23750D01*
X34838Y-23751D01*
X34864Y-23752D01*
X34886Y-23753D01*
X34905Y-23754D01*
X34921Y-23756D01*
X34935Y-23758D01*
X34946Y-23761D01*
X34956Y-23765D01*
X34966Y-23768D01*
X34973Y-23772D01*
X34994Y-23786D01*
X35012Y-23805D01*
X35027Y-23827D01*
X35037Y-23853D01*
X35044Y-23880D01*
X35045Y-23900D01*
X35042Y-23932D01*
X35033Y-23963D01*
X35018Y-23995D01*
X34998Y-24025D01*
X34992Y-24032D01*
X34983Y-24043D01*
X34973Y-24052D01*
X34963Y-24062D01*
X34949Y-24073D01*
X34932Y-24087D01*
X34931Y-24087D01*
X34921Y-24096D01*
X34976Y-24096D01*
X35032Y-24096D01*
X35032Y-24139D01*
X35032Y-24181D01*
X34772Y-24181D01*
X34512Y-24181D01*
X34512Y-24181D01*
X34512Y-24181D01*
G37*
M02*
