G04 (created by PCBNEW-RS274X (2012-apr-16-27)-stable) date Sun 17 Nov 2013 10:41:53 AM EET*
G01*
G70*
G90*
%MOIN*%
G04 Gerber Fmt 3.4, Leading zero omitted, Abs format*
%FSLAX34Y34*%
G04 APERTURE LIST*
%ADD10C,0.006000*%
%ADD11C,0.007500*%
%ADD12C,0.005000*%
%ADD13C,0.015000*%
%ADD14C,0.012000*%
%ADD15C,0.000100*%
G04 APERTURE END LIST*
G54D10*
G54D11*
X32048Y-19892D02*
X32029Y-19935D01*
X32010Y-19950D01*
X31971Y-19964D01*
X31914Y-19964D01*
X31876Y-19950D01*
X31857Y-19935D01*
X31838Y-19907D01*
X31838Y-19792D01*
X32238Y-19792D01*
X32238Y-19892D01*
X32219Y-19921D01*
X32200Y-19935D01*
X32162Y-19950D01*
X32124Y-19950D01*
X32086Y-19935D01*
X32067Y-19921D01*
X32048Y-19892D01*
X32048Y-19792D01*
X31952Y-20078D02*
X31952Y-20221D01*
X31838Y-20050D02*
X32238Y-20150D01*
X31838Y-20250D01*
X31857Y-20335D02*
X31838Y-20378D01*
X31838Y-20449D01*
X31857Y-20478D01*
X31876Y-20492D01*
X31914Y-20507D01*
X31952Y-20507D01*
X31990Y-20492D01*
X32010Y-20478D01*
X32029Y-20449D01*
X32048Y-20392D01*
X32067Y-20364D01*
X32086Y-20349D01*
X32124Y-20335D01*
X32162Y-20335D01*
X32200Y-20349D01*
X32219Y-20364D01*
X32238Y-20392D01*
X32238Y-20464D01*
X32219Y-20507D01*
X32048Y-20635D02*
X32048Y-20735D01*
X31838Y-20778D02*
X31838Y-20635D01*
X32238Y-20635D01*
X32238Y-20778D01*
X32048Y-21235D02*
X32029Y-21278D01*
X32010Y-21293D01*
X31971Y-21307D01*
X31914Y-21307D01*
X31876Y-21293D01*
X31857Y-21278D01*
X31838Y-21250D01*
X31838Y-21135D01*
X32238Y-21135D01*
X32238Y-21235D01*
X32219Y-21264D01*
X32200Y-21278D01*
X32162Y-21293D01*
X32124Y-21293D01*
X32086Y-21278D01*
X32067Y-21264D01*
X32048Y-21235D01*
X32048Y-21135D01*
X32238Y-21493D02*
X32238Y-21550D01*
X32219Y-21578D01*
X32181Y-21607D01*
X32105Y-21621D01*
X31971Y-21621D01*
X31895Y-21607D01*
X31857Y-21578D01*
X31838Y-21550D01*
X31838Y-21493D01*
X31857Y-21464D01*
X31895Y-21435D01*
X31971Y-21421D01*
X32105Y-21421D01*
X32181Y-21435D01*
X32219Y-21464D01*
X32238Y-21493D01*
X31952Y-21735D02*
X31952Y-21878D01*
X31838Y-21707D02*
X32238Y-21807D01*
X31838Y-21907D01*
X31838Y-22178D02*
X32029Y-22078D01*
X31838Y-22006D02*
X32238Y-22006D01*
X32238Y-22121D01*
X32219Y-22149D01*
X32200Y-22164D01*
X32162Y-22178D01*
X32105Y-22178D01*
X32067Y-22164D01*
X32048Y-22149D01*
X32029Y-22121D01*
X32029Y-22006D01*
X31838Y-22306D02*
X32238Y-22306D01*
X32238Y-22378D01*
X32219Y-22421D01*
X32181Y-22449D01*
X32143Y-22464D01*
X32067Y-22478D01*
X32010Y-22478D01*
X31933Y-22464D01*
X31895Y-22449D01*
X31857Y-22421D01*
X31838Y-22378D01*
X31838Y-22306D01*
X32105Y-22807D02*
X31838Y-22878D01*
X32105Y-22950D01*
X31838Y-23222D02*
X31838Y-23050D01*
X31838Y-23136D02*
X32238Y-23136D01*
X32181Y-23107D01*
X32143Y-23079D01*
X32124Y-23050D01*
X20736Y-23638D02*
X20736Y-24038D01*
X20593Y-23638D02*
X20593Y-24038D01*
X20421Y-23638D01*
X20421Y-24038D01*
X20279Y-23638D02*
X20279Y-24038D01*
X20107Y-23638D01*
X20107Y-24038D01*
X19965Y-23848D02*
X19865Y-23848D01*
X19822Y-23638D02*
X19965Y-23638D01*
X19965Y-24038D01*
X19822Y-24038D01*
X19522Y-23638D02*
X19622Y-23829D01*
X19694Y-23638D02*
X19694Y-24038D01*
X19579Y-24038D01*
X19551Y-24019D01*
X19536Y-24000D01*
X19522Y-23962D01*
X19522Y-23905D01*
X19536Y-23867D01*
X19551Y-23848D01*
X19579Y-23829D01*
X19694Y-23829D01*
X19165Y-23638D02*
X19165Y-24038D01*
X19050Y-24038D01*
X19022Y-24019D01*
X19007Y-24000D01*
X18993Y-23962D01*
X18993Y-23905D01*
X19007Y-23867D01*
X19022Y-23848D01*
X19050Y-23829D01*
X19165Y-23829D01*
X18865Y-23638D02*
X18865Y-24038D01*
X18722Y-23638D02*
X18722Y-24038D01*
X18550Y-23638D01*
X18550Y-24038D01*
X18422Y-23657D02*
X18379Y-23638D01*
X18308Y-23638D01*
X18279Y-23657D01*
X18265Y-23676D01*
X18250Y-23714D01*
X18250Y-23752D01*
X18265Y-23790D01*
X18279Y-23810D01*
X18308Y-23829D01*
X18365Y-23848D01*
X18393Y-23867D01*
X18408Y-23886D01*
X18422Y-23924D01*
X18422Y-23962D01*
X18408Y-24000D01*
X18393Y-24019D01*
X18365Y-24038D01*
X18293Y-24038D01*
X18250Y-24019D01*
X14219Y-27115D02*
X14238Y-27086D01*
X14238Y-27043D01*
X14219Y-27000D01*
X14181Y-26972D01*
X14143Y-26957D01*
X14067Y-26943D01*
X14010Y-26943D01*
X13933Y-26957D01*
X13895Y-26972D01*
X13857Y-27000D01*
X13838Y-27043D01*
X13838Y-27072D01*
X13857Y-27115D01*
X13876Y-27129D01*
X14010Y-27129D01*
X14010Y-27072D01*
X13838Y-27257D02*
X14238Y-27257D01*
X13838Y-27429D01*
X14238Y-27429D01*
X13838Y-27571D02*
X14238Y-27571D01*
X14238Y-27643D01*
X14219Y-27686D01*
X14181Y-27714D01*
X14143Y-27729D01*
X14067Y-27743D01*
X14010Y-27743D01*
X13933Y-27729D01*
X13895Y-27714D01*
X13857Y-27686D01*
X13838Y-27643D01*
X13838Y-27571D01*
X14838Y-26070D02*
X15238Y-26070D01*
X15238Y-26185D01*
X15219Y-26213D01*
X15200Y-26228D01*
X15162Y-26242D01*
X15105Y-26242D01*
X15067Y-26228D01*
X15048Y-26213D01*
X15029Y-26185D01*
X15029Y-26070D01*
X15238Y-26342D02*
X14838Y-26413D01*
X15124Y-26470D01*
X14838Y-26528D01*
X15238Y-26599D01*
X14838Y-26713D02*
X15238Y-26713D01*
X14952Y-26813D01*
X15238Y-26913D01*
X14838Y-26913D01*
X14800Y-26985D02*
X14800Y-27214D01*
X15048Y-27385D02*
X15029Y-27428D01*
X15010Y-27443D01*
X14971Y-27457D01*
X14914Y-27457D01*
X14876Y-27443D01*
X14857Y-27428D01*
X14838Y-27400D01*
X14838Y-27285D01*
X15238Y-27285D01*
X15238Y-27385D01*
X15219Y-27414D01*
X15200Y-27428D01*
X15162Y-27443D01*
X15124Y-27443D01*
X15086Y-27428D01*
X15067Y-27414D01*
X15048Y-27385D01*
X15048Y-27285D01*
X15105Y-27714D02*
X14838Y-27714D01*
X15257Y-27643D02*
X14971Y-27571D01*
X14971Y-27757D01*
X15838Y-26070D02*
X16238Y-26070D01*
X16238Y-26185D01*
X16219Y-26213D01*
X16200Y-26228D01*
X16162Y-26242D01*
X16105Y-26242D01*
X16067Y-26228D01*
X16048Y-26213D01*
X16029Y-26185D01*
X16029Y-26070D01*
X16238Y-26342D02*
X15838Y-26413D01*
X16124Y-26470D01*
X15838Y-26528D01*
X16238Y-26599D01*
X15838Y-26713D02*
X16238Y-26713D01*
X15952Y-26813D01*
X16238Y-26913D01*
X15838Y-26913D01*
X15800Y-26985D02*
X15800Y-27214D01*
X16048Y-27385D02*
X16029Y-27428D01*
X16010Y-27443D01*
X15971Y-27457D01*
X15914Y-27457D01*
X15876Y-27443D01*
X15857Y-27428D01*
X15838Y-27400D01*
X15838Y-27285D01*
X16238Y-27285D01*
X16238Y-27385D01*
X16219Y-27414D01*
X16200Y-27428D01*
X16162Y-27443D01*
X16124Y-27443D01*
X16086Y-27428D01*
X16067Y-27414D01*
X16048Y-27385D01*
X16048Y-27285D01*
X16200Y-27571D02*
X16219Y-27585D01*
X16238Y-27614D01*
X16238Y-27685D01*
X16219Y-27714D01*
X16200Y-27728D01*
X16162Y-27743D01*
X16124Y-27743D01*
X16067Y-27728D01*
X15838Y-27557D01*
X15838Y-27743D01*
X16857Y-25527D02*
X16838Y-25570D01*
X16838Y-25641D01*
X16857Y-25670D01*
X16876Y-25684D01*
X16914Y-25699D01*
X16952Y-25699D01*
X16990Y-25684D01*
X17010Y-25670D01*
X17029Y-25641D01*
X17048Y-25584D01*
X17067Y-25556D01*
X17086Y-25541D01*
X17124Y-25527D01*
X17162Y-25527D01*
X17200Y-25541D01*
X17219Y-25556D01*
X17238Y-25584D01*
X17238Y-25656D01*
X17219Y-25699D01*
X16838Y-25827D02*
X17238Y-25827D01*
X17238Y-25942D01*
X17219Y-25970D01*
X17200Y-25985D01*
X17162Y-25999D01*
X17105Y-25999D01*
X17067Y-25985D01*
X17048Y-25970D01*
X17029Y-25942D01*
X17029Y-25827D01*
X16838Y-26127D02*
X17238Y-26127D01*
X17200Y-26256D02*
X17219Y-26270D01*
X17238Y-26299D01*
X17238Y-26370D01*
X17219Y-26399D01*
X17200Y-26413D01*
X17162Y-26428D01*
X17124Y-26428D01*
X17067Y-26413D01*
X16838Y-26242D01*
X16838Y-26428D01*
X16800Y-26485D02*
X16800Y-26714D01*
X16838Y-26785D02*
X17238Y-26785D01*
X16952Y-26885D01*
X17238Y-26985D01*
X16838Y-26985D01*
X17238Y-27186D02*
X17238Y-27243D01*
X17219Y-27271D01*
X17181Y-27300D01*
X17105Y-27314D01*
X16971Y-27314D01*
X16895Y-27300D01*
X16857Y-27271D01*
X16838Y-27243D01*
X16838Y-27186D01*
X16857Y-27157D01*
X16895Y-27128D01*
X16971Y-27114D01*
X17105Y-27114D01*
X17181Y-27128D01*
X17219Y-27157D01*
X17238Y-27186D01*
X16857Y-27428D02*
X16838Y-27471D01*
X16838Y-27542D01*
X16857Y-27571D01*
X16876Y-27585D01*
X16914Y-27600D01*
X16952Y-27600D01*
X16990Y-27585D01*
X17010Y-27571D01*
X17029Y-27542D01*
X17048Y-27485D01*
X17067Y-27457D01*
X17086Y-27442D01*
X17124Y-27428D01*
X17162Y-27428D01*
X17200Y-27442D01*
X17219Y-27457D01*
X17238Y-27485D01*
X17238Y-27557D01*
X17219Y-27600D01*
X16838Y-27728D02*
X17238Y-27728D01*
X17857Y-25727D02*
X17838Y-25770D01*
X17838Y-25841D01*
X17857Y-25870D01*
X17876Y-25884D01*
X17914Y-25899D01*
X17952Y-25899D01*
X17990Y-25884D01*
X18010Y-25870D01*
X18029Y-25841D01*
X18048Y-25784D01*
X18067Y-25756D01*
X18086Y-25741D01*
X18124Y-25727D01*
X18162Y-25727D01*
X18200Y-25741D01*
X18219Y-25756D01*
X18238Y-25784D01*
X18238Y-25856D01*
X18219Y-25899D01*
X17838Y-26027D02*
X18238Y-26027D01*
X18238Y-26142D01*
X18219Y-26170D01*
X18200Y-26185D01*
X18162Y-26199D01*
X18105Y-26199D01*
X18067Y-26185D01*
X18048Y-26170D01*
X18029Y-26142D01*
X18029Y-26027D01*
X17838Y-26327D02*
X18238Y-26327D01*
X18200Y-26456D02*
X18219Y-26470D01*
X18238Y-26499D01*
X18238Y-26570D01*
X18219Y-26599D01*
X18200Y-26613D01*
X18162Y-26628D01*
X18124Y-26628D01*
X18067Y-26613D01*
X17838Y-26442D01*
X17838Y-26628D01*
X17800Y-26685D02*
X17800Y-26914D01*
X17857Y-26971D02*
X17838Y-27014D01*
X17838Y-27085D01*
X17857Y-27114D01*
X17876Y-27128D01*
X17914Y-27143D01*
X17952Y-27143D01*
X17990Y-27128D01*
X18010Y-27114D01*
X18029Y-27085D01*
X18048Y-27028D01*
X18067Y-27000D01*
X18086Y-26985D01*
X18124Y-26971D01*
X18162Y-26971D01*
X18200Y-26985D01*
X18219Y-27000D01*
X18238Y-27028D01*
X18238Y-27100D01*
X18219Y-27143D01*
X17876Y-27443D02*
X17857Y-27429D01*
X17838Y-27386D01*
X17838Y-27357D01*
X17857Y-27314D01*
X17895Y-27286D01*
X17933Y-27271D01*
X18010Y-27257D01*
X18067Y-27257D01*
X18143Y-27271D01*
X18181Y-27286D01*
X18219Y-27314D01*
X18238Y-27357D01*
X18238Y-27386D01*
X18219Y-27429D01*
X18200Y-27443D01*
X17838Y-27571D02*
X18238Y-27571D01*
X17838Y-27743D02*
X18067Y-27614D01*
X18238Y-27743D02*
X18010Y-27571D01*
X18838Y-25784D02*
X19238Y-25784D01*
X19200Y-25913D02*
X19219Y-25927D01*
X19238Y-25956D01*
X19238Y-26027D01*
X19219Y-26056D01*
X19200Y-26070D01*
X19162Y-26085D01*
X19124Y-26085D01*
X19067Y-26070D01*
X18838Y-25899D01*
X18838Y-26085D01*
X18876Y-26385D02*
X18857Y-26371D01*
X18838Y-26328D01*
X18838Y-26299D01*
X18857Y-26256D01*
X18895Y-26228D01*
X18933Y-26213D01*
X19010Y-26199D01*
X19067Y-26199D01*
X19143Y-26213D01*
X19181Y-26228D01*
X19219Y-26256D01*
X19238Y-26299D01*
X19238Y-26328D01*
X19219Y-26371D01*
X19200Y-26385D01*
X19200Y-26499D02*
X19219Y-26513D01*
X19238Y-26542D01*
X19238Y-26613D01*
X19219Y-26642D01*
X19200Y-26656D01*
X19162Y-26671D01*
X19124Y-26671D01*
X19067Y-26656D01*
X18838Y-26485D01*
X18838Y-26671D01*
X18800Y-26728D02*
X18800Y-26957D01*
X18857Y-27014D02*
X18838Y-27057D01*
X18838Y-27128D01*
X18857Y-27157D01*
X18876Y-27171D01*
X18914Y-27186D01*
X18952Y-27186D01*
X18990Y-27171D01*
X19010Y-27157D01*
X19029Y-27128D01*
X19048Y-27071D01*
X19067Y-27043D01*
X19086Y-27028D01*
X19124Y-27014D01*
X19162Y-27014D01*
X19200Y-27028D01*
X19219Y-27043D01*
X19238Y-27071D01*
X19238Y-27143D01*
X19219Y-27186D01*
X18838Y-27314D02*
X19238Y-27314D01*
X19238Y-27386D01*
X19219Y-27429D01*
X19181Y-27457D01*
X19143Y-27472D01*
X19067Y-27486D01*
X19010Y-27486D01*
X18933Y-27472D01*
X18895Y-27457D01*
X18857Y-27429D01*
X18838Y-27386D01*
X18838Y-27314D01*
X18952Y-27600D02*
X18952Y-27743D01*
X18838Y-27572D02*
X19238Y-27672D01*
X18838Y-27772D01*
X19838Y-26070D02*
X20238Y-26070D01*
X20238Y-26185D01*
X20219Y-26213D01*
X20200Y-26228D01*
X20162Y-26242D01*
X20105Y-26242D01*
X20067Y-26228D01*
X20048Y-26213D01*
X20029Y-26185D01*
X20029Y-26070D01*
X20238Y-26342D02*
X19838Y-26413D01*
X20124Y-26470D01*
X19838Y-26528D01*
X20238Y-26599D01*
X19838Y-26713D02*
X20238Y-26713D01*
X19952Y-26813D01*
X20238Y-26913D01*
X19838Y-26913D01*
X19800Y-26985D02*
X19800Y-27214D01*
X19876Y-27457D02*
X19857Y-27443D01*
X19838Y-27400D01*
X19838Y-27371D01*
X19857Y-27328D01*
X19895Y-27300D01*
X19933Y-27285D01*
X20010Y-27271D01*
X20067Y-27271D01*
X20143Y-27285D01*
X20181Y-27300D01*
X20219Y-27328D01*
X20238Y-27371D01*
X20238Y-27400D01*
X20219Y-27443D01*
X20200Y-27457D01*
X20200Y-27571D02*
X20219Y-27585D01*
X20238Y-27614D01*
X20238Y-27685D01*
X20219Y-27714D01*
X20200Y-27728D01*
X20162Y-27743D01*
X20124Y-27743D01*
X20067Y-27728D01*
X19838Y-27557D01*
X19838Y-27743D01*
X21219Y-26400D02*
X21238Y-26371D01*
X21238Y-26328D01*
X21219Y-26285D01*
X21181Y-26257D01*
X21143Y-26242D01*
X21067Y-26228D01*
X21010Y-26228D01*
X20933Y-26242D01*
X20895Y-26257D01*
X20857Y-26285D01*
X20838Y-26328D01*
X20838Y-26357D01*
X20857Y-26400D01*
X20876Y-26414D01*
X21010Y-26414D01*
X21010Y-26357D01*
X20838Y-26542D02*
X21238Y-26542D01*
X21238Y-26657D01*
X21219Y-26685D01*
X21200Y-26700D01*
X21162Y-26714D01*
X21105Y-26714D01*
X21067Y-26700D01*
X21048Y-26685D01*
X21029Y-26657D01*
X21029Y-26542D01*
X20838Y-26842D02*
X21238Y-26842D01*
X21238Y-27043D02*
X21238Y-27100D01*
X21219Y-27128D01*
X21181Y-27157D01*
X21105Y-27171D01*
X20971Y-27171D01*
X20895Y-27157D01*
X20857Y-27128D01*
X20838Y-27100D01*
X20838Y-27043D01*
X20857Y-27014D01*
X20895Y-26985D01*
X20971Y-26971D01*
X21105Y-26971D01*
X21181Y-26985D01*
X21219Y-27014D01*
X21238Y-27043D01*
X20838Y-27457D02*
X20838Y-27285D01*
X20838Y-27371D02*
X21238Y-27371D01*
X21181Y-27342D01*
X21143Y-27314D01*
X21124Y-27285D01*
X21238Y-27643D02*
X21238Y-27671D01*
X21219Y-27700D01*
X21200Y-27714D01*
X21162Y-27728D01*
X21086Y-27743D01*
X20990Y-27743D01*
X20914Y-27728D01*
X20876Y-27714D01*
X20857Y-27700D01*
X20838Y-27671D01*
X20838Y-27643D01*
X20857Y-27614D01*
X20876Y-27600D01*
X20914Y-27585D01*
X20990Y-27571D01*
X21086Y-27571D01*
X21162Y-27585D01*
X21200Y-27600D01*
X21219Y-27614D01*
X21238Y-27643D01*
X21857Y-25527D02*
X21838Y-25570D01*
X21838Y-25641D01*
X21857Y-25670D01*
X21876Y-25684D01*
X21914Y-25699D01*
X21952Y-25699D01*
X21990Y-25684D01*
X22010Y-25670D01*
X22029Y-25641D01*
X22048Y-25584D01*
X22067Y-25556D01*
X22086Y-25541D01*
X22124Y-25527D01*
X22162Y-25527D01*
X22200Y-25541D01*
X22219Y-25556D01*
X22238Y-25584D01*
X22238Y-25656D01*
X22219Y-25699D01*
X21838Y-25827D02*
X22238Y-25827D01*
X22238Y-25942D01*
X22219Y-25970D01*
X22200Y-25985D01*
X22162Y-25999D01*
X22105Y-25999D01*
X22067Y-25985D01*
X22048Y-25970D01*
X22029Y-25942D01*
X22029Y-25827D01*
X21838Y-26127D02*
X22238Y-26127D01*
X21838Y-26428D02*
X21838Y-26256D01*
X21838Y-26342D02*
X22238Y-26342D01*
X22181Y-26313D01*
X22143Y-26285D01*
X22124Y-26256D01*
X21800Y-26485D02*
X21800Y-26714D01*
X21838Y-26785D02*
X22238Y-26785D01*
X21952Y-26885D01*
X22238Y-26985D01*
X21838Y-26985D01*
X22238Y-27186D02*
X22238Y-27243D01*
X22219Y-27271D01*
X22181Y-27300D01*
X22105Y-27314D01*
X21971Y-27314D01*
X21895Y-27300D01*
X21857Y-27271D01*
X21838Y-27243D01*
X21838Y-27186D01*
X21857Y-27157D01*
X21895Y-27128D01*
X21971Y-27114D01*
X22105Y-27114D01*
X22181Y-27128D01*
X22219Y-27157D01*
X22238Y-27186D01*
X21857Y-27428D02*
X21838Y-27471D01*
X21838Y-27542D01*
X21857Y-27571D01*
X21876Y-27585D01*
X21914Y-27600D01*
X21952Y-27600D01*
X21990Y-27585D01*
X22010Y-27571D01*
X22029Y-27542D01*
X22048Y-27485D01*
X22067Y-27457D01*
X22086Y-27442D01*
X22124Y-27428D01*
X22162Y-27428D01*
X22200Y-27442D01*
X22219Y-27457D01*
X22238Y-27485D01*
X22238Y-27557D01*
X22219Y-27600D01*
X21838Y-27728D02*
X22238Y-27728D01*
X22857Y-25727D02*
X22838Y-25770D01*
X22838Y-25841D01*
X22857Y-25870D01*
X22876Y-25884D01*
X22914Y-25899D01*
X22952Y-25899D01*
X22990Y-25884D01*
X23010Y-25870D01*
X23029Y-25841D01*
X23048Y-25784D01*
X23067Y-25756D01*
X23086Y-25741D01*
X23124Y-25727D01*
X23162Y-25727D01*
X23200Y-25741D01*
X23219Y-25756D01*
X23238Y-25784D01*
X23238Y-25856D01*
X23219Y-25899D01*
X22838Y-26027D02*
X23238Y-26027D01*
X23238Y-26142D01*
X23219Y-26170D01*
X23200Y-26185D01*
X23162Y-26199D01*
X23105Y-26199D01*
X23067Y-26185D01*
X23048Y-26170D01*
X23029Y-26142D01*
X23029Y-26027D01*
X22838Y-26327D02*
X23238Y-26327D01*
X22838Y-26628D02*
X22838Y-26456D01*
X22838Y-26542D02*
X23238Y-26542D01*
X23181Y-26513D01*
X23143Y-26485D01*
X23124Y-26456D01*
X22800Y-26685D02*
X22800Y-26914D01*
X22857Y-26971D02*
X22838Y-27014D01*
X22838Y-27085D01*
X22857Y-27114D01*
X22876Y-27128D01*
X22914Y-27143D01*
X22952Y-27143D01*
X22990Y-27128D01*
X23010Y-27114D01*
X23029Y-27085D01*
X23048Y-27028D01*
X23067Y-27000D01*
X23086Y-26985D01*
X23124Y-26971D01*
X23162Y-26971D01*
X23200Y-26985D01*
X23219Y-27000D01*
X23238Y-27028D01*
X23238Y-27100D01*
X23219Y-27143D01*
X22876Y-27443D02*
X22857Y-27429D01*
X22838Y-27386D01*
X22838Y-27357D01*
X22857Y-27314D01*
X22895Y-27286D01*
X22933Y-27271D01*
X23010Y-27257D01*
X23067Y-27257D01*
X23143Y-27271D01*
X23181Y-27286D01*
X23219Y-27314D01*
X23238Y-27357D01*
X23238Y-27386D01*
X23219Y-27429D01*
X23200Y-27443D01*
X22838Y-27571D02*
X23238Y-27571D01*
X22838Y-27743D02*
X23067Y-27614D01*
X23238Y-27743D02*
X23010Y-27571D01*
X24238Y-24213D02*
X23914Y-24213D01*
X23876Y-24228D01*
X23857Y-24242D01*
X23838Y-24271D01*
X23838Y-24328D01*
X23857Y-24356D01*
X23876Y-24371D01*
X23914Y-24385D01*
X24238Y-24385D01*
X23857Y-24513D02*
X23838Y-24556D01*
X23838Y-24627D01*
X23857Y-24656D01*
X23876Y-24670D01*
X23914Y-24685D01*
X23952Y-24685D01*
X23990Y-24670D01*
X24010Y-24656D01*
X24029Y-24627D01*
X24048Y-24570D01*
X24067Y-24542D01*
X24086Y-24527D01*
X24124Y-24513D01*
X24162Y-24513D01*
X24200Y-24527D01*
X24219Y-24542D01*
X24238Y-24570D01*
X24238Y-24642D01*
X24219Y-24685D01*
X23952Y-24799D02*
X23952Y-24942D01*
X23838Y-24771D02*
X24238Y-24871D01*
X23838Y-24971D01*
X23838Y-25242D02*
X24029Y-25142D01*
X23838Y-25070D02*
X24238Y-25070D01*
X24238Y-25185D01*
X24219Y-25213D01*
X24200Y-25228D01*
X24162Y-25242D01*
X24105Y-25242D01*
X24067Y-25228D01*
X24048Y-25213D01*
X24029Y-25185D01*
X24029Y-25070D01*
X24238Y-25328D02*
X24238Y-25499D01*
X23838Y-25413D02*
X24238Y-25413D01*
X24200Y-25585D02*
X24219Y-25599D01*
X24238Y-25628D01*
X24238Y-25699D01*
X24219Y-25728D01*
X24200Y-25742D01*
X24162Y-25757D01*
X24124Y-25757D01*
X24067Y-25742D01*
X23838Y-25571D01*
X23838Y-25757D01*
X23800Y-25814D02*
X23800Y-26043D01*
X23838Y-26286D02*
X24029Y-26186D01*
X23838Y-26114D02*
X24238Y-26114D01*
X24238Y-26229D01*
X24219Y-26257D01*
X24200Y-26272D01*
X24162Y-26286D01*
X24105Y-26286D01*
X24067Y-26272D01*
X24048Y-26257D01*
X24029Y-26229D01*
X24029Y-26114D01*
X24238Y-26386D02*
X23838Y-26586D01*
X24238Y-26586D02*
X23838Y-26386D01*
X24257Y-26915D02*
X23743Y-26658D01*
X23952Y-27000D02*
X23952Y-27143D01*
X23838Y-26972D02*
X24238Y-27072D01*
X23838Y-27172D01*
X23838Y-27271D02*
X24238Y-27271D01*
X23838Y-27443D01*
X24238Y-27443D01*
X24105Y-27714D02*
X23838Y-27714D01*
X24257Y-27643D02*
X23971Y-27571D01*
X23971Y-27757D01*
X25238Y-23984D02*
X24914Y-23984D01*
X24876Y-23999D01*
X24857Y-24013D01*
X24838Y-24042D01*
X24838Y-24099D01*
X24857Y-24127D01*
X24876Y-24142D01*
X24914Y-24156D01*
X25238Y-24156D01*
X24857Y-24284D02*
X24838Y-24327D01*
X24838Y-24398D01*
X24857Y-24427D01*
X24876Y-24441D01*
X24914Y-24456D01*
X24952Y-24456D01*
X24990Y-24441D01*
X25010Y-24427D01*
X25029Y-24398D01*
X25048Y-24341D01*
X25067Y-24313D01*
X25086Y-24298D01*
X25124Y-24284D01*
X25162Y-24284D01*
X25200Y-24298D01*
X25219Y-24313D01*
X25238Y-24341D01*
X25238Y-24413D01*
X25219Y-24456D01*
X24952Y-24570D02*
X24952Y-24713D01*
X24838Y-24542D02*
X25238Y-24642D01*
X24838Y-24742D01*
X24838Y-25013D02*
X25029Y-24913D01*
X24838Y-24841D02*
X25238Y-24841D01*
X25238Y-24956D01*
X25219Y-24984D01*
X25200Y-24999D01*
X25162Y-25013D01*
X25105Y-25013D01*
X25067Y-24999D01*
X25048Y-24984D01*
X25029Y-24956D01*
X25029Y-24841D01*
X25238Y-25099D02*
X25238Y-25270D01*
X24838Y-25184D02*
X25238Y-25184D01*
X25200Y-25356D02*
X25219Y-25370D01*
X25238Y-25399D01*
X25238Y-25470D01*
X25219Y-25499D01*
X25200Y-25513D01*
X25162Y-25528D01*
X25124Y-25528D01*
X25067Y-25513D01*
X24838Y-25342D01*
X24838Y-25528D01*
X24800Y-25585D02*
X24800Y-25814D01*
X24838Y-26057D02*
X25029Y-25957D01*
X24838Y-25885D02*
X25238Y-25885D01*
X25238Y-26000D01*
X25219Y-26028D01*
X25200Y-26043D01*
X25162Y-26057D01*
X25105Y-26057D01*
X25067Y-26043D01*
X25048Y-26028D01*
X25029Y-26000D01*
X25029Y-25885D01*
X25238Y-26143D02*
X25238Y-26314D01*
X24838Y-26228D02*
X25238Y-26228D01*
X24857Y-26400D02*
X24838Y-26443D01*
X24838Y-26514D01*
X24857Y-26543D01*
X24876Y-26557D01*
X24914Y-26572D01*
X24952Y-26572D01*
X24990Y-26557D01*
X25010Y-26543D01*
X25029Y-26514D01*
X25048Y-26457D01*
X25067Y-26429D01*
X25086Y-26414D01*
X25124Y-26400D01*
X25162Y-26400D01*
X25200Y-26414D01*
X25219Y-26429D01*
X25238Y-26457D01*
X25238Y-26529D01*
X25219Y-26572D01*
X25257Y-26915D02*
X24743Y-26658D01*
X24952Y-27000D02*
X24952Y-27143D01*
X24838Y-26972D02*
X25238Y-27072D01*
X24838Y-27172D01*
X24838Y-27271D02*
X25238Y-27271D01*
X24838Y-27443D01*
X25238Y-27443D01*
X25200Y-27571D02*
X25219Y-27585D01*
X25238Y-27614D01*
X25238Y-27685D01*
X25219Y-27714D01*
X25200Y-27728D01*
X25162Y-27743D01*
X25124Y-27743D01*
X25067Y-27728D01*
X24838Y-27557D01*
X24838Y-27743D01*
X20736Y-18838D02*
X20736Y-19238D01*
X20593Y-18838D02*
X20593Y-19238D01*
X20421Y-18838D01*
X20421Y-19238D01*
X20279Y-18838D02*
X20279Y-19238D01*
X20107Y-18838D01*
X20107Y-19238D01*
X19965Y-19048D02*
X19865Y-19048D01*
X19822Y-18838D02*
X19965Y-18838D01*
X19965Y-19238D01*
X19822Y-19238D01*
X19522Y-18838D02*
X19622Y-19029D01*
X19694Y-18838D02*
X19694Y-19238D01*
X19579Y-19238D01*
X19551Y-19219D01*
X19536Y-19200D01*
X19522Y-19162D01*
X19522Y-19105D01*
X19536Y-19067D01*
X19551Y-19048D01*
X19579Y-19029D01*
X19694Y-19029D01*
X19165Y-18838D02*
X19165Y-19238D01*
X19050Y-19238D01*
X19022Y-19219D01*
X19007Y-19200D01*
X18993Y-19162D01*
X18993Y-19105D01*
X19007Y-19067D01*
X19022Y-19048D01*
X19050Y-19029D01*
X19165Y-19029D01*
X18865Y-18838D02*
X18865Y-19238D01*
X18722Y-18838D02*
X18722Y-19238D01*
X18550Y-18838D01*
X18550Y-19238D01*
X18422Y-18857D02*
X18379Y-18838D01*
X18308Y-18838D01*
X18279Y-18857D01*
X18265Y-18876D01*
X18250Y-18914D01*
X18250Y-18952D01*
X18265Y-18990D01*
X18279Y-19010D01*
X18308Y-19029D01*
X18365Y-19048D01*
X18393Y-19067D01*
X18408Y-19086D01*
X18422Y-19124D01*
X18422Y-19162D01*
X18408Y-19200D01*
X18393Y-19219D01*
X18365Y-19238D01*
X18293Y-19238D01*
X18250Y-19219D01*
X14238Y-14414D02*
X14238Y-14271D01*
X14048Y-14257D01*
X14067Y-14271D01*
X14086Y-14300D01*
X14086Y-14371D01*
X14067Y-14400D01*
X14048Y-14414D01*
X14010Y-14429D01*
X13914Y-14429D01*
X13876Y-14414D01*
X13857Y-14400D01*
X13838Y-14371D01*
X13838Y-14300D01*
X13857Y-14271D01*
X13876Y-14257D01*
X14238Y-14515D02*
X13838Y-14615D01*
X14238Y-14715D01*
X15219Y-14429D02*
X15238Y-14400D01*
X15238Y-14357D01*
X15219Y-14314D01*
X15181Y-14286D01*
X15143Y-14271D01*
X15067Y-14257D01*
X15010Y-14257D01*
X14933Y-14271D01*
X14895Y-14286D01*
X14857Y-14314D01*
X14838Y-14357D01*
X14838Y-14386D01*
X14857Y-14429D01*
X14876Y-14443D01*
X15010Y-14443D01*
X15010Y-14386D01*
X14838Y-14571D02*
X15238Y-14571D01*
X14838Y-14743D01*
X15238Y-14743D01*
X14838Y-14885D02*
X15238Y-14885D01*
X15238Y-14957D01*
X15219Y-15000D01*
X15181Y-15028D01*
X15143Y-15043D01*
X15067Y-15057D01*
X15010Y-15057D01*
X14933Y-15043D01*
X14895Y-15028D01*
X14857Y-15000D01*
X14838Y-14957D01*
X14838Y-14885D01*
X16219Y-14429D02*
X16238Y-14400D01*
X16238Y-14357D01*
X16219Y-14314D01*
X16181Y-14286D01*
X16143Y-14271D01*
X16067Y-14257D01*
X16010Y-14257D01*
X15933Y-14271D01*
X15895Y-14286D01*
X15857Y-14314D01*
X15838Y-14357D01*
X15838Y-14386D01*
X15857Y-14429D01*
X15876Y-14443D01*
X16010Y-14443D01*
X16010Y-14386D01*
X15838Y-14571D02*
X16238Y-14571D01*
X16238Y-14686D01*
X16219Y-14714D01*
X16200Y-14729D01*
X16162Y-14743D01*
X16105Y-14743D01*
X16067Y-14729D01*
X16048Y-14714D01*
X16029Y-14686D01*
X16029Y-14571D01*
X15838Y-14871D02*
X16238Y-14871D01*
X16238Y-15072D02*
X16238Y-15129D01*
X16219Y-15157D01*
X16181Y-15186D01*
X16105Y-15200D01*
X15971Y-15200D01*
X15895Y-15186D01*
X15857Y-15157D01*
X15838Y-15129D01*
X15838Y-15072D01*
X15857Y-15043D01*
X15895Y-15014D01*
X15971Y-15000D01*
X16105Y-15000D01*
X16181Y-15014D01*
X16219Y-15043D01*
X16238Y-15072D01*
X15838Y-15486D02*
X15838Y-15314D01*
X15838Y-15400D02*
X16238Y-15400D01*
X16181Y-15371D01*
X16143Y-15343D01*
X16124Y-15314D01*
X16857Y-14257D02*
X16838Y-14300D01*
X16838Y-14371D01*
X16857Y-14400D01*
X16876Y-14414D01*
X16914Y-14429D01*
X16952Y-14429D01*
X16990Y-14414D01*
X17010Y-14400D01*
X17029Y-14371D01*
X17048Y-14314D01*
X17067Y-14286D01*
X17086Y-14271D01*
X17124Y-14257D01*
X17162Y-14257D01*
X17200Y-14271D01*
X17219Y-14286D01*
X17238Y-14314D01*
X17238Y-14386D01*
X17219Y-14429D01*
X16838Y-14557D02*
X17238Y-14557D01*
X17238Y-14672D01*
X17219Y-14700D01*
X17200Y-14715D01*
X17162Y-14729D01*
X17105Y-14729D01*
X17067Y-14715D01*
X17048Y-14700D01*
X17029Y-14672D01*
X17029Y-14557D01*
X16838Y-14857D02*
X17238Y-14857D01*
X17238Y-14972D02*
X17238Y-15158D01*
X17086Y-15058D01*
X17086Y-15100D01*
X17067Y-15129D01*
X17048Y-15143D01*
X17010Y-15158D01*
X16914Y-15158D01*
X16876Y-15143D01*
X16857Y-15129D01*
X16838Y-15100D01*
X16838Y-15015D01*
X16857Y-14986D01*
X16876Y-14972D01*
X16800Y-15215D02*
X16800Y-15444D01*
X16838Y-15515D02*
X17238Y-15515D01*
X16952Y-15615D01*
X17238Y-15715D01*
X16838Y-15715D01*
X16838Y-15858D02*
X17238Y-15858D01*
X16857Y-15987D02*
X16838Y-16030D01*
X16838Y-16101D01*
X16857Y-16130D01*
X16876Y-16144D01*
X16914Y-16159D01*
X16952Y-16159D01*
X16990Y-16144D01*
X17010Y-16130D01*
X17029Y-16101D01*
X17048Y-16044D01*
X17067Y-16016D01*
X17086Y-16001D01*
X17124Y-15987D01*
X17162Y-15987D01*
X17200Y-16001D01*
X17219Y-16016D01*
X17238Y-16044D01*
X17238Y-16116D01*
X17219Y-16159D01*
X17238Y-16345D02*
X17238Y-16402D01*
X17219Y-16430D01*
X17181Y-16459D01*
X17105Y-16473D01*
X16971Y-16473D01*
X16895Y-16459D01*
X16857Y-16430D01*
X16838Y-16402D01*
X16838Y-16345D01*
X16857Y-16316D01*
X16895Y-16287D01*
X16971Y-16273D01*
X17105Y-16273D01*
X17181Y-16287D01*
X17219Y-16316D01*
X17238Y-16345D01*
X17257Y-16816D02*
X16743Y-16559D01*
X17238Y-16915D02*
X16914Y-16915D01*
X16876Y-16930D01*
X16857Y-16944D01*
X16838Y-16973D01*
X16838Y-17030D01*
X16857Y-17058D01*
X16876Y-17073D01*
X16914Y-17087D01*
X17238Y-17087D01*
X16857Y-17215D02*
X16838Y-17258D01*
X16838Y-17329D01*
X16857Y-17358D01*
X16876Y-17372D01*
X16914Y-17387D01*
X16952Y-17387D01*
X16990Y-17372D01*
X17010Y-17358D01*
X17029Y-17329D01*
X17048Y-17272D01*
X17067Y-17244D01*
X17086Y-17229D01*
X17124Y-17215D01*
X17162Y-17215D01*
X17200Y-17229D01*
X17219Y-17244D01*
X17238Y-17272D01*
X17238Y-17344D01*
X17219Y-17387D01*
X16952Y-17501D02*
X16952Y-17644D01*
X16838Y-17473D02*
X17238Y-17573D01*
X16838Y-17673D01*
X16838Y-17944D02*
X17029Y-17844D01*
X16838Y-17772D02*
X17238Y-17772D01*
X17238Y-17887D01*
X17219Y-17915D01*
X17200Y-17930D01*
X17162Y-17944D01*
X17105Y-17944D01*
X17067Y-17930D01*
X17048Y-17915D01*
X17029Y-17887D01*
X17029Y-17772D01*
X17238Y-18030D02*
X17238Y-18201D01*
X16838Y-18115D02*
X17238Y-18115D01*
X17238Y-18273D02*
X17238Y-18459D01*
X17086Y-18359D01*
X17086Y-18401D01*
X17067Y-18430D01*
X17048Y-18444D01*
X17010Y-18459D01*
X16914Y-18459D01*
X16876Y-18444D01*
X16857Y-18430D01*
X16838Y-18401D01*
X16838Y-18316D01*
X16857Y-18287D01*
X16876Y-18273D01*
X16800Y-18516D02*
X16800Y-18745D01*
X16838Y-18988D02*
X17029Y-18888D01*
X16838Y-18816D02*
X17238Y-18816D01*
X17238Y-18931D01*
X17219Y-18959D01*
X17200Y-18974D01*
X17162Y-18988D01*
X17105Y-18988D01*
X17067Y-18974D01*
X17048Y-18959D01*
X17029Y-18931D01*
X17029Y-18816D01*
X17238Y-19088D02*
X16838Y-19288D01*
X17238Y-19288D02*
X16838Y-19088D01*
X18219Y-14529D02*
X18238Y-14500D01*
X18238Y-14457D01*
X18219Y-14414D01*
X18181Y-14386D01*
X18143Y-14371D01*
X18067Y-14357D01*
X18010Y-14357D01*
X17933Y-14371D01*
X17895Y-14386D01*
X17857Y-14414D01*
X17838Y-14457D01*
X17838Y-14486D01*
X17857Y-14529D01*
X17876Y-14543D01*
X18010Y-14543D01*
X18010Y-14486D01*
X17838Y-14671D02*
X18238Y-14671D01*
X18238Y-14786D01*
X18219Y-14814D01*
X18200Y-14829D01*
X18162Y-14843D01*
X18105Y-14843D01*
X18067Y-14829D01*
X18048Y-14814D01*
X18029Y-14786D01*
X18029Y-14671D01*
X17838Y-14971D02*
X18238Y-14971D01*
X18238Y-15172D02*
X18238Y-15229D01*
X18219Y-15257D01*
X18181Y-15286D01*
X18105Y-15300D01*
X17971Y-15300D01*
X17895Y-15286D01*
X17857Y-15257D01*
X17838Y-15229D01*
X17838Y-15172D01*
X17857Y-15143D01*
X17895Y-15114D01*
X17971Y-15100D01*
X18105Y-15100D01*
X18181Y-15114D01*
X18219Y-15143D01*
X18238Y-15172D01*
X18238Y-15400D02*
X18238Y-15600D01*
X17838Y-15471D01*
X19219Y-14529D02*
X19238Y-14500D01*
X19238Y-14457D01*
X19219Y-14414D01*
X19181Y-14386D01*
X19143Y-14371D01*
X19067Y-14357D01*
X19010Y-14357D01*
X18933Y-14371D01*
X18895Y-14386D01*
X18857Y-14414D01*
X18838Y-14457D01*
X18838Y-14486D01*
X18857Y-14529D01*
X18876Y-14543D01*
X19010Y-14543D01*
X19010Y-14486D01*
X18838Y-14671D02*
X19238Y-14671D01*
X19238Y-14786D01*
X19219Y-14814D01*
X19200Y-14829D01*
X19162Y-14843D01*
X19105Y-14843D01*
X19067Y-14829D01*
X19048Y-14814D01*
X19029Y-14786D01*
X19029Y-14671D01*
X18838Y-14971D02*
X19238Y-14971D01*
X19238Y-15172D02*
X19238Y-15229D01*
X19219Y-15257D01*
X19181Y-15286D01*
X19105Y-15300D01*
X18971Y-15300D01*
X18895Y-15286D01*
X18857Y-15257D01*
X18838Y-15229D01*
X18838Y-15172D01*
X18857Y-15143D01*
X18895Y-15114D01*
X18971Y-15100D01*
X19105Y-15100D01*
X19181Y-15114D01*
X19219Y-15143D01*
X19238Y-15172D01*
X19238Y-15571D02*
X19238Y-15428D01*
X19048Y-15414D01*
X19067Y-15428D01*
X19086Y-15457D01*
X19086Y-15528D01*
X19067Y-15557D01*
X19048Y-15571D01*
X19010Y-15586D01*
X18914Y-15586D01*
X18876Y-15571D01*
X18857Y-15557D01*
X18838Y-15528D01*
X18838Y-15457D01*
X18857Y-15428D01*
X18876Y-15414D01*
X19838Y-14371D02*
X20238Y-14371D01*
X20238Y-14486D01*
X20219Y-14514D01*
X20200Y-14529D01*
X20162Y-14543D01*
X20105Y-14543D01*
X20067Y-14529D01*
X20048Y-14514D01*
X20029Y-14486D01*
X20029Y-14371D01*
X20238Y-14643D02*
X19838Y-14714D01*
X20124Y-14771D01*
X19838Y-14829D01*
X20238Y-14900D01*
X19838Y-15014D02*
X20238Y-15014D01*
X19952Y-15114D01*
X20238Y-15214D01*
X19838Y-15214D01*
X19800Y-15286D02*
X19800Y-15515D01*
X19952Y-15572D02*
X19952Y-15715D01*
X19838Y-15544D02*
X20238Y-15644D01*
X19838Y-15744D01*
X19838Y-16001D02*
X19838Y-15829D01*
X19838Y-15915D02*
X20238Y-15915D01*
X20181Y-15886D01*
X20143Y-15858D01*
X20124Y-15829D01*
X20838Y-14371D02*
X21238Y-14371D01*
X21238Y-14486D01*
X21219Y-14514D01*
X21200Y-14529D01*
X21162Y-14543D01*
X21105Y-14543D01*
X21067Y-14529D01*
X21048Y-14514D01*
X21029Y-14486D01*
X21029Y-14371D01*
X21238Y-14643D02*
X20838Y-14714D01*
X21124Y-14771D01*
X20838Y-14829D01*
X21238Y-14900D01*
X20838Y-15014D02*
X21238Y-15014D01*
X20952Y-15114D01*
X21238Y-15214D01*
X20838Y-15214D01*
X20800Y-15286D02*
X20800Y-15515D01*
X20952Y-15572D02*
X20952Y-15715D01*
X20838Y-15544D02*
X21238Y-15644D01*
X20838Y-15744D01*
X21238Y-15815D02*
X21238Y-16001D01*
X21086Y-15901D01*
X21086Y-15943D01*
X21067Y-15972D01*
X21048Y-15986D01*
X21010Y-16001D01*
X20914Y-16001D01*
X20876Y-15986D01*
X20857Y-15972D01*
X20838Y-15943D01*
X20838Y-15858D01*
X20857Y-15829D01*
X20876Y-15815D01*
X24219Y-14529D02*
X24238Y-14500D01*
X24238Y-14457D01*
X24219Y-14414D01*
X24181Y-14386D01*
X24143Y-14371D01*
X24067Y-14357D01*
X24010Y-14357D01*
X23933Y-14371D01*
X23895Y-14386D01*
X23857Y-14414D01*
X23838Y-14457D01*
X23838Y-14486D01*
X23857Y-14529D01*
X23876Y-14543D01*
X24010Y-14543D01*
X24010Y-14486D01*
X23838Y-14671D02*
X24238Y-14671D01*
X24238Y-14786D01*
X24219Y-14814D01*
X24200Y-14829D01*
X24162Y-14843D01*
X24105Y-14843D01*
X24067Y-14829D01*
X24048Y-14814D01*
X24029Y-14786D01*
X24029Y-14671D01*
X23838Y-14971D02*
X24238Y-14971D01*
X24238Y-15172D02*
X24238Y-15229D01*
X24219Y-15257D01*
X24181Y-15286D01*
X24105Y-15300D01*
X23971Y-15300D01*
X23895Y-15286D01*
X23857Y-15257D01*
X23838Y-15229D01*
X23838Y-15172D01*
X23857Y-15143D01*
X23895Y-15114D01*
X23971Y-15100D01*
X24105Y-15100D01*
X24181Y-15114D01*
X24219Y-15143D01*
X24238Y-15172D01*
X24200Y-15414D02*
X24219Y-15428D01*
X24238Y-15457D01*
X24238Y-15528D01*
X24219Y-15557D01*
X24200Y-15571D01*
X24162Y-15586D01*
X24124Y-15586D01*
X24067Y-15571D01*
X23838Y-15400D01*
X23838Y-15586D01*
X24857Y-14357D02*
X24838Y-14400D01*
X24838Y-14471D01*
X24857Y-14500D01*
X24876Y-14514D01*
X24914Y-14529D01*
X24952Y-14529D01*
X24990Y-14514D01*
X25010Y-14500D01*
X25029Y-14471D01*
X25048Y-14414D01*
X25067Y-14386D01*
X25086Y-14371D01*
X25124Y-14357D01*
X25162Y-14357D01*
X25200Y-14371D01*
X25219Y-14386D01*
X25238Y-14414D01*
X25238Y-14486D01*
X25219Y-14529D01*
X25048Y-14757D02*
X25029Y-14800D01*
X25010Y-14815D01*
X24971Y-14829D01*
X24914Y-14829D01*
X24876Y-14815D01*
X24857Y-14800D01*
X24838Y-14772D01*
X24838Y-14657D01*
X25238Y-14657D01*
X25238Y-14757D01*
X25219Y-14786D01*
X25200Y-14800D01*
X25162Y-14815D01*
X25124Y-14815D01*
X25086Y-14800D01*
X25067Y-14786D01*
X25048Y-14757D01*
X25048Y-14657D01*
X25238Y-14929D02*
X24838Y-15000D01*
X25124Y-15057D01*
X24838Y-15115D01*
X25238Y-15186D01*
X25238Y-15258D02*
X25238Y-15429D01*
X24838Y-15343D02*
X25238Y-15343D01*
X24838Y-15529D02*
X25238Y-15529D01*
X25238Y-15601D01*
X25219Y-15644D01*
X25181Y-15672D01*
X25143Y-15687D01*
X25067Y-15701D01*
X25010Y-15701D01*
X24933Y-15687D01*
X24895Y-15672D01*
X24857Y-15644D01*
X24838Y-15601D01*
X24838Y-15529D01*
X24838Y-15829D02*
X25238Y-15829D01*
X25238Y-16030D02*
X25238Y-16087D01*
X25219Y-16115D01*
X25181Y-16144D01*
X25105Y-16158D01*
X24971Y-16158D01*
X24895Y-16144D01*
X24857Y-16115D01*
X24838Y-16087D01*
X24838Y-16030D01*
X24857Y-16001D01*
X24895Y-15972D01*
X24971Y-15958D01*
X25105Y-15958D01*
X25181Y-15972D01*
X25219Y-16001D01*
X25238Y-16030D01*
X44738Y-21284D02*
X44414Y-21284D01*
X44376Y-21299D01*
X44357Y-21313D01*
X44338Y-21342D01*
X44338Y-21399D01*
X44357Y-21427D01*
X44376Y-21442D01*
X44414Y-21456D01*
X44738Y-21456D01*
X44357Y-21584D02*
X44338Y-21627D01*
X44338Y-21698D01*
X44357Y-21727D01*
X44376Y-21741D01*
X44414Y-21756D01*
X44452Y-21756D01*
X44490Y-21741D01*
X44510Y-21727D01*
X44529Y-21698D01*
X44548Y-21641D01*
X44567Y-21613D01*
X44586Y-21598D01*
X44624Y-21584D01*
X44662Y-21584D01*
X44700Y-21598D01*
X44719Y-21613D01*
X44738Y-21641D01*
X44738Y-21713D01*
X44719Y-21756D01*
X44452Y-21870D02*
X44452Y-22013D01*
X44338Y-21842D02*
X44738Y-21942D01*
X44338Y-22042D01*
X44338Y-22313D02*
X44529Y-22213D01*
X44338Y-22141D02*
X44738Y-22141D01*
X44738Y-22256D01*
X44719Y-22284D01*
X44700Y-22299D01*
X44662Y-22313D01*
X44605Y-22313D01*
X44567Y-22299D01*
X44548Y-22284D01*
X44529Y-22256D01*
X44529Y-22141D01*
X44738Y-22399D02*
X44738Y-22570D01*
X44338Y-22484D02*
X44738Y-22484D01*
X44700Y-22656D02*
X44719Y-22670D01*
X44738Y-22699D01*
X44738Y-22770D01*
X44719Y-22799D01*
X44700Y-22813D01*
X44662Y-22828D01*
X44624Y-22828D01*
X44567Y-22813D01*
X44338Y-22642D01*
X44338Y-22828D01*
X44300Y-22885D02*
X44300Y-23114D01*
X44376Y-23357D02*
X44357Y-23343D01*
X44338Y-23300D01*
X44338Y-23271D01*
X44357Y-23228D01*
X44395Y-23200D01*
X44433Y-23185D01*
X44510Y-23171D01*
X44567Y-23171D01*
X44643Y-23185D01*
X44681Y-23200D01*
X44719Y-23228D01*
X44738Y-23271D01*
X44738Y-23300D01*
X44719Y-23343D01*
X44700Y-23357D01*
X44738Y-23443D02*
X44738Y-23614D01*
X44338Y-23528D02*
X44738Y-23528D01*
X44357Y-23700D02*
X44338Y-23743D01*
X44338Y-23814D01*
X44357Y-23843D01*
X44376Y-23857D01*
X44414Y-23872D01*
X44452Y-23872D01*
X44490Y-23857D01*
X44510Y-23843D01*
X44529Y-23814D01*
X44548Y-23757D01*
X44567Y-23729D01*
X44586Y-23714D01*
X44624Y-23700D01*
X44662Y-23700D01*
X44700Y-23714D01*
X44719Y-23729D01*
X44738Y-23757D01*
X44738Y-23829D01*
X44719Y-23872D01*
X44757Y-24215D02*
X44243Y-23958D01*
X44452Y-24300D02*
X44452Y-24443D01*
X44338Y-24272D02*
X44738Y-24372D01*
X44338Y-24472D01*
X44338Y-24571D02*
X44738Y-24571D01*
X44338Y-24743D01*
X44738Y-24743D01*
X44338Y-25043D02*
X44338Y-24871D01*
X44338Y-24957D02*
X44738Y-24957D01*
X44681Y-24928D01*
X44643Y-24900D01*
X44624Y-24871D01*
X47838Y-21284D02*
X47514Y-21284D01*
X47476Y-21299D01*
X47457Y-21313D01*
X47438Y-21342D01*
X47438Y-21399D01*
X47457Y-21427D01*
X47476Y-21442D01*
X47514Y-21456D01*
X47838Y-21456D01*
X47457Y-21584D02*
X47438Y-21627D01*
X47438Y-21698D01*
X47457Y-21727D01*
X47476Y-21741D01*
X47514Y-21756D01*
X47552Y-21756D01*
X47590Y-21741D01*
X47610Y-21727D01*
X47629Y-21698D01*
X47648Y-21641D01*
X47667Y-21613D01*
X47686Y-21598D01*
X47724Y-21584D01*
X47762Y-21584D01*
X47800Y-21598D01*
X47819Y-21613D01*
X47838Y-21641D01*
X47838Y-21713D01*
X47819Y-21756D01*
X47552Y-21870D02*
X47552Y-22013D01*
X47438Y-21842D02*
X47838Y-21942D01*
X47438Y-22042D01*
X47438Y-22313D02*
X47629Y-22213D01*
X47438Y-22141D02*
X47838Y-22141D01*
X47838Y-22256D01*
X47819Y-22284D01*
X47800Y-22299D01*
X47762Y-22313D01*
X47705Y-22313D01*
X47667Y-22299D01*
X47648Y-22284D01*
X47629Y-22256D01*
X47629Y-22141D01*
X47838Y-22399D02*
X47838Y-22570D01*
X47438Y-22484D02*
X47838Y-22484D01*
X47800Y-22656D02*
X47819Y-22670D01*
X47838Y-22699D01*
X47838Y-22770D01*
X47819Y-22799D01*
X47800Y-22813D01*
X47762Y-22828D01*
X47724Y-22828D01*
X47667Y-22813D01*
X47438Y-22642D01*
X47438Y-22828D01*
X47400Y-22885D02*
X47400Y-23114D01*
X47438Y-23357D02*
X47629Y-23257D01*
X47438Y-23185D02*
X47838Y-23185D01*
X47838Y-23300D01*
X47819Y-23328D01*
X47800Y-23343D01*
X47762Y-23357D01*
X47705Y-23357D01*
X47667Y-23343D01*
X47648Y-23328D01*
X47629Y-23300D01*
X47629Y-23185D01*
X47838Y-23443D02*
X47838Y-23614D01*
X47438Y-23528D02*
X47838Y-23528D01*
X47457Y-23700D02*
X47438Y-23743D01*
X47438Y-23814D01*
X47457Y-23843D01*
X47476Y-23857D01*
X47514Y-23872D01*
X47552Y-23872D01*
X47590Y-23857D01*
X47610Y-23843D01*
X47629Y-23814D01*
X47648Y-23757D01*
X47667Y-23729D01*
X47686Y-23714D01*
X47724Y-23700D01*
X47762Y-23700D01*
X47800Y-23714D01*
X47819Y-23729D01*
X47838Y-23757D01*
X47838Y-23829D01*
X47819Y-23872D01*
X47857Y-24215D02*
X47343Y-23958D01*
X47552Y-24300D02*
X47552Y-24443D01*
X47438Y-24272D02*
X47838Y-24372D01*
X47438Y-24472D01*
X47438Y-24571D02*
X47838Y-24571D01*
X47438Y-24743D01*
X47838Y-24743D01*
X47800Y-24871D02*
X47819Y-24885D01*
X47838Y-24914D01*
X47838Y-24985D01*
X47819Y-25014D01*
X47800Y-25028D01*
X47762Y-25043D01*
X47724Y-25043D01*
X47667Y-25028D01*
X47438Y-24857D01*
X47438Y-25043D01*
X48257Y-23027D02*
X48238Y-23070D01*
X48238Y-23141D01*
X48257Y-23170D01*
X48276Y-23184D01*
X48314Y-23199D01*
X48352Y-23199D01*
X48390Y-23184D01*
X48410Y-23170D01*
X48429Y-23141D01*
X48448Y-23084D01*
X48467Y-23056D01*
X48486Y-23041D01*
X48524Y-23027D01*
X48562Y-23027D01*
X48600Y-23041D01*
X48619Y-23056D01*
X48638Y-23084D01*
X48638Y-23156D01*
X48619Y-23199D01*
X48238Y-23327D02*
X48638Y-23327D01*
X48638Y-23442D01*
X48619Y-23470D01*
X48600Y-23485D01*
X48562Y-23499D01*
X48505Y-23499D01*
X48467Y-23485D01*
X48448Y-23470D01*
X48429Y-23442D01*
X48429Y-23327D01*
X48238Y-23627D02*
X48638Y-23627D01*
X48600Y-23756D02*
X48619Y-23770D01*
X48638Y-23799D01*
X48638Y-23870D01*
X48619Y-23899D01*
X48600Y-23913D01*
X48562Y-23928D01*
X48524Y-23928D01*
X48467Y-23913D01*
X48238Y-23742D01*
X48238Y-23928D01*
X48200Y-23985D02*
X48200Y-24214D01*
X48238Y-24285D02*
X48638Y-24285D01*
X48238Y-24457D01*
X48638Y-24457D01*
X48257Y-24585D02*
X48238Y-24628D01*
X48238Y-24699D01*
X48257Y-24728D01*
X48276Y-24742D01*
X48314Y-24757D01*
X48352Y-24757D01*
X48390Y-24742D01*
X48410Y-24728D01*
X48429Y-24699D01*
X48448Y-24642D01*
X48467Y-24614D01*
X48486Y-24599D01*
X48524Y-24585D01*
X48562Y-24585D01*
X48600Y-24599D01*
X48619Y-24614D01*
X48638Y-24642D01*
X48638Y-24714D01*
X48619Y-24757D01*
X48257Y-24871D02*
X48238Y-24914D01*
X48238Y-24985D01*
X48257Y-25014D01*
X48276Y-25028D01*
X48314Y-25043D01*
X48352Y-25043D01*
X48390Y-25028D01*
X48410Y-25014D01*
X48429Y-24985D01*
X48448Y-24928D01*
X48467Y-24900D01*
X48486Y-24885D01*
X48524Y-24871D01*
X48562Y-24871D01*
X48600Y-24885D01*
X48619Y-24900D01*
X48638Y-24928D01*
X48638Y-25000D01*
X48619Y-25043D01*
X49057Y-23027D02*
X49038Y-23070D01*
X49038Y-23141D01*
X49057Y-23170D01*
X49076Y-23184D01*
X49114Y-23199D01*
X49152Y-23199D01*
X49190Y-23184D01*
X49210Y-23170D01*
X49229Y-23141D01*
X49248Y-23084D01*
X49267Y-23056D01*
X49286Y-23041D01*
X49324Y-23027D01*
X49362Y-23027D01*
X49400Y-23041D01*
X49419Y-23056D01*
X49438Y-23084D01*
X49438Y-23156D01*
X49419Y-23199D01*
X49038Y-23327D02*
X49438Y-23327D01*
X49438Y-23442D01*
X49419Y-23470D01*
X49400Y-23485D01*
X49362Y-23499D01*
X49305Y-23499D01*
X49267Y-23485D01*
X49248Y-23470D01*
X49229Y-23442D01*
X49229Y-23327D01*
X49038Y-23627D02*
X49438Y-23627D01*
X49400Y-23756D02*
X49419Y-23770D01*
X49438Y-23799D01*
X49438Y-23870D01*
X49419Y-23899D01*
X49400Y-23913D01*
X49362Y-23928D01*
X49324Y-23928D01*
X49267Y-23913D01*
X49038Y-23742D01*
X49038Y-23928D01*
X49000Y-23985D02*
X49000Y-24214D01*
X49057Y-24271D02*
X49038Y-24314D01*
X49038Y-24385D01*
X49057Y-24414D01*
X49076Y-24428D01*
X49114Y-24443D01*
X49152Y-24443D01*
X49190Y-24428D01*
X49210Y-24414D01*
X49229Y-24385D01*
X49248Y-24328D01*
X49267Y-24300D01*
X49286Y-24285D01*
X49324Y-24271D01*
X49362Y-24271D01*
X49400Y-24285D01*
X49419Y-24300D01*
X49438Y-24328D01*
X49438Y-24400D01*
X49419Y-24443D01*
X49076Y-24743D02*
X49057Y-24729D01*
X49038Y-24686D01*
X49038Y-24657D01*
X49057Y-24614D01*
X49095Y-24586D01*
X49133Y-24571D01*
X49210Y-24557D01*
X49267Y-24557D01*
X49343Y-24571D01*
X49381Y-24586D01*
X49419Y-24614D01*
X49438Y-24657D01*
X49438Y-24686D01*
X49419Y-24729D01*
X49400Y-24743D01*
X49038Y-24871D02*
X49438Y-24871D01*
X49038Y-25043D02*
X49267Y-24914D01*
X49438Y-25043D02*
X49210Y-24871D01*
X49857Y-22827D02*
X49838Y-22870D01*
X49838Y-22941D01*
X49857Y-22970D01*
X49876Y-22984D01*
X49914Y-22999D01*
X49952Y-22999D01*
X49990Y-22984D01*
X50010Y-22970D01*
X50029Y-22941D01*
X50048Y-22884D01*
X50067Y-22856D01*
X50086Y-22841D01*
X50124Y-22827D01*
X50162Y-22827D01*
X50200Y-22841D01*
X50219Y-22856D01*
X50238Y-22884D01*
X50238Y-22956D01*
X50219Y-22999D01*
X49838Y-23127D02*
X50238Y-23127D01*
X50238Y-23242D01*
X50219Y-23270D01*
X50200Y-23285D01*
X50162Y-23299D01*
X50105Y-23299D01*
X50067Y-23285D01*
X50048Y-23270D01*
X50029Y-23242D01*
X50029Y-23127D01*
X49838Y-23427D02*
X50238Y-23427D01*
X50200Y-23556D02*
X50219Y-23570D01*
X50238Y-23599D01*
X50238Y-23670D01*
X50219Y-23699D01*
X50200Y-23713D01*
X50162Y-23728D01*
X50124Y-23728D01*
X50067Y-23713D01*
X49838Y-23542D01*
X49838Y-23728D01*
X49800Y-23785D02*
X49800Y-24014D01*
X49838Y-24085D02*
X50238Y-24085D01*
X49952Y-24185D01*
X50238Y-24285D01*
X49838Y-24285D01*
X50238Y-24486D02*
X50238Y-24543D01*
X50219Y-24571D01*
X50181Y-24600D01*
X50105Y-24614D01*
X49971Y-24614D01*
X49895Y-24600D01*
X49857Y-24571D01*
X49838Y-24543D01*
X49838Y-24486D01*
X49857Y-24457D01*
X49895Y-24428D01*
X49971Y-24414D01*
X50105Y-24414D01*
X50181Y-24428D01*
X50219Y-24457D01*
X50238Y-24486D01*
X49857Y-24728D02*
X49838Y-24771D01*
X49838Y-24842D01*
X49857Y-24871D01*
X49876Y-24885D01*
X49914Y-24900D01*
X49952Y-24900D01*
X49990Y-24885D01*
X50010Y-24871D01*
X50029Y-24842D01*
X50048Y-24785D01*
X50067Y-24757D01*
X50086Y-24742D01*
X50124Y-24728D01*
X50162Y-24728D01*
X50200Y-24742D01*
X50219Y-24757D01*
X50238Y-24785D01*
X50238Y-24857D01*
X50219Y-24900D01*
X49838Y-25028D02*
X50238Y-25028D01*
X50657Y-22827D02*
X50638Y-22870D01*
X50638Y-22941D01*
X50657Y-22970D01*
X50676Y-22984D01*
X50714Y-22999D01*
X50752Y-22999D01*
X50790Y-22984D01*
X50810Y-22970D01*
X50829Y-22941D01*
X50848Y-22884D01*
X50867Y-22856D01*
X50886Y-22841D01*
X50924Y-22827D01*
X50962Y-22827D01*
X51000Y-22841D01*
X51019Y-22856D01*
X51038Y-22884D01*
X51038Y-22956D01*
X51019Y-22999D01*
X50638Y-23127D02*
X51038Y-23127D01*
X51038Y-23242D01*
X51019Y-23270D01*
X51000Y-23285D01*
X50962Y-23299D01*
X50905Y-23299D01*
X50867Y-23285D01*
X50848Y-23270D01*
X50829Y-23242D01*
X50829Y-23127D01*
X50638Y-23427D02*
X51038Y-23427D01*
X51000Y-23556D02*
X51019Y-23570D01*
X51038Y-23599D01*
X51038Y-23670D01*
X51019Y-23699D01*
X51000Y-23713D01*
X50962Y-23728D01*
X50924Y-23728D01*
X50867Y-23713D01*
X50638Y-23542D01*
X50638Y-23728D01*
X50600Y-23785D02*
X50600Y-24014D01*
X50638Y-24085D02*
X51038Y-24085D01*
X50752Y-24185D01*
X51038Y-24285D01*
X50638Y-24285D01*
X50638Y-24428D02*
X51038Y-24428D01*
X50657Y-24557D02*
X50638Y-24600D01*
X50638Y-24671D01*
X50657Y-24700D01*
X50676Y-24714D01*
X50714Y-24729D01*
X50752Y-24729D01*
X50790Y-24714D01*
X50810Y-24700D01*
X50829Y-24671D01*
X50848Y-24614D01*
X50867Y-24586D01*
X50886Y-24571D01*
X50924Y-24557D01*
X50962Y-24557D01*
X51000Y-24571D01*
X51019Y-24586D01*
X51038Y-24614D01*
X51038Y-24686D01*
X51019Y-24729D01*
X51038Y-24915D02*
X51038Y-24972D01*
X51019Y-25000D01*
X50981Y-25029D01*
X50905Y-25043D01*
X50771Y-25043D01*
X50695Y-25029D01*
X50657Y-25000D01*
X50638Y-24972D01*
X50638Y-24915D01*
X50657Y-24886D01*
X50695Y-24857D01*
X50771Y-24843D01*
X50905Y-24843D01*
X50981Y-24857D01*
X51019Y-24886D01*
X51038Y-24915D01*
X43919Y-17829D02*
X43938Y-17800D01*
X43938Y-17757D01*
X43919Y-17714D01*
X43881Y-17686D01*
X43843Y-17671D01*
X43767Y-17657D01*
X43710Y-17657D01*
X43633Y-17671D01*
X43595Y-17686D01*
X43557Y-17714D01*
X43538Y-17757D01*
X43538Y-17786D01*
X43557Y-17829D01*
X43576Y-17843D01*
X43710Y-17843D01*
X43710Y-17786D01*
X43538Y-17971D02*
X43938Y-17971D01*
X43538Y-18143D01*
X43938Y-18143D01*
X43538Y-18285D02*
X43938Y-18285D01*
X43938Y-18357D01*
X43919Y-18400D01*
X43881Y-18428D01*
X43843Y-18443D01*
X43767Y-18457D01*
X43710Y-18457D01*
X43633Y-18443D01*
X43595Y-18428D01*
X43557Y-18400D01*
X43538Y-18357D01*
X43538Y-18285D01*
X46657Y-17657D02*
X46638Y-17700D01*
X46638Y-17771D01*
X46657Y-17800D01*
X46676Y-17814D01*
X46714Y-17829D01*
X46752Y-17829D01*
X46790Y-17814D01*
X46810Y-17800D01*
X46829Y-17771D01*
X46848Y-17714D01*
X46867Y-17686D01*
X46886Y-17671D01*
X46924Y-17657D01*
X46962Y-17657D01*
X47000Y-17671D01*
X47019Y-17686D01*
X47038Y-17714D01*
X47038Y-17786D01*
X47019Y-17829D01*
X46848Y-18057D02*
X46829Y-18100D01*
X46810Y-18115D01*
X46771Y-18129D01*
X46714Y-18129D01*
X46676Y-18115D01*
X46657Y-18100D01*
X46638Y-18072D01*
X46638Y-17957D01*
X47038Y-17957D01*
X47038Y-18057D01*
X47019Y-18086D01*
X47000Y-18100D01*
X46962Y-18115D01*
X46924Y-18115D01*
X46886Y-18100D01*
X46867Y-18086D01*
X46848Y-18057D01*
X46848Y-17957D01*
X47038Y-18229D02*
X46638Y-18300D01*
X46924Y-18357D01*
X46638Y-18415D01*
X47038Y-18486D01*
X47038Y-18558D02*
X47038Y-18729D01*
X46638Y-18643D02*
X47038Y-18643D01*
X46676Y-19001D02*
X46657Y-18987D01*
X46638Y-18944D01*
X46638Y-18915D01*
X46657Y-18872D01*
X46695Y-18844D01*
X46733Y-18829D01*
X46810Y-18815D01*
X46867Y-18815D01*
X46943Y-18829D01*
X46981Y-18844D01*
X47019Y-18872D01*
X47038Y-18915D01*
X47038Y-18944D01*
X47019Y-18987D01*
X47000Y-19001D01*
X46638Y-19129D02*
X47038Y-19129D01*
X46638Y-19301D02*
X46867Y-19172D01*
X47038Y-19301D02*
X46810Y-19129D01*
X47457Y-17657D02*
X47438Y-17700D01*
X47438Y-17771D01*
X47457Y-17800D01*
X47476Y-17814D01*
X47514Y-17829D01*
X47552Y-17829D01*
X47590Y-17814D01*
X47610Y-17800D01*
X47629Y-17771D01*
X47648Y-17714D01*
X47667Y-17686D01*
X47686Y-17671D01*
X47724Y-17657D01*
X47762Y-17657D01*
X47800Y-17671D01*
X47819Y-17686D01*
X47838Y-17714D01*
X47838Y-17786D01*
X47819Y-17829D01*
X47648Y-18057D02*
X47629Y-18100D01*
X47610Y-18115D01*
X47571Y-18129D01*
X47514Y-18129D01*
X47476Y-18115D01*
X47457Y-18100D01*
X47438Y-18072D01*
X47438Y-17957D01*
X47838Y-17957D01*
X47838Y-18057D01*
X47819Y-18086D01*
X47800Y-18100D01*
X47762Y-18115D01*
X47724Y-18115D01*
X47686Y-18100D01*
X47667Y-18086D01*
X47648Y-18057D01*
X47648Y-17957D01*
X47838Y-18229D02*
X47438Y-18300D01*
X47724Y-18357D01*
X47438Y-18415D01*
X47838Y-18486D01*
X47838Y-18558D02*
X47838Y-18729D01*
X47438Y-18643D02*
X47838Y-18643D01*
X47438Y-18829D02*
X47838Y-18829D01*
X47838Y-18901D01*
X47819Y-18944D01*
X47781Y-18972D01*
X47743Y-18987D01*
X47667Y-19001D01*
X47610Y-19001D01*
X47533Y-18987D01*
X47495Y-18972D01*
X47457Y-18944D01*
X47438Y-18901D01*
X47438Y-18829D01*
X47438Y-19129D02*
X47838Y-19129D01*
X47838Y-19330D02*
X47838Y-19387D01*
X47819Y-19415D01*
X47781Y-19444D01*
X47705Y-19458D01*
X47571Y-19458D01*
X47495Y-19444D01*
X47457Y-19415D01*
X47438Y-19387D01*
X47438Y-19330D01*
X47457Y-19301D01*
X47495Y-19272D01*
X47571Y-19258D01*
X47705Y-19258D01*
X47781Y-19272D01*
X47819Y-19301D01*
X47838Y-19330D01*
X49438Y-17671D02*
X49114Y-17671D01*
X49076Y-17686D01*
X49057Y-17700D01*
X49038Y-17729D01*
X49038Y-17786D01*
X49057Y-17814D01*
X49076Y-17829D01*
X49114Y-17843D01*
X49438Y-17843D01*
X49057Y-17971D02*
X49038Y-18014D01*
X49038Y-18085D01*
X49057Y-18114D01*
X49076Y-18128D01*
X49114Y-18143D01*
X49152Y-18143D01*
X49190Y-18128D01*
X49210Y-18114D01*
X49229Y-18085D01*
X49248Y-18028D01*
X49267Y-18000D01*
X49286Y-17985D01*
X49324Y-17971D01*
X49362Y-17971D01*
X49400Y-17985D01*
X49419Y-18000D01*
X49438Y-18028D01*
X49438Y-18100D01*
X49419Y-18143D01*
X49152Y-18257D02*
X49152Y-18400D01*
X49038Y-18229D02*
X49438Y-18329D01*
X49038Y-18429D01*
X49038Y-18700D02*
X49229Y-18600D01*
X49038Y-18528D02*
X49438Y-18528D01*
X49438Y-18643D01*
X49419Y-18671D01*
X49400Y-18686D01*
X49362Y-18700D01*
X49305Y-18700D01*
X49267Y-18686D01*
X49248Y-18671D01*
X49229Y-18643D01*
X49229Y-18528D01*
X49438Y-18786D02*
X49438Y-18957D01*
X49038Y-18871D02*
X49438Y-18871D01*
X49400Y-19043D02*
X49419Y-19057D01*
X49438Y-19086D01*
X49438Y-19157D01*
X49419Y-19186D01*
X49400Y-19200D01*
X49362Y-19215D01*
X49324Y-19215D01*
X49267Y-19200D01*
X49038Y-19029D01*
X49038Y-19215D01*
X49000Y-19272D02*
X49000Y-19501D01*
X49038Y-19744D02*
X49229Y-19644D01*
X49038Y-19572D02*
X49438Y-19572D01*
X49438Y-19687D01*
X49419Y-19715D01*
X49400Y-19730D01*
X49362Y-19744D01*
X49305Y-19744D01*
X49267Y-19730D01*
X49248Y-19715D01*
X49229Y-19687D01*
X49229Y-19572D01*
X49438Y-19844D02*
X49038Y-20044D01*
X49438Y-20044D02*
X49038Y-19844D01*
X49457Y-20373D02*
X48943Y-20116D01*
X49152Y-20458D02*
X49152Y-20601D01*
X49038Y-20430D02*
X49438Y-20530D01*
X49038Y-20630D01*
X49038Y-20729D02*
X49438Y-20729D01*
X49038Y-20901D01*
X49438Y-20901D01*
X49438Y-21015D02*
X49438Y-21201D01*
X49286Y-21101D01*
X49286Y-21143D01*
X49267Y-21172D01*
X49248Y-21186D01*
X49210Y-21201D01*
X49114Y-21201D01*
X49076Y-21186D01*
X49057Y-21172D01*
X49038Y-21143D01*
X49038Y-21058D01*
X49057Y-21029D01*
X49076Y-21015D01*
X50238Y-17671D02*
X49914Y-17671D01*
X49876Y-17686D01*
X49857Y-17700D01*
X49838Y-17729D01*
X49838Y-17786D01*
X49857Y-17814D01*
X49876Y-17829D01*
X49914Y-17843D01*
X50238Y-17843D01*
X49857Y-17971D02*
X49838Y-18014D01*
X49838Y-18085D01*
X49857Y-18114D01*
X49876Y-18128D01*
X49914Y-18143D01*
X49952Y-18143D01*
X49990Y-18128D01*
X50010Y-18114D01*
X50029Y-18085D01*
X50048Y-18028D01*
X50067Y-18000D01*
X50086Y-17985D01*
X50124Y-17971D01*
X50162Y-17971D01*
X50200Y-17985D01*
X50219Y-18000D01*
X50238Y-18028D01*
X50238Y-18100D01*
X50219Y-18143D01*
X49952Y-18257D02*
X49952Y-18400D01*
X49838Y-18229D02*
X50238Y-18329D01*
X49838Y-18429D01*
X49838Y-18700D02*
X50029Y-18600D01*
X49838Y-18528D02*
X50238Y-18528D01*
X50238Y-18643D01*
X50219Y-18671D01*
X50200Y-18686D01*
X50162Y-18700D01*
X50105Y-18700D01*
X50067Y-18686D01*
X50048Y-18671D01*
X50029Y-18643D01*
X50029Y-18528D01*
X50238Y-18786D02*
X50238Y-18957D01*
X49838Y-18871D02*
X50238Y-18871D01*
X50200Y-19043D02*
X50219Y-19057D01*
X50238Y-19086D01*
X50238Y-19157D01*
X50219Y-19186D01*
X50200Y-19200D01*
X50162Y-19215D01*
X50124Y-19215D01*
X50067Y-19200D01*
X49838Y-19029D01*
X49838Y-19215D01*
X49800Y-19272D02*
X49800Y-19501D01*
X50238Y-19530D02*
X50238Y-19701D01*
X49838Y-19615D02*
X50238Y-19615D01*
X50238Y-19773D02*
X49838Y-19973D01*
X50238Y-19973D02*
X49838Y-19773D01*
X50257Y-20302D02*
X49743Y-20045D01*
X49952Y-20387D02*
X49952Y-20530D01*
X49838Y-20359D02*
X50238Y-20459D01*
X49838Y-20559D01*
X49838Y-20658D02*
X50238Y-20658D01*
X49838Y-20830D01*
X50238Y-20830D01*
X50105Y-21101D02*
X49838Y-21101D01*
X50257Y-21030D02*
X49971Y-20958D01*
X49971Y-21144D01*
X51038Y-17643D02*
X51038Y-17829D01*
X50886Y-17729D01*
X50886Y-17771D01*
X50867Y-17800D01*
X50848Y-17814D01*
X50810Y-17829D01*
X50714Y-17829D01*
X50676Y-17814D01*
X50657Y-17800D01*
X50638Y-17771D01*
X50638Y-17686D01*
X50657Y-17657D01*
X50676Y-17643D01*
X50676Y-17957D02*
X50657Y-17972D01*
X50638Y-17957D01*
X50657Y-17943D01*
X50676Y-17957D01*
X50638Y-17957D01*
X51038Y-18072D02*
X51038Y-18258D01*
X50886Y-18158D01*
X50886Y-18200D01*
X50867Y-18229D01*
X50848Y-18243D01*
X50810Y-18258D01*
X50714Y-18258D01*
X50676Y-18243D01*
X50657Y-18229D01*
X50638Y-18200D01*
X50638Y-18115D01*
X50657Y-18086D01*
X50676Y-18072D01*
X51038Y-18344D02*
X50638Y-18444D01*
X51038Y-18544D01*
X27238Y-28471D02*
X27238Y-28328D01*
X27048Y-28314D01*
X27067Y-28328D01*
X27086Y-28357D01*
X27086Y-28428D01*
X27067Y-28457D01*
X27048Y-28471D01*
X27010Y-28486D01*
X26914Y-28486D01*
X26876Y-28471D01*
X26857Y-28457D01*
X26838Y-28428D01*
X26838Y-28357D01*
X26857Y-28328D01*
X26876Y-28314D01*
X27238Y-28572D02*
X26838Y-28672D01*
X27238Y-28772D01*
X28238Y-27786D02*
X27838Y-27886D01*
X28238Y-27986D01*
X28048Y-28185D02*
X28029Y-28228D01*
X28010Y-28243D01*
X27971Y-28257D01*
X27914Y-28257D01*
X27876Y-28243D01*
X27857Y-28228D01*
X27838Y-28200D01*
X27838Y-28085D01*
X28238Y-28085D01*
X28238Y-28185D01*
X28219Y-28214D01*
X28200Y-28228D01*
X28162Y-28243D01*
X28124Y-28243D01*
X28086Y-28228D01*
X28067Y-28214D01*
X28048Y-28185D01*
X28048Y-28085D01*
X27952Y-28371D02*
X27952Y-28514D01*
X27838Y-28343D02*
X28238Y-28443D01*
X27838Y-28543D01*
X28238Y-28600D02*
X28238Y-28771D01*
X27838Y-28685D02*
X28238Y-28685D01*
X28857Y-26727D02*
X28838Y-26770D01*
X28838Y-26841D01*
X28857Y-26870D01*
X28876Y-26884D01*
X28914Y-26899D01*
X28952Y-26899D01*
X28990Y-26884D01*
X29010Y-26870D01*
X29029Y-26841D01*
X29048Y-26784D01*
X29067Y-26756D01*
X29086Y-26741D01*
X29124Y-26727D01*
X29162Y-26727D01*
X29200Y-26741D01*
X29219Y-26756D01*
X29238Y-26784D01*
X29238Y-26856D01*
X29219Y-26899D01*
X28838Y-27027D02*
X29238Y-27027D01*
X29238Y-27142D01*
X29219Y-27170D01*
X29200Y-27185D01*
X29162Y-27199D01*
X29105Y-27199D01*
X29067Y-27185D01*
X29048Y-27170D01*
X29029Y-27142D01*
X29029Y-27027D01*
X28838Y-27327D02*
X29238Y-27327D01*
X28838Y-27628D02*
X28838Y-27456D01*
X28838Y-27542D02*
X29238Y-27542D01*
X29181Y-27513D01*
X29143Y-27485D01*
X29124Y-27456D01*
X28800Y-27685D02*
X28800Y-27914D01*
X28857Y-27971D02*
X28838Y-28014D01*
X28838Y-28085D01*
X28857Y-28114D01*
X28876Y-28128D01*
X28914Y-28143D01*
X28952Y-28143D01*
X28990Y-28128D01*
X29010Y-28114D01*
X29029Y-28085D01*
X29048Y-28028D01*
X29067Y-28000D01*
X29086Y-27985D01*
X29124Y-27971D01*
X29162Y-27971D01*
X29200Y-27985D01*
X29219Y-28000D01*
X29238Y-28028D01*
X29238Y-28100D01*
X29219Y-28143D01*
X28876Y-28443D02*
X28857Y-28429D01*
X28838Y-28386D01*
X28838Y-28357D01*
X28857Y-28314D01*
X28895Y-28286D01*
X28933Y-28271D01*
X29010Y-28257D01*
X29067Y-28257D01*
X29143Y-28271D01*
X29181Y-28286D01*
X29219Y-28314D01*
X29238Y-28357D01*
X29238Y-28386D01*
X29219Y-28429D01*
X29200Y-28443D01*
X28838Y-28571D02*
X29238Y-28571D01*
X28838Y-28743D02*
X29067Y-28614D01*
X29238Y-28743D02*
X29010Y-28571D01*
X29857Y-26527D02*
X29838Y-26570D01*
X29838Y-26641D01*
X29857Y-26670D01*
X29876Y-26684D01*
X29914Y-26699D01*
X29952Y-26699D01*
X29990Y-26684D01*
X30010Y-26670D01*
X30029Y-26641D01*
X30048Y-26584D01*
X30067Y-26556D01*
X30086Y-26541D01*
X30124Y-26527D01*
X30162Y-26527D01*
X30200Y-26541D01*
X30219Y-26556D01*
X30238Y-26584D01*
X30238Y-26656D01*
X30219Y-26699D01*
X29838Y-26827D02*
X30238Y-26827D01*
X30238Y-26942D01*
X30219Y-26970D01*
X30200Y-26985D01*
X30162Y-26999D01*
X30105Y-26999D01*
X30067Y-26985D01*
X30048Y-26970D01*
X30029Y-26942D01*
X30029Y-26827D01*
X29838Y-27127D02*
X30238Y-27127D01*
X29838Y-27428D02*
X29838Y-27256D01*
X29838Y-27342D02*
X30238Y-27342D01*
X30181Y-27313D01*
X30143Y-27285D01*
X30124Y-27256D01*
X29800Y-27485D02*
X29800Y-27714D01*
X29838Y-27785D02*
X30238Y-27785D01*
X29952Y-27885D01*
X30238Y-27985D01*
X29838Y-27985D01*
X29838Y-28128D02*
X30238Y-28128D01*
X29857Y-28257D02*
X29838Y-28300D01*
X29838Y-28371D01*
X29857Y-28400D01*
X29876Y-28414D01*
X29914Y-28429D01*
X29952Y-28429D01*
X29990Y-28414D01*
X30010Y-28400D01*
X30029Y-28371D01*
X30048Y-28314D01*
X30067Y-28286D01*
X30086Y-28271D01*
X30124Y-28257D01*
X30162Y-28257D01*
X30200Y-28271D01*
X30219Y-28286D01*
X30238Y-28314D01*
X30238Y-28386D01*
X30219Y-28429D01*
X30238Y-28615D02*
X30238Y-28672D01*
X30219Y-28700D01*
X30181Y-28729D01*
X30105Y-28743D01*
X29971Y-28743D01*
X29895Y-28729D01*
X29857Y-28700D01*
X29838Y-28672D01*
X29838Y-28615D01*
X29857Y-28586D01*
X29895Y-28557D01*
X29971Y-28543D01*
X30105Y-28543D01*
X30181Y-28557D01*
X30219Y-28586D01*
X30238Y-28615D01*
X30857Y-26527D02*
X30838Y-26570D01*
X30838Y-26641D01*
X30857Y-26670D01*
X30876Y-26684D01*
X30914Y-26699D01*
X30952Y-26699D01*
X30990Y-26684D01*
X31010Y-26670D01*
X31029Y-26641D01*
X31048Y-26584D01*
X31067Y-26556D01*
X31086Y-26541D01*
X31124Y-26527D01*
X31162Y-26527D01*
X31200Y-26541D01*
X31219Y-26556D01*
X31238Y-26584D01*
X31238Y-26656D01*
X31219Y-26699D01*
X30838Y-26827D02*
X31238Y-26827D01*
X31238Y-26942D01*
X31219Y-26970D01*
X31200Y-26985D01*
X31162Y-26999D01*
X31105Y-26999D01*
X31067Y-26985D01*
X31048Y-26970D01*
X31029Y-26942D01*
X31029Y-26827D01*
X30838Y-27127D02*
X31238Y-27127D01*
X30838Y-27428D02*
X30838Y-27256D01*
X30838Y-27342D02*
X31238Y-27342D01*
X31181Y-27313D01*
X31143Y-27285D01*
X31124Y-27256D01*
X30800Y-27485D02*
X30800Y-27714D01*
X30838Y-27785D02*
X31238Y-27785D01*
X30952Y-27885D01*
X31238Y-27985D01*
X30838Y-27985D01*
X31238Y-28186D02*
X31238Y-28243D01*
X31219Y-28271D01*
X31181Y-28300D01*
X31105Y-28314D01*
X30971Y-28314D01*
X30895Y-28300D01*
X30857Y-28271D01*
X30838Y-28243D01*
X30838Y-28186D01*
X30857Y-28157D01*
X30895Y-28128D01*
X30971Y-28114D01*
X31105Y-28114D01*
X31181Y-28128D01*
X31219Y-28157D01*
X31238Y-28186D01*
X30857Y-28428D02*
X30838Y-28471D01*
X30838Y-28542D01*
X30857Y-28571D01*
X30876Y-28585D01*
X30914Y-28600D01*
X30952Y-28600D01*
X30990Y-28585D01*
X31010Y-28571D01*
X31029Y-28542D01*
X31048Y-28485D01*
X31067Y-28457D01*
X31086Y-28442D01*
X31124Y-28428D01*
X31162Y-28428D01*
X31200Y-28442D01*
X31219Y-28457D01*
X31238Y-28485D01*
X31238Y-28557D01*
X31219Y-28600D01*
X30838Y-28728D02*
X31238Y-28728D01*
X32219Y-27686D02*
X32238Y-27657D01*
X32238Y-27614D01*
X32219Y-27571D01*
X32181Y-27543D01*
X32143Y-27528D01*
X32067Y-27514D01*
X32010Y-27514D01*
X31933Y-27528D01*
X31895Y-27543D01*
X31857Y-27571D01*
X31838Y-27614D01*
X31838Y-27643D01*
X31857Y-27686D01*
X31876Y-27700D01*
X32010Y-27700D01*
X32010Y-27643D01*
X31838Y-27828D02*
X32238Y-27828D01*
X32238Y-27943D01*
X32219Y-27971D01*
X32200Y-27986D01*
X32162Y-28000D01*
X32105Y-28000D01*
X32067Y-27986D01*
X32048Y-27971D01*
X32029Y-27943D01*
X32029Y-27828D01*
X31838Y-28128D02*
X32238Y-28128D01*
X32238Y-28329D02*
X32238Y-28386D01*
X32219Y-28414D01*
X32181Y-28443D01*
X32105Y-28457D01*
X31971Y-28457D01*
X31895Y-28443D01*
X31857Y-28414D01*
X31838Y-28386D01*
X31838Y-28329D01*
X31857Y-28300D01*
X31895Y-28271D01*
X31971Y-28257D01*
X32105Y-28257D01*
X32181Y-28271D01*
X32219Y-28300D01*
X32238Y-28329D01*
X32067Y-28628D02*
X32086Y-28600D01*
X32105Y-28585D01*
X32143Y-28571D01*
X32162Y-28571D01*
X32200Y-28585D01*
X32219Y-28600D01*
X32238Y-28628D01*
X32238Y-28685D01*
X32219Y-28714D01*
X32200Y-28728D01*
X32162Y-28743D01*
X32143Y-28743D01*
X32105Y-28728D01*
X32086Y-28714D01*
X32067Y-28685D01*
X32067Y-28628D01*
X32048Y-28600D01*
X32029Y-28585D01*
X31990Y-28571D01*
X31914Y-28571D01*
X31876Y-28585D01*
X31857Y-28600D01*
X31838Y-28628D01*
X31838Y-28685D01*
X31857Y-28714D01*
X31876Y-28728D01*
X31914Y-28743D01*
X31990Y-28743D01*
X32029Y-28728D01*
X32048Y-28714D01*
X32067Y-28685D01*
X34219Y-27686D02*
X34238Y-27657D01*
X34238Y-27614D01*
X34219Y-27571D01*
X34181Y-27543D01*
X34143Y-27528D01*
X34067Y-27514D01*
X34010Y-27514D01*
X33933Y-27528D01*
X33895Y-27543D01*
X33857Y-27571D01*
X33838Y-27614D01*
X33838Y-27643D01*
X33857Y-27686D01*
X33876Y-27700D01*
X34010Y-27700D01*
X34010Y-27643D01*
X33838Y-27828D02*
X34238Y-27828D01*
X34238Y-27943D01*
X34219Y-27971D01*
X34200Y-27986D01*
X34162Y-28000D01*
X34105Y-28000D01*
X34067Y-27986D01*
X34048Y-27971D01*
X34029Y-27943D01*
X34029Y-27828D01*
X33838Y-28128D02*
X34238Y-28128D01*
X34238Y-28329D02*
X34238Y-28386D01*
X34219Y-28414D01*
X34181Y-28443D01*
X34105Y-28457D01*
X33971Y-28457D01*
X33895Y-28443D01*
X33857Y-28414D01*
X33838Y-28386D01*
X33838Y-28329D01*
X33857Y-28300D01*
X33895Y-28271D01*
X33971Y-28257D01*
X34105Y-28257D01*
X34181Y-28271D01*
X34219Y-28300D01*
X34238Y-28329D01*
X33838Y-28600D02*
X33838Y-28657D01*
X33857Y-28685D01*
X33876Y-28700D01*
X33933Y-28728D01*
X34010Y-28743D01*
X34162Y-28743D01*
X34200Y-28728D01*
X34219Y-28714D01*
X34238Y-28685D01*
X34238Y-28628D01*
X34219Y-28600D01*
X34200Y-28585D01*
X34162Y-28571D01*
X34067Y-28571D01*
X34029Y-28585D01*
X34010Y-28600D01*
X33990Y-28628D01*
X33990Y-28685D01*
X34010Y-28714D01*
X34029Y-28728D01*
X34067Y-28743D01*
X35219Y-27400D02*
X35238Y-27371D01*
X35238Y-27328D01*
X35219Y-27285D01*
X35181Y-27257D01*
X35143Y-27242D01*
X35067Y-27228D01*
X35010Y-27228D01*
X34933Y-27242D01*
X34895Y-27257D01*
X34857Y-27285D01*
X34838Y-27328D01*
X34838Y-27357D01*
X34857Y-27400D01*
X34876Y-27414D01*
X35010Y-27414D01*
X35010Y-27357D01*
X34838Y-27542D02*
X35238Y-27542D01*
X35238Y-27657D01*
X35219Y-27685D01*
X35200Y-27700D01*
X35162Y-27714D01*
X35105Y-27714D01*
X35067Y-27700D01*
X35048Y-27685D01*
X35029Y-27657D01*
X35029Y-27542D01*
X34838Y-27842D02*
X35238Y-27842D01*
X35238Y-28043D02*
X35238Y-28100D01*
X35219Y-28128D01*
X35181Y-28157D01*
X35105Y-28171D01*
X34971Y-28171D01*
X34895Y-28157D01*
X34857Y-28128D01*
X34838Y-28100D01*
X34838Y-28043D01*
X34857Y-28014D01*
X34895Y-27985D01*
X34971Y-27971D01*
X35105Y-27971D01*
X35181Y-27985D01*
X35219Y-28014D01*
X35238Y-28043D01*
X34838Y-28457D02*
X34838Y-28285D01*
X34838Y-28371D02*
X35238Y-28371D01*
X35181Y-28342D01*
X35143Y-28314D01*
X35124Y-28285D01*
X35238Y-28643D02*
X35238Y-28671D01*
X35219Y-28700D01*
X35200Y-28714D01*
X35162Y-28728D01*
X35086Y-28743D01*
X34990Y-28743D01*
X34914Y-28728D01*
X34876Y-28714D01*
X34857Y-28700D01*
X34838Y-28671D01*
X34838Y-28643D01*
X34857Y-28614D01*
X34876Y-28600D01*
X34914Y-28585D01*
X34990Y-28571D01*
X35086Y-28571D01*
X35162Y-28585D01*
X35200Y-28600D01*
X35219Y-28614D01*
X35238Y-28643D01*
X35838Y-26784D02*
X36238Y-26784D01*
X36200Y-26913D02*
X36219Y-26927D01*
X36238Y-26956D01*
X36238Y-27027D01*
X36219Y-27056D01*
X36200Y-27070D01*
X36162Y-27085D01*
X36124Y-27085D01*
X36067Y-27070D01*
X35838Y-26899D01*
X35838Y-27085D01*
X35876Y-27385D02*
X35857Y-27371D01*
X35838Y-27328D01*
X35838Y-27299D01*
X35857Y-27256D01*
X35895Y-27228D01*
X35933Y-27213D01*
X36010Y-27199D01*
X36067Y-27199D01*
X36143Y-27213D01*
X36181Y-27228D01*
X36219Y-27256D01*
X36238Y-27299D01*
X36238Y-27328D01*
X36219Y-27371D01*
X36200Y-27385D01*
X36200Y-27499D02*
X36219Y-27513D01*
X36238Y-27542D01*
X36238Y-27613D01*
X36219Y-27642D01*
X36200Y-27656D01*
X36162Y-27671D01*
X36124Y-27671D01*
X36067Y-27656D01*
X35838Y-27485D01*
X35838Y-27671D01*
X35800Y-27728D02*
X35800Y-27957D01*
X35857Y-28014D02*
X35838Y-28057D01*
X35838Y-28128D01*
X35857Y-28157D01*
X35876Y-28171D01*
X35914Y-28186D01*
X35952Y-28186D01*
X35990Y-28171D01*
X36010Y-28157D01*
X36029Y-28128D01*
X36048Y-28071D01*
X36067Y-28043D01*
X36086Y-28028D01*
X36124Y-28014D01*
X36162Y-28014D01*
X36200Y-28028D01*
X36219Y-28043D01*
X36238Y-28071D01*
X36238Y-28143D01*
X36219Y-28186D01*
X35838Y-28314D02*
X36238Y-28314D01*
X36238Y-28386D01*
X36219Y-28429D01*
X36181Y-28457D01*
X36143Y-28472D01*
X36067Y-28486D01*
X36010Y-28486D01*
X35933Y-28472D01*
X35895Y-28457D01*
X35857Y-28429D01*
X35838Y-28386D01*
X35838Y-28314D01*
X35952Y-28600D02*
X35952Y-28743D01*
X35838Y-28572D02*
X36238Y-28672D01*
X35838Y-28772D01*
X36838Y-26784D02*
X37238Y-26784D01*
X37200Y-26913D02*
X37219Y-26927D01*
X37238Y-26956D01*
X37238Y-27027D01*
X37219Y-27056D01*
X37200Y-27070D01*
X37162Y-27085D01*
X37124Y-27085D01*
X37067Y-27070D01*
X36838Y-26899D01*
X36838Y-27085D01*
X36876Y-27385D02*
X36857Y-27371D01*
X36838Y-27328D01*
X36838Y-27299D01*
X36857Y-27256D01*
X36895Y-27228D01*
X36933Y-27213D01*
X37010Y-27199D01*
X37067Y-27199D01*
X37143Y-27213D01*
X37181Y-27228D01*
X37219Y-27256D01*
X37238Y-27299D01*
X37238Y-27328D01*
X37219Y-27371D01*
X37200Y-27385D01*
X37200Y-27499D02*
X37219Y-27513D01*
X37238Y-27542D01*
X37238Y-27613D01*
X37219Y-27642D01*
X37200Y-27656D01*
X37162Y-27671D01*
X37124Y-27671D01*
X37067Y-27656D01*
X36838Y-27485D01*
X36838Y-27671D01*
X36800Y-27728D02*
X36800Y-27957D01*
X36876Y-28200D02*
X36857Y-28186D01*
X36838Y-28143D01*
X36838Y-28114D01*
X36857Y-28071D01*
X36895Y-28043D01*
X36933Y-28028D01*
X37010Y-28014D01*
X37067Y-28014D01*
X37143Y-28028D01*
X37181Y-28043D01*
X37219Y-28071D01*
X37238Y-28114D01*
X37238Y-28143D01*
X37219Y-28186D01*
X37200Y-28200D01*
X36838Y-28471D02*
X36838Y-28328D01*
X37238Y-28328D01*
X36838Y-28571D02*
X37238Y-28571D01*
X36838Y-28743D02*
X37067Y-28614D01*
X37238Y-28743D02*
X37010Y-28571D01*
X38838Y-27070D02*
X39238Y-27070D01*
X39238Y-27185D01*
X39219Y-27213D01*
X39200Y-27228D01*
X39162Y-27242D01*
X39105Y-27242D01*
X39067Y-27228D01*
X39048Y-27213D01*
X39029Y-27185D01*
X39029Y-27070D01*
X39238Y-27342D02*
X38838Y-27413D01*
X39124Y-27470D01*
X38838Y-27528D01*
X39238Y-27599D01*
X38838Y-27713D02*
X39238Y-27713D01*
X38952Y-27813D01*
X39238Y-27913D01*
X38838Y-27913D01*
X38800Y-27985D02*
X38800Y-28214D01*
X39048Y-28385D02*
X39029Y-28428D01*
X39010Y-28443D01*
X38971Y-28457D01*
X38914Y-28457D01*
X38876Y-28443D01*
X38857Y-28428D01*
X38838Y-28400D01*
X38838Y-28285D01*
X39238Y-28285D01*
X39238Y-28385D01*
X39219Y-28414D01*
X39200Y-28428D01*
X39162Y-28443D01*
X39124Y-28443D01*
X39086Y-28428D01*
X39067Y-28414D01*
X39048Y-28385D01*
X39048Y-28285D01*
X38838Y-28743D02*
X38838Y-28571D01*
X38838Y-28657D02*
X39238Y-28657D01*
X39181Y-28628D01*
X39143Y-28600D01*
X39124Y-28571D01*
X39838Y-27070D02*
X40238Y-27070D01*
X40238Y-27185D01*
X40219Y-27213D01*
X40200Y-27228D01*
X40162Y-27242D01*
X40105Y-27242D01*
X40067Y-27228D01*
X40048Y-27213D01*
X40029Y-27185D01*
X40029Y-27070D01*
X40238Y-27342D02*
X39838Y-27413D01*
X40124Y-27470D01*
X39838Y-27528D01*
X40238Y-27599D01*
X39838Y-27713D02*
X40238Y-27713D01*
X39952Y-27813D01*
X40238Y-27913D01*
X39838Y-27913D01*
X39800Y-27985D02*
X39800Y-28214D01*
X40048Y-28385D02*
X40029Y-28428D01*
X40010Y-28443D01*
X39971Y-28457D01*
X39914Y-28457D01*
X39876Y-28443D01*
X39857Y-28428D01*
X39838Y-28400D01*
X39838Y-28285D01*
X40238Y-28285D01*
X40238Y-28385D01*
X40219Y-28414D01*
X40200Y-28428D01*
X40162Y-28443D01*
X40124Y-28443D01*
X40086Y-28428D01*
X40067Y-28414D01*
X40048Y-28385D01*
X40048Y-28285D01*
X40200Y-28571D02*
X40219Y-28585D01*
X40238Y-28614D01*
X40238Y-28685D01*
X40219Y-28714D01*
X40200Y-28728D01*
X40162Y-28743D01*
X40124Y-28743D01*
X40067Y-28728D01*
X39838Y-28557D01*
X39838Y-28743D01*
X40838Y-27070D02*
X41238Y-27070D01*
X41238Y-27185D01*
X41219Y-27213D01*
X41200Y-27228D01*
X41162Y-27242D01*
X41105Y-27242D01*
X41067Y-27228D01*
X41048Y-27213D01*
X41029Y-27185D01*
X41029Y-27070D01*
X41238Y-27342D02*
X40838Y-27413D01*
X41124Y-27470D01*
X40838Y-27528D01*
X41238Y-27599D01*
X40838Y-27713D02*
X41238Y-27713D01*
X40952Y-27813D01*
X41238Y-27913D01*
X40838Y-27913D01*
X40800Y-27985D02*
X40800Y-28214D01*
X41048Y-28385D02*
X41029Y-28428D01*
X41010Y-28443D01*
X40971Y-28457D01*
X40914Y-28457D01*
X40876Y-28443D01*
X40857Y-28428D01*
X40838Y-28400D01*
X40838Y-28285D01*
X41238Y-28285D01*
X41238Y-28385D01*
X41219Y-28414D01*
X41200Y-28428D01*
X41162Y-28443D01*
X41124Y-28443D01*
X41086Y-28428D01*
X41067Y-28414D01*
X41048Y-28385D01*
X41048Y-28285D01*
X41238Y-28557D02*
X41238Y-28743D01*
X41086Y-28643D01*
X41086Y-28685D01*
X41067Y-28714D01*
X41048Y-28728D01*
X41010Y-28743D01*
X40914Y-28743D01*
X40876Y-28728D01*
X40857Y-28714D01*
X40838Y-28685D01*
X40838Y-28600D01*
X40857Y-28571D01*
X40876Y-28557D01*
X41838Y-27070D02*
X42238Y-27070D01*
X42238Y-27185D01*
X42219Y-27213D01*
X42200Y-27228D01*
X42162Y-27242D01*
X42105Y-27242D01*
X42067Y-27228D01*
X42048Y-27213D01*
X42029Y-27185D01*
X42029Y-27070D01*
X42238Y-27342D02*
X41838Y-27413D01*
X42124Y-27470D01*
X41838Y-27528D01*
X42238Y-27599D01*
X41838Y-27713D02*
X42238Y-27713D01*
X41952Y-27813D01*
X42238Y-27913D01*
X41838Y-27913D01*
X41800Y-27985D02*
X41800Y-28214D01*
X42048Y-28385D02*
X42029Y-28428D01*
X42010Y-28443D01*
X41971Y-28457D01*
X41914Y-28457D01*
X41876Y-28443D01*
X41857Y-28428D01*
X41838Y-28400D01*
X41838Y-28285D01*
X42238Y-28285D01*
X42238Y-28385D01*
X42219Y-28414D01*
X42200Y-28428D01*
X42162Y-28443D01*
X42124Y-28443D01*
X42086Y-28428D01*
X42067Y-28414D01*
X42048Y-28385D01*
X42048Y-28285D01*
X42105Y-28714D02*
X41838Y-28714D01*
X42257Y-28643D02*
X41971Y-28571D01*
X41971Y-28757D01*
X42838Y-27070D02*
X43238Y-27070D01*
X43238Y-27185D01*
X43219Y-27213D01*
X43200Y-27228D01*
X43162Y-27242D01*
X43105Y-27242D01*
X43067Y-27228D01*
X43048Y-27213D01*
X43029Y-27185D01*
X43029Y-27070D01*
X43238Y-27342D02*
X42838Y-27413D01*
X43124Y-27470D01*
X42838Y-27528D01*
X43238Y-27599D01*
X42838Y-27713D02*
X43238Y-27713D01*
X42952Y-27813D01*
X43238Y-27913D01*
X42838Y-27913D01*
X42800Y-27985D02*
X42800Y-28214D01*
X42876Y-28457D02*
X42857Y-28443D01*
X42838Y-28400D01*
X42838Y-28371D01*
X42857Y-28328D01*
X42895Y-28300D01*
X42933Y-28285D01*
X43010Y-28271D01*
X43067Y-28271D01*
X43143Y-28285D01*
X43181Y-28300D01*
X43219Y-28328D01*
X43238Y-28371D01*
X43238Y-28400D01*
X43219Y-28443D01*
X43200Y-28457D01*
X42838Y-28743D02*
X42838Y-28571D01*
X42838Y-28657D02*
X43238Y-28657D01*
X43181Y-28628D01*
X43143Y-28600D01*
X43124Y-28571D01*
X43838Y-27070D02*
X44238Y-27070D01*
X44238Y-27185D01*
X44219Y-27213D01*
X44200Y-27228D01*
X44162Y-27242D01*
X44105Y-27242D01*
X44067Y-27228D01*
X44048Y-27213D01*
X44029Y-27185D01*
X44029Y-27070D01*
X44238Y-27342D02*
X43838Y-27413D01*
X44124Y-27470D01*
X43838Y-27528D01*
X44238Y-27599D01*
X43838Y-27713D02*
X44238Y-27713D01*
X43952Y-27813D01*
X44238Y-27913D01*
X43838Y-27913D01*
X43800Y-27985D02*
X43800Y-28214D01*
X43876Y-28457D02*
X43857Y-28443D01*
X43838Y-28400D01*
X43838Y-28371D01*
X43857Y-28328D01*
X43895Y-28300D01*
X43933Y-28285D01*
X44010Y-28271D01*
X44067Y-28271D01*
X44143Y-28285D01*
X44181Y-28300D01*
X44219Y-28328D01*
X44238Y-28371D01*
X44238Y-28400D01*
X44219Y-28443D01*
X44200Y-28457D01*
X44200Y-28571D02*
X44219Y-28585D01*
X44238Y-28614D01*
X44238Y-28685D01*
X44219Y-28714D01*
X44200Y-28728D01*
X44162Y-28743D01*
X44124Y-28743D01*
X44067Y-28728D01*
X43838Y-28557D01*
X43838Y-28743D01*
G54D12*
X46179Y-26260D02*
X45936Y-26260D01*
X45907Y-26269D01*
X45893Y-26279D01*
X45879Y-26298D01*
X45879Y-26336D01*
X45893Y-26355D01*
X45907Y-26364D01*
X45936Y-26374D01*
X46179Y-26374D01*
X45893Y-26460D02*
X45879Y-26489D01*
X45879Y-26536D01*
X45893Y-26555D01*
X45907Y-26565D01*
X45936Y-26574D01*
X45964Y-26574D01*
X45993Y-26565D01*
X46007Y-26555D01*
X46021Y-26536D01*
X46036Y-26498D01*
X46050Y-26479D01*
X46064Y-26470D01*
X46093Y-26460D01*
X46121Y-26460D01*
X46150Y-26470D01*
X46164Y-26479D01*
X46179Y-26498D01*
X46179Y-26546D01*
X46164Y-26574D01*
X45964Y-26650D02*
X45964Y-26745D01*
X45879Y-26631D02*
X46179Y-26698D01*
X45879Y-26764D01*
X45879Y-26945D02*
X46021Y-26878D01*
X45879Y-26831D02*
X46179Y-26831D01*
X46179Y-26907D01*
X46164Y-26926D01*
X46150Y-26935D01*
X46121Y-26945D01*
X46079Y-26945D01*
X46050Y-26935D01*
X46036Y-26926D01*
X46021Y-26907D01*
X46021Y-26831D01*
X46179Y-27002D02*
X46179Y-27116D01*
X45879Y-27059D02*
X46179Y-27059D01*
X46150Y-27173D02*
X46164Y-27183D01*
X46179Y-27202D01*
X46179Y-27249D01*
X46164Y-27268D01*
X46150Y-27278D01*
X46121Y-27287D01*
X46093Y-27287D01*
X46050Y-27278D01*
X45879Y-27164D01*
X45879Y-27287D01*
X45850Y-27325D02*
X45850Y-27477D01*
X45907Y-27639D02*
X45893Y-27629D01*
X45879Y-27601D01*
X45879Y-27582D01*
X45893Y-27553D01*
X45921Y-27534D01*
X45950Y-27525D01*
X46007Y-27515D01*
X46050Y-27515D01*
X46107Y-27525D01*
X46136Y-27534D01*
X46164Y-27553D01*
X46179Y-27582D01*
X46179Y-27601D01*
X46164Y-27629D01*
X46150Y-27639D01*
X46179Y-27696D02*
X46179Y-27810D01*
X45879Y-27753D02*
X46179Y-27753D01*
X45893Y-27867D02*
X45879Y-27896D01*
X45879Y-27943D01*
X45893Y-27962D01*
X45907Y-27972D01*
X45936Y-27981D01*
X45964Y-27981D01*
X45993Y-27972D01*
X46007Y-27962D01*
X46021Y-27943D01*
X46036Y-27905D01*
X46050Y-27886D01*
X46064Y-27877D01*
X46093Y-27867D01*
X46121Y-27867D01*
X46150Y-27877D01*
X46164Y-27886D01*
X46179Y-27905D01*
X46179Y-27953D01*
X46164Y-27981D01*
X46193Y-28209D02*
X45807Y-28038D01*
X45964Y-28267D02*
X45964Y-28362D01*
X45879Y-28248D02*
X46179Y-28315D01*
X45879Y-28381D01*
X45879Y-28448D02*
X46179Y-28448D01*
X45879Y-28562D01*
X46179Y-28562D01*
X45879Y-28762D02*
X45879Y-28648D01*
X45879Y-28705D02*
X46179Y-28705D01*
X46136Y-28686D01*
X46107Y-28667D01*
X46093Y-28648D01*
X47179Y-26260D02*
X46936Y-26260D01*
X46907Y-26269D01*
X46893Y-26279D01*
X46879Y-26298D01*
X46879Y-26336D01*
X46893Y-26355D01*
X46907Y-26364D01*
X46936Y-26374D01*
X47179Y-26374D01*
X46893Y-26460D02*
X46879Y-26489D01*
X46879Y-26536D01*
X46893Y-26555D01*
X46907Y-26565D01*
X46936Y-26574D01*
X46964Y-26574D01*
X46993Y-26565D01*
X47007Y-26555D01*
X47021Y-26536D01*
X47036Y-26498D01*
X47050Y-26479D01*
X47064Y-26470D01*
X47093Y-26460D01*
X47121Y-26460D01*
X47150Y-26470D01*
X47164Y-26479D01*
X47179Y-26498D01*
X47179Y-26546D01*
X47164Y-26574D01*
X46964Y-26650D02*
X46964Y-26745D01*
X46879Y-26631D02*
X47179Y-26698D01*
X46879Y-26764D01*
X46879Y-26945D02*
X47021Y-26878D01*
X46879Y-26831D02*
X47179Y-26831D01*
X47179Y-26907D01*
X47164Y-26926D01*
X47150Y-26935D01*
X47121Y-26945D01*
X47079Y-26945D01*
X47050Y-26935D01*
X47036Y-26926D01*
X47021Y-26907D01*
X47021Y-26831D01*
X47179Y-27002D02*
X47179Y-27116D01*
X46879Y-27059D02*
X47179Y-27059D01*
X47150Y-27173D02*
X47164Y-27183D01*
X47179Y-27202D01*
X47179Y-27249D01*
X47164Y-27268D01*
X47150Y-27278D01*
X47121Y-27287D01*
X47093Y-27287D01*
X47050Y-27278D01*
X46879Y-27164D01*
X46879Y-27287D01*
X46850Y-27325D02*
X46850Y-27477D01*
X46879Y-27639D02*
X47021Y-27572D01*
X46879Y-27525D02*
X47179Y-27525D01*
X47179Y-27601D01*
X47164Y-27620D01*
X47150Y-27629D01*
X47121Y-27639D01*
X47079Y-27639D01*
X47050Y-27629D01*
X47036Y-27620D01*
X47021Y-27601D01*
X47021Y-27525D01*
X47179Y-27696D02*
X47179Y-27810D01*
X46879Y-27753D02*
X47179Y-27753D01*
X46893Y-27867D02*
X46879Y-27896D01*
X46879Y-27943D01*
X46893Y-27962D01*
X46907Y-27972D01*
X46936Y-27981D01*
X46964Y-27981D01*
X46993Y-27972D01*
X47007Y-27962D01*
X47021Y-27943D01*
X47036Y-27905D01*
X47050Y-27886D01*
X47064Y-27877D01*
X47093Y-27867D01*
X47121Y-27867D01*
X47150Y-27877D01*
X47164Y-27886D01*
X47179Y-27905D01*
X47179Y-27953D01*
X47164Y-27981D01*
X47193Y-28209D02*
X46807Y-28038D01*
X46964Y-28267D02*
X46964Y-28362D01*
X46879Y-28248D02*
X47179Y-28315D01*
X46879Y-28381D01*
X46879Y-28448D02*
X47179Y-28448D01*
X46879Y-28562D01*
X47179Y-28562D01*
X47150Y-28648D02*
X47164Y-28658D01*
X47179Y-28677D01*
X47179Y-28724D01*
X47164Y-28743D01*
X47150Y-28753D01*
X47121Y-28762D01*
X47093Y-28762D01*
X47050Y-28753D01*
X46879Y-28639D01*
X46879Y-28762D01*
X48179Y-26460D02*
X47936Y-26460D01*
X47907Y-26469D01*
X47893Y-26479D01*
X47879Y-26498D01*
X47879Y-26536D01*
X47893Y-26555D01*
X47907Y-26564D01*
X47936Y-26574D01*
X48179Y-26574D01*
X47893Y-26660D02*
X47879Y-26689D01*
X47879Y-26736D01*
X47893Y-26755D01*
X47907Y-26765D01*
X47936Y-26774D01*
X47964Y-26774D01*
X47993Y-26765D01*
X48007Y-26755D01*
X48021Y-26736D01*
X48036Y-26698D01*
X48050Y-26679D01*
X48064Y-26670D01*
X48093Y-26660D01*
X48121Y-26660D01*
X48150Y-26670D01*
X48164Y-26679D01*
X48179Y-26698D01*
X48179Y-26746D01*
X48164Y-26774D01*
X47964Y-26850D02*
X47964Y-26945D01*
X47879Y-26831D02*
X48179Y-26898D01*
X47879Y-26964D01*
X47879Y-27145D02*
X48021Y-27078D01*
X47879Y-27031D02*
X48179Y-27031D01*
X48179Y-27107D01*
X48164Y-27126D01*
X48150Y-27135D01*
X48121Y-27145D01*
X48079Y-27145D01*
X48050Y-27135D01*
X48036Y-27126D01*
X48021Y-27107D01*
X48021Y-27031D01*
X48179Y-27202D02*
X48179Y-27316D01*
X47879Y-27259D02*
X48179Y-27259D01*
X48150Y-27373D02*
X48164Y-27383D01*
X48179Y-27402D01*
X48179Y-27449D01*
X48164Y-27468D01*
X48150Y-27478D01*
X48121Y-27487D01*
X48093Y-27487D01*
X48050Y-27478D01*
X47879Y-27364D01*
X47879Y-27487D01*
X47850Y-27525D02*
X47850Y-27677D01*
X48179Y-27696D02*
X48179Y-27810D01*
X47879Y-27753D02*
X48179Y-27753D01*
X48179Y-27858D02*
X47879Y-27991D01*
X48179Y-27991D02*
X47879Y-27858D01*
X48193Y-28209D02*
X47807Y-28038D01*
X47964Y-28267D02*
X47964Y-28362D01*
X47879Y-28248D02*
X48179Y-28315D01*
X47879Y-28381D01*
X47879Y-28448D02*
X48179Y-28448D01*
X47879Y-28562D01*
X48179Y-28562D01*
X48179Y-28639D02*
X48179Y-28762D01*
X48064Y-28696D01*
X48064Y-28724D01*
X48050Y-28743D01*
X48036Y-28753D01*
X48007Y-28762D01*
X47936Y-28762D01*
X47907Y-28753D01*
X47893Y-28743D01*
X47879Y-28724D01*
X47879Y-28667D01*
X47893Y-28648D01*
X47907Y-28639D01*
X49179Y-26412D02*
X48936Y-26412D01*
X48907Y-26421D01*
X48893Y-26431D01*
X48879Y-26450D01*
X48879Y-26488D01*
X48893Y-26507D01*
X48907Y-26516D01*
X48936Y-26526D01*
X49179Y-26526D01*
X48893Y-26612D02*
X48879Y-26641D01*
X48879Y-26688D01*
X48893Y-26707D01*
X48907Y-26717D01*
X48936Y-26726D01*
X48964Y-26726D01*
X48993Y-26717D01*
X49007Y-26707D01*
X49021Y-26688D01*
X49036Y-26650D01*
X49050Y-26631D01*
X49064Y-26622D01*
X49093Y-26612D01*
X49121Y-26612D01*
X49150Y-26622D01*
X49164Y-26631D01*
X49179Y-26650D01*
X49179Y-26698D01*
X49164Y-26726D01*
X48964Y-26802D02*
X48964Y-26897D01*
X48879Y-26783D02*
X49179Y-26850D01*
X48879Y-26916D01*
X48879Y-27097D02*
X49021Y-27030D01*
X48879Y-26983D02*
X49179Y-26983D01*
X49179Y-27059D01*
X49164Y-27078D01*
X49150Y-27087D01*
X49121Y-27097D01*
X49079Y-27097D01*
X49050Y-27087D01*
X49036Y-27078D01*
X49021Y-27059D01*
X49021Y-26983D01*
X49179Y-27154D02*
X49179Y-27268D01*
X48879Y-27211D02*
X49179Y-27211D01*
X49150Y-27325D02*
X49164Y-27335D01*
X49179Y-27354D01*
X49179Y-27401D01*
X49164Y-27420D01*
X49150Y-27430D01*
X49121Y-27439D01*
X49093Y-27439D01*
X49050Y-27430D01*
X48879Y-27316D01*
X48879Y-27439D01*
X48850Y-27477D02*
X48850Y-27629D01*
X48879Y-27791D02*
X49021Y-27724D01*
X48879Y-27677D02*
X49179Y-27677D01*
X49179Y-27753D01*
X49164Y-27772D01*
X49150Y-27781D01*
X49121Y-27791D01*
X49079Y-27791D01*
X49050Y-27781D01*
X49036Y-27772D01*
X49021Y-27753D01*
X49021Y-27677D01*
X49179Y-27858D02*
X48879Y-27991D01*
X49179Y-27991D02*
X48879Y-27858D01*
X49193Y-28209D02*
X48807Y-28038D01*
X48964Y-28267D02*
X48964Y-28362D01*
X48879Y-28248D02*
X49179Y-28315D01*
X48879Y-28381D01*
X48879Y-28448D02*
X49179Y-28448D01*
X48879Y-28562D01*
X49179Y-28562D01*
X49079Y-28743D02*
X48879Y-28743D01*
X49193Y-28696D02*
X48979Y-28648D01*
X48979Y-28772D01*
G54D11*
X49838Y-27728D02*
X50238Y-27728D01*
X50238Y-27800D01*
X50219Y-27843D01*
X50181Y-27871D01*
X50143Y-27886D01*
X50067Y-27900D01*
X50010Y-27900D01*
X49933Y-27886D01*
X49895Y-27871D01*
X49857Y-27843D01*
X49838Y-27800D01*
X49838Y-27728D01*
X49952Y-28014D02*
X49952Y-28157D01*
X49838Y-27986D02*
X50238Y-28086D01*
X49838Y-28186D01*
X49876Y-28457D02*
X49857Y-28443D01*
X49838Y-28400D01*
X49838Y-28371D01*
X49857Y-28328D01*
X49895Y-28300D01*
X49933Y-28285D01*
X50010Y-28271D01*
X50067Y-28271D01*
X50143Y-28285D01*
X50181Y-28300D01*
X50219Y-28328D01*
X50238Y-28371D01*
X50238Y-28400D01*
X50219Y-28443D01*
X50200Y-28457D01*
X49838Y-28743D02*
X49838Y-28571D01*
X49838Y-28657D02*
X50238Y-28657D01*
X50181Y-28628D01*
X50143Y-28600D01*
X50124Y-28571D01*
X50838Y-27742D02*
X51238Y-27742D01*
X50838Y-27914D01*
X51238Y-27914D01*
X50838Y-28228D02*
X51029Y-28128D01*
X50838Y-28056D02*
X51238Y-28056D01*
X51238Y-28171D01*
X51219Y-28199D01*
X51200Y-28214D01*
X51162Y-28228D01*
X51105Y-28228D01*
X51067Y-28214D01*
X51048Y-28199D01*
X51029Y-28171D01*
X51029Y-28056D01*
X50857Y-28342D02*
X50838Y-28385D01*
X50838Y-28456D01*
X50857Y-28485D01*
X50876Y-28499D01*
X50914Y-28514D01*
X50952Y-28514D01*
X50990Y-28499D01*
X51010Y-28485D01*
X51029Y-28456D01*
X51048Y-28399D01*
X51067Y-28371D01*
X51086Y-28356D01*
X51124Y-28342D01*
X51162Y-28342D01*
X51200Y-28356D01*
X51219Y-28371D01*
X51238Y-28399D01*
X51238Y-28471D01*
X51219Y-28514D01*
X51238Y-28600D02*
X51238Y-28771D01*
X50838Y-28685D02*
X51238Y-28685D01*
X27238Y-13143D02*
X27238Y-13329D01*
X27086Y-13229D01*
X27086Y-13271D01*
X27067Y-13300D01*
X27048Y-13314D01*
X27010Y-13329D01*
X26914Y-13329D01*
X26876Y-13314D01*
X26857Y-13300D01*
X26838Y-13271D01*
X26838Y-13186D01*
X26857Y-13157D01*
X26876Y-13143D01*
X26876Y-13457D02*
X26857Y-13472D01*
X26838Y-13457D01*
X26857Y-13443D01*
X26876Y-13457D01*
X26838Y-13457D01*
X27238Y-13572D02*
X27238Y-13758D01*
X27086Y-13658D01*
X27086Y-13700D01*
X27067Y-13729D01*
X27048Y-13743D01*
X27010Y-13758D01*
X26914Y-13758D01*
X26876Y-13743D01*
X26857Y-13729D01*
X26838Y-13700D01*
X26838Y-13615D01*
X26857Y-13586D01*
X26876Y-13572D01*
X27238Y-13844D02*
X26838Y-13944D01*
X27238Y-14044D01*
X28219Y-13329D02*
X28238Y-13300D01*
X28238Y-13257D01*
X28219Y-13214D01*
X28181Y-13186D01*
X28143Y-13171D01*
X28067Y-13157D01*
X28010Y-13157D01*
X27933Y-13171D01*
X27895Y-13186D01*
X27857Y-13214D01*
X27838Y-13257D01*
X27838Y-13286D01*
X27857Y-13329D01*
X27876Y-13343D01*
X28010Y-13343D01*
X28010Y-13286D01*
X27838Y-13471D02*
X28238Y-13471D01*
X27838Y-13643D01*
X28238Y-13643D01*
X27838Y-13785D02*
X28238Y-13785D01*
X28238Y-13857D01*
X28219Y-13900D01*
X28181Y-13928D01*
X28143Y-13943D01*
X28067Y-13957D01*
X28010Y-13957D01*
X27933Y-13943D01*
X27895Y-13928D01*
X27857Y-13900D01*
X27838Y-13857D01*
X27838Y-13785D01*
X28857Y-13157D02*
X28838Y-13200D01*
X28838Y-13271D01*
X28857Y-13300D01*
X28876Y-13314D01*
X28914Y-13329D01*
X28952Y-13329D01*
X28990Y-13314D01*
X29010Y-13300D01*
X29029Y-13271D01*
X29048Y-13214D01*
X29067Y-13186D01*
X29086Y-13171D01*
X29124Y-13157D01*
X29162Y-13157D01*
X29200Y-13171D01*
X29219Y-13186D01*
X29238Y-13214D01*
X29238Y-13286D01*
X29219Y-13329D01*
X28838Y-13457D02*
X29238Y-13457D01*
X29238Y-13572D01*
X29219Y-13600D01*
X29200Y-13615D01*
X29162Y-13629D01*
X29105Y-13629D01*
X29067Y-13615D01*
X29048Y-13600D01*
X29029Y-13572D01*
X29029Y-13457D01*
X28838Y-13757D02*
X29238Y-13757D01*
X29238Y-13872D02*
X29238Y-14058D01*
X29086Y-13958D01*
X29086Y-14000D01*
X29067Y-14029D01*
X29048Y-14043D01*
X29010Y-14058D01*
X28914Y-14058D01*
X28876Y-14043D01*
X28857Y-14029D01*
X28838Y-14000D01*
X28838Y-13915D01*
X28857Y-13886D01*
X28876Y-13872D01*
X28800Y-14115D02*
X28800Y-14344D01*
X28857Y-14401D02*
X28838Y-14444D01*
X28838Y-14515D01*
X28857Y-14544D01*
X28876Y-14558D01*
X28914Y-14573D01*
X28952Y-14573D01*
X28990Y-14558D01*
X29010Y-14544D01*
X29029Y-14515D01*
X29048Y-14458D01*
X29067Y-14430D01*
X29086Y-14415D01*
X29124Y-14401D01*
X29162Y-14401D01*
X29200Y-14415D01*
X29219Y-14430D01*
X29238Y-14458D01*
X29238Y-14530D01*
X29219Y-14573D01*
X28876Y-14873D02*
X28857Y-14859D01*
X28838Y-14816D01*
X28838Y-14787D01*
X28857Y-14744D01*
X28895Y-14716D01*
X28933Y-14701D01*
X29010Y-14687D01*
X29067Y-14687D01*
X29143Y-14701D01*
X29181Y-14716D01*
X29219Y-14744D01*
X29238Y-14787D01*
X29238Y-14816D01*
X29219Y-14859D01*
X29200Y-14873D01*
X28838Y-15001D02*
X29238Y-15001D01*
X28838Y-15173D02*
X29067Y-15044D01*
X29238Y-15173D02*
X29010Y-15001D01*
X29257Y-15516D02*
X28743Y-15259D01*
X29238Y-15615D02*
X28914Y-15615D01*
X28876Y-15630D01*
X28857Y-15644D01*
X28838Y-15673D01*
X28838Y-15730D01*
X28857Y-15758D01*
X28876Y-15773D01*
X28914Y-15787D01*
X29238Y-15787D01*
X28857Y-15915D02*
X28838Y-15958D01*
X28838Y-16029D01*
X28857Y-16058D01*
X28876Y-16072D01*
X28914Y-16087D01*
X28952Y-16087D01*
X28990Y-16072D01*
X29010Y-16058D01*
X29029Y-16029D01*
X29048Y-15972D01*
X29067Y-15944D01*
X29086Y-15929D01*
X29124Y-15915D01*
X29162Y-15915D01*
X29200Y-15929D01*
X29219Y-15944D01*
X29238Y-15972D01*
X29238Y-16044D01*
X29219Y-16087D01*
X28952Y-16201D02*
X28952Y-16344D01*
X28838Y-16173D02*
X29238Y-16273D01*
X28838Y-16373D01*
X28838Y-16644D02*
X29029Y-16544D01*
X28838Y-16472D02*
X29238Y-16472D01*
X29238Y-16587D01*
X29219Y-16615D01*
X29200Y-16630D01*
X29162Y-16644D01*
X29105Y-16644D01*
X29067Y-16630D01*
X29048Y-16615D01*
X29029Y-16587D01*
X29029Y-16472D01*
X29238Y-16730D02*
X29238Y-16901D01*
X28838Y-16815D02*
X29238Y-16815D01*
X29238Y-16973D02*
X29238Y-17159D01*
X29086Y-17059D01*
X29086Y-17101D01*
X29067Y-17130D01*
X29048Y-17144D01*
X29010Y-17159D01*
X28914Y-17159D01*
X28876Y-17144D01*
X28857Y-17130D01*
X28838Y-17101D01*
X28838Y-17016D01*
X28857Y-16987D01*
X28876Y-16973D01*
X28800Y-17216D02*
X28800Y-17445D01*
X29238Y-17474D02*
X29238Y-17645D01*
X28838Y-17559D02*
X29238Y-17559D01*
X29238Y-17717D02*
X28838Y-17917D01*
X29238Y-17917D02*
X28838Y-17717D01*
X29857Y-13157D02*
X29838Y-13200D01*
X29838Y-13271D01*
X29857Y-13300D01*
X29876Y-13314D01*
X29914Y-13329D01*
X29952Y-13329D01*
X29990Y-13314D01*
X30010Y-13300D01*
X30029Y-13271D01*
X30048Y-13214D01*
X30067Y-13186D01*
X30086Y-13171D01*
X30124Y-13157D01*
X30162Y-13157D01*
X30200Y-13171D01*
X30219Y-13186D01*
X30238Y-13214D01*
X30238Y-13286D01*
X30219Y-13329D01*
X29838Y-13457D02*
X30238Y-13457D01*
X30238Y-13572D01*
X30219Y-13600D01*
X30200Y-13615D01*
X30162Y-13629D01*
X30105Y-13629D01*
X30067Y-13615D01*
X30048Y-13600D01*
X30029Y-13572D01*
X30029Y-13457D01*
X29838Y-13757D02*
X30238Y-13757D01*
X30238Y-13872D02*
X30238Y-14058D01*
X30086Y-13958D01*
X30086Y-14000D01*
X30067Y-14029D01*
X30048Y-14043D01*
X30010Y-14058D01*
X29914Y-14058D01*
X29876Y-14043D01*
X29857Y-14029D01*
X29838Y-14000D01*
X29838Y-13915D01*
X29857Y-13886D01*
X29876Y-13872D01*
X29800Y-14115D02*
X29800Y-14344D01*
X29838Y-14415D02*
X30238Y-14415D01*
X29952Y-14515D01*
X30238Y-14615D01*
X29838Y-14615D01*
X29838Y-14758D02*
X30238Y-14758D01*
X29857Y-14887D02*
X29838Y-14930D01*
X29838Y-15001D01*
X29857Y-15030D01*
X29876Y-15044D01*
X29914Y-15059D01*
X29952Y-15059D01*
X29990Y-15044D01*
X30010Y-15030D01*
X30029Y-15001D01*
X30048Y-14944D01*
X30067Y-14916D01*
X30086Y-14901D01*
X30124Y-14887D01*
X30162Y-14887D01*
X30200Y-14901D01*
X30219Y-14916D01*
X30238Y-14944D01*
X30238Y-15016D01*
X30219Y-15059D01*
X30238Y-15245D02*
X30238Y-15302D01*
X30219Y-15330D01*
X30181Y-15359D01*
X30105Y-15373D01*
X29971Y-15373D01*
X29895Y-15359D01*
X29857Y-15330D01*
X29838Y-15302D01*
X29838Y-15245D01*
X29857Y-15216D01*
X29895Y-15187D01*
X29971Y-15173D01*
X30105Y-15173D01*
X30181Y-15187D01*
X30219Y-15216D01*
X30238Y-15245D01*
X30257Y-15716D02*
X29743Y-15459D01*
X30238Y-15815D02*
X29914Y-15815D01*
X29876Y-15830D01*
X29857Y-15844D01*
X29838Y-15873D01*
X29838Y-15930D01*
X29857Y-15958D01*
X29876Y-15973D01*
X29914Y-15987D01*
X30238Y-15987D01*
X29857Y-16115D02*
X29838Y-16158D01*
X29838Y-16229D01*
X29857Y-16258D01*
X29876Y-16272D01*
X29914Y-16287D01*
X29952Y-16287D01*
X29990Y-16272D01*
X30010Y-16258D01*
X30029Y-16229D01*
X30048Y-16172D01*
X30067Y-16144D01*
X30086Y-16129D01*
X30124Y-16115D01*
X30162Y-16115D01*
X30200Y-16129D01*
X30219Y-16144D01*
X30238Y-16172D01*
X30238Y-16244D01*
X30219Y-16287D01*
X29952Y-16401D02*
X29952Y-16544D01*
X29838Y-16373D02*
X30238Y-16473D01*
X29838Y-16573D01*
X29838Y-16844D02*
X30029Y-16744D01*
X29838Y-16672D02*
X30238Y-16672D01*
X30238Y-16787D01*
X30219Y-16815D01*
X30200Y-16830D01*
X30162Y-16844D01*
X30105Y-16844D01*
X30067Y-16830D01*
X30048Y-16815D01*
X30029Y-16787D01*
X30029Y-16672D01*
X30238Y-16930D02*
X30238Y-17101D01*
X29838Y-17015D02*
X30238Y-17015D01*
X30238Y-17173D02*
X30238Y-17359D01*
X30086Y-17259D01*
X30086Y-17301D01*
X30067Y-17330D01*
X30048Y-17344D01*
X30010Y-17359D01*
X29914Y-17359D01*
X29876Y-17344D01*
X29857Y-17330D01*
X29838Y-17301D01*
X29838Y-17216D01*
X29857Y-17187D01*
X29876Y-17173D01*
X29800Y-17416D02*
X29800Y-17645D01*
X29838Y-17888D02*
X30029Y-17788D01*
X29838Y-17716D02*
X30238Y-17716D01*
X30238Y-17831D01*
X30219Y-17859D01*
X30200Y-17874D01*
X30162Y-17888D01*
X30105Y-17888D01*
X30067Y-17874D01*
X30048Y-17859D01*
X30029Y-17831D01*
X30029Y-17716D01*
X30238Y-17988D02*
X29838Y-18188D01*
X30238Y-18188D02*
X29838Y-17988D01*
X30857Y-13157D02*
X30838Y-13200D01*
X30838Y-13271D01*
X30857Y-13300D01*
X30876Y-13314D01*
X30914Y-13329D01*
X30952Y-13329D01*
X30990Y-13314D01*
X31010Y-13300D01*
X31029Y-13271D01*
X31048Y-13214D01*
X31067Y-13186D01*
X31086Y-13171D01*
X31124Y-13157D01*
X31162Y-13157D01*
X31200Y-13171D01*
X31219Y-13186D01*
X31238Y-13214D01*
X31238Y-13286D01*
X31219Y-13329D01*
X30838Y-13457D02*
X31238Y-13457D01*
X31238Y-13572D01*
X31219Y-13600D01*
X31200Y-13615D01*
X31162Y-13629D01*
X31105Y-13629D01*
X31067Y-13615D01*
X31048Y-13600D01*
X31029Y-13572D01*
X31029Y-13457D01*
X30838Y-13757D02*
X31238Y-13757D01*
X31238Y-13872D02*
X31238Y-14058D01*
X31086Y-13958D01*
X31086Y-14000D01*
X31067Y-14029D01*
X31048Y-14043D01*
X31010Y-14058D01*
X30914Y-14058D01*
X30876Y-14043D01*
X30857Y-14029D01*
X30838Y-14000D01*
X30838Y-13915D01*
X30857Y-13886D01*
X30876Y-13872D01*
X30800Y-14115D02*
X30800Y-14344D01*
X30838Y-14415D02*
X31238Y-14415D01*
X30952Y-14515D01*
X31238Y-14615D01*
X30838Y-14615D01*
X31238Y-14816D02*
X31238Y-14873D01*
X31219Y-14901D01*
X31181Y-14930D01*
X31105Y-14944D01*
X30971Y-14944D01*
X30895Y-14930D01*
X30857Y-14901D01*
X30838Y-14873D01*
X30838Y-14816D01*
X30857Y-14787D01*
X30895Y-14758D01*
X30971Y-14744D01*
X31105Y-14744D01*
X31181Y-14758D01*
X31219Y-14787D01*
X31238Y-14816D01*
X30857Y-15058D02*
X30838Y-15101D01*
X30838Y-15172D01*
X30857Y-15201D01*
X30876Y-15215D01*
X30914Y-15230D01*
X30952Y-15230D01*
X30990Y-15215D01*
X31010Y-15201D01*
X31029Y-15172D01*
X31048Y-15115D01*
X31067Y-15087D01*
X31086Y-15072D01*
X31124Y-15058D01*
X31162Y-15058D01*
X31200Y-15072D01*
X31219Y-15087D01*
X31238Y-15115D01*
X31238Y-15187D01*
X31219Y-15230D01*
X30838Y-15358D02*
X31238Y-15358D01*
X32219Y-13329D02*
X32238Y-13300D01*
X32238Y-13257D01*
X32219Y-13214D01*
X32181Y-13186D01*
X32143Y-13171D01*
X32067Y-13157D01*
X32010Y-13157D01*
X31933Y-13171D01*
X31895Y-13186D01*
X31857Y-13214D01*
X31838Y-13257D01*
X31838Y-13286D01*
X31857Y-13329D01*
X31876Y-13343D01*
X32010Y-13343D01*
X32010Y-13286D01*
X31838Y-13471D02*
X32238Y-13471D01*
X32238Y-13586D01*
X32219Y-13614D01*
X32200Y-13629D01*
X32162Y-13643D01*
X32105Y-13643D01*
X32067Y-13629D01*
X32048Y-13614D01*
X32029Y-13586D01*
X32029Y-13471D01*
X31838Y-13771D02*
X32238Y-13771D01*
X32238Y-13972D02*
X32238Y-14029D01*
X32219Y-14057D01*
X32181Y-14086D01*
X32105Y-14100D01*
X31971Y-14100D01*
X31895Y-14086D01*
X31857Y-14057D01*
X31838Y-14029D01*
X31838Y-13972D01*
X31857Y-13943D01*
X31895Y-13914D01*
X31971Y-13900D01*
X32105Y-13900D01*
X32181Y-13914D01*
X32219Y-13943D01*
X32238Y-13972D01*
X31838Y-14386D02*
X31838Y-14214D01*
X31838Y-14300D02*
X32238Y-14300D01*
X32181Y-14271D01*
X32143Y-14243D01*
X32124Y-14214D01*
X34238Y-13143D02*
X34238Y-13329D01*
X34086Y-13229D01*
X34086Y-13271D01*
X34067Y-13300D01*
X34048Y-13314D01*
X34010Y-13329D01*
X33914Y-13329D01*
X33876Y-13314D01*
X33857Y-13300D01*
X33838Y-13271D01*
X33838Y-13186D01*
X33857Y-13157D01*
X33876Y-13143D01*
X33876Y-13457D02*
X33857Y-13472D01*
X33838Y-13457D01*
X33857Y-13443D01*
X33876Y-13457D01*
X33838Y-13457D01*
X34238Y-13572D02*
X34238Y-13758D01*
X34086Y-13658D01*
X34086Y-13700D01*
X34067Y-13729D01*
X34048Y-13743D01*
X34010Y-13758D01*
X33914Y-13758D01*
X33876Y-13743D01*
X33857Y-13729D01*
X33838Y-13700D01*
X33838Y-13615D01*
X33857Y-13586D01*
X33876Y-13572D01*
X34238Y-13844D02*
X33838Y-13944D01*
X34238Y-14044D01*
X35219Y-13329D02*
X35238Y-13300D01*
X35238Y-13257D01*
X35219Y-13214D01*
X35181Y-13186D01*
X35143Y-13171D01*
X35067Y-13157D01*
X35010Y-13157D01*
X34933Y-13171D01*
X34895Y-13186D01*
X34857Y-13214D01*
X34838Y-13257D01*
X34838Y-13286D01*
X34857Y-13329D01*
X34876Y-13343D01*
X35010Y-13343D01*
X35010Y-13286D01*
X34838Y-13471D02*
X35238Y-13471D01*
X34838Y-13643D01*
X35238Y-13643D01*
X34838Y-13785D02*
X35238Y-13785D01*
X35238Y-13857D01*
X35219Y-13900D01*
X35181Y-13928D01*
X35143Y-13943D01*
X35067Y-13957D01*
X35010Y-13957D01*
X34933Y-13943D01*
X34895Y-13928D01*
X34857Y-13900D01*
X34838Y-13857D01*
X34838Y-13785D01*
X36219Y-13329D02*
X36238Y-13300D01*
X36238Y-13257D01*
X36219Y-13214D01*
X36181Y-13186D01*
X36143Y-13171D01*
X36067Y-13157D01*
X36010Y-13157D01*
X35933Y-13171D01*
X35895Y-13186D01*
X35857Y-13214D01*
X35838Y-13257D01*
X35838Y-13286D01*
X35857Y-13329D01*
X35876Y-13343D01*
X36010Y-13343D01*
X36010Y-13286D01*
X35838Y-13471D02*
X36238Y-13471D01*
X36238Y-13586D01*
X36219Y-13614D01*
X36200Y-13629D01*
X36162Y-13643D01*
X36105Y-13643D01*
X36067Y-13629D01*
X36048Y-13614D01*
X36029Y-13586D01*
X36029Y-13471D01*
X35838Y-13771D02*
X36238Y-13771D01*
X36238Y-13972D02*
X36238Y-14029D01*
X36219Y-14057D01*
X36181Y-14086D01*
X36105Y-14100D01*
X35971Y-14100D01*
X35895Y-14086D01*
X35857Y-14057D01*
X35838Y-14029D01*
X35838Y-13972D01*
X35857Y-13943D01*
X35895Y-13914D01*
X35971Y-13900D01*
X36105Y-13900D01*
X36181Y-13914D01*
X36219Y-13943D01*
X36238Y-13972D01*
X36200Y-14214D02*
X36219Y-14228D01*
X36238Y-14257D01*
X36238Y-14328D01*
X36219Y-14357D01*
X36200Y-14371D01*
X36162Y-14386D01*
X36124Y-14386D01*
X36067Y-14371D01*
X35838Y-14200D01*
X35838Y-14386D01*
X37219Y-13329D02*
X37238Y-13300D01*
X37238Y-13257D01*
X37219Y-13214D01*
X37181Y-13186D01*
X37143Y-13171D01*
X37067Y-13157D01*
X37010Y-13157D01*
X36933Y-13171D01*
X36895Y-13186D01*
X36857Y-13214D01*
X36838Y-13257D01*
X36838Y-13286D01*
X36857Y-13329D01*
X36876Y-13343D01*
X37010Y-13343D01*
X37010Y-13286D01*
X36838Y-13471D02*
X37238Y-13471D01*
X37238Y-13586D01*
X37219Y-13614D01*
X37200Y-13629D01*
X37162Y-13643D01*
X37105Y-13643D01*
X37067Y-13629D01*
X37048Y-13614D01*
X37029Y-13586D01*
X37029Y-13471D01*
X36838Y-13771D02*
X37238Y-13771D01*
X37238Y-13972D02*
X37238Y-14029D01*
X37219Y-14057D01*
X37181Y-14086D01*
X37105Y-14100D01*
X36971Y-14100D01*
X36895Y-14086D01*
X36857Y-14057D01*
X36838Y-14029D01*
X36838Y-13972D01*
X36857Y-13943D01*
X36895Y-13914D01*
X36971Y-13900D01*
X37105Y-13900D01*
X37181Y-13914D01*
X37219Y-13943D01*
X37238Y-13972D01*
X37238Y-14200D02*
X37238Y-14386D01*
X37086Y-14286D01*
X37086Y-14328D01*
X37067Y-14357D01*
X37048Y-14371D01*
X37010Y-14386D01*
X36914Y-14386D01*
X36876Y-14371D01*
X36857Y-14357D01*
X36838Y-14328D01*
X36838Y-14243D01*
X36857Y-14214D01*
X36876Y-14200D01*
X39238Y-13143D02*
X39238Y-13329D01*
X39086Y-13229D01*
X39086Y-13271D01*
X39067Y-13300D01*
X39048Y-13314D01*
X39010Y-13329D01*
X38914Y-13329D01*
X38876Y-13314D01*
X38857Y-13300D01*
X38838Y-13271D01*
X38838Y-13186D01*
X38857Y-13157D01*
X38876Y-13143D01*
X38876Y-13457D02*
X38857Y-13472D01*
X38838Y-13457D01*
X38857Y-13443D01*
X38876Y-13457D01*
X38838Y-13457D01*
X39238Y-13572D02*
X39238Y-13758D01*
X39086Y-13658D01*
X39086Y-13700D01*
X39067Y-13729D01*
X39048Y-13743D01*
X39010Y-13758D01*
X38914Y-13758D01*
X38876Y-13743D01*
X38857Y-13729D01*
X38838Y-13700D01*
X38838Y-13615D01*
X38857Y-13586D01*
X38876Y-13572D01*
X39238Y-13844D02*
X38838Y-13944D01*
X39238Y-14044D01*
X40219Y-13329D02*
X40238Y-13300D01*
X40238Y-13257D01*
X40219Y-13214D01*
X40181Y-13186D01*
X40143Y-13171D01*
X40067Y-13157D01*
X40010Y-13157D01*
X39933Y-13171D01*
X39895Y-13186D01*
X39857Y-13214D01*
X39838Y-13257D01*
X39838Y-13286D01*
X39857Y-13329D01*
X39876Y-13343D01*
X40010Y-13343D01*
X40010Y-13286D01*
X39838Y-13471D02*
X40238Y-13471D01*
X39838Y-13643D01*
X40238Y-13643D01*
X39838Y-13785D02*
X40238Y-13785D01*
X40238Y-13857D01*
X40219Y-13900D01*
X40181Y-13928D01*
X40143Y-13943D01*
X40067Y-13957D01*
X40010Y-13957D01*
X39933Y-13943D01*
X39895Y-13928D01*
X39857Y-13900D01*
X39838Y-13857D01*
X39838Y-13785D01*
X40838Y-13171D02*
X41238Y-13171D01*
X41238Y-13286D01*
X41219Y-13314D01*
X41200Y-13329D01*
X41162Y-13343D01*
X41105Y-13343D01*
X41067Y-13329D01*
X41048Y-13314D01*
X41029Y-13286D01*
X41029Y-13171D01*
X41238Y-13443D02*
X40838Y-13514D01*
X41124Y-13571D01*
X40838Y-13629D01*
X41238Y-13700D01*
X40838Y-13814D02*
X41238Y-13814D01*
X40952Y-13914D01*
X41238Y-14014D01*
X40838Y-14014D01*
X40800Y-14086D02*
X40800Y-14315D01*
X40952Y-14372D02*
X40952Y-14515D01*
X40838Y-14344D02*
X41238Y-14444D01*
X40838Y-14544D01*
X40838Y-14801D02*
X40838Y-14629D01*
X40838Y-14715D02*
X41238Y-14715D01*
X41181Y-14686D01*
X41143Y-14658D01*
X41124Y-14629D01*
X41838Y-13171D02*
X42238Y-13171D01*
X42238Y-13286D01*
X42219Y-13314D01*
X42200Y-13329D01*
X42162Y-13343D01*
X42105Y-13343D01*
X42067Y-13329D01*
X42048Y-13314D01*
X42029Y-13286D01*
X42029Y-13171D01*
X42238Y-13443D02*
X41838Y-13514D01*
X42124Y-13571D01*
X41838Y-13629D01*
X42238Y-13700D01*
X41838Y-13814D02*
X42238Y-13814D01*
X41952Y-13914D01*
X42238Y-14014D01*
X41838Y-14014D01*
X41800Y-14086D02*
X41800Y-14315D01*
X41952Y-14372D02*
X41952Y-14515D01*
X41838Y-14344D02*
X42238Y-14444D01*
X41838Y-14544D01*
X42200Y-14629D02*
X42219Y-14643D01*
X42238Y-14672D01*
X42238Y-14743D01*
X42219Y-14772D01*
X42200Y-14786D01*
X42162Y-14801D01*
X42124Y-14801D01*
X42067Y-14786D01*
X41838Y-14615D01*
X41838Y-14801D01*
X42838Y-13171D02*
X43238Y-13171D01*
X43238Y-13286D01*
X43219Y-13314D01*
X43200Y-13329D01*
X43162Y-13343D01*
X43105Y-13343D01*
X43067Y-13329D01*
X43048Y-13314D01*
X43029Y-13286D01*
X43029Y-13171D01*
X42952Y-13457D02*
X42952Y-13600D01*
X42838Y-13429D02*
X43238Y-13529D01*
X42838Y-13629D01*
X42838Y-13728D02*
X43238Y-13728D01*
X42952Y-13828D01*
X43238Y-13928D01*
X42838Y-13928D01*
X42800Y-14000D02*
X42800Y-14229D01*
X42952Y-14286D02*
X42952Y-14429D01*
X42838Y-14258D02*
X43238Y-14358D01*
X42838Y-14458D01*
X43238Y-14529D02*
X43238Y-14715D01*
X43086Y-14615D01*
X43086Y-14657D01*
X43067Y-14686D01*
X43048Y-14700D01*
X43010Y-14715D01*
X42914Y-14715D01*
X42876Y-14700D01*
X42857Y-14686D01*
X42838Y-14657D01*
X42838Y-14572D01*
X42857Y-14543D01*
X42876Y-14529D01*
X43838Y-13171D02*
X44238Y-13171D01*
X44238Y-13286D01*
X44219Y-13314D01*
X44200Y-13329D01*
X44162Y-13343D01*
X44105Y-13343D01*
X44067Y-13329D01*
X44048Y-13314D01*
X44029Y-13286D01*
X44029Y-13171D01*
X44238Y-13443D02*
X43838Y-13514D01*
X44124Y-13571D01*
X43838Y-13629D01*
X44238Y-13700D01*
X43838Y-13814D02*
X44238Y-13814D01*
X43952Y-13914D01*
X44238Y-14014D01*
X43838Y-14014D01*
X43800Y-14086D02*
X43800Y-14315D01*
X43952Y-14372D02*
X43952Y-14515D01*
X43838Y-14344D02*
X44238Y-14444D01*
X43838Y-14544D01*
X44105Y-14772D02*
X43838Y-14772D01*
X44257Y-14701D02*
X43971Y-14629D01*
X43971Y-14815D01*
X46238Y-13143D02*
X46238Y-13329D01*
X46086Y-13229D01*
X46086Y-13271D01*
X46067Y-13300D01*
X46048Y-13314D01*
X46010Y-13329D01*
X45914Y-13329D01*
X45876Y-13314D01*
X45857Y-13300D01*
X45838Y-13271D01*
X45838Y-13186D01*
X45857Y-13157D01*
X45876Y-13143D01*
X45876Y-13457D02*
X45857Y-13472D01*
X45838Y-13457D01*
X45857Y-13443D01*
X45876Y-13457D01*
X45838Y-13457D01*
X46238Y-13572D02*
X46238Y-13758D01*
X46086Y-13658D01*
X46086Y-13700D01*
X46067Y-13729D01*
X46048Y-13743D01*
X46010Y-13758D01*
X45914Y-13758D01*
X45876Y-13743D01*
X45857Y-13729D01*
X45838Y-13700D01*
X45838Y-13615D01*
X45857Y-13586D01*
X45876Y-13572D01*
X46238Y-13844D02*
X45838Y-13944D01*
X46238Y-14044D01*
X47219Y-13329D02*
X47238Y-13300D01*
X47238Y-13257D01*
X47219Y-13214D01*
X47181Y-13186D01*
X47143Y-13171D01*
X47067Y-13157D01*
X47010Y-13157D01*
X46933Y-13171D01*
X46895Y-13186D01*
X46857Y-13214D01*
X46838Y-13257D01*
X46838Y-13286D01*
X46857Y-13329D01*
X46876Y-13343D01*
X47010Y-13343D01*
X47010Y-13286D01*
X46838Y-13471D02*
X47238Y-13471D01*
X46838Y-13643D01*
X47238Y-13643D01*
X46838Y-13785D02*
X47238Y-13785D01*
X47238Y-13857D01*
X47219Y-13900D01*
X47181Y-13928D01*
X47143Y-13943D01*
X47067Y-13957D01*
X47010Y-13957D01*
X46933Y-13943D01*
X46895Y-13928D01*
X46857Y-13900D01*
X46838Y-13857D01*
X46838Y-13785D01*
G54D12*
X47893Y-13138D02*
X47879Y-13167D01*
X47879Y-13214D01*
X47893Y-13233D01*
X47907Y-13243D01*
X47936Y-13252D01*
X47964Y-13252D01*
X47993Y-13243D01*
X48007Y-13233D01*
X48021Y-13214D01*
X48036Y-13176D01*
X48050Y-13157D01*
X48064Y-13148D01*
X48093Y-13138D01*
X48121Y-13138D01*
X48150Y-13148D01*
X48164Y-13157D01*
X48179Y-13176D01*
X48179Y-13224D01*
X48164Y-13252D01*
X47879Y-13338D02*
X48179Y-13338D01*
X48179Y-13414D01*
X48164Y-13433D01*
X48150Y-13442D01*
X48121Y-13452D01*
X48079Y-13452D01*
X48050Y-13442D01*
X48036Y-13433D01*
X48021Y-13414D01*
X48021Y-13338D01*
X47879Y-13538D02*
X48179Y-13538D01*
X48179Y-13614D02*
X48179Y-13737D01*
X48064Y-13671D01*
X48064Y-13699D01*
X48050Y-13718D01*
X48036Y-13728D01*
X48007Y-13737D01*
X47936Y-13737D01*
X47907Y-13728D01*
X47893Y-13718D01*
X47879Y-13699D01*
X47879Y-13642D01*
X47893Y-13623D01*
X47907Y-13614D01*
X47850Y-13775D02*
X47850Y-13927D01*
X47893Y-13965D02*
X47879Y-13994D01*
X47879Y-14041D01*
X47893Y-14060D01*
X47907Y-14070D01*
X47936Y-14079D01*
X47964Y-14079D01*
X47993Y-14070D01*
X48007Y-14060D01*
X48021Y-14041D01*
X48036Y-14003D01*
X48050Y-13984D01*
X48064Y-13975D01*
X48093Y-13965D01*
X48121Y-13965D01*
X48150Y-13975D01*
X48164Y-13984D01*
X48179Y-14003D01*
X48179Y-14051D01*
X48164Y-14079D01*
X47907Y-14279D02*
X47893Y-14269D01*
X47879Y-14241D01*
X47879Y-14222D01*
X47893Y-14193D01*
X47921Y-14174D01*
X47950Y-14165D01*
X48007Y-14155D01*
X48050Y-14155D01*
X48107Y-14165D01*
X48136Y-14174D01*
X48164Y-14193D01*
X48179Y-14222D01*
X48179Y-14241D01*
X48164Y-14269D01*
X48150Y-14279D01*
X47879Y-14365D02*
X48179Y-14365D01*
X47879Y-14479D02*
X48050Y-14393D01*
X48179Y-14479D02*
X48007Y-14365D01*
X48193Y-14707D02*
X47807Y-14536D01*
X48164Y-14879D02*
X48179Y-14860D01*
X48179Y-14832D01*
X48164Y-14803D01*
X48136Y-14784D01*
X48107Y-14775D01*
X48050Y-14765D01*
X48007Y-14765D01*
X47950Y-14775D01*
X47921Y-14784D01*
X47893Y-14803D01*
X47879Y-14832D01*
X47879Y-14851D01*
X47893Y-14879D01*
X47907Y-14889D01*
X48007Y-14889D01*
X48007Y-14851D01*
X47879Y-14975D02*
X48179Y-14975D01*
X48179Y-15051D01*
X48164Y-15070D01*
X48150Y-15079D01*
X48121Y-15089D01*
X48079Y-15089D01*
X48050Y-15079D01*
X48036Y-15070D01*
X48021Y-15051D01*
X48021Y-14975D01*
X47879Y-15175D02*
X48179Y-15175D01*
X48179Y-15308D02*
X48179Y-15346D01*
X48164Y-15365D01*
X48136Y-15384D01*
X48079Y-15393D01*
X47979Y-15393D01*
X47921Y-15384D01*
X47893Y-15365D01*
X47879Y-15346D01*
X47879Y-15308D01*
X47893Y-15289D01*
X47921Y-15270D01*
X47979Y-15260D01*
X48079Y-15260D01*
X48136Y-15270D01*
X48164Y-15289D01*
X48179Y-15308D01*
X48079Y-15565D02*
X47879Y-15565D01*
X48193Y-15518D02*
X47979Y-15470D01*
X47979Y-15594D01*
X48893Y-13138D02*
X48879Y-13167D01*
X48879Y-13214D01*
X48893Y-13233D01*
X48907Y-13243D01*
X48936Y-13252D01*
X48964Y-13252D01*
X48993Y-13243D01*
X49007Y-13233D01*
X49021Y-13214D01*
X49036Y-13176D01*
X49050Y-13157D01*
X49064Y-13148D01*
X49093Y-13138D01*
X49121Y-13138D01*
X49150Y-13148D01*
X49164Y-13157D01*
X49179Y-13176D01*
X49179Y-13224D01*
X49164Y-13252D01*
X48879Y-13338D02*
X49179Y-13338D01*
X49179Y-13414D01*
X49164Y-13433D01*
X49150Y-13442D01*
X49121Y-13452D01*
X49079Y-13452D01*
X49050Y-13442D01*
X49036Y-13433D01*
X49021Y-13414D01*
X49021Y-13338D01*
X48879Y-13538D02*
X49179Y-13538D01*
X49179Y-13614D02*
X49179Y-13737D01*
X49064Y-13671D01*
X49064Y-13699D01*
X49050Y-13718D01*
X49036Y-13728D01*
X49007Y-13737D01*
X48936Y-13737D01*
X48907Y-13728D01*
X48893Y-13718D01*
X48879Y-13699D01*
X48879Y-13642D01*
X48893Y-13623D01*
X48907Y-13614D01*
X48850Y-13775D02*
X48850Y-13927D01*
X48879Y-13975D02*
X49179Y-13975D01*
X48964Y-14041D01*
X49179Y-14108D01*
X48879Y-14108D01*
X48879Y-14204D02*
X49179Y-14204D01*
X48893Y-14289D02*
X48879Y-14318D01*
X48879Y-14365D01*
X48893Y-14384D01*
X48907Y-14394D01*
X48936Y-14403D01*
X48964Y-14403D01*
X48993Y-14394D01*
X49007Y-14384D01*
X49021Y-14365D01*
X49036Y-14327D01*
X49050Y-14308D01*
X49064Y-14299D01*
X49093Y-14289D01*
X49121Y-14289D01*
X49150Y-14299D01*
X49164Y-14308D01*
X49179Y-14327D01*
X49179Y-14375D01*
X49164Y-14403D01*
X49179Y-14527D02*
X49179Y-14565D01*
X49164Y-14584D01*
X49136Y-14603D01*
X49079Y-14612D01*
X48979Y-14612D01*
X48921Y-14603D01*
X48893Y-14584D01*
X48879Y-14565D01*
X48879Y-14527D01*
X48893Y-14508D01*
X48921Y-14489D01*
X48979Y-14479D01*
X49079Y-14479D01*
X49136Y-14489D01*
X49164Y-14508D01*
X49179Y-14527D01*
X49193Y-14841D02*
X48807Y-14670D01*
X49164Y-15013D02*
X49179Y-14994D01*
X49179Y-14966D01*
X49164Y-14937D01*
X49136Y-14918D01*
X49107Y-14909D01*
X49050Y-14899D01*
X49007Y-14899D01*
X48950Y-14909D01*
X48921Y-14918D01*
X48893Y-14937D01*
X48879Y-14966D01*
X48879Y-14985D01*
X48893Y-15013D01*
X48907Y-15023D01*
X49007Y-15023D01*
X49007Y-14985D01*
X48879Y-15109D02*
X49179Y-15109D01*
X49179Y-15185D01*
X49164Y-15204D01*
X49150Y-15213D01*
X49121Y-15223D01*
X49079Y-15223D01*
X49050Y-15213D01*
X49036Y-15204D01*
X49021Y-15185D01*
X49021Y-15109D01*
X48879Y-15309D02*
X49179Y-15309D01*
X49179Y-15442D02*
X49179Y-15480D01*
X49164Y-15499D01*
X49136Y-15518D01*
X49079Y-15527D01*
X48979Y-15527D01*
X48921Y-15518D01*
X48893Y-15499D01*
X48879Y-15480D01*
X48879Y-15442D01*
X48893Y-15423D01*
X48921Y-15404D01*
X48979Y-15394D01*
X49079Y-15394D01*
X49136Y-15404D01*
X49164Y-15423D01*
X49179Y-15442D01*
X49179Y-15709D02*
X49179Y-15614D01*
X49036Y-15604D01*
X49050Y-15614D01*
X49064Y-15633D01*
X49064Y-15680D01*
X49050Y-15699D01*
X49036Y-15709D01*
X49007Y-15718D01*
X48936Y-15718D01*
X48907Y-15709D01*
X48893Y-15699D01*
X48879Y-15680D01*
X48879Y-15633D01*
X48893Y-15614D01*
X48907Y-15604D01*
X49893Y-13138D02*
X49879Y-13167D01*
X49879Y-13214D01*
X49893Y-13233D01*
X49907Y-13243D01*
X49936Y-13252D01*
X49964Y-13252D01*
X49993Y-13243D01*
X50007Y-13233D01*
X50021Y-13214D01*
X50036Y-13176D01*
X50050Y-13157D01*
X50064Y-13148D01*
X50093Y-13138D01*
X50121Y-13138D01*
X50150Y-13148D01*
X50164Y-13157D01*
X50179Y-13176D01*
X50179Y-13224D01*
X50164Y-13252D01*
X49879Y-13338D02*
X50179Y-13338D01*
X50179Y-13414D01*
X50164Y-13433D01*
X50150Y-13442D01*
X50121Y-13452D01*
X50079Y-13452D01*
X50050Y-13442D01*
X50036Y-13433D01*
X50021Y-13414D01*
X50021Y-13338D01*
X49879Y-13538D02*
X50179Y-13538D01*
X50179Y-13614D02*
X50179Y-13737D01*
X50064Y-13671D01*
X50064Y-13699D01*
X50050Y-13718D01*
X50036Y-13728D01*
X50007Y-13737D01*
X49936Y-13737D01*
X49907Y-13728D01*
X49893Y-13718D01*
X49879Y-13699D01*
X49879Y-13642D01*
X49893Y-13623D01*
X49907Y-13614D01*
X49850Y-13775D02*
X49850Y-13927D01*
X49879Y-13975D02*
X50179Y-13975D01*
X49964Y-14041D01*
X50179Y-14108D01*
X49879Y-14108D01*
X50179Y-14242D02*
X50179Y-14280D01*
X50164Y-14299D01*
X50136Y-14318D01*
X50079Y-14327D01*
X49979Y-14327D01*
X49921Y-14318D01*
X49893Y-14299D01*
X49879Y-14280D01*
X49879Y-14242D01*
X49893Y-14223D01*
X49921Y-14204D01*
X49979Y-14194D01*
X50079Y-14194D01*
X50136Y-14204D01*
X50164Y-14223D01*
X50179Y-14242D01*
X49893Y-14404D02*
X49879Y-14433D01*
X49879Y-14480D01*
X49893Y-14499D01*
X49907Y-14509D01*
X49936Y-14518D01*
X49964Y-14518D01*
X49993Y-14509D01*
X50007Y-14499D01*
X50021Y-14480D01*
X50036Y-14442D01*
X50050Y-14423D01*
X50064Y-14414D01*
X50093Y-14404D01*
X50121Y-14404D01*
X50150Y-14414D01*
X50164Y-14423D01*
X50179Y-14442D01*
X50179Y-14490D01*
X50164Y-14518D01*
X49879Y-14604D02*
X50179Y-14604D01*
X50193Y-14841D02*
X49807Y-14670D01*
X50164Y-15013D02*
X50179Y-14994D01*
X50179Y-14966D01*
X50164Y-14937D01*
X50136Y-14918D01*
X50107Y-14909D01*
X50050Y-14899D01*
X50007Y-14899D01*
X49950Y-14909D01*
X49921Y-14918D01*
X49893Y-14937D01*
X49879Y-14966D01*
X49879Y-14985D01*
X49893Y-15013D01*
X49907Y-15023D01*
X50007Y-15023D01*
X50007Y-14985D01*
X49879Y-15109D02*
X50179Y-15109D01*
X50179Y-15185D01*
X50164Y-15204D01*
X50150Y-15213D01*
X50121Y-15223D01*
X50079Y-15223D01*
X50050Y-15213D01*
X50036Y-15204D01*
X50021Y-15185D01*
X50021Y-15109D01*
X49879Y-15309D02*
X50179Y-15309D01*
X50179Y-15442D02*
X50179Y-15480D01*
X50164Y-15499D01*
X50136Y-15518D01*
X50079Y-15527D01*
X49979Y-15527D01*
X49921Y-15518D01*
X49893Y-15499D01*
X49879Y-15480D01*
X49879Y-15442D01*
X49893Y-15423D01*
X49921Y-15404D01*
X49979Y-15394D01*
X50079Y-15394D01*
X50136Y-15404D01*
X50164Y-15423D01*
X50179Y-15442D01*
X50179Y-15699D02*
X50179Y-15661D01*
X50164Y-15642D01*
X50150Y-15633D01*
X50107Y-15614D01*
X50050Y-15604D01*
X49936Y-15604D01*
X49907Y-15614D01*
X49893Y-15623D01*
X49879Y-15642D01*
X49879Y-15680D01*
X49893Y-15699D01*
X49907Y-15709D01*
X49936Y-15718D01*
X50007Y-15718D01*
X50036Y-15709D01*
X50050Y-15699D01*
X50064Y-15680D01*
X50064Y-15642D01*
X50050Y-15623D01*
X50036Y-15614D01*
X50007Y-15604D01*
G54D11*
X51219Y-13329D02*
X51238Y-13300D01*
X51238Y-13257D01*
X51219Y-13214D01*
X51181Y-13186D01*
X51143Y-13171D01*
X51067Y-13157D01*
X51010Y-13157D01*
X50933Y-13171D01*
X50895Y-13186D01*
X50857Y-13214D01*
X50838Y-13257D01*
X50838Y-13286D01*
X50857Y-13329D01*
X50876Y-13343D01*
X51010Y-13343D01*
X51010Y-13286D01*
X50838Y-13471D02*
X51238Y-13471D01*
X51238Y-13586D01*
X51219Y-13614D01*
X51200Y-13629D01*
X51162Y-13643D01*
X51105Y-13643D01*
X51067Y-13629D01*
X51048Y-13614D01*
X51029Y-13586D01*
X51029Y-13471D01*
X50838Y-13771D02*
X51238Y-13771D01*
X51238Y-13972D02*
X51238Y-14029D01*
X51219Y-14057D01*
X51181Y-14086D01*
X51105Y-14100D01*
X50971Y-14100D01*
X50895Y-14086D01*
X50857Y-14057D01*
X50838Y-14029D01*
X50838Y-13972D01*
X50857Y-13943D01*
X50895Y-13914D01*
X50971Y-13900D01*
X51105Y-13900D01*
X51181Y-13914D01*
X51219Y-13943D01*
X51238Y-13972D01*
X51238Y-14200D02*
X51238Y-14400D01*
X50838Y-14271D01*
G54D13*
X13400Y-30100D02*
X51600Y-30100D01*
X51600Y-11800D02*
X13400Y-11800D01*
X51600Y-30100D02*
X51600Y-11800D01*
X13400Y-11800D02*
X13400Y-30100D01*
X13500Y-28000D02*
X13500Y-30000D01*
X13500Y-30000D02*
X25500Y-30000D01*
X25500Y-30000D02*
X25500Y-28000D01*
X25500Y-28000D02*
X13500Y-28000D01*
X13500Y-12000D02*
X13500Y-14000D01*
X13500Y-14000D02*
X25500Y-14000D01*
X25500Y-14000D02*
X25500Y-12000D01*
X25500Y-12000D02*
X13500Y-12000D01*
X26500Y-12000D02*
X26500Y-13000D01*
X26500Y-13000D02*
X51500Y-13000D01*
X51500Y-13000D02*
X51500Y-12000D01*
X51500Y-12000D02*
X26500Y-12000D01*
X26500Y-29000D02*
X26500Y-30000D01*
X26500Y-30000D02*
X51500Y-30000D01*
X51500Y-30000D02*
X51500Y-29000D01*
X51500Y-29000D02*
X26500Y-29000D01*
G54D14*
X43218Y-17392D02*
X43218Y-16634D01*
X51201Y-16624D02*
X51201Y-17392D01*
X51201Y-16614D02*
X43218Y-16614D01*
X43218Y-17402D02*
X51201Y-17402D01*
X43218Y-26053D02*
X43218Y-25295D01*
X51201Y-25285D02*
X51201Y-26053D01*
X51201Y-25275D02*
X43218Y-25275D01*
X43218Y-26063D02*
X51201Y-26063D01*
G54D15*
G36*
X33874Y-23702D02*
X33867Y-23699D01*
X33861Y-23694D01*
X33852Y-23686D01*
X33849Y-23676D01*
X33850Y-23668D01*
X33851Y-23662D01*
X33855Y-23656D01*
X33861Y-23650D01*
X33870Y-23642D01*
X33883Y-23632D01*
X33898Y-23620D01*
X33974Y-23568D01*
X34054Y-23519D01*
X34139Y-23473D01*
X34217Y-23436D01*
X34238Y-23427D01*
X34253Y-23420D01*
X34265Y-23416D01*
X34274Y-23414D01*
X34281Y-23413D01*
X34287Y-23413D01*
X34293Y-23415D01*
X34293Y-23415D01*
X34301Y-23421D01*
X34306Y-23431D01*
X34309Y-23441D01*
X34309Y-23448D01*
X34307Y-23454D01*
X34303Y-23459D01*
X34296Y-23465D01*
X34286Y-23471D01*
X34272Y-23478D01*
X34253Y-23487D01*
X34246Y-23489D01*
X34191Y-23515D01*
X34135Y-23544D01*
X34079Y-23575D01*
X34025Y-23608D01*
X33974Y-23641D01*
X33928Y-23673D01*
X33922Y-23677D01*
X33906Y-23689D01*
X33893Y-23697D01*
X33883Y-23701D01*
X33874Y-23702D01*
X33874Y-23702D01*
X33874Y-23702D01*
G37*
G36*
X33903Y-23441D02*
X33891Y-23438D01*
X33882Y-23431D01*
X33877Y-23420D01*
X33875Y-23409D01*
X33879Y-23397D01*
X33880Y-23394D01*
X33886Y-23389D01*
X33895Y-23384D01*
X33899Y-23383D01*
X33904Y-23381D01*
X33915Y-23377D01*
X33931Y-23372D01*
X33950Y-23366D01*
X33972Y-23360D01*
X33997Y-23352D01*
X34024Y-23344D01*
X34051Y-23335D01*
X34079Y-23327D01*
X34107Y-23318D01*
X34133Y-23310D01*
X34158Y-23303D01*
X34180Y-23296D01*
X34199Y-23291D01*
X34214Y-23286D01*
X34225Y-23283D01*
X34230Y-23282D01*
X34239Y-23281D01*
X34245Y-23283D01*
X34256Y-23292D01*
X34262Y-23303D01*
X34263Y-23314D01*
X34260Y-23325D01*
X34251Y-23334D01*
X34245Y-23338D01*
X34238Y-23341D01*
X34226Y-23345D01*
X34210Y-23350D01*
X34190Y-23356D01*
X34166Y-23363D01*
X34141Y-23371D01*
X34114Y-23380D01*
X34086Y-23388D01*
X34058Y-23397D01*
X34030Y-23405D01*
X34003Y-23413D01*
X33978Y-23420D01*
X33955Y-23427D01*
X33936Y-23432D01*
X33920Y-23436D01*
X33909Y-23439D01*
X33903Y-23441D01*
X33903Y-23441D01*
X33903Y-23441D01*
X33903Y-23441D01*
G37*
G36*
X33974Y-23226D02*
X33965Y-23226D01*
X33959Y-23226D01*
X33954Y-23224D01*
X33950Y-23223D01*
X33948Y-23221D01*
X33945Y-23218D01*
X33944Y-23217D01*
X33937Y-23205D01*
X33936Y-23194D01*
X33941Y-23183D01*
X33945Y-23179D01*
X33953Y-23172D01*
X33963Y-23168D01*
X33964Y-23168D01*
X33970Y-23167D01*
X33981Y-23166D01*
X33996Y-23164D01*
X34016Y-23162D01*
X34039Y-23160D01*
X34065Y-23157D01*
X34092Y-23154D01*
X34099Y-23154D01*
X34130Y-23150D01*
X34156Y-23148D01*
X34176Y-23146D01*
X34192Y-23145D01*
X34205Y-23144D01*
X34214Y-23143D01*
X34221Y-23143D01*
X34226Y-23144D01*
X34229Y-23144D01*
X34232Y-23146D01*
X34235Y-23147D01*
X34245Y-23155D01*
X34250Y-23166D01*
X34250Y-23178D01*
X34245Y-23188D01*
X34237Y-23196D01*
X34233Y-23198D01*
X34225Y-23200D01*
X34212Y-23202D01*
X34194Y-23204D01*
X34171Y-23207D01*
X34143Y-23210D01*
X34109Y-23214D01*
X34109Y-23214D01*
X34074Y-23218D01*
X34045Y-23221D01*
X34021Y-23223D01*
X34001Y-23225D01*
X33986Y-23226D01*
X33974Y-23226D01*
X33974Y-23226D01*
X33974Y-23226D01*
G37*
G36*
X34225Y-23062D02*
X34208Y-23062D01*
X34186Y-23060D01*
X34162Y-23057D01*
X34137Y-23053D01*
X34114Y-23049D01*
X34094Y-23044D01*
X34090Y-23043D01*
X34066Y-23036D01*
X34044Y-23028D01*
X34025Y-23020D01*
X34011Y-23011D01*
X34001Y-23003D01*
X33999Y-23000D01*
X33996Y-22988D01*
X33998Y-22975D01*
X34002Y-22967D01*
X34010Y-22959D01*
X34020Y-22956D01*
X34033Y-22958D01*
X34049Y-22964D01*
X34053Y-22966D01*
X34078Y-22976D01*
X34108Y-22985D01*
X34141Y-22992D01*
X34180Y-22998D01*
X34222Y-23002D01*
X34237Y-23004D01*
X34247Y-23005D01*
X34254Y-23007D01*
X34258Y-23009D01*
X34262Y-23013D01*
X34262Y-23013D01*
X34269Y-23025D01*
X34269Y-23037D01*
X34264Y-23049D01*
X34260Y-23053D01*
X34256Y-23058D01*
X34251Y-23060D01*
X34244Y-23062D01*
X34234Y-23062D01*
X34225Y-23062D01*
X34225Y-23062D01*
X34225Y-23062D01*
G37*
G36*
X35918Y-24748D02*
X35907Y-24746D01*
X35897Y-24740D01*
X35896Y-24739D01*
X35893Y-24734D01*
X35889Y-24724D01*
X35882Y-24710D01*
X35875Y-24693D01*
X35867Y-24675D01*
X35865Y-24670D01*
X35859Y-24656D01*
X35851Y-24637D01*
X35842Y-24614D01*
X35830Y-24586D01*
X35818Y-24556D01*
X35805Y-24524D01*
X35790Y-24490D01*
X35776Y-24455D01*
X35761Y-24419D01*
X35759Y-24413D01*
X35731Y-24344D01*
X35702Y-24274D01*
X35672Y-24202D01*
X35643Y-24130D01*
X35615Y-24059D01*
X35587Y-23990D01*
X35561Y-23923D01*
X35536Y-23860D01*
X35514Y-23802D01*
X35511Y-23795D01*
X35502Y-23771D01*
X35494Y-23750D01*
X35486Y-23730D01*
X35480Y-23714D01*
X35475Y-23701D01*
X35472Y-23693D01*
X35471Y-23691D01*
X35469Y-23688D01*
X35465Y-23686D01*
X35457Y-23684D01*
X35446Y-23682D01*
X35431Y-23679D01*
X35417Y-23677D01*
X35405Y-23676D01*
X35396Y-23675D01*
X35393Y-23675D01*
X35394Y-23678D01*
X35396Y-23687D01*
X35399Y-23701D01*
X35403Y-23720D01*
X35408Y-23744D01*
X35414Y-23771D01*
X35420Y-23803D01*
X35428Y-23837D01*
X35436Y-23875D01*
X35445Y-23915D01*
X35454Y-23957D01*
X35460Y-23986D01*
X35469Y-24029D01*
X35478Y-24071D01*
X35487Y-24111D01*
X35495Y-24149D01*
X35502Y-24183D01*
X35509Y-24215D01*
X35514Y-24242D01*
X35519Y-24266D01*
X35523Y-24285D01*
X35526Y-24299D01*
X35527Y-24307D01*
X35527Y-24309D01*
X35525Y-24323D01*
X35517Y-24332D01*
X35507Y-24338D01*
X35499Y-24339D01*
X35487Y-24337D01*
X35478Y-24330D01*
X35474Y-24323D01*
X35472Y-24319D01*
X35470Y-24309D01*
X35466Y-24294D01*
X35462Y-24274D01*
X35456Y-24249D01*
X35450Y-24221D01*
X35442Y-24188D01*
X35434Y-24152D01*
X35426Y-24114D01*
X35417Y-24073D01*
X35408Y-24030D01*
X35398Y-23986D01*
X35327Y-23658D01*
X35296Y-23647D01*
X35279Y-23641D01*
X35267Y-23637D01*
X35260Y-23634D01*
X35256Y-23633D01*
X35254Y-23634D01*
X35253Y-23635D01*
X35253Y-23636D01*
X35253Y-23641D01*
X35251Y-23652D01*
X35249Y-23667D01*
X35247Y-23686D01*
X35244Y-23709D01*
X35241Y-23734D01*
X35237Y-23760D01*
X35233Y-23788D01*
X35230Y-23816D01*
X35226Y-23843D01*
X35222Y-23869D01*
X35219Y-23893D01*
X35215Y-23915D01*
X35213Y-23933D01*
X35211Y-23946D01*
X35209Y-23955D01*
X35208Y-23959D01*
X35201Y-23969D01*
X35190Y-23975D01*
X35177Y-23976D01*
X35164Y-23971D01*
X35156Y-23962D01*
X35152Y-23950D01*
X35152Y-23948D01*
X35153Y-23943D01*
X35154Y-23932D01*
X35156Y-23916D01*
X35158Y-23896D01*
X35161Y-23872D01*
X35165Y-23845D01*
X35168Y-23816D01*
X35173Y-23784D01*
X35174Y-23770D01*
X35179Y-23738D01*
X35182Y-23709D01*
X35186Y-23681D01*
X35189Y-23657D01*
X35191Y-23637D01*
X35193Y-23620D01*
X35194Y-23609D01*
X35194Y-23603D01*
X35194Y-23602D01*
X35191Y-23600D01*
X35183Y-23596D01*
X35171Y-23589D01*
X35157Y-23581D01*
X35149Y-23576D01*
X35107Y-23552D01*
X35046Y-23644D01*
X35031Y-23665D01*
X35017Y-23685D01*
X35005Y-23703D01*
X34994Y-23719D01*
X34985Y-23730D01*
X34979Y-23738D01*
X34976Y-23741D01*
X34964Y-23746D01*
X34952Y-23745D01*
X34941Y-23737D01*
X34941Y-23737D01*
X34936Y-23733D01*
X34933Y-23728D01*
X34932Y-23723D01*
X34932Y-23717D01*
X34934Y-23710D01*
X34938Y-23701D01*
X34944Y-23689D01*
X34953Y-23674D01*
X34965Y-23655D01*
X34980Y-23632D01*
X34993Y-23613D01*
X35007Y-23591D01*
X35020Y-23571D01*
X35032Y-23554D01*
X35041Y-23539D01*
X35049Y-23527D01*
X35053Y-23520D01*
X35054Y-23518D01*
X35052Y-23515D01*
X35046Y-23509D01*
X35038Y-23500D01*
X35033Y-23496D01*
X35023Y-23486D01*
X35013Y-23475D01*
X35002Y-23462D01*
X34993Y-23451D01*
X34986Y-23442D01*
X34983Y-23438D01*
X34981Y-23440D01*
X34973Y-23444D01*
X34962Y-23451D01*
X34947Y-23460D01*
X34929Y-23471D01*
X34909Y-23483D01*
X34893Y-23493D01*
X34866Y-23509D01*
X34844Y-23522D01*
X34826Y-23533D01*
X34812Y-23540D01*
X34801Y-23545D01*
X34793Y-23548D01*
X34786Y-23549D01*
X34781Y-23548D01*
X34777Y-23545D01*
X34772Y-23541D01*
X34770Y-23539D01*
X34763Y-23527D01*
X34762Y-23516D01*
X34767Y-23505D01*
X34772Y-23499D01*
X34777Y-23495D01*
X34787Y-23488D01*
X34800Y-23479D01*
X34817Y-23468D01*
X34837Y-23456D01*
X34858Y-23443D01*
X34866Y-23438D01*
X34887Y-23425D01*
X34906Y-23414D01*
X34922Y-23403D01*
X34935Y-23395D01*
X34945Y-23389D01*
X34950Y-23386D01*
X34950Y-23385D01*
X34949Y-23382D01*
X34945Y-23375D01*
X34938Y-23364D01*
X34930Y-23351D01*
X34925Y-23343D01*
X34900Y-23302D01*
X34882Y-23310D01*
X34812Y-23339D01*
X34739Y-23364D01*
X34662Y-23386D01*
X34624Y-23395D01*
X34587Y-23402D01*
X34548Y-23408D01*
X34508Y-23413D01*
X34469Y-23416D01*
X34432Y-23418D01*
X34401Y-23418D01*
X34368Y-23417D01*
X34353Y-23403D01*
X34342Y-23391D01*
X34333Y-23379D01*
X34326Y-23365D01*
X34320Y-23348D01*
X34314Y-23327D01*
X34305Y-23288D01*
X34299Y-23252D01*
X34296Y-23217D01*
X34295Y-23179D01*
X34298Y-23139D01*
X34298Y-23130D01*
X34301Y-23099D01*
X34305Y-23073D01*
X34308Y-23051D01*
X34313Y-23031D01*
X34319Y-23011D01*
X34326Y-22991D01*
X34335Y-22968D01*
X34339Y-22960D01*
X34361Y-22912D01*
X34387Y-22868D01*
X34396Y-22855D01*
X35689Y-22855D01*
X35702Y-22853D01*
X35726Y-22847D01*
X35746Y-22838D01*
X35757Y-22829D01*
X35769Y-22815D01*
X35779Y-22796D01*
X35788Y-22775D01*
X35794Y-22753D01*
X35797Y-22738D01*
X35798Y-22718D01*
X35799Y-22695D01*
X35799Y-22671D01*
X35799Y-22645D01*
X35798Y-22621D01*
X35796Y-22599D01*
X35794Y-22585D01*
X35789Y-22558D01*
X35783Y-22528D01*
X35775Y-22495D01*
X35765Y-22461D01*
X35756Y-22427D01*
X35746Y-22395D01*
X35736Y-22367D01*
X35733Y-22360D01*
X35721Y-22330D01*
X35719Y-22345D01*
X35716Y-22364D01*
X35714Y-22386D01*
X35711Y-22412D01*
X35708Y-22439D01*
X35705Y-22467D01*
X35703Y-22494D01*
X35701Y-22520D01*
X35699Y-22543D01*
X35698Y-22562D01*
X35697Y-22575D01*
X35697Y-22576D01*
X35697Y-22601D01*
X35689Y-22590D01*
X35679Y-22580D01*
X35669Y-22576D01*
X35658Y-22577D01*
X35655Y-22578D01*
X35646Y-22584D01*
X35639Y-22594D01*
X35632Y-22609D01*
X35629Y-22616D01*
X35627Y-22629D01*
X35626Y-22645D01*
X35627Y-22662D01*
X35629Y-22676D01*
X35633Y-22687D01*
X35633Y-22688D01*
X35643Y-22699D01*
X35653Y-22705D01*
X35665Y-22705D01*
X35676Y-22699D01*
X35679Y-22697D01*
X35682Y-22694D01*
X35684Y-22693D01*
X35684Y-22694D01*
X35684Y-22700D01*
X35682Y-22711D01*
X35680Y-22722D01*
X35678Y-22737D01*
X35676Y-22756D01*
X35674Y-22775D01*
X35673Y-22784D01*
X35672Y-22800D01*
X35672Y-22811D01*
X35673Y-22818D01*
X35675Y-22825D01*
X35678Y-22832D01*
X35680Y-22837D01*
X35689Y-22855D01*
X34396Y-22855D01*
X34417Y-22826D01*
X34451Y-22784D01*
X34477Y-22756D01*
X34512Y-22722D01*
X34545Y-22691D01*
X34579Y-22664D01*
X34614Y-22640D01*
X34651Y-22618D01*
X34691Y-22597D01*
X34735Y-22577D01*
X34777Y-22560D01*
X34800Y-22551D01*
X34821Y-22544D01*
X34843Y-22537D01*
X34865Y-22531D01*
X34889Y-22525D01*
X34916Y-22519D01*
X34946Y-22514D01*
X34980Y-22508D01*
X35019Y-22501D01*
X35037Y-22498D01*
X35100Y-22488D01*
X35156Y-22478D01*
X35208Y-22468D01*
X35255Y-22458D01*
X35299Y-22447D01*
X35340Y-22436D01*
X35378Y-22423D01*
X35415Y-22410D01*
X35451Y-22395D01*
X35487Y-22379D01*
X35516Y-22365D01*
X35529Y-22358D01*
X35546Y-22348D01*
X35565Y-22336D01*
X35584Y-22323D01*
X35604Y-22309D01*
X35623Y-22295D01*
X35640Y-22282D01*
X35655Y-22271D01*
X35666Y-22261D01*
X35672Y-22254D01*
X35672Y-22254D01*
X35691Y-22226D01*
X35711Y-22193D01*
X35731Y-22156D01*
X35751Y-22116D01*
X35770Y-22075D01*
X35787Y-22033D01*
X35803Y-21993D01*
X35816Y-21954D01*
X35817Y-21950D01*
X35827Y-21913D01*
X35836Y-21882D01*
X35843Y-21853D01*
X35848Y-21827D01*
X35853Y-21800D01*
X35856Y-21774D01*
X35859Y-21745D01*
X35860Y-21728D01*
X35861Y-21714D01*
X35862Y-21705D01*
X35864Y-21700D01*
X35866Y-21698D01*
X35868Y-21698D01*
X35871Y-21698D01*
X35873Y-21701D01*
X35875Y-21706D01*
X35876Y-21714D01*
X35877Y-21725D01*
X35877Y-21741D01*
X35876Y-21761D01*
X35876Y-21787D01*
X35875Y-21816D01*
X35872Y-21879D01*
X35868Y-21936D01*
X35862Y-21988D01*
X35856Y-22037D01*
X35848Y-22082D01*
X35839Y-22124D01*
X35828Y-22165D01*
X35815Y-22204D01*
X35800Y-22243D01*
X35793Y-22260D01*
X35787Y-22275D01*
X35782Y-22288D01*
X35778Y-22298D01*
X35777Y-22305D01*
X35777Y-22305D01*
X35779Y-22310D01*
X35783Y-22320D01*
X35787Y-22332D01*
X35790Y-22340D01*
X35800Y-22366D01*
X35810Y-22397D01*
X35820Y-22431D01*
X35829Y-22466D01*
X35838Y-22500D01*
X35846Y-22532D01*
X35851Y-22561D01*
X35853Y-22574D01*
X35857Y-22600D01*
X35859Y-22630D01*
X35860Y-22660D01*
X35861Y-22689D01*
X35860Y-22715D01*
X35858Y-22730D01*
X35852Y-22770D01*
X35841Y-22805D01*
X35827Y-22836D01*
X35810Y-22861D01*
X35789Y-22882D01*
X35765Y-22897D01*
X35754Y-22902D01*
X35744Y-22905D01*
X35733Y-22908D01*
X35720Y-22911D01*
X35704Y-22913D01*
X35685Y-22915D01*
X35663Y-22917D01*
X35636Y-22919D01*
X35604Y-22920D01*
X35567Y-22922D01*
X35560Y-22922D01*
X35515Y-22924D01*
X35475Y-22926D01*
X35441Y-22928D01*
X35411Y-22931D01*
X35386Y-22934D01*
X35364Y-22937D01*
X35345Y-22941D01*
X35330Y-22945D01*
X35316Y-22949D01*
X35304Y-22955D01*
X35304Y-22955D01*
X35298Y-22958D01*
X35294Y-22961D01*
X35288Y-22966D01*
X35282Y-22973D01*
X35275Y-22982D01*
X35264Y-22995D01*
X35255Y-23008D01*
X35230Y-23040D01*
X35244Y-23059D01*
X35260Y-23080D01*
X35277Y-23106D01*
X35296Y-23136D01*
X35316Y-23170D01*
X35337Y-23207D01*
X35357Y-23245D01*
X35377Y-23283D01*
X35396Y-23322D01*
X35414Y-23360D01*
X35424Y-23384D01*
X35436Y-23411D01*
X35448Y-23442D01*
X35461Y-23474D01*
X35473Y-23507D01*
X35486Y-23540D01*
X35497Y-23572D01*
X35507Y-23601D01*
X35516Y-23627D01*
X35522Y-23648D01*
X35522Y-23649D01*
X35527Y-23663D01*
X35533Y-23682D01*
X35542Y-23707D01*
X35554Y-23737D01*
X35567Y-23772D01*
X35582Y-23812D01*
X35599Y-23856D01*
X35618Y-23904D01*
X35639Y-23956D01*
X35661Y-24012D01*
X35685Y-24071D01*
X35710Y-24134D01*
X35737Y-24200D01*
X35765Y-24268D01*
X35794Y-24339D01*
X35824Y-24413D01*
X35855Y-24488D01*
X35887Y-24566D01*
X35915Y-24632D01*
X35925Y-24656D01*
X35933Y-24676D01*
X35939Y-24691D01*
X35943Y-24702D01*
X35946Y-24711D01*
X35947Y-24717D01*
X35948Y-24721D01*
X35947Y-24725D01*
X35946Y-24729D01*
X35946Y-24730D01*
X35940Y-24740D01*
X35930Y-24746D01*
X35918Y-24748D01*
X35918Y-24748D01*
X35918Y-24748D01*
G37*
G36*
X34821Y-22317D02*
X34777Y-22315D01*
X34737Y-22309D01*
X34700Y-22300D01*
X34665Y-22286D01*
X34656Y-22282D01*
X34618Y-22260D01*
X34585Y-22234D01*
X34574Y-22223D01*
X34793Y-22223D01*
X34828Y-22223D01*
X34860Y-22219D01*
X34889Y-22212D01*
X34913Y-22201D01*
X34933Y-22188D01*
X34948Y-22172D01*
X34958Y-22153D01*
X34962Y-22134D01*
X34961Y-22113D01*
X34954Y-22091D01*
X34942Y-22068D01*
X34926Y-22044D01*
X34905Y-22021D01*
X34880Y-21998D01*
X34851Y-21976D01*
X34846Y-21973D01*
X34816Y-21953D01*
X34702Y-21953D01*
X34589Y-21953D01*
X34584Y-21977D01*
X34581Y-21997D01*
X34579Y-22019D01*
X34579Y-22041D01*
X34580Y-22061D01*
X34582Y-22077D01*
X34583Y-22082D01*
X34590Y-22104D01*
X34600Y-22123D01*
X34614Y-22142D01*
X34630Y-22160D01*
X34654Y-22180D01*
X34679Y-22197D01*
X34707Y-22209D01*
X34739Y-22217D01*
X34775Y-22222D01*
X34793Y-22223D01*
X34574Y-22223D01*
X34558Y-22206D01*
X34537Y-22175D01*
X34520Y-22141D01*
X34510Y-22104D01*
X34509Y-22100D01*
X34508Y-22089D01*
X34507Y-22074D01*
X34507Y-22055D01*
X34507Y-22035D01*
X34507Y-22014D01*
X34508Y-21995D01*
X34509Y-21978D01*
X34511Y-21966D01*
X34511Y-21962D01*
X34513Y-21953D01*
X34412Y-21953D01*
X34311Y-21953D01*
X34311Y-21909D01*
X34311Y-21865D01*
X34672Y-21865D01*
X35033Y-21865D01*
X35032Y-21908D01*
X35031Y-21951D01*
X34975Y-21952D01*
X34919Y-21953D01*
X34945Y-21973D01*
X34976Y-22000D01*
X35002Y-22031D01*
X35021Y-22063D01*
X35032Y-22087D01*
X35040Y-22109D01*
X35044Y-22130D01*
X35044Y-22152D01*
X35044Y-22159D01*
X35041Y-22185D01*
X35032Y-22208D01*
X35019Y-22231D01*
X35000Y-22254D01*
X34999Y-22255D01*
X34987Y-22268D01*
X34975Y-22277D01*
X34961Y-22286D01*
X34949Y-22292D01*
X34927Y-22301D01*
X34906Y-22308D01*
X34883Y-22313D01*
X34857Y-22316D01*
X34826Y-22317D01*
X34821Y-22317D01*
X34821Y-22317D01*
X34821Y-22317D01*
G37*
G36*
X34702Y-18887D02*
X34669Y-18886D01*
X34637Y-18879D01*
X34608Y-18869D01*
X34579Y-18852D01*
X34554Y-18829D01*
X34532Y-18803D01*
X34515Y-18772D01*
X34503Y-18736D01*
X34498Y-18718D01*
X34496Y-18702D01*
X34494Y-18681D01*
X34492Y-18658D01*
X34492Y-18634D01*
X34492Y-18611D01*
X34492Y-18591D01*
X34494Y-18576D01*
X34498Y-18549D01*
X34505Y-18519D01*
X34514Y-18488D01*
X34518Y-18476D01*
X34527Y-18450D01*
X34572Y-18449D01*
X34616Y-18448D01*
X34603Y-18477D01*
X34591Y-18509D01*
X34580Y-18544D01*
X34572Y-18578D01*
X34566Y-18610D01*
X34563Y-18640D01*
X34563Y-18648D01*
X34565Y-18672D01*
X34570Y-18697D01*
X34577Y-18720D01*
X34587Y-18741D01*
X34598Y-18757D01*
X34600Y-18759D01*
X34618Y-18775D01*
X34640Y-18786D01*
X34664Y-18793D01*
X34688Y-18794D01*
X34690Y-18794D01*
X34706Y-18791D01*
X34722Y-18786D01*
X34737Y-18778D01*
X34752Y-18768D01*
X34766Y-18753D01*
X34782Y-18735D01*
X34798Y-18713D01*
X34816Y-18686D01*
X34836Y-18653D01*
X34850Y-18629D01*
X34865Y-18603D01*
X34878Y-18582D01*
X34889Y-18564D01*
X34899Y-18550D01*
X34908Y-18537D01*
X34918Y-18526D01*
X34928Y-18515D01*
X34930Y-18514D01*
X34957Y-18490D01*
X34986Y-18473D01*
X35017Y-18462D01*
X35049Y-18457D01*
X35062Y-18457D01*
X35097Y-18459D01*
X35128Y-18467D01*
X35156Y-18479D01*
X35182Y-18497D01*
X35194Y-18509D01*
X35212Y-18530D01*
X35227Y-18551D01*
X35238Y-18576D01*
X35246Y-18603D01*
X35251Y-18636D01*
X35253Y-18653D01*
X35255Y-18678D01*
X35254Y-18706D01*
X35252Y-18735D01*
X35249Y-18764D01*
X35245Y-18791D01*
X35240Y-18814D01*
X35234Y-18830D01*
X35231Y-18839D01*
X35194Y-18839D01*
X35179Y-18839D01*
X35167Y-18839D01*
X35158Y-18838D01*
X35155Y-18838D01*
X35155Y-18834D01*
X35157Y-18826D01*
X35160Y-18815D01*
X35162Y-18809D01*
X35173Y-18768D01*
X35180Y-18725D01*
X35182Y-18702D01*
X35182Y-18667D01*
X35177Y-18637D01*
X35167Y-18610D01*
X35151Y-18587D01*
X35144Y-18578D01*
X35129Y-18565D01*
X35113Y-18557D01*
X35095Y-18552D01*
X35073Y-18551D01*
X35059Y-18551D01*
X35045Y-18553D01*
X35033Y-18557D01*
X35021Y-18563D01*
X35009Y-18571D01*
X34997Y-18582D01*
X34985Y-18597D01*
X34971Y-18616D01*
X34955Y-18639D01*
X34938Y-18666D01*
X34918Y-18699D01*
X34913Y-18708D01*
X34894Y-18739D01*
X34879Y-18764D01*
X34865Y-18785D01*
X34852Y-18802D01*
X34841Y-18817D01*
X34830Y-18829D01*
X34819Y-18839D01*
X34808Y-18848D01*
X34795Y-18857D01*
X34792Y-18859D01*
X34764Y-18873D01*
X34734Y-18883D01*
X34702Y-18887D01*
X34702Y-18887D01*
X34702Y-18887D01*
G37*
G36*
X34750Y-20045D02*
X34721Y-20043D01*
X34694Y-20039D01*
X34670Y-20033D01*
X34646Y-20024D01*
X34610Y-20005D01*
X34578Y-19982D01*
X34552Y-19955D01*
X34550Y-19953D01*
X34777Y-19953D01*
X34814Y-19951D01*
X34848Y-19945D01*
X34880Y-19935D01*
X34907Y-19921D01*
X34928Y-19905D01*
X34947Y-19885D01*
X34960Y-19864D01*
X34969Y-19839D01*
X34972Y-19812D01*
X34972Y-19794D01*
X34971Y-19779D01*
X34969Y-19767D01*
X34967Y-19757D01*
X34962Y-19745D01*
X34961Y-19743D01*
X34946Y-19718D01*
X34926Y-19697D01*
X34901Y-19680D01*
X34870Y-19666D01*
X34854Y-19661D01*
X34844Y-19658D01*
X34835Y-19656D01*
X34825Y-19655D01*
X34812Y-19654D01*
X34797Y-19654D01*
X34776Y-19654D01*
X34772Y-19654D01*
X34747Y-19654D01*
X34726Y-19655D01*
X34708Y-19657D01*
X34693Y-19660D01*
X34678Y-19665D01*
X34663Y-19671D01*
X34651Y-19676D01*
X34625Y-19693D01*
X34603Y-19712D01*
X34587Y-19735D01*
X34576Y-19761D01*
X34571Y-19789D01*
X34571Y-19819D01*
X34572Y-19827D01*
X34580Y-19854D01*
X34593Y-19879D01*
X34611Y-19901D01*
X34634Y-19919D01*
X34661Y-19933D01*
X34694Y-19944D01*
X34730Y-19951D01*
X34739Y-19952D01*
X34777Y-19953D01*
X34550Y-19953D01*
X34530Y-19925D01*
X34514Y-19892D01*
X34503Y-19856D01*
X34498Y-19818D01*
X34499Y-19781D01*
X34505Y-19743D01*
X34516Y-19708D01*
X34533Y-19675D01*
X34555Y-19646D01*
X34581Y-19620D01*
X34612Y-19598D01*
X34648Y-19581D01*
X34686Y-19568D01*
X34697Y-19565D01*
X34708Y-19563D01*
X34719Y-19561D01*
X34732Y-19560D01*
X34747Y-19560D01*
X34768Y-19560D01*
X34771Y-19560D01*
X34792Y-19560D01*
X34809Y-19560D01*
X34823Y-19561D01*
X34834Y-19562D01*
X34845Y-19564D01*
X34854Y-19566D01*
X34891Y-19579D01*
X34926Y-19596D01*
X34958Y-19617D01*
X34985Y-19642D01*
X35008Y-19669D01*
X35012Y-19675D01*
X35026Y-19701D01*
X35036Y-19729D01*
X35042Y-19759D01*
X35045Y-19793D01*
X35044Y-19814D01*
X35042Y-19846D01*
X35037Y-19873D01*
X35029Y-19898D01*
X35017Y-19921D01*
X35014Y-19926D01*
X34997Y-19950D01*
X34975Y-19974D01*
X34949Y-19995D01*
X34922Y-20013D01*
X34895Y-20025D01*
X34876Y-20032D01*
X34860Y-20037D01*
X34844Y-20041D01*
X34828Y-20043D01*
X34808Y-20044D01*
X34784Y-20045D01*
X34783Y-20045D01*
X34750Y-20045D01*
X34750Y-20045D01*
X34750Y-20045D01*
G37*
G36*
X34528Y-21168D02*
X34525Y-21160D01*
X34523Y-21154D01*
X34520Y-21143D01*
X34516Y-21129D01*
X34514Y-21122D01*
X34505Y-21076D01*
X34500Y-21032D01*
X34499Y-20990D01*
X34500Y-20969D01*
X34505Y-20941D01*
X34513Y-20911D01*
X34524Y-20883D01*
X34535Y-20862D01*
X34554Y-20834D01*
X34578Y-20809D01*
X34605Y-20786D01*
X34634Y-20767D01*
X34640Y-20764D01*
X34674Y-20750D01*
X34711Y-20741D01*
X34749Y-20736D01*
X34788Y-20736D01*
X34826Y-20740D01*
X34863Y-20748D01*
X34896Y-20761D01*
X34898Y-20762D01*
X34932Y-20782D01*
X34962Y-20807D01*
X34989Y-20835D01*
X35011Y-20867D01*
X35028Y-20900D01*
X35037Y-20931D01*
X35043Y-20966D01*
X35045Y-21005D01*
X35042Y-21046D01*
X35036Y-21089D01*
X35026Y-21133D01*
X35023Y-21145D01*
X35016Y-21168D01*
X34975Y-21168D01*
X34958Y-21168D01*
X34947Y-21168D01*
X34940Y-21167D01*
X34936Y-21166D01*
X34935Y-21164D01*
X34936Y-21163D01*
X34937Y-21158D01*
X34941Y-21148D01*
X34945Y-21135D01*
X34950Y-21122D01*
X34956Y-21105D01*
X34961Y-21088D01*
X34966Y-21072D01*
X34968Y-21063D01*
X34971Y-21043D01*
X34972Y-21020D01*
X34972Y-20997D01*
X34971Y-20976D01*
X34968Y-20959D01*
X34968Y-20959D01*
X34957Y-20929D01*
X34941Y-20903D01*
X34920Y-20880D01*
X34895Y-20861D01*
X34867Y-20847D01*
X34834Y-20836D01*
X34799Y-20831D01*
X34776Y-20830D01*
X34748Y-20831D01*
X34725Y-20835D01*
X34701Y-20841D01*
X34678Y-20851D01*
X34648Y-20868D01*
X34624Y-20887D01*
X34605Y-20909D01*
X34591Y-20935D01*
X34587Y-20944D01*
X34584Y-20957D01*
X34581Y-20974D01*
X34580Y-20995D01*
X34579Y-21016D01*
X34579Y-21037D01*
X34580Y-21056D01*
X34581Y-21065D01*
X34584Y-21076D01*
X34587Y-21090D01*
X34592Y-21107D01*
X34597Y-21125D01*
X34602Y-21142D01*
X34606Y-21155D01*
X34609Y-21163D01*
X34609Y-21165D01*
X34607Y-21167D01*
X34602Y-21168D01*
X34593Y-21168D01*
X34579Y-21168D01*
X34569Y-21168D01*
X34528Y-21168D01*
X34528Y-21168D01*
X34528Y-21168D01*
G37*
G36*
X34516Y-21747D02*
X34514Y-21746D01*
X34513Y-21741D01*
X34513Y-21734D01*
X34512Y-21721D01*
X34512Y-21704D01*
X34512Y-21703D01*
X34512Y-21658D01*
X34545Y-21652D01*
X34562Y-21650D01*
X34580Y-21647D01*
X34596Y-21646D01*
X34601Y-21645D01*
X34613Y-21644D01*
X34622Y-21643D01*
X34626Y-21642D01*
X34626Y-21641D01*
X34626Y-21641D01*
X34728Y-21641D01*
X34841Y-21640D01*
X34955Y-21639D01*
X34959Y-21622D01*
X34961Y-21611D01*
X34963Y-21597D01*
X34964Y-21580D01*
X34965Y-21572D01*
X34965Y-21539D01*
X34960Y-21510D01*
X34951Y-21484D01*
X34936Y-21459D01*
X34915Y-21435D01*
X34913Y-21433D01*
X34891Y-21414D01*
X34867Y-21398D01*
X34840Y-21387D01*
X34813Y-21379D01*
X34794Y-21375D01*
X34771Y-21373D01*
X34747Y-21372D01*
X34722Y-21371D01*
X34699Y-21373D01*
X34680Y-21375D01*
X34671Y-21377D01*
X34642Y-21387D01*
X34618Y-21401D01*
X34600Y-21418D01*
X34591Y-21431D01*
X34583Y-21450D01*
X34582Y-21472D01*
X34586Y-21494D01*
X34589Y-21502D01*
X34595Y-21516D01*
X34603Y-21529D01*
X34607Y-21535D01*
X34619Y-21551D01*
X34635Y-21569D01*
X34654Y-21587D01*
X34674Y-21603D01*
X34693Y-21618D01*
X34698Y-21621D01*
X34728Y-21641D01*
X34626Y-21641D01*
X34623Y-21639D01*
X34617Y-21634D01*
X34611Y-21630D01*
X34594Y-21618D01*
X34577Y-21602D01*
X34560Y-21585D01*
X34545Y-21567D01*
X34539Y-21559D01*
X34520Y-21526D01*
X34507Y-21495D01*
X34500Y-21464D01*
X34499Y-21433D01*
X34500Y-21425D01*
X34506Y-21399D01*
X34518Y-21374D01*
X34534Y-21350D01*
X34555Y-21328D01*
X34579Y-21310D01*
X34601Y-21298D01*
X34612Y-21294D01*
X34627Y-21289D01*
X34643Y-21285D01*
X34645Y-21285D01*
X34688Y-21278D01*
X34732Y-21277D01*
X34775Y-21280D01*
X34817Y-21288D01*
X34857Y-21300D01*
X34895Y-21316D01*
X34929Y-21336D01*
X34959Y-21360D01*
X34985Y-21388D01*
X34989Y-21393D01*
X35004Y-21414D01*
X35016Y-21435D01*
X35025Y-21457D01*
X35030Y-21473D01*
X35032Y-21483D01*
X35034Y-21493D01*
X35035Y-21506D01*
X35036Y-21520D01*
X35037Y-21538D01*
X35037Y-21560D01*
X35036Y-21585D01*
X35036Y-21616D01*
X35034Y-21652D01*
X35034Y-21657D01*
X35032Y-21729D01*
X34829Y-21729D01*
X34781Y-21729D01*
X34740Y-21729D01*
X34703Y-21730D01*
X34672Y-21730D01*
X34644Y-21731D01*
X34621Y-21732D01*
X34601Y-21733D01*
X34583Y-21734D01*
X34568Y-21736D01*
X34555Y-21738D01*
X34542Y-21740D01*
X34531Y-21743D01*
X34520Y-21746D01*
X34518Y-21747D01*
X34516Y-21747D01*
X34516Y-21747D01*
X34516Y-21747D01*
G37*
G36*
X34512Y-19451D02*
X34512Y-19408D01*
X34512Y-19366D01*
X34699Y-19365D01*
X34744Y-19364D01*
X34784Y-19364D01*
X34818Y-19363D01*
X34847Y-19362D01*
X34870Y-19362D01*
X34887Y-19361D01*
X34898Y-19360D01*
X34902Y-19359D01*
X34923Y-19352D01*
X34940Y-19340D01*
X34954Y-19325D01*
X34963Y-19307D01*
X34966Y-19293D01*
X34965Y-19272D01*
X34958Y-19250D01*
X34947Y-19226D01*
X34932Y-19202D01*
X34912Y-19179D01*
X34890Y-19156D01*
X34864Y-19135D01*
X34836Y-19116D01*
X34834Y-19115D01*
X34815Y-19104D01*
X34664Y-19104D01*
X34512Y-19104D01*
X34512Y-19061D01*
X34512Y-19019D01*
X34772Y-19019D01*
X35032Y-19019D01*
X35032Y-19061D01*
X35032Y-19104D01*
X34976Y-19104D01*
X34921Y-19104D01*
X34931Y-19113D01*
X34949Y-19126D01*
X34962Y-19137D01*
X34973Y-19147D01*
X34982Y-19157D01*
X34992Y-19167D01*
X34992Y-19168D01*
X35013Y-19197D01*
X35029Y-19228D01*
X35040Y-19259D01*
X35045Y-19290D01*
X35044Y-19320D01*
X35037Y-19349D01*
X35024Y-19377D01*
X35020Y-19383D01*
X35007Y-19402D01*
X34991Y-19416D01*
X34973Y-19428D01*
X34952Y-19436D01*
X34927Y-19443D01*
X34897Y-19447D01*
X34892Y-19447D01*
X34882Y-19448D01*
X34867Y-19448D01*
X34847Y-19449D01*
X34822Y-19450D01*
X34795Y-19450D01*
X34764Y-19450D01*
X34732Y-19450D01*
X34699Y-19450D01*
X34685Y-19450D01*
X34512Y-19451D01*
X34512Y-19451D01*
X34512Y-19451D01*
G37*
G36*
X35030Y-20648D02*
X35027Y-20648D01*
X35018Y-20646D01*
X35003Y-20644D01*
X34984Y-20641D01*
X34960Y-20637D01*
X34933Y-20633D01*
X34902Y-20628D01*
X34868Y-20622D01*
X34831Y-20616D01*
X34792Y-20610D01*
X34770Y-20607D01*
X34512Y-20565D01*
X34513Y-20524D01*
X34514Y-20484D01*
X34681Y-20434D01*
X34714Y-20424D01*
X34745Y-20415D01*
X34775Y-20406D01*
X34804Y-20398D01*
X34829Y-20391D01*
X34850Y-20385D01*
X34868Y-20381D01*
X34880Y-20377D01*
X34883Y-20377D01*
X34897Y-20374D01*
X34909Y-20371D01*
X34916Y-20369D01*
X34919Y-20368D01*
X34916Y-20366D01*
X34908Y-20364D01*
X34897Y-20362D01*
X34883Y-20359D01*
X34874Y-20357D01*
X34858Y-20353D01*
X34838Y-20349D01*
X34815Y-20343D01*
X34787Y-20336D01*
X34758Y-20329D01*
X34726Y-20321D01*
X34694Y-20312D01*
X34680Y-20309D01*
X34512Y-20266D01*
X34512Y-20224D01*
X34512Y-20207D01*
X34513Y-20195D01*
X34513Y-20188D01*
X34514Y-20183D01*
X34516Y-20181D01*
X34519Y-20180D01*
X34519Y-20180D01*
X34524Y-20180D01*
X34534Y-20178D01*
X34549Y-20175D01*
X34569Y-20172D01*
X34593Y-20168D01*
X34621Y-20164D01*
X34652Y-20158D01*
X34686Y-20153D01*
X34722Y-20147D01*
X34761Y-20141D01*
X34771Y-20139D01*
X34809Y-20133D01*
X34846Y-20127D01*
X34881Y-20121D01*
X34913Y-20116D01*
X34942Y-20111D01*
X34968Y-20107D01*
X34989Y-20104D01*
X35006Y-20101D01*
X35017Y-20099D01*
X35023Y-20098D01*
X35024Y-20098D01*
X35032Y-20096D01*
X35032Y-20136D01*
X35032Y-20154D01*
X35032Y-20166D01*
X35030Y-20174D01*
X35029Y-20177D01*
X35028Y-20177D01*
X35025Y-20178D01*
X35015Y-20179D01*
X35001Y-20182D01*
X34982Y-20185D01*
X34959Y-20188D01*
X34934Y-20192D01*
X34905Y-20197D01*
X34875Y-20202D01*
X34872Y-20202D01*
X34824Y-20210D01*
X34781Y-20216D01*
X34745Y-20222D01*
X34715Y-20227D01*
X34691Y-20231D01*
X34672Y-20234D01*
X34659Y-20237D01*
X34651Y-20239D01*
X34649Y-20239D01*
X34651Y-20240D01*
X34659Y-20242D01*
X34670Y-20244D01*
X34680Y-20246D01*
X34690Y-20248D01*
X34704Y-20251D01*
X34724Y-20256D01*
X34747Y-20261D01*
X34774Y-20268D01*
X34803Y-20275D01*
X34833Y-20283D01*
X34865Y-20291D01*
X34872Y-20293D01*
X35031Y-20335D01*
X35031Y-20374D01*
X35031Y-20413D01*
X34878Y-20458D01*
X34847Y-20467D01*
X34816Y-20476D01*
X34786Y-20485D01*
X34759Y-20493D01*
X34734Y-20499D01*
X34713Y-20505D01*
X34697Y-20509D01*
X34686Y-20512D01*
X34686Y-20512D01*
X34669Y-20516D01*
X34659Y-20519D01*
X34653Y-20521D01*
X34653Y-20523D01*
X34654Y-20523D01*
X34659Y-20524D01*
X34670Y-20526D01*
X34685Y-20528D01*
X34703Y-20531D01*
X34723Y-20534D01*
X34736Y-20536D01*
X34758Y-20540D01*
X34785Y-20544D01*
X34815Y-20549D01*
X34847Y-20554D01*
X34879Y-20559D01*
X34910Y-20563D01*
X34919Y-20565D01*
X34944Y-20569D01*
X34968Y-20573D01*
X34988Y-20576D01*
X35006Y-20578D01*
X35019Y-20580D01*
X35027Y-20582D01*
X35030Y-20582D01*
X35031Y-20585D01*
X35032Y-20592D01*
X35032Y-20603D01*
X35032Y-20615D01*
X35032Y-20628D01*
X35032Y-20638D01*
X35031Y-20646D01*
X35030Y-20648D01*
X35030Y-20648D01*
X35030Y-20648D01*
G37*
M02*
