M48
;DRILL file {Pcbnew (2012-apr-16-27)-stable} date Sun 17 Nov 2013 10:42:01 AM EET
;FORMAT={-:-/ absolute / metric / decimal}
FMAT,2
METRIC,TZ
T1C0.635
T2C0.650
T3C0.813
T4C1.016
%
G90
G05
M71
T1
X59.690Y-39.370
X73.660Y-51.308
X73.660Y-68.326
X76.200Y-50.292
X76.200Y-67.310
X78.740Y-49.276
X78.740Y-66.294
X81.280Y-52.324
X86.360Y-65.278
X86.614Y-51.308
X88.900Y-64.262
X91.440Y-39.624
X91.440Y-60.198
X93.980Y-38.608
X93.980Y-61.214
X95.250Y-35.306
X95.250Y-48.260
X96.520Y-39.624
X96.520Y-47.244
X99.060Y-37.592
X99.060Y-55.880
X101.600Y-36.322
X101.600Y-54.864
X104.140Y-43.688
X104.140Y-53.848
X105.410Y-52.832
X106.680Y-31.750
X106.680Y-42.672
X106.934Y-62.230
X106.934Y-68.326
X109.220Y-41.656
X109.220Y-67.056
X111.760Y-40.640
X111.760Y-68.326
X116.332Y-36.068
X121.920Y-39.370
X123.190Y-35.052
X127.000Y-56.896
X130.048Y-45.974
T2
X111.001Y-43.200
X111.001Y-65.199
X113.000Y-43.200
X113.000Y-65.199
X114.999Y-43.200
X114.999Y-65.199
X117.000Y-43.200
X117.000Y-65.199
X118.999Y-43.200
X118.999Y-65.199
X121.001Y-43.200
X121.001Y-65.199
X123.000Y-43.200
X123.000Y-65.199
X125.001Y-43.200
X125.001Y-65.199
X127.000Y-43.200
X127.000Y-65.199
X128.999Y-43.200
X128.999Y-65.199
T3
X35.560Y-34.290
X35.560Y-74.930
X68.580Y-31.750
X68.580Y-74.930
X71.120Y-31.750
X71.120Y-74.930
X73.660Y-31.750
X73.660Y-74.930
X76.200Y-31.750
X76.200Y-74.930
X78.740Y-31.750
X78.740Y-74.930
X81.280Y-31.750
X81.280Y-74.930
X83.820Y-31.750
X83.820Y-74.930
X86.360Y-31.750
X86.360Y-74.930
X88.900Y-31.750
X88.900Y-74.930
X91.440Y-31.750
X91.440Y-74.930
X93.980Y-31.750
X93.980Y-74.930
X96.520Y-31.750
X96.520Y-74.930
X99.060Y-31.750
X99.060Y-74.930
X101.600Y-31.750
X101.600Y-74.930
X104.140Y-31.750
X104.140Y-74.930
X106.680Y-31.750
X106.680Y-74.930
X109.220Y-31.750
X109.220Y-74.930
X111.760Y-31.750
X111.760Y-74.930
X114.300Y-31.750
X114.300Y-74.930
X116.840Y-31.750
X116.840Y-74.930
X119.380Y-31.750
X119.380Y-74.930
X121.920Y-31.750
X121.920Y-74.930
X124.460Y-31.750
X124.460Y-74.930
X127.000Y-31.750
X127.000Y-74.930
X129.540Y-31.750
X129.540Y-74.930
T4
X35.560Y-31.750
X35.560Y-72.390
X38.100Y-31.750
X38.100Y-34.290
X38.100Y-72.390
X38.100Y-74.930
X40.640Y-31.750
X40.640Y-34.290
X40.640Y-72.390
X40.640Y-74.930
X43.180Y-31.750
X43.180Y-34.290
X43.180Y-72.390
X43.180Y-74.930
X45.720Y-31.750
X45.720Y-34.290
X45.720Y-72.390
X45.720Y-74.930
X48.260Y-31.750
X48.260Y-34.290
X48.260Y-72.390
X48.260Y-74.930
X50.800Y-31.750
X50.800Y-34.290
X50.800Y-72.390
X50.800Y-74.930
X53.340Y-31.750
X53.340Y-34.290
X53.340Y-72.390
X53.340Y-74.930
X55.880Y-31.750
X55.880Y-34.290
X55.880Y-72.390
X55.880Y-74.930
X58.420Y-31.750
X58.420Y-34.290
X58.420Y-72.390
X58.420Y-74.930
X60.960Y-31.750
X60.960Y-34.290
X60.960Y-72.390
X60.960Y-74.930
X63.500Y-31.750
X63.500Y-34.290
X63.500Y-72.390
X63.500Y-74.930
T0
M30
