G04 (created by PCBNEW (22-Jun-2014 BZR 4027)-stable) date Sun 25 Oct 2015 03:10:52 PM EET*
%MOIN*%
G04 Gerber Fmt 3.4, Leading zero omitted, Abs format*
%FSLAX34Y34*%
G01*
G70*
G90*
G04 APERTURE LIST*
%ADD10C,0.00590551*%
%ADD11C,0.0590551*%
%ADD12C,0.035*%
%ADD13C,0.01*%
G04 APERTURE END LIST*
G54D10*
G54D11*
X52300Y-24500D03*
X53300Y-24500D03*
X54300Y-24500D03*
X55300Y-24500D03*
X52300Y-41500D03*
X53300Y-41500D03*
X54300Y-41500D03*
X55300Y-41500D03*
G54D12*
X54300Y-34800D03*
G54D13*
X54300Y-41500D02*
X54300Y-34800D01*
G54D10*
G36*
X55580Y-41150D02*
X55552Y-41122D01*
X55388Y-41054D01*
X55211Y-41054D01*
X55048Y-41122D01*
X54922Y-41247D01*
X54854Y-41411D01*
X54854Y-41588D01*
X54922Y-41751D01*
X54950Y-41780D01*
X54649Y-41780D01*
X54677Y-41752D01*
X54745Y-41588D01*
X54745Y-41411D01*
X54677Y-41248D01*
X54552Y-41122D01*
X54500Y-41100D01*
X54500Y-35059D01*
X54575Y-34984D01*
X54624Y-34864D01*
X54625Y-34735D01*
X54575Y-34616D01*
X54484Y-34524D01*
X54364Y-34475D01*
X54235Y-34474D01*
X54116Y-34524D01*
X54024Y-34615D01*
X53975Y-34735D01*
X53974Y-34864D01*
X54024Y-34983D01*
X54100Y-35059D01*
X54100Y-41100D01*
X54048Y-41122D01*
X53922Y-41247D01*
X53854Y-41411D01*
X53854Y-41588D01*
X53922Y-41751D01*
X53950Y-41780D01*
X53649Y-41780D01*
X53677Y-41752D01*
X53745Y-41588D01*
X53745Y-41411D01*
X53677Y-41248D01*
X53598Y-41168D01*
X53598Y-24812D01*
X53300Y-24514D01*
X53001Y-24812D01*
X53029Y-24889D01*
X53199Y-24963D01*
X53384Y-24966D01*
X53556Y-24899D01*
X53570Y-24889D01*
X53598Y-24812D01*
X53598Y-41168D01*
X53552Y-41122D01*
X53388Y-41054D01*
X53211Y-41054D01*
X53048Y-41122D01*
X52922Y-41247D01*
X52854Y-41411D01*
X52854Y-41588D01*
X52922Y-41751D01*
X52950Y-41780D01*
X52649Y-41780D01*
X52677Y-41752D01*
X52745Y-41588D01*
X52745Y-41411D01*
X52677Y-41248D01*
X52552Y-41122D01*
X52388Y-41054D01*
X52211Y-41054D01*
X52048Y-41122D01*
X52019Y-41150D01*
X52019Y-24849D01*
X52047Y-24877D01*
X52211Y-24945D01*
X52388Y-24945D01*
X52551Y-24877D01*
X52677Y-24752D01*
X52745Y-24588D01*
X52745Y-24411D01*
X52677Y-24248D01*
X52649Y-24219D01*
X52937Y-24219D01*
X52910Y-24229D01*
X52836Y-24399D01*
X52833Y-24584D01*
X52900Y-24756D01*
X52910Y-24770D01*
X52987Y-24798D01*
X53285Y-24500D01*
X53280Y-24494D01*
X53294Y-24480D01*
X53300Y-24485D01*
X53305Y-24480D01*
X53319Y-24494D01*
X53314Y-24500D01*
X53612Y-24798D01*
X53689Y-24770D01*
X53763Y-24600D01*
X53766Y-24415D01*
X53699Y-24243D01*
X53689Y-24229D01*
X53662Y-24219D01*
X53950Y-24219D01*
X53922Y-24247D01*
X53854Y-24411D01*
X53854Y-24588D01*
X53922Y-24751D01*
X54047Y-24877D01*
X54211Y-24945D01*
X54388Y-24945D01*
X54551Y-24877D01*
X54677Y-24752D01*
X54745Y-24588D01*
X54745Y-24411D01*
X54677Y-24248D01*
X54649Y-24219D01*
X54950Y-24219D01*
X54922Y-24247D01*
X54854Y-24411D01*
X54854Y-24588D01*
X54922Y-24751D01*
X55047Y-24877D01*
X55211Y-24945D01*
X55388Y-24945D01*
X55551Y-24877D01*
X55580Y-24849D01*
X55580Y-41150D01*
X55580Y-41150D01*
G37*
G54D13*
X55580Y-41150D02*
X55552Y-41122D01*
X55388Y-41054D01*
X55211Y-41054D01*
X55048Y-41122D01*
X54922Y-41247D01*
X54854Y-41411D01*
X54854Y-41588D01*
X54922Y-41751D01*
X54950Y-41780D01*
X54649Y-41780D01*
X54677Y-41752D01*
X54745Y-41588D01*
X54745Y-41411D01*
X54677Y-41248D01*
X54552Y-41122D01*
X54500Y-41100D01*
X54500Y-35059D01*
X54575Y-34984D01*
X54624Y-34864D01*
X54625Y-34735D01*
X54575Y-34616D01*
X54484Y-34524D01*
X54364Y-34475D01*
X54235Y-34474D01*
X54116Y-34524D01*
X54024Y-34615D01*
X53975Y-34735D01*
X53974Y-34864D01*
X54024Y-34983D01*
X54100Y-35059D01*
X54100Y-41100D01*
X54048Y-41122D01*
X53922Y-41247D01*
X53854Y-41411D01*
X53854Y-41588D01*
X53922Y-41751D01*
X53950Y-41780D01*
X53649Y-41780D01*
X53677Y-41752D01*
X53745Y-41588D01*
X53745Y-41411D01*
X53677Y-41248D01*
X53598Y-41168D01*
X53598Y-24812D01*
X53300Y-24514D01*
X53001Y-24812D01*
X53029Y-24889D01*
X53199Y-24963D01*
X53384Y-24966D01*
X53556Y-24899D01*
X53570Y-24889D01*
X53598Y-24812D01*
X53598Y-41168D01*
X53552Y-41122D01*
X53388Y-41054D01*
X53211Y-41054D01*
X53048Y-41122D01*
X52922Y-41247D01*
X52854Y-41411D01*
X52854Y-41588D01*
X52922Y-41751D01*
X52950Y-41780D01*
X52649Y-41780D01*
X52677Y-41752D01*
X52745Y-41588D01*
X52745Y-41411D01*
X52677Y-41248D01*
X52552Y-41122D01*
X52388Y-41054D01*
X52211Y-41054D01*
X52048Y-41122D01*
X52019Y-41150D01*
X52019Y-24849D01*
X52047Y-24877D01*
X52211Y-24945D01*
X52388Y-24945D01*
X52551Y-24877D01*
X52677Y-24752D01*
X52745Y-24588D01*
X52745Y-24411D01*
X52677Y-24248D01*
X52649Y-24219D01*
X52937Y-24219D01*
X52910Y-24229D01*
X52836Y-24399D01*
X52833Y-24584D01*
X52900Y-24756D01*
X52910Y-24770D01*
X52987Y-24798D01*
X53285Y-24500D01*
X53280Y-24494D01*
X53294Y-24480D01*
X53300Y-24485D01*
X53305Y-24480D01*
X53319Y-24494D01*
X53314Y-24500D01*
X53612Y-24798D01*
X53689Y-24770D01*
X53763Y-24600D01*
X53766Y-24415D01*
X53699Y-24243D01*
X53689Y-24229D01*
X53662Y-24219D01*
X53950Y-24219D01*
X53922Y-24247D01*
X53854Y-24411D01*
X53854Y-24588D01*
X53922Y-24751D01*
X54047Y-24877D01*
X54211Y-24945D01*
X54388Y-24945D01*
X54551Y-24877D01*
X54677Y-24752D01*
X54745Y-24588D01*
X54745Y-24411D01*
X54677Y-24248D01*
X54649Y-24219D01*
X54950Y-24219D01*
X54922Y-24247D01*
X54854Y-24411D01*
X54854Y-24588D01*
X54922Y-24751D01*
X55047Y-24877D01*
X55211Y-24945D01*
X55388Y-24945D01*
X55551Y-24877D01*
X55580Y-24849D01*
X55580Y-41150D01*
M02*
