G04 (created by PCBNEW-RS274X (2012-apr-16-27)-stable) date Sat 16 Nov 2013 11:41:47 AM EET*
G01*
G70*
G90*
%MOIN*%
G04 Gerber Fmt 3.4, Leading zero omitted, Abs format*
%FSLAX34Y34*%
G04 APERTURE LIST*
%ADD10C,0.006000*%
%ADD11C,0.015000*%
%ADD12R,0.043600X0.035700*%
%ADD13R,0.035700X0.043600*%
%ADD14R,0.080000X0.080000*%
%ADD15C,0.080000*%
%ADD16R,0.057200X0.011900*%
%ADD17R,0.011900X0.057200*%
%ADD18R,0.065000X0.045000*%
G04 APERTURE END LIST*
G54D10*
G54D11*
X16100Y-07250D02*
X16100Y-25550D01*
X11800Y-07250D02*
X16100Y-07250D01*
X11800Y-25550D02*
X11800Y-07250D01*
X16100Y-25550D02*
X11800Y-25550D01*
G54D12*
X12350Y-16177D03*
X12350Y-15823D03*
G54D13*
X13377Y-14800D03*
X13023Y-14800D03*
G54D14*
X12450Y-07900D03*
G54D15*
X13450Y-07900D03*
X14450Y-07900D03*
X15450Y-07900D03*
G54D14*
X15450Y-24900D03*
G54D15*
X14450Y-24900D03*
X13450Y-24900D03*
X12450Y-24900D03*
G54D13*
X14427Y-18200D03*
X14073Y-18200D03*
G54D16*
X13074Y-15918D03*
X13074Y-16115D03*
X13074Y-16509D03*
X13074Y-16312D03*
X13074Y-16705D03*
X13074Y-16902D03*
X14826Y-16902D03*
X14826Y-16705D03*
X14826Y-16312D03*
X14826Y-16509D03*
X14826Y-16115D03*
X14826Y-15918D03*
G54D17*
X14439Y-17276D03*
X14235Y-17276D03*
X13842Y-17276D03*
X14039Y-17276D03*
X13646Y-17276D03*
X13449Y-17276D03*
X13449Y-15524D03*
X13646Y-15524D03*
X14039Y-15524D03*
X13842Y-15524D03*
X14235Y-15524D03*
X14432Y-15524D03*
G54D13*
X14823Y-14850D03*
X15177Y-14850D03*
X14073Y-18900D03*
X14427Y-18900D03*
G54D18*
X15000Y-18150D03*
X15000Y-17550D03*
M02*
