G04 (created by PCBNEW-RS274X (2012-apr-16-27)-stable) date Sat 16 Nov 2013 11:41:47 AM EET*
G01*
G70*
G90*
%MOIN*%
G04 Gerber Fmt 3.4, Leading zero omitted, Abs format*
%FSLAX34Y34*%
G04 APERTURE LIST*
%ADD10C,0.006000*%
%ADD11C,0.015000*%
%ADD12R,0.060000X0.060000*%
%ADD13C,0.060000*%
%ADD14C,0.035000*%
%ADD15C,0.008000*%
%ADD16C,0.010000*%
G04 APERTURE END LIST*
G54D10*
G54D11*
X16100Y-07250D02*
X16100Y-25550D01*
X11800Y-07250D02*
X16100Y-07250D01*
X11800Y-25550D02*
X11800Y-07250D01*
X16100Y-25550D02*
X11800Y-25550D01*
G54D12*
X12450Y-07900D03*
G54D13*
X13450Y-07900D03*
X14450Y-07900D03*
X15450Y-07900D03*
G54D12*
X15450Y-24900D03*
G54D13*
X14450Y-24900D03*
X13450Y-24900D03*
X12450Y-24900D03*
G54D14*
X14950Y-20350D03*
X14950Y-19800D03*
X13400Y-14150D03*
X15000Y-18700D03*
G54D15*
X15450Y-08350D02*
X15750Y-08650D01*
X15750Y-08650D02*
X15750Y-19550D01*
X15750Y-19550D02*
X14950Y-20350D01*
X15450Y-07900D02*
X15450Y-08350D01*
X15500Y-19250D02*
X14950Y-19800D01*
X14450Y-08600D02*
X15500Y-09650D01*
X15500Y-09650D02*
X15500Y-19250D01*
X14450Y-07900D02*
X14450Y-08600D01*
G54D10*
G36*
X15775Y-24351D02*
X15701Y-24351D01*
X15101Y-24351D01*
X15009Y-24389D01*
X14939Y-24459D01*
X14901Y-24550D01*
X14901Y-24575D01*
X14761Y-24435D01*
X14559Y-24351D01*
X14341Y-24351D01*
X14139Y-24435D01*
X13985Y-24589D01*
X13950Y-24673D01*
X13915Y-24589D01*
X13761Y-24435D01*
X13758Y-24433D01*
X13758Y-08278D01*
X13450Y-07971D01*
X13142Y-08278D01*
X13169Y-08372D01*
X13371Y-08443D01*
X13584Y-08432D01*
X13731Y-08372D01*
X13758Y-08278D01*
X13758Y-24433D01*
X13559Y-24351D01*
X13341Y-24351D01*
X13139Y-24435D01*
X12985Y-24589D01*
X12950Y-24673D01*
X12915Y-24589D01*
X12761Y-24435D01*
X12559Y-24351D01*
X12341Y-24351D01*
X12139Y-24435D01*
X12125Y-24449D01*
X12125Y-08449D01*
X12199Y-08449D01*
X12799Y-08449D01*
X12891Y-08411D01*
X12961Y-08341D01*
X12999Y-08250D01*
X12999Y-08187D01*
X13072Y-08208D01*
X13344Y-07935D01*
X13379Y-07900D01*
X13450Y-07829D01*
X13521Y-07900D01*
X13556Y-07935D01*
X13828Y-08208D01*
X13922Y-08181D01*
X13945Y-08115D01*
X13985Y-08211D01*
X14139Y-08365D01*
X14160Y-08373D01*
X14160Y-08600D01*
X14182Y-08711D01*
X14245Y-08805D01*
X15210Y-09770D01*
X15210Y-19130D01*
X14965Y-19375D01*
X14866Y-19375D01*
X14710Y-19439D01*
X14590Y-19559D01*
X14525Y-19715D01*
X14525Y-19884D01*
X14589Y-20040D01*
X14624Y-20075D01*
X14590Y-20109D01*
X14525Y-20265D01*
X14525Y-20434D01*
X14589Y-20590D01*
X14709Y-20710D01*
X14865Y-20775D01*
X15034Y-20775D01*
X15190Y-20711D01*
X15310Y-20591D01*
X15375Y-20435D01*
X15375Y-20335D01*
X15775Y-19935D01*
X15775Y-24351D01*
X15775Y-24351D01*
G37*
G54D16*
X15775Y-24351D02*
X15701Y-24351D01*
X15101Y-24351D01*
X15009Y-24389D01*
X14939Y-24459D01*
X14901Y-24550D01*
X14901Y-24575D01*
X14761Y-24435D01*
X14559Y-24351D01*
X14341Y-24351D01*
X14139Y-24435D01*
X13985Y-24589D01*
X13950Y-24673D01*
X13915Y-24589D01*
X13761Y-24435D01*
X13758Y-24433D01*
X13758Y-08278D01*
X13450Y-07971D01*
X13142Y-08278D01*
X13169Y-08372D01*
X13371Y-08443D01*
X13584Y-08432D01*
X13731Y-08372D01*
X13758Y-08278D01*
X13758Y-24433D01*
X13559Y-24351D01*
X13341Y-24351D01*
X13139Y-24435D01*
X12985Y-24589D01*
X12950Y-24673D01*
X12915Y-24589D01*
X12761Y-24435D01*
X12559Y-24351D01*
X12341Y-24351D01*
X12139Y-24435D01*
X12125Y-24449D01*
X12125Y-08449D01*
X12199Y-08449D01*
X12799Y-08449D01*
X12891Y-08411D01*
X12961Y-08341D01*
X12999Y-08250D01*
X12999Y-08187D01*
X13072Y-08208D01*
X13344Y-07935D01*
X13379Y-07900D01*
X13450Y-07829D01*
X13521Y-07900D01*
X13556Y-07935D01*
X13828Y-08208D01*
X13922Y-08181D01*
X13945Y-08115D01*
X13985Y-08211D01*
X14139Y-08365D01*
X14160Y-08373D01*
X14160Y-08600D01*
X14182Y-08711D01*
X14245Y-08805D01*
X15210Y-09770D01*
X15210Y-19130D01*
X14965Y-19375D01*
X14866Y-19375D01*
X14710Y-19439D01*
X14590Y-19559D01*
X14525Y-19715D01*
X14525Y-19884D01*
X14589Y-20040D01*
X14624Y-20075D01*
X14590Y-20109D01*
X14525Y-20265D01*
X14525Y-20434D01*
X14589Y-20590D01*
X14709Y-20710D01*
X14865Y-20775D01*
X15034Y-20775D01*
X15190Y-20711D01*
X15310Y-20591D01*
X15375Y-20435D01*
X15375Y-20335D01*
X15775Y-19935D01*
X15775Y-24351D01*
M02*
