M48
;DRILL file {Pcbnew (22-Jun-2014 BZR 4027)-stable} date Fri 19 Dec 2014 02:00:48 PM EET
;FORMAT={-:-/ absolute / metric / decimal}
FMAT,2
METRIC,TZ
T1C0.305
T2C0.356
T3C0.650
%
G90
G05
M71
T1
X50.706Y-48.877
X51.057Y-38.326
X51.956Y-38.725
X52.006Y-37.577
X52.207Y-40.376
X52.705Y-41.176
X52.756Y-42.075
X52.756Y-42.977
X53.307Y-51.275
X53.355Y-56.675
X54.005Y-52.225
X59.906Y-49.276
X61.087Y-41.148
X69.469Y-39.624
X69.85Y-56.769
T2
X50.292Y-47.498
X53.5Y-39.7
X54.9Y-51.199
X55.1Y-49.5
X55.4Y-53.8
X55.857Y-38.877
X56.134Y-39.878
X58.707Y-37.976
X59.7Y-53.299
X60.833Y-40.005
X63.627Y-51.816
X65.278Y-43.688
X65.278Y-46.355
X65.606Y-40.251
X66.802Y-43.688
X66.802Y-46.355
X67.843Y-39.2
X68.453Y-43.688
X68.453Y-46.355
X70.104Y-43.688
X70.104Y-46.355
X71.501Y-43.688
X71.501Y-46.355
X72.1Y-54.099
X72.1Y-56.101
T3
X51.9Y-36.2
X51.9Y-58.199
X53.899Y-36.2
X53.899Y-58.199
X55.898Y-36.2
X55.898Y-58.199
X57.899Y-36.2
X57.899Y-58.199
X59.898Y-36.2
X59.898Y-58.199
X61.9Y-36.2
X61.9Y-58.199
X63.899Y-36.2
X63.899Y-58.199
X65.9Y-36.2
X65.9Y-58.199
X67.899Y-36.2
X67.899Y-58.199
X69.898Y-36.2
X69.898Y-58.199
T0
M30
