G04 (created by PCBNEW (22-Jun-2014 BZR 4027)-stable) date Fri 19 Dec 2014 07:49:01 AM EET*
%MOIN*%
G04 Gerber Fmt 3.4, Leading zero omitted, Abs format*
%FSLAX34Y34*%
G01*
G70*
G90*
G04 APERTURE LIST*
%ADD10C,0.00590551*%
%ADD11C,0.0039*%
%ADD12C,0.0001*%
G04 APERTURE END LIST*
G54D10*
G54D11*
X19409Y-13661D02*
X30472Y-13661D01*
X19409Y-23504D02*
X19646Y-23504D01*
X19409Y-13661D02*
X19409Y-23504D01*
X30472Y-23504D02*
X19646Y-23504D01*
X30472Y-23465D02*
X30472Y-23504D01*
X30472Y-23386D02*
X30472Y-23465D01*
X30472Y-13661D02*
X30472Y-23386D01*
G54D12*
G36*
X24938Y-20522D02*
X24936Y-20529D01*
X24932Y-20541D01*
X24926Y-20558D01*
X24917Y-20577D01*
X24907Y-20599D01*
X24895Y-20624D01*
X24882Y-20649D01*
X24869Y-20675D01*
X24855Y-20702D01*
X24841Y-20727D01*
X24828Y-20751D01*
X24817Y-20769D01*
X24803Y-20793D01*
X24788Y-20817D01*
X24772Y-20841D01*
X24756Y-20865D01*
X24741Y-20886D01*
X24727Y-20906D01*
X24715Y-20922D01*
X24705Y-20935D01*
X24698Y-20942D01*
X24687Y-20949D01*
X24675Y-20950D01*
X24666Y-20948D01*
X24659Y-20943D01*
X24653Y-20936D01*
X24649Y-20928D01*
X24649Y-20919D01*
X24652Y-20909D01*
X24660Y-20895D01*
X24671Y-20880D01*
X24709Y-20826D01*
X24747Y-20768D01*
X24783Y-20707D01*
X24817Y-20644D01*
X24848Y-20581D01*
X24861Y-20554D01*
X24868Y-20537D01*
X24875Y-20523D01*
X24881Y-20511D01*
X24886Y-20502D01*
X24888Y-20500D01*
X24898Y-20493D01*
X24909Y-20491D01*
X24920Y-20493D01*
X24930Y-20500D01*
X24936Y-20511D01*
X24938Y-20522D01*
X24938Y-20522D01*
X24938Y-20522D01*
G37*
G36*
X25069Y-20563D02*
X25068Y-20570D01*
X25067Y-20576D01*
X25064Y-20586D01*
X25059Y-20601D01*
X25054Y-20620D01*
X25047Y-20642D01*
X25039Y-20667D01*
X25031Y-20694D01*
X25023Y-20721D01*
X25015Y-20749D01*
X25006Y-20777D01*
X24998Y-20803D01*
X24990Y-20828D01*
X24983Y-20851D01*
X24977Y-20870D01*
X24973Y-20885D01*
X24969Y-20896D01*
X24967Y-20901D01*
X24961Y-20914D01*
X24951Y-20922D01*
X24939Y-20924D01*
X24937Y-20924D01*
X24925Y-20922D01*
X24917Y-20917D01*
X24911Y-20907D01*
X24909Y-20897D01*
X24910Y-20892D01*
X24913Y-20882D01*
X24917Y-20867D01*
X24922Y-20849D01*
X24929Y-20827D01*
X24936Y-20802D01*
X24944Y-20775D01*
X24952Y-20748D01*
X24960Y-20719D01*
X24969Y-20691D01*
X24977Y-20664D01*
X24985Y-20638D01*
X24992Y-20614D01*
X24999Y-20594D01*
X25005Y-20577D01*
X25009Y-20564D01*
X25012Y-20556D01*
X25012Y-20555D01*
X25020Y-20544D01*
X25030Y-20538D01*
X25042Y-20537D01*
X25053Y-20540D01*
X25063Y-20549D01*
X25067Y-20555D01*
X25069Y-20563D01*
X25069Y-20563D01*
X25069Y-20563D01*
G37*
G36*
X25207Y-20588D02*
X25206Y-20597D01*
X25205Y-20610D01*
X25204Y-20627D01*
X25202Y-20649D01*
X25199Y-20675D01*
X25196Y-20701D01*
X25193Y-20729D01*
X25191Y-20755D01*
X25188Y-20778D01*
X25186Y-20799D01*
X25184Y-20816D01*
X25183Y-20828D01*
X25182Y-20835D01*
X25182Y-20836D01*
X25178Y-20845D01*
X25172Y-20854D01*
X25171Y-20855D01*
X25160Y-20863D01*
X25149Y-20864D01*
X25137Y-20859D01*
X25133Y-20856D01*
X25130Y-20853D01*
X25128Y-20850D01*
X25126Y-20847D01*
X25124Y-20842D01*
X25124Y-20836D01*
X25124Y-20828D01*
X25124Y-20816D01*
X25125Y-20802D01*
X25127Y-20783D01*
X25129Y-20760D01*
X25132Y-20731D01*
X25135Y-20698D01*
X25136Y-20691D01*
X25140Y-20657D01*
X25143Y-20629D01*
X25146Y-20606D01*
X25148Y-20588D01*
X25150Y-20575D01*
X25152Y-20567D01*
X25154Y-20563D01*
X25154Y-20563D01*
X25163Y-20554D01*
X25174Y-20550D01*
X25186Y-20551D01*
X25196Y-20557D01*
X25203Y-20565D01*
X25205Y-20568D01*
X25206Y-20571D01*
X25206Y-20575D01*
X25207Y-20580D01*
X25207Y-20588D01*
X25207Y-20588D01*
X25207Y-20588D01*
G37*
G36*
X25394Y-20777D02*
X25393Y-20781D01*
X25388Y-20792D01*
X25380Y-20800D01*
X25368Y-20804D01*
X25357Y-20804D01*
X25348Y-20800D01*
X25341Y-20792D01*
X25332Y-20778D01*
X25323Y-20760D01*
X25315Y-20738D01*
X25308Y-20713D01*
X25307Y-20710D01*
X25302Y-20691D01*
X25298Y-20669D01*
X25294Y-20644D01*
X25291Y-20620D01*
X25289Y-20597D01*
X25288Y-20579D01*
X25288Y-20575D01*
X25288Y-20562D01*
X25289Y-20553D01*
X25290Y-20548D01*
X25294Y-20543D01*
X25297Y-20540D01*
X25308Y-20532D01*
X25320Y-20530D01*
X25333Y-20535D01*
X25337Y-20538D01*
X25341Y-20541D01*
X25343Y-20546D01*
X25345Y-20552D01*
X25346Y-20562D01*
X25348Y-20577D01*
X25348Y-20578D01*
X25352Y-20622D01*
X25358Y-20660D01*
X25365Y-20693D01*
X25374Y-20722D01*
X25384Y-20747D01*
X25390Y-20760D01*
X25393Y-20770D01*
X25394Y-20777D01*
X25394Y-20777D01*
X25394Y-20777D01*
G37*
G36*
X26652Y-18932D02*
X26652Y-18935D01*
X26649Y-18937D01*
X26643Y-18938D01*
X26633Y-18939D01*
X26622Y-18940D01*
X26591Y-18942D01*
X26563Y-18945D01*
X26537Y-18949D01*
X26511Y-18954D01*
X26484Y-18960D01*
X26454Y-18968D01*
X26420Y-18977D01*
X26400Y-18983D01*
X26362Y-18996D01*
X26321Y-19011D01*
X26279Y-19028D01*
X26238Y-19047D01*
X26198Y-19067D01*
X26161Y-19087D01*
X26127Y-19107D01*
X26098Y-19126D01*
X26096Y-19128D01*
X26089Y-19134D01*
X26079Y-19145D01*
X26068Y-19159D01*
X26055Y-19177D01*
X26041Y-19196D01*
X26028Y-19215D01*
X26020Y-19226D01*
X26020Y-19079D01*
X25990Y-19067D01*
X25964Y-19058D01*
X25933Y-19048D01*
X25900Y-19038D01*
X25866Y-19028D01*
X25832Y-19020D01*
X25801Y-19013D01*
X25773Y-19007D01*
X25765Y-19006D01*
X25746Y-19004D01*
X25723Y-19002D01*
X25699Y-19001D01*
X25673Y-19001D01*
X25649Y-19001D01*
X25626Y-19002D01*
X25608Y-19004D01*
X25597Y-19006D01*
X25575Y-19012D01*
X25554Y-19021D01*
X25535Y-19031D01*
X25521Y-19043D01*
X25509Y-19058D01*
X25501Y-19080D01*
X25497Y-19098D01*
X25495Y-19111D01*
X25513Y-19120D01*
X25521Y-19124D01*
X25528Y-19126D01*
X25535Y-19127D01*
X25544Y-19128D01*
X25557Y-19127D01*
X25566Y-19127D01*
X25584Y-19125D01*
X25604Y-19123D01*
X25621Y-19121D01*
X25629Y-19120D01*
X25642Y-19118D01*
X25652Y-19117D01*
X25658Y-19116D01*
X25659Y-19117D01*
X25658Y-19118D01*
X25657Y-19118D01*
X25653Y-19121D01*
X25649Y-19128D01*
X25645Y-19136D01*
X25644Y-19143D01*
X25644Y-19143D01*
X25647Y-19152D01*
X25654Y-19160D01*
X25664Y-19168D01*
X25671Y-19171D01*
X25686Y-19174D01*
X25705Y-19174D01*
X25725Y-19172D01*
X25744Y-19167D01*
X25749Y-19165D01*
X25760Y-19159D01*
X25767Y-19153D01*
X25771Y-19146D01*
X25771Y-19145D01*
X25774Y-19134D01*
X25771Y-19123D01*
X25763Y-19114D01*
X25760Y-19111D01*
X25749Y-19103D01*
X25774Y-19103D01*
X25788Y-19102D01*
X25806Y-19101D01*
X25829Y-19100D01*
X25855Y-19097D01*
X25882Y-19095D01*
X25910Y-19092D01*
X25937Y-19090D01*
X25962Y-19087D01*
X25985Y-19084D01*
X26004Y-19081D01*
X26005Y-19081D01*
X26020Y-19079D01*
X26020Y-19226D01*
X26014Y-19235D01*
X26002Y-19253D01*
X25992Y-19270D01*
X25985Y-19284D01*
X25985Y-19284D01*
X25967Y-19320D01*
X25952Y-19356D01*
X25937Y-19392D01*
X25924Y-19429D01*
X25912Y-19468D01*
X25901Y-19509D01*
X25890Y-19554D01*
X25880Y-19602D01*
X25870Y-19655D01*
X25860Y-19712D01*
X25852Y-19763D01*
X25845Y-19805D01*
X25839Y-19841D01*
X25833Y-19873D01*
X25827Y-19900D01*
X25822Y-19926D01*
X25816Y-19949D01*
X25809Y-19970D01*
X25802Y-19992D01*
X25794Y-20013D01*
X25790Y-20023D01*
X25770Y-20071D01*
X25750Y-20115D01*
X25729Y-20155D01*
X25707Y-20191D01*
X25682Y-20226D01*
X25655Y-20259D01*
X25624Y-20293D01*
X25594Y-20323D01*
X25552Y-20361D01*
X25511Y-20393D01*
X25469Y-20421D01*
X25425Y-20445D01*
X25396Y-20459D01*
X25371Y-20470D01*
X25349Y-20478D01*
X25328Y-20485D01*
X25308Y-20490D01*
X25286Y-20494D01*
X25261Y-20497D01*
X25232Y-20500D01*
X25188Y-20503D01*
X25150Y-20505D01*
X25116Y-20504D01*
X25089Y-20501D01*
X25086Y-20500D01*
X25067Y-20497D01*
X25047Y-20492D01*
X25027Y-20487D01*
X25008Y-20482D01*
X24992Y-20476D01*
X24979Y-20472D01*
X24974Y-20469D01*
X24965Y-20462D01*
X24954Y-20453D01*
X24947Y-20447D01*
X24933Y-20432D01*
X24932Y-20399D01*
X24932Y-20347D01*
X24937Y-20292D01*
X24945Y-20234D01*
X24956Y-20174D01*
X24971Y-20113D01*
X24989Y-20053D01*
X25009Y-19993D01*
X25032Y-19935D01*
X25040Y-19918D01*
X25048Y-19900D01*
X25007Y-19875D01*
X24993Y-19866D01*
X24981Y-19859D01*
X24971Y-19853D01*
X24966Y-19850D01*
X24965Y-19850D01*
X24963Y-19852D01*
X24958Y-19859D01*
X24951Y-19871D01*
X24942Y-19886D01*
X24931Y-19903D01*
X24919Y-19923D01*
X24912Y-19934D01*
X24899Y-19955D01*
X24887Y-19975D01*
X24875Y-19993D01*
X24865Y-20008D01*
X24857Y-20020D01*
X24852Y-20027D01*
X24851Y-20028D01*
X24840Y-20037D01*
X24828Y-20039D01*
X24817Y-20034D01*
X24811Y-20030D01*
X24807Y-20025D01*
X24803Y-20021D01*
X24802Y-20016D01*
X24802Y-20010D01*
X24803Y-20002D01*
X24807Y-19993D01*
X24814Y-19980D01*
X24823Y-19964D01*
X24835Y-19944D01*
X24850Y-19919D01*
X24857Y-19907D01*
X24870Y-19886D01*
X24882Y-19866D01*
X24893Y-19849D01*
X24901Y-19835D01*
X24907Y-19824D01*
X24911Y-19818D01*
X24912Y-19817D01*
X24905Y-19812D01*
X24895Y-19804D01*
X24883Y-19794D01*
X24871Y-19783D01*
X24860Y-19773D01*
X24854Y-19767D01*
X24845Y-19758D01*
X24838Y-19750D01*
X24833Y-19746D01*
X24832Y-19746D01*
X24829Y-19747D01*
X24822Y-19752D01*
X24810Y-19759D01*
X24795Y-19769D01*
X24777Y-19781D01*
X24757Y-19794D01*
X24737Y-19807D01*
X24711Y-19824D01*
X24689Y-19839D01*
X24671Y-19850D01*
X24657Y-19858D01*
X24646Y-19864D01*
X24637Y-19867D01*
X24631Y-19869D01*
X24625Y-19868D01*
X24621Y-19866D01*
X24616Y-19862D01*
X24613Y-19859D01*
X24605Y-19848D01*
X24604Y-19836D01*
X24609Y-19824D01*
X24609Y-19824D01*
X24613Y-19820D01*
X24622Y-19813D01*
X24634Y-19804D01*
X24650Y-19793D01*
X24668Y-19780D01*
X24689Y-19766D01*
X24706Y-19754D01*
X24798Y-19694D01*
X24774Y-19651D01*
X24765Y-19636D01*
X24758Y-19623D01*
X24752Y-19613D01*
X24749Y-19607D01*
X24748Y-19606D01*
X24745Y-19606D01*
X24736Y-19607D01*
X24722Y-19608D01*
X24703Y-19610D01*
X24681Y-19613D01*
X24655Y-19616D01*
X24626Y-19619D01*
X24596Y-19623D01*
X24580Y-19626D01*
X24548Y-19630D01*
X24517Y-19634D01*
X24489Y-19637D01*
X24464Y-19641D01*
X24442Y-19643D01*
X24424Y-19645D01*
X24411Y-19647D01*
X24403Y-19648D01*
X24402Y-19648D01*
X24389Y-19645D01*
X24380Y-19637D01*
X24375Y-19625D01*
X24375Y-19623D01*
X24375Y-19609D01*
X24381Y-19598D01*
X24392Y-19592D01*
X24396Y-19591D01*
X24406Y-19589D01*
X24420Y-19587D01*
X24439Y-19584D01*
X24461Y-19581D01*
X24485Y-19577D01*
X24512Y-19574D01*
X24539Y-19570D01*
X24567Y-19566D01*
X24594Y-19562D01*
X24621Y-19559D01*
X24645Y-19555D01*
X24667Y-19553D01*
X24686Y-19550D01*
X24700Y-19548D01*
X24710Y-19547D01*
X24714Y-19547D01*
X24716Y-19547D01*
X24717Y-19546D01*
X24716Y-19543D01*
X24715Y-19537D01*
X24711Y-19527D01*
X24706Y-19513D01*
X24703Y-19504D01*
X24692Y-19473D01*
X24364Y-19402D01*
X24319Y-19392D01*
X24276Y-19383D01*
X24235Y-19374D01*
X24196Y-19365D01*
X24161Y-19357D01*
X24129Y-19350D01*
X24100Y-19344D01*
X24075Y-19338D01*
X24055Y-19334D01*
X24040Y-19330D01*
X24031Y-19328D01*
X24027Y-19326D01*
X24017Y-19319D01*
X24012Y-19309D01*
X24011Y-19301D01*
X24014Y-19288D01*
X24022Y-19279D01*
X24033Y-19274D01*
X24041Y-19273D01*
X24046Y-19273D01*
X24056Y-19275D01*
X24072Y-19278D01*
X24093Y-19283D01*
X24118Y-19288D01*
X24147Y-19294D01*
X24180Y-19301D01*
X24216Y-19308D01*
X24254Y-19316D01*
X24295Y-19325D01*
X24337Y-19334D01*
X24364Y-19340D01*
X24407Y-19349D01*
X24449Y-19358D01*
X24488Y-19367D01*
X24525Y-19375D01*
X24558Y-19382D01*
X24588Y-19388D01*
X24615Y-19394D01*
X24637Y-19399D01*
X24655Y-19403D01*
X24667Y-19405D01*
X24674Y-19407D01*
X24675Y-19407D01*
X24675Y-19404D01*
X24674Y-19395D01*
X24673Y-19384D01*
X24671Y-19369D01*
X24671Y-19369D01*
X24668Y-19353D01*
X24666Y-19342D01*
X24664Y-19335D01*
X24662Y-19331D01*
X24659Y-19329D01*
X24654Y-19327D01*
X24645Y-19324D01*
X24631Y-19318D01*
X24613Y-19312D01*
X24593Y-19304D01*
X24570Y-19295D01*
X24555Y-19289D01*
X24497Y-19267D01*
X24435Y-19242D01*
X24369Y-19216D01*
X24300Y-19189D01*
X24229Y-19160D01*
X24157Y-19131D01*
X24085Y-19102D01*
X24014Y-19073D01*
X23945Y-19045D01*
X23937Y-19041D01*
X23902Y-19027D01*
X23867Y-19012D01*
X23832Y-18998D01*
X23799Y-18984D01*
X23769Y-18972D01*
X23741Y-18960D01*
X23717Y-18950D01*
X23697Y-18942D01*
X23682Y-18936D01*
X23680Y-18935D01*
X23661Y-18927D01*
X23644Y-18920D01*
X23629Y-18913D01*
X23618Y-18908D01*
X23612Y-18904D01*
X23611Y-18904D01*
X23604Y-18894D01*
X23602Y-18883D01*
X23604Y-18871D01*
X23610Y-18861D01*
X23619Y-18854D01*
X23620Y-18854D01*
X23624Y-18853D01*
X23628Y-18852D01*
X23632Y-18852D01*
X23637Y-18854D01*
X23645Y-18856D01*
X23655Y-18860D01*
X23669Y-18865D01*
X23687Y-18873D01*
X23710Y-18882D01*
X23718Y-18885D01*
X23797Y-18918D01*
X23874Y-18950D01*
X23949Y-18981D01*
X24022Y-19011D01*
X24093Y-19040D01*
X24161Y-19067D01*
X24226Y-19094D01*
X24289Y-19119D01*
X24347Y-19142D01*
X24403Y-19164D01*
X24454Y-19185D01*
X24502Y-19204D01*
X24545Y-19220D01*
X24584Y-19235D01*
X24618Y-19248D01*
X24647Y-19259D01*
X24671Y-19268D01*
X24690Y-19274D01*
X24701Y-19278D01*
X24722Y-19284D01*
X24748Y-19293D01*
X24778Y-19303D01*
X24809Y-19314D01*
X24842Y-19327D01*
X24876Y-19339D01*
X24908Y-19352D01*
X24938Y-19364D01*
X24966Y-19376D01*
X24966Y-19376D01*
X25003Y-19392D01*
X25041Y-19411D01*
X25080Y-19430D01*
X25119Y-19450D01*
X25156Y-19471D01*
X25192Y-19491D01*
X25225Y-19510D01*
X25254Y-19529D01*
X25278Y-19546D01*
X25291Y-19556D01*
X25310Y-19570D01*
X25342Y-19545D01*
X25358Y-19533D01*
X25370Y-19523D01*
X25379Y-19516D01*
X25385Y-19510D01*
X25389Y-19505D01*
X25393Y-19500D01*
X25395Y-19496D01*
X25400Y-19484D01*
X25405Y-19471D01*
X25409Y-19455D01*
X25413Y-19437D01*
X25416Y-19415D01*
X25419Y-19390D01*
X25421Y-19360D01*
X25424Y-19326D01*
X25426Y-19286D01*
X25428Y-19241D01*
X25428Y-19240D01*
X25430Y-19201D01*
X25431Y-19169D01*
X25433Y-19141D01*
X25435Y-19118D01*
X25437Y-19099D01*
X25439Y-19083D01*
X25442Y-19069D01*
X25444Y-19057D01*
X25448Y-19047D01*
X25448Y-19046D01*
X25461Y-19020D01*
X25480Y-18998D01*
X25503Y-18979D01*
X25532Y-18964D01*
X25565Y-18952D01*
X25603Y-18944D01*
X25620Y-18942D01*
X25643Y-18940D01*
X25670Y-18939D01*
X25700Y-18940D01*
X25730Y-18942D01*
X25759Y-18944D01*
X25776Y-18947D01*
X25803Y-18951D01*
X25834Y-18958D01*
X25867Y-18966D01*
X25902Y-18975D01*
X25937Y-18985D01*
X25969Y-18995D01*
X25998Y-19005D01*
X26010Y-19010D01*
X26023Y-19015D01*
X26034Y-19019D01*
X26042Y-19022D01*
X26045Y-19023D01*
X26049Y-19022D01*
X26059Y-19019D01*
X26071Y-19015D01*
X26086Y-19009D01*
X26090Y-19007D01*
X26129Y-18991D01*
X26169Y-18978D01*
X26209Y-18966D01*
X26250Y-18956D01*
X26294Y-18947D01*
X26341Y-18940D01*
X26392Y-18934D01*
X26447Y-18930D01*
X26507Y-18927D01*
X26534Y-18925D01*
X26565Y-18924D01*
X26590Y-18924D01*
X26610Y-18923D01*
X26625Y-18924D01*
X26637Y-18924D01*
X26644Y-18925D01*
X26649Y-18927D01*
X26652Y-18929D01*
X26652Y-18932D01*
X26652Y-18932D01*
X26652Y-18932D01*
G37*
G36*
X26485Y-20489D02*
X26441Y-20489D01*
X26397Y-20489D01*
X26397Y-20388D01*
X26397Y-20287D01*
X26397Y-20211D01*
X26397Y-20098D01*
X26397Y-19984D01*
X26377Y-19954D01*
X26355Y-19924D01*
X26333Y-19899D01*
X26309Y-19877D01*
X26286Y-19860D01*
X26263Y-19847D01*
X26240Y-19840D01*
X26219Y-19838D01*
X26216Y-19838D01*
X26195Y-19843D01*
X26177Y-19853D01*
X26161Y-19869D01*
X26148Y-19889D01*
X26138Y-19914D01*
X26131Y-19942D01*
X26127Y-19975D01*
X26127Y-20007D01*
X26130Y-20045D01*
X26137Y-20079D01*
X26147Y-20108D01*
X26162Y-20135D01*
X26180Y-20159D01*
X26190Y-20170D01*
X26210Y-20188D01*
X26230Y-20202D01*
X26250Y-20211D01*
X26267Y-20217D01*
X26282Y-20219D01*
X26301Y-20221D01*
X26323Y-20221D01*
X26345Y-20220D01*
X26366Y-20217D01*
X26369Y-20216D01*
X26397Y-20211D01*
X26397Y-20287D01*
X26388Y-20289D01*
X26378Y-20290D01*
X26363Y-20291D01*
X26344Y-20292D01*
X26324Y-20293D01*
X26304Y-20293D01*
X26284Y-20293D01*
X26267Y-20292D01*
X26254Y-20291D01*
X26250Y-20291D01*
X26213Y-20281D01*
X26178Y-20265D01*
X26147Y-20244D01*
X26118Y-20218D01*
X26093Y-20186D01*
X26071Y-20148D01*
X26068Y-20144D01*
X26053Y-20109D01*
X26043Y-20073D01*
X26036Y-20033D01*
X26033Y-19990D01*
X26033Y-19979D01*
X26034Y-19948D01*
X26036Y-19921D01*
X26041Y-19898D01*
X26047Y-19876D01*
X26057Y-19854D01*
X26058Y-19851D01*
X26067Y-19835D01*
X26075Y-19822D01*
X26085Y-19810D01*
X26095Y-19801D01*
X26118Y-19782D01*
X26141Y-19768D01*
X26164Y-19760D01*
X26190Y-19756D01*
X26191Y-19756D01*
X26214Y-19756D01*
X26235Y-19759D01*
X26256Y-19765D01*
X26280Y-19775D01*
X26287Y-19779D01*
X26321Y-19800D01*
X26352Y-19827D01*
X26377Y-19855D01*
X26397Y-19881D01*
X26398Y-19825D01*
X26399Y-19769D01*
X26442Y-19768D01*
X26485Y-19767D01*
X26485Y-20128D01*
X26485Y-20489D01*
X26485Y-20489D01*
X26485Y-20489D01*
G37*
G36*
X29902Y-20184D02*
X29901Y-20229D01*
X29900Y-20273D01*
X29867Y-20284D01*
X29836Y-20293D01*
X29809Y-20300D01*
X29782Y-20304D01*
X29754Y-20307D01*
X29730Y-20308D01*
X29711Y-20308D01*
X29692Y-20308D01*
X29675Y-20308D01*
X29662Y-20307D01*
X29659Y-20306D01*
X29619Y-20299D01*
X29583Y-20287D01*
X29551Y-20271D01*
X29524Y-20250D01*
X29501Y-20225D01*
X29483Y-20195D01*
X29482Y-20194D01*
X29473Y-20171D01*
X29467Y-20148D01*
X29464Y-20122D01*
X29464Y-20105D01*
X29466Y-20072D01*
X29474Y-20042D01*
X29487Y-20013D01*
X29507Y-19986D01*
X29517Y-19975D01*
X29525Y-19966D01*
X29534Y-19958D01*
X29543Y-19950D01*
X29555Y-19942D01*
X29570Y-19932D01*
X29587Y-19920D01*
X29609Y-19907D01*
X29635Y-19891D01*
X29642Y-19887D01*
X29676Y-19867D01*
X29704Y-19849D01*
X29728Y-19833D01*
X29748Y-19819D01*
X29764Y-19806D01*
X29776Y-19794D01*
X29785Y-19782D01*
X29792Y-19770D01*
X29796Y-19758D01*
X29798Y-19745D01*
X29799Y-19731D01*
X29799Y-19727D01*
X29798Y-19705D01*
X29793Y-19687D01*
X29785Y-19671D01*
X29771Y-19656D01*
X29750Y-19639D01*
X29724Y-19626D01*
X29695Y-19619D01*
X29662Y-19617D01*
X29648Y-19618D01*
X29603Y-19623D01*
X29561Y-19632D01*
X29541Y-19638D01*
X29529Y-19642D01*
X29519Y-19644D01*
X29513Y-19645D01*
X29512Y-19645D01*
X29512Y-19642D01*
X29511Y-19633D01*
X29511Y-19621D01*
X29511Y-19606D01*
X29511Y-19569D01*
X29520Y-19566D01*
X29539Y-19560D01*
X29563Y-19554D01*
X29591Y-19550D01*
X29620Y-19547D01*
X29649Y-19546D01*
X29676Y-19546D01*
X29697Y-19547D01*
X29732Y-19551D01*
X29762Y-19558D01*
X29787Y-19568D01*
X29810Y-19580D01*
X29831Y-19597D01*
X29841Y-19606D01*
X29862Y-19630D01*
X29877Y-19657D01*
X29888Y-19687D01*
X29893Y-19719D01*
X29893Y-19738D01*
X29890Y-19771D01*
X29882Y-19802D01*
X29867Y-19832D01*
X29846Y-19860D01*
X29836Y-19870D01*
X29825Y-19881D01*
X29814Y-19890D01*
X29802Y-19900D01*
X29788Y-19910D01*
X29771Y-19921D01*
X29750Y-19934D01*
X29724Y-19949D01*
X29720Y-19950D01*
X29685Y-19971D01*
X29654Y-19990D01*
X29629Y-20008D01*
X29608Y-20024D01*
X29591Y-20039D01*
X29578Y-20054D01*
X29569Y-20068D01*
X29562Y-20083D01*
X29558Y-20099D01*
X29556Y-20110D01*
X29557Y-20134D01*
X29563Y-20157D01*
X29574Y-20179D01*
X29589Y-20198D01*
X29591Y-20200D01*
X29606Y-20211D01*
X29626Y-20221D01*
X29649Y-20229D01*
X29674Y-20235D01*
X29698Y-20237D01*
X29702Y-20237D01*
X29730Y-20235D01*
X29762Y-20231D01*
X29795Y-20223D01*
X29830Y-20213D01*
X29863Y-20201D01*
X29873Y-20197D01*
X29902Y-20184D01*
X29902Y-20184D01*
X29902Y-20184D01*
G37*
G36*
X27073Y-20061D02*
X27072Y-20105D01*
X27066Y-20148D01*
X27065Y-20155D01*
X27061Y-20170D01*
X27057Y-20185D01*
X27052Y-20198D01*
X27052Y-20199D01*
X27036Y-20226D01*
X27017Y-20250D01*
X26993Y-20271D01*
X26979Y-20280D01*
X26979Y-20067D01*
X26978Y-20042D01*
X26976Y-20018D01*
X26973Y-19997D01*
X26971Y-19987D01*
X26962Y-19956D01*
X26950Y-19929D01*
X26934Y-19906D01*
X26917Y-19887D01*
X26893Y-19866D01*
X26869Y-19851D01*
X26843Y-19841D01*
X26814Y-19835D01*
X26782Y-19835D01*
X26778Y-19835D01*
X26762Y-19836D01*
X26746Y-19838D01*
X26733Y-19840D01*
X26728Y-19841D01*
X26711Y-19845D01*
X26710Y-19959D01*
X26709Y-20072D01*
X26729Y-20102D01*
X26742Y-20121D01*
X26759Y-20141D01*
X26777Y-20160D01*
X26794Y-20177D01*
X26811Y-20191D01*
X26814Y-20193D01*
X26839Y-20207D01*
X26863Y-20216D01*
X26885Y-20218D01*
X26906Y-20215D01*
X26919Y-20209D01*
X26938Y-20194D01*
X26954Y-20174D01*
X26966Y-20149D01*
X26973Y-20129D01*
X26976Y-20112D01*
X26978Y-20091D01*
X26979Y-20067D01*
X26979Y-20280D01*
X26967Y-20287D01*
X26962Y-20290D01*
X26952Y-20294D01*
X26943Y-20296D01*
X26931Y-20299D01*
X26916Y-20301D01*
X26911Y-20301D01*
X26903Y-20302D01*
X26892Y-20301D01*
X26885Y-20300D01*
X26856Y-20293D01*
X26827Y-20281D01*
X26798Y-20265D01*
X26771Y-20245D01*
X26746Y-20222D01*
X26726Y-20198D01*
X26723Y-20193D01*
X26717Y-20184D01*
X26712Y-20177D01*
X26709Y-20174D01*
X26709Y-20174D01*
X26708Y-20177D01*
X26706Y-20185D01*
X26705Y-20196D01*
X26705Y-20199D01*
X26703Y-20213D01*
X26701Y-20231D01*
X26699Y-20248D01*
X26698Y-20255D01*
X26692Y-20288D01*
X26647Y-20288D01*
X26629Y-20288D01*
X26617Y-20287D01*
X26609Y-20287D01*
X26605Y-20286D01*
X26603Y-20284D01*
X26603Y-20282D01*
X26603Y-20282D01*
X26606Y-20271D01*
X26609Y-20259D01*
X26612Y-20247D01*
X26614Y-20234D01*
X26616Y-20219D01*
X26617Y-20202D01*
X26618Y-20182D01*
X26619Y-20159D01*
X26620Y-20132D01*
X26620Y-20102D01*
X26621Y-20066D01*
X26621Y-20025D01*
X26621Y-19979D01*
X26621Y-19971D01*
X26621Y-19768D01*
X26693Y-19766D01*
X26729Y-19765D01*
X26761Y-19764D01*
X26787Y-19763D01*
X26809Y-19763D01*
X26827Y-19764D01*
X26843Y-19764D01*
X26855Y-19766D01*
X26866Y-19768D01*
X26876Y-19770D01*
X26877Y-19770D01*
X26901Y-19778D01*
X26922Y-19788D01*
X26943Y-19800D01*
X26957Y-19811D01*
X26985Y-19836D01*
X27010Y-19866D01*
X27031Y-19900D01*
X27048Y-19937D01*
X27061Y-19977D01*
X27069Y-20018D01*
X27073Y-20061D01*
X27073Y-20061D01*
X27073Y-20061D01*
G37*
G36*
X27615Y-20005D02*
X27614Y-20049D01*
X27613Y-20060D01*
X27606Y-20102D01*
X27594Y-20141D01*
X27576Y-20177D01*
X27553Y-20209D01*
X27531Y-20233D01*
X27500Y-20258D01*
X27466Y-20277D01*
X27429Y-20290D01*
X27389Y-20299D01*
X27345Y-20301D01*
X27312Y-20300D01*
X27264Y-20294D01*
X27214Y-20282D01*
X27208Y-20281D01*
X27183Y-20273D01*
X27182Y-20231D01*
X27182Y-20214D01*
X27182Y-20203D01*
X27183Y-20195D01*
X27184Y-20192D01*
X27185Y-20191D01*
X27187Y-20191D01*
X27197Y-20195D01*
X27212Y-20199D01*
X27229Y-20204D01*
X27247Y-20209D01*
X27263Y-20214D01*
X27277Y-20217D01*
X27285Y-20219D01*
X27301Y-20220D01*
X27321Y-20221D01*
X27342Y-20221D01*
X27364Y-20220D01*
X27383Y-20218D01*
X27399Y-20215D01*
X27406Y-20213D01*
X27433Y-20200D01*
X27457Y-20182D01*
X27477Y-20160D01*
X27494Y-20131D01*
X27499Y-20122D01*
X27509Y-20097D01*
X27516Y-20074D01*
X27519Y-20050D01*
X27520Y-20024D01*
X27518Y-19987D01*
X27510Y-19953D01*
X27498Y-19922D01*
X27482Y-19895D01*
X27462Y-19871D01*
X27438Y-19853D01*
X27410Y-19838D01*
X27391Y-19832D01*
X27374Y-19829D01*
X27353Y-19828D01*
X27330Y-19828D01*
X27307Y-19829D01*
X27287Y-19832D01*
X27287Y-19832D01*
X27274Y-19836D01*
X27257Y-19840D01*
X27239Y-19846D01*
X27228Y-19850D01*
X27213Y-19855D01*
X27201Y-19860D01*
X27192Y-19863D01*
X27187Y-19864D01*
X27185Y-19865D01*
X27184Y-19863D01*
X27182Y-19858D01*
X27182Y-19850D01*
X27182Y-19838D01*
X27182Y-19825D01*
X27182Y-19784D01*
X27205Y-19777D01*
X27242Y-19768D01*
X27279Y-19761D01*
X27315Y-19757D01*
X27350Y-19755D01*
X27382Y-19756D01*
X27405Y-19759D01*
X27442Y-19770D01*
X27476Y-19784D01*
X27507Y-19805D01*
X27529Y-19824D01*
X27558Y-19855D01*
X27580Y-19888D01*
X27597Y-19925D01*
X27609Y-19964D01*
X27615Y-20005D01*
X27615Y-20005D01*
X27615Y-20005D01*
G37*
G36*
X28790Y-20029D02*
X28790Y-20050D01*
X28790Y-20067D01*
X28789Y-20079D01*
X28788Y-20090D01*
X28785Y-20101D01*
X28783Y-20113D01*
X28782Y-20114D01*
X28769Y-20153D01*
X28751Y-20188D01*
X28729Y-20219D01*
X28703Y-20246D01*
X28698Y-20251D01*
X28696Y-20252D01*
X28696Y-20028D01*
X28696Y-20006D01*
X28696Y-19990D01*
X28695Y-19977D01*
X28694Y-19967D01*
X28692Y-19957D01*
X28689Y-19948D01*
X28689Y-19946D01*
X28677Y-19913D01*
X28661Y-19886D01*
X28642Y-19863D01*
X28619Y-19846D01*
X28607Y-19839D01*
X28596Y-19834D01*
X28585Y-19831D01*
X28574Y-19829D01*
X28559Y-19828D01*
X28556Y-19828D01*
X28526Y-19829D01*
X28500Y-19834D01*
X28476Y-19845D01*
X28456Y-19860D01*
X28445Y-19872D01*
X28428Y-19895D01*
X28414Y-19922D01*
X28405Y-19954D01*
X28399Y-19989D01*
X28397Y-20026D01*
X28398Y-20061D01*
X28404Y-20099D01*
X28414Y-20132D01*
X28428Y-20161D01*
X28445Y-20185D01*
X28466Y-20204D01*
X28489Y-20217D01*
X28512Y-20226D01*
X28536Y-20230D01*
X28562Y-20229D01*
X28572Y-20228D01*
X28600Y-20220D01*
X28624Y-20207D01*
X28646Y-20189D01*
X28664Y-20165D01*
X28674Y-20149D01*
X28681Y-20132D01*
X28687Y-20117D01*
X28691Y-20103D01*
X28694Y-20087D01*
X28695Y-20069D01*
X28696Y-20046D01*
X28696Y-20028D01*
X28696Y-20252D01*
X28672Y-20269D01*
X28641Y-20284D01*
X28607Y-20295D01*
X28571Y-20301D01*
X28534Y-20302D01*
X28516Y-20300D01*
X28479Y-20293D01*
X28445Y-20281D01*
X28413Y-20263D01*
X28385Y-20240D01*
X28360Y-20213D01*
X28340Y-20181D01*
X28323Y-20146D01*
X28311Y-20107D01*
X28310Y-20099D01*
X28307Y-20086D01*
X28305Y-20074D01*
X28304Y-20061D01*
X28304Y-20045D01*
X28304Y-20026D01*
X28305Y-20017D01*
X28306Y-19993D01*
X28307Y-19973D01*
X28309Y-19956D01*
X28313Y-19941D01*
X28318Y-19925D01*
X28324Y-19906D01*
X28325Y-19905D01*
X28338Y-19877D01*
X28356Y-19850D01*
X28377Y-19825D01*
X28400Y-19802D01*
X28424Y-19786D01*
X28448Y-19773D01*
X28472Y-19765D01*
X28499Y-19759D01*
X28529Y-19756D01*
X28536Y-19756D01*
X28572Y-19756D01*
X28604Y-19760D01*
X28633Y-19768D01*
X28660Y-19779D01*
X28675Y-19788D01*
X28704Y-19810D01*
X28729Y-19837D01*
X28751Y-19867D01*
X28768Y-19902D01*
X28782Y-19939D01*
X28784Y-19946D01*
X28786Y-19958D01*
X28788Y-19969D01*
X28789Y-19981D01*
X28790Y-19995D01*
X28790Y-20013D01*
X28790Y-20029D01*
X28790Y-20029D01*
X28790Y-20029D01*
G37*
G36*
X28254Y-19768D02*
X28252Y-19776D01*
X28251Y-19781D01*
X28250Y-19791D01*
X28247Y-19806D01*
X28244Y-19826D01*
X28240Y-19851D01*
X28235Y-19879D01*
X28230Y-19910D01*
X28225Y-19945D01*
X28219Y-19981D01*
X28212Y-20019D01*
X28211Y-20029D01*
X28204Y-20068D01*
X28199Y-20105D01*
X28193Y-20139D01*
X28188Y-20171D01*
X28183Y-20200D01*
X28179Y-20225D01*
X28175Y-20247D01*
X28173Y-20263D01*
X28171Y-20274D01*
X28170Y-20280D01*
X28170Y-20281D01*
X28169Y-20283D01*
X28167Y-20285D01*
X28163Y-20287D01*
X28156Y-20287D01*
X28145Y-20288D01*
X28129Y-20288D01*
X28126Y-20288D01*
X28084Y-20288D01*
X28041Y-20120D01*
X28033Y-20087D01*
X28025Y-20055D01*
X28017Y-20025D01*
X28010Y-19996D01*
X28004Y-19971D01*
X27998Y-19949D01*
X27994Y-19932D01*
X27992Y-19920D01*
X27991Y-19917D01*
X27988Y-19902D01*
X27985Y-19891D01*
X27984Y-19884D01*
X27982Y-19881D01*
X27981Y-19884D01*
X27979Y-19892D01*
X27976Y-19903D01*
X27973Y-19917D01*
X27971Y-19926D01*
X27967Y-19942D01*
X27962Y-19961D01*
X27955Y-19985D01*
X27947Y-20012D01*
X27939Y-20041D01*
X27930Y-20072D01*
X27920Y-20105D01*
X27916Y-20119D01*
X27866Y-20286D01*
X27826Y-20287D01*
X27785Y-20288D01*
X27743Y-20030D01*
X27737Y-19991D01*
X27731Y-19953D01*
X27725Y-19917D01*
X27720Y-19885D01*
X27715Y-19855D01*
X27711Y-19829D01*
X27708Y-19807D01*
X27705Y-19790D01*
X27703Y-19778D01*
X27702Y-19771D01*
X27702Y-19770D01*
X27705Y-19769D01*
X27712Y-19768D01*
X27723Y-19768D01*
X27735Y-19768D01*
X27748Y-19768D01*
X27758Y-19768D01*
X27765Y-19769D01*
X27768Y-19770D01*
X27768Y-19774D01*
X27770Y-19783D01*
X27772Y-19797D01*
X27775Y-19815D01*
X27778Y-19836D01*
X27782Y-19860D01*
X27785Y-19881D01*
X27790Y-19911D01*
X27795Y-19943D01*
X27800Y-19975D01*
X27805Y-20006D01*
X27809Y-20034D01*
X27813Y-20057D01*
X27814Y-20064D01*
X27817Y-20085D01*
X27820Y-20105D01*
X27823Y-20122D01*
X27825Y-20135D01*
X27826Y-20143D01*
X27827Y-20146D01*
X27828Y-20147D01*
X27830Y-20144D01*
X27832Y-20136D01*
X27836Y-20122D01*
X27838Y-20114D01*
X27840Y-20103D01*
X27845Y-20087D01*
X27850Y-20066D01*
X27857Y-20042D01*
X27865Y-20015D01*
X27873Y-19985D01*
X27882Y-19954D01*
X27892Y-19923D01*
X27892Y-19922D01*
X27937Y-19769D01*
X27976Y-19769D01*
X28015Y-19769D01*
X28057Y-19928D01*
X28065Y-19960D01*
X28073Y-19991D01*
X28081Y-20020D01*
X28087Y-20048D01*
X28093Y-20072D01*
X28098Y-20092D01*
X28102Y-20108D01*
X28104Y-20118D01*
X28104Y-20120D01*
X28106Y-20133D01*
X28108Y-20143D01*
X28110Y-20150D01*
X28110Y-20151D01*
X28112Y-20148D01*
X28113Y-20139D01*
X28116Y-20125D01*
X28120Y-20105D01*
X28124Y-20080D01*
X28129Y-20048D01*
X28135Y-20011D01*
X28142Y-19968D01*
X28148Y-19928D01*
X28152Y-19898D01*
X28157Y-19869D01*
X28161Y-19843D01*
X28165Y-19820D01*
X28168Y-19801D01*
X28170Y-19786D01*
X28172Y-19776D01*
X28173Y-19772D01*
X28173Y-19772D01*
X28176Y-19770D01*
X28183Y-19769D01*
X28194Y-19768D01*
X28212Y-19768D01*
X28214Y-19768D01*
X28254Y-19768D01*
X28254Y-19768D01*
X28254Y-19768D01*
G37*
G36*
X29331Y-20288D02*
X29289Y-20288D01*
X29246Y-20288D01*
X29246Y-20136D01*
X29246Y-19985D01*
X29235Y-19966D01*
X29217Y-19938D01*
X29196Y-19912D01*
X29173Y-19890D01*
X29150Y-19870D01*
X29126Y-19854D01*
X29102Y-19843D01*
X29079Y-19836D01*
X29058Y-19834D01*
X29057Y-19834D01*
X29037Y-19839D01*
X29020Y-19850D01*
X29006Y-19865D01*
X28995Y-19883D01*
X28991Y-19898D01*
X28990Y-19906D01*
X28989Y-19919D01*
X28988Y-19938D01*
X28987Y-19963D01*
X28987Y-19994D01*
X28986Y-20031D01*
X28986Y-20073D01*
X28985Y-20101D01*
X28984Y-20288D01*
X28942Y-20288D01*
X28899Y-20288D01*
X28899Y-20115D01*
X28900Y-20069D01*
X28900Y-20028D01*
X28900Y-19993D01*
X28901Y-19962D01*
X28902Y-19936D01*
X28903Y-19914D01*
X28904Y-19895D01*
X28906Y-19879D01*
X28908Y-19865D01*
X28911Y-19854D01*
X28915Y-19844D01*
X28918Y-19834D01*
X28922Y-19827D01*
X28936Y-19806D01*
X28955Y-19788D01*
X28977Y-19773D01*
X29003Y-19763D01*
X29030Y-19756D01*
X29050Y-19755D01*
X29082Y-19758D01*
X29113Y-19767D01*
X29145Y-19782D01*
X29175Y-19802D01*
X29182Y-19808D01*
X29193Y-19817D01*
X29202Y-19827D01*
X29212Y-19837D01*
X29223Y-19851D01*
X29237Y-19868D01*
X29237Y-19869D01*
X29246Y-19879D01*
X29246Y-19824D01*
X29246Y-19768D01*
X29289Y-19768D01*
X29331Y-19768D01*
X29331Y-20028D01*
X29331Y-20288D01*
X29331Y-20288D01*
X29331Y-20288D01*
G37*
M02*
