G04 (created by PCBNEW (22-Jun-2014 BZR 4027)-stable) date Fri 19 Dec 2014 12:55:31 PM EET*
%MOIN*%
G04 Gerber Fmt 3.4, Leading zero omitted, Abs format*
%FSLAX34Y34*%
G01*
G70*
G90*
G04 APERTURE LIST*
%ADD10C,0.00590551*%
%ADD11C,0.0039*%
%ADD12O,0.011X0.0315*%
%ADD13O,0.0315X0.011*%
%ADD14R,0.1969X0.1969*%
%ADD15R,0.035X0.055*%
%ADD16R,0.0709X0.0472*%
%ADD17R,0.0197X0.0236*%
%ADD18R,0.0236X0.0197*%
%ADD19C,0.0453*%
%ADD20R,0.0453X0.0453*%
%ADD21R,0.015X0.05*%
%ADD22R,0.011811X0.023622*%
%ADD23R,0.18X0.06*%
%ADD24R,0.045X0.025*%
%ADD25R,0.0629921X0.0984252*%
%ADD26O,0.0334646X0.0177165*%
%ADD27C,0.026*%
%ADD28C,0.024*%
%ADD29C,0.012*%
%ADD30C,0.008*%
%ADD31C,0.0416142*%
%ADD32C,0.01*%
G04 APERTURE END LIST*
G54D10*
G54D11*
X19409Y-13661D02*
X30472Y-13661D01*
X19409Y-23504D02*
X19646Y-23504D01*
X19409Y-13661D02*
X19409Y-23504D01*
X30472Y-23504D02*
X19646Y-23504D01*
X30472Y-23465D02*
X30472Y-23504D01*
X30472Y-23386D02*
X30472Y-23465D01*
X30472Y-13661D02*
X30472Y-23386D01*
G54D12*
X23406Y-16319D03*
X23603Y-16319D03*
X23210Y-16319D03*
X23013Y-16319D03*
X22620Y-16319D03*
X22817Y-16319D03*
X21636Y-16319D03*
X21439Y-16319D03*
X21832Y-16319D03*
X22029Y-16319D03*
X22422Y-16319D03*
X22225Y-16319D03*
G54D13*
X23878Y-17970D03*
X23878Y-17773D03*
X23878Y-18166D03*
X23878Y-18363D03*
X23878Y-18756D03*
X23878Y-18559D03*
X23878Y-17378D03*
X23878Y-17575D03*
X23878Y-17182D03*
X23878Y-16985D03*
X23878Y-16592D03*
X23878Y-16789D03*
X21162Y-16789D03*
X21162Y-16592D03*
X21162Y-16985D03*
X21162Y-17182D03*
X21162Y-17575D03*
X21162Y-17378D03*
X21162Y-18559D03*
X21162Y-18756D03*
X21162Y-18363D03*
X21162Y-18166D03*
X21162Y-17773D03*
X21162Y-17970D03*
G54D12*
X22225Y-19035D03*
X22422Y-19035D03*
X22029Y-19035D03*
X21832Y-19035D03*
X21439Y-19035D03*
X21636Y-19035D03*
X22817Y-19035D03*
X22620Y-19035D03*
X23013Y-19035D03*
X23210Y-19035D03*
X23603Y-19035D03*
X23406Y-19035D03*
G54D14*
X22520Y-17677D03*
G54D15*
X21987Y-15276D03*
X22737Y-15276D03*
G54D16*
X24252Y-20512D03*
X22678Y-21456D03*
X22678Y-20512D03*
X24252Y-21456D03*
G54D17*
X26041Y-15847D03*
X26041Y-15414D03*
X24741Y-15413D03*
X24741Y-15846D03*
X25966Y-19374D03*
X25966Y-18941D03*
G54D18*
X19822Y-18228D03*
X20255Y-18228D03*
G54D17*
X25572Y-19374D03*
X25572Y-18941D03*
X25607Y-15847D03*
X25607Y-15414D03*
X25179Y-19374D03*
X25179Y-18941D03*
X25174Y-15847D03*
X25174Y-15414D03*
G54D18*
X23799Y-19961D03*
X24232Y-19961D03*
G54D17*
X24300Y-15317D03*
X24300Y-14884D03*
G54D18*
X23209Y-19961D03*
X22776Y-19961D03*
X22145Y-19488D03*
X22578Y-19488D03*
X22798Y-15817D03*
X22365Y-15817D03*
G54D17*
X21496Y-15886D03*
X21496Y-15453D03*
G54D18*
X19940Y-17835D03*
X20373Y-17835D03*
G54D19*
X20433Y-14252D03*
X23582Y-14252D03*
X22795Y-14252D03*
X22007Y-14252D03*
X21220Y-14252D03*
X24370Y-14252D03*
X25157Y-14252D03*
X25945Y-14252D03*
G54D20*
X27519Y-14252D03*
G54D19*
X26732Y-14252D03*
X20433Y-22913D03*
X23582Y-22913D03*
X22795Y-22913D03*
X22007Y-22913D03*
X21220Y-22913D03*
X24370Y-22913D03*
X25157Y-22913D03*
X25945Y-22913D03*
G54D20*
X27519Y-22913D03*
G54D19*
X26732Y-22913D03*
G54D17*
X28386Y-22657D03*
X28386Y-23090D03*
X27874Y-21318D03*
X27874Y-21751D03*
G54D21*
X28986Y-22819D03*
X29242Y-22819D03*
X29498Y-22819D03*
X29754Y-22819D03*
X29754Y-21119D03*
X29498Y-21119D03*
X29242Y-21119D03*
X28986Y-21119D03*
G54D18*
X27893Y-20827D03*
X28326Y-20827D03*
G54D17*
X23800Y-15317D03*
X23800Y-14884D03*
G54D22*
X25249Y-17740D03*
X24993Y-17740D03*
X24737Y-17740D03*
X24737Y-18232D03*
X24993Y-18232D03*
X25249Y-18232D03*
G54D23*
X29394Y-16750D03*
X29394Y-17750D03*
X29394Y-18750D03*
G54D24*
X28450Y-14250D03*
X28450Y-14850D03*
G54D18*
X27333Y-15200D03*
X27766Y-15200D03*
G54D17*
X25200Y-21317D03*
X25200Y-20884D03*
G54D25*
X26350Y-20900D03*
G54D26*
X26920Y-21293D03*
X26920Y-20900D03*
X26920Y-20506D03*
X25779Y-20506D03*
X25779Y-20900D03*
X25779Y-21274D03*
G54D27*
X19800Y-18700D03*
X21063Y-15630D03*
X21614Y-20157D03*
X28386Y-21299D03*
X23113Y-14951D03*
X21811Y-21181D03*
X28386Y-22087D03*
X25829Y-15847D03*
X28150Y-17200D03*
X27600Y-17200D03*
X26950Y-17200D03*
X26300Y-17200D03*
X25700Y-17200D03*
X28150Y-18250D03*
X25700Y-18250D03*
X26300Y-18250D03*
X26950Y-18250D03*
X27600Y-18250D03*
X21693Y-19488D03*
X22100Y-15700D03*
X21991Y-15306D03*
X23504Y-20984D03*
X26710Y-15433D03*
G54D28*
X21262Y-20561D03*
X24050Y-16200D03*
X27350Y-15600D03*
X27500Y-22350D03*
X23585Y-19400D03*
X20750Y-16211D03*
X20475Y-14794D03*
X21006Y-22313D03*
X20770Y-16920D03*
X20770Y-16565D03*
X20987Y-20187D03*
X20455Y-15246D03*
X20554Y-15896D03*
X19963Y-19243D03*
X20101Y-15089D03*
G54D29*
X23878Y-18166D02*
X23966Y-18166D01*
X23966Y-18166D02*
X24163Y-18363D01*
X25779Y-20900D02*
X25216Y-20900D01*
X24550Y-19450D02*
X24550Y-18950D01*
X25050Y-19950D02*
X24550Y-19450D01*
X25050Y-20734D02*
X25050Y-19950D01*
X25216Y-20900D02*
X25050Y-20734D01*
X25966Y-18941D02*
X25572Y-18941D01*
X25572Y-18941D02*
X25179Y-18941D01*
X25179Y-18941D02*
X25170Y-18950D01*
X25170Y-18950D02*
X24550Y-18950D01*
X23878Y-18363D02*
X24163Y-18363D01*
X24163Y-18363D02*
X24213Y-18363D01*
X24550Y-18700D02*
X24550Y-18950D01*
X24213Y-18363D02*
X24550Y-18700D01*
G54D30*
X27519Y-14252D02*
X28448Y-14252D01*
X28448Y-14252D02*
X28450Y-14250D01*
X23878Y-16985D02*
X24115Y-16985D01*
X24300Y-15700D02*
X24300Y-15317D01*
X24500Y-15900D02*
X24300Y-15700D01*
X24500Y-16350D02*
X24500Y-15900D01*
X24200Y-16650D02*
X24500Y-16350D01*
X24200Y-16900D02*
X24200Y-16650D01*
X24115Y-16985D02*
X24200Y-16900D01*
X24300Y-15317D02*
X23800Y-15317D01*
X22737Y-15276D02*
X22788Y-15276D01*
G54D29*
X20255Y-18245D02*
X19800Y-18700D01*
X28386Y-22087D02*
X28386Y-22657D01*
G54D30*
X25829Y-15847D02*
X25607Y-15847D01*
X24569Y-16881D02*
X25174Y-16276D01*
X20724Y-17970D02*
X20466Y-18228D01*
X21162Y-17970D02*
X20724Y-17970D01*
X20466Y-18228D02*
X20255Y-18228D01*
G54D29*
X22520Y-19546D02*
X22578Y-19488D01*
G54D30*
X21496Y-15886D02*
X21319Y-15886D01*
X25174Y-16276D02*
X25174Y-15847D01*
X22788Y-15276D02*
X23113Y-14951D01*
G54D29*
X21811Y-20354D02*
X21811Y-21181D01*
X28386Y-21299D02*
X27893Y-21299D01*
G54D30*
X24727Y-16939D02*
X25607Y-16059D01*
G54D29*
X21614Y-20157D02*
X22007Y-19764D01*
G54D30*
X23210Y-19035D02*
X23210Y-19382D01*
X23210Y-19382D02*
X23104Y-19488D01*
G54D29*
X29498Y-21119D02*
X29242Y-21119D01*
X28566Y-21119D02*
X28386Y-21299D01*
G54D30*
X23878Y-17575D02*
X24446Y-17575D01*
G54D29*
X29242Y-21119D02*
X28986Y-21119D01*
X21614Y-20157D02*
X21811Y-20354D01*
X28326Y-20827D02*
X28386Y-20887D01*
G54D30*
X22798Y-15337D02*
X22737Y-15276D01*
X21319Y-15886D02*
X21063Y-15630D01*
X24367Y-17378D02*
X24569Y-17176D01*
X25607Y-16059D02*
X25607Y-15847D01*
G54D29*
X22007Y-19764D02*
X22362Y-19764D01*
X22362Y-19764D02*
X22520Y-19606D01*
G54D30*
X23878Y-17378D02*
X24367Y-17378D01*
G54D29*
X22520Y-19606D02*
X22520Y-19546D01*
G54D30*
X24446Y-17575D02*
X24727Y-17294D01*
X26041Y-15847D02*
X25829Y-15847D01*
G54D29*
X28986Y-21119D02*
X28566Y-21119D01*
G54D30*
X23104Y-19488D02*
X22578Y-19488D01*
X22029Y-16053D02*
X21862Y-15886D01*
G54D29*
X21063Y-15630D02*
X21063Y-15630D01*
X29754Y-21119D02*
X29498Y-21119D01*
G54D30*
X21862Y-15886D02*
X21496Y-15886D01*
X22029Y-16319D02*
X22029Y-16053D01*
X24727Y-17294D02*
X24727Y-16939D01*
G54D29*
X25174Y-15847D02*
X25607Y-15847D01*
G54D30*
X24569Y-17176D02*
X24569Y-16881D01*
G54D29*
X27893Y-21299D02*
X27874Y-21318D01*
G54D30*
X22817Y-16319D02*
X22817Y-15836D01*
X22798Y-15817D02*
X22798Y-15337D01*
G54D29*
X28386Y-20887D02*
X28386Y-21299D01*
X20255Y-18228D02*
X20255Y-18245D01*
G54D30*
X22817Y-15836D02*
X22798Y-15817D01*
X29394Y-17750D02*
X25259Y-17750D01*
X25259Y-17750D02*
X25249Y-17740D01*
G54D31*
X29394Y-17750D02*
X25400Y-17750D01*
G54D29*
X24993Y-17740D02*
X24993Y-17256D01*
X27600Y-17200D02*
X28150Y-17200D01*
X26300Y-17200D02*
X26950Y-17200D01*
X25050Y-17200D02*
X25700Y-17200D01*
X24993Y-17256D02*
X25050Y-17200D01*
X25682Y-18232D02*
X25700Y-18250D01*
X26300Y-18250D02*
X26950Y-18250D01*
X27600Y-18250D02*
X28200Y-18250D01*
X25249Y-18232D02*
X25682Y-18232D01*
X28200Y-18250D02*
X28150Y-18250D01*
X25179Y-19374D02*
X25572Y-19374D01*
X25572Y-19374D02*
X25966Y-19374D01*
X24252Y-21456D02*
X25061Y-21456D01*
X25061Y-21456D02*
X25200Y-21317D01*
G54D30*
X25249Y-18232D02*
X24993Y-18232D01*
X24993Y-18232D02*
X24993Y-17740D01*
G54D29*
X22620Y-16319D02*
X22620Y-16072D01*
X26060Y-15433D02*
X26710Y-15433D01*
X22620Y-16072D02*
X22365Y-15817D01*
X22620Y-16319D02*
X22620Y-17577D01*
X22620Y-17577D02*
X22520Y-17677D01*
X22100Y-15700D02*
X21987Y-15587D01*
X22217Y-15817D02*
X22100Y-15700D01*
X21987Y-15587D02*
X21987Y-15276D01*
X22365Y-15817D02*
X22217Y-15817D01*
G54D30*
X21991Y-15306D02*
X21987Y-15302D01*
X21987Y-15302D02*
X21987Y-15276D01*
G54D29*
X19803Y-14882D02*
X19803Y-17698D01*
X23504Y-20984D02*
X23504Y-20472D01*
X29764Y-20354D02*
X28032Y-20354D01*
X20433Y-14252D02*
X21378Y-15197D01*
X20433Y-14252D02*
X19803Y-14882D01*
X21378Y-15197D02*
X21496Y-15315D01*
X23504Y-19961D02*
X23209Y-19961D01*
G54D30*
X23799Y-19961D02*
X23504Y-19961D01*
G54D29*
X28032Y-20354D02*
X27893Y-20493D01*
X30055Y-22819D02*
X30118Y-22756D01*
X30118Y-20708D02*
X29764Y-20354D01*
X22145Y-19488D02*
X21693Y-19488D01*
X23504Y-19961D02*
X23504Y-20472D01*
X21908Y-15197D02*
X21378Y-15197D01*
X21987Y-15276D02*
X21908Y-15197D01*
X19822Y-18228D02*
X19940Y-18110D01*
X30118Y-22756D02*
X30118Y-20708D01*
X27893Y-20493D02*
X27893Y-20827D01*
X29754Y-22819D02*
X30055Y-22819D01*
X21496Y-15315D02*
X21496Y-15453D01*
X26041Y-15414D02*
X26060Y-15433D01*
X19803Y-17698D02*
X19940Y-17835D01*
X19940Y-18110D02*
X19940Y-17835D01*
G54D30*
X21321Y-20502D02*
X21321Y-19153D01*
X21321Y-19153D02*
X21439Y-19035D01*
X21262Y-20561D02*
X21321Y-20502D01*
X23878Y-17773D02*
X24704Y-17773D01*
X24704Y-17773D02*
X24737Y-17740D01*
X28450Y-14850D02*
X28450Y-14950D01*
X28200Y-15200D02*
X27766Y-15200D01*
X28450Y-14950D02*
X28200Y-15200D01*
X27333Y-15200D02*
X27333Y-15583D01*
X23931Y-16319D02*
X23603Y-16319D01*
X24050Y-16200D02*
X23931Y-16319D01*
X27333Y-15583D02*
X27350Y-15600D01*
X23878Y-17970D02*
X24330Y-17970D01*
X24592Y-18232D02*
X24737Y-18232D01*
X24330Y-17970D02*
X24592Y-18232D01*
X26920Y-21293D02*
X26920Y-21770D01*
X26920Y-21770D02*
X27500Y-22350D01*
X26732Y-22913D02*
X27126Y-23307D01*
X28715Y-23090D02*
X28986Y-22819D01*
X21162Y-18363D02*
X20843Y-18363D01*
X27126Y-23307D02*
X28169Y-23307D01*
X20843Y-18363D02*
X20475Y-18731D01*
X25936Y-22117D02*
X26732Y-22913D01*
X20475Y-18731D02*
X20475Y-20586D01*
X28169Y-23307D02*
X28386Y-23090D01*
X28386Y-23090D02*
X28715Y-23090D01*
X22006Y-22117D02*
X25936Y-22117D01*
X20475Y-20586D02*
X22006Y-22117D01*
X23603Y-19382D02*
X23585Y-19400D01*
X23603Y-19035D02*
X23603Y-19382D01*
X25750Y-21920D02*
X25750Y-21303D01*
X25750Y-21303D02*
X25779Y-21274D01*
X29242Y-22274D02*
X28719Y-21751D01*
X27874Y-21751D02*
X27874Y-22558D01*
X28719Y-21751D02*
X27874Y-21751D01*
X21162Y-18559D02*
X20883Y-18559D01*
X29242Y-22819D02*
X29242Y-22274D01*
X22084Y-21920D02*
X25600Y-21920D01*
X25600Y-21920D02*
X25750Y-21920D01*
X25750Y-21920D02*
X26526Y-21920D01*
X20672Y-20508D02*
X22084Y-21920D01*
X20672Y-18770D02*
X20672Y-20508D01*
X20883Y-18559D02*
X20672Y-18770D01*
X26526Y-21920D02*
X27519Y-22913D01*
X27874Y-22558D02*
X27519Y-22913D01*
X25345Y-22313D02*
X25945Y-22913D01*
X20278Y-18652D02*
X20278Y-20665D01*
X21162Y-18166D02*
X20764Y-18166D01*
X20764Y-18166D02*
X20278Y-18652D01*
X21926Y-22313D02*
X25345Y-22313D01*
X20278Y-20665D02*
X21926Y-22313D01*
X20435Y-17773D02*
X20373Y-17835D01*
X21162Y-17773D02*
X20435Y-17773D01*
X20750Y-16211D02*
X20789Y-16250D01*
X20820Y-16250D02*
X21162Y-16592D01*
X20789Y-16250D02*
X20820Y-16250D01*
X20731Y-15699D02*
X20731Y-15050D01*
X20731Y-15050D02*
X20475Y-14794D01*
X21351Y-16319D02*
X20731Y-15699D01*
X21439Y-16319D02*
X21351Y-16319D01*
X21459Y-22491D02*
X21881Y-22913D01*
X21184Y-22491D02*
X21459Y-22491D01*
X20835Y-16985D02*
X20770Y-16920D01*
X21006Y-22313D02*
X21184Y-22491D01*
X21881Y-22913D02*
X22007Y-22913D01*
X21162Y-16985D02*
X20835Y-16985D01*
X24370Y-14252D02*
X24352Y-14252D01*
X23013Y-15987D02*
X23013Y-16319D01*
X23365Y-15634D02*
X23013Y-15987D01*
X23365Y-14765D02*
X23365Y-15634D01*
X23200Y-14600D02*
X23365Y-14765D01*
X23200Y-14100D02*
X23200Y-14600D01*
X23400Y-13900D02*
X23200Y-14100D01*
X24000Y-13900D02*
X23400Y-13900D01*
X24352Y-14252D02*
X24000Y-13900D01*
X24370Y-14252D02*
X24248Y-14252D01*
X23800Y-14700D02*
X23800Y-14884D01*
X24248Y-14252D02*
X23800Y-14700D01*
X24287Y-17182D02*
X24392Y-17077D01*
X24392Y-17077D02*
X24392Y-16802D01*
X23878Y-17182D02*
X24287Y-17182D01*
X24741Y-16453D02*
X24741Y-15846D01*
X24392Y-16802D02*
X24741Y-16453D01*
X23210Y-16074D02*
X23526Y-15758D01*
X23526Y-15758D02*
X23526Y-14308D01*
X23526Y-14308D02*
X23582Y-14252D01*
X23210Y-16319D02*
X23210Y-16074D01*
X24063Y-18559D02*
X24176Y-18672D01*
X24176Y-18672D02*
X24176Y-19905D01*
X23878Y-18559D02*
X24063Y-18559D01*
X24176Y-19905D02*
X24232Y-19961D01*
X24232Y-20492D02*
X24252Y-20512D01*
X24232Y-19961D02*
X24232Y-20492D01*
X22876Y-19676D02*
X22776Y-19776D01*
X22519Y-21456D02*
X22678Y-21456D01*
X22126Y-20118D02*
X22126Y-21063D01*
X23878Y-18756D02*
X23878Y-19501D01*
X22776Y-19961D02*
X22283Y-19961D01*
X22776Y-19776D02*
X22776Y-19961D01*
X23878Y-19501D02*
X23703Y-19676D01*
X23703Y-19676D02*
X22876Y-19676D01*
X22283Y-19961D02*
X22126Y-20118D01*
X22126Y-21063D02*
X22519Y-21456D01*
X20994Y-16789D02*
X20770Y-16565D01*
X21162Y-16789D02*
X20994Y-16789D01*
X20987Y-20187D02*
X21026Y-20148D01*
X21026Y-20148D02*
X21026Y-18892D01*
X21026Y-18892D02*
X21162Y-18756D01*
X20455Y-15246D02*
X20239Y-15462D01*
X20239Y-17118D02*
X20499Y-17378D01*
X20239Y-15462D02*
X20239Y-17118D01*
X20499Y-17378D02*
X21162Y-17378D01*
X20438Y-17040D02*
X20438Y-16012D01*
X21774Y-22510D02*
X24754Y-22510D01*
X19963Y-20699D02*
X21774Y-22510D01*
X20580Y-17182D02*
X20438Y-17040D01*
X21162Y-17182D02*
X20580Y-17182D01*
X24754Y-22510D02*
X25157Y-22913D01*
X19963Y-19243D02*
X19963Y-20699D01*
X20438Y-16012D02*
X20554Y-15896D01*
X20401Y-17575D02*
X20061Y-17235D01*
X20061Y-17235D02*
X20061Y-15129D01*
X21162Y-17575D02*
X20401Y-17575D01*
X20061Y-15129D02*
X20101Y-15089D01*
G54D10*
G36*
X19879Y-18277D02*
X19872Y-18277D01*
X19872Y-18285D01*
X19772Y-18285D01*
X19772Y-18277D01*
X19764Y-18277D01*
X19764Y-18180D01*
X19772Y-18183D01*
X19827Y-18183D01*
X19872Y-18139D01*
X19872Y-18178D01*
X19879Y-18178D01*
X19879Y-18277D01*
X19879Y-18277D01*
G37*
G54D32*
X19879Y-18277D02*
X19872Y-18277D01*
X19872Y-18285D01*
X19772Y-18285D01*
X19772Y-18277D01*
X19764Y-18277D01*
X19764Y-18180D01*
X19772Y-18183D01*
X19827Y-18183D01*
X19872Y-18139D01*
X19872Y-18178D01*
X19879Y-18178D01*
X19879Y-18277D01*
G54D10*
G36*
X22202Y-19537D02*
X22195Y-19537D01*
X22195Y-19545D01*
X22095Y-19545D01*
X22095Y-19537D01*
X21839Y-19537D01*
X21777Y-19599D01*
X21777Y-19636D01*
X21803Y-19699D01*
X21605Y-19896D01*
X21562Y-19896D01*
X21491Y-19926D01*
X21491Y-19316D01*
X21509Y-19313D01*
X21537Y-19294D01*
X21565Y-19313D01*
X21636Y-19327D01*
X21706Y-19313D01*
X21734Y-19294D01*
X21761Y-19313D01*
X21786Y-19317D01*
X21777Y-19339D01*
X21777Y-19376D01*
X21839Y-19438D01*
X22095Y-19438D01*
X22095Y-19430D01*
X22195Y-19430D01*
X22195Y-19438D01*
X22202Y-19438D01*
X22202Y-19537D01*
X22202Y-19537D01*
G37*
G54D32*
X22202Y-19537D02*
X22195Y-19537D01*
X22195Y-19545D01*
X22095Y-19545D01*
X22095Y-19537D01*
X21839Y-19537D01*
X21777Y-19599D01*
X21777Y-19636D01*
X21803Y-19699D01*
X21605Y-19896D01*
X21562Y-19896D01*
X21491Y-19926D01*
X21491Y-19316D01*
X21509Y-19313D01*
X21537Y-19294D01*
X21565Y-19313D01*
X21636Y-19327D01*
X21706Y-19313D01*
X21734Y-19294D01*
X21761Y-19313D01*
X21786Y-19317D01*
X21777Y-19339D01*
X21777Y-19376D01*
X21839Y-19438D01*
X22095Y-19438D01*
X22095Y-19430D01*
X22195Y-19430D01*
X22195Y-19438D01*
X22202Y-19438D01*
X22202Y-19537D01*
G54D10*
G36*
X22422Y-15866D02*
X22415Y-15866D01*
X22415Y-15874D01*
X22412Y-15874D01*
X22315Y-15874D01*
X22315Y-15866D01*
X22307Y-15866D01*
X22307Y-15767D01*
X22315Y-15767D01*
X22315Y-15759D01*
X22412Y-15759D01*
X22415Y-15759D01*
X22415Y-15767D01*
X22422Y-15767D01*
X22422Y-15866D01*
X22422Y-15866D01*
G37*
G54D32*
X22422Y-15866D02*
X22415Y-15866D01*
X22415Y-15874D01*
X22412Y-15874D01*
X22315Y-15874D01*
X22315Y-15866D01*
X22307Y-15866D01*
X22307Y-15767D01*
X22315Y-15767D01*
X22315Y-15759D01*
X22412Y-15759D01*
X22415Y-15759D01*
X22415Y-15767D01*
X22422Y-15767D01*
X22422Y-15866D01*
G54D10*
G36*
X22577Y-17727D02*
X22570Y-17727D01*
X22570Y-17734D01*
X22470Y-17734D01*
X22470Y-17727D01*
X22462Y-17727D01*
X22462Y-17627D01*
X22470Y-17627D01*
X22470Y-17619D01*
X22570Y-17619D01*
X22570Y-17627D01*
X22577Y-17627D01*
X22577Y-17727D01*
X22577Y-17727D01*
G37*
G54D32*
X22577Y-17727D02*
X22570Y-17727D01*
X22570Y-17734D01*
X22470Y-17734D01*
X22470Y-17727D01*
X22462Y-17727D01*
X22462Y-17627D01*
X22470Y-17627D01*
X22470Y-17619D01*
X22570Y-17619D01*
X22570Y-17627D01*
X22577Y-17627D01*
X22577Y-17727D01*
G54D10*
G36*
X22633Y-16376D02*
X22606Y-16376D01*
X22606Y-16261D01*
X22633Y-16261D01*
X22633Y-16376D01*
X22633Y-16376D01*
G37*
G54D32*
X22633Y-16376D02*
X22606Y-16376D01*
X22606Y-16261D01*
X22633Y-16261D01*
X22633Y-16376D01*
G54D10*
G36*
X23229Y-13830D02*
X23079Y-13979D01*
X23058Y-14011D01*
X22997Y-13949D01*
X22866Y-13895D01*
X22724Y-13895D01*
X22593Y-13949D01*
X22492Y-14049D01*
X22438Y-14180D01*
X22438Y-14322D01*
X22492Y-14453D01*
X22592Y-14554D01*
X22723Y-14608D01*
X22865Y-14608D01*
X22996Y-14554D01*
X23030Y-14521D01*
X23030Y-14600D01*
X23042Y-14665D01*
X23060Y-14691D01*
X22965Y-14730D01*
X22892Y-14803D01*
X22864Y-14870D01*
X22536Y-14870D01*
X22488Y-14890D01*
X22451Y-14927D01*
X22432Y-14975D01*
X22431Y-15026D01*
X22431Y-15514D01*
X22415Y-15530D01*
X22415Y-15468D01*
X22412Y-15468D01*
X22412Y-15050D01*
X22411Y-14951D01*
X22373Y-14859D01*
X22363Y-14848D01*
X22363Y-14181D01*
X22309Y-14050D01*
X22209Y-13949D01*
X22078Y-13895D01*
X21936Y-13895D01*
X21805Y-13949D01*
X21704Y-14049D01*
X21650Y-14180D01*
X21650Y-14322D01*
X21704Y-14453D01*
X21804Y-14554D01*
X21935Y-14608D01*
X22077Y-14608D01*
X22208Y-14554D01*
X22309Y-14454D01*
X22363Y-14323D01*
X22363Y-14181D01*
X22363Y-14848D01*
X22303Y-14788D01*
X22211Y-14750D01*
X22099Y-14751D01*
X22037Y-14813D01*
X22037Y-15226D01*
X22349Y-15226D01*
X22412Y-15163D01*
X22412Y-15050D01*
X22412Y-15468D01*
X22412Y-15468D01*
X22412Y-15388D01*
X22349Y-15326D01*
X22037Y-15326D01*
X22037Y-15333D01*
X21937Y-15333D01*
X21937Y-15326D01*
X21929Y-15326D01*
X21929Y-15226D01*
X21937Y-15226D01*
X21937Y-14813D01*
X21874Y-14751D01*
X21762Y-14750D01*
X21670Y-14788D01*
X21600Y-14859D01*
X21576Y-14916D01*
X21576Y-14181D01*
X21522Y-14050D01*
X21422Y-13949D01*
X21291Y-13895D01*
X21149Y-13895D01*
X21018Y-13949D01*
X20917Y-14049D01*
X20894Y-14107D01*
X20853Y-14008D01*
X20765Y-13990D01*
X20503Y-14252D01*
X20765Y-14513D01*
X20853Y-14495D01*
X20890Y-14387D01*
X20917Y-14453D01*
X21017Y-14554D01*
X21148Y-14608D01*
X21290Y-14608D01*
X21421Y-14554D01*
X21522Y-14454D01*
X21576Y-14323D01*
X21576Y-14181D01*
X21576Y-14916D01*
X21562Y-14951D01*
X21561Y-15050D01*
X21561Y-15084D01*
X21607Y-15085D01*
X21607Y-15085D01*
X21561Y-15084D01*
X21561Y-15130D01*
X21545Y-15147D01*
X21545Y-15403D01*
X21553Y-15403D01*
X21553Y-15503D01*
X21545Y-15503D01*
X21545Y-15510D01*
X21446Y-15510D01*
X21446Y-15503D01*
X21438Y-15503D01*
X21438Y-15403D01*
X21446Y-15403D01*
X21446Y-15147D01*
X21384Y-15085D01*
X21347Y-15085D01*
X21255Y-15123D01*
X21185Y-15193D01*
X21147Y-15285D01*
X21147Y-15340D01*
X21209Y-15402D01*
X21194Y-15402D01*
X21114Y-15370D01*
X21011Y-15369D01*
X20915Y-15409D01*
X20901Y-15424D01*
X20901Y-15050D01*
X20888Y-14984D01*
X20851Y-14929D01*
X20724Y-14803D01*
X20725Y-14744D01*
X20687Y-14652D01*
X20681Y-14647D01*
X20694Y-14584D01*
X20433Y-14322D01*
X20362Y-14393D01*
X20362Y-14252D01*
X20100Y-13990D01*
X20012Y-14008D01*
X19951Y-14187D01*
X19963Y-14376D01*
X20012Y-14495D01*
X20100Y-14513D01*
X20362Y-14252D01*
X20362Y-14393D01*
X20171Y-14584D01*
X20189Y-14672D01*
X20246Y-14691D01*
X20225Y-14744D01*
X20224Y-14843D01*
X20238Y-14875D01*
X20150Y-14839D01*
X20051Y-14838D01*
X19959Y-14876D01*
X19889Y-14947D01*
X19851Y-15039D01*
X19850Y-15138D01*
X19888Y-15230D01*
X19891Y-15232D01*
X19891Y-17235D01*
X19903Y-17300D01*
X19940Y-17355D01*
X20072Y-17486D01*
X20052Y-17486D01*
X19990Y-17549D01*
X19990Y-17785D01*
X19997Y-17785D01*
X19997Y-17882D01*
X19989Y-17879D01*
X19934Y-17879D01*
X19890Y-17924D01*
X19890Y-17884D01*
X19882Y-17884D01*
X19882Y-17785D01*
X19890Y-17785D01*
X19890Y-17549D01*
X19827Y-17486D01*
X19772Y-17486D01*
X19680Y-17524D01*
X19610Y-17594D01*
X19578Y-17672D01*
X19578Y-13830D01*
X20193Y-13830D01*
X20189Y-13831D01*
X20171Y-13919D01*
X20433Y-14181D01*
X20694Y-13919D01*
X20676Y-13831D01*
X20671Y-13830D01*
X23229Y-13830D01*
X23229Y-13830D01*
G37*
G54D32*
X23229Y-13830D02*
X23079Y-13979D01*
X23058Y-14011D01*
X22997Y-13949D01*
X22866Y-13895D01*
X22724Y-13895D01*
X22593Y-13949D01*
X22492Y-14049D01*
X22438Y-14180D01*
X22438Y-14322D01*
X22492Y-14453D01*
X22592Y-14554D01*
X22723Y-14608D01*
X22865Y-14608D01*
X22996Y-14554D01*
X23030Y-14521D01*
X23030Y-14600D01*
X23042Y-14665D01*
X23060Y-14691D01*
X22965Y-14730D01*
X22892Y-14803D01*
X22864Y-14870D01*
X22536Y-14870D01*
X22488Y-14890D01*
X22451Y-14927D01*
X22432Y-14975D01*
X22431Y-15026D01*
X22431Y-15514D01*
X22415Y-15530D01*
X22415Y-15468D01*
X22412Y-15468D01*
X22412Y-15050D01*
X22411Y-14951D01*
X22373Y-14859D01*
X22363Y-14848D01*
X22363Y-14181D01*
X22309Y-14050D01*
X22209Y-13949D01*
X22078Y-13895D01*
X21936Y-13895D01*
X21805Y-13949D01*
X21704Y-14049D01*
X21650Y-14180D01*
X21650Y-14322D01*
X21704Y-14453D01*
X21804Y-14554D01*
X21935Y-14608D01*
X22077Y-14608D01*
X22208Y-14554D01*
X22309Y-14454D01*
X22363Y-14323D01*
X22363Y-14181D01*
X22363Y-14848D01*
X22303Y-14788D01*
X22211Y-14750D01*
X22099Y-14751D01*
X22037Y-14813D01*
X22037Y-15226D01*
X22349Y-15226D01*
X22412Y-15163D01*
X22412Y-15050D01*
X22412Y-15468D01*
X22412Y-15468D01*
X22412Y-15388D01*
X22349Y-15326D01*
X22037Y-15326D01*
X22037Y-15333D01*
X21937Y-15333D01*
X21937Y-15326D01*
X21929Y-15326D01*
X21929Y-15226D01*
X21937Y-15226D01*
X21937Y-14813D01*
X21874Y-14751D01*
X21762Y-14750D01*
X21670Y-14788D01*
X21600Y-14859D01*
X21576Y-14916D01*
X21576Y-14181D01*
X21522Y-14050D01*
X21422Y-13949D01*
X21291Y-13895D01*
X21149Y-13895D01*
X21018Y-13949D01*
X20917Y-14049D01*
X20894Y-14107D01*
X20853Y-14008D01*
X20765Y-13990D01*
X20503Y-14252D01*
X20765Y-14513D01*
X20853Y-14495D01*
X20890Y-14387D01*
X20917Y-14453D01*
X21017Y-14554D01*
X21148Y-14608D01*
X21290Y-14608D01*
X21421Y-14554D01*
X21522Y-14454D01*
X21576Y-14323D01*
X21576Y-14181D01*
X21576Y-14916D01*
X21562Y-14951D01*
X21561Y-15050D01*
X21561Y-15084D01*
X21607Y-15085D01*
X21607Y-15085D01*
X21561Y-15084D01*
X21561Y-15130D01*
X21545Y-15147D01*
X21545Y-15403D01*
X21553Y-15403D01*
X21553Y-15503D01*
X21545Y-15503D01*
X21545Y-15510D01*
X21446Y-15510D01*
X21446Y-15503D01*
X21438Y-15503D01*
X21438Y-15403D01*
X21446Y-15403D01*
X21446Y-15147D01*
X21384Y-15085D01*
X21347Y-15085D01*
X21255Y-15123D01*
X21185Y-15193D01*
X21147Y-15285D01*
X21147Y-15340D01*
X21209Y-15402D01*
X21194Y-15402D01*
X21114Y-15370D01*
X21011Y-15369D01*
X20915Y-15409D01*
X20901Y-15424D01*
X20901Y-15050D01*
X20888Y-14984D01*
X20851Y-14929D01*
X20724Y-14803D01*
X20725Y-14744D01*
X20687Y-14652D01*
X20681Y-14647D01*
X20694Y-14584D01*
X20433Y-14322D01*
X20362Y-14393D01*
X20362Y-14252D01*
X20100Y-13990D01*
X20012Y-14008D01*
X19951Y-14187D01*
X19963Y-14376D01*
X20012Y-14495D01*
X20100Y-14513D01*
X20362Y-14252D01*
X20362Y-14393D01*
X20171Y-14584D01*
X20189Y-14672D01*
X20246Y-14691D01*
X20225Y-14744D01*
X20224Y-14843D01*
X20238Y-14875D01*
X20150Y-14839D01*
X20051Y-14838D01*
X19959Y-14876D01*
X19889Y-14947D01*
X19851Y-15039D01*
X19850Y-15138D01*
X19888Y-15230D01*
X19891Y-15232D01*
X19891Y-17235D01*
X19903Y-17300D01*
X19940Y-17355D01*
X20072Y-17486D01*
X20052Y-17486D01*
X19990Y-17549D01*
X19990Y-17785D01*
X19997Y-17785D01*
X19997Y-17882D01*
X19989Y-17879D01*
X19934Y-17879D01*
X19890Y-17924D01*
X19890Y-17884D01*
X19882Y-17884D01*
X19882Y-17785D01*
X19890Y-17785D01*
X19890Y-17549D01*
X19827Y-17486D01*
X19772Y-17486D01*
X19680Y-17524D01*
X19610Y-17594D01*
X19578Y-17672D01*
X19578Y-13830D01*
X20193Y-13830D01*
X20189Y-13831D01*
X20171Y-13919D01*
X20433Y-14181D01*
X20694Y-13919D01*
X20676Y-13831D01*
X20671Y-13830D01*
X23229Y-13830D01*
G54D10*
G36*
X23856Y-20010D02*
X23849Y-20010D01*
X23849Y-20018D01*
X23749Y-20018D01*
X23749Y-20010D01*
X23577Y-20010D01*
X23514Y-20010D01*
X23493Y-20010D01*
X23430Y-20010D01*
X23259Y-20010D01*
X23259Y-20018D01*
X23159Y-20018D01*
X23159Y-20010D01*
X23151Y-20010D01*
X23151Y-19911D01*
X23159Y-19911D01*
X23159Y-19903D01*
X23259Y-19903D01*
X23259Y-19911D01*
X23430Y-19911D01*
X23493Y-19911D01*
X23514Y-19911D01*
X23577Y-19911D01*
X23749Y-19911D01*
X23749Y-19903D01*
X23849Y-19903D01*
X23849Y-19911D01*
X23856Y-19911D01*
X23856Y-20010D01*
X23856Y-20010D01*
G37*
G54D32*
X23856Y-20010D02*
X23849Y-20010D01*
X23849Y-20018D01*
X23749Y-20018D01*
X23749Y-20010D01*
X23577Y-20010D01*
X23514Y-20010D01*
X23493Y-20010D01*
X23430Y-20010D01*
X23259Y-20010D01*
X23259Y-20018D01*
X23159Y-20018D01*
X23159Y-20010D01*
X23151Y-20010D01*
X23151Y-19911D01*
X23159Y-19911D01*
X23159Y-19903D01*
X23259Y-19903D01*
X23259Y-19911D01*
X23430Y-19911D01*
X23493Y-19911D01*
X23514Y-19911D01*
X23577Y-19911D01*
X23749Y-19911D01*
X23749Y-19903D01*
X23849Y-19903D01*
X23849Y-19911D01*
X23856Y-19911D01*
X23856Y-20010D01*
G54D10*
G36*
X24972Y-20981D02*
X24959Y-20987D01*
X24889Y-21057D01*
X24851Y-21149D01*
X24851Y-21158D01*
X24818Y-21078D01*
X24747Y-21007D01*
X24656Y-20969D01*
X24364Y-20970D01*
X24302Y-21032D01*
X24302Y-21406D01*
X24309Y-21406D01*
X24309Y-21506D01*
X24302Y-21506D01*
X24302Y-21513D01*
X24202Y-21513D01*
X24202Y-21506D01*
X24202Y-21406D01*
X24202Y-21032D01*
X24139Y-20970D01*
X23847Y-20969D01*
X23756Y-21007D01*
X23685Y-21078D01*
X23647Y-21170D01*
X23647Y-21269D01*
X23647Y-21343D01*
X23710Y-21406D01*
X24202Y-21406D01*
X24202Y-21506D01*
X23710Y-21506D01*
X23647Y-21568D01*
X23647Y-21642D01*
X23647Y-21741D01*
X23650Y-21750D01*
X23282Y-21750D01*
X23282Y-20698D01*
X23282Y-20624D01*
X23220Y-20562D01*
X22728Y-20562D01*
X22728Y-20935D01*
X22790Y-20998D01*
X23082Y-20998D01*
X23173Y-20960D01*
X23244Y-20889D01*
X23282Y-20797D01*
X23282Y-20698D01*
X23282Y-21750D01*
X23147Y-21750D01*
X23161Y-21717D01*
X23161Y-21666D01*
X23161Y-21194D01*
X23141Y-21147D01*
X23105Y-21110D01*
X23058Y-21091D01*
X23007Y-21091D01*
X22394Y-21091D01*
X22301Y-20998D01*
X22565Y-20998D01*
X22628Y-20935D01*
X22628Y-20562D01*
X22620Y-20562D01*
X22620Y-20462D01*
X22628Y-20462D01*
X22628Y-20454D01*
X22728Y-20454D01*
X22728Y-20462D01*
X23220Y-20462D01*
X23282Y-20399D01*
X23282Y-20325D01*
X23282Y-20270D01*
X23321Y-20309D01*
X23376Y-20309D01*
X23468Y-20271D01*
X23504Y-20236D01*
X23539Y-20271D01*
X23631Y-20309D01*
X23686Y-20309D01*
X23748Y-20247D01*
X23748Y-20309D01*
X23768Y-20309D01*
X23768Y-20773D01*
X23788Y-20820D01*
X23824Y-20857D01*
X23871Y-20876D01*
X23922Y-20876D01*
X24631Y-20876D01*
X24679Y-20857D01*
X24715Y-20821D01*
X24735Y-20773D01*
X24735Y-20722D01*
X24735Y-20250D01*
X24715Y-20203D01*
X24679Y-20166D01*
X24632Y-20147D01*
X24581Y-20147D01*
X24444Y-20147D01*
X24459Y-20132D01*
X24478Y-20085D01*
X24478Y-20034D01*
X24478Y-19837D01*
X24459Y-19789D01*
X24423Y-19753D01*
X24375Y-19733D01*
X24346Y-19733D01*
X24346Y-18764D01*
X24360Y-18778D01*
X24360Y-18950D01*
X24360Y-19450D01*
X24374Y-19522D01*
X24415Y-19584D01*
X24860Y-20028D01*
X24860Y-20734D01*
X24874Y-20806D01*
X24915Y-20868D01*
X24972Y-20925D01*
X24972Y-20981D01*
X24972Y-20981D01*
G37*
G54D32*
X24972Y-20981D02*
X24959Y-20987D01*
X24889Y-21057D01*
X24851Y-21149D01*
X24851Y-21158D01*
X24818Y-21078D01*
X24747Y-21007D01*
X24656Y-20969D01*
X24364Y-20970D01*
X24302Y-21032D01*
X24302Y-21406D01*
X24309Y-21406D01*
X24309Y-21506D01*
X24302Y-21506D01*
X24302Y-21513D01*
X24202Y-21513D01*
X24202Y-21506D01*
X24202Y-21406D01*
X24202Y-21032D01*
X24139Y-20970D01*
X23847Y-20969D01*
X23756Y-21007D01*
X23685Y-21078D01*
X23647Y-21170D01*
X23647Y-21269D01*
X23647Y-21343D01*
X23710Y-21406D01*
X24202Y-21406D01*
X24202Y-21506D01*
X23710Y-21506D01*
X23647Y-21568D01*
X23647Y-21642D01*
X23647Y-21741D01*
X23650Y-21750D01*
X23282Y-21750D01*
X23282Y-20698D01*
X23282Y-20624D01*
X23220Y-20562D01*
X22728Y-20562D01*
X22728Y-20935D01*
X22790Y-20998D01*
X23082Y-20998D01*
X23173Y-20960D01*
X23244Y-20889D01*
X23282Y-20797D01*
X23282Y-20698D01*
X23282Y-21750D01*
X23147Y-21750D01*
X23161Y-21717D01*
X23161Y-21666D01*
X23161Y-21194D01*
X23141Y-21147D01*
X23105Y-21110D01*
X23058Y-21091D01*
X23007Y-21091D01*
X22394Y-21091D01*
X22301Y-20998D01*
X22565Y-20998D01*
X22628Y-20935D01*
X22628Y-20562D01*
X22620Y-20562D01*
X22620Y-20462D01*
X22628Y-20462D01*
X22628Y-20454D01*
X22728Y-20454D01*
X22728Y-20462D01*
X23220Y-20462D01*
X23282Y-20399D01*
X23282Y-20325D01*
X23282Y-20270D01*
X23321Y-20309D01*
X23376Y-20309D01*
X23468Y-20271D01*
X23504Y-20236D01*
X23539Y-20271D01*
X23631Y-20309D01*
X23686Y-20309D01*
X23748Y-20247D01*
X23748Y-20309D01*
X23768Y-20309D01*
X23768Y-20773D01*
X23788Y-20820D01*
X23824Y-20857D01*
X23871Y-20876D01*
X23922Y-20876D01*
X24631Y-20876D01*
X24679Y-20857D01*
X24715Y-20821D01*
X24735Y-20773D01*
X24735Y-20722D01*
X24735Y-20250D01*
X24715Y-20203D01*
X24679Y-20166D01*
X24632Y-20147D01*
X24581Y-20147D01*
X24444Y-20147D01*
X24459Y-20132D01*
X24478Y-20085D01*
X24478Y-20034D01*
X24478Y-19837D01*
X24459Y-19789D01*
X24423Y-19753D01*
X24375Y-19733D01*
X24346Y-19733D01*
X24346Y-18764D01*
X24360Y-18778D01*
X24360Y-18950D01*
X24360Y-19450D01*
X24374Y-19522D01*
X24415Y-19584D01*
X24860Y-20028D01*
X24860Y-20734D01*
X24874Y-20806D01*
X24915Y-20868D01*
X24972Y-20925D01*
X24972Y-20981D01*
G54D10*
G36*
X25580Y-21750D02*
X25150Y-21750D01*
X24853Y-21750D01*
X24856Y-21741D01*
X24856Y-21642D01*
X24856Y-21568D01*
X24794Y-21506D01*
X24856Y-21506D01*
X24856Y-21496D01*
X24889Y-21576D01*
X24959Y-21646D01*
X25051Y-21684D01*
X25088Y-21684D01*
X25150Y-21622D01*
X25150Y-21367D01*
X25142Y-21367D01*
X25142Y-21267D01*
X25150Y-21267D01*
X25150Y-21259D01*
X25249Y-21259D01*
X25249Y-21267D01*
X25257Y-21267D01*
X25257Y-21367D01*
X25249Y-21367D01*
X25249Y-21622D01*
X25311Y-21684D01*
X25348Y-21684D01*
X25440Y-21646D01*
X25510Y-21576D01*
X25548Y-21484D01*
X25548Y-21434D01*
X25580Y-21455D01*
X25580Y-21750D01*
X25580Y-21750D01*
G37*
G54D32*
X25580Y-21750D02*
X25150Y-21750D01*
X24853Y-21750D01*
X24856Y-21741D01*
X24856Y-21642D01*
X24856Y-21568D01*
X24794Y-21506D01*
X24856Y-21506D01*
X24856Y-21496D01*
X24889Y-21576D01*
X24959Y-21646D01*
X25051Y-21684D01*
X25088Y-21684D01*
X25150Y-21622D01*
X25150Y-21367D01*
X25142Y-21367D01*
X25142Y-21267D01*
X25150Y-21267D01*
X25150Y-21259D01*
X25249Y-21259D01*
X25249Y-21267D01*
X25257Y-21267D01*
X25257Y-21367D01*
X25249Y-21367D01*
X25249Y-21622D01*
X25311Y-21684D01*
X25348Y-21684D01*
X25440Y-21646D01*
X25510Y-21576D01*
X25548Y-21484D01*
X25548Y-21434D01*
X25580Y-21455D01*
X25580Y-21750D01*
G54D10*
G36*
X30304Y-17321D02*
X30268Y-17321D01*
X29344Y-17321D01*
X29344Y-17237D01*
X29344Y-16800D01*
X29344Y-16700D01*
X29344Y-16262D01*
X29281Y-16200D01*
X28805Y-16199D01*
X28805Y-14949D01*
X28805Y-14699D01*
X28805Y-14349D01*
X28805Y-14099D01*
X28785Y-14051D01*
X28748Y-14014D01*
X28700Y-13995D01*
X28649Y-13994D01*
X28199Y-13994D01*
X28151Y-14014D01*
X28114Y-14051D01*
X28102Y-14082D01*
X27875Y-14082D01*
X27875Y-13999D01*
X27855Y-13951D01*
X27819Y-13915D01*
X27771Y-13895D01*
X27719Y-13895D01*
X27266Y-13895D01*
X27218Y-13915D01*
X27182Y-13951D01*
X27162Y-13999D01*
X27162Y-14051D01*
X27162Y-14504D01*
X27182Y-14552D01*
X27218Y-14588D01*
X27266Y-14608D01*
X27318Y-14608D01*
X27771Y-14608D01*
X27819Y-14588D01*
X27855Y-14552D01*
X27875Y-14504D01*
X27875Y-14452D01*
X27875Y-14422D01*
X28103Y-14422D01*
X28114Y-14448D01*
X28151Y-14485D01*
X28199Y-14504D01*
X28250Y-14505D01*
X28700Y-14505D01*
X28748Y-14485D01*
X28785Y-14448D01*
X28804Y-14400D01*
X28805Y-14349D01*
X28805Y-14699D01*
X28785Y-14651D01*
X28748Y-14614D01*
X28700Y-14595D01*
X28649Y-14594D01*
X28199Y-14594D01*
X28151Y-14614D01*
X28114Y-14651D01*
X28095Y-14699D01*
X28094Y-14750D01*
X28094Y-15000D01*
X28107Y-15030D01*
X27993Y-15030D01*
X27993Y-15028D01*
X27957Y-14992D01*
X27909Y-14972D01*
X27858Y-14972D01*
X27622Y-14972D01*
X27575Y-14992D01*
X27549Y-15017D01*
X27524Y-14992D01*
X27476Y-14972D01*
X27425Y-14972D01*
X27189Y-14972D01*
X27142Y-14992D01*
X27105Y-15028D01*
X27088Y-15070D01*
X27088Y-14181D01*
X27034Y-14050D01*
X26934Y-13949D01*
X26803Y-13895D01*
X26661Y-13895D01*
X26530Y-13949D01*
X26429Y-14049D01*
X26375Y-14180D01*
X26375Y-14322D01*
X26429Y-14453D01*
X26529Y-14554D01*
X26660Y-14608D01*
X26802Y-14608D01*
X26933Y-14554D01*
X27034Y-14454D01*
X27088Y-14323D01*
X27088Y-14181D01*
X27088Y-15070D01*
X27086Y-15075D01*
X27086Y-15126D01*
X27086Y-15323D01*
X27105Y-15371D01*
X27141Y-15407D01*
X27163Y-15416D01*
X27163Y-15433D01*
X27138Y-15458D01*
X27100Y-15550D01*
X27099Y-15649D01*
X27137Y-15741D01*
X27208Y-15811D01*
X27300Y-15849D01*
X27399Y-15850D01*
X27491Y-15812D01*
X27561Y-15741D01*
X27599Y-15649D01*
X27600Y-15550D01*
X27562Y-15458D01*
X27514Y-15411D01*
X27523Y-15407D01*
X27549Y-15382D01*
X27574Y-15407D01*
X27622Y-15427D01*
X27673Y-15427D01*
X27909Y-15427D01*
X27956Y-15407D01*
X27993Y-15371D01*
X27993Y-15370D01*
X28200Y-15370D01*
X28265Y-15357D01*
X28265Y-15357D01*
X28320Y-15320D01*
X28535Y-15105D01*
X28700Y-15105D01*
X28748Y-15085D01*
X28785Y-15048D01*
X28804Y-15000D01*
X28805Y-14949D01*
X28805Y-16199D01*
X28543Y-16199D01*
X28444Y-16200D01*
X28352Y-16238D01*
X28281Y-16308D01*
X28243Y-16400D01*
X28244Y-16637D01*
X28306Y-16700D01*
X29344Y-16700D01*
X29344Y-16800D01*
X28306Y-16800D01*
X28244Y-16862D01*
X28243Y-17099D01*
X28281Y-17191D01*
X28352Y-17261D01*
X28444Y-17299D01*
X28543Y-17300D01*
X29281Y-17300D01*
X29344Y-17237D01*
X29344Y-17321D01*
X28468Y-17321D01*
X28421Y-17340D01*
X28384Y-17376D01*
X28369Y-17413D01*
X25400Y-17413D01*
X25271Y-17438D01*
X25242Y-17458D01*
X25194Y-17410D01*
X25102Y-17371D01*
X25085Y-17371D01*
X25023Y-17434D01*
X25023Y-17690D01*
X25051Y-17690D01*
X25051Y-17790D01*
X25023Y-17790D01*
X25023Y-17797D01*
X24964Y-17797D01*
X24964Y-17790D01*
X24935Y-17790D01*
X24935Y-17690D01*
X24964Y-17690D01*
X24964Y-17434D01*
X24901Y-17371D01*
X24884Y-17371D01*
X24871Y-17377D01*
X24884Y-17359D01*
X24897Y-17294D01*
X24896Y-17294D01*
X24897Y-17294D01*
X24897Y-17009D01*
X25727Y-16179D01*
X25764Y-16124D01*
X25764Y-16124D01*
X25768Y-16103D01*
X25777Y-16106D01*
X25880Y-16107D01*
X25914Y-16092D01*
X25916Y-16093D01*
X25967Y-16093D01*
X26164Y-16093D01*
X26212Y-16074D01*
X26248Y-16038D01*
X26268Y-15990D01*
X26268Y-15939D01*
X26268Y-15749D01*
X26281Y-15743D01*
X26351Y-15673D01*
X26389Y-15581D01*
X26389Y-15246D01*
X26351Y-15154D01*
X26301Y-15104D01*
X26301Y-14181D01*
X26247Y-14050D01*
X26147Y-13949D01*
X26016Y-13895D01*
X25874Y-13895D01*
X25743Y-13949D01*
X25642Y-14049D01*
X25588Y-14180D01*
X25588Y-14322D01*
X25642Y-14453D01*
X25742Y-14554D01*
X25873Y-14608D01*
X26015Y-14608D01*
X26146Y-14554D01*
X26247Y-14454D01*
X26301Y-14323D01*
X26301Y-14181D01*
X26301Y-15104D01*
X26281Y-15084D01*
X26189Y-15046D01*
X26152Y-15046D01*
X26090Y-15108D01*
X26090Y-15364D01*
X26327Y-15364D01*
X26389Y-15301D01*
X26389Y-15246D01*
X26389Y-15581D01*
X26389Y-15526D01*
X26327Y-15464D01*
X26090Y-15464D01*
X26090Y-15471D01*
X25991Y-15471D01*
X25991Y-15464D01*
X25991Y-15364D01*
X25991Y-15108D01*
X25929Y-15046D01*
X25892Y-15046D01*
X25824Y-15074D01*
X25755Y-15046D01*
X25718Y-15046D01*
X25656Y-15108D01*
X25656Y-15364D01*
X25755Y-15364D01*
X25893Y-15364D01*
X25991Y-15364D01*
X25991Y-15464D01*
X25893Y-15464D01*
X25755Y-15464D01*
X25656Y-15464D01*
X25656Y-15471D01*
X25557Y-15471D01*
X25557Y-15464D01*
X25557Y-15364D01*
X25557Y-15108D01*
X25513Y-15064D01*
X25513Y-14181D01*
X25459Y-14050D01*
X25359Y-13949D01*
X25228Y-13895D01*
X25086Y-13895D01*
X24955Y-13949D01*
X24854Y-14049D01*
X24800Y-14180D01*
X24800Y-14322D01*
X24854Y-14453D01*
X24954Y-14554D01*
X25085Y-14608D01*
X25227Y-14608D01*
X25358Y-14554D01*
X25459Y-14454D01*
X25513Y-14323D01*
X25513Y-14181D01*
X25513Y-15064D01*
X25495Y-15046D01*
X25458Y-15046D01*
X25390Y-15074D01*
X25322Y-15046D01*
X25285Y-15046D01*
X25223Y-15108D01*
X25223Y-15364D01*
X25321Y-15364D01*
X25460Y-15364D01*
X25557Y-15364D01*
X25557Y-15464D01*
X25460Y-15464D01*
X25321Y-15464D01*
X25223Y-15464D01*
X25223Y-15471D01*
X25124Y-15471D01*
X25124Y-15464D01*
X25124Y-15364D01*
X25124Y-15108D01*
X25062Y-15046D01*
X25025Y-15046D01*
X24958Y-15073D01*
X24889Y-15045D01*
X24852Y-15045D01*
X24790Y-15107D01*
X24790Y-15363D01*
X24887Y-15363D01*
X24888Y-15364D01*
X25124Y-15364D01*
X25124Y-15464D01*
X25028Y-15464D01*
X25027Y-15463D01*
X24790Y-15463D01*
X24790Y-15470D01*
X24691Y-15470D01*
X24691Y-15463D01*
X24683Y-15463D01*
X24683Y-15363D01*
X24691Y-15363D01*
X24691Y-15107D01*
X24644Y-15060D01*
X24648Y-15051D01*
X24648Y-15044D01*
X24629Y-15045D01*
X24629Y-15045D01*
X24648Y-15044D01*
X24648Y-14996D01*
X24586Y-14934D01*
X24349Y-14934D01*
X24349Y-14941D01*
X24250Y-14941D01*
X24250Y-14934D01*
X24242Y-14934D01*
X24242Y-14834D01*
X24250Y-14834D01*
X24250Y-14826D01*
X24349Y-14826D01*
X24349Y-14834D01*
X24586Y-14834D01*
X24648Y-14771D01*
X24648Y-14716D01*
X24610Y-14624D01*
X24549Y-14563D01*
X24571Y-14554D01*
X24672Y-14454D01*
X24726Y-14323D01*
X24726Y-14181D01*
X24672Y-14050D01*
X24572Y-13949D01*
X24441Y-13895D01*
X24299Y-13895D01*
X24254Y-13914D01*
X24170Y-13830D01*
X30304Y-13830D01*
X30304Y-16200D01*
X30244Y-16199D01*
X29506Y-16200D01*
X29444Y-16262D01*
X29444Y-16700D01*
X29451Y-16700D01*
X29451Y-16800D01*
X29444Y-16800D01*
X29444Y-17237D01*
X29506Y-17300D01*
X30244Y-17300D01*
X30304Y-17299D01*
X30304Y-17321D01*
X30304Y-17321D01*
G37*
G54D32*
X30304Y-17321D02*
X30268Y-17321D01*
X29344Y-17321D01*
X29344Y-17237D01*
X29344Y-16800D01*
X29344Y-16700D01*
X29344Y-16262D01*
X29281Y-16200D01*
X28805Y-16199D01*
X28805Y-14949D01*
X28805Y-14699D01*
X28805Y-14349D01*
X28805Y-14099D01*
X28785Y-14051D01*
X28748Y-14014D01*
X28700Y-13995D01*
X28649Y-13994D01*
X28199Y-13994D01*
X28151Y-14014D01*
X28114Y-14051D01*
X28102Y-14082D01*
X27875Y-14082D01*
X27875Y-13999D01*
X27855Y-13951D01*
X27819Y-13915D01*
X27771Y-13895D01*
X27719Y-13895D01*
X27266Y-13895D01*
X27218Y-13915D01*
X27182Y-13951D01*
X27162Y-13999D01*
X27162Y-14051D01*
X27162Y-14504D01*
X27182Y-14552D01*
X27218Y-14588D01*
X27266Y-14608D01*
X27318Y-14608D01*
X27771Y-14608D01*
X27819Y-14588D01*
X27855Y-14552D01*
X27875Y-14504D01*
X27875Y-14452D01*
X27875Y-14422D01*
X28103Y-14422D01*
X28114Y-14448D01*
X28151Y-14485D01*
X28199Y-14504D01*
X28250Y-14505D01*
X28700Y-14505D01*
X28748Y-14485D01*
X28785Y-14448D01*
X28804Y-14400D01*
X28805Y-14349D01*
X28805Y-14699D01*
X28785Y-14651D01*
X28748Y-14614D01*
X28700Y-14595D01*
X28649Y-14594D01*
X28199Y-14594D01*
X28151Y-14614D01*
X28114Y-14651D01*
X28095Y-14699D01*
X28094Y-14750D01*
X28094Y-15000D01*
X28107Y-15030D01*
X27993Y-15030D01*
X27993Y-15028D01*
X27957Y-14992D01*
X27909Y-14972D01*
X27858Y-14972D01*
X27622Y-14972D01*
X27575Y-14992D01*
X27549Y-15017D01*
X27524Y-14992D01*
X27476Y-14972D01*
X27425Y-14972D01*
X27189Y-14972D01*
X27142Y-14992D01*
X27105Y-15028D01*
X27088Y-15070D01*
X27088Y-14181D01*
X27034Y-14050D01*
X26934Y-13949D01*
X26803Y-13895D01*
X26661Y-13895D01*
X26530Y-13949D01*
X26429Y-14049D01*
X26375Y-14180D01*
X26375Y-14322D01*
X26429Y-14453D01*
X26529Y-14554D01*
X26660Y-14608D01*
X26802Y-14608D01*
X26933Y-14554D01*
X27034Y-14454D01*
X27088Y-14323D01*
X27088Y-14181D01*
X27088Y-15070D01*
X27086Y-15075D01*
X27086Y-15126D01*
X27086Y-15323D01*
X27105Y-15371D01*
X27141Y-15407D01*
X27163Y-15416D01*
X27163Y-15433D01*
X27138Y-15458D01*
X27100Y-15550D01*
X27099Y-15649D01*
X27137Y-15741D01*
X27208Y-15811D01*
X27300Y-15849D01*
X27399Y-15850D01*
X27491Y-15812D01*
X27561Y-15741D01*
X27599Y-15649D01*
X27600Y-15550D01*
X27562Y-15458D01*
X27514Y-15411D01*
X27523Y-15407D01*
X27549Y-15382D01*
X27574Y-15407D01*
X27622Y-15427D01*
X27673Y-15427D01*
X27909Y-15427D01*
X27956Y-15407D01*
X27993Y-15371D01*
X27993Y-15370D01*
X28200Y-15370D01*
X28265Y-15357D01*
X28265Y-15357D01*
X28320Y-15320D01*
X28535Y-15105D01*
X28700Y-15105D01*
X28748Y-15085D01*
X28785Y-15048D01*
X28804Y-15000D01*
X28805Y-14949D01*
X28805Y-16199D01*
X28543Y-16199D01*
X28444Y-16200D01*
X28352Y-16238D01*
X28281Y-16308D01*
X28243Y-16400D01*
X28244Y-16637D01*
X28306Y-16700D01*
X29344Y-16700D01*
X29344Y-16800D01*
X28306Y-16800D01*
X28244Y-16862D01*
X28243Y-17099D01*
X28281Y-17191D01*
X28352Y-17261D01*
X28444Y-17299D01*
X28543Y-17300D01*
X29281Y-17300D01*
X29344Y-17237D01*
X29344Y-17321D01*
X28468Y-17321D01*
X28421Y-17340D01*
X28384Y-17376D01*
X28369Y-17413D01*
X25400Y-17413D01*
X25271Y-17438D01*
X25242Y-17458D01*
X25194Y-17410D01*
X25102Y-17371D01*
X25085Y-17371D01*
X25023Y-17434D01*
X25023Y-17690D01*
X25051Y-17690D01*
X25051Y-17790D01*
X25023Y-17790D01*
X25023Y-17797D01*
X24964Y-17797D01*
X24964Y-17790D01*
X24935Y-17790D01*
X24935Y-17690D01*
X24964Y-17690D01*
X24964Y-17434D01*
X24901Y-17371D01*
X24884Y-17371D01*
X24871Y-17377D01*
X24884Y-17359D01*
X24897Y-17294D01*
X24896Y-17294D01*
X24897Y-17294D01*
X24897Y-17009D01*
X25727Y-16179D01*
X25764Y-16124D01*
X25764Y-16124D01*
X25768Y-16103D01*
X25777Y-16106D01*
X25880Y-16107D01*
X25914Y-16092D01*
X25916Y-16093D01*
X25967Y-16093D01*
X26164Y-16093D01*
X26212Y-16074D01*
X26248Y-16038D01*
X26268Y-15990D01*
X26268Y-15939D01*
X26268Y-15749D01*
X26281Y-15743D01*
X26351Y-15673D01*
X26389Y-15581D01*
X26389Y-15246D01*
X26351Y-15154D01*
X26301Y-15104D01*
X26301Y-14181D01*
X26247Y-14050D01*
X26147Y-13949D01*
X26016Y-13895D01*
X25874Y-13895D01*
X25743Y-13949D01*
X25642Y-14049D01*
X25588Y-14180D01*
X25588Y-14322D01*
X25642Y-14453D01*
X25742Y-14554D01*
X25873Y-14608D01*
X26015Y-14608D01*
X26146Y-14554D01*
X26247Y-14454D01*
X26301Y-14323D01*
X26301Y-14181D01*
X26301Y-15104D01*
X26281Y-15084D01*
X26189Y-15046D01*
X26152Y-15046D01*
X26090Y-15108D01*
X26090Y-15364D01*
X26327Y-15364D01*
X26389Y-15301D01*
X26389Y-15246D01*
X26389Y-15581D01*
X26389Y-15526D01*
X26327Y-15464D01*
X26090Y-15464D01*
X26090Y-15471D01*
X25991Y-15471D01*
X25991Y-15464D01*
X25991Y-15364D01*
X25991Y-15108D01*
X25929Y-15046D01*
X25892Y-15046D01*
X25824Y-15074D01*
X25755Y-15046D01*
X25718Y-15046D01*
X25656Y-15108D01*
X25656Y-15364D01*
X25755Y-15364D01*
X25893Y-15364D01*
X25991Y-15364D01*
X25991Y-15464D01*
X25893Y-15464D01*
X25755Y-15464D01*
X25656Y-15464D01*
X25656Y-15471D01*
X25557Y-15471D01*
X25557Y-15464D01*
X25557Y-15364D01*
X25557Y-15108D01*
X25513Y-15064D01*
X25513Y-14181D01*
X25459Y-14050D01*
X25359Y-13949D01*
X25228Y-13895D01*
X25086Y-13895D01*
X24955Y-13949D01*
X24854Y-14049D01*
X24800Y-14180D01*
X24800Y-14322D01*
X24854Y-14453D01*
X24954Y-14554D01*
X25085Y-14608D01*
X25227Y-14608D01*
X25358Y-14554D01*
X25459Y-14454D01*
X25513Y-14323D01*
X25513Y-14181D01*
X25513Y-15064D01*
X25495Y-15046D01*
X25458Y-15046D01*
X25390Y-15074D01*
X25322Y-15046D01*
X25285Y-15046D01*
X25223Y-15108D01*
X25223Y-15364D01*
X25321Y-15364D01*
X25460Y-15364D01*
X25557Y-15364D01*
X25557Y-15464D01*
X25460Y-15464D01*
X25321Y-15464D01*
X25223Y-15464D01*
X25223Y-15471D01*
X25124Y-15471D01*
X25124Y-15464D01*
X25124Y-15364D01*
X25124Y-15108D01*
X25062Y-15046D01*
X25025Y-15046D01*
X24958Y-15073D01*
X24889Y-15045D01*
X24852Y-15045D01*
X24790Y-15107D01*
X24790Y-15363D01*
X24887Y-15363D01*
X24888Y-15364D01*
X25124Y-15364D01*
X25124Y-15464D01*
X25028Y-15464D01*
X25027Y-15463D01*
X24790Y-15463D01*
X24790Y-15470D01*
X24691Y-15470D01*
X24691Y-15463D01*
X24683Y-15463D01*
X24683Y-15363D01*
X24691Y-15363D01*
X24691Y-15107D01*
X24644Y-15060D01*
X24648Y-15051D01*
X24648Y-15044D01*
X24629Y-15045D01*
X24629Y-15045D01*
X24648Y-15044D01*
X24648Y-14996D01*
X24586Y-14934D01*
X24349Y-14934D01*
X24349Y-14941D01*
X24250Y-14941D01*
X24250Y-14934D01*
X24242Y-14934D01*
X24242Y-14834D01*
X24250Y-14834D01*
X24250Y-14826D01*
X24349Y-14826D01*
X24349Y-14834D01*
X24586Y-14834D01*
X24648Y-14771D01*
X24648Y-14716D01*
X24610Y-14624D01*
X24549Y-14563D01*
X24571Y-14554D01*
X24672Y-14454D01*
X24726Y-14323D01*
X24726Y-14181D01*
X24672Y-14050D01*
X24572Y-13949D01*
X24441Y-13895D01*
X24299Y-13895D01*
X24254Y-13914D01*
X24170Y-13830D01*
X30304Y-13830D01*
X30304Y-16200D01*
X30244Y-16199D01*
X29506Y-16200D01*
X29444Y-16262D01*
X29444Y-16700D01*
X29451Y-16700D01*
X29451Y-16800D01*
X29444Y-16800D01*
X29444Y-17237D01*
X29506Y-17300D01*
X30244Y-17300D01*
X30304Y-17299D01*
X30304Y-17321D01*
G54D10*
G36*
X30304Y-23336D02*
X30079Y-23336D01*
X30079Y-23019D01*
X30079Y-22618D01*
X30078Y-22519D01*
X30040Y-22427D01*
X29970Y-22356D01*
X29878Y-22318D01*
X29854Y-22319D01*
X29791Y-22381D01*
X29791Y-22769D01*
X30016Y-22769D01*
X30079Y-22706D01*
X30079Y-22618D01*
X30079Y-23019D01*
X30079Y-22931D01*
X30016Y-22869D01*
X29791Y-22869D01*
X29791Y-23256D01*
X29854Y-23319D01*
X29878Y-23319D01*
X29970Y-23281D01*
X30040Y-23210D01*
X30078Y-23118D01*
X30079Y-23019D01*
X30079Y-23336D01*
X28511Y-23336D01*
X28557Y-23317D01*
X28593Y-23281D01*
X28602Y-23260D01*
X28715Y-23260D01*
X28780Y-23247D01*
X28780Y-23247D01*
X28835Y-23210D01*
X28857Y-23187D01*
X28885Y-23198D01*
X28936Y-23199D01*
X29086Y-23199D01*
X29114Y-23187D01*
X29141Y-23198D01*
X29192Y-23199D01*
X29342Y-23199D01*
X29370Y-23187D01*
X29397Y-23198D01*
X29448Y-23199D01*
X29462Y-23199D01*
X29467Y-23210D01*
X29537Y-23281D01*
X29629Y-23319D01*
X29654Y-23319D01*
X29716Y-23256D01*
X29716Y-22869D01*
X29703Y-22869D01*
X29703Y-22769D01*
X29716Y-22769D01*
X29716Y-22381D01*
X29654Y-22319D01*
X29629Y-22318D01*
X29537Y-22356D01*
X29467Y-22427D01*
X29462Y-22438D01*
X29412Y-22438D01*
X29412Y-22274D01*
X29399Y-22208D01*
X29362Y-22153D01*
X29362Y-22153D01*
X28839Y-21630D01*
X28784Y-21593D01*
X28719Y-21581D01*
X28090Y-21581D01*
X28081Y-21560D01*
X28056Y-21534D01*
X28081Y-21509D01*
X28089Y-21489D01*
X28208Y-21489D01*
X28238Y-21519D01*
X28334Y-21558D01*
X28437Y-21559D01*
X28533Y-21519D01*
X28606Y-21446D01*
X28645Y-21350D01*
X28645Y-21309D01*
X28780Y-21309D01*
X28780Y-21394D01*
X28800Y-21442D01*
X28837Y-21479D01*
X28885Y-21498D01*
X28936Y-21499D01*
X29086Y-21499D01*
X29114Y-21487D01*
X29141Y-21498D01*
X29192Y-21499D01*
X29342Y-21499D01*
X29370Y-21487D01*
X29397Y-21498D01*
X29448Y-21499D01*
X29598Y-21499D01*
X29626Y-21487D01*
X29653Y-21498D01*
X29704Y-21499D01*
X29854Y-21499D01*
X29902Y-21479D01*
X29939Y-21442D01*
X29958Y-21394D01*
X29959Y-21343D01*
X29959Y-20843D01*
X29939Y-20795D01*
X29902Y-20758D01*
X29854Y-20739D01*
X29803Y-20738D01*
X29653Y-20738D01*
X29625Y-20750D01*
X29598Y-20739D01*
X29547Y-20738D01*
X29397Y-20738D01*
X29369Y-20750D01*
X29344Y-20739D01*
X29344Y-19237D01*
X29344Y-18800D01*
X29344Y-18700D01*
X29344Y-18262D01*
X29281Y-18200D01*
X28543Y-18199D01*
X28444Y-18200D01*
X28352Y-18238D01*
X28281Y-18308D01*
X28243Y-18400D01*
X28244Y-18637D01*
X28306Y-18700D01*
X29344Y-18700D01*
X29344Y-18800D01*
X28306Y-18800D01*
X28244Y-18862D01*
X28243Y-19099D01*
X28281Y-19191D01*
X28352Y-19261D01*
X28444Y-19299D01*
X28543Y-19300D01*
X29281Y-19300D01*
X29344Y-19237D01*
X29344Y-20739D01*
X29342Y-20739D01*
X29291Y-20738D01*
X29141Y-20738D01*
X29113Y-20750D01*
X29086Y-20739D01*
X29035Y-20738D01*
X28885Y-20738D01*
X28837Y-20758D01*
X28800Y-20795D01*
X28781Y-20843D01*
X28780Y-20894D01*
X28780Y-20929D01*
X28576Y-20929D01*
X28576Y-20887D01*
X28572Y-20870D01*
X28572Y-20703D01*
X28553Y-20655D01*
X28517Y-20619D01*
X28469Y-20599D01*
X28418Y-20599D01*
X28228Y-20599D01*
X28222Y-20586D01*
X28152Y-20516D01*
X28060Y-20478D01*
X28005Y-20478D01*
X27943Y-20541D01*
X27943Y-20777D01*
X27950Y-20777D01*
X27950Y-20876D01*
X27943Y-20876D01*
X27943Y-20884D01*
X27843Y-20884D01*
X27843Y-20876D01*
X27843Y-20777D01*
X27843Y-20541D01*
X27780Y-20478D01*
X27725Y-20478D01*
X27633Y-20516D01*
X27563Y-20586D01*
X27525Y-20678D01*
X27525Y-20715D01*
X27587Y-20777D01*
X27843Y-20777D01*
X27843Y-20876D01*
X27587Y-20876D01*
X27525Y-20938D01*
X27525Y-20975D01*
X27563Y-21067D01*
X27633Y-21137D01*
X27657Y-21147D01*
X27646Y-21174D01*
X27646Y-21225D01*
X27646Y-21461D01*
X27666Y-21508D01*
X27691Y-21534D01*
X27666Y-21559D01*
X27646Y-21607D01*
X27646Y-21658D01*
X27646Y-21894D01*
X27666Y-21941D01*
X27702Y-21978D01*
X27704Y-21978D01*
X27704Y-22200D01*
X27641Y-22138D01*
X27549Y-22100D01*
X27490Y-22099D01*
X27090Y-21700D01*
X27090Y-21494D01*
X27159Y-21448D01*
X27207Y-21377D01*
X27224Y-21293D01*
X27207Y-21210D01*
X27186Y-21179D01*
X27258Y-21123D01*
X27324Y-21007D01*
X27324Y-20996D01*
X27272Y-20944D01*
X26970Y-20944D01*
X26970Y-20957D01*
X26870Y-20957D01*
X26870Y-20944D01*
X26862Y-20944D01*
X26862Y-20855D01*
X26870Y-20855D01*
X26870Y-20842D01*
X26970Y-20842D01*
X26970Y-20855D01*
X27272Y-20855D01*
X27324Y-20803D01*
X27324Y-20792D01*
X27258Y-20676D01*
X27186Y-20620D01*
X27207Y-20589D01*
X27224Y-20506D01*
X27207Y-20422D01*
X27159Y-20351D01*
X27089Y-20304D01*
X27005Y-20287D01*
X26836Y-20287D01*
X26752Y-20304D01*
X26748Y-20307D01*
X26738Y-20297D01*
X26690Y-20277D01*
X26639Y-20277D01*
X26314Y-20277D01*
X26314Y-19541D01*
X26314Y-19486D01*
X26252Y-19424D01*
X26015Y-19424D01*
X26015Y-19679D01*
X26077Y-19741D01*
X26114Y-19741D01*
X26206Y-19703D01*
X26276Y-19633D01*
X26314Y-19541D01*
X26314Y-20277D01*
X26009Y-20277D01*
X25961Y-20297D01*
X25951Y-20307D01*
X25947Y-20304D01*
X25920Y-20299D01*
X25920Y-19541D01*
X25920Y-19486D01*
X25916Y-19482D01*
X25916Y-19424D01*
X25858Y-19424D01*
X25680Y-19424D01*
X25621Y-19424D01*
X25621Y-19482D01*
X25617Y-19486D01*
X25617Y-19541D01*
X25621Y-19550D01*
X25621Y-19679D01*
X25683Y-19741D01*
X25720Y-19741D01*
X25769Y-19721D01*
X25817Y-19741D01*
X25854Y-19741D01*
X25916Y-19679D01*
X25916Y-19550D01*
X25920Y-19541D01*
X25920Y-20299D01*
X25863Y-20287D01*
X25694Y-20287D01*
X25610Y-20304D01*
X25540Y-20351D01*
X25527Y-20370D01*
X25527Y-19541D01*
X25527Y-19486D01*
X25522Y-19481D01*
X25522Y-19424D01*
X25465Y-19424D01*
X25286Y-19424D01*
X25228Y-19424D01*
X25228Y-19481D01*
X25223Y-19486D01*
X25223Y-19541D01*
X25228Y-19553D01*
X25228Y-19679D01*
X25290Y-19741D01*
X25327Y-19741D01*
X25375Y-19722D01*
X25423Y-19741D01*
X25460Y-19741D01*
X25522Y-19679D01*
X25522Y-19553D01*
X25527Y-19541D01*
X25527Y-20370D01*
X25492Y-20422D01*
X25475Y-20506D01*
X25492Y-20589D01*
X25540Y-20660D01*
X25603Y-20703D01*
X25593Y-20710D01*
X25414Y-20710D01*
X25407Y-20693D01*
X25371Y-20656D01*
X25324Y-20637D01*
X25273Y-20637D01*
X25240Y-20637D01*
X25240Y-19950D01*
X25225Y-19877D01*
X25184Y-19815D01*
X25110Y-19742D01*
X25067Y-19742D01*
X25067Y-19741D01*
X25110Y-19742D01*
X25088Y-19720D01*
X25129Y-19679D01*
X25129Y-19424D01*
X24893Y-19424D01*
X24842Y-19474D01*
X24740Y-19371D01*
X24740Y-19140D01*
X24857Y-19140D01*
X24830Y-19206D01*
X24830Y-19261D01*
X24893Y-19324D01*
X25129Y-19324D01*
X25129Y-19316D01*
X25228Y-19316D01*
X25228Y-19324D01*
X25286Y-19324D01*
X25465Y-19324D01*
X25522Y-19324D01*
X25522Y-19316D01*
X25621Y-19316D01*
X25621Y-19324D01*
X25680Y-19324D01*
X25858Y-19324D01*
X25916Y-19324D01*
X25916Y-19316D01*
X26015Y-19316D01*
X26015Y-19324D01*
X26252Y-19324D01*
X26314Y-19261D01*
X26314Y-19206D01*
X26276Y-19114D01*
X26206Y-19044D01*
X26193Y-19038D01*
X26193Y-19033D01*
X26193Y-18797D01*
X26173Y-18750D01*
X26137Y-18713D01*
X26090Y-18694D01*
X26039Y-18694D01*
X25842Y-18694D01*
X25794Y-18713D01*
X25768Y-18739D01*
X25743Y-18713D01*
X25696Y-18694D01*
X25645Y-18694D01*
X25448Y-18694D01*
X25400Y-18713D01*
X25375Y-18738D01*
X25350Y-18713D01*
X25303Y-18694D01*
X25252Y-18694D01*
X25055Y-18694D01*
X25007Y-18713D01*
X24971Y-18749D01*
X24967Y-18760D01*
X24740Y-18760D01*
X24740Y-18700D01*
X24725Y-18627D01*
X24684Y-18565D01*
X24684Y-18565D01*
X24347Y-18228D01*
X24285Y-18187D01*
X24248Y-18180D01*
X24208Y-18140D01*
X24259Y-18140D01*
X24471Y-18352D01*
X24471Y-18352D01*
X24527Y-18389D01*
X24558Y-18395D01*
X24569Y-18423D01*
X24605Y-18459D01*
X24653Y-18478D01*
X24704Y-18478D01*
X24717Y-18478D01*
X24722Y-18491D01*
X24792Y-18562D01*
X24884Y-18600D01*
X24901Y-18600D01*
X24964Y-18537D01*
X24964Y-18457D01*
X24978Y-18491D01*
X25023Y-18536D01*
X25023Y-18537D01*
X25085Y-18600D01*
X25102Y-18600D01*
X25121Y-18592D01*
X25140Y-18600D01*
X25157Y-18600D01*
X25220Y-18537D01*
X25220Y-18536D01*
X25264Y-18491D01*
X25279Y-18457D01*
X25279Y-18537D01*
X25341Y-18600D01*
X25358Y-18600D01*
X25450Y-18562D01*
X25520Y-18491D01*
X25558Y-18399D01*
X25558Y-18344D01*
X25496Y-18282D01*
X25279Y-18282D01*
X25279Y-18321D01*
X25240Y-18282D01*
X25220Y-18282D01*
X25023Y-18282D01*
X25003Y-18282D01*
X24964Y-18321D01*
X24964Y-18282D01*
X24935Y-18282D01*
X24935Y-18182D01*
X24964Y-18182D01*
X24964Y-18143D01*
X25003Y-18182D01*
X25023Y-18182D01*
X25220Y-18182D01*
X25240Y-18182D01*
X25248Y-18174D01*
X25279Y-18174D01*
X25279Y-18182D01*
X25496Y-18182D01*
X25558Y-18119D01*
X25558Y-18086D01*
X28369Y-18086D01*
X28384Y-18122D01*
X28420Y-18159D01*
X28468Y-18178D01*
X28519Y-18178D01*
X30304Y-18178D01*
X30304Y-18200D01*
X30244Y-18199D01*
X29506Y-18200D01*
X29444Y-18262D01*
X29444Y-18700D01*
X29451Y-18700D01*
X29451Y-18800D01*
X29444Y-18800D01*
X29444Y-19237D01*
X29506Y-19300D01*
X30244Y-19300D01*
X30304Y-19299D01*
X30304Y-23336D01*
X30304Y-23336D01*
G37*
G54D32*
X30304Y-23336D02*
X30079Y-23336D01*
X30079Y-23019D01*
X30079Y-22618D01*
X30078Y-22519D01*
X30040Y-22427D01*
X29970Y-22356D01*
X29878Y-22318D01*
X29854Y-22319D01*
X29791Y-22381D01*
X29791Y-22769D01*
X30016Y-22769D01*
X30079Y-22706D01*
X30079Y-22618D01*
X30079Y-23019D01*
X30079Y-22931D01*
X30016Y-22869D01*
X29791Y-22869D01*
X29791Y-23256D01*
X29854Y-23319D01*
X29878Y-23319D01*
X29970Y-23281D01*
X30040Y-23210D01*
X30078Y-23118D01*
X30079Y-23019D01*
X30079Y-23336D01*
X28511Y-23336D01*
X28557Y-23317D01*
X28593Y-23281D01*
X28602Y-23260D01*
X28715Y-23260D01*
X28780Y-23247D01*
X28780Y-23247D01*
X28835Y-23210D01*
X28857Y-23187D01*
X28885Y-23198D01*
X28936Y-23199D01*
X29086Y-23199D01*
X29114Y-23187D01*
X29141Y-23198D01*
X29192Y-23199D01*
X29342Y-23199D01*
X29370Y-23187D01*
X29397Y-23198D01*
X29448Y-23199D01*
X29462Y-23199D01*
X29467Y-23210D01*
X29537Y-23281D01*
X29629Y-23319D01*
X29654Y-23319D01*
X29716Y-23256D01*
X29716Y-22869D01*
X29703Y-22869D01*
X29703Y-22769D01*
X29716Y-22769D01*
X29716Y-22381D01*
X29654Y-22319D01*
X29629Y-22318D01*
X29537Y-22356D01*
X29467Y-22427D01*
X29462Y-22438D01*
X29412Y-22438D01*
X29412Y-22274D01*
X29399Y-22208D01*
X29362Y-22153D01*
X29362Y-22153D01*
X28839Y-21630D01*
X28784Y-21593D01*
X28719Y-21581D01*
X28090Y-21581D01*
X28081Y-21560D01*
X28056Y-21534D01*
X28081Y-21509D01*
X28089Y-21489D01*
X28208Y-21489D01*
X28238Y-21519D01*
X28334Y-21558D01*
X28437Y-21559D01*
X28533Y-21519D01*
X28606Y-21446D01*
X28645Y-21350D01*
X28645Y-21309D01*
X28780Y-21309D01*
X28780Y-21394D01*
X28800Y-21442D01*
X28837Y-21479D01*
X28885Y-21498D01*
X28936Y-21499D01*
X29086Y-21499D01*
X29114Y-21487D01*
X29141Y-21498D01*
X29192Y-21499D01*
X29342Y-21499D01*
X29370Y-21487D01*
X29397Y-21498D01*
X29448Y-21499D01*
X29598Y-21499D01*
X29626Y-21487D01*
X29653Y-21498D01*
X29704Y-21499D01*
X29854Y-21499D01*
X29902Y-21479D01*
X29939Y-21442D01*
X29958Y-21394D01*
X29959Y-21343D01*
X29959Y-20843D01*
X29939Y-20795D01*
X29902Y-20758D01*
X29854Y-20739D01*
X29803Y-20738D01*
X29653Y-20738D01*
X29625Y-20750D01*
X29598Y-20739D01*
X29547Y-20738D01*
X29397Y-20738D01*
X29369Y-20750D01*
X29344Y-20739D01*
X29344Y-19237D01*
X29344Y-18800D01*
X29344Y-18700D01*
X29344Y-18262D01*
X29281Y-18200D01*
X28543Y-18199D01*
X28444Y-18200D01*
X28352Y-18238D01*
X28281Y-18308D01*
X28243Y-18400D01*
X28244Y-18637D01*
X28306Y-18700D01*
X29344Y-18700D01*
X29344Y-18800D01*
X28306Y-18800D01*
X28244Y-18862D01*
X28243Y-19099D01*
X28281Y-19191D01*
X28352Y-19261D01*
X28444Y-19299D01*
X28543Y-19300D01*
X29281Y-19300D01*
X29344Y-19237D01*
X29344Y-20739D01*
X29342Y-20739D01*
X29291Y-20738D01*
X29141Y-20738D01*
X29113Y-20750D01*
X29086Y-20739D01*
X29035Y-20738D01*
X28885Y-20738D01*
X28837Y-20758D01*
X28800Y-20795D01*
X28781Y-20843D01*
X28780Y-20894D01*
X28780Y-20929D01*
X28576Y-20929D01*
X28576Y-20887D01*
X28572Y-20870D01*
X28572Y-20703D01*
X28553Y-20655D01*
X28517Y-20619D01*
X28469Y-20599D01*
X28418Y-20599D01*
X28228Y-20599D01*
X28222Y-20586D01*
X28152Y-20516D01*
X28060Y-20478D01*
X28005Y-20478D01*
X27943Y-20541D01*
X27943Y-20777D01*
X27950Y-20777D01*
X27950Y-20876D01*
X27943Y-20876D01*
X27943Y-20884D01*
X27843Y-20884D01*
X27843Y-20876D01*
X27843Y-20777D01*
X27843Y-20541D01*
X27780Y-20478D01*
X27725Y-20478D01*
X27633Y-20516D01*
X27563Y-20586D01*
X27525Y-20678D01*
X27525Y-20715D01*
X27587Y-20777D01*
X27843Y-20777D01*
X27843Y-20876D01*
X27587Y-20876D01*
X27525Y-20938D01*
X27525Y-20975D01*
X27563Y-21067D01*
X27633Y-21137D01*
X27657Y-21147D01*
X27646Y-21174D01*
X27646Y-21225D01*
X27646Y-21461D01*
X27666Y-21508D01*
X27691Y-21534D01*
X27666Y-21559D01*
X27646Y-21607D01*
X27646Y-21658D01*
X27646Y-21894D01*
X27666Y-21941D01*
X27702Y-21978D01*
X27704Y-21978D01*
X27704Y-22200D01*
X27641Y-22138D01*
X27549Y-22100D01*
X27490Y-22099D01*
X27090Y-21700D01*
X27090Y-21494D01*
X27159Y-21448D01*
X27207Y-21377D01*
X27224Y-21293D01*
X27207Y-21210D01*
X27186Y-21179D01*
X27258Y-21123D01*
X27324Y-21007D01*
X27324Y-20996D01*
X27272Y-20944D01*
X26970Y-20944D01*
X26970Y-20957D01*
X26870Y-20957D01*
X26870Y-20944D01*
X26862Y-20944D01*
X26862Y-20855D01*
X26870Y-20855D01*
X26870Y-20842D01*
X26970Y-20842D01*
X26970Y-20855D01*
X27272Y-20855D01*
X27324Y-20803D01*
X27324Y-20792D01*
X27258Y-20676D01*
X27186Y-20620D01*
X27207Y-20589D01*
X27224Y-20506D01*
X27207Y-20422D01*
X27159Y-20351D01*
X27089Y-20304D01*
X27005Y-20287D01*
X26836Y-20287D01*
X26752Y-20304D01*
X26748Y-20307D01*
X26738Y-20297D01*
X26690Y-20277D01*
X26639Y-20277D01*
X26314Y-20277D01*
X26314Y-19541D01*
X26314Y-19486D01*
X26252Y-19424D01*
X26015Y-19424D01*
X26015Y-19679D01*
X26077Y-19741D01*
X26114Y-19741D01*
X26206Y-19703D01*
X26276Y-19633D01*
X26314Y-19541D01*
X26314Y-20277D01*
X26009Y-20277D01*
X25961Y-20297D01*
X25951Y-20307D01*
X25947Y-20304D01*
X25920Y-20299D01*
X25920Y-19541D01*
X25920Y-19486D01*
X25916Y-19482D01*
X25916Y-19424D01*
X25858Y-19424D01*
X25680Y-19424D01*
X25621Y-19424D01*
X25621Y-19482D01*
X25617Y-19486D01*
X25617Y-19541D01*
X25621Y-19550D01*
X25621Y-19679D01*
X25683Y-19741D01*
X25720Y-19741D01*
X25769Y-19721D01*
X25817Y-19741D01*
X25854Y-19741D01*
X25916Y-19679D01*
X25916Y-19550D01*
X25920Y-19541D01*
X25920Y-20299D01*
X25863Y-20287D01*
X25694Y-20287D01*
X25610Y-20304D01*
X25540Y-20351D01*
X25527Y-20370D01*
X25527Y-19541D01*
X25527Y-19486D01*
X25522Y-19481D01*
X25522Y-19424D01*
X25465Y-19424D01*
X25286Y-19424D01*
X25228Y-19424D01*
X25228Y-19481D01*
X25223Y-19486D01*
X25223Y-19541D01*
X25228Y-19553D01*
X25228Y-19679D01*
X25290Y-19741D01*
X25327Y-19741D01*
X25375Y-19722D01*
X25423Y-19741D01*
X25460Y-19741D01*
X25522Y-19679D01*
X25522Y-19553D01*
X25527Y-19541D01*
X25527Y-20370D01*
X25492Y-20422D01*
X25475Y-20506D01*
X25492Y-20589D01*
X25540Y-20660D01*
X25603Y-20703D01*
X25593Y-20710D01*
X25414Y-20710D01*
X25407Y-20693D01*
X25371Y-20656D01*
X25324Y-20637D01*
X25273Y-20637D01*
X25240Y-20637D01*
X25240Y-19950D01*
X25225Y-19877D01*
X25184Y-19815D01*
X25110Y-19742D01*
X25067Y-19742D01*
X25067Y-19741D01*
X25110Y-19742D01*
X25088Y-19720D01*
X25129Y-19679D01*
X25129Y-19424D01*
X24893Y-19424D01*
X24842Y-19474D01*
X24740Y-19371D01*
X24740Y-19140D01*
X24857Y-19140D01*
X24830Y-19206D01*
X24830Y-19261D01*
X24893Y-19324D01*
X25129Y-19324D01*
X25129Y-19316D01*
X25228Y-19316D01*
X25228Y-19324D01*
X25286Y-19324D01*
X25465Y-19324D01*
X25522Y-19324D01*
X25522Y-19316D01*
X25621Y-19316D01*
X25621Y-19324D01*
X25680Y-19324D01*
X25858Y-19324D01*
X25916Y-19324D01*
X25916Y-19316D01*
X26015Y-19316D01*
X26015Y-19324D01*
X26252Y-19324D01*
X26314Y-19261D01*
X26314Y-19206D01*
X26276Y-19114D01*
X26206Y-19044D01*
X26193Y-19038D01*
X26193Y-19033D01*
X26193Y-18797D01*
X26173Y-18750D01*
X26137Y-18713D01*
X26090Y-18694D01*
X26039Y-18694D01*
X25842Y-18694D01*
X25794Y-18713D01*
X25768Y-18739D01*
X25743Y-18713D01*
X25696Y-18694D01*
X25645Y-18694D01*
X25448Y-18694D01*
X25400Y-18713D01*
X25375Y-18738D01*
X25350Y-18713D01*
X25303Y-18694D01*
X25252Y-18694D01*
X25055Y-18694D01*
X25007Y-18713D01*
X24971Y-18749D01*
X24967Y-18760D01*
X24740Y-18760D01*
X24740Y-18700D01*
X24725Y-18627D01*
X24684Y-18565D01*
X24684Y-18565D01*
X24347Y-18228D01*
X24285Y-18187D01*
X24248Y-18180D01*
X24208Y-18140D01*
X24259Y-18140D01*
X24471Y-18352D01*
X24471Y-18352D01*
X24527Y-18389D01*
X24558Y-18395D01*
X24569Y-18423D01*
X24605Y-18459D01*
X24653Y-18478D01*
X24704Y-18478D01*
X24717Y-18478D01*
X24722Y-18491D01*
X24792Y-18562D01*
X24884Y-18600D01*
X24901Y-18600D01*
X24964Y-18537D01*
X24964Y-18457D01*
X24978Y-18491D01*
X25023Y-18536D01*
X25023Y-18537D01*
X25085Y-18600D01*
X25102Y-18600D01*
X25121Y-18592D01*
X25140Y-18600D01*
X25157Y-18600D01*
X25220Y-18537D01*
X25220Y-18536D01*
X25264Y-18491D01*
X25279Y-18457D01*
X25279Y-18537D01*
X25341Y-18600D01*
X25358Y-18600D01*
X25450Y-18562D01*
X25520Y-18491D01*
X25558Y-18399D01*
X25558Y-18344D01*
X25496Y-18282D01*
X25279Y-18282D01*
X25279Y-18321D01*
X25240Y-18282D01*
X25220Y-18282D01*
X25023Y-18282D01*
X25003Y-18282D01*
X24964Y-18321D01*
X24964Y-18282D01*
X24935Y-18282D01*
X24935Y-18182D01*
X24964Y-18182D01*
X24964Y-18143D01*
X25003Y-18182D01*
X25023Y-18182D01*
X25220Y-18182D01*
X25240Y-18182D01*
X25248Y-18174D01*
X25279Y-18174D01*
X25279Y-18182D01*
X25496Y-18182D01*
X25558Y-18119D01*
X25558Y-18086D01*
X28369Y-18086D01*
X28384Y-18122D01*
X28420Y-18159D01*
X28468Y-18178D01*
X28519Y-18178D01*
X30304Y-18178D01*
X30304Y-18200D01*
X30244Y-18199D01*
X29506Y-18200D01*
X29444Y-18262D01*
X29444Y-18700D01*
X29451Y-18700D01*
X29451Y-18800D01*
X29444Y-18800D01*
X29444Y-19237D01*
X29506Y-19300D01*
X30244Y-19300D01*
X30304Y-19299D01*
X30304Y-23336D01*
M02*
