G04 (created by PCBNEW (22-Jun-2014 BZR 4027)-stable) date Fri 19 Dec 2014 02:00:51 PM EET*
%MOIN*%
G04 Gerber Fmt 3.4, Leading zero omitted, Abs format*
%FSLAX34Y34*%
G01*
G70*
G90*
G04 APERTURE LIST*
%ADD10C,0.00590551*%
%ADD11C,0.00787402*%
%ADD12C,0.0039*%
%ADD13C,0.005*%
%ADD14C,0.012*%
%ADD15C,0.008*%
%ADD16C,0.00393701*%
G04 APERTURE END LIST*
G54D10*
G54D11*
X26572Y-20091D02*
X26467Y-19866D01*
X26392Y-20091D02*
X26392Y-19618D01*
X26512Y-19618D01*
X26542Y-19640D01*
X26557Y-19663D01*
X26572Y-19708D01*
X26572Y-19776D01*
X26557Y-19821D01*
X26542Y-19843D01*
X26512Y-19866D01*
X26392Y-19866D01*
X26812Y-19843D02*
X26707Y-19843D01*
X26707Y-20091D02*
X26707Y-19618D01*
X26857Y-19618D01*
X27397Y-20046D02*
X27382Y-20068D01*
X27337Y-20091D01*
X27307Y-20091D01*
X27262Y-20068D01*
X27232Y-20023D01*
X27217Y-19978D01*
X27202Y-19888D01*
X27202Y-19821D01*
X27217Y-19731D01*
X27232Y-19686D01*
X27262Y-19640D01*
X27307Y-19618D01*
X27337Y-19618D01*
X27382Y-19640D01*
X27397Y-19663D01*
X27712Y-20046D02*
X27697Y-20068D01*
X27652Y-20091D01*
X27622Y-20091D01*
X27577Y-20068D01*
X27547Y-20023D01*
X27532Y-19978D01*
X27517Y-19888D01*
X27517Y-19821D01*
X27532Y-19731D01*
X27547Y-19686D01*
X27577Y-19640D01*
X27622Y-19618D01*
X27652Y-19618D01*
X27697Y-19640D01*
X27712Y-19663D01*
X27982Y-19776D02*
X27982Y-20091D01*
X27907Y-19595D02*
X27832Y-19933D01*
X28027Y-19933D01*
X28117Y-19618D02*
X28312Y-19618D01*
X28207Y-19798D01*
X28252Y-19798D01*
X28282Y-19821D01*
X28297Y-19843D01*
X28312Y-19888D01*
X28312Y-20001D01*
X28297Y-20046D01*
X28282Y-20068D01*
X28252Y-20091D01*
X28162Y-20091D01*
X28132Y-20068D01*
X28117Y-20046D01*
X28507Y-19618D02*
X28537Y-19618D01*
X28567Y-19640D01*
X28582Y-19663D01*
X28597Y-19708D01*
X28612Y-19798D01*
X28612Y-19911D01*
X28597Y-20001D01*
X28582Y-20046D01*
X28567Y-20068D01*
X28537Y-20091D01*
X28507Y-20091D01*
X28477Y-20068D01*
X28462Y-20046D01*
X28447Y-20001D01*
X28432Y-19911D01*
X28432Y-19798D01*
X28447Y-19708D01*
X28462Y-19663D01*
X28477Y-19640D01*
X28507Y-19618D01*
X28942Y-19618D02*
X29047Y-20091D01*
X29152Y-19618D01*
X29227Y-19618D02*
X29422Y-19618D01*
X29317Y-19798D01*
X29362Y-19798D01*
X29392Y-19821D01*
X29407Y-19843D01*
X29422Y-19888D01*
X29422Y-20001D01*
X29407Y-20046D01*
X29392Y-20068D01*
X29362Y-20091D01*
X29272Y-20091D01*
X29242Y-20068D01*
X29227Y-20046D01*
G54D12*
X19409Y-13661D02*
X30472Y-13661D01*
X19409Y-23504D02*
X19646Y-23504D01*
X19409Y-13661D02*
X19409Y-23504D01*
X30472Y-23504D02*
X19646Y-23504D01*
X30472Y-23465D02*
X30472Y-23504D01*
X30472Y-23386D02*
X30472Y-23465D01*
X30472Y-13661D02*
X30472Y-23386D01*
G54D13*
X21767Y-16795D02*
G75*
G03X21767Y-16795I-141J0D01*
G74*
G01*
G54D14*
X19950Y-14636D02*
X19950Y-13878D01*
X27933Y-13868D02*
X27933Y-14636D01*
X27933Y-13858D02*
X19950Y-13858D01*
X19950Y-14646D02*
X27933Y-14646D01*
X19950Y-23297D02*
X19950Y-22539D01*
X27933Y-22529D02*
X27933Y-23297D01*
X27933Y-22519D02*
X19950Y-22519D01*
X19950Y-23307D02*
X27933Y-23307D01*
G54D15*
X29245Y-22594D02*
X28745Y-22119D01*
X28745Y-22594D02*
X29995Y-22594D01*
X29995Y-22594D02*
X29995Y-21344D01*
X29995Y-21344D02*
X28745Y-21344D01*
X28745Y-21344D02*
X28745Y-22594D01*
G54D16*
X25407Y-18251D02*
X25367Y-18251D01*
X25407Y-17720D02*
X25367Y-17720D01*
X24580Y-17720D02*
X24619Y-17720D01*
X25407Y-17720D02*
X25407Y-18251D01*
X24619Y-18251D02*
X24580Y-18251D01*
X24580Y-18251D02*
X24580Y-17720D01*
G54D13*
X28700Y-14100D02*
X28700Y-15000D01*
X28700Y-15000D02*
X28200Y-15000D01*
X28200Y-15000D02*
X28200Y-14100D01*
X28200Y-14100D02*
X28700Y-14100D01*
G54D16*
X26979Y-21608D02*
G75*
G03X26979Y-21608I-78J0D01*
G74*
G01*
M02*
