G04 (created by PCBNEW (22-Jun-2014 BZR 4027)-stable) date Fri 19 Dec 2014 02:00:51 PM EET*
%MOIN*%
G04 Gerber Fmt 3.4, Leading zero omitted, Abs format*
%FSLAX34Y34*%
G01*
G70*
G90*
G04 APERTURE LIST*
%ADD10C,0.00590551*%
%ADD11C,0.0039*%
%ADD12O,0.031X0.0515*%
%ADD13O,0.0515X0.031*%
%ADD14R,0.2169X0.2169*%
%ADD15R,0.055X0.075*%
%ADD16R,0.0909X0.0672*%
%ADD17R,0.0397X0.0436*%
%ADD18R,0.0436X0.0397*%
%ADD19C,0.0653*%
%ADD20R,0.0653X0.0653*%
%ADD21R,0.035X0.07*%
%ADD22R,0.031811X0.043622*%
%ADD23R,0.2X0.08*%
%ADD24R,0.065X0.045*%
%ADD25R,0.0708661X0.106299*%
%ADD26O,0.0534646X0.0377165*%
G04 APERTURE END LIST*
G54D10*
G54D11*
X19409Y-13661D02*
X30472Y-13661D01*
X19409Y-23504D02*
X19646Y-23504D01*
X19409Y-13661D02*
X19409Y-23504D01*
X30472Y-23504D02*
X19646Y-23504D01*
X30472Y-23465D02*
X30472Y-23504D01*
X30472Y-23386D02*
X30472Y-23465D01*
X30472Y-13661D02*
X30472Y-23386D01*
G54D12*
X23406Y-16319D03*
X23603Y-16319D03*
X23210Y-16319D03*
X23013Y-16319D03*
X22620Y-16319D03*
X22817Y-16319D03*
X21636Y-16319D03*
X21439Y-16319D03*
X21832Y-16319D03*
X22029Y-16319D03*
X22422Y-16319D03*
X22225Y-16319D03*
G54D13*
X23878Y-17970D03*
X23878Y-17773D03*
X23878Y-18166D03*
X23878Y-18363D03*
X23878Y-18756D03*
X23878Y-18559D03*
X23878Y-17378D03*
X23878Y-17575D03*
X23878Y-17182D03*
X23878Y-16985D03*
X23878Y-16592D03*
X23878Y-16789D03*
X21162Y-16789D03*
X21162Y-16592D03*
X21162Y-16985D03*
X21162Y-17182D03*
X21162Y-17575D03*
X21162Y-17378D03*
X21162Y-18559D03*
X21162Y-18756D03*
X21162Y-18363D03*
X21162Y-18166D03*
X21162Y-17773D03*
X21162Y-17970D03*
G54D12*
X22225Y-19035D03*
X22422Y-19035D03*
X22029Y-19035D03*
X21832Y-19035D03*
X21439Y-19035D03*
X21636Y-19035D03*
X22817Y-19035D03*
X22620Y-19035D03*
X23013Y-19035D03*
X23210Y-19035D03*
X23603Y-19035D03*
X23406Y-19035D03*
G54D14*
X22520Y-17677D03*
G54D15*
X21987Y-15276D03*
X22737Y-15276D03*
G54D16*
X24252Y-20512D03*
X22678Y-21456D03*
X22678Y-20512D03*
X24252Y-21456D03*
G54D17*
X26041Y-15847D03*
X26041Y-15414D03*
X24741Y-15413D03*
X24741Y-15846D03*
X25966Y-19374D03*
X25966Y-18941D03*
G54D18*
X19822Y-18228D03*
X20255Y-18228D03*
G54D17*
X25572Y-19374D03*
X25572Y-18941D03*
X25607Y-15847D03*
X25607Y-15414D03*
X25179Y-19374D03*
X25179Y-18941D03*
X25174Y-15847D03*
X25174Y-15414D03*
G54D18*
X23799Y-19961D03*
X24232Y-19961D03*
G54D17*
X24300Y-15317D03*
X24300Y-14884D03*
G54D18*
X23209Y-19961D03*
X22776Y-19961D03*
X22145Y-19488D03*
X22578Y-19488D03*
X22798Y-15817D03*
X22365Y-15817D03*
G54D17*
X21496Y-15886D03*
X21496Y-15453D03*
G54D18*
X19940Y-17835D03*
X20373Y-17835D03*
G54D19*
X20433Y-14252D03*
X23582Y-14252D03*
X22795Y-14252D03*
X22007Y-14252D03*
X21220Y-14252D03*
X24370Y-14252D03*
X25157Y-14252D03*
X25945Y-14252D03*
G54D20*
X27519Y-14252D03*
G54D19*
X26732Y-14252D03*
X20433Y-22913D03*
X23582Y-22913D03*
X22795Y-22913D03*
X22007Y-22913D03*
X21220Y-22913D03*
X24370Y-22913D03*
X25157Y-22913D03*
X25945Y-22913D03*
G54D20*
X27519Y-22913D03*
G54D19*
X26732Y-22913D03*
G54D17*
X28386Y-22657D03*
X28386Y-23090D03*
X27874Y-21318D03*
X27874Y-21751D03*
G54D21*
X28986Y-22819D03*
X29242Y-22819D03*
X29498Y-22819D03*
X29754Y-22819D03*
X29754Y-21119D03*
X29498Y-21119D03*
X29242Y-21119D03*
X28986Y-21119D03*
G54D18*
X27893Y-20827D03*
X28326Y-20827D03*
G54D17*
X23800Y-15317D03*
X23800Y-14884D03*
G54D22*
X25249Y-17740D03*
X24993Y-17740D03*
X24737Y-17740D03*
X24737Y-18232D03*
X24993Y-18232D03*
X25249Y-18232D03*
G54D23*
X29394Y-16750D03*
X29394Y-17750D03*
X29394Y-18750D03*
X29394Y-18750D03*
X29394Y-16750D03*
G54D24*
X28450Y-14250D03*
X28450Y-14850D03*
G54D18*
X27333Y-15200D03*
X27766Y-15200D03*
G54D17*
X25200Y-21317D03*
X25200Y-20884D03*
G54D25*
X26350Y-20900D03*
G54D26*
X26920Y-21293D03*
X26920Y-20900D03*
X26920Y-20506D03*
X25779Y-20506D03*
X25779Y-20900D03*
X25779Y-21274D03*
M02*
