G04 (created by PCBNEW-RS274X (2012-apr-16-27)-stable) date Sun 17 Nov 2013 02:19:30 PM EET*
G01*
G70*
G90*
%MOIN*%
G04 Gerber Fmt 3.4, Leading zero omitted, Abs format*
%FSLAX34Y34*%
G04 APERTURE LIST*
%ADD10C,0.006000*%
%ADD11C,0.015000*%
%ADD12R,0.017700X0.025600*%
%ADD13R,0.025600X0.017700*%
%ADD14R,0.062000X0.062000*%
%ADD15C,0.062000*%
%ADD16R,0.049200X0.072900*%
%ADD17R,0.088600X0.013800*%
%ADD18R,0.013800X0.088600*%
%ADD19R,0.041400X0.029600*%
%ADD20R,0.027000X0.047000*%
%ADD21R,0.049200X0.049200*%
%ADD22R,0.146000X0.082000*%
%ADD23R,0.042000X0.082000*%
%ADD24R,0.062900X0.051100*%
%ADD25R,0.018000X0.041400*%
%ADD26R,0.051100X0.062900*%
%ADD27R,0.041400X0.018000*%
%ADD28R,0.074800X0.017700*%
%ADD29C,0.051200*%
%ADD30C,0.063000*%
G04 APERTURE END LIST*
G54D10*
G54D11*
X24800Y-29700D02*
X24800Y-11450D01*
X37000Y-29700D02*
X24800Y-29700D01*
X37000Y-11450D02*
X37000Y-29700D01*
X24800Y-11450D02*
X37000Y-11450D01*
G54D12*
X34673Y-24300D03*
X35027Y-24300D03*
G54D13*
X26200Y-22223D03*
X26200Y-22577D03*
X25700Y-22223D03*
X25700Y-22577D03*
X26250Y-15623D03*
X26250Y-15977D03*
G54D12*
X34977Y-19300D03*
X34623Y-19300D03*
G54D13*
X34650Y-17623D03*
X34650Y-17977D03*
X29350Y-15527D03*
X29350Y-15173D03*
X28600Y-20573D03*
X28600Y-20927D03*
G54D12*
X32723Y-15300D03*
X33077Y-15300D03*
X32877Y-21850D03*
X32523Y-21850D03*
X35027Y-21100D03*
X34673Y-21100D03*
G54D13*
X26250Y-17177D03*
X26250Y-16823D03*
G54D12*
X27777Y-20100D03*
X27423Y-20100D03*
G54D13*
X29850Y-15527D03*
X29850Y-15173D03*
G54D14*
X25400Y-13050D03*
G54D15*
X25400Y-12050D03*
X26400Y-13050D03*
X26400Y-12050D03*
X27400Y-13050D03*
X27400Y-12050D03*
X28400Y-13050D03*
X28400Y-12050D03*
X29400Y-13050D03*
X29400Y-12050D03*
X30400Y-13050D03*
X30400Y-12050D03*
X31400Y-13050D03*
X31400Y-12050D03*
X32400Y-13050D03*
X32400Y-12050D03*
X33400Y-13050D03*
X33400Y-12050D03*
X34400Y-13050D03*
X34400Y-12050D03*
X35400Y-13050D03*
X35400Y-12050D03*
X36400Y-13050D03*
X36400Y-12050D03*
G54D14*
X25400Y-29050D03*
G54D15*
X25400Y-28050D03*
X26400Y-29050D03*
X26400Y-28050D03*
X27400Y-29050D03*
X27400Y-28050D03*
X28400Y-29050D03*
X28400Y-28050D03*
X29400Y-29050D03*
X29400Y-28050D03*
X30400Y-29050D03*
X30400Y-28050D03*
X31400Y-29050D03*
X31400Y-28050D03*
X32400Y-29050D03*
X32400Y-28050D03*
X33400Y-29050D03*
X33400Y-28050D03*
X34400Y-29050D03*
X34400Y-28050D03*
X35400Y-29050D03*
X35400Y-28050D03*
X36400Y-29050D03*
X36400Y-28050D03*
G54D16*
X34378Y-21963D03*
X35322Y-23537D03*
X34378Y-23537D03*
X35322Y-21963D03*
G54D14*
X25400Y-19400D03*
G54D15*
X25400Y-18400D03*
X25400Y-17400D03*
X25400Y-16400D03*
X25400Y-15400D03*
X25400Y-14400D03*
G54D17*
X33364Y-20276D03*
X33364Y-20080D03*
X33364Y-19883D03*
X33364Y-19686D03*
X33364Y-19489D03*
X33364Y-19292D03*
X33364Y-19095D03*
X33364Y-18898D03*
X33364Y-18702D03*
X33364Y-18505D03*
X33364Y-18308D03*
X33364Y-18111D03*
X33364Y-17914D03*
X33364Y-17717D03*
X33364Y-17520D03*
X33364Y-17324D03*
G54D18*
X32576Y-16536D03*
X32380Y-16536D03*
X32183Y-16536D03*
X31986Y-16536D03*
X31789Y-16536D03*
X31592Y-16536D03*
X31395Y-16536D03*
X31198Y-16536D03*
X31002Y-16536D03*
X30805Y-16536D03*
X30608Y-16536D03*
X30431Y-16536D03*
X30214Y-16536D03*
X30017Y-16536D03*
X29820Y-16536D03*
X29624Y-16536D03*
G54D17*
X28836Y-17324D03*
X28836Y-17520D03*
X28836Y-17717D03*
X28836Y-17914D03*
X28836Y-18308D03*
X28836Y-18505D03*
X28836Y-18702D03*
X28836Y-18898D03*
X28836Y-19095D03*
X28836Y-19292D03*
X28836Y-19489D03*
X28836Y-19686D03*
X28836Y-19883D03*
X28836Y-20080D03*
X28836Y-20276D03*
G54D18*
X29624Y-21064D03*
X29820Y-21064D03*
X30017Y-21064D03*
X30214Y-21064D03*
X30411Y-21064D03*
X30608Y-21064D03*
X30805Y-21064D03*
X31002Y-21064D03*
X31198Y-21064D03*
X31395Y-21064D03*
X31592Y-21064D03*
X31789Y-21064D03*
X31986Y-21064D03*
X32183Y-21064D03*
X32380Y-21064D03*
X32576Y-21064D03*
G54D17*
X28836Y-18111D03*
G54D19*
X26350Y-20475D03*
X26350Y-20850D03*
X26350Y-21225D03*
X25350Y-21225D03*
X25350Y-20850D03*
X25350Y-20475D03*
G54D20*
X27900Y-22800D03*
X27300Y-22800D03*
G54D21*
X34900Y-26013D03*
X34900Y-25187D03*
G54D12*
X35077Y-26700D03*
X34723Y-26700D03*
G54D22*
X28200Y-26300D03*
G54D23*
X28200Y-23700D03*
X27300Y-23700D03*
X29100Y-23700D03*
G54D20*
X28550Y-21400D03*
X27950Y-21400D03*
G54D24*
X32750Y-24104D03*
X32750Y-23296D03*
G54D25*
X32750Y-23700D03*
G54D26*
X28496Y-22100D03*
X29304Y-22100D03*
G54D27*
X28900Y-22100D03*
G54D26*
X27046Y-22100D03*
X27854Y-22100D03*
G54D27*
X27450Y-22100D03*
G54D28*
X26531Y-24600D03*
X26531Y-24856D03*
X26531Y-25112D03*
X26531Y-24344D03*
X26531Y-24088D03*
G54D29*
X26413Y-25584D03*
X26413Y-23616D03*
G54D30*
X25350Y-25978D03*
X25350Y-23222D03*
M02*
