G04 (created by PCBNEW-RS274X (2012-apr-16-27)-stable) date Sun 17 Nov 2013 02:19:30 PM EET*
G01*
G70*
G90*
%MOIN*%
G04 Gerber Fmt 3.4, Leading zero omitted, Abs format*
%FSLAX34Y34*%
G04 APERTURE LIST*
%ADD10C,0.006000*%
%ADD11C,0.007500*%
%ADD12C,0.006300*%
%ADD13C,0.003900*%
%ADD14C,0.005000*%
%ADD15C,0.015000*%
%ADD16C,0.012000*%
%ADD17C,0.002600*%
%ADD18C,0.004000*%
%ADD19C,0.002000*%
%ADD20C,0.008000*%
G04 APERTURE END LIST*
G54D10*
G54D11*
X27243Y-20812D02*
X27100Y-20812D01*
X27086Y-21002D01*
X27100Y-20983D01*
X27129Y-20964D01*
X27200Y-20964D01*
X27229Y-20983D01*
X27243Y-21002D01*
X27258Y-21040D01*
X27258Y-21136D01*
X27243Y-21174D01*
X27229Y-21193D01*
X27200Y-21212D01*
X27129Y-21212D01*
X27100Y-21193D01*
X27086Y-21174D01*
X27344Y-20812D02*
X27444Y-21212D01*
X27544Y-20812D01*
X29722Y-21912D02*
X29908Y-21912D01*
X29808Y-22064D01*
X29850Y-22064D01*
X29879Y-22083D01*
X29893Y-22102D01*
X29908Y-22140D01*
X29908Y-22236D01*
X29893Y-22274D01*
X29879Y-22293D01*
X29850Y-22312D01*
X29765Y-22312D01*
X29736Y-22293D01*
X29722Y-22274D01*
X29994Y-21912D02*
X30094Y-22312D01*
X30194Y-21912D01*
X33638Y-23158D02*
X33238Y-23258D01*
X33638Y-23358D01*
X33448Y-23557D02*
X33429Y-23600D01*
X33410Y-23615D01*
X33371Y-23629D01*
X33314Y-23629D01*
X33276Y-23615D01*
X33257Y-23600D01*
X33238Y-23572D01*
X33238Y-23457D01*
X33638Y-23457D01*
X33638Y-23557D01*
X33619Y-23586D01*
X33600Y-23600D01*
X33562Y-23615D01*
X33524Y-23615D01*
X33486Y-23600D01*
X33467Y-23586D01*
X33448Y-23557D01*
X33448Y-23457D01*
X33352Y-23743D02*
X33352Y-23886D01*
X33238Y-23715D02*
X33638Y-23815D01*
X33238Y-23915D01*
X33638Y-23972D02*
X33638Y-24143D01*
X33238Y-24057D02*
X33638Y-24057D01*
X36362Y-23230D02*
X35962Y-23230D01*
X36248Y-23130D01*
X35962Y-23030D01*
X36362Y-23030D01*
X36324Y-22715D02*
X36343Y-22729D01*
X36362Y-22772D01*
X36362Y-22801D01*
X36343Y-22844D01*
X36305Y-22872D01*
X36267Y-22887D01*
X36190Y-22901D01*
X36133Y-22901D01*
X36057Y-22887D01*
X36019Y-22872D01*
X35981Y-22844D01*
X35962Y-22801D01*
X35962Y-22772D01*
X35981Y-22729D01*
X36000Y-22715D01*
X35962Y-22587D02*
X36286Y-22587D01*
X36324Y-22572D01*
X36343Y-22558D01*
X36362Y-22529D01*
X36362Y-22472D01*
X36343Y-22444D01*
X36324Y-22429D01*
X36286Y-22415D01*
X35962Y-22415D01*
X36152Y-21944D02*
X36171Y-21901D01*
X36190Y-21886D01*
X36229Y-21872D01*
X36286Y-21872D01*
X36324Y-21886D01*
X36343Y-21901D01*
X36362Y-21929D01*
X36362Y-22044D01*
X35962Y-22044D01*
X35962Y-21944D01*
X35981Y-21915D01*
X36000Y-21901D01*
X36038Y-21886D01*
X36076Y-21886D01*
X36114Y-21901D01*
X36133Y-21915D01*
X36152Y-21944D01*
X36152Y-22044D01*
X35962Y-21686D02*
X35962Y-21629D01*
X35981Y-21601D01*
X36019Y-21572D01*
X36095Y-21558D01*
X36229Y-21558D01*
X36305Y-21572D01*
X36343Y-21601D01*
X36362Y-21629D01*
X36362Y-21686D01*
X36343Y-21715D01*
X36305Y-21744D01*
X36229Y-21758D01*
X36095Y-21758D01*
X36019Y-21744D01*
X35981Y-21715D01*
X35962Y-21686D01*
X36248Y-21444D02*
X36248Y-21301D01*
X36362Y-21472D02*
X35962Y-21372D01*
X36362Y-21272D01*
X36362Y-21001D02*
X36171Y-21101D01*
X36362Y-21173D02*
X35962Y-21173D01*
X35962Y-21058D01*
X35981Y-21030D01*
X36000Y-21015D01*
X36038Y-21001D01*
X36095Y-21001D01*
X36133Y-21015D01*
X36152Y-21030D01*
X36171Y-21058D01*
X36171Y-21173D01*
X36362Y-20873D02*
X35962Y-20873D01*
X35962Y-20801D01*
X35981Y-20758D01*
X36019Y-20730D01*
X36057Y-20715D01*
X36133Y-20701D01*
X36190Y-20701D01*
X36267Y-20715D01*
X36305Y-20730D01*
X36343Y-20758D01*
X36362Y-20801D01*
X36362Y-20873D01*
X36343Y-20358D02*
X36362Y-20315D01*
X36362Y-20244D01*
X36343Y-20215D01*
X36324Y-20201D01*
X36286Y-20186D01*
X36248Y-20186D01*
X36210Y-20201D01*
X36190Y-20215D01*
X36171Y-20244D01*
X36152Y-20301D01*
X36133Y-20329D01*
X36114Y-20344D01*
X36076Y-20358D01*
X36038Y-20358D01*
X36000Y-20344D01*
X35981Y-20329D01*
X35962Y-20301D01*
X35962Y-20229D01*
X35981Y-20186D01*
X35962Y-20100D02*
X35962Y-19929D01*
X36362Y-20015D02*
X35962Y-20015D01*
X36362Y-19829D02*
X35962Y-19829D01*
X36248Y-19729D01*
X35962Y-19629D01*
X36362Y-19629D01*
X35962Y-19514D02*
X35962Y-19328D01*
X36114Y-19428D01*
X36114Y-19386D01*
X36133Y-19357D01*
X36152Y-19343D01*
X36190Y-19328D01*
X36286Y-19328D01*
X36324Y-19343D01*
X36343Y-19357D01*
X36362Y-19386D01*
X36362Y-19471D01*
X36343Y-19500D01*
X36324Y-19514D01*
X36000Y-19214D02*
X35981Y-19200D01*
X35962Y-19171D01*
X35962Y-19100D01*
X35981Y-19071D01*
X36000Y-19057D01*
X36038Y-19042D01*
X36076Y-19042D01*
X36133Y-19057D01*
X36362Y-19228D01*
X36362Y-19042D01*
X36152Y-18814D02*
X36152Y-18914D01*
X36362Y-18914D02*
X35962Y-18914D01*
X35962Y-18771D01*
X36095Y-18528D02*
X36362Y-18528D01*
X35943Y-18599D02*
X36229Y-18671D01*
X36229Y-18485D01*
X36095Y-18170D02*
X36362Y-18099D01*
X36095Y-18027D01*
X36362Y-17755D02*
X36362Y-17927D01*
X36362Y-17841D02*
X35962Y-17841D01*
X36019Y-17870D01*
X36057Y-17898D01*
X36076Y-17927D01*
X26129Y-14662D02*
X26229Y-15062D01*
X26329Y-14662D01*
X26428Y-15062D02*
X26428Y-14662D01*
X26500Y-14662D01*
X26543Y-14681D01*
X26571Y-14719D01*
X26586Y-14757D01*
X26600Y-14833D01*
X26600Y-14890D01*
X26586Y-14967D01*
X26571Y-15005D01*
X26543Y-15043D01*
X26500Y-15062D01*
X26428Y-15062D01*
X26728Y-15062D02*
X26728Y-14662D01*
X26800Y-14662D01*
X26843Y-14681D01*
X26871Y-14719D01*
X26886Y-14757D01*
X26900Y-14833D01*
X26900Y-14890D01*
X26886Y-14967D01*
X26871Y-15005D01*
X26843Y-15043D01*
X26800Y-15062D01*
X26728Y-15062D01*
X26771Y-15352D02*
X26814Y-15371D01*
X26829Y-15390D01*
X26843Y-15429D01*
X26843Y-15486D01*
X26829Y-15524D01*
X26814Y-15543D01*
X26786Y-15562D01*
X26671Y-15562D01*
X26671Y-15162D01*
X26771Y-15162D01*
X26800Y-15181D01*
X26814Y-15200D01*
X26829Y-15238D01*
X26829Y-15276D01*
X26814Y-15314D01*
X26800Y-15333D01*
X26771Y-15352D01*
X26671Y-15352D01*
X27029Y-15162D02*
X27086Y-15162D01*
X27114Y-15181D01*
X27143Y-15219D01*
X27157Y-15295D01*
X27157Y-15429D01*
X27143Y-15505D01*
X27114Y-15543D01*
X27086Y-15562D01*
X27029Y-15562D01*
X27000Y-15543D01*
X26971Y-15505D01*
X26957Y-15429D01*
X26957Y-15295D01*
X26971Y-15219D01*
X27000Y-15181D01*
X27029Y-15162D01*
X27343Y-15162D02*
X27400Y-15162D01*
X27428Y-15181D01*
X27457Y-15219D01*
X27471Y-15295D01*
X27471Y-15429D01*
X27457Y-15505D01*
X27428Y-15543D01*
X27400Y-15562D01*
X27343Y-15562D01*
X27314Y-15543D01*
X27285Y-15505D01*
X27271Y-15429D01*
X27271Y-15295D01*
X27285Y-15219D01*
X27314Y-15181D01*
X27343Y-15162D01*
X27557Y-15162D02*
X27728Y-15162D01*
X27642Y-15562D02*
X27642Y-15162D01*
X27886Y-15162D02*
X27914Y-15162D01*
X27943Y-15181D01*
X27957Y-15200D01*
X27971Y-15238D01*
X27986Y-15314D01*
X27986Y-15410D01*
X27971Y-15486D01*
X27957Y-15524D01*
X27943Y-15543D01*
X27914Y-15562D01*
X27886Y-15562D01*
X27857Y-15543D01*
X27843Y-15524D01*
X27828Y-15486D01*
X27814Y-15410D01*
X27814Y-15314D01*
X27828Y-15238D01*
X27843Y-15200D01*
X27857Y-15181D01*
X27886Y-15162D01*
X26829Y-16181D02*
X26800Y-16162D01*
X26757Y-16162D01*
X26714Y-16181D01*
X26686Y-16219D01*
X26671Y-16257D01*
X26657Y-16333D01*
X26657Y-16390D01*
X26671Y-16467D01*
X26686Y-16505D01*
X26714Y-16543D01*
X26757Y-16562D01*
X26786Y-16562D01*
X26829Y-16543D01*
X26843Y-16524D01*
X26843Y-16390D01*
X26786Y-16390D01*
X26971Y-16562D02*
X26971Y-16162D01*
X27143Y-16562D01*
X27143Y-16162D01*
X27285Y-16562D02*
X27285Y-16162D01*
X27357Y-16162D01*
X27400Y-16181D01*
X27428Y-16219D01*
X27443Y-16257D01*
X27457Y-16333D01*
X27457Y-16390D01*
X27443Y-16467D01*
X27428Y-16505D01*
X27400Y-16543D01*
X27357Y-16562D01*
X27285Y-16562D01*
X26671Y-17562D02*
X26671Y-17162D01*
X26843Y-17562D01*
X26843Y-17162D01*
X27157Y-17562D02*
X27057Y-17371D01*
X26985Y-17562D02*
X26985Y-17162D01*
X27100Y-17162D01*
X27128Y-17181D01*
X27143Y-17200D01*
X27157Y-17238D01*
X27157Y-17295D01*
X27143Y-17333D01*
X27128Y-17352D01*
X27100Y-17371D01*
X26985Y-17371D01*
X27271Y-17543D02*
X27314Y-17562D01*
X27385Y-17562D01*
X27414Y-17543D01*
X27428Y-17524D01*
X27443Y-17486D01*
X27443Y-17448D01*
X27428Y-17410D01*
X27414Y-17390D01*
X27385Y-17371D01*
X27328Y-17352D01*
X27300Y-17333D01*
X27285Y-17314D01*
X27271Y-17276D01*
X27271Y-17238D01*
X27285Y-17200D01*
X27300Y-17181D01*
X27328Y-17162D01*
X27400Y-17162D01*
X27443Y-17181D01*
X27529Y-17162D02*
X27700Y-17162D01*
X27614Y-17562D02*
X27614Y-17162D01*
X26257Y-18543D02*
X26300Y-18562D01*
X26371Y-18562D01*
X26400Y-18543D01*
X26414Y-18524D01*
X26429Y-18486D01*
X26429Y-18448D01*
X26414Y-18410D01*
X26400Y-18390D01*
X26371Y-18371D01*
X26314Y-18352D01*
X26286Y-18333D01*
X26271Y-18314D01*
X26257Y-18276D01*
X26257Y-18238D01*
X26271Y-18200D01*
X26286Y-18181D01*
X26314Y-18162D01*
X26386Y-18162D01*
X26429Y-18181D01*
X26529Y-18162D02*
X26600Y-18562D01*
X26657Y-18276D01*
X26715Y-18562D01*
X26786Y-18162D01*
X26900Y-18562D02*
X26900Y-18162D01*
X26972Y-18162D01*
X27015Y-18181D01*
X27043Y-18219D01*
X27058Y-18257D01*
X27072Y-18333D01*
X27072Y-18390D01*
X27058Y-18467D01*
X27043Y-18505D01*
X27015Y-18543D01*
X26972Y-18562D01*
X26900Y-18562D01*
X27200Y-18562D02*
X27200Y-18162D01*
X27401Y-18162D02*
X27458Y-18162D01*
X27486Y-18181D01*
X27515Y-18219D01*
X27529Y-18295D01*
X27529Y-18429D01*
X27515Y-18505D01*
X27486Y-18543D01*
X27458Y-18562D01*
X27401Y-18562D01*
X27372Y-18543D01*
X27343Y-18505D01*
X27329Y-18429D01*
X27329Y-18295D01*
X27343Y-18219D01*
X27372Y-18181D01*
X27401Y-18162D01*
X26157Y-19543D02*
X26200Y-19562D01*
X26271Y-19562D01*
X26300Y-19543D01*
X26314Y-19524D01*
X26329Y-19486D01*
X26329Y-19448D01*
X26314Y-19410D01*
X26300Y-19390D01*
X26271Y-19371D01*
X26214Y-19352D01*
X26186Y-19333D01*
X26171Y-19314D01*
X26157Y-19276D01*
X26157Y-19238D01*
X26171Y-19200D01*
X26186Y-19181D01*
X26214Y-19162D01*
X26286Y-19162D01*
X26329Y-19181D01*
X26429Y-19162D02*
X26500Y-19562D01*
X26557Y-19276D01*
X26615Y-19562D01*
X26686Y-19162D01*
X26972Y-19524D02*
X26958Y-19543D01*
X26915Y-19562D01*
X26886Y-19562D01*
X26843Y-19543D01*
X26815Y-19505D01*
X26800Y-19467D01*
X26786Y-19390D01*
X26786Y-19333D01*
X26800Y-19257D01*
X26815Y-19219D01*
X26843Y-19181D01*
X26886Y-19162D01*
X26915Y-19162D01*
X26958Y-19181D01*
X26972Y-19200D01*
X27243Y-19562D02*
X27100Y-19562D01*
X27100Y-19162D01*
X27343Y-19562D02*
X27343Y-19162D01*
X27515Y-19562D02*
X27386Y-19333D01*
X27515Y-19162D02*
X27343Y-19390D01*
G54D12*
X30271Y-15342D02*
X30271Y-14992D01*
X30390Y-15342D02*
X30390Y-14992D01*
X30532Y-15342D01*
X30532Y-14992D01*
X30652Y-15342D02*
X30652Y-14992D01*
X30794Y-15342D01*
X30794Y-14992D01*
X30914Y-15158D02*
X30997Y-15158D01*
X31033Y-15342D02*
X30914Y-15342D01*
X30914Y-14992D01*
X31033Y-14992D01*
X31282Y-15342D02*
X31199Y-15175D01*
X31140Y-15342D02*
X31140Y-14992D01*
X31235Y-14992D01*
X31259Y-15008D01*
X31270Y-15025D01*
X31282Y-15058D01*
X31282Y-15108D01*
X31270Y-15142D01*
X31259Y-15158D01*
X31235Y-15175D01*
X31140Y-15175D01*
X31580Y-15342D02*
X31580Y-14992D01*
X31675Y-14992D01*
X31699Y-15008D01*
X31710Y-15025D01*
X31722Y-15058D01*
X31722Y-15108D01*
X31710Y-15142D01*
X31699Y-15158D01*
X31675Y-15175D01*
X31580Y-15175D01*
X31830Y-15342D02*
X31830Y-14992D01*
X31949Y-15342D02*
X31949Y-14992D01*
X32091Y-15342D01*
X32091Y-14992D01*
X32199Y-15325D02*
X32234Y-15342D01*
X32294Y-15342D01*
X32318Y-15325D01*
X32330Y-15308D01*
X32341Y-15275D01*
X32341Y-15242D01*
X32330Y-15208D01*
X32318Y-15192D01*
X32294Y-15175D01*
X32246Y-15158D01*
X32222Y-15142D01*
X32211Y-15125D01*
X32199Y-15092D01*
X32199Y-15058D01*
X32211Y-15025D01*
X32222Y-15008D01*
X32246Y-14992D01*
X32306Y-14992D01*
X32341Y-15008D01*
G54D11*
X36562Y-14472D02*
X36162Y-14472D01*
X36162Y-14357D01*
X36181Y-14329D01*
X36200Y-14314D01*
X36238Y-14300D01*
X36295Y-14300D01*
X36333Y-14314D01*
X36352Y-14329D01*
X36371Y-14357D01*
X36371Y-14472D01*
X36448Y-14186D02*
X36448Y-14043D01*
X36562Y-14214D02*
X36162Y-14114D01*
X36562Y-14014D01*
X36562Y-13757D02*
X36562Y-13929D01*
X36562Y-13843D02*
X36162Y-13843D01*
X36219Y-13872D01*
X36257Y-13900D01*
X36276Y-13929D01*
X35562Y-14472D02*
X35162Y-14472D01*
X35162Y-14357D01*
X35181Y-14329D01*
X35200Y-14314D01*
X35238Y-14300D01*
X35295Y-14300D01*
X35333Y-14314D01*
X35352Y-14329D01*
X35371Y-14357D01*
X35371Y-14472D01*
X35448Y-14186D02*
X35448Y-14043D01*
X35562Y-14214D02*
X35162Y-14114D01*
X35562Y-14014D01*
X35162Y-13943D02*
X35162Y-13757D01*
X35314Y-13857D01*
X35314Y-13815D01*
X35333Y-13786D01*
X35352Y-13772D01*
X35390Y-13757D01*
X35486Y-13757D01*
X35524Y-13772D01*
X35543Y-13786D01*
X35562Y-13815D01*
X35562Y-13900D01*
X35543Y-13929D01*
X35524Y-13943D01*
X34562Y-14472D02*
X34162Y-14472D01*
X34162Y-14357D01*
X34181Y-14329D01*
X34200Y-14314D01*
X34238Y-14300D01*
X34295Y-14300D01*
X34333Y-14314D01*
X34352Y-14329D01*
X34371Y-14357D01*
X34371Y-14472D01*
X34448Y-14186D02*
X34448Y-14043D01*
X34562Y-14214D02*
X34162Y-14114D01*
X34562Y-14014D01*
X34162Y-13772D02*
X34162Y-13915D01*
X34352Y-13929D01*
X34333Y-13915D01*
X34314Y-13886D01*
X34314Y-13815D01*
X34333Y-13786D01*
X34352Y-13772D01*
X34390Y-13757D01*
X34486Y-13757D01*
X34524Y-13772D01*
X34543Y-13786D01*
X34562Y-13815D01*
X34562Y-13886D01*
X34543Y-13915D01*
X34524Y-13929D01*
X33562Y-14472D02*
X33162Y-14472D01*
X33162Y-14357D01*
X33181Y-14329D01*
X33200Y-14314D01*
X33238Y-14300D01*
X33295Y-14300D01*
X33333Y-14314D01*
X33352Y-14329D01*
X33371Y-14357D01*
X33371Y-14472D01*
X33448Y-14186D02*
X33448Y-14043D01*
X33562Y-14214D02*
X33162Y-14114D01*
X33562Y-14014D01*
X33162Y-13943D02*
X33162Y-13743D01*
X33562Y-13872D01*
X32562Y-14515D02*
X32162Y-14515D01*
X32162Y-14400D01*
X32181Y-14372D01*
X32200Y-14357D01*
X32238Y-14343D01*
X32295Y-14343D01*
X32333Y-14357D01*
X32352Y-14372D01*
X32371Y-14400D01*
X32371Y-14515D01*
X32524Y-14043D02*
X32543Y-14057D01*
X32562Y-14100D01*
X32562Y-14129D01*
X32543Y-14172D01*
X32505Y-14200D01*
X32467Y-14215D01*
X32390Y-14229D01*
X32333Y-14229D01*
X32257Y-14215D01*
X32219Y-14200D01*
X32181Y-14172D01*
X32162Y-14129D01*
X32162Y-14100D01*
X32181Y-14057D01*
X32200Y-14043D01*
X32162Y-13772D02*
X32162Y-13915D01*
X32352Y-13929D01*
X32333Y-13915D01*
X32314Y-13886D01*
X32314Y-13815D01*
X32333Y-13786D01*
X32352Y-13772D01*
X32390Y-13757D01*
X32486Y-13757D01*
X32524Y-13772D01*
X32543Y-13786D01*
X32562Y-13815D01*
X32562Y-13886D01*
X32543Y-13915D01*
X32524Y-13929D01*
X31562Y-14515D02*
X31162Y-14515D01*
X31162Y-14400D01*
X31181Y-14372D01*
X31200Y-14357D01*
X31238Y-14343D01*
X31295Y-14343D01*
X31333Y-14357D01*
X31352Y-14372D01*
X31371Y-14400D01*
X31371Y-14515D01*
X31352Y-14115D02*
X31371Y-14072D01*
X31390Y-14057D01*
X31429Y-14043D01*
X31486Y-14043D01*
X31524Y-14057D01*
X31543Y-14072D01*
X31562Y-14100D01*
X31562Y-14215D01*
X31162Y-14215D01*
X31162Y-14115D01*
X31181Y-14086D01*
X31200Y-14072D01*
X31238Y-14057D01*
X31276Y-14057D01*
X31314Y-14072D01*
X31333Y-14086D01*
X31352Y-14115D01*
X31352Y-14215D01*
X31562Y-13757D02*
X31562Y-13929D01*
X31562Y-13843D02*
X31162Y-13843D01*
X31219Y-13872D01*
X31257Y-13900D01*
X31276Y-13929D01*
X30562Y-14801D02*
X30162Y-14801D01*
X30162Y-14686D01*
X30181Y-14658D01*
X30200Y-14643D01*
X30238Y-14629D01*
X30295Y-14629D01*
X30333Y-14643D01*
X30352Y-14658D01*
X30371Y-14686D01*
X30371Y-14801D01*
X30352Y-14401D02*
X30371Y-14358D01*
X30390Y-14343D01*
X30429Y-14329D01*
X30486Y-14329D01*
X30524Y-14343D01*
X30543Y-14358D01*
X30562Y-14386D01*
X30562Y-14501D01*
X30162Y-14501D01*
X30162Y-14401D01*
X30181Y-14372D01*
X30200Y-14358D01*
X30238Y-14343D01*
X30276Y-14343D01*
X30314Y-14358D01*
X30333Y-14372D01*
X30352Y-14401D01*
X30352Y-14501D01*
X30562Y-14043D02*
X30562Y-14215D01*
X30562Y-14129D02*
X30162Y-14129D01*
X30219Y-14158D01*
X30257Y-14186D01*
X30276Y-14215D01*
X30562Y-13757D02*
X30562Y-13929D01*
X30562Y-13843D02*
X30162Y-13843D01*
X30219Y-13872D01*
X30257Y-13900D01*
X30276Y-13929D01*
X29562Y-14801D02*
X29162Y-14801D01*
X29162Y-14686D01*
X29181Y-14658D01*
X29200Y-14643D01*
X29238Y-14629D01*
X29295Y-14629D01*
X29333Y-14643D01*
X29352Y-14658D01*
X29371Y-14686D01*
X29371Y-14801D01*
X29352Y-14401D02*
X29371Y-14358D01*
X29390Y-14343D01*
X29429Y-14329D01*
X29486Y-14329D01*
X29524Y-14343D01*
X29543Y-14358D01*
X29562Y-14386D01*
X29562Y-14501D01*
X29162Y-14501D01*
X29162Y-14401D01*
X29181Y-14372D01*
X29200Y-14358D01*
X29238Y-14343D01*
X29276Y-14343D01*
X29314Y-14358D01*
X29333Y-14372D01*
X29352Y-14401D01*
X29352Y-14501D01*
X29562Y-14043D02*
X29562Y-14215D01*
X29562Y-14129D02*
X29162Y-14129D01*
X29219Y-14158D01*
X29257Y-14186D01*
X29276Y-14215D01*
X29162Y-13943D02*
X29162Y-13757D01*
X29314Y-13857D01*
X29314Y-13815D01*
X29333Y-13786D01*
X29352Y-13772D01*
X29390Y-13757D01*
X29486Y-13757D01*
X29524Y-13772D01*
X29543Y-13786D01*
X29562Y-13815D01*
X29562Y-13900D01*
X29543Y-13929D01*
X29524Y-13943D01*
X28562Y-14801D02*
X28162Y-14801D01*
X28162Y-14686D01*
X28181Y-14658D01*
X28200Y-14643D01*
X28238Y-14629D01*
X28295Y-14629D01*
X28333Y-14643D01*
X28352Y-14658D01*
X28371Y-14686D01*
X28371Y-14801D01*
X28352Y-14401D02*
X28371Y-14358D01*
X28390Y-14343D01*
X28429Y-14329D01*
X28486Y-14329D01*
X28524Y-14343D01*
X28543Y-14358D01*
X28562Y-14386D01*
X28562Y-14501D01*
X28162Y-14501D01*
X28162Y-14401D01*
X28181Y-14372D01*
X28200Y-14358D01*
X28238Y-14343D01*
X28276Y-14343D01*
X28314Y-14358D01*
X28333Y-14372D01*
X28352Y-14401D01*
X28352Y-14501D01*
X28562Y-14043D02*
X28562Y-14215D01*
X28562Y-14129D02*
X28162Y-14129D01*
X28219Y-14158D01*
X28257Y-14186D01*
X28276Y-14215D01*
X28162Y-13772D02*
X28162Y-13915D01*
X28352Y-13929D01*
X28333Y-13915D01*
X28314Y-13886D01*
X28314Y-13815D01*
X28333Y-13786D01*
X28352Y-13772D01*
X28390Y-13757D01*
X28486Y-13757D01*
X28524Y-13772D01*
X28543Y-13786D01*
X28562Y-13815D01*
X28562Y-13886D01*
X28543Y-13915D01*
X28524Y-13929D01*
X27562Y-14515D02*
X27162Y-14515D01*
X27162Y-14400D01*
X27181Y-14372D01*
X27200Y-14357D01*
X27238Y-14343D01*
X27295Y-14343D01*
X27333Y-14357D01*
X27352Y-14372D01*
X27371Y-14400D01*
X27371Y-14515D01*
X27524Y-14043D02*
X27543Y-14057D01*
X27562Y-14100D01*
X27562Y-14129D01*
X27543Y-14172D01*
X27505Y-14200D01*
X27467Y-14215D01*
X27390Y-14229D01*
X27333Y-14229D01*
X27257Y-14215D01*
X27219Y-14200D01*
X27181Y-14172D01*
X27162Y-14129D01*
X27162Y-14100D01*
X27181Y-14057D01*
X27200Y-14043D01*
X27162Y-13943D02*
X27162Y-13743D01*
X27562Y-13872D01*
X26562Y-14515D02*
X26162Y-14515D01*
X26162Y-14400D01*
X26181Y-14372D01*
X26200Y-14357D01*
X26238Y-14343D01*
X26295Y-14343D01*
X26333Y-14357D01*
X26352Y-14372D01*
X26371Y-14400D01*
X26371Y-14515D01*
X26524Y-14043D02*
X26543Y-14057D01*
X26562Y-14100D01*
X26562Y-14129D01*
X26543Y-14172D01*
X26505Y-14200D01*
X26467Y-14215D01*
X26390Y-14229D01*
X26333Y-14229D01*
X26257Y-14215D01*
X26219Y-14200D01*
X26181Y-14172D01*
X26162Y-14129D01*
X26162Y-14100D01*
X26181Y-14057D01*
X26200Y-14043D01*
X26562Y-13900D02*
X26562Y-13843D01*
X26543Y-13815D01*
X26524Y-13800D01*
X26467Y-13772D01*
X26390Y-13757D01*
X26238Y-13757D01*
X26200Y-13772D01*
X26181Y-13786D01*
X26162Y-13815D01*
X26162Y-13872D01*
X26181Y-13900D01*
X26200Y-13915D01*
X26238Y-13929D01*
X26333Y-13929D01*
X26371Y-13915D01*
X26390Y-13900D01*
X26410Y-13872D01*
X26410Y-13815D01*
X26390Y-13786D01*
X26371Y-13772D01*
X26333Y-13757D01*
X29664Y-26162D02*
X29664Y-25762D01*
X29807Y-26162D02*
X29807Y-25762D01*
X29979Y-26162D01*
X29979Y-25762D01*
X30121Y-26162D02*
X30121Y-25762D01*
X30293Y-26162D01*
X30293Y-25762D01*
X30435Y-25952D02*
X30535Y-25952D01*
X30578Y-26162D02*
X30435Y-26162D01*
X30435Y-25762D01*
X30578Y-25762D01*
X30878Y-26162D02*
X30778Y-25971D01*
X30706Y-26162D02*
X30706Y-25762D01*
X30821Y-25762D01*
X30849Y-25781D01*
X30864Y-25800D01*
X30878Y-25838D01*
X30878Y-25895D01*
X30864Y-25933D01*
X30849Y-25952D01*
X30821Y-25971D01*
X30706Y-25971D01*
X31235Y-26162D02*
X31235Y-25762D01*
X31350Y-25762D01*
X31378Y-25781D01*
X31393Y-25800D01*
X31407Y-25838D01*
X31407Y-25895D01*
X31393Y-25933D01*
X31378Y-25952D01*
X31350Y-25971D01*
X31235Y-25971D01*
X31535Y-26162D02*
X31535Y-25762D01*
X31678Y-26162D02*
X31678Y-25762D01*
X31850Y-26162D01*
X31850Y-25762D01*
X31978Y-26143D02*
X32021Y-26162D01*
X32092Y-26162D01*
X32121Y-26143D01*
X32135Y-26124D01*
X32150Y-26086D01*
X32150Y-26048D01*
X32135Y-26010D01*
X32121Y-25990D01*
X32092Y-25971D01*
X32035Y-25952D01*
X32007Y-25933D01*
X31992Y-25914D01*
X31978Y-25876D01*
X31978Y-25838D01*
X31992Y-25800D01*
X32007Y-25781D01*
X32035Y-25762D01*
X32107Y-25762D01*
X32150Y-25781D01*
X36562Y-27329D02*
X36162Y-27329D01*
X36162Y-27214D01*
X36181Y-27186D01*
X36200Y-27171D01*
X36238Y-27157D01*
X36295Y-27157D01*
X36333Y-27171D01*
X36352Y-27186D01*
X36371Y-27214D01*
X36371Y-27329D01*
X36524Y-26857D02*
X36543Y-26871D01*
X36562Y-26914D01*
X36562Y-26943D01*
X36543Y-26986D01*
X36505Y-27014D01*
X36467Y-27029D01*
X36390Y-27043D01*
X36333Y-27043D01*
X36257Y-27029D01*
X36219Y-27014D01*
X36181Y-26986D01*
X36162Y-26943D01*
X36162Y-26914D01*
X36181Y-26871D01*
X36200Y-26857D01*
X36200Y-26743D02*
X36181Y-26729D01*
X36162Y-26700D01*
X36162Y-26629D01*
X36181Y-26600D01*
X36200Y-26586D01*
X36238Y-26571D01*
X36276Y-26571D01*
X36333Y-26586D01*
X36562Y-26757D01*
X36562Y-26571D01*
X35662Y-27329D02*
X35262Y-27329D01*
X35262Y-27214D01*
X35281Y-27186D01*
X35300Y-27171D01*
X35338Y-27157D01*
X35395Y-27157D01*
X35433Y-27171D01*
X35452Y-27186D01*
X35471Y-27214D01*
X35471Y-27329D01*
X35624Y-26857D02*
X35643Y-26871D01*
X35662Y-26914D01*
X35662Y-26943D01*
X35643Y-26986D01*
X35605Y-27014D01*
X35567Y-27029D01*
X35490Y-27043D01*
X35433Y-27043D01*
X35357Y-27029D01*
X35319Y-27014D01*
X35281Y-26986D01*
X35262Y-26943D01*
X35262Y-26914D01*
X35281Y-26871D01*
X35300Y-26857D01*
X35262Y-26671D02*
X35262Y-26643D01*
X35281Y-26614D01*
X35300Y-26600D01*
X35338Y-26586D01*
X35414Y-26571D01*
X35510Y-26571D01*
X35586Y-26586D01*
X35624Y-26600D01*
X35643Y-26614D01*
X35662Y-26643D01*
X35662Y-26671D01*
X35643Y-26700D01*
X35624Y-26714D01*
X35586Y-26729D01*
X35510Y-26743D01*
X35414Y-26743D01*
X35338Y-26729D01*
X35300Y-26714D01*
X35281Y-26700D01*
X35262Y-26671D01*
X34462Y-27329D02*
X34062Y-27329D01*
X34062Y-27214D01*
X34081Y-27186D01*
X34100Y-27171D01*
X34138Y-27157D01*
X34195Y-27157D01*
X34233Y-27171D01*
X34252Y-27186D01*
X34271Y-27214D01*
X34271Y-27329D01*
X34424Y-26857D02*
X34443Y-26871D01*
X34462Y-26914D01*
X34462Y-26943D01*
X34443Y-26986D01*
X34405Y-27014D01*
X34367Y-27029D01*
X34290Y-27043D01*
X34233Y-27043D01*
X34157Y-27029D01*
X34119Y-27014D01*
X34081Y-26986D01*
X34062Y-26943D01*
X34062Y-26914D01*
X34081Y-26871D01*
X34100Y-26857D01*
X34462Y-26571D02*
X34462Y-26743D01*
X34462Y-26657D02*
X34062Y-26657D01*
X34119Y-26686D01*
X34157Y-26714D01*
X34176Y-26743D01*
X34062Y-26300D02*
X34062Y-26443D01*
X34252Y-26457D01*
X34233Y-26443D01*
X34214Y-26414D01*
X34214Y-26343D01*
X34233Y-26314D01*
X34252Y-26300D01*
X34290Y-26285D01*
X34386Y-26285D01*
X34424Y-26300D01*
X34443Y-26314D01*
X34462Y-26343D01*
X34462Y-26414D01*
X34443Y-26443D01*
X34424Y-26457D01*
X33562Y-27329D02*
X33162Y-27329D01*
X33162Y-27214D01*
X33181Y-27186D01*
X33200Y-27171D01*
X33238Y-27157D01*
X33295Y-27157D01*
X33333Y-27171D01*
X33352Y-27186D01*
X33371Y-27214D01*
X33371Y-27329D01*
X33524Y-26857D02*
X33543Y-26871D01*
X33562Y-26914D01*
X33562Y-26943D01*
X33543Y-26986D01*
X33505Y-27014D01*
X33467Y-27029D01*
X33390Y-27043D01*
X33333Y-27043D01*
X33257Y-27029D01*
X33219Y-27014D01*
X33181Y-26986D01*
X33162Y-26943D01*
X33162Y-26914D01*
X33181Y-26871D01*
X33200Y-26857D01*
X33562Y-26571D02*
X33562Y-26743D01*
X33562Y-26657D02*
X33162Y-26657D01*
X33219Y-26686D01*
X33257Y-26714D01*
X33276Y-26743D01*
X33162Y-26471D02*
X33162Y-26285D01*
X33314Y-26385D01*
X33314Y-26343D01*
X33333Y-26314D01*
X33352Y-26300D01*
X33390Y-26285D01*
X33486Y-26285D01*
X33524Y-26300D01*
X33543Y-26314D01*
X33562Y-26343D01*
X33562Y-26428D01*
X33543Y-26457D01*
X33524Y-26471D01*
X32562Y-27329D02*
X32162Y-27329D01*
X32162Y-27214D01*
X32181Y-27186D01*
X32200Y-27171D01*
X32238Y-27157D01*
X32295Y-27157D01*
X32333Y-27171D01*
X32352Y-27186D01*
X32371Y-27214D01*
X32371Y-27329D01*
X32352Y-26929D02*
X32371Y-26886D01*
X32390Y-26871D01*
X32429Y-26857D01*
X32486Y-26857D01*
X32524Y-26871D01*
X32543Y-26886D01*
X32562Y-26914D01*
X32562Y-27029D01*
X32162Y-27029D01*
X32162Y-26929D01*
X32181Y-26900D01*
X32200Y-26886D01*
X32238Y-26871D01*
X32276Y-26871D01*
X32314Y-26886D01*
X32333Y-26900D01*
X32352Y-26929D01*
X32352Y-27029D01*
X32333Y-26686D02*
X32314Y-26714D01*
X32295Y-26729D01*
X32257Y-26743D01*
X32238Y-26743D01*
X32200Y-26729D01*
X32181Y-26714D01*
X32162Y-26686D01*
X32162Y-26629D01*
X32181Y-26600D01*
X32200Y-26586D01*
X32238Y-26571D01*
X32257Y-26571D01*
X32295Y-26586D01*
X32314Y-26600D01*
X32333Y-26629D01*
X32333Y-26686D01*
X32352Y-26714D01*
X32371Y-26729D01*
X32410Y-26743D01*
X32486Y-26743D01*
X32524Y-26729D01*
X32543Y-26714D01*
X32562Y-26686D01*
X32562Y-26629D01*
X32543Y-26600D01*
X32524Y-26586D01*
X32486Y-26571D01*
X32410Y-26571D01*
X32371Y-26586D01*
X32352Y-26600D01*
X32333Y-26629D01*
X31562Y-27329D02*
X31162Y-27329D01*
X31162Y-27214D01*
X31181Y-27186D01*
X31200Y-27171D01*
X31238Y-27157D01*
X31295Y-27157D01*
X31333Y-27171D01*
X31352Y-27186D01*
X31371Y-27214D01*
X31371Y-27329D01*
X31352Y-26929D02*
X31371Y-26886D01*
X31390Y-26871D01*
X31429Y-26857D01*
X31486Y-26857D01*
X31524Y-26871D01*
X31543Y-26886D01*
X31562Y-26914D01*
X31562Y-27029D01*
X31162Y-27029D01*
X31162Y-26929D01*
X31181Y-26900D01*
X31200Y-26886D01*
X31238Y-26871D01*
X31276Y-26871D01*
X31314Y-26886D01*
X31333Y-26900D01*
X31352Y-26929D01*
X31352Y-27029D01*
X31162Y-26600D02*
X31162Y-26657D01*
X31181Y-26686D01*
X31200Y-26700D01*
X31257Y-26729D01*
X31333Y-26743D01*
X31486Y-26743D01*
X31524Y-26729D01*
X31543Y-26714D01*
X31562Y-26686D01*
X31562Y-26629D01*
X31543Y-26600D01*
X31524Y-26586D01*
X31486Y-26571D01*
X31390Y-26571D01*
X31352Y-26586D01*
X31333Y-26600D01*
X31314Y-26629D01*
X31314Y-26686D01*
X31333Y-26714D01*
X31352Y-26729D01*
X31390Y-26743D01*
X30562Y-27329D02*
X30162Y-27329D01*
X30162Y-27214D01*
X30181Y-27186D01*
X30200Y-27171D01*
X30238Y-27157D01*
X30295Y-27157D01*
X30333Y-27171D01*
X30352Y-27186D01*
X30371Y-27214D01*
X30371Y-27329D01*
X30352Y-26929D02*
X30371Y-26886D01*
X30390Y-26871D01*
X30429Y-26857D01*
X30486Y-26857D01*
X30524Y-26871D01*
X30543Y-26886D01*
X30562Y-26914D01*
X30562Y-27029D01*
X30162Y-27029D01*
X30162Y-26929D01*
X30181Y-26900D01*
X30200Y-26886D01*
X30238Y-26871D01*
X30276Y-26871D01*
X30314Y-26886D01*
X30333Y-26900D01*
X30352Y-26929D01*
X30352Y-27029D01*
X30295Y-26600D02*
X30562Y-26600D01*
X30143Y-26671D02*
X30429Y-26743D01*
X30429Y-26557D01*
X29562Y-27329D02*
X29162Y-27329D01*
X29162Y-27214D01*
X29181Y-27186D01*
X29200Y-27171D01*
X29238Y-27157D01*
X29295Y-27157D01*
X29333Y-27171D01*
X29352Y-27186D01*
X29371Y-27214D01*
X29371Y-27329D01*
X29562Y-27029D02*
X29162Y-27029D01*
X29162Y-26957D01*
X29181Y-26914D01*
X29219Y-26886D01*
X29257Y-26871D01*
X29333Y-26857D01*
X29390Y-26857D01*
X29467Y-26871D01*
X29505Y-26886D01*
X29543Y-26914D01*
X29562Y-26957D01*
X29562Y-27029D01*
X29200Y-26743D02*
X29181Y-26729D01*
X29162Y-26700D01*
X29162Y-26629D01*
X29181Y-26600D01*
X29200Y-26586D01*
X29238Y-26571D01*
X29276Y-26571D01*
X29333Y-26586D01*
X29562Y-26757D01*
X29562Y-26571D01*
G54D13*
X28479Y-27363D02*
X28282Y-27363D01*
X28282Y-27303D01*
X28292Y-27288D01*
X28301Y-27280D01*
X28320Y-27273D01*
X28348Y-27273D01*
X28367Y-27280D01*
X28376Y-27288D01*
X28385Y-27303D01*
X28385Y-27363D01*
X28460Y-27116D02*
X28470Y-27123D01*
X28479Y-27146D01*
X28479Y-27161D01*
X28470Y-27183D01*
X28451Y-27198D01*
X28432Y-27206D01*
X28395Y-27213D01*
X28367Y-27213D01*
X28329Y-27206D01*
X28310Y-27198D01*
X28292Y-27183D01*
X28282Y-27161D01*
X28282Y-27146D01*
X28292Y-27123D01*
X28301Y-27116D01*
X28479Y-26966D02*
X28479Y-27056D01*
X28479Y-27011D02*
X28282Y-27011D01*
X28310Y-27026D01*
X28329Y-27041D01*
X28339Y-27056D01*
X28479Y-26816D02*
X28479Y-26906D01*
X28479Y-26861D02*
X28282Y-26861D01*
X28310Y-26876D01*
X28329Y-26891D01*
X28339Y-26906D01*
X27479Y-27363D02*
X27282Y-27363D01*
X27282Y-27303D01*
X27292Y-27288D01*
X27301Y-27280D01*
X27320Y-27273D01*
X27348Y-27273D01*
X27367Y-27280D01*
X27376Y-27288D01*
X27385Y-27303D01*
X27385Y-27363D01*
X27423Y-27213D02*
X27423Y-27138D01*
X27479Y-27228D02*
X27282Y-27176D01*
X27479Y-27123D01*
X27479Y-26988D02*
X27479Y-27078D01*
X27479Y-27033D02*
X27282Y-27033D01*
X27310Y-27048D01*
X27329Y-27063D01*
X27339Y-27078D01*
X27282Y-26846D02*
X27282Y-26921D01*
X27376Y-26928D01*
X27367Y-26921D01*
X27357Y-26906D01*
X27357Y-26868D01*
X27367Y-26853D01*
X27376Y-26846D01*
X27395Y-26838D01*
X27442Y-26838D01*
X27460Y-26846D01*
X27470Y-26853D01*
X27479Y-26868D01*
X27479Y-26906D01*
X27470Y-26921D01*
X27460Y-26928D01*
G54D11*
X26181Y-27171D02*
X26162Y-27200D01*
X26162Y-27243D01*
X26181Y-27286D01*
X26219Y-27314D01*
X26257Y-27329D01*
X26333Y-27343D01*
X26390Y-27343D01*
X26467Y-27329D01*
X26505Y-27314D01*
X26543Y-27286D01*
X26562Y-27243D01*
X26562Y-27214D01*
X26543Y-27171D01*
X26524Y-27157D01*
X26390Y-27157D01*
X26390Y-27214D01*
X26562Y-27029D02*
X26162Y-27029D01*
X26562Y-26857D01*
X26162Y-26857D01*
X26562Y-26715D02*
X26162Y-26715D01*
X26162Y-26643D01*
X26181Y-26600D01*
X26219Y-26572D01*
X26257Y-26557D01*
X26333Y-26543D01*
X26390Y-26543D01*
X26467Y-26557D01*
X26505Y-26572D01*
X26543Y-26600D01*
X26562Y-26643D01*
X26562Y-26715D01*
G54D14*
X25497Y-27423D02*
X25257Y-27423D01*
X25257Y-27347D01*
X25269Y-27328D01*
X25280Y-27319D01*
X25303Y-27309D01*
X25337Y-27309D01*
X25360Y-27319D01*
X25371Y-27328D01*
X25383Y-27347D01*
X25383Y-27423D01*
X25257Y-27242D02*
X25497Y-27195D01*
X25326Y-27157D01*
X25497Y-27119D01*
X25257Y-27071D01*
X25497Y-26880D02*
X25383Y-26947D01*
X25497Y-26994D02*
X25257Y-26994D01*
X25257Y-26918D01*
X25269Y-26899D01*
X25280Y-26890D01*
X25303Y-26880D01*
X25337Y-26880D01*
X25360Y-26890D01*
X25371Y-26899D01*
X25383Y-26918D01*
X25383Y-26994D01*
X25520Y-26842D02*
X25520Y-26690D01*
X25257Y-26547D02*
X25257Y-26642D01*
X25371Y-26652D01*
X25360Y-26642D01*
X25349Y-26623D01*
X25349Y-26576D01*
X25360Y-26557D01*
X25371Y-26547D01*
X25394Y-26538D01*
X25451Y-26538D01*
X25474Y-26547D01*
X25486Y-26557D01*
X25497Y-26576D01*
X25497Y-26623D01*
X25486Y-26642D01*
X25474Y-26652D01*
X25257Y-26481D02*
X25497Y-26414D01*
X25257Y-26348D01*
G54D15*
X24800Y-29700D02*
X24800Y-11450D01*
X37000Y-29700D02*
X24800Y-29700D01*
X37000Y-11450D02*
X37000Y-29700D01*
X24800Y-11450D02*
X37000Y-11450D01*
G54D14*
X34750Y-24150D02*
X34550Y-24150D01*
X34550Y-24150D02*
X34550Y-24450D01*
X34550Y-24450D02*
X34750Y-24450D01*
X34950Y-24150D02*
X35150Y-24150D01*
X35150Y-24150D02*
X35150Y-24450D01*
X35150Y-24450D02*
X34950Y-24450D01*
X26350Y-22300D02*
X26350Y-22100D01*
X26350Y-22100D02*
X26050Y-22100D01*
X26050Y-22100D02*
X26050Y-22300D01*
X26350Y-22500D02*
X26350Y-22700D01*
X26350Y-22700D02*
X26050Y-22700D01*
X26050Y-22700D02*
X26050Y-22500D01*
X25850Y-22300D02*
X25850Y-22100D01*
X25850Y-22100D02*
X25550Y-22100D01*
X25550Y-22100D02*
X25550Y-22300D01*
X25850Y-22500D02*
X25850Y-22700D01*
X25850Y-22700D02*
X25550Y-22700D01*
X25550Y-22700D02*
X25550Y-22500D01*
X26400Y-15700D02*
X26400Y-15500D01*
X26400Y-15500D02*
X26100Y-15500D01*
X26100Y-15500D02*
X26100Y-15700D01*
X26400Y-15900D02*
X26400Y-16100D01*
X26400Y-16100D02*
X26100Y-16100D01*
X26100Y-16100D02*
X26100Y-15900D01*
X34900Y-19450D02*
X35100Y-19450D01*
X35100Y-19450D02*
X35100Y-19150D01*
X35100Y-19150D02*
X34900Y-19150D01*
X34700Y-19450D02*
X34500Y-19450D01*
X34500Y-19450D02*
X34500Y-19150D01*
X34500Y-19150D02*
X34700Y-19150D01*
X34800Y-17700D02*
X34800Y-17500D01*
X34800Y-17500D02*
X34500Y-17500D01*
X34500Y-17500D02*
X34500Y-17700D01*
X34800Y-17900D02*
X34800Y-18100D01*
X34800Y-18100D02*
X34500Y-18100D01*
X34500Y-18100D02*
X34500Y-17900D01*
X29200Y-15450D02*
X29200Y-15650D01*
X29200Y-15650D02*
X29500Y-15650D01*
X29500Y-15650D02*
X29500Y-15450D01*
X29200Y-15250D02*
X29200Y-15050D01*
X29200Y-15050D02*
X29500Y-15050D01*
X29500Y-15050D02*
X29500Y-15250D01*
X28750Y-20650D02*
X28750Y-20450D01*
X28750Y-20450D02*
X28450Y-20450D01*
X28450Y-20450D02*
X28450Y-20650D01*
X28750Y-20850D02*
X28750Y-21050D01*
X28750Y-21050D02*
X28450Y-21050D01*
X28450Y-21050D02*
X28450Y-20850D01*
X32800Y-15150D02*
X32600Y-15150D01*
X32600Y-15150D02*
X32600Y-15450D01*
X32600Y-15450D02*
X32800Y-15450D01*
X33000Y-15150D02*
X33200Y-15150D01*
X33200Y-15150D02*
X33200Y-15450D01*
X33200Y-15450D02*
X33000Y-15450D01*
X32800Y-22000D02*
X33000Y-22000D01*
X33000Y-22000D02*
X33000Y-21700D01*
X33000Y-21700D02*
X32800Y-21700D01*
X32600Y-22000D02*
X32400Y-22000D01*
X32400Y-22000D02*
X32400Y-21700D01*
X32400Y-21700D02*
X32600Y-21700D01*
X34950Y-21250D02*
X35150Y-21250D01*
X35150Y-21250D02*
X35150Y-20950D01*
X35150Y-20950D02*
X34950Y-20950D01*
X34750Y-21250D02*
X34550Y-21250D01*
X34550Y-21250D02*
X34550Y-20950D01*
X34550Y-20950D02*
X34750Y-20950D01*
X26100Y-17100D02*
X26100Y-17300D01*
X26100Y-17300D02*
X26400Y-17300D01*
X26400Y-17300D02*
X26400Y-17100D01*
X26100Y-16900D02*
X26100Y-16700D01*
X26100Y-16700D02*
X26400Y-16700D01*
X26400Y-16700D02*
X26400Y-16900D01*
X27700Y-20250D02*
X27900Y-20250D01*
X27900Y-20250D02*
X27900Y-19950D01*
X27900Y-19950D02*
X27700Y-19950D01*
X27500Y-20250D02*
X27300Y-20250D01*
X27300Y-20250D02*
X27300Y-19950D01*
X27300Y-19950D02*
X27500Y-19950D01*
X29700Y-15450D02*
X29700Y-15650D01*
X29700Y-15650D02*
X30000Y-15650D01*
X30000Y-15650D02*
X30000Y-15450D01*
X29700Y-15250D02*
X29700Y-15050D01*
X29700Y-15050D02*
X30000Y-15050D01*
X30000Y-15050D02*
X30000Y-15250D01*
G54D15*
X24900Y-11550D02*
X24900Y-13550D01*
X24900Y-13550D02*
X36900Y-13550D01*
X36900Y-13550D02*
X36900Y-11550D01*
X36900Y-11550D02*
X24900Y-11550D01*
X24900Y-27550D02*
X24900Y-29550D01*
X24900Y-29550D02*
X36900Y-29550D01*
X36900Y-29550D02*
X36900Y-27550D01*
X36900Y-27550D02*
X24900Y-27550D01*
G54D16*
X25900Y-19900D02*
X24900Y-19900D01*
X24900Y-19900D02*
X24900Y-13900D01*
X24900Y-13900D02*
X25900Y-13900D01*
X25900Y-13900D02*
X25900Y-19900D01*
X25900Y-18900D02*
X24900Y-18900D01*
G54D15*
X32705Y-20335D02*
X32703Y-20348D01*
X32699Y-20361D01*
X32693Y-20373D01*
X32684Y-20384D01*
X32674Y-20393D01*
X32662Y-20399D01*
X32649Y-20403D01*
X32635Y-20404D01*
X32622Y-20403D01*
X32609Y-20399D01*
X32597Y-20393D01*
X32587Y-20385D01*
X32578Y-20374D01*
X32571Y-20362D01*
X32567Y-20349D01*
X32566Y-20335D01*
X32567Y-20323D01*
X32570Y-20310D01*
X32577Y-20298D01*
X32585Y-20287D01*
X32596Y-20278D01*
X32607Y-20271D01*
X32620Y-20267D01*
X32634Y-20266D01*
X32647Y-20267D01*
X32660Y-20270D01*
X32672Y-20276D01*
X32683Y-20285D01*
X32692Y-20295D01*
X32698Y-20307D01*
X32703Y-20320D01*
X32704Y-20334D01*
X32705Y-20335D01*
X32872Y-20572D02*
X29328Y-20572D01*
X29328Y-20572D02*
X29328Y-17028D01*
X29328Y-17028D02*
X32872Y-17028D01*
X32872Y-17028D02*
X32872Y-20572D01*
G54D14*
X25550Y-20650D02*
X25750Y-20350D01*
X25550Y-21350D02*
X25550Y-20325D01*
X25550Y-20325D02*
X26150Y-20325D01*
X26150Y-20325D02*
X26150Y-21350D01*
X26150Y-21350D02*
X25550Y-21350D01*
X28050Y-23050D02*
X27150Y-23050D01*
X27150Y-23050D02*
X27150Y-22550D01*
X27150Y-22550D02*
X28050Y-22550D01*
X28050Y-22550D02*
X28050Y-23050D01*
G54D17*
X35018Y-25404D02*
X35146Y-25404D01*
X35146Y-25404D02*
X35146Y-25207D01*
X35018Y-25207D02*
X35146Y-25207D01*
X35018Y-25404D02*
X35018Y-25207D01*
X34773Y-25404D02*
X34832Y-25404D01*
X34832Y-25404D02*
X34832Y-25305D01*
X34773Y-25305D02*
X34832Y-25305D01*
X34773Y-25404D02*
X34773Y-25305D01*
X34968Y-25404D02*
X35027Y-25404D01*
X35027Y-25404D02*
X35027Y-25305D01*
X34968Y-25305D02*
X35027Y-25305D01*
X34968Y-25404D02*
X34968Y-25305D01*
X34822Y-25404D02*
X34978Y-25404D01*
X34978Y-25404D02*
X34978Y-25335D01*
X34822Y-25335D02*
X34978Y-25335D01*
X34822Y-25404D02*
X34822Y-25335D01*
X35018Y-25993D02*
X35146Y-25993D01*
X35146Y-25993D02*
X35146Y-25796D01*
X35018Y-25796D02*
X35146Y-25796D01*
X35018Y-25993D02*
X35018Y-25796D01*
X34654Y-25993D02*
X34782Y-25993D01*
X34782Y-25993D02*
X34782Y-25796D01*
X34654Y-25796D02*
X34782Y-25796D01*
X34654Y-25993D02*
X34654Y-25796D01*
X34968Y-25895D02*
X35027Y-25895D01*
X35027Y-25895D02*
X35027Y-25796D01*
X34968Y-25796D02*
X35027Y-25796D01*
X34968Y-25895D02*
X34968Y-25796D01*
X34773Y-25895D02*
X34832Y-25895D01*
X34832Y-25895D02*
X34832Y-25796D01*
X34773Y-25796D02*
X34832Y-25796D01*
X34773Y-25895D02*
X34773Y-25796D01*
X34822Y-25865D02*
X34978Y-25865D01*
X34978Y-25865D02*
X34978Y-25796D01*
X34822Y-25796D02*
X34978Y-25796D01*
X34822Y-25865D02*
X34822Y-25796D01*
X34861Y-25600D02*
X34939Y-25600D01*
X34939Y-25600D02*
X34939Y-25522D01*
X34861Y-25522D02*
X34939Y-25522D01*
X34861Y-25600D02*
X34861Y-25522D01*
X34664Y-25404D02*
X34782Y-25404D01*
X34782Y-25404D02*
X34782Y-25286D01*
X34664Y-25286D02*
X34782Y-25286D01*
X34664Y-25404D02*
X34664Y-25286D01*
X34654Y-25236D02*
X34743Y-25236D01*
X34743Y-25236D02*
X34743Y-25207D01*
X34654Y-25207D02*
X34743Y-25207D01*
X34654Y-25236D02*
X34654Y-25207D01*
G54D18*
X35126Y-25394D02*
X35126Y-25806D01*
X34674Y-25796D02*
X34674Y-25236D01*
G54D19*
X34751Y-25266D02*
X34750Y-25271D01*
X34748Y-25276D01*
X34746Y-25281D01*
X34742Y-25285D01*
X34738Y-25289D01*
X34733Y-25291D01*
X34728Y-25293D01*
X34723Y-25293D01*
X34718Y-25293D01*
X34713Y-25291D01*
X34708Y-25289D01*
X34704Y-25286D01*
X34700Y-25281D01*
X34698Y-25277D01*
X34696Y-25271D01*
X34696Y-25266D01*
X34696Y-25261D01*
X34697Y-25256D01*
X34700Y-25251D01*
X34703Y-25247D01*
X34708Y-25244D01*
X34712Y-25241D01*
X34717Y-25239D01*
X34723Y-25239D01*
X34727Y-25239D01*
X34733Y-25240D01*
X34738Y-25243D01*
X34742Y-25246D01*
X34745Y-25250D01*
X34748Y-25255D01*
X34750Y-25260D01*
X34750Y-25266D01*
X34751Y-25266D01*
G54D18*
X34763Y-25207D02*
X34764Y-25218D01*
X34766Y-25230D01*
X34768Y-25242D01*
X34772Y-25253D01*
X34776Y-25264D01*
X34782Y-25275D01*
X34788Y-25285D01*
X34796Y-25295D01*
X34804Y-25303D01*
X34812Y-25311D01*
X34822Y-25319D01*
X34832Y-25325D01*
X34843Y-25331D01*
X34854Y-25335D01*
X34865Y-25339D01*
X34877Y-25341D01*
X34889Y-25343D01*
X34900Y-25344D01*
X34911Y-25343D01*
X34923Y-25341D01*
X34935Y-25339D01*
X34946Y-25335D01*
X34957Y-25331D01*
X34968Y-25325D01*
X34978Y-25319D01*
X34988Y-25311D01*
X34996Y-25303D01*
X35004Y-25295D01*
X35012Y-25285D01*
X35018Y-25275D01*
X35024Y-25264D01*
X35028Y-25253D01*
X35032Y-25242D01*
X35034Y-25230D01*
X35036Y-25218D01*
X35037Y-25207D01*
X35037Y-25993D02*
X35036Y-25982D01*
X35034Y-25970D01*
X35032Y-25958D01*
X35028Y-25947D01*
X35024Y-25936D01*
X35018Y-25925D01*
X35012Y-25915D01*
X35004Y-25905D01*
X34996Y-25897D01*
X34988Y-25889D01*
X34978Y-25881D01*
X34968Y-25875D01*
X34957Y-25869D01*
X34946Y-25865D01*
X34935Y-25861D01*
X34923Y-25859D01*
X34911Y-25857D01*
X34900Y-25856D01*
X34889Y-25857D01*
X34877Y-25859D01*
X34865Y-25861D01*
X34854Y-25865D01*
X34843Y-25869D01*
X34832Y-25875D01*
X34822Y-25881D01*
X34812Y-25889D01*
X34804Y-25897D01*
X34796Y-25905D01*
X34788Y-25915D01*
X34782Y-25925D01*
X34776Y-25936D01*
X34772Y-25947D01*
X34768Y-25958D01*
X34766Y-25970D01*
X34764Y-25982D01*
X34763Y-25993D01*
G54D14*
X35000Y-26850D02*
X35200Y-26850D01*
X35200Y-26850D02*
X35200Y-26550D01*
X35200Y-26550D02*
X35000Y-26550D01*
X34800Y-26850D02*
X34600Y-26850D01*
X34600Y-26850D02*
X34600Y-26550D01*
X34600Y-26550D02*
X34800Y-26550D01*
G54D20*
X29600Y-24400D02*
X29600Y-23200D01*
X29600Y-23200D02*
X26800Y-23200D01*
X26800Y-23200D02*
X26800Y-24400D01*
X29600Y-25600D02*
X29600Y-25900D01*
X29600Y-25900D02*
X29000Y-26800D01*
X29000Y-26800D02*
X27400Y-26800D01*
X27400Y-26800D02*
X26800Y-25900D01*
X26800Y-25900D02*
X26800Y-25600D01*
G54D14*
X28700Y-21650D02*
X27800Y-21650D01*
X27800Y-21650D02*
X27800Y-21150D01*
X27800Y-21150D02*
X28700Y-21150D01*
X28700Y-21150D02*
X28700Y-21650D01*
G54D11*
X33100Y-23700D02*
X32950Y-23700D01*
X32400Y-23700D02*
X32550Y-23700D01*
X32400Y-24400D02*
X33100Y-24400D01*
X33100Y-24400D02*
X33100Y-23000D01*
X33100Y-23000D02*
X32400Y-23000D01*
X32400Y-23000D02*
X32400Y-24400D01*
X28900Y-22450D02*
X28900Y-22300D01*
X28900Y-21750D02*
X28900Y-21900D01*
X28200Y-21750D02*
X28200Y-22450D01*
X28200Y-22450D02*
X29600Y-22450D01*
X29600Y-22450D02*
X29600Y-21750D01*
X29600Y-21750D02*
X28200Y-21750D01*
X27450Y-22450D02*
X27450Y-22300D01*
X27450Y-21750D02*
X27450Y-21900D01*
X26750Y-21750D02*
X26750Y-22450D01*
X26750Y-22450D02*
X28150Y-22450D01*
X28150Y-22450D02*
X28150Y-21750D01*
X28150Y-21750D02*
X26750Y-21750D01*
G54D15*
X24779Y-23124D02*
X24346Y-23124D01*
X24346Y-23124D02*
X24346Y-26076D01*
X24346Y-26076D02*
X24779Y-26076D01*
X24779Y-23124D02*
X26511Y-23124D01*
X26511Y-23124D02*
X26511Y-26076D01*
X24779Y-23124D02*
X24779Y-26076D01*
X24779Y-26076D02*
X26511Y-26076D01*
M02*
