M48
;DRILL file {Pcbnew (22-Jun-2014 BZR 4027)-stable} date Sun 21 Feb 2016 08:37:11 PM EET
;FORMAT={-:-/ absolute / metric / decimal}
FMAT,2
METRIC,TZ
T1C0.635
T2C0.650
%
G90
G05
M71
T1
X162.85Y-108.45
X164.25Y-113.45
X165.3Y-114.55
X166.5Y-116.
X168.55Y-106.3
X169.6Y-110.2
X176.25Y-119.3
T2
X158.13Y-99.75
X158.13Y-121.75
X160.13Y-99.75
X160.13Y-121.75
X162.13Y-99.75
X162.13Y-121.75
X164.13Y-99.75
X164.13Y-121.75
X166.13Y-99.75
X166.13Y-121.75
X168.13Y-99.75
X168.13Y-121.75
X170.13Y-99.75
X170.13Y-121.75
X172.13Y-99.75
X172.13Y-121.75
X174.13Y-99.75
X174.13Y-121.75
X176.13Y-99.75
X176.13Y-121.75
T0
M30
