G04 (created by PCBNEW (22-Jun-2014 BZR 4027)-stable) date Sun 21 Feb 2016 08:37:06 PM EET*
%MOIN*%
G04 Gerber Fmt 3.4, Leading zero omitted, Abs format*
%FSLAX34Y34*%
G01*
G70*
G90*
G04 APERTURE LIST*
%ADD10C,0.00590551*%
%ADD11C,0.011811*%
%ADD12C,0.005*%
%ADD13C,0.0001*%
%ADD14C,0.0045*%
G04 APERTURE END LIST*
G54D10*
G54D11*
X68804Y-41302D02*
X68776Y-41386D01*
X68776Y-41526D01*
X68804Y-41583D01*
X68832Y-41611D01*
X68889Y-41639D01*
X68945Y-41639D01*
X69001Y-41611D01*
X69029Y-41583D01*
X69057Y-41526D01*
X69086Y-41414D01*
X69114Y-41358D01*
X69142Y-41330D01*
X69198Y-41302D01*
X69254Y-41302D01*
X69311Y-41330D01*
X69339Y-41358D01*
X69367Y-41414D01*
X69367Y-41555D01*
X69339Y-41639D01*
X68776Y-41892D02*
X69367Y-41892D01*
X69367Y-42117D01*
X69339Y-42173D01*
X69311Y-42201D01*
X69254Y-42230D01*
X69170Y-42230D01*
X69114Y-42201D01*
X69086Y-42173D01*
X69057Y-42117D01*
X69057Y-41892D01*
X68804Y-42455D02*
X68776Y-42539D01*
X68776Y-42679D01*
X68804Y-42736D01*
X68832Y-42764D01*
X68889Y-42792D01*
X68945Y-42792D01*
X69001Y-42764D01*
X69029Y-42736D01*
X69057Y-42679D01*
X69086Y-42567D01*
X69114Y-42511D01*
X69142Y-42483D01*
X69198Y-42455D01*
X69254Y-42455D01*
X69311Y-42483D01*
X69339Y-42511D01*
X69367Y-42567D01*
X69367Y-42708D01*
X69339Y-42792D01*
X69339Y-43354D02*
X69367Y-43298D01*
X69367Y-43214D01*
X69339Y-43129D01*
X69282Y-43073D01*
X69226Y-43045D01*
X69114Y-43017D01*
X69029Y-43017D01*
X68917Y-43045D01*
X68861Y-43073D01*
X68804Y-43129D01*
X68776Y-43214D01*
X68776Y-43270D01*
X68804Y-43354D01*
X68832Y-43383D01*
X69029Y-43383D01*
X69029Y-43270D01*
X68776Y-43973D02*
X69057Y-43776D01*
X68776Y-43636D02*
X69367Y-43636D01*
X69367Y-43861D01*
X69339Y-43917D01*
X69311Y-43945D01*
X69254Y-43973D01*
X69170Y-43973D01*
X69114Y-43945D01*
X69086Y-43917D01*
X69057Y-43861D01*
X69057Y-43636D01*
X69086Y-44423D02*
X69086Y-44226D01*
X68776Y-44226D02*
X69367Y-44226D01*
X69367Y-44507D01*
X69170Y-45126D02*
X68776Y-45267D01*
X69170Y-45407D01*
X68776Y-45942D02*
X68776Y-45604D01*
X68776Y-45773D02*
X69367Y-45773D01*
X69282Y-45717D01*
X69226Y-45660D01*
X69198Y-45604D01*
G54D12*
X65511Y-41732D02*
X65511Y-41454D01*
X65511Y-41454D02*
X64961Y-41454D01*
X64961Y-41454D02*
X64961Y-41732D01*
X65511Y-42404D02*
X65511Y-42126D01*
X65511Y-42404D02*
X64961Y-42404D01*
X64961Y-42404D02*
X64961Y-42126D01*
G54D10*
X61862Y-47539D02*
X69736Y-47539D01*
X69736Y-47539D02*
X69736Y-48326D01*
X69736Y-48326D02*
X61862Y-48326D01*
X61862Y-48326D02*
X61862Y-47539D01*
X61862Y-38877D02*
X69736Y-38877D01*
X69736Y-38877D02*
X69736Y-39665D01*
X69736Y-39665D02*
X61862Y-39665D01*
X61862Y-39665D02*
X61862Y-38877D01*
G54D13*
G36*
X67203Y-44732D02*
X67199Y-44731D01*
X67196Y-44728D01*
X67192Y-44724D01*
X67190Y-44719D01*
X67191Y-44715D01*
X67191Y-44712D01*
X67193Y-44709D01*
X67196Y-44706D01*
X67201Y-44702D01*
X67207Y-44697D01*
X67215Y-44691D01*
X67253Y-44665D01*
X67293Y-44641D01*
X67335Y-44618D01*
X67374Y-44599D01*
X67385Y-44595D01*
X67392Y-44591D01*
X67398Y-44589D01*
X67403Y-44588D01*
X67406Y-44588D01*
X67409Y-44588D01*
X67412Y-44589D01*
X67412Y-44589D01*
X67416Y-44592D01*
X67419Y-44597D01*
X67420Y-44602D01*
X67420Y-44605D01*
X67419Y-44608D01*
X67417Y-44611D01*
X67414Y-44614D01*
X67409Y-44617D01*
X67402Y-44620D01*
X67392Y-44625D01*
X67389Y-44626D01*
X67361Y-44639D01*
X67333Y-44653D01*
X67305Y-44669D01*
X67278Y-44685D01*
X67253Y-44702D01*
X67230Y-44718D01*
X67227Y-44720D01*
X67219Y-44726D01*
X67212Y-44730D01*
X67207Y-44732D01*
X67203Y-44732D01*
X67203Y-44732D01*
X67203Y-44732D01*
G37*
G36*
X67217Y-44602D02*
X67211Y-44600D01*
X67207Y-44597D01*
X67204Y-44591D01*
X67203Y-44586D01*
X67205Y-44580D01*
X67206Y-44578D01*
X67209Y-44576D01*
X67213Y-44573D01*
X67215Y-44573D01*
X67218Y-44572D01*
X67223Y-44570D01*
X67231Y-44567D01*
X67241Y-44564D01*
X67252Y-44561D01*
X67264Y-44557D01*
X67278Y-44553D01*
X67291Y-44549D01*
X67305Y-44545D01*
X67319Y-44540D01*
X67332Y-44536D01*
X67345Y-44533D01*
X67356Y-44529D01*
X67365Y-44527D01*
X67373Y-44524D01*
X67378Y-44523D01*
X67381Y-44522D01*
X67385Y-44522D01*
X67388Y-44523D01*
X67394Y-44527D01*
X67397Y-44533D01*
X67397Y-44538D01*
X67396Y-44544D01*
X67391Y-44548D01*
X67388Y-44550D01*
X67385Y-44552D01*
X67379Y-44554D01*
X67371Y-44556D01*
X67361Y-44559D01*
X67349Y-44563D01*
X67336Y-44567D01*
X67323Y-44571D01*
X67309Y-44575D01*
X67295Y-44580D01*
X67281Y-44584D01*
X67267Y-44588D01*
X67255Y-44591D01*
X67243Y-44595D01*
X67234Y-44597D01*
X67226Y-44599D01*
X67220Y-44601D01*
X67217Y-44602D01*
X67217Y-44602D01*
X67217Y-44602D01*
X67217Y-44602D01*
G37*
G36*
X67253Y-44494D02*
X67248Y-44494D01*
X67245Y-44494D01*
X67243Y-44493D01*
X67241Y-44493D01*
X67240Y-44492D01*
X67238Y-44490D01*
X67238Y-44490D01*
X67234Y-44484D01*
X67234Y-44478D01*
X67236Y-44473D01*
X67238Y-44471D01*
X67242Y-44467D01*
X67247Y-44465D01*
X67248Y-44465D01*
X67251Y-44465D01*
X67256Y-44464D01*
X67264Y-44463D01*
X67274Y-44462D01*
X67285Y-44461D01*
X67298Y-44460D01*
X67312Y-44458D01*
X67315Y-44458D01*
X67331Y-44456D01*
X67344Y-44455D01*
X67354Y-44454D01*
X67362Y-44454D01*
X67368Y-44453D01*
X67373Y-44453D01*
X67376Y-44453D01*
X67379Y-44453D01*
X67380Y-44453D01*
X67382Y-44454D01*
X67383Y-44455D01*
X67388Y-44459D01*
X67391Y-44464D01*
X67391Y-44470D01*
X67388Y-44475D01*
X67384Y-44479D01*
X67382Y-44480D01*
X67378Y-44481D01*
X67372Y-44482D01*
X67363Y-44483D01*
X67351Y-44485D01*
X67337Y-44486D01*
X67320Y-44488D01*
X67320Y-44488D01*
X67303Y-44490D01*
X67288Y-44492D01*
X67276Y-44493D01*
X67266Y-44494D01*
X67259Y-44494D01*
X67253Y-44494D01*
X67253Y-44494D01*
X67253Y-44494D01*
G37*
G36*
X67378Y-44412D02*
X67370Y-44412D01*
X67359Y-44411D01*
X67347Y-44410D01*
X67334Y-44408D01*
X67323Y-44406D01*
X67313Y-44403D01*
X67311Y-44403D01*
X67299Y-44399D01*
X67288Y-44395D01*
X67278Y-44391D01*
X67271Y-44387D01*
X67266Y-44383D01*
X67265Y-44381D01*
X67264Y-44375D01*
X67265Y-44369D01*
X67267Y-44365D01*
X67271Y-44361D01*
X67276Y-44359D01*
X67282Y-44360D01*
X67290Y-44363D01*
X67292Y-44364D01*
X67305Y-44369D01*
X67320Y-44374D01*
X67336Y-44377D01*
X67356Y-44380D01*
X67377Y-44382D01*
X67384Y-44383D01*
X67389Y-44384D01*
X67393Y-44385D01*
X67395Y-44386D01*
X67397Y-44388D01*
X67397Y-44388D01*
X67400Y-44394D01*
X67400Y-44400D01*
X67398Y-44406D01*
X67396Y-44408D01*
X67394Y-44410D01*
X67391Y-44411D01*
X67388Y-44412D01*
X67383Y-44412D01*
X67378Y-44412D01*
X67378Y-44412D01*
X67378Y-44412D01*
G37*
G36*
X68225Y-45255D02*
X68220Y-45254D01*
X68215Y-45251D01*
X68214Y-45251D01*
X68213Y-45248D01*
X68211Y-45243D01*
X68207Y-45236D01*
X68204Y-45228D01*
X68200Y-45219D01*
X68199Y-45216D01*
X68196Y-45209D01*
X68192Y-45200D01*
X68187Y-45188D01*
X68181Y-45174D01*
X68175Y-45159D01*
X68169Y-45143D01*
X68161Y-45126D01*
X68154Y-45109D01*
X68147Y-45091D01*
X68146Y-45088D01*
X68132Y-45053D01*
X68117Y-45018D01*
X68102Y-44982D01*
X68088Y-44946D01*
X68074Y-44911D01*
X68060Y-44876D01*
X68047Y-44843D01*
X68034Y-44811D01*
X68023Y-44782D01*
X68022Y-44779D01*
X68017Y-44767D01*
X68013Y-44756D01*
X68009Y-44746D01*
X68006Y-44738D01*
X68004Y-44732D01*
X68002Y-44728D01*
X68002Y-44727D01*
X68001Y-44725D01*
X67999Y-44724D01*
X67995Y-44723D01*
X67989Y-44722D01*
X67982Y-44721D01*
X67975Y-44720D01*
X67969Y-44719D01*
X67964Y-44719D01*
X67963Y-44719D01*
X67963Y-44720D01*
X67964Y-44725D01*
X67966Y-44732D01*
X67968Y-44741D01*
X67970Y-44753D01*
X67973Y-44767D01*
X67976Y-44783D01*
X67980Y-44800D01*
X67984Y-44819D01*
X67989Y-44839D01*
X67993Y-44860D01*
X67996Y-44874D01*
X68001Y-44896D01*
X68005Y-44917D01*
X68010Y-44937D01*
X68014Y-44956D01*
X68017Y-44973D01*
X68021Y-44989D01*
X68023Y-45002D01*
X68026Y-45014D01*
X68028Y-45024D01*
X68029Y-45031D01*
X68030Y-45035D01*
X68030Y-45036D01*
X68029Y-45043D01*
X68025Y-45047D01*
X68020Y-45050D01*
X68016Y-45051D01*
X68010Y-45050D01*
X68005Y-45046D01*
X68003Y-45043D01*
X68002Y-45041D01*
X68001Y-45036D01*
X67999Y-45028D01*
X67997Y-45018D01*
X67994Y-45006D01*
X67991Y-44992D01*
X67987Y-44975D01*
X67983Y-44957D01*
X67979Y-44938D01*
X67975Y-44918D01*
X67970Y-44896D01*
X67965Y-44874D01*
X67930Y-44710D01*
X67914Y-44705D01*
X67906Y-44702D01*
X67900Y-44700D01*
X67896Y-44698D01*
X67894Y-44698D01*
X67893Y-44698D01*
X67893Y-44699D01*
X67893Y-44699D01*
X67893Y-44702D01*
X67892Y-44707D01*
X67891Y-44715D01*
X67890Y-44724D01*
X67888Y-44736D01*
X67887Y-44748D01*
X67885Y-44761D01*
X67883Y-44775D01*
X67881Y-44789D01*
X67879Y-44803D01*
X67877Y-44816D01*
X67876Y-44828D01*
X67874Y-44839D01*
X67873Y-44848D01*
X67872Y-44854D01*
X67871Y-44859D01*
X67870Y-44861D01*
X67867Y-44866D01*
X67861Y-44869D01*
X67855Y-44869D01*
X67848Y-44867D01*
X67844Y-44862D01*
X67842Y-44856D01*
X67842Y-44855D01*
X67843Y-44853D01*
X67843Y-44847D01*
X67844Y-44839D01*
X67845Y-44829D01*
X67847Y-44817D01*
X67849Y-44804D01*
X67850Y-44789D01*
X67853Y-44773D01*
X67853Y-44766D01*
X67856Y-44750D01*
X67857Y-44736D01*
X67859Y-44722D01*
X67861Y-44710D01*
X67862Y-44700D01*
X67863Y-44691D01*
X67863Y-44686D01*
X67863Y-44683D01*
X67863Y-44682D01*
X67862Y-44681D01*
X67858Y-44679D01*
X67852Y-44676D01*
X67845Y-44672D01*
X67841Y-44669D01*
X67820Y-44657D01*
X67789Y-44703D01*
X67782Y-44714D01*
X67775Y-44724D01*
X67769Y-44733D01*
X67763Y-44741D01*
X67759Y-44746D01*
X67756Y-44750D01*
X67754Y-44752D01*
X67748Y-44754D01*
X67742Y-44754D01*
X67737Y-44750D01*
X67737Y-44750D01*
X67734Y-44748D01*
X67733Y-44745D01*
X67732Y-44743D01*
X67732Y-44740D01*
X67733Y-44736D01*
X67735Y-44732D01*
X67738Y-44726D01*
X67743Y-44718D01*
X67749Y-44709D01*
X67756Y-44697D01*
X67763Y-44688D01*
X67770Y-44677D01*
X67776Y-44667D01*
X67782Y-44658D01*
X67787Y-44651D01*
X67791Y-44645D01*
X67793Y-44641D01*
X67793Y-44640D01*
X67792Y-44639D01*
X67789Y-44636D01*
X67785Y-44631D01*
X67783Y-44629D01*
X67778Y-44624D01*
X67773Y-44619D01*
X67767Y-44612D01*
X67763Y-44607D01*
X67759Y-44602D01*
X67758Y-44600D01*
X67757Y-44601D01*
X67753Y-44603D01*
X67747Y-44607D01*
X67740Y-44611D01*
X67731Y-44617D01*
X67721Y-44623D01*
X67712Y-44628D01*
X67699Y-44636D01*
X67688Y-44642D01*
X67679Y-44648D01*
X67672Y-44651D01*
X67666Y-44654D01*
X67662Y-44655D01*
X67659Y-44656D01*
X67656Y-44655D01*
X67654Y-44654D01*
X67652Y-44652D01*
X67651Y-44651D01*
X67647Y-44645D01*
X67647Y-44639D01*
X67649Y-44634D01*
X67652Y-44631D01*
X67654Y-44629D01*
X67659Y-44625D01*
X67666Y-44621D01*
X67674Y-44615D01*
X67684Y-44609D01*
X67695Y-44603D01*
X67699Y-44600D01*
X67709Y-44594D01*
X67719Y-44588D01*
X67727Y-44583D01*
X67734Y-44579D01*
X67739Y-44576D01*
X67741Y-44574D01*
X67741Y-44574D01*
X67741Y-44572D01*
X67739Y-44569D01*
X67735Y-44563D01*
X67731Y-44557D01*
X67729Y-44553D01*
X67716Y-44532D01*
X67707Y-44536D01*
X67672Y-44551D01*
X67635Y-44563D01*
X67597Y-44574D01*
X67578Y-44579D01*
X67559Y-44582D01*
X67540Y-44585D01*
X67520Y-44588D01*
X67500Y-44589D01*
X67482Y-44590D01*
X67466Y-44590D01*
X67450Y-44590D01*
X67442Y-44583D01*
X67437Y-44577D01*
X67432Y-44571D01*
X67429Y-44564D01*
X67426Y-44555D01*
X67423Y-44545D01*
X67418Y-44525D01*
X67415Y-44507D01*
X67414Y-44490D01*
X67413Y-44471D01*
X67415Y-44451D01*
X67415Y-44446D01*
X67416Y-44431D01*
X67418Y-44418D01*
X67420Y-44407D01*
X67422Y-44397D01*
X67425Y-44387D01*
X67429Y-44377D01*
X67433Y-44365D01*
X67435Y-44361D01*
X67446Y-44337D01*
X67459Y-44315D01*
X67464Y-44309D01*
X68111Y-44309D01*
X68117Y-44308D01*
X68129Y-44305D01*
X68139Y-44300D01*
X68145Y-44296D01*
X68151Y-44289D01*
X68156Y-44279D01*
X68160Y-44269D01*
X68163Y-44258D01*
X68165Y-44250D01*
X68165Y-44240D01*
X68166Y-44229D01*
X68166Y-44217D01*
X68166Y-44204D01*
X68165Y-44192D01*
X68164Y-44181D01*
X68163Y-44174D01*
X68161Y-44160D01*
X68158Y-44145D01*
X68154Y-44129D01*
X68149Y-44112D01*
X68144Y-44095D01*
X68139Y-44079D01*
X68134Y-44065D01*
X68133Y-44061D01*
X68127Y-44046D01*
X68126Y-44054D01*
X68124Y-44063D01*
X68123Y-44074D01*
X68122Y-44087D01*
X68120Y-44101D01*
X68119Y-44115D01*
X68118Y-44128D01*
X68117Y-44141D01*
X68116Y-44153D01*
X68115Y-44162D01*
X68115Y-44169D01*
X68115Y-44169D01*
X68115Y-44182D01*
X68111Y-44176D01*
X68106Y-44171D01*
X68101Y-44169D01*
X68095Y-44170D01*
X68094Y-44170D01*
X68089Y-44173D01*
X68086Y-44178D01*
X68082Y-44186D01*
X68081Y-44189D01*
X68080Y-44196D01*
X68079Y-44204D01*
X68080Y-44212D01*
X68081Y-44219D01*
X68083Y-44225D01*
X68083Y-44225D01*
X68088Y-44231D01*
X68093Y-44234D01*
X68099Y-44234D01*
X68104Y-44231D01*
X68106Y-44230D01*
X68107Y-44228D01*
X68108Y-44228D01*
X68108Y-44228D01*
X68108Y-44231D01*
X68107Y-44237D01*
X68106Y-44242D01*
X68105Y-44250D01*
X68104Y-44259D01*
X68103Y-44269D01*
X68103Y-44273D01*
X68102Y-44281D01*
X68102Y-44287D01*
X68103Y-44290D01*
X68104Y-44294D01*
X68105Y-44297D01*
X68106Y-44300D01*
X68111Y-44309D01*
X67464Y-44309D01*
X67474Y-44294D01*
X67491Y-44273D01*
X67504Y-44259D01*
X67522Y-44242D01*
X67538Y-44227D01*
X67555Y-44213D01*
X67573Y-44201D01*
X67591Y-44190D01*
X67611Y-44180D01*
X67633Y-44170D01*
X67654Y-44161D01*
X67666Y-44157D01*
X67676Y-44153D01*
X67687Y-44150D01*
X67698Y-44147D01*
X67710Y-44144D01*
X67724Y-44141D01*
X67739Y-44138D01*
X67756Y-44135D01*
X67776Y-44132D01*
X67785Y-44130D01*
X67816Y-44125D01*
X67844Y-44120D01*
X67870Y-44115D01*
X67894Y-44110D01*
X67916Y-44105D01*
X67936Y-44099D01*
X67955Y-44093D01*
X67974Y-44086D01*
X67992Y-44079D01*
X68010Y-44071D01*
X68024Y-44064D01*
X68031Y-44060D01*
X68039Y-44055D01*
X68049Y-44049D01*
X68058Y-44043D01*
X68068Y-44036D01*
X68078Y-44029D01*
X68086Y-44022D01*
X68094Y-44017D01*
X68099Y-44012D01*
X68102Y-44008D01*
X68102Y-44008D01*
X68112Y-43994D01*
X68122Y-43978D01*
X68132Y-43959D01*
X68142Y-43939D01*
X68151Y-43919D01*
X68160Y-43898D01*
X68168Y-43878D01*
X68174Y-43858D01*
X68175Y-43856D01*
X68180Y-43838D01*
X68184Y-43822D01*
X68188Y-43808D01*
X68190Y-43795D01*
X68193Y-43781D01*
X68194Y-43768D01*
X68196Y-43754D01*
X68196Y-43745D01*
X68197Y-43738D01*
X68197Y-43734D01*
X68198Y-43731D01*
X68199Y-43730D01*
X68200Y-43730D01*
X68202Y-43730D01*
X68203Y-43732D01*
X68204Y-43734D01*
X68204Y-43738D01*
X68205Y-43744D01*
X68205Y-43752D01*
X68204Y-43762D01*
X68204Y-43775D01*
X68204Y-43789D01*
X68202Y-43821D01*
X68200Y-43849D01*
X68197Y-43875D01*
X68194Y-43900D01*
X68190Y-43922D01*
X68186Y-43943D01*
X68180Y-43964D01*
X68174Y-43983D01*
X68166Y-44003D01*
X68163Y-44011D01*
X68160Y-44019D01*
X68157Y-44025D01*
X68155Y-44030D01*
X68155Y-44034D01*
X68155Y-44034D01*
X68156Y-44036D01*
X68158Y-44041D01*
X68160Y-44047D01*
X68161Y-44051D01*
X68166Y-44064D01*
X68171Y-44080D01*
X68176Y-44097D01*
X68181Y-44114D01*
X68185Y-44131D01*
X68189Y-44147D01*
X68192Y-44162D01*
X68193Y-44168D01*
X68195Y-44181D01*
X68196Y-44196D01*
X68196Y-44211D01*
X68197Y-44226D01*
X68196Y-44239D01*
X68195Y-44246D01*
X68192Y-44266D01*
X68187Y-44284D01*
X68180Y-44299D01*
X68171Y-44312D01*
X68161Y-44322D01*
X68149Y-44330D01*
X68143Y-44332D01*
X68138Y-44334D01*
X68133Y-44335D01*
X68126Y-44337D01*
X68118Y-44338D01*
X68109Y-44339D01*
X68098Y-44340D01*
X68084Y-44341D01*
X68068Y-44341D01*
X68050Y-44342D01*
X68046Y-44342D01*
X68024Y-44343D01*
X68004Y-44344D01*
X67987Y-44345D01*
X67972Y-44347D01*
X67959Y-44348D01*
X67948Y-44350D01*
X67939Y-44352D01*
X67931Y-44354D01*
X67924Y-44356D01*
X67918Y-44359D01*
X67918Y-44359D01*
X67915Y-44360D01*
X67913Y-44362D01*
X67910Y-44364D01*
X67907Y-44368D01*
X67904Y-44372D01*
X67898Y-44379D01*
X67894Y-44385D01*
X67881Y-44401D01*
X67888Y-44411D01*
X67896Y-44421D01*
X67905Y-44434D01*
X67914Y-44449D01*
X67924Y-44466D01*
X67935Y-44485D01*
X67945Y-44504D01*
X67955Y-44523D01*
X67964Y-44542D01*
X67973Y-44561D01*
X67978Y-44573D01*
X67984Y-44587D01*
X67990Y-44602D01*
X67997Y-44618D01*
X68003Y-44635D01*
X68009Y-44651D01*
X68015Y-44667D01*
X68020Y-44682D01*
X68024Y-44695D01*
X68027Y-44705D01*
X68027Y-44706D01*
X68030Y-44713D01*
X68033Y-44722D01*
X68037Y-44735D01*
X68043Y-44750D01*
X68050Y-44767D01*
X68057Y-44787D01*
X68066Y-44809D01*
X68075Y-44833D01*
X68086Y-44859D01*
X68097Y-44887D01*
X68109Y-44917D01*
X68121Y-44948D01*
X68135Y-44981D01*
X68149Y-45015D01*
X68163Y-45051D01*
X68178Y-45088D01*
X68194Y-45125D01*
X68210Y-45164D01*
X68224Y-45197D01*
X68229Y-45209D01*
X68233Y-45219D01*
X68236Y-45227D01*
X68238Y-45232D01*
X68239Y-45237D01*
X68240Y-45240D01*
X68240Y-45242D01*
X68240Y-45244D01*
X68239Y-45246D01*
X68239Y-45246D01*
X68236Y-45251D01*
X68231Y-45254D01*
X68225Y-45255D01*
X68225Y-45255D01*
X68225Y-45255D01*
G37*
G36*
X67676Y-44040D02*
X67654Y-44039D01*
X67634Y-44036D01*
X67616Y-44031D01*
X67598Y-44024D01*
X67594Y-44022D01*
X67575Y-44011D01*
X67558Y-43998D01*
X67553Y-43993D01*
X67662Y-43993D01*
X67680Y-43993D01*
X67696Y-43991D01*
X67710Y-43987D01*
X67723Y-43982D01*
X67733Y-43975D01*
X67740Y-43967D01*
X67745Y-43958D01*
X67747Y-43948D01*
X67747Y-43938D01*
X67743Y-43927D01*
X67737Y-43915D01*
X67729Y-43903D01*
X67719Y-43892D01*
X67706Y-43880D01*
X67691Y-43869D01*
X67689Y-43868D01*
X67674Y-43858D01*
X67617Y-43858D01*
X67560Y-43858D01*
X67558Y-43870D01*
X67556Y-43880D01*
X67555Y-43891D01*
X67555Y-43902D01*
X67556Y-43912D01*
X67557Y-43920D01*
X67557Y-43922D01*
X67561Y-43933D01*
X67566Y-43943D01*
X67573Y-43952D01*
X67581Y-43961D01*
X67593Y-43971D01*
X67605Y-43980D01*
X67619Y-43986D01*
X67635Y-43990D01*
X67653Y-43992D01*
X67662Y-43993D01*
X67553Y-43993D01*
X67545Y-43984D01*
X67534Y-43969D01*
X67526Y-43952D01*
X67521Y-43933D01*
X67520Y-43931D01*
X67520Y-43926D01*
X67519Y-43918D01*
X67519Y-43909D01*
X67519Y-43899D01*
X67519Y-43888D01*
X67520Y-43879D01*
X67520Y-43870D01*
X67521Y-43864D01*
X67521Y-43862D01*
X67522Y-43858D01*
X67472Y-43858D01*
X67421Y-43858D01*
X67421Y-43836D01*
X67421Y-43814D01*
X67602Y-43814D01*
X67783Y-43814D01*
X67782Y-43835D01*
X67782Y-43857D01*
X67754Y-43857D01*
X67726Y-43858D01*
X67739Y-43868D01*
X67754Y-43881D01*
X67767Y-43897D01*
X67777Y-43913D01*
X67782Y-43925D01*
X67786Y-43936D01*
X67788Y-43946D01*
X67788Y-43957D01*
X67788Y-43961D01*
X67787Y-43974D01*
X67782Y-43985D01*
X67776Y-43997D01*
X67766Y-44008D01*
X67766Y-44009D01*
X67760Y-44015D01*
X67754Y-44020D01*
X67747Y-44024D01*
X67741Y-44027D01*
X67730Y-44032D01*
X67719Y-44035D01*
X67707Y-44038D01*
X67694Y-44039D01*
X67679Y-44040D01*
X67676Y-44040D01*
X67676Y-44040D01*
X67676Y-44040D01*
G37*
G36*
X67617Y-42324D02*
X67600Y-42324D01*
X67584Y-42320D01*
X67570Y-42315D01*
X67555Y-42307D01*
X67543Y-42295D01*
X67532Y-42282D01*
X67523Y-42267D01*
X67517Y-42249D01*
X67515Y-42240D01*
X67514Y-42232D01*
X67513Y-42221D01*
X67512Y-42210D01*
X67512Y-42198D01*
X67512Y-42186D01*
X67512Y-42176D01*
X67513Y-42169D01*
X67515Y-42155D01*
X67518Y-42140D01*
X67523Y-42125D01*
X67525Y-42119D01*
X67529Y-42106D01*
X67552Y-42105D01*
X67574Y-42105D01*
X67567Y-42119D01*
X67561Y-42135D01*
X67556Y-42153D01*
X67552Y-42170D01*
X67549Y-42186D01*
X67547Y-42201D01*
X67547Y-42205D01*
X67548Y-42217D01*
X67551Y-42229D01*
X67554Y-42241D01*
X67559Y-42251D01*
X67565Y-42259D01*
X67566Y-42260D01*
X67575Y-42268D01*
X67586Y-42274D01*
X67598Y-42277D01*
X67610Y-42278D01*
X67611Y-42278D01*
X67619Y-42276D01*
X67627Y-42274D01*
X67634Y-42270D01*
X67642Y-42265D01*
X67649Y-42257D01*
X67657Y-42248D01*
X67665Y-42237D01*
X67674Y-42224D01*
X67684Y-42207D01*
X67691Y-42195D01*
X67698Y-42182D01*
X67705Y-42172D01*
X67710Y-42163D01*
X67715Y-42156D01*
X67720Y-42149D01*
X67725Y-42144D01*
X67730Y-42138D01*
X67731Y-42138D01*
X67745Y-42126D01*
X67759Y-42117D01*
X67775Y-42112D01*
X67791Y-42109D01*
X67797Y-42109D01*
X67815Y-42110D01*
X67830Y-42114D01*
X67844Y-42120D01*
X67857Y-42129D01*
X67863Y-42135D01*
X67872Y-42146D01*
X67880Y-42156D01*
X67885Y-42169D01*
X67889Y-42182D01*
X67892Y-42199D01*
X67893Y-42207D01*
X67894Y-42220D01*
X67893Y-42234D01*
X67892Y-42248D01*
X67891Y-42263D01*
X67889Y-42276D01*
X67886Y-42288D01*
X67883Y-42296D01*
X67882Y-42300D01*
X67863Y-42300D01*
X67856Y-42300D01*
X67850Y-42300D01*
X67845Y-42300D01*
X67844Y-42300D01*
X67844Y-42298D01*
X67845Y-42294D01*
X67846Y-42288D01*
X67847Y-42285D01*
X67853Y-42265D01*
X67856Y-42243D01*
X67857Y-42232D01*
X67857Y-42214D01*
X67855Y-42199D01*
X67850Y-42186D01*
X67842Y-42174D01*
X67838Y-42170D01*
X67831Y-42163D01*
X67823Y-42159D01*
X67814Y-42157D01*
X67803Y-42156D01*
X67796Y-42156D01*
X67789Y-42157D01*
X67783Y-42159D01*
X67777Y-42162D01*
X67771Y-42166D01*
X67765Y-42172D01*
X67759Y-42179D01*
X67752Y-42189D01*
X67744Y-42200D01*
X67735Y-42214D01*
X67725Y-42230D01*
X67723Y-42235D01*
X67713Y-42250D01*
X67705Y-42263D01*
X67698Y-42273D01*
X67692Y-42282D01*
X67686Y-42289D01*
X67681Y-42295D01*
X67675Y-42300D01*
X67670Y-42305D01*
X67663Y-42309D01*
X67662Y-42310D01*
X67648Y-42317D01*
X67633Y-42322D01*
X67617Y-42324D01*
X67617Y-42324D01*
X67617Y-42324D01*
G37*
G36*
X67641Y-42903D02*
X67626Y-42902D01*
X67613Y-42900D01*
X67601Y-42897D01*
X67589Y-42893D01*
X67571Y-42883D01*
X67555Y-42872D01*
X67542Y-42858D01*
X67541Y-42857D01*
X67654Y-42857D01*
X67673Y-42856D01*
X67690Y-42853D01*
X67706Y-42848D01*
X67720Y-42841D01*
X67730Y-42833D01*
X67740Y-42823D01*
X67746Y-42813D01*
X67751Y-42800D01*
X67752Y-42787D01*
X67752Y-42778D01*
X67752Y-42770D01*
X67751Y-42764D01*
X67750Y-42759D01*
X67747Y-42753D01*
X67747Y-42752D01*
X67739Y-42740D01*
X67729Y-42729D01*
X67717Y-42721D01*
X67701Y-42714D01*
X67693Y-42711D01*
X67688Y-42710D01*
X67683Y-42709D01*
X67678Y-42708D01*
X67672Y-42708D01*
X67664Y-42708D01*
X67654Y-42708D01*
X67652Y-42708D01*
X67639Y-42708D01*
X67629Y-42708D01*
X67620Y-42709D01*
X67612Y-42711D01*
X67605Y-42713D01*
X67597Y-42716D01*
X67591Y-42719D01*
X67578Y-42727D01*
X67567Y-42737D01*
X67559Y-42748D01*
X67554Y-42761D01*
X67551Y-42775D01*
X67551Y-42790D01*
X67552Y-42794D01*
X67556Y-42808D01*
X67562Y-42820D01*
X67571Y-42831D01*
X67583Y-42840D01*
X67596Y-42847D01*
X67613Y-42853D01*
X67631Y-42856D01*
X67635Y-42857D01*
X67654Y-42857D01*
X67541Y-42857D01*
X67531Y-42843D01*
X67523Y-42827D01*
X67517Y-42809D01*
X67515Y-42790D01*
X67515Y-42771D01*
X67518Y-42752D01*
X67524Y-42735D01*
X67532Y-42718D01*
X67543Y-42704D01*
X67556Y-42691D01*
X67572Y-42680D01*
X67590Y-42671D01*
X67609Y-42665D01*
X67614Y-42663D01*
X67620Y-42662D01*
X67625Y-42661D01*
X67632Y-42661D01*
X67639Y-42661D01*
X67650Y-42661D01*
X67651Y-42661D01*
X67662Y-42661D01*
X67670Y-42661D01*
X67677Y-42661D01*
X67683Y-42662D01*
X67688Y-42663D01*
X67693Y-42664D01*
X67711Y-42670D01*
X67729Y-42679D01*
X67745Y-42689D01*
X67759Y-42702D01*
X67770Y-42715D01*
X67772Y-42718D01*
X67779Y-42731D01*
X67784Y-42745D01*
X67787Y-42760D01*
X67789Y-42777D01*
X67788Y-42788D01*
X67787Y-42804D01*
X67785Y-42817D01*
X67781Y-42830D01*
X67775Y-42841D01*
X67773Y-42844D01*
X67765Y-42856D01*
X67754Y-42868D01*
X67741Y-42878D01*
X67727Y-42887D01*
X67713Y-42893D01*
X67704Y-42897D01*
X67696Y-42899D01*
X67688Y-42901D01*
X67680Y-42902D01*
X67670Y-42903D01*
X67658Y-42903D01*
X67657Y-42903D01*
X67641Y-42903D01*
X67641Y-42903D01*
X67641Y-42903D01*
G37*
G36*
X67530Y-43465D02*
X67528Y-43461D01*
X67527Y-43458D01*
X67526Y-43452D01*
X67524Y-43445D01*
X67523Y-43442D01*
X67518Y-43419D01*
X67516Y-43397D01*
X67515Y-43376D01*
X67516Y-43365D01*
X67518Y-43351D01*
X67522Y-43336D01*
X67528Y-43322D01*
X67533Y-43312D01*
X67543Y-43298D01*
X67555Y-43285D01*
X67568Y-43274D01*
X67583Y-43264D01*
X67586Y-43263D01*
X67603Y-43256D01*
X67621Y-43251D01*
X67640Y-43249D01*
X67660Y-43249D01*
X67679Y-43251D01*
X67697Y-43255D01*
X67714Y-43261D01*
X67715Y-43262D01*
X67732Y-43272D01*
X67747Y-43284D01*
X67761Y-43298D01*
X67772Y-43314D01*
X67780Y-43331D01*
X67785Y-43346D01*
X67788Y-43364D01*
X67789Y-43383D01*
X67787Y-43404D01*
X67784Y-43425D01*
X67779Y-43447D01*
X67778Y-43453D01*
X67774Y-43465D01*
X67754Y-43465D01*
X67745Y-43465D01*
X67740Y-43465D01*
X67736Y-43464D01*
X67734Y-43464D01*
X67734Y-43463D01*
X67734Y-43462D01*
X67735Y-43460D01*
X67737Y-43455D01*
X67739Y-43448D01*
X67741Y-43442D01*
X67744Y-43433D01*
X67747Y-43425D01*
X67749Y-43417D01*
X67750Y-43412D01*
X67752Y-43402D01*
X67752Y-43391D01*
X67752Y-43379D01*
X67752Y-43369D01*
X67750Y-43360D01*
X67750Y-43360D01*
X67745Y-43345D01*
X67737Y-43332D01*
X67726Y-43321D01*
X67713Y-43311D01*
X67699Y-43304D01*
X67683Y-43299D01*
X67665Y-43296D01*
X67654Y-43296D01*
X67640Y-43296D01*
X67628Y-43298D01*
X67616Y-43301D01*
X67605Y-43306D01*
X67590Y-43315D01*
X67578Y-43324D01*
X67568Y-43335D01*
X67561Y-43348D01*
X67559Y-43353D01*
X67558Y-43359D01*
X67556Y-43368D01*
X67556Y-43378D01*
X67555Y-43389D01*
X67555Y-43399D01*
X67556Y-43409D01*
X67556Y-43413D01*
X67558Y-43419D01*
X67559Y-43426D01*
X67562Y-43434D01*
X67564Y-43443D01*
X67567Y-43452D01*
X67569Y-43458D01*
X67570Y-43462D01*
X67570Y-43463D01*
X67569Y-43464D01*
X67567Y-43465D01*
X67562Y-43465D01*
X67555Y-43465D01*
X67550Y-43465D01*
X67530Y-43465D01*
X67530Y-43465D01*
X67530Y-43465D01*
G37*
G36*
X67524Y-43755D02*
X67523Y-43754D01*
X67522Y-43752D01*
X67522Y-43748D01*
X67522Y-43742D01*
X67522Y-43733D01*
X67522Y-43733D01*
X67522Y-43710D01*
X67538Y-43707D01*
X67547Y-43706D01*
X67556Y-43705D01*
X67564Y-43704D01*
X67566Y-43704D01*
X67572Y-43703D01*
X67577Y-43703D01*
X67579Y-43702D01*
X67579Y-43702D01*
X67579Y-43702D01*
X67630Y-43702D01*
X67686Y-43701D01*
X67744Y-43701D01*
X67746Y-43692D01*
X67747Y-43687D01*
X67748Y-43679D01*
X67748Y-43671D01*
X67749Y-43667D01*
X67749Y-43650D01*
X67746Y-43636D01*
X67742Y-43623D01*
X67734Y-43610D01*
X67724Y-43598D01*
X67723Y-43597D01*
X67711Y-43588D01*
X67699Y-43580D01*
X67686Y-43574D01*
X67672Y-43570D01*
X67663Y-43568D01*
X67651Y-43567D01*
X67639Y-43567D01*
X67627Y-43566D01*
X67615Y-43567D01*
X67606Y-43568D01*
X67601Y-43569D01*
X67587Y-43574D01*
X67575Y-43581D01*
X67566Y-43590D01*
X67561Y-43596D01*
X67557Y-43606D01*
X67557Y-43617D01*
X67559Y-43628D01*
X67560Y-43632D01*
X67563Y-43639D01*
X67567Y-43645D01*
X67569Y-43648D01*
X67575Y-43656D01*
X67583Y-43665D01*
X67593Y-43674D01*
X67603Y-43683D01*
X67612Y-43690D01*
X67615Y-43692D01*
X67630Y-43702D01*
X67579Y-43702D01*
X67577Y-43701D01*
X67574Y-43698D01*
X67571Y-43696D01*
X67563Y-43690D01*
X67554Y-43682D01*
X67546Y-43673D01*
X67538Y-43664D01*
X67535Y-43660D01*
X67526Y-43644D01*
X67519Y-43628D01*
X67516Y-43613D01*
X67515Y-43597D01*
X67516Y-43593D01*
X67519Y-43580D01*
X67525Y-43568D01*
X67533Y-43556D01*
X67543Y-43545D01*
X67555Y-43536D01*
X67566Y-43530D01*
X67572Y-43528D01*
X67579Y-43525D01*
X67587Y-43523D01*
X67588Y-43523D01*
X67610Y-43520D01*
X67632Y-43519D01*
X67653Y-43521D01*
X67674Y-43525D01*
X67694Y-43531D01*
X67713Y-43539D01*
X67731Y-43549D01*
X67746Y-43561D01*
X67759Y-43575D01*
X67761Y-43577D01*
X67768Y-43588D01*
X67774Y-43598D01*
X67779Y-43609D01*
X67781Y-43617D01*
X67782Y-43622D01*
X67783Y-43627D01*
X67784Y-43634D01*
X67784Y-43641D01*
X67785Y-43650D01*
X67785Y-43661D01*
X67784Y-43673D01*
X67784Y-43689D01*
X67783Y-43707D01*
X67783Y-43710D01*
X67782Y-43746D01*
X67680Y-43746D01*
X67656Y-43746D01*
X67636Y-43746D01*
X67617Y-43746D01*
X67602Y-43746D01*
X67588Y-43747D01*
X67576Y-43747D01*
X67566Y-43748D01*
X67557Y-43748D01*
X67550Y-43749D01*
X67543Y-43750D01*
X67537Y-43751D01*
X67531Y-43753D01*
X67526Y-43754D01*
X67525Y-43755D01*
X67524Y-43755D01*
X67524Y-43755D01*
X67524Y-43755D01*
G37*
G36*
X67522Y-42606D02*
X67522Y-42585D01*
X67522Y-42564D01*
X67615Y-42563D01*
X67638Y-42563D01*
X67658Y-42563D01*
X67675Y-42562D01*
X67689Y-42562D01*
X67701Y-42562D01*
X67709Y-42561D01*
X67715Y-42561D01*
X67717Y-42560D01*
X67728Y-42557D01*
X67736Y-42551D01*
X67743Y-42543D01*
X67748Y-42534D01*
X67749Y-42527D01*
X67749Y-42517D01*
X67745Y-42506D01*
X67740Y-42494D01*
X67732Y-42482D01*
X67722Y-42470D01*
X67711Y-42459D01*
X67698Y-42448D01*
X67684Y-42439D01*
X67683Y-42438D01*
X67673Y-42433D01*
X67598Y-42433D01*
X67522Y-42433D01*
X67522Y-42411D01*
X67522Y-42390D01*
X67652Y-42390D01*
X67782Y-42390D01*
X67782Y-42411D01*
X67782Y-42433D01*
X67754Y-42433D01*
X67727Y-42433D01*
X67732Y-42437D01*
X67741Y-42444D01*
X67747Y-42449D01*
X67753Y-42454D01*
X67757Y-42459D01*
X67762Y-42464D01*
X67762Y-42465D01*
X67773Y-42479D01*
X67781Y-42495D01*
X67786Y-42510D01*
X67789Y-42526D01*
X67788Y-42541D01*
X67785Y-42555D01*
X67778Y-42569D01*
X67776Y-42572D01*
X67770Y-42582D01*
X67762Y-42589D01*
X67753Y-42595D01*
X67742Y-42599D01*
X67730Y-42602D01*
X67714Y-42604D01*
X67712Y-42604D01*
X67707Y-42605D01*
X67699Y-42605D01*
X67689Y-42605D01*
X67677Y-42606D01*
X67663Y-42606D01*
X67648Y-42606D01*
X67632Y-42606D01*
X67615Y-42606D01*
X67608Y-42606D01*
X67522Y-42606D01*
X67522Y-42606D01*
X67522Y-42606D01*
G37*
G36*
X67781Y-43205D02*
X67780Y-43205D01*
X67775Y-43204D01*
X67768Y-43203D01*
X67758Y-43201D01*
X67746Y-43199D01*
X67733Y-43197D01*
X67717Y-43195D01*
X67700Y-43192D01*
X67681Y-43189D01*
X67662Y-43186D01*
X67651Y-43184D01*
X67522Y-43163D01*
X67522Y-43143D01*
X67523Y-43123D01*
X67606Y-43098D01*
X67623Y-43093D01*
X67638Y-43088D01*
X67653Y-43084D01*
X67668Y-43080D01*
X67680Y-43076D01*
X67691Y-43073D01*
X67700Y-43071D01*
X67706Y-43069D01*
X67707Y-43069D01*
X67714Y-43068D01*
X67721Y-43066D01*
X67724Y-43065D01*
X67726Y-43065D01*
X67724Y-43064D01*
X67720Y-43063D01*
X67714Y-43062D01*
X67707Y-43060D01*
X67703Y-43059D01*
X67695Y-43057D01*
X67685Y-43055D01*
X67673Y-43052D01*
X67659Y-43049D01*
X67645Y-43045D01*
X67629Y-43041D01*
X67613Y-43037D01*
X67606Y-43035D01*
X67522Y-43014D01*
X67522Y-42993D01*
X67522Y-42984D01*
X67522Y-42978D01*
X67522Y-42975D01*
X67523Y-42972D01*
X67524Y-42971D01*
X67525Y-42971D01*
X67525Y-42971D01*
X67528Y-42971D01*
X67533Y-42970D01*
X67540Y-42968D01*
X67550Y-42967D01*
X67562Y-42965D01*
X67576Y-42963D01*
X67592Y-42960D01*
X67609Y-42957D01*
X67627Y-42954D01*
X67646Y-42951D01*
X67651Y-42950D01*
X67670Y-42947D01*
X67689Y-42944D01*
X67706Y-42941D01*
X67723Y-42939D01*
X67737Y-42936D01*
X67750Y-42934D01*
X67761Y-42933D01*
X67769Y-42931D01*
X67775Y-42930D01*
X67778Y-42930D01*
X67778Y-42930D01*
X67782Y-42929D01*
X67782Y-42949D01*
X67782Y-42958D01*
X67782Y-42964D01*
X67781Y-42968D01*
X67781Y-42969D01*
X67780Y-42969D01*
X67779Y-42970D01*
X67774Y-42970D01*
X67767Y-42972D01*
X67757Y-42973D01*
X67746Y-42975D01*
X67733Y-42977D01*
X67719Y-42979D01*
X67703Y-42982D01*
X67702Y-42982D01*
X67678Y-42986D01*
X67656Y-42989D01*
X67638Y-42992D01*
X67623Y-42994D01*
X67611Y-42996D01*
X67602Y-42998D01*
X67595Y-42999D01*
X67591Y-43000D01*
X67590Y-43000D01*
X67591Y-43001D01*
X67595Y-43002D01*
X67601Y-43003D01*
X67606Y-43004D01*
X67611Y-43005D01*
X67618Y-43006D01*
X67628Y-43009D01*
X67639Y-43011D01*
X67653Y-43015D01*
X67667Y-43018D01*
X67682Y-43022D01*
X67698Y-43026D01*
X67702Y-43027D01*
X67782Y-43048D01*
X67782Y-43068D01*
X67782Y-43087D01*
X67705Y-43110D01*
X67689Y-43114D01*
X67674Y-43119D01*
X67659Y-43123D01*
X67645Y-43127D01*
X67633Y-43130D01*
X67622Y-43133D01*
X67614Y-43135D01*
X67609Y-43137D01*
X67609Y-43137D01*
X67600Y-43139D01*
X67595Y-43140D01*
X67592Y-43141D01*
X67592Y-43142D01*
X67593Y-43142D01*
X67595Y-43143D01*
X67601Y-43144D01*
X67608Y-43145D01*
X67617Y-43146D01*
X67627Y-43148D01*
X67634Y-43149D01*
X67645Y-43151D01*
X67658Y-43153D01*
X67673Y-43155D01*
X67689Y-43158D01*
X67705Y-43160D01*
X67721Y-43162D01*
X67726Y-43163D01*
X67738Y-43165D01*
X67750Y-43167D01*
X67760Y-43169D01*
X67769Y-43170D01*
X67776Y-43171D01*
X67780Y-43172D01*
X67781Y-43172D01*
X67782Y-43173D01*
X67782Y-43177D01*
X67782Y-43182D01*
X67782Y-43188D01*
X67782Y-43195D01*
X67782Y-43200D01*
X67782Y-43204D01*
X67781Y-43205D01*
X67781Y-43205D01*
X67781Y-43205D01*
G37*
G54D14*
X65718Y-42737D02*
X65658Y-42643D01*
X65615Y-42737D02*
X65615Y-42540D01*
X65683Y-42540D01*
X65700Y-42549D01*
X65709Y-42558D01*
X65718Y-42577D01*
X65718Y-42605D01*
X65709Y-42624D01*
X65700Y-42634D01*
X65683Y-42643D01*
X65615Y-42643D01*
X65889Y-42737D02*
X65786Y-42737D01*
X65838Y-42737D02*
X65838Y-42540D01*
X65820Y-42568D01*
X65803Y-42587D01*
X65786Y-42596D01*
X65752Y-41675D02*
X65649Y-41675D01*
X65700Y-41675D02*
X65700Y-41475D01*
X65683Y-41504D01*
X65666Y-41523D01*
X65649Y-41532D01*
X65863Y-41475D02*
X65880Y-41475D01*
X65897Y-41484D01*
X65906Y-41494D01*
X65914Y-41513D01*
X65923Y-41551D01*
X65923Y-41599D01*
X65914Y-41637D01*
X65906Y-41656D01*
X65897Y-41665D01*
X65880Y-41675D01*
X65863Y-41675D01*
X65846Y-41665D01*
X65837Y-41656D01*
X65829Y-41637D01*
X65820Y-41599D01*
X65820Y-41551D01*
X65829Y-41513D01*
X65837Y-41494D01*
X65846Y-41484D01*
X65863Y-41475D01*
X66034Y-41475D02*
X66052Y-41475D01*
X66069Y-41484D01*
X66077Y-41494D01*
X66086Y-41513D01*
X66094Y-41551D01*
X66094Y-41599D01*
X66086Y-41637D01*
X66077Y-41656D01*
X66069Y-41665D01*
X66052Y-41675D01*
X66034Y-41675D01*
X66017Y-41665D01*
X66009Y-41656D01*
X66000Y-41637D01*
X65992Y-41599D01*
X65992Y-41551D01*
X66000Y-41513D01*
X66009Y-41494D01*
X66017Y-41484D01*
X66034Y-41475D01*
X66172Y-41675D02*
X66172Y-41475D01*
X66189Y-41599D02*
X66240Y-41675D01*
X66240Y-41542D02*
X66172Y-41618D01*
M02*
