G04 (created by PCBNEW (22-Jun-2014 BZR 4027)-stable) date Sun 21 Feb 2016 08:37:06 PM EET*
%MOIN*%
G04 Gerber Fmt 3.4, Leading zero omitted, Abs format*
%FSLAX34Y34*%
G01*
G70*
G90*
G04 APERTURE LIST*
%ADD10C,0.00590551*%
%ADD11R,0.045X0.025*%
%ADD12C,0.0452756*%
%ADD13C,0.035*%
%ADD14C,0.012*%
%ADD15C,0.01*%
G04 APERTURE END LIST*
G54D10*
G54D11*
X65236Y-41629D03*
X65236Y-42229D03*
G54D12*
X69342Y-39271D03*
X68555Y-39271D03*
X67767Y-39271D03*
X66980Y-39271D03*
X66192Y-39271D03*
X65405Y-39271D03*
X64618Y-39271D03*
X63830Y-39271D03*
X63043Y-39271D03*
X62255Y-39271D03*
X69342Y-47933D03*
X68555Y-47933D03*
X67767Y-47933D03*
X66980Y-47933D03*
X66192Y-47933D03*
X65405Y-47933D03*
X64618Y-47933D03*
X63830Y-47933D03*
X63043Y-47933D03*
X62255Y-47933D03*
G54D13*
X64114Y-42696D03*
X66771Y-43385D03*
X69389Y-46968D03*
X65078Y-45098D03*
X64665Y-44665D03*
X65551Y-45669D03*
X66358Y-41850D03*
G54D14*
X66082Y-42696D02*
X64114Y-42696D01*
X66771Y-43385D02*
X66082Y-42696D01*
G54D15*
X63444Y-41232D02*
X65405Y-39271D01*
X63444Y-42755D02*
X63444Y-41232D01*
X66082Y-45393D02*
X63444Y-42755D01*
X66082Y-46220D02*
X66082Y-45393D01*
X66594Y-46732D02*
X66082Y-46220D01*
X69153Y-46732D02*
X66594Y-46732D01*
X69389Y-46968D02*
X69153Y-46732D01*
X68555Y-47452D02*
X68555Y-47933D01*
X68267Y-47165D02*
X68555Y-47452D01*
X66102Y-47165D02*
X68267Y-47165D01*
X65078Y-46141D02*
X66102Y-47165D01*
X65078Y-45098D02*
X65078Y-46141D01*
X66448Y-47401D02*
X66980Y-47933D01*
X65531Y-47401D02*
X66448Y-47401D01*
X64665Y-46535D02*
X65531Y-47401D01*
X64665Y-44665D02*
X64665Y-46535D01*
X66192Y-39271D02*
X66003Y-39271D01*
X64807Y-42229D02*
X65236Y-42229D01*
X64685Y-42106D02*
X64807Y-42229D01*
X64685Y-40590D02*
X64685Y-42106D01*
X66003Y-39271D02*
X64685Y-40590D01*
X69342Y-47669D02*
X69342Y-47933D01*
X68622Y-46948D02*
X69342Y-47669D01*
X66338Y-46948D02*
X68622Y-46948D01*
X65570Y-46181D02*
X66338Y-46948D01*
X65570Y-45688D02*
X65570Y-46181D01*
X65551Y-45669D02*
X65570Y-45688D01*
G54D14*
X69342Y-39271D02*
X69342Y-39437D01*
X65236Y-40669D02*
X65236Y-41629D01*
X66161Y-39744D02*
X65236Y-40669D01*
X69035Y-39744D02*
X66161Y-39744D01*
X69342Y-39437D02*
X69035Y-39744D01*
X65236Y-41629D02*
X66137Y-41629D01*
X66137Y-41629D02*
X66358Y-41850D01*
M02*
