M48
;DRILL file {Pcbnew (2012-apr-16-27)-stable} date Sun 17 Nov 2013 02:19:35 PM EET
;FORMAT={-:-/ absolute / metric / decimal}
FMAT,2
METRIC,TZ
T1C0.635
T2C0.813
T3C0.851
T4C1.016
T5C1.151
%
G90
G05
M71
T1
X64.072Y-55.562
X65.786Y-64.389
X65.913Y-54.991
X66.929Y-45.466
X68.199Y-53.467
X68.199Y-54.737
X68.326Y-57.912
X69.342Y-63.119
X69.723Y-54.483
X70.739Y-53.155
X71.374Y-63.119
X71.628Y-68.580
X71.882Y-58.039
X73.914Y-53.213
X74.168Y-66.802
X75.438Y-49.530
X75.819Y-37.465
X76.073Y-51.435
X77.343Y-44.196
X78.486Y-50.292
X79.629Y-51.308
X80.264Y-48.514
X80.772Y-50.800
X82.550Y-56.896
X83.566Y-67.945
X85.090Y-38.862
X88.519Y-58.039
X89.281Y-45.212
X90.424Y-67.818
T2
X64.516Y-33.147
X64.516Y-73.787
T3
X67.089Y-59.985
X67.089Y-64.983
T4
X64.516Y-30.607
X64.516Y-36.576
X64.516Y-39.116
X64.516Y-41.656
X64.516Y-44.196
X64.516Y-46.736
X64.516Y-49.276
X64.516Y-71.247
X67.056Y-30.607
X67.056Y-33.147
X67.056Y-71.247
X67.056Y-73.787
X69.596Y-30.607
X69.596Y-33.147
X69.596Y-71.247
X69.596Y-73.787
X72.136Y-30.607
X72.136Y-33.147
X72.136Y-71.247
X72.136Y-73.787
X74.676Y-30.607
X74.676Y-33.147
X74.676Y-71.247
X74.676Y-73.787
X77.216Y-30.607
X77.216Y-33.147
X77.216Y-71.247
X77.216Y-73.787
X79.756Y-30.607
X79.756Y-33.147
X79.756Y-71.247
X79.756Y-73.787
X82.296Y-30.607
X82.296Y-33.147
X82.296Y-71.247
X82.296Y-73.787
X84.836Y-30.607
X84.836Y-33.147
X84.836Y-71.247
X84.836Y-73.787
X87.376Y-30.607
X87.376Y-33.147
X87.376Y-71.247
X87.376Y-73.787
X89.916Y-30.607
X89.916Y-33.147
X89.916Y-71.247
X89.916Y-73.787
X92.456Y-30.607
X92.456Y-33.147
X92.456Y-71.247
X92.456Y-73.787
T5
X64.389Y-58.984
X64.389Y-65.984
T0
M30
