G04 (created by PCBNEW (2013-jul-07)-stable) date Thu 18 Dec 2014 12:40:28 PM EET*
%MOIN*%
G04 Gerber Fmt 3.4, Leading zero omitted, Abs format*
%FSLAX34Y34*%
G01*
G70*
G90*
G04 APERTURE LIST*
%ADD10C,0.00590551*%
%ADD11C,0.0590551*%
%ADD12C,0.1*%
%ADD13C,0.055*%
%ADD14R,0.055X0.055*%
%ADD15C,0.01*%
G04 APERTURE END LIST*
G54D10*
G54D11*
X76000Y-57000D03*
X77000Y-57000D03*
X75000Y-57000D03*
G54D12*
X81500Y-56000D03*
X85500Y-58000D03*
X85500Y-56000D03*
X81500Y-58000D03*
G54D13*
X76500Y-54500D03*
X73500Y-54500D03*
X86500Y-54500D03*
X83500Y-54500D03*
G54D14*
X71000Y-59000D03*
G54D13*
X71000Y-58000D03*
X71000Y-57000D03*
X71000Y-56000D03*
X71000Y-55000D03*
X71000Y-54000D03*
G54D14*
X88000Y-59000D03*
G54D13*
X88000Y-58000D03*
X88000Y-57000D03*
X88000Y-56000D03*
X88000Y-55000D03*
X88000Y-54000D03*
G54D15*
X73500Y-54500D02*
X74000Y-54500D01*
X74000Y-54500D02*
X77000Y-57000D01*
X71000Y-54000D02*
X73000Y-54000D01*
X73000Y-54000D02*
X73500Y-54500D01*
X86500Y-54500D02*
X86500Y-57500D01*
X86500Y-57500D02*
X85500Y-58000D01*
X88000Y-54000D02*
X87000Y-54000D01*
X87000Y-54000D02*
X86500Y-54500D01*
G54D10*
G36*
X87835Y-57500D02*
X87703Y-57554D01*
X87555Y-57702D01*
X87475Y-57895D01*
X87474Y-58103D01*
X87554Y-58297D01*
X87702Y-58444D01*
X87774Y-58474D01*
X87675Y-58474D01*
X87583Y-58512D01*
X87513Y-58583D01*
X87475Y-58675D01*
X87474Y-58774D01*
X87474Y-59324D01*
X87477Y-59330D01*
X84029Y-59330D01*
X84029Y-54575D01*
X84018Y-54367D01*
X83960Y-54227D01*
X83867Y-54202D01*
X83797Y-54273D01*
X83797Y-54132D01*
X83772Y-54039D01*
X83575Y-53970D01*
X83367Y-53981D01*
X83227Y-54039D01*
X83202Y-54132D01*
X83500Y-54429D01*
X83797Y-54132D01*
X83797Y-54273D01*
X83570Y-54500D01*
X83867Y-54797D01*
X83960Y-54772D01*
X84029Y-54575D01*
X84029Y-59330D01*
X83797Y-59330D01*
X83797Y-54867D01*
X83500Y-54570D01*
X83429Y-54641D01*
X83429Y-54500D01*
X83132Y-54202D01*
X83039Y-54227D01*
X82970Y-54424D01*
X82981Y-54632D01*
X83039Y-54772D01*
X83132Y-54797D01*
X83429Y-54500D01*
X83429Y-54641D01*
X83202Y-54867D01*
X83227Y-54960D01*
X83424Y-55029D01*
X83632Y-55018D01*
X83772Y-54960D01*
X83797Y-54867D01*
X83797Y-59330D01*
X82250Y-59330D01*
X82250Y-57851D01*
X82250Y-55851D01*
X82136Y-55575D01*
X81925Y-55364D01*
X81649Y-55250D01*
X81351Y-55249D01*
X81075Y-55363D01*
X80864Y-55574D01*
X80750Y-55850D01*
X80749Y-56148D01*
X80863Y-56424D01*
X81074Y-56635D01*
X81350Y-56749D01*
X81648Y-56750D01*
X81924Y-56636D01*
X82135Y-56425D01*
X82249Y-56149D01*
X82250Y-55851D01*
X82250Y-57851D01*
X82136Y-57575D01*
X81925Y-57364D01*
X81649Y-57250D01*
X81351Y-57249D01*
X81075Y-57363D01*
X80864Y-57574D01*
X80750Y-57850D01*
X80749Y-58148D01*
X80863Y-58424D01*
X81074Y-58635D01*
X81350Y-58749D01*
X81648Y-58750D01*
X81924Y-58636D01*
X82135Y-58425D01*
X82249Y-58149D01*
X82250Y-57851D01*
X82250Y-59330D01*
X71522Y-59330D01*
X71525Y-59324D01*
X71525Y-59112D01*
X71462Y-59050D01*
X71050Y-59050D01*
X71050Y-59057D01*
X70950Y-59057D01*
X70950Y-59050D01*
X70942Y-59050D01*
X70942Y-58950D01*
X70950Y-58950D01*
X70950Y-58942D01*
X71050Y-58942D01*
X71050Y-58950D01*
X71462Y-58950D01*
X71525Y-58887D01*
X71525Y-58675D01*
X71487Y-58583D01*
X71416Y-58513D01*
X71324Y-58475D01*
X71225Y-58474D01*
X71225Y-58474D01*
X71297Y-58445D01*
X71444Y-58297D01*
X71524Y-58104D01*
X71525Y-57896D01*
X71445Y-57703D01*
X71297Y-57555D01*
X71164Y-57499D01*
X71297Y-57445D01*
X71444Y-57297D01*
X71524Y-57104D01*
X71525Y-56896D01*
X71445Y-56703D01*
X71297Y-56555D01*
X71164Y-56499D01*
X71297Y-56445D01*
X71444Y-56297D01*
X71524Y-56104D01*
X71525Y-55896D01*
X71445Y-55703D01*
X71297Y-55555D01*
X71164Y-55499D01*
X71297Y-55445D01*
X71444Y-55297D01*
X71524Y-55104D01*
X71525Y-54896D01*
X71445Y-54703D01*
X71297Y-54555D01*
X71164Y-54499D01*
X71297Y-54445D01*
X71442Y-54300D01*
X72875Y-54300D01*
X72975Y-54399D01*
X72974Y-54603D01*
X73054Y-54797D01*
X73202Y-54944D01*
X73395Y-55024D01*
X73603Y-55025D01*
X73797Y-54945D01*
X73919Y-54823D01*
X75882Y-56458D01*
X75691Y-56537D01*
X75538Y-56690D01*
X75500Y-56782D01*
X75462Y-56691D01*
X75309Y-56538D01*
X75108Y-56454D01*
X74892Y-56454D01*
X74691Y-56537D01*
X74538Y-56690D01*
X74454Y-56891D01*
X74454Y-57107D01*
X74537Y-57308D01*
X74690Y-57461D01*
X74891Y-57545D01*
X75107Y-57545D01*
X75308Y-57462D01*
X75461Y-57309D01*
X75499Y-57217D01*
X75537Y-57308D01*
X75690Y-57461D01*
X75891Y-57545D01*
X76107Y-57545D01*
X76308Y-57462D01*
X76461Y-57309D01*
X76499Y-57217D01*
X76537Y-57308D01*
X76690Y-57461D01*
X76891Y-57545D01*
X77107Y-57545D01*
X77308Y-57462D01*
X77461Y-57309D01*
X77545Y-57108D01*
X77545Y-56892D01*
X77462Y-56691D01*
X77309Y-56538D01*
X77108Y-56454D01*
X77029Y-56454D01*
X77029Y-54575D01*
X77018Y-54367D01*
X76960Y-54227D01*
X76867Y-54202D01*
X76797Y-54273D01*
X76797Y-54132D01*
X76772Y-54039D01*
X76575Y-53970D01*
X76367Y-53981D01*
X76227Y-54039D01*
X76202Y-54132D01*
X76500Y-54429D01*
X76797Y-54132D01*
X76797Y-54273D01*
X76570Y-54500D01*
X76867Y-54797D01*
X76960Y-54772D01*
X77029Y-54575D01*
X77029Y-56454D01*
X76892Y-56454D01*
X76840Y-56475D01*
X76797Y-56439D01*
X76797Y-54867D01*
X76500Y-54570D01*
X76429Y-54641D01*
X76429Y-54500D01*
X76132Y-54202D01*
X76039Y-54227D01*
X75970Y-54424D01*
X75981Y-54632D01*
X76039Y-54772D01*
X76132Y-54797D01*
X76429Y-54500D01*
X76429Y-54641D01*
X76202Y-54867D01*
X76227Y-54960D01*
X76424Y-55029D01*
X76632Y-55018D01*
X76772Y-54960D01*
X76797Y-54867D01*
X76797Y-56439D01*
X74192Y-54269D01*
X74152Y-54247D01*
X74114Y-54222D01*
X74101Y-54220D01*
X74089Y-54213D01*
X74044Y-54208D01*
X74000Y-54200D01*
X73942Y-54200D01*
X73797Y-54055D01*
X73604Y-53975D01*
X73399Y-53974D01*
X73212Y-53787D01*
X73114Y-53722D01*
X73000Y-53700D01*
X71442Y-53700D01*
X71412Y-53669D01*
X87587Y-53669D01*
X87557Y-53700D01*
X87000Y-53700D01*
X86885Y-53722D01*
X86787Y-53787D01*
X86600Y-53975D01*
X86396Y-53974D01*
X86203Y-54054D01*
X86055Y-54202D01*
X85975Y-54395D01*
X85974Y-54603D01*
X86054Y-54797D01*
X86200Y-54942D01*
X86200Y-55730D01*
X86136Y-55575D01*
X85925Y-55364D01*
X85649Y-55250D01*
X85351Y-55249D01*
X85075Y-55363D01*
X84864Y-55574D01*
X84750Y-55850D01*
X84749Y-56148D01*
X84863Y-56424D01*
X85074Y-56635D01*
X85350Y-56749D01*
X85648Y-56750D01*
X85924Y-56636D01*
X86135Y-56425D01*
X86200Y-56269D01*
X86200Y-57313D01*
X85983Y-57422D01*
X85925Y-57364D01*
X85649Y-57250D01*
X85351Y-57249D01*
X85075Y-57363D01*
X84864Y-57574D01*
X84750Y-57850D01*
X84749Y-58148D01*
X84863Y-58424D01*
X85074Y-58635D01*
X85350Y-58749D01*
X85648Y-58750D01*
X85924Y-58636D01*
X86135Y-58425D01*
X86249Y-58149D01*
X86250Y-57959D01*
X86634Y-57767D01*
X86664Y-57743D01*
X86712Y-57712D01*
X86719Y-57701D01*
X86726Y-57695D01*
X86746Y-57661D01*
X86777Y-57614D01*
X86779Y-57602D01*
X86784Y-57594D01*
X86789Y-57552D01*
X86800Y-57500D01*
X86800Y-54942D01*
X86944Y-54797D01*
X87024Y-54604D01*
X87025Y-54399D01*
X87124Y-54300D01*
X87557Y-54300D01*
X87702Y-54444D01*
X87835Y-54500D01*
X87703Y-54554D01*
X87555Y-54702D01*
X87475Y-54895D01*
X87474Y-55103D01*
X87554Y-55297D01*
X87702Y-55444D01*
X87835Y-55500D01*
X87703Y-55554D01*
X87555Y-55702D01*
X87475Y-55895D01*
X87474Y-56103D01*
X87554Y-56297D01*
X87702Y-56444D01*
X87835Y-56500D01*
X87703Y-56554D01*
X87555Y-56702D01*
X87475Y-56895D01*
X87474Y-57103D01*
X87554Y-57297D01*
X87702Y-57444D01*
X87835Y-57500D01*
X87835Y-57500D01*
G37*
G54D15*
X87835Y-57500D02*
X87703Y-57554D01*
X87555Y-57702D01*
X87475Y-57895D01*
X87474Y-58103D01*
X87554Y-58297D01*
X87702Y-58444D01*
X87774Y-58474D01*
X87675Y-58474D01*
X87583Y-58512D01*
X87513Y-58583D01*
X87475Y-58675D01*
X87474Y-58774D01*
X87474Y-59324D01*
X87477Y-59330D01*
X84029Y-59330D01*
X84029Y-54575D01*
X84018Y-54367D01*
X83960Y-54227D01*
X83867Y-54202D01*
X83797Y-54273D01*
X83797Y-54132D01*
X83772Y-54039D01*
X83575Y-53970D01*
X83367Y-53981D01*
X83227Y-54039D01*
X83202Y-54132D01*
X83500Y-54429D01*
X83797Y-54132D01*
X83797Y-54273D01*
X83570Y-54500D01*
X83867Y-54797D01*
X83960Y-54772D01*
X84029Y-54575D01*
X84029Y-59330D01*
X83797Y-59330D01*
X83797Y-54867D01*
X83500Y-54570D01*
X83429Y-54641D01*
X83429Y-54500D01*
X83132Y-54202D01*
X83039Y-54227D01*
X82970Y-54424D01*
X82981Y-54632D01*
X83039Y-54772D01*
X83132Y-54797D01*
X83429Y-54500D01*
X83429Y-54641D01*
X83202Y-54867D01*
X83227Y-54960D01*
X83424Y-55029D01*
X83632Y-55018D01*
X83772Y-54960D01*
X83797Y-54867D01*
X83797Y-59330D01*
X82250Y-59330D01*
X82250Y-57851D01*
X82250Y-55851D01*
X82136Y-55575D01*
X81925Y-55364D01*
X81649Y-55250D01*
X81351Y-55249D01*
X81075Y-55363D01*
X80864Y-55574D01*
X80750Y-55850D01*
X80749Y-56148D01*
X80863Y-56424D01*
X81074Y-56635D01*
X81350Y-56749D01*
X81648Y-56750D01*
X81924Y-56636D01*
X82135Y-56425D01*
X82249Y-56149D01*
X82250Y-55851D01*
X82250Y-57851D01*
X82136Y-57575D01*
X81925Y-57364D01*
X81649Y-57250D01*
X81351Y-57249D01*
X81075Y-57363D01*
X80864Y-57574D01*
X80750Y-57850D01*
X80749Y-58148D01*
X80863Y-58424D01*
X81074Y-58635D01*
X81350Y-58749D01*
X81648Y-58750D01*
X81924Y-58636D01*
X82135Y-58425D01*
X82249Y-58149D01*
X82250Y-57851D01*
X82250Y-59330D01*
X71522Y-59330D01*
X71525Y-59324D01*
X71525Y-59112D01*
X71462Y-59050D01*
X71050Y-59050D01*
X71050Y-59057D01*
X70950Y-59057D01*
X70950Y-59050D01*
X70942Y-59050D01*
X70942Y-58950D01*
X70950Y-58950D01*
X70950Y-58942D01*
X71050Y-58942D01*
X71050Y-58950D01*
X71462Y-58950D01*
X71525Y-58887D01*
X71525Y-58675D01*
X71487Y-58583D01*
X71416Y-58513D01*
X71324Y-58475D01*
X71225Y-58474D01*
X71225Y-58474D01*
X71297Y-58445D01*
X71444Y-58297D01*
X71524Y-58104D01*
X71525Y-57896D01*
X71445Y-57703D01*
X71297Y-57555D01*
X71164Y-57499D01*
X71297Y-57445D01*
X71444Y-57297D01*
X71524Y-57104D01*
X71525Y-56896D01*
X71445Y-56703D01*
X71297Y-56555D01*
X71164Y-56499D01*
X71297Y-56445D01*
X71444Y-56297D01*
X71524Y-56104D01*
X71525Y-55896D01*
X71445Y-55703D01*
X71297Y-55555D01*
X71164Y-55499D01*
X71297Y-55445D01*
X71444Y-55297D01*
X71524Y-55104D01*
X71525Y-54896D01*
X71445Y-54703D01*
X71297Y-54555D01*
X71164Y-54499D01*
X71297Y-54445D01*
X71442Y-54300D01*
X72875Y-54300D01*
X72975Y-54399D01*
X72974Y-54603D01*
X73054Y-54797D01*
X73202Y-54944D01*
X73395Y-55024D01*
X73603Y-55025D01*
X73797Y-54945D01*
X73919Y-54823D01*
X75882Y-56458D01*
X75691Y-56537D01*
X75538Y-56690D01*
X75500Y-56782D01*
X75462Y-56691D01*
X75309Y-56538D01*
X75108Y-56454D01*
X74892Y-56454D01*
X74691Y-56537D01*
X74538Y-56690D01*
X74454Y-56891D01*
X74454Y-57107D01*
X74537Y-57308D01*
X74690Y-57461D01*
X74891Y-57545D01*
X75107Y-57545D01*
X75308Y-57462D01*
X75461Y-57309D01*
X75499Y-57217D01*
X75537Y-57308D01*
X75690Y-57461D01*
X75891Y-57545D01*
X76107Y-57545D01*
X76308Y-57462D01*
X76461Y-57309D01*
X76499Y-57217D01*
X76537Y-57308D01*
X76690Y-57461D01*
X76891Y-57545D01*
X77107Y-57545D01*
X77308Y-57462D01*
X77461Y-57309D01*
X77545Y-57108D01*
X77545Y-56892D01*
X77462Y-56691D01*
X77309Y-56538D01*
X77108Y-56454D01*
X77029Y-56454D01*
X77029Y-54575D01*
X77018Y-54367D01*
X76960Y-54227D01*
X76867Y-54202D01*
X76797Y-54273D01*
X76797Y-54132D01*
X76772Y-54039D01*
X76575Y-53970D01*
X76367Y-53981D01*
X76227Y-54039D01*
X76202Y-54132D01*
X76500Y-54429D01*
X76797Y-54132D01*
X76797Y-54273D01*
X76570Y-54500D01*
X76867Y-54797D01*
X76960Y-54772D01*
X77029Y-54575D01*
X77029Y-56454D01*
X76892Y-56454D01*
X76840Y-56475D01*
X76797Y-56439D01*
X76797Y-54867D01*
X76500Y-54570D01*
X76429Y-54641D01*
X76429Y-54500D01*
X76132Y-54202D01*
X76039Y-54227D01*
X75970Y-54424D01*
X75981Y-54632D01*
X76039Y-54772D01*
X76132Y-54797D01*
X76429Y-54500D01*
X76429Y-54641D01*
X76202Y-54867D01*
X76227Y-54960D01*
X76424Y-55029D01*
X76632Y-55018D01*
X76772Y-54960D01*
X76797Y-54867D01*
X76797Y-56439D01*
X74192Y-54269D01*
X74152Y-54247D01*
X74114Y-54222D01*
X74101Y-54220D01*
X74089Y-54213D01*
X74044Y-54208D01*
X74000Y-54200D01*
X73942Y-54200D01*
X73797Y-54055D01*
X73604Y-53975D01*
X73399Y-53974D01*
X73212Y-53787D01*
X73114Y-53722D01*
X73000Y-53700D01*
X71442Y-53700D01*
X71412Y-53669D01*
X87587Y-53669D01*
X87557Y-53700D01*
X87000Y-53700D01*
X86885Y-53722D01*
X86787Y-53787D01*
X86600Y-53975D01*
X86396Y-53974D01*
X86203Y-54054D01*
X86055Y-54202D01*
X85975Y-54395D01*
X85974Y-54603D01*
X86054Y-54797D01*
X86200Y-54942D01*
X86200Y-55730D01*
X86136Y-55575D01*
X85925Y-55364D01*
X85649Y-55250D01*
X85351Y-55249D01*
X85075Y-55363D01*
X84864Y-55574D01*
X84750Y-55850D01*
X84749Y-56148D01*
X84863Y-56424D01*
X85074Y-56635D01*
X85350Y-56749D01*
X85648Y-56750D01*
X85924Y-56636D01*
X86135Y-56425D01*
X86200Y-56269D01*
X86200Y-57313D01*
X85983Y-57422D01*
X85925Y-57364D01*
X85649Y-57250D01*
X85351Y-57249D01*
X85075Y-57363D01*
X84864Y-57574D01*
X84750Y-57850D01*
X84749Y-58148D01*
X84863Y-58424D01*
X85074Y-58635D01*
X85350Y-58749D01*
X85648Y-58750D01*
X85924Y-58636D01*
X86135Y-58425D01*
X86249Y-58149D01*
X86250Y-57959D01*
X86634Y-57767D01*
X86664Y-57743D01*
X86712Y-57712D01*
X86719Y-57701D01*
X86726Y-57695D01*
X86746Y-57661D01*
X86777Y-57614D01*
X86779Y-57602D01*
X86784Y-57594D01*
X86789Y-57552D01*
X86800Y-57500D01*
X86800Y-54942D01*
X86944Y-54797D01*
X87024Y-54604D01*
X87025Y-54399D01*
X87124Y-54300D01*
X87557Y-54300D01*
X87702Y-54444D01*
X87835Y-54500D01*
X87703Y-54554D01*
X87555Y-54702D01*
X87475Y-54895D01*
X87474Y-55103D01*
X87554Y-55297D01*
X87702Y-55444D01*
X87835Y-55500D01*
X87703Y-55554D01*
X87555Y-55702D01*
X87475Y-55895D01*
X87474Y-56103D01*
X87554Y-56297D01*
X87702Y-56444D01*
X87835Y-56500D01*
X87703Y-56554D01*
X87555Y-56702D01*
X87475Y-56895D01*
X87474Y-57103D01*
X87554Y-57297D01*
X87702Y-57444D01*
X87835Y-57500D01*
M02*
