G04 (created by PCBNEW (2013-jul-07)-stable) date Thu 18 Dec 2014 12:40:28 PM EET*
%MOIN*%
G04 Gerber Fmt 3.4, Leading zero omitted, Abs format*
%FSLAX34Y34*%
G01*
G70*
G90*
G04 APERTURE LIST*
%ADD10C,0.00590551*%
%ADD11C,0.011811*%
%ADD12C,0.00787402*%
%ADD13C,0.008*%
%ADD14C,0.012*%
%ADD15C,0.0001*%
G04 APERTURE END LIST*
G54D10*
G54D11*
X82023Y-59210D02*
X82107Y-59239D01*
X82248Y-59239D01*
X82304Y-59210D01*
X82332Y-59182D01*
X82361Y-59126D01*
X82361Y-59070D01*
X82332Y-59014D01*
X82304Y-58985D01*
X82248Y-58957D01*
X82136Y-58929D01*
X82079Y-58901D01*
X82051Y-58873D01*
X82023Y-58817D01*
X82023Y-58760D01*
X82051Y-58704D01*
X82079Y-58676D01*
X82136Y-58648D01*
X82276Y-58648D01*
X82361Y-58676D01*
X82614Y-59239D02*
X82614Y-58648D01*
X82867Y-59239D02*
X82867Y-58929D01*
X82839Y-58873D01*
X82782Y-58845D01*
X82698Y-58845D01*
X82642Y-58873D01*
X82614Y-58901D01*
X83401Y-58845D02*
X83401Y-59239D01*
X83148Y-58845D02*
X83148Y-59154D01*
X83176Y-59210D01*
X83232Y-59239D01*
X83317Y-59239D01*
X83373Y-59210D01*
X83401Y-59182D01*
X83598Y-58845D02*
X83823Y-58845D01*
X83682Y-58648D02*
X83682Y-59154D01*
X83710Y-59210D01*
X83767Y-59239D01*
X83823Y-59239D01*
X83935Y-58845D02*
X84160Y-58845D01*
X84020Y-58648D02*
X84020Y-59154D01*
X84048Y-59210D01*
X84104Y-59239D01*
X84160Y-59239D01*
X84582Y-59210D02*
X84526Y-59239D01*
X84413Y-59239D01*
X84357Y-59210D01*
X84329Y-59154D01*
X84329Y-58929D01*
X84357Y-58873D01*
X84413Y-58845D01*
X84526Y-58845D01*
X84582Y-58873D01*
X84610Y-58929D01*
X84610Y-58985D01*
X84329Y-59042D01*
X84863Y-59239D02*
X84863Y-58845D01*
X84863Y-58957D02*
X84892Y-58901D01*
X84920Y-58873D01*
X84976Y-58845D01*
X85032Y-58845D01*
X75057Y-58929D02*
X74861Y-58929D01*
X74861Y-59239D02*
X74861Y-58648D01*
X75142Y-58648D01*
X75451Y-59239D02*
X75395Y-59210D01*
X75367Y-59182D01*
X75339Y-59126D01*
X75339Y-58957D01*
X75367Y-58901D01*
X75395Y-58873D01*
X75451Y-58845D01*
X75535Y-58845D01*
X75592Y-58873D01*
X75620Y-58901D01*
X75648Y-58957D01*
X75648Y-59126D01*
X75620Y-59182D01*
X75592Y-59210D01*
X75535Y-59239D01*
X75451Y-59239D01*
X76154Y-59210D02*
X76098Y-59239D01*
X75985Y-59239D01*
X75929Y-59210D01*
X75901Y-59182D01*
X75873Y-59126D01*
X75873Y-58957D01*
X75901Y-58901D01*
X75929Y-58873D01*
X75985Y-58845D01*
X76098Y-58845D01*
X76154Y-58873D01*
X76660Y-58845D02*
X76660Y-59239D01*
X76407Y-58845D02*
X76407Y-59154D01*
X76435Y-59210D01*
X76492Y-59239D01*
X76576Y-59239D01*
X76632Y-59210D01*
X76660Y-59182D01*
X76913Y-59210D02*
X76970Y-59239D01*
X77082Y-59239D01*
X77138Y-59210D01*
X77167Y-59154D01*
X77167Y-59126D01*
X77138Y-59070D01*
X77082Y-59042D01*
X76998Y-59042D01*
X76942Y-59014D01*
X76913Y-58957D01*
X76913Y-58929D01*
X76942Y-58873D01*
X76998Y-58845D01*
X77082Y-58845D01*
X77138Y-58873D01*
G54D12*
X78413Y-54077D02*
X78256Y-54077D01*
X78256Y-54325D02*
X78256Y-53852D01*
X78481Y-53852D01*
X78728Y-54325D02*
X78683Y-54302D01*
X78661Y-54257D01*
X78661Y-53852D01*
X79111Y-54325D02*
X79111Y-54077D01*
X79088Y-54032D01*
X79043Y-54010D01*
X78953Y-54010D01*
X78908Y-54032D01*
X79111Y-54302D02*
X79066Y-54325D01*
X78953Y-54325D01*
X78908Y-54302D01*
X78886Y-54257D01*
X78886Y-54212D01*
X78908Y-54167D01*
X78953Y-54145D01*
X79066Y-54145D01*
X79111Y-54122D01*
X79313Y-54302D02*
X79358Y-54325D01*
X79448Y-54325D01*
X79493Y-54302D01*
X79516Y-54257D01*
X79516Y-54235D01*
X79493Y-54190D01*
X79448Y-54167D01*
X79381Y-54167D01*
X79336Y-54145D01*
X79313Y-54100D01*
X79313Y-54077D01*
X79336Y-54032D01*
X79381Y-54010D01*
X79448Y-54010D01*
X79493Y-54032D01*
X79718Y-54325D02*
X79718Y-53852D01*
X79921Y-54325D02*
X79921Y-54077D01*
X79898Y-54032D01*
X79853Y-54010D01*
X79786Y-54010D01*
X79741Y-54032D01*
X79718Y-54055D01*
X80123Y-54302D02*
X80168Y-54325D01*
X80258Y-54325D01*
X80303Y-54302D01*
X80326Y-54257D01*
X80326Y-54235D01*
X80303Y-54190D01*
X80258Y-54167D01*
X80191Y-54167D01*
X80146Y-54145D01*
X80123Y-54100D01*
X80123Y-54077D01*
X80146Y-54032D01*
X80191Y-54010D01*
X80258Y-54010D01*
X80303Y-54032D01*
X80528Y-54010D02*
X80528Y-54325D01*
X80528Y-54055D02*
X80551Y-54032D01*
X80596Y-54010D01*
X80663Y-54010D01*
X80708Y-54032D01*
X80731Y-54077D01*
X80731Y-54325D01*
X81158Y-54325D02*
X81158Y-54077D01*
X81136Y-54032D01*
X81091Y-54010D01*
X81001Y-54010D01*
X80956Y-54032D01*
X81158Y-54302D02*
X81113Y-54325D01*
X81001Y-54325D01*
X80956Y-54302D01*
X80933Y-54257D01*
X80933Y-54212D01*
X80956Y-54167D01*
X81001Y-54145D01*
X81113Y-54145D01*
X81158Y-54122D01*
X81383Y-54010D02*
X81383Y-54482D01*
X81383Y-54032D02*
X81428Y-54010D01*
X81518Y-54010D01*
X81563Y-54032D01*
X81586Y-54055D01*
X81608Y-54100D01*
X81608Y-54235D01*
X81586Y-54280D01*
X81563Y-54302D01*
X81518Y-54325D01*
X81428Y-54325D01*
X81383Y-54302D01*
X77716Y-55065D02*
X77716Y-54592D01*
X77874Y-54930D01*
X78031Y-54592D01*
X78031Y-55065D01*
X78256Y-54885D02*
X78616Y-54885D01*
X78773Y-54750D02*
X78953Y-54750D01*
X78841Y-54592D02*
X78841Y-54997D01*
X78863Y-55042D01*
X78908Y-55065D01*
X78953Y-55065D01*
X79111Y-55065D02*
X79111Y-54750D01*
X79111Y-54840D02*
X79133Y-54795D01*
X79156Y-54772D01*
X79201Y-54750D01*
X79246Y-54750D01*
X79403Y-55065D02*
X79403Y-54750D01*
X79403Y-54592D02*
X79381Y-54615D01*
X79403Y-54637D01*
X79426Y-54615D01*
X79403Y-54592D01*
X79403Y-54637D01*
X79831Y-54750D02*
X79831Y-55132D01*
X79808Y-55177D01*
X79786Y-55200D01*
X79741Y-55222D01*
X79673Y-55222D01*
X79628Y-55200D01*
X79831Y-55042D02*
X79786Y-55065D01*
X79696Y-55065D01*
X79651Y-55042D01*
X79628Y-55020D01*
X79606Y-54975D01*
X79606Y-54840D01*
X79628Y-54795D01*
X79651Y-54772D01*
X79696Y-54750D01*
X79786Y-54750D01*
X79831Y-54772D01*
X80258Y-54750D02*
X80258Y-55132D01*
X80236Y-55177D01*
X80213Y-55200D01*
X80168Y-55222D01*
X80101Y-55222D01*
X80056Y-55200D01*
X80258Y-55042D02*
X80213Y-55065D01*
X80123Y-55065D01*
X80078Y-55042D01*
X80056Y-55020D01*
X80033Y-54975D01*
X80033Y-54840D01*
X80056Y-54795D01*
X80078Y-54772D01*
X80123Y-54750D01*
X80213Y-54750D01*
X80258Y-54772D01*
X80663Y-55042D02*
X80618Y-55065D01*
X80528Y-55065D01*
X80483Y-55042D01*
X80461Y-54997D01*
X80461Y-54817D01*
X80483Y-54772D01*
X80528Y-54750D01*
X80618Y-54750D01*
X80663Y-54772D01*
X80686Y-54817D01*
X80686Y-54862D01*
X80461Y-54907D01*
X80888Y-55065D02*
X80888Y-54750D01*
X80888Y-54840D02*
X80911Y-54795D01*
X80933Y-54772D01*
X80978Y-54750D01*
X81023Y-54750D01*
X81496Y-54750D02*
X81608Y-55065D01*
X81721Y-54750D01*
X82148Y-55065D02*
X81878Y-55065D01*
X82013Y-55065D02*
X82013Y-54592D01*
X81968Y-54660D01*
X81923Y-54705D01*
X81878Y-54727D01*
G54D10*
X77181Y-56212D02*
X77181Y-55622D01*
X77181Y-55622D02*
X76393Y-55622D01*
X76393Y-55622D02*
X76393Y-56212D01*
X76000Y-56212D02*
X77771Y-56212D01*
X77771Y-56212D02*
X77771Y-57787D01*
X77771Y-57787D02*
X74228Y-57787D01*
X74228Y-57787D02*
X74228Y-56212D01*
X74228Y-56212D02*
X76000Y-56212D01*
X84056Y-57000D02*
G75*
G03X84056Y-57000I-556J0D01*
G74*
G01*
X84681Y-58181D02*
X84681Y-55818D01*
X84681Y-55818D02*
X82318Y-55818D01*
X82318Y-55818D02*
X82318Y-58181D01*
X82318Y-58181D02*
X84681Y-58181D01*
G54D13*
X76500Y-54500D02*
X76300Y-54500D01*
X73500Y-54500D02*
X73700Y-54500D01*
X73700Y-54500D02*
X73700Y-54900D01*
X73700Y-54900D02*
X76300Y-54900D01*
X76300Y-54900D02*
X76300Y-54100D01*
X76300Y-54100D02*
X73700Y-54100D01*
X73700Y-54100D02*
X73700Y-54500D01*
X76300Y-54700D02*
X76100Y-54900D01*
X86500Y-54500D02*
X86300Y-54500D01*
X83500Y-54500D02*
X83700Y-54500D01*
X83700Y-54500D02*
X83700Y-54900D01*
X83700Y-54900D02*
X86300Y-54900D01*
X86300Y-54900D02*
X86300Y-54100D01*
X86300Y-54100D02*
X83700Y-54100D01*
X83700Y-54100D02*
X83700Y-54500D01*
X86300Y-54700D02*
X86100Y-54900D01*
G54D14*
X71500Y-59500D02*
X70500Y-59500D01*
X70500Y-59500D02*
X70500Y-53500D01*
X70500Y-53500D02*
X71500Y-53500D01*
X71500Y-53500D02*
X71500Y-59500D01*
X71500Y-58500D02*
X70500Y-58500D01*
X88500Y-59500D02*
X87500Y-59500D01*
X87500Y-59500D02*
X87500Y-53500D01*
X87500Y-53500D02*
X88500Y-53500D01*
X88500Y-53500D02*
X88500Y-59500D01*
X88500Y-58500D02*
X87500Y-58500D01*
G54D15*
G36*
X73268Y-55641D02*
X73272Y-55642D01*
X73275Y-55645D01*
X73279Y-55649D01*
X73281Y-55654D01*
X73280Y-55658D01*
X73280Y-55661D01*
X73278Y-55664D01*
X73275Y-55667D01*
X73270Y-55671D01*
X73264Y-55676D01*
X73256Y-55682D01*
X73218Y-55708D01*
X73178Y-55732D01*
X73136Y-55755D01*
X73097Y-55774D01*
X73086Y-55778D01*
X73079Y-55782D01*
X73073Y-55784D01*
X73068Y-55785D01*
X73065Y-55785D01*
X73062Y-55785D01*
X73059Y-55784D01*
X73059Y-55784D01*
X73055Y-55781D01*
X73052Y-55776D01*
X73051Y-55771D01*
X73051Y-55768D01*
X73052Y-55765D01*
X73054Y-55762D01*
X73057Y-55759D01*
X73062Y-55756D01*
X73069Y-55753D01*
X73079Y-55748D01*
X73082Y-55747D01*
X73110Y-55734D01*
X73138Y-55720D01*
X73166Y-55704D01*
X73193Y-55688D01*
X73218Y-55671D01*
X73241Y-55655D01*
X73244Y-55653D01*
X73252Y-55647D01*
X73259Y-55643D01*
X73264Y-55641D01*
X73268Y-55641D01*
X73268Y-55641D01*
X73268Y-55641D01*
G37*
G36*
X73254Y-55771D02*
X73260Y-55773D01*
X73264Y-55776D01*
X73267Y-55782D01*
X73268Y-55787D01*
X73266Y-55793D01*
X73265Y-55795D01*
X73262Y-55797D01*
X73258Y-55800D01*
X73256Y-55800D01*
X73253Y-55801D01*
X73248Y-55803D01*
X73240Y-55806D01*
X73230Y-55809D01*
X73219Y-55812D01*
X73207Y-55816D01*
X73193Y-55820D01*
X73180Y-55824D01*
X73166Y-55828D01*
X73152Y-55833D01*
X73139Y-55837D01*
X73126Y-55840D01*
X73115Y-55844D01*
X73106Y-55846D01*
X73098Y-55849D01*
X73093Y-55850D01*
X73090Y-55851D01*
X73086Y-55851D01*
X73083Y-55850D01*
X73077Y-55846D01*
X73074Y-55840D01*
X73074Y-55835D01*
X73075Y-55829D01*
X73080Y-55825D01*
X73083Y-55823D01*
X73086Y-55821D01*
X73092Y-55819D01*
X73100Y-55817D01*
X73110Y-55814D01*
X73122Y-55810D01*
X73135Y-55806D01*
X73148Y-55802D01*
X73162Y-55798D01*
X73176Y-55793D01*
X73190Y-55789D01*
X73204Y-55785D01*
X73216Y-55782D01*
X73228Y-55778D01*
X73237Y-55776D01*
X73245Y-55774D01*
X73251Y-55772D01*
X73254Y-55771D01*
X73254Y-55771D01*
X73254Y-55771D01*
X73254Y-55771D01*
G37*
G36*
X73218Y-55879D02*
X73223Y-55879D01*
X73226Y-55879D01*
X73228Y-55880D01*
X73230Y-55880D01*
X73231Y-55881D01*
X73233Y-55883D01*
X73233Y-55883D01*
X73237Y-55889D01*
X73237Y-55895D01*
X73235Y-55900D01*
X73233Y-55902D01*
X73229Y-55906D01*
X73224Y-55908D01*
X73223Y-55908D01*
X73220Y-55908D01*
X73215Y-55909D01*
X73207Y-55910D01*
X73197Y-55911D01*
X73186Y-55912D01*
X73173Y-55913D01*
X73159Y-55915D01*
X73156Y-55915D01*
X73140Y-55917D01*
X73127Y-55918D01*
X73117Y-55919D01*
X73109Y-55919D01*
X73103Y-55920D01*
X73098Y-55920D01*
X73095Y-55920D01*
X73092Y-55920D01*
X73091Y-55920D01*
X73089Y-55919D01*
X73088Y-55918D01*
X73083Y-55914D01*
X73080Y-55909D01*
X73080Y-55903D01*
X73083Y-55898D01*
X73087Y-55894D01*
X73089Y-55893D01*
X73093Y-55892D01*
X73099Y-55891D01*
X73108Y-55890D01*
X73120Y-55888D01*
X73134Y-55887D01*
X73151Y-55885D01*
X73151Y-55885D01*
X73168Y-55883D01*
X73183Y-55881D01*
X73195Y-55880D01*
X73205Y-55879D01*
X73212Y-55879D01*
X73218Y-55879D01*
X73218Y-55879D01*
X73218Y-55879D01*
G37*
G36*
X73093Y-55961D02*
X73101Y-55961D01*
X73112Y-55962D01*
X73124Y-55963D01*
X73137Y-55965D01*
X73148Y-55967D01*
X73158Y-55970D01*
X73160Y-55970D01*
X73172Y-55974D01*
X73183Y-55978D01*
X73193Y-55982D01*
X73200Y-55986D01*
X73205Y-55990D01*
X73206Y-55992D01*
X73207Y-55998D01*
X73206Y-56004D01*
X73204Y-56008D01*
X73200Y-56012D01*
X73195Y-56014D01*
X73189Y-56013D01*
X73181Y-56010D01*
X73179Y-56009D01*
X73166Y-56004D01*
X73151Y-55999D01*
X73135Y-55996D01*
X73115Y-55993D01*
X73094Y-55991D01*
X73087Y-55990D01*
X73082Y-55989D01*
X73078Y-55988D01*
X73076Y-55987D01*
X73074Y-55985D01*
X73074Y-55985D01*
X73071Y-55979D01*
X73071Y-55973D01*
X73073Y-55967D01*
X73075Y-55965D01*
X73077Y-55963D01*
X73080Y-55962D01*
X73083Y-55961D01*
X73088Y-55961D01*
X73093Y-55961D01*
X73093Y-55961D01*
X73093Y-55961D01*
G37*
G36*
X72246Y-55118D02*
X72251Y-55119D01*
X72256Y-55122D01*
X72257Y-55122D01*
X72258Y-55125D01*
X72260Y-55130D01*
X72264Y-55137D01*
X72267Y-55145D01*
X72271Y-55154D01*
X72272Y-55157D01*
X72275Y-55164D01*
X72279Y-55173D01*
X72284Y-55185D01*
X72290Y-55199D01*
X72296Y-55214D01*
X72302Y-55230D01*
X72310Y-55247D01*
X72317Y-55264D01*
X72324Y-55282D01*
X72325Y-55285D01*
X72339Y-55320D01*
X72354Y-55355D01*
X72369Y-55391D01*
X72383Y-55427D01*
X72397Y-55462D01*
X72411Y-55497D01*
X72424Y-55530D01*
X72437Y-55562D01*
X72448Y-55591D01*
X72449Y-55594D01*
X72454Y-55606D01*
X72458Y-55617D01*
X72462Y-55627D01*
X72465Y-55635D01*
X72467Y-55641D01*
X72469Y-55645D01*
X72469Y-55646D01*
X72470Y-55648D01*
X72472Y-55649D01*
X72476Y-55650D01*
X72482Y-55651D01*
X72489Y-55652D01*
X72496Y-55653D01*
X72502Y-55654D01*
X72507Y-55654D01*
X72508Y-55654D01*
X72508Y-55653D01*
X72507Y-55648D01*
X72505Y-55641D01*
X72503Y-55632D01*
X72501Y-55620D01*
X72498Y-55606D01*
X72495Y-55590D01*
X72491Y-55573D01*
X72487Y-55554D01*
X72482Y-55534D01*
X72478Y-55513D01*
X72475Y-55499D01*
X72470Y-55477D01*
X72466Y-55456D01*
X72461Y-55436D01*
X72457Y-55417D01*
X72454Y-55400D01*
X72450Y-55384D01*
X72448Y-55371D01*
X72445Y-55359D01*
X72443Y-55349D01*
X72442Y-55342D01*
X72441Y-55338D01*
X72441Y-55337D01*
X72442Y-55330D01*
X72446Y-55326D01*
X72451Y-55323D01*
X72455Y-55322D01*
X72461Y-55323D01*
X72466Y-55327D01*
X72468Y-55330D01*
X72469Y-55332D01*
X72470Y-55337D01*
X72472Y-55345D01*
X72474Y-55355D01*
X72477Y-55367D01*
X72480Y-55381D01*
X72484Y-55398D01*
X72488Y-55416D01*
X72492Y-55435D01*
X72496Y-55455D01*
X72501Y-55477D01*
X72506Y-55499D01*
X72541Y-55663D01*
X72557Y-55668D01*
X72565Y-55671D01*
X72571Y-55673D01*
X72575Y-55675D01*
X72577Y-55675D01*
X72578Y-55675D01*
X72578Y-55674D01*
X72578Y-55674D01*
X72578Y-55671D01*
X72579Y-55666D01*
X72580Y-55658D01*
X72581Y-55649D01*
X72583Y-55637D01*
X72584Y-55625D01*
X72586Y-55612D01*
X72588Y-55598D01*
X72590Y-55584D01*
X72592Y-55570D01*
X72594Y-55557D01*
X72595Y-55545D01*
X72597Y-55534D01*
X72598Y-55525D01*
X72599Y-55519D01*
X72600Y-55514D01*
X72601Y-55512D01*
X72604Y-55507D01*
X72610Y-55504D01*
X72616Y-55504D01*
X72623Y-55506D01*
X72627Y-55511D01*
X72629Y-55517D01*
X72629Y-55518D01*
X72628Y-55520D01*
X72628Y-55526D01*
X72627Y-55534D01*
X72626Y-55544D01*
X72624Y-55556D01*
X72622Y-55569D01*
X72621Y-55584D01*
X72618Y-55600D01*
X72618Y-55607D01*
X72615Y-55623D01*
X72614Y-55637D01*
X72612Y-55651D01*
X72610Y-55663D01*
X72609Y-55673D01*
X72608Y-55682D01*
X72608Y-55687D01*
X72608Y-55690D01*
X72608Y-55691D01*
X72609Y-55692D01*
X72613Y-55694D01*
X72619Y-55697D01*
X72626Y-55701D01*
X72630Y-55704D01*
X72651Y-55716D01*
X72682Y-55670D01*
X72689Y-55659D01*
X72696Y-55649D01*
X72702Y-55640D01*
X72708Y-55632D01*
X72712Y-55627D01*
X72715Y-55623D01*
X72717Y-55621D01*
X72723Y-55619D01*
X72729Y-55619D01*
X72734Y-55623D01*
X72734Y-55623D01*
X72737Y-55625D01*
X72738Y-55628D01*
X72739Y-55630D01*
X72739Y-55633D01*
X72738Y-55637D01*
X72736Y-55641D01*
X72733Y-55647D01*
X72728Y-55655D01*
X72722Y-55664D01*
X72715Y-55676D01*
X72708Y-55685D01*
X72701Y-55696D01*
X72695Y-55706D01*
X72689Y-55715D01*
X72684Y-55722D01*
X72680Y-55728D01*
X72678Y-55732D01*
X72678Y-55733D01*
X72679Y-55734D01*
X72682Y-55737D01*
X72686Y-55742D01*
X72688Y-55744D01*
X72693Y-55749D01*
X72698Y-55754D01*
X72704Y-55761D01*
X72708Y-55766D01*
X72712Y-55771D01*
X72713Y-55773D01*
X72714Y-55772D01*
X72718Y-55770D01*
X72724Y-55766D01*
X72731Y-55762D01*
X72740Y-55756D01*
X72750Y-55750D01*
X72759Y-55745D01*
X72772Y-55737D01*
X72783Y-55731D01*
X72792Y-55725D01*
X72799Y-55722D01*
X72805Y-55719D01*
X72809Y-55718D01*
X72812Y-55717D01*
X72815Y-55718D01*
X72817Y-55719D01*
X72819Y-55721D01*
X72820Y-55722D01*
X72824Y-55728D01*
X72824Y-55734D01*
X72822Y-55739D01*
X72819Y-55742D01*
X72817Y-55744D01*
X72812Y-55748D01*
X72805Y-55752D01*
X72797Y-55758D01*
X72787Y-55764D01*
X72776Y-55770D01*
X72772Y-55773D01*
X72762Y-55779D01*
X72752Y-55785D01*
X72744Y-55790D01*
X72737Y-55794D01*
X72732Y-55797D01*
X72730Y-55799D01*
X72730Y-55799D01*
X72730Y-55801D01*
X72732Y-55804D01*
X72736Y-55810D01*
X72740Y-55816D01*
X72742Y-55820D01*
X72755Y-55841D01*
X72764Y-55837D01*
X72799Y-55822D01*
X72836Y-55810D01*
X72874Y-55799D01*
X72893Y-55794D01*
X72912Y-55791D01*
X72931Y-55788D01*
X72951Y-55785D01*
X72971Y-55784D01*
X72989Y-55783D01*
X73005Y-55783D01*
X73021Y-55783D01*
X73029Y-55790D01*
X73034Y-55796D01*
X73039Y-55802D01*
X73042Y-55809D01*
X73045Y-55818D01*
X73048Y-55828D01*
X73053Y-55848D01*
X73056Y-55866D01*
X73057Y-55883D01*
X73058Y-55902D01*
X73056Y-55922D01*
X73056Y-55927D01*
X73055Y-55942D01*
X73053Y-55955D01*
X73051Y-55966D01*
X73049Y-55976D01*
X73046Y-55986D01*
X73042Y-55996D01*
X73038Y-56008D01*
X73036Y-56012D01*
X73025Y-56036D01*
X73012Y-56058D01*
X73007Y-56064D01*
X72360Y-56064D01*
X72354Y-56065D01*
X72342Y-56068D01*
X72332Y-56073D01*
X72326Y-56077D01*
X72320Y-56084D01*
X72315Y-56094D01*
X72311Y-56104D01*
X72308Y-56115D01*
X72306Y-56123D01*
X72306Y-56133D01*
X72305Y-56144D01*
X72305Y-56156D01*
X72305Y-56169D01*
X72306Y-56181D01*
X72307Y-56192D01*
X72308Y-56199D01*
X72310Y-56213D01*
X72313Y-56228D01*
X72317Y-56244D01*
X72322Y-56261D01*
X72327Y-56278D01*
X72332Y-56294D01*
X72337Y-56308D01*
X72338Y-56312D01*
X72344Y-56327D01*
X72345Y-56319D01*
X72347Y-56310D01*
X72348Y-56299D01*
X72349Y-56286D01*
X72351Y-56272D01*
X72352Y-56258D01*
X72353Y-56245D01*
X72354Y-56232D01*
X72355Y-56220D01*
X72356Y-56211D01*
X72356Y-56204D01*
X72356Y-56204D01*
X72356Y-56191D01*
X72360Y-56197D01*
X72365Y-56202D01*
X72370Y-56204D01*
X72376Y-56203D01*
X72377Y-56203D01*
X72382Y-56200D01*
X72385Y-56195D01*
X72389Y-56187D01*
X72390Y-56184D01*
X72391Y-56177D01*
X72392Y-56169D01*
X72391Y-56161D01*
X72390Y-56154D01*
X72388Y-56148D01*
X72388Y-56148D01*
X72383Y-56142D01*
X72378Y-56139D01*
X72372Y-56139D01*
X72367Y-56142D01*
X72365Y-56143D01*
X72364Y-56145D01*
X72363Y-56145D01*
X72363Y-56145D01*
X72363Y-56142D01*
X72364Y-56136D01*
X72365Y-56131D01*
X72366Y-56123D01*
X72367Y-56114D01*
X72368Y-56104D01*
X72368Y-56100D01*
X72369Y-56092D01*
X72369Y-56086D01*
X72368Y-56083D01*
X72367Y-56079D01*
X72366Y-56076D01*
X72365Y-56073D01*
X72360Y-56064D01*
X73007Y-56064D01*
X72997Y-56079D01*
X72980Y-56100D01*
X72967Y-56114D01*
X72949Y-56131D01*
X72933Y-56146D01*
X72916Y-56160D01*
X72898Y-56172D01*
X72880Y-56183D01*
X72860Y-56193D01*
X72838Y-56203D01*
X72817Y-56212D01*
X72805Y-56216D01*
X72795Y-56220D01*
X72784Y-56223D01*
X72773Y-56226D01*
X72761Y-56229D01*
X72747Y-56232D01*
X72732Y-56235D01*
X72715Y-56238D01*
X72695Y-56241D01*
X72686Y-56243D01*
X72655Y-56248D01*
X72627Y-56253D01*
X72601Y-56258D01*
X72577Y-56263D01*
X72555Y-56268D01*
X72535Y-56274D01*
X72516Y-56280D01*
X72497Y-56287D01*
X72479Y-56294D01*
X72461Y-56302D01*
X72447Y-56309D01*
X72440Y-56313D01*
X72432Y-56318D01*
X72422Y-56324D01*
X72413Y-56330D01*
X72403Y-56337D01*
X72393Y-56344D01*
X72385Y-56351D01*
X72377Y-56356D01*
X72372Y-56361D01*
X72369Y-56365D01*
X72369Y-56365D01*
X72359Y-56379D01*
X72349Y-56395D01*
X72339Y-56414D01*
X72329Y-56434D01*
X72320Y-56454D01*
X72311Y-56475D01*
X72303Y-56495D01*
X72297Y-56515D01*
X72296Y-56517D01*
X72291Y-56535D01*
X72287Y-56551D01*
X72283Y-56565D01*
X72281Y-56578D01*
X72278Y-56592D01*
X72277Y-56605D01*
X72275Y-56619D01*
X72275Y-56628D01*
X72274Y-56635D01*
X72274Y-56639D01*
X72273Y-56642D01*
X72272Y-56643D01*
X72271Y-56643D01*
X72269Y-56643D01*
X72268Y-56641D01*
X72267Y-56639D01*
X72267Y-56635D01*
X72266Y-56629D01*
X72266Y-56621D01*
X72267Y-56611D01*
X72267Y-56598D01*
X72267Y-56584D01*
X72269Y-56552D01*
X72271Y-56524D01*
X72274Y-56498D01*
X72277Y-56473D01*
X72281Y-56451D01*
X72285Y-56430D01*
X72291Y-56409D01*
X72297Y-56390D01*
X72305Y-56370D01*
X72308Y-56362D01*
X72311Y-56354D01*
X72314Y-56348D01*
X72316Y-56343D01*
X72316Y-56339D01*
X72316Y-56339D01*
X72315Y-56337D01*
X72313Y-56332D01*
X72311Y-56326D01*
X72310Y-56322D01*
X72305Y-56309D01*
X72300Y-56293D01*
X72295Y-56276D01*
X72290Y-56259D01*
X72286Y-56242D01*
X72282Y-56226D01*
X72279Y-56211D01*
X72278Y-56205D01*
X72276Y-56192D01*
X72275Y-56177D01*
X72275Y-56162D01*
X72274Y-56147D01*
X72275Y-56134D01*
X72276Y-56127D01*
X72279Y-56107D01*
X72284Y-56089D01*
X72291Y-56074D01*
X72300Y-56061D01*
X72310Y-56051D01*
X72322Y-56043D01*
X72328Y-56041D01*
X72333Y-56039D01*
X72338Y-56038D01*
X72345Y-56036D01*
X72353Y-56035D01*
X72362Y-56034D01*
X72373Y-56033D01*
X72387Y-56032D01*
X72403Y-56032D01*
X72421Y-56031D01*
X72425Y-56031D01*
X72447Y-56030D01*
X72467Y-56029D01*
X72484Y-56028D01*
X72499Y-56026D01*
X72512Y-56025D01*
X72523Y-56023D01*
X72532Y-56021D01*
X72540Y-56019D01*
X72547Y-56017D01*
X72553Y-56014D01*
X72553Y-56014D01*
X72556Y-56013D01*
X72558Y-56011D01*
X72561Y-56009D01*
X72564Y-56005D01*
X72567Y-56001D01*
X72573Y-55994D01*
X72577Y-55988D01*
X72590Y-55972D01*
X72583Y-55962D01*
X72575Y-55952D01*
X72566Y-55939D01*
X72557Y-55924D01*
X72547Y-55907D01*
X72536Y-55888D01*
X72526Y-55869D01*
X72516Y-55850D01*
X72507Y-55831D01*
X72498Y-55812D01*
X72493Y-55800D01*
X72487Y-55786D01*
X72481Y-55771D01*
X72474Y-55755D01*
X72468Y-55738D01*
X72462Y-55722D01*
X72456Y-55706D01*
X72451Y-55691D01*
X72447Y-55678D01*
X72444Y-55668D01*
X72444Y-55667D01*
X72441Y-55660D01*
X72438Y-55651D01*
X72434Y-55638D01*
X72428Y-55623D01*
X72421Y-55606D01*
X72414Y-55586D01*
X72405Y-55564D01*
X72396Y-55540D01*
X72385Y-55514D01*
X72374Y-55486D01*
X72362Y-55456D01*
X72350Y-55425D01*
X72336Y-55392D01*
X72322Y-55358D01*
X72308Y-55322D01*
X72293Y-55285D01*
X72277Y-55248D01*
X72261Y-55209D01*
X72247Y-55176D01*
X72242Y-55164D01*
X72238Y-55154D01*
X72235Y-55146D01*
X72233Y-55141D01*
X72232Y-55136D01*
X72231Y-55133D01*
X72231Y-55131D01*
X72231Y-55129D01*
X72232Y-55127D01*
X72232Y-55127D01*
X72235Y-55122D01*
X72240Y-55119D01*
X72246Y-55118D01*
X72246Y-55118D01*
X72246Y-55118D01*
G37*
G36*
X72795Y-56333D02*
X72817Y-56334D01*
X72837Y-56337D01*
X72855Y-56342D01*
X72873Y-56349D01*
X72877Y-56351D01*
X72896Y-56362D01*
X72913Y-56375D01*
X72918Y-56380D01*
X72809Y-56380D01*
X72791Y-56380D01*
X72775Y-56382D01*
X72761Y-56386D01*
X72748Y-56391D01*
X72738Y-56398D01*
X72731Y-56406D01*
X72726Y-56415D01*
X72724Y-56425D01*
X72724Y-56435D01*
X72728Y-56446D01*
X72734Y-56458D01*
X72742Y-56470D01*
X72752Y-56481D01*
X72765Y-56493D01*
X72780Y-56504D01*
X72782Y-56505D01*
X72797Y-56515D01*
X72854Y-56515D01*
X72911Y-56515D01*
X72913Y-56503D01*
X72915Y-56493D01*
X72916Y-56482D01*
X72916Y-56471D01*
X72915Y-56461D01*
X72914Y-56453D01*
X72914Y-56451D01*
X72910Y-56440D01*
X72905Y-56430D01*
X72898Y-56421D01*
X72890Y-56412D01*
X72878Y-56402D01*
X72866Y-56393D01*
X72852Y-56387D01*
X72836Y-56383D01*
X72818Y-56381D01*
X72809Y-56380D01*
X72918Y-56380D01*
X72926Y-56389D01*
X72937Y-56404D01*
X72945Y-56421D01*
X72950Y-56440D01*
X72951Y-56442D01*
X72951Y-56447D01*
X72952Y-56455D01*
X72952Y-56464D01*
X72952Y-56474D01*
X72952Y-56485D01*
X72951Y-56494D01*
X72951Y-56503D01*
X72950Y-56509D01*
X72950Y-56511D01*
X72949Y-56515D01*
X72999Y-56515D01*
X73050Y-56515D01*
X73050Y-56537D01*
X73050Y-56559D01*
X72869Y-56559D01*
X72688Y-56559D01*
X72689Y-56538D01*
X72689Y-56516D01*
X72717Y-56516D01*
X72745Y-56515D01*
X72732Y-56505D01*
X72717Y-56492D01*
X72704Y-56476D01*
X72694Y-56460D01*
X72689Y-56448D01*
X72685Y-56437D01*
X72683Y-56427D01*
X72683Y-56416D01*
X72683Y-56412D01*
X72684Y-56399D01*
X72689Y-56388D01*
X72695Y-56376D01*
X72705Y-56365D01*
X72705Y-56364D01*
X72711Y-56358D01*
X72717Y-56353D01*
X72724Y-56349D01*
X72730Y-56346D01*
X72741Y-56341D01*
X72752Y-56338D01*
X72764Y-56335D01*
X72777Y-56334D01*
X72792Y-56333D01*
X72795Y-56333D01*
X72795Y-56333D01*
X72795Y-56333D01*
G37*
G36*
X72854Y-58049D02*
X72871Y-58049D01*
X72887Y-58053D01*
X72901Y-58058D01*
X72916Y-58066D01*
X72928Y-58078D01*
X72939Y-58091D01*
X72948Y-58106D01*
X72954Y-58124D01*
X72956Y-58133D01*
X72957Y-58141D01*
X72958Y-58152D01*
X72959Y-58163D01*
X72959Y-58175D01*
X72959Y-58187D01*
X72959Y-58197D01*
X72958Y-58204D01*
X72956Y-58218D01*
X72953Y-58233D01*
X72948Y-58248D01*
X72946Y-58254D01*
X72942Y-58267D01*
X72919Y-58268D01*
X72897Y-58268D01*
X72904Y-58254D01*
X72910Y-58238D01*
X72915Y-58220D01*
X72919Y-58203D01*
X72922Y-58187D01*
X72924Y-58172D01*
X72924Y-58168D01*
X72923Y-58156D01*
X72920Y-58144D01*
X72917Y-58132D01*
X72912Y-58122D01*
X72906Y-58114D01*
X72905Y-58113D01*
X72896Y-58105D01*
X72885Y-58099D01*
X72873Y-58096D01*
X72861Y-58095D01*
X72860Y-58095D01*
X72852Y-58097D01*
X72844Y-58099D01*
X72837Y-58103D01*
X72829Y-58108D01*
X72822Y-58116D01*
X72814Y-58125D01*
X72806Y-58136D01*
X72797Y-58149D01*
X72787Y-58166D01*
X72780Y-58178D01*
X72773Y-58191D01*
X72766Y-58201D01*
X72761Y-58210D01*
X72756Y-58217D01*
X72751Y-58224D01*
X72746Y-58229D01*
X72741Y-58235D01*
X72740Y-58235D01*
X72726Y-58247D01*
X72712Y-58256D01*
X72696Y-58261D01*
X72680Y-58264D01*
X72674Y-58264D01*
X72656Y-58263D01*
X72641Y-58259D01*
X72627Y-58253D01*
X72614Y-58244D01*
X72608Y-58238D01*
X72599Y-58227D01*
X72591Y-58217D01*
X72586Y-58204D01*
X72582Y-58191D01*
X72579Y-58174D01*
X72578Y-58166D01*
X72577Y-58153D01*
X72578Y-58139D01*
X72579Y-58125D01*
X72580Y-58110D01*
X72582Y-58097D01*
X72585Y-58085D01*
X72588Y-58077D01*
X72589Y-58073D01*
X72608Y-58073D01*
X72615Y-58073D01*
X72621Y-58073D01*
X72626Y-58073D01*
X72627Y-58073D01*
X72627Y-58075D01*
X72626Y-58079D01*
X72625Y-58085D01*
X72624Y-58088D01*
X72618Y-58108D01*
X72615Y-58130D01*
X72614Y-58141D01*
X72614Y-58159D01*
X72616Y-58174D01*
X72621Y-58187D01*
X72629Y-58199D01*
X72633Y-58203D01*
X72640Y-58210D01*
X72648Y-58214D01*
X72657Y-58216D01*
X72668Y-58217D01*
X72675Y-58217D01*
X72682Y-58216D01*
X72688Y-58214D01*
X72694Y-58211D01*
X72700Y-58207D01*
X72706Y-58201D01*
X72712Y-58194D01*
X72719Y-58184D01*
X72727Y-58173D01*
X72736Y-58159D01*
X72746Y-58143D01*
X72748Y-58138D01*
X72758Y-58123D01*
X72766Y-58110D01*
X72773Y-58100D01*
X72779Y-58091D01*
X72785Y-58084D01*
X72790Y-58078D01*
X72796Y-58073D01*
X72801Y-58068D01*
X72808Y-58064D01*
X72809Y-58063D01*
X72823Y-58056D01*
X72838Y-58051D01*
X72854Y-58049D01*
X72854Y-58049D01*
X72854Y-58049D01*
G37*
G36*
X72830Y-57470D02*
X72845Y-57471D01*
X72858Y-57473D01*
X72870Y-57476D01*
X72882Y-57480D01*
X72900Y-57490D01*
X72916Y-57501D01*
X72929Y-57515D01*
X72930Y-57516D01*
X72817Y-57516D01*
X72798Y-57517D01*
X72781Y-57520D01*
X72765Y-57525D01*
X72751Y-57532D01*
X72741Y-57540D01*
X72731Y-57550D01*
X72725Y-57560D01*
X72720Y-57573D01*
X72719Y-57586D01*
X72719Y-57595D01*
X72719Y-57603D01*
X72720Y-57609D01*
X72721Y-57614D01*
X72724Y-57620D01*
X72724Y-57621D01*
X72732Y-57633D01*
X72742Y-57644D01*
X72754Y-57652D01*
X72770Y-57659D01*
X72778Y-57662D01*
X72783Y-57663D01*
X72788Y-57664D01*
X72793Y-57665D01*
X72799Y-57665D01*
X72807Y-57665D01*
X72817Y-57665D01*
X72819Y-57665D01*
X72832Y-57665D01*
X72842Y-57665D01*
X72851Y-57664D01*
X72859Y-57662D01*
X72866Y-57660D01*
X72874Y-57657D01*
X72880Y-57654D01*
X72893Y-57646D01*
X72904Y-57636D01*
X72912Y-57625D01*
X72917Y-57612D01*
X72920Y-57598D01*
X72920Y-57583D01*
X72919Y-57579D01*
X72915Y-57565D01*
X72909Y-57553D01*
X72900Y-57542D01*
X72888Y-57533D01*
X72875Y-57526D01*
X72858Y-57520D01*
X72840Y-57517D01*
X72836Y-57516D01*
X72817Y-57516D01*
X72930Y-57516D01*
X72940Y-57530D01*
X72948Y-57546D01*
X72954Y-57564D01*
X72956Y-57583D01*
X72956Y-57602D01*
X72953Y-57621D01*
X72947Y-57638D01*
X72939Y-57655D01*
X72928Y-57669D01*
X72915Y-57682D01*
X72899Y-57693D01*
X72881Y-57702D01*
X72862Y-57708D01*
X72857Y-57710D01*
X72851Y-57711D01*
X72846Y-57712D01*
X72839Y-57712D01*
X72832Y-57712D01*
X72821Y-57712D01*
X72820Y-57712D01*
X72809Y-57712D01*
X72801Y-57712D01*
X72794Y-57712D01*
X72788Y-57711D01*
X72783Y-57710D01*
X72778Y-57709D01*
X72760Y-57703D01*
X72742Y-57694D01*
X72726Y-57684D01*
X72712Y-57671D01*
X72701Y-57658D01*
X72699Y-57655D01*
X72692Y-57642D01*
X72687Y-57628D01*
X72684Y-57613D01*
X72682Y-57596D01*
X72683Y-57585D01*
X72684Y-57569D01*
X72686Y-57556D01*
X72690Y-57543D01*
X72696Y-57532D01*
X72698Y-57529D01*
X72706Y-57517D01*
X72717Y-57505D01*
X72730Y-57495D01*
X72744Y-57486D01*
X72758Y-57480D01*
X72767Y-57476D01*
X72775Y-57474D01*
X72783Y-57472D01*
X72791Y-57471D01*
X72801Y-57470D01*
X72813Y-57470D01*
X72814Y-57470D01*
X72830Y-57470D01*
X72830Y-57470D01*
X72830Y-57470D01*
G37*
G36*
X72941Y-56908D02*
X72943Y-56912D01*
X72944Y-56915D01*
X72945Y-56921D01*
X72947Y-56928D01*
X72948Y-56931D01*
X72953Y-56954D01*
X72955Y-56976D01*
X72956Y-56997D01*
X72955Y-57008D01*
X72953Y-57022D01*
X72949Y-57037D01*
X72943Y-57051D01*
X72938Y-57061D01*
X72928Y-57075D01*
X72916Y-57088D01*
X72903Y-57099D01*
X72888Y-57109D01*
X72885Y-57110D01*
X72868Y-57117D01*
X72850Y-57122D01*
X72831Y-57124D01*
X72811Y-57124D01*
X72792Y-57122D01*
X72774Y-57118D01*
X72757Y-57112D01*
X72756Y-57111D01*
X72739Y-57101D01*
X72724Y-57089D01*
X72710Y-57075D01*
X72699Y-57059D01*
X72691Y-57042D01*
X72686Y-57027D01*
X72683Y-57009D01*
X72682Y-56990D01*
X72684Y-56969D01*
X72687Y-56948D01*
X72692Y-56926D01*
X72693Y-56920D01*
X72697Y-56908D01*
X72717Y-56908D01*
X72726Y-56908D01*
X72731Y-56908D01*
X72735Y-56909D01*
X72737Y-56909D01*
X72737Y-56910D01*
X72737Y-56911D01*
X72736Y-56913D01*
X72734Y-56918D01*
X72732Y-56925D01*
X72730Y-56931D01*
X72727Y-56940D01*
X72724Y-56948D01*
X72722Y-56956D01*
X72721Y-56961D01*
X72719Y-56971D01*
X72719Y-56982D01*
X72719Y-56994D01*
X72719Y-57004D01*
X72721Y-57013D01*
X72721Y-57013D01*
X72726Y-57028D01*
X72734Y-57041D01*
X72745Y-57052D01*
X72758Y-57062D01*
X72772Y-57069D01*
X72788Y-57074D01*
X72806Y-57077D01*
X72817Y-57077D01*
X72831Y-57077D01*
X72843Y-57075D01*
X72855Y-57072D01*
X72866Y-57067D01*
X72881Y-57058D01*
X72893Y-57049D01*
X72903Y-57038D01*
X72910Y-57025D01*
X72912Y-57020D01*
X72913Y-57014D01*
X72915Y-57005D01*
X72915Y-56995D01*
X72916Y-56984D01*
X72916Y-56974D01*
X72915Y-56964D01*
X72915Y-56960D01*
X72913Y-56954D01*
X72912Y-56947D01*
X72909Y-56939D01*
X72907Y-56930D01*
X72904Y-56921D01*
X72902Y-56915D01*
X72901Y-56911D01*
X72901Y-56910D01*
X72902Y-56909D01*
X72904Y-56908D01*
X72909Y-56908D01*
X72916Y-56908D01*
X72921Y-56908D01*
X72941Y-56908D01*
X72941Y-56908D01*
X72941Y-56908D01*
G37*
G36*
X72947Y-56618D02*
X72948Y-56619D01*
X72949Y-56621D01*
X72949Y-56625D01*
X72949Y-56631D01*
X72949Y-56640D01*
X72949Y-56640D01*
X72949Y-56663D01*
X72933Y-56666D01*
X72924Y-56667D01*
X72915Y-56668D01*
X72907Y-56669D01*
X72905Y-56669D01*
X72899Y-56670D01*
X72894Y-56670D01*
X72892Y-56671D01*
X72892Y-56671D01*
X72892Y-56671D01*
X72841Y-56671D01*
X72785Y-56672D01*
X72727Y-56672D01*
X72725Y-56681D01*
X72724Y-56686D01*
X72723Y-56694D01*
X72723Y-56702D01*
X72722Y-56706D01*
X72722Y-56723D01*
X72725Y-56737D01*
X72729Y-56750D01*
X72737Y-56763D01*
X72747Y-56775D01*
X72748Y-56776D01*
X72760Y-56785D01*
X72772Y-56793D01*
X72785Y-56799D01*
X72799Y-56803D01*
X72808Y-56805D01*
X72820Y-56806D01*
X72832Y-56806D01*
X72844Y-56807D01*
X72856Y-56806D01*
X72865Y-56805D01*
X72870Y-56804D01*
X72884Y-56799D01*
X72896Y-56792D01*
X72905Y-56783D01*
X72910Y-56777D01*
X72914Y-56767D01*
X72914Y-56756D01*
X72912Y-56745D01*
X72911Y-56741D01*
X72908Y-56734D01*
X72904Y-56728D01*
X72902Y-56725D01*
X72896Y-56717D01*
X72888Y-56708D01*
X72878Y-56699D01*
X72868Y-56690D01*
X72859Y-56683D01*
X72856Y-56681D01*
X72841Y-56671D01*
X72892Y-56671D01*
X72894Y-56672D01*
X72897Y-56675D01*
X72900Y-56677D01*
X72908Y-56683D01*
X72917Y-56691D01*
X72925Y-56700D01*
X72933Y-56709D01*
X72936Y-56713D01*
X72945Y-56729D01*
X72952Y-56745D01*
X72955Y-56760D01*
X72956Y-56776D01*
X72955Y-56780D01*
X72952Y-56793D01*
X72946Y-56805D01*
X72938Y-56817D01*
X72928Y-56828D01*
X72916Y-56837D01*
X72905Y-56843D01*
X72899Y-56845D01*
X72892Y-56848D01*
X72884Y-56850D01*
X72883Y-56850D01*
X72861Y-56853D01*
X72839Y-56854D01*
X72818Y-56852D01*
X72797Y-56848D01*
X72777Y-56842D01*
X72758Y-56834D01*
X72740Y-56824D01*
X72725Y-56812D01*
X72712Y-56798D01*
X72710Y-56796D01*
X72703Y-56785D01*
X72697Y-56775D01*
X72692Y-56764D01*
X72690Y-56756D01*
X72689Y-56751D01*
X72688Y-56746D01*
X72687Y-56739D01*
X72687Y-56732D01*
X72686Y-56723D01*
X72686Y-56712D01*
X72687Y-56700D01*
X72687Y-56684D01*
X72688Y-56666D01*
X72688Y-56663D01*
X72689Y-56627D01*
X72791Y-56627D01*
X72815Y-56627D01*
X72835Y-56627D01*
X72854Y-56627D01*
X72869Y-56627D01*
X72883Y-56626D01*
X72895Y-56626D01*
X72905Y-56625D01*
X72914Y-56625D01*
X72921Y-56624D01*
X72928Y-56623D01*
X72934Y-56622D01*
X72940Y-56620D01*
X72945Y-56619D01*
X72946Y-56618D01*
X72947Y-56618D01*
X72947Y-56618D01*
X72947Y-56618D01*
G37*
G36*
X72949Y-57767D02*
X72949Y-57788D01*
X72949Y-57809D01*
X72856Y-57810D01*
X72833Y-57810D01*
X72813Y-57810D01*
X72796Y-57811D01*
X72782Y-57811D01*
X72770Y-57811D01*
X72762Y-57812D01*
X72756Y-57812D01*
X72754Y-57813D01*
X72743Y-57816D01*
X72735Y-57822D01*
X72728Y-57830D01*
X72723Y-57839D01*
X72722Y-57846D01*
X72722Y-57856D01*
X72726Y-57867D01*
X72731Y-57879D01*
X72739Y-57891D01*
X72749Y-57903D01*
X72760Y-57914D01*
X72773Y-57925D01*
X72787Y-57934D01*
X72788Y-57935D01*
X72798Y-57940D01*
X72873Y-57940D01*
X72949Y-57940D01*
X72949Y-57962D01*
X72949Y-57983D01*
X72819Y-57983D01*
X72689Y-57983D01*
X72689Y-57962D01*
X72689Y-57940D01*
X72717Y-57940D01*
X72744Y-57940D01*
X72739Y-57936D01*
X72730Y-57929D01*
X72724Y-57924D01*
X72718Y-57919D01*
X72714Y-57914D01*
X72709Y-57909D01*
X72709Y-57908D01*
X72698Y-57894D01*
X72690Y-57878D01*
X72685Y-57863D01*
X72682Y-57847D01*
X72683Y-57832D01*
X72686Y-57818D01*
X72693Y-57804D01*
X72695Y-57801D01*
X72701Y-57791D01*
X72709Y-57784D01*
X72718Y-57778D01*
X72729Y-57774D01*
X72741Y-57771D01*
X72757Y-57769D01*
X72759Y-57769D01*
X72764Y-57768D01*
X72772Y-57768D01*
X72782Y-57768D01*
X72794Y-57767D01*
X72808Y-57767D01*
X72823Y-57767D01*
X72839Y-57767D01*
X72856Y-57767D01*
X72863Y-57767D01*
X72949Y-57767D01*
X72949Y-57767D01*
X72949Y-57767D01*
G37*
G36*
X72690Y-57168D02*
X72691Y-57168D01*
X72696Y-57169D01*
X72703Y-57170D01*
X72713Y-57172D01*
X72725Y-57174D01*
X72738Y-57176D01*
X72754Y-57178D01*
X72771Y-57181D01*
X72790Y-57184D01*
X72809Y-57187D01*
X72820Y-57189D01*
X72949Y-57210D01*
X72949Y-57230D01*
X72948Y-57250D01*
X72865Y-57275D01*
X72848Y-57280D01*
X72833Y-57285D01*
X72818Y-57289D01*
X72803Y-57293D01*
X72791Y-57297D01*
X72780Y-57300D01*
X72771Y-57302D01*
X72765Y-57304D01*
X72764Y-57304D01*
X72757Y-57305D01*
X72750Y-57307D01*
X72747Y-57308D01*
X72745Y-57308D01*
X72747Y-57309D01*
X72751Y-57310D01*
X72757Y-57311D01*
X72764Y-57313D01*
X72768Y-57314D01*
X72776Y-57316D01*
X72786Y-57318D01*
X72798Y-57321D01*
X72812Y-57324D01*
X72826Y-57328D01*
X72842Y-57332D01*
X72858Y-57336D01*
X72865Y-57338D01*
X72949Y-57359D01*
X72949Y-57380D01*
X72949Y-57389D01*
X72949Y-57395D01*
X72949Y-57398D01*
X72948Y-57401D01*
X72947Y-57402D01*
X72946Y-57402D01*
X72946Y-57402D01*
X72943Y-57402D01*
X72938Y-57403D01*
X72931Y-57405D01*
X72921Y-57406D01*
X72909Y-57408D01*
X72895Y-57410D01*
X72879Y-57413D01*
X72862Y-57416D01*
X72844Y-57419D01*
X72825Y-57422D01*
X72820Y-57423D01*
X72801Y-57426D01*
X72782Y-57429D01*
X72765Y-57432D01*
X72748Y-57434D01*
X72734Y-57437D01*
X72721Y-57439D01*
X72710Y-57440D01*
X72702Y-57442D01*
X72696Y-57443D01*
X72693Y-57443D01*
X72693Y-57443D01*
X72689Y-57444D01*
X72689Y-57424D01*
X72689Y-57415D01*
X72689Y-57409D01*
X72690Y-57405D01*
X72690Y-57404D01*
X72691Y-57404D01*
X72692Y-57403D01*
X72697Y-57403D01*
X72704Y-57401D01*
X72714Y-57400D01*
X72725Y-57398D01*
X72738Y-57396D01*
X72752Y-57394D01*
X72768Y-57391D01*
X72769Y-57391D01*
X72793Y-57387D01*
X72815Y-57384D01*
X72833Y-57381D01*
X72848Y-57379D01*
X72860Y-57377D01*
X72869Y-57375D01*
X72876Y-57374D01*
X72880Y-57373D01*
X72881Y-57373D01*
X72880Y-57372D01*
X72876Y-57371D01*
X72870Y-57370D01*
X72865Y-57369D01*
X72860Y-57368D01*
X72853Y-57367D01*
X72843Y-57364D01*
X72832Y-57362D01*
X72818Y-57358D01*
X72804Y-57355D01*
X72789Y-57351D01*
X72773Y-57347D01*
X72769Y-57346D01*
X72689Y-57325D01*
X72689Y-57305D01*
X72689Y-57286D01*
X72766Y-57263D01*
X72782Y-57259D01*
X72797Y-57254D01*
X72812Y-57250D01*
X72826Y-57246D01*
X72838Y-57243D01*
X72849Y-57240D01*
X72857Y-57238D01*
X72862Y-57236D01*
X72862Y-57236D01*
X72871Y-57234D01*
X72876Y-57233D01*
X72879Y-57232D01*
X72879Y-57231D01*
X72878Y-57231D01*
X72876Y-57230D01*
X72870Y-57229D01*
X72863Y-57228D01*
X72854Y-57227D01*
X72844Y-57225D01*
X72837Y-57224D01*
X72826Y-57222D01*
X72813Y-57220D01*
X72798Y-57218D01*
X72782Y-57215D01*
X72766Y-57213D01*
X72750Y-57211D01*
X72745Y-57210D01*
X72733Y-57208D01*
X72721Y-57206D01*
X72711Y-57204D01*
X72702Y-57203D01*
X72695Y-57202D01*
X72691Y-57201D01*
X72690Y-57201D01*
X72689Y-57200D01*
X72689Y-57196D01*
X72689Y-57191D01*
X72689Y-57185D01*
X72689Y-57178D01*
X72689Y-57173D01*
X72689Y-57169D01*
X72690Y-57168D01*
X72690Y-57168D01*
X72690Y-57168D01*
G37*
G54D10*
X74284Y-56017D02*
X74329Y-56032D01*
X74404Y-56032D01*
X74434Y-56017D01*
X74449Y-56002D01*
X74464Y-55973D01*
X74464Y-55943D01*
X74449Y-55913D01*
X74434Y-55898D01*
X74404Y-55883D01*
X74344Y-55868D01*
X74314Y-55853D01*
X74299Y-55838D01*
X74284Y-55808D01*
X74284Y-55778D01*
X74299Y-55748D01*
X74314Y-55733D01*
X74344Y-55718D01*
X74419Y-55718D01*
X74464Y-55733D01*
X74569Y-55718D02*
X74644Y-56032D01*
X74704Y-55808D01*
X74764Y-56032D01*
X74839Y-55718D01*
X74944Y-55748D02*
X74959Y-55733D01*
X74989Y-55718D01*
X75064Y-55718D01*
X75094Y-55733D01*
X75109Y-55748D01*
X75124Y-55778D01*
X75124Y-55808D01*
X75109Y-55853D01*
X74929Y-56032D01*
X75124Y-56032D01*
X83832Y-55624D02*
X83877Y-55639D01*
X83952Y-55639D01*
X83982Y-55624D01*
X83997Y-55609D01*
X84011Y-55579D01*
X84011Y-55549D01*
X83997Y-55519D01*
X83982Y-55504D01*
X83952Y-55489D01*
X83892Y-55474D01*
X83862Y-55459D01*
X83847Y-55444D01*
X83832Y-55414D01*
X83832Y-55384D01*
X83847Y-55354D01*
X83862Y-55339D01*
X83892Y-55324D01*
X83967Y-55324D01*
X84011Y-55339D01*
X84116Y-55324D02*
X84191Y-55639D01*
X84251Y-55414D01*
X84311Y-55639D01*
X84386Y-55324D01*
X84671Y-55639D02*
X84491Y-55639D01*
X84581Y-55639D02*
X84581Y-55324D01*
X84551Y-55369D01*
X84521Y-55399D01*
X84491Y-55414D01*
G54D12*
X74947Y-54655D02*
X74842Y-54505D01*
X74767Y-54655D02*
X74767Y-54340D01*
X74887Y-54340D01*
X74917Y-54355D01*
X74932Y-54370D01*
X74947Y-54400D01*
X74947Y-54445D01*
X74932Y-54475D01*
X74917Y-54490D01*
X74887Y-54505D01*
X74767Y-54505D01*
X75247Y-54655D02*
X75067Y-54655D01*
X75157Y-54655D02*
X75157Y-54340D01*
X75127Y-54385D01*
X75097Y-54415D01*
X75067Y-54430D01*
X84986Y-54655D02*
X84881Y-54505D01*
X84806Y-54655D02*
X84806Y-54340D01*
X84926Y-54340D01*
X84956Y-54355D01*
X84971Y-54370D01*
X84986Y-54400D01*
X84986Y-54445D01*
X84971Y-54475D01*
X84956Y-54490D01*
X84926Y-54505D01*
X84806Y-54505D01*
X85106Y-54370D02*
X85121Y-54355D01*
X85151Y-54340D01*
X85226Y-54340D01*
X85256Y-54355D01*
X85271Y-54370D01*
X85286Y-54400D01*
X85286Y-54430D01*
X85271Y-54475D01*
X85091Y-54655D01*
X85286Y-54655D01*
X71716Y-59182D02*
X71716Y-58867D01*
X71836Y-58867D01*
X71866Y-58882D01*
X71881Y-58897D01*
X71896Y-58927D01*
X71896Y-58972D01*
X71881Y-59002D01*
X71866Y-59017D01*
X71836Y-59032D01*
X71716Y-59032D01*
X72196Y-59182D02*
X72016Y-59182D01*
X72106Y-59182D02*
X72106Y-58867D01*
X72076Y-58912D01*
X72046Y-58942D01*
X72016Y-58957D01*
X86767Y-59182D02*
X86767Y-58867D01*
X86887Y-58867D01*
X86917Y-58882D01*
X86932Y-58897D01*
X86947Y-58927D01*
X86947Y-58972D01*
X86932Y-59002D01*
X86917Y-59017D01*
X86887Y-59032D01*
X86767Y-59032D01*
X87067Y-58897D02*
X87082Y-58882D01*
X87112Y-58867D01*
X87187Y-58867D01*
X87217Y-58882D01*
X87232Y-58897D01*
X87247Y-58927D01*
X87247Y-58957D01*
X87232Y-59002D01*
X87052Y-59182D01*
X87247Y-59182D01*
M02*
