M48
;DRILL file {Pcbnew (2013-jul-07)-stable} date Thu 18 Dec 2014 12:40:22 PM EET
;FORMAT={2:4/ absolute / inch / suppress leading zeros}
FMAT,2
INCH,TZ
T1C0.032
T2C0.039
T3C0.045
%
G90
G05
M72
T1
X71000Y-54000
X71000Y-55000
X71000Y-56000
X71000Y-57000
X71000Y-58000
X71000Y-59000
X73500Y-54500
X76500Y-54500
X83500Y-54500
X86500Y-54500
X88000Y-54000
X88000Y-55000
X88000Y-56000
X88000Y-57000
X88000Y-58000
X88000Y-59000
T2
X75000Y-57000
X76000Y-57000
X77000Y-57000
T3
X81500Y-56000
X81500Y-58000
X85500Y-56000
X85500Y-58000
T0
M30
