G04 (created by PCBNEW-RS274X (2012-apr-16-27)-stable) date Sun 17 Nov 2013 10:41:53 AM EET*
G01*
G70*
G90*
%MOIN*%
G04 Gerber Fmt 3.4, Leading zero omitted, Abs format*
%FSLAX34Y34*%
G04 APERTURE LIST*
%ADD10C,0.006000*%
%ADD11C,0.015000*%
%ADD12R,0.060000X0.060000*%
%ADD13C,0.060000*%
%ADD14C,0.045300*%
%ADD15R,0.045300X0.045300*%
%ADD16C,0.035000*%
%ADD17C,0.008000*%
%ADD18C,0.016000*%
G04 APERTURE END LIST*
G54D10*
G54D11*
X13400Y-30100D02*
X51600Y-30100D01*
X51600Y-11800D02*
X13400Y-11800D01*
X51600Y-30100D02*
X51600Y-11800D01*
X13400Y-11800D02*
X13400Y-30100D01*
G54D12*
X14000Y-29500D03*
G54D13*
X14000Y-28500D03*
X15000Y-29500D03*
X15000Y-28500D03*
X16000Y-29500D03*
X16000Y-28500D03*
X17000Y-29500D03*
X17000Y-28500D03*
X18000Y-29500D03*
X18000Y-28500D03*
X19000Y-29500D03*
X19000Y-28500D03*
X20000Y-29500D03*
X20000Y-28500D03*
X21000Y-29500D03*
X21000Y-28500D03*
X22000Y-29500D03*
X22000Y-28500D03*
X23000Y-29500D03*
X23000Y-28500D03*
X24000Y-29500D03*
X24000Y-28500D03*
X25000Y-29500D03*
X25000Y-28500D03*
G54D12*
X14000Y-13500D03*
G54D13*
X14000Y-12500D03*
X15000Y-13500D03*
X15000Y-12500D03*
X16000Y-13500D03*
X16000Y-12500D03*
X17000Y-13500D03*
X17000Y-12500D03*
X18000Y-13500D03*
X18000Y-12500D03*
X19000Y-13500D03*
X19000Y-12500D03*
X20000Y-13500D03*
X20000Y-12500D03*
X21000Y-13500D03*
X21000Y-12500D03*
X22000Y-13500D03*
X22000Y-12500D03*
X23000Y-13500D03*
X23000Y-12500D03*
X24000Y-13500D03*
X24000Y-12500D03*
X25000Y-13500D03*
X25000Y-12500D03*
X27000Y-12500D03*
X28000Y-12500D03*
X29000Y-12500D03*
X30000Y-12500D03*
X31000Y-12500D03*
X32000Y-12500D03*
X33000Y-12500D03*
X34000Y-12500D03*
X35000Y-12500D03*
X36000Y-12500D03*
X37000Y-12500D03*
X38000Y-12500D03*
X39000Y-12500D03*
X40000Y-12500D03*
X41000Y-12500D03*
X42000Y-12500D03*
X43000Y-12500D03*
X44000Y-12500D03*
X45000Y-12500D03*
X46000Y-12500D03*
X47000Y-12500D03*
X48000Y-12500D03*
X49000Y-12500D03*
X50000Y-12500D03*
X51000Y-12500D03*
X27000Y-29500D03*
X28000Y-29500D03*
X29000Y-29500D03*
X30000Y-29500D03*
X31000Y-29500D03*
X32000Y-29500D03*
X33000Y-29500D03*
X34000Y-29500D03*
X35000Y-29500D03*
X36000Y-29500D03*
X37000Y-29500D03*
X38000Y-29500D03*
X39000Y-29500D03*
X40000Y-29500D03*
X41000Y-29500D03*
X42000Y-29500D03*
X43000Y-29500D03*
X44000Y-29500D03*
X45000Y-29500D03*
X46000Y-29500D03*
X47000Y-29500D03*
X48000Y-29500D03*
X49000Y-29500D03*
X50000Y-29500D03*
X51000Y-29500D03*
G54D14*
X43701Y-17008D03*
X46850Y-17008D03*
X46063Y-17008D03*
X45275Y-17008D03*
X44488Y-17008D03*
X47638Y-17008D03*
X48425Y-17008D03*
X49213Y-17008D03*
G54D15*
X50787Y-17008D03*
G54D14*
X50000Y-17008D03*
X43701Y-25669D03*
X46850Y-25669D03*
X46063Y-25669D03*
X45275Y-25669D03*
X44488Y-25669D03*
X47638Y-25669D03*
X48425Y-25669D03*
X49213Y-25669D03*
G54D15*
X50787Y-25669D03*
G54D14*
X50000Y-25669D03*
G54D16*
X32000Y-20600D03*
X35000Y-25300D03*
X36000Y-15600D03*
X37000Y-15200D03*
X48500Y-13800D03*
X37500Y-13900D03*
X37500Y-19000D03*
X34000Y-25700D03*
X37000Y-24100D03*
X36000Y-23700D03*
X41000Y-17200D03*
X42000Y-16800D03*
X42000Y-12500D03*
X43000Y-16400D03*
X44000Y-16000D03*
X39000Y-22000D03*
X40000Y-21600D03*
X41000Y-21200D03*
X41500Y-20800D03*
X43000Y-26400D03*
X42100Y-24500D03*
X42100Y-26900D03*
X44000Y-26900D03*
X39000Y-14800D03*
X40000Y-14300D03*
X30000Y-26500D03*
X31000Y-26100D03*
X29000Y-26900D03*
X50000Y-22400D03*
X51200Y-18100D03*
X30000Y-19800D03*
X31000Y-19400D03*
X38000Y-18600D03*
X38000Y-15600D03*
X48000Y-15500D03*
X29000Y-20200D03*
X34100Y-20200D03*
X23500Y-15500D03*
X45800Y-14200D03*
G54D17*
X32000Y-20600D02*
X32000Y-12500D01*
X35000Y-25300D02*
X35000Y-29500D01*
X36000Y-15600D02*
X36000Y-12500D01*
X37000Y-15200D02*
X37000Y-12500D01*
X48500Y-13800D02*
X48500Y-12300D01*
X48500Y-12300D02*
X48800Y-12000D01*
X48800Y-12000D02*
X50700Y-12000D01*
X50700Y-12000D02*
X51000Y-12300D01*
X51000Y-12300D02*
X51000Y-12500D01*
X37500Y-19000D02*
X37500Y-13900D01*
X34000Y-25700D02*
X34000Y-29500D01*
X37000Y-24100D02*
X37000Y-29500D01*
X36000Y-23700D02*
X36000Y-29500D01*
X41000Y-17200D02*
X41000Y-12500D01*
X42000Y-16800D02*
X42000Y-12500D01*
X43000Y-16400D02*
X43000Y-12500D01*
X44000Y-16000D02*
X44000Y-12500D01*
X39000Y-22000D02*
X39000Y-29500D01*
X40000Y-21600D02*
X40000Y-29500D01*
X41000Y-21200D02*
X41000Y-29500D01*
X42000Y-28900D02*
X42000Y-29500D01*
X41500Y-28400D02*
X42000Y-28900D01*
X41500Y-20800D02*
X41500Y-28400D01*
X43000Y-26400D02*
X43000Y-29500D01*
X42100Y-24500D02*
X42100Y-26900D01*
X44000Y-26900D02*
X44000Y-29500D01*
X39000Y-14800D02*
X39000Y-18100D01*
X39900Y-19000D02*
X47000Y-19000D01*
X47000Y-19000D02*
X47638Y-18362D01*
X47638Y-17008D02*
X47638Y-18362D01*
X39000Y-18100D02*
X39900Y-19000D01*
X46900Y-17800D02*
X46900Y-17058D01*
X40000Y-14300D02*
X40000Y-17600D01*
X46850Y-17008D02*
X46900Y-17058D01*
X46300Y-18400D02*
X46900Y-17800D01*
X40800Y-18400D02*
X46300Y-18400D01*
X40000Y-17600D02*
X40800Y-18400D01*
X30000Y-26500D02*
X30000Y-29500D01*
X31000Y-26100D02*
X31000Y-29500D01*
X29000Y-26900D02*
X29000Y-29500D01*
X50000Y-22400D02*
X50000Y-25669D01*
X49400Y-13700D02*
X49000Y-13300D01*
X51400Y-15100D02*
X50000Y-13700D01*
X51400Y-17900D02*
X51400Y-15100D01*
X50000Y-13700D02*
X49400Y-13700D01*
X51200Y-18100D02*
X51400Y-17900D01*
X49000Y-13300D02*
X49000Y-12500D01*
X30000Y-19800D02*
X30000Y-12500D01*
X31000Y-19400D02*
X31000Y-12500D01*
X38000Y-18600D02*
X38000Y-15600D01*
X48000Y-15500D02*
X48000Y-12500D01*
X29000Y-20200D02*
X29000Y-12500D01*
X44500Y-27000D02*
X44500Y-25681D01*
X46000Y-28500D02*
X44500Y-27000D01*
X44500Y-25681D02*
X44488Y-25669D01*
X46000Y-28500D02*
X46000Y-29500D01*
X47000Y-27900D02*
X47638Y-27262D01*
X47638Y-27262D02*
X47638Y-25669D01*
X47000Y-29500D02*
X47000Y-27900D01*
X49000Y-29800D02*
X49000Y-29500D01*
X49213Y-21887D02*
X46500Y-24600D01*
X43600Y-24600D02*
X42500Y-25700D01*
X42500Y-25700D02*
X42500Y-29800D01*
X46500Y-24600D02*
X43600Y-24600D01*
X42500Y-29800D02*
X42700Y-30000D01*
X42700Y-30000D02*
X48800Y-30000D01*
X49213Y-17008D02*
X49213Y-21887D01*
X48800Y-30000D02*
X49000Y-29800D01*
X50000Y-17900D02*
X50000Y-17008D01*
X49500Y-26500D02*
X51100Y-26500D01*
X51300Y-26300D02*
X51300Y-19200D01*
X51300Y-19200D02*
X50000Y-17900D01*
X51100Y-26500D02*
X51300Y-26300D01*
X48000Y-28000D02*
X48000Y-29500D01*
X48000Y-28000D02*
X49500Y-26500D01*
G54D18*
X15000Y-14500D02*
X15200Y-14700D01*
X15200Y-14700D02*
X27000Y-14700D01*
X27000Y-14700D02*
X28000Y-13700D01*
X28000Y-13700D02*
X28000Y-12500D01*
X15000Y-13500D02*
X15000Y-14500D01*
X43701Y-16999D02*
X47000Y-13700D01*
X47000Y-13700D02*
X47000Y-12500D01*
X43701Y-17008D02*
X43701Y-16999D01*
G54D17*
X33200Y-21100D02*
X28200Y-21100D01*
X23500Y-16400D02*
X23500Y-15500D01*
X28200Y-21100D02*
X23500Y-16400D01*
X34100Y-20200D02*
X33200Y-21100D01*
G54D18*
X46000Y-13200D02*
X46000Y-12500D01*
X39000Y-12200D02*
X39200Y-12000D01*
X27400Y-12000D02*
X33800Y-12000D01*
X45800Y-13400D02*
X46000Y-13200D01*
X39200Y-12000D02*
X45800Y-12000D01*
X39000Y-12500D02*
X39000Y-12200D01*
X34200Y-12000D02*
X38800Y-12000D01*
X45800Y-12000D02*
X46000Y-12200D01*
X46000Y-12200D02*
X46000Y-12500D01*
X27000Y-12400D02*
X27400Y-12000D01*
X45800Y-14200D02*
X45800Y-13400D01*
X33800Y-12000D02*
X34000Y-12200D01*
X27000Y-12500D02*
X27000Y-12400D01*
X34000Y-12200D02*
X34200Y-12000D01*
X34000Y-12500D02*
X34000Y-12200D01*
X38800Y-12000D02*
X39000Y-12200D01*
X14000Y-13500D02*
X14000Y-14500D01*
X27000Y-27500D02*
X27000Y-29500D01*
X14000Y-14500D02*
X27000Y-27500D01*
X14000Y-12500D02*
X14500Y-13000D01*
X28000Y-28000D02*
X28000Y-29500D01*
X14500Y-14500D02*
X28000Y-28000D01*
X14500Y-13000D02*
X14500Y-14500D01*
M02*
