G04 (created by PCBNEW-RS274X (2012-apr-16-27)-stable) date Sun 17 Nov 2013 10:41:53 AM EET*
G01*
G70*
G90*
%MOIN*%
G04 Gerber Fmt 3.4, Leading zero omitted, Abs format*
%FSLAX34Y34*%
G04 APERTURE LIST*
%ADD10C,0.006000*%
%ADD11C,0.015000*%
%ADD12R,0.080000X0.080000*%
%ADD13C,0.080000*%
%ADD14C,0.065300*%
%ADD15R,0.065300X0.065300*%
G04 APERTURE END LIST*
G54D10*
G54D11*
X13400Y-30100D02*
X51600Y-30100D01*
X51600Y-11800D02*
X13400Y-11800D01*
X51600Y-30100D02*
X51600Y-11800D01*
X13400Y-11800D02*
X13400Y-30100D01*
G54D12*
X14000Y-29500D03*
G54D13*
X14000Y-28500D03*
X15000Y-29500D03*
X15000Y-28500D03*
X16000Y-29500D03*
X16000Y-28500D03*
X17000Y-29500D03*
X17000Y-28500D03*
X18000Y-29500D03*
X18000Y-28500D03*
X19000Y-29500D03*
X19000Y-28500D03*
X20000Y-29500D03*
X20000Y-28500D03*
X21000Y-29500D03*
X21000Y-28500D03*
X22000Y-29500D03*
X22000Y-28500D03*
X23000Y-29500D03*
X23000Y-28500D03*
X24000Y-29500D03*
X24000Y-28500D03*
X25000Y-29500D03*
X25000Y-28500D03*
G54D12*
X14000Y-13500D03*
G54D13*
X14000Y-12500D03*
X15000Y-13500D03*
X15000Y-12500D03*
X16000Y-13500D03*
X16000Y-12500D03*
X17000Y-13500D03*
X17000Y-12500D03*
X18000Y-13500D03*
X18000Y-12500D03*
X19000Y-13500D03*
X19000Y-12500D03*
X20000Y-13500D03*
X20000Y-12500D03*
X21000Y-13500D03*
X21000Y-12500D03*
X22000Y-13500D03*
X22000Y-12500D03*
X23000Y-13500D03*
X23000Y-12500D03*
X24000Y-13500D03*
X24000Y-12500D03*
X25000Y-13500D03*
X25000Y-12500D03*
X27000Y-12500D03*
X28000Y-12500D03*
X29000Y-12500D03*
X30000Y-12500D03*
X31000Y-12500D03*
X32000Y-12500D03*
X33000Y-12500D03*
X34000Y-12500D03*
X35000Y-12500D03*
X36000Y-12500D03*
X37000Y-12500D03*
X38000Y-12500D03*
X39000Y-12500D03*
X40000Y-12500D03*
X41000Y-12500D03*
X42000Y-12500D03*
X43000Y-12500D03*
X44000Y-12500D03*
X45000Y-12500D03*
X46000Y-12500D03*
X47000Y-12500D03*
X48000Y-12500D03*
X49000Y-12500D03*
X50000Y-12500D03*
X51000Y-12500D03*
X27000Y-29500D03*
X28000Y-29500D03*
X29000Y-29500D03*
X30000Y-29500D03*
X31000Y-29500D03*
X32000Y-29500D03*
X33000Y-29500D03*
X34000Y-29500D03*
X35000Y-29500D03*
X36000Y-29500D03*
X37000Y-29500D03*
X38000Y-29500D03*
X39000Y-29500D03*
X40000Y-29500D03*
X41000Y-29500D03*
X42000Y-29500D03*
X43000Y-29500D03*
X44000Y-29500D03*
X45000Y-29500D03*
X46000Y-29500D03*
X47000Y-29500D03*
X48000Y-29500D03*
X49000Y-29500D03*
X50000Y-29500D03*
X51000Y-29500D03*
G54D14*
X43701Y-17008D03*
X46850Y-17008D03*
X46063Y-17008D03*
X45275Y-17008D03*
X44488Y-17008D03*
X47638Y-17008D03*
X48425Y-17008D03*
X49213Y-17008D03*
G54D15*
X50787Y-17008D03*
G54D14*
X50000Y-17008D03*
X43701Y-25669D03*
X46850Y-25669D03*
X46063Y-25669D03*
X45275Y-25669D03*
X44488Y-25669D03*
X47638Y-25669D03*
X48425Y-25669D03*
X49213Y-25669D03*
G54D15*
X50787Y-25669D03*
G54D14*
X50000Y-25669D03*
M02*
