M48
;DRILL file {Pcbnew (22-Jun-2014 BZR 4027)-stable} date Sun 25 Oct 2015 05:02:50 PM EET
;FORMAT={-:-/ absolute / metric / decimal}
FMAT,2
METRIC,TZ
T1C0.635
T2C0.650
%
G90
G05
M71
T1
X93.726Y-109.601
X93.878Y-104.648
X93.878Y-106.045
X94.564Y-103.48
X95.733Y-103.251
X96.901Y-100.711
X98.171Y-101.981
X99.39Y-109.55
X99.949Y-106.045
X100.711Y-100.457
X101.1Y-116.1
X101.8Y-108.
X102.1Y-104.425
X102.54Y-99.136
X103.3Y-112.8
X104.4Y-108.2
X105.41Y-112.268
X106.426Y-111.125
X106.7Y-108.2
X108.204Y-107.188
X108.204Y-111.125
X108.204Y-112.522
X108.8Y-105.
X111.76Y-107.315
X111.76Y-110.109
X111.76Y-112.014
X111.887Y-104.14
X113.792Y-104.14
X113.792Y-107.315
X113.792Y-110.236
X113.792Y-112.141
X114.046Y-115.57
X115.189Y-117.983
X118.872Y-111.76
X118.872Y-115.697
X118.872Y-117.856
T2
X94.835Y-96.764
X94.835Y-118.364
X96.835Y-96.764
X96.835Y-118.364
X98.835Y-96.764
X98.835Y-118.364
X100.835Y-96.764
X100.835Y-118.364
X102.835Y-96.764
X102.835Y-118.364
X104.835Y-96.764
X104.835Y-118.364
X106.835Y-96.764
X106.835Y-118.364
X108.835Y-96.764
X108.835Y-118.364
X110.835Y-96.764
X110.835Y-118.364
X112.835Y-96.764
X112.835Y-118.364
T0
M30
