G04 (created by PCBNEW (22-Jun-2014 BZR 4027)-stable) date Sun 25 Oct 2015 05:02:47 PM EET*
%MOIN*%
G04 Gerber Fmt 3.4, Leading zero omitted, Abs format*
%FSLAX34Y34*%
G01*
G70*
G90*
G04 APERTURE LIST*
%ADD10C,0.00590551*%
%ADD11C,0.00787402*%
%ADD12C,0.015*%
%ADD13C,0.005*%
%ADD14C,0.0028*%
%ADD15C,0.0047*%
%ADD16C,0.0049*%
%ADD17C,0.0045*%
G04 APERTURE END LIST*
G54D10*
G54D11*
X40340Y-38693D02*
X40734Y-38693D01*
X40340Y-38881D02*
X40734Y-38881D01*
X40340Y-39106D01*
X40734Y-39106D01*
X40734Y-39237D02*
X40734Y-39462D01*
X40340Y-39349D02*
X40734Y-39349D01*
X41159Y-38674D02*
X41140Y-38731D01*
X41140Y-38824D01*
X41159Y-38862D01*
X41178Y-38881D01*
X41215Y-38899D01*
X41253Y-38899D01*
X41290Y-38881D01*
X41309Y-38862D01*
X41328Y-38824D01*
X41346Y-38749D01*
X41365Y-38712D01*
X41384Y-38693D01*
X41421Y-38674D01*
X41459Y-38674D01*
X41496Y-38693D01*
X41515Y-38712D01*
X41534Y-38749D01*
X41534Y-38843D01*
X41515Y-38899D01*
X41140Y-39068D02*
X41534Y-39068D01*
X41534Y-39162D01*
X41515Y-39218D01*
X41478Y-39256D01*
X41440Y-39274D01*
X41365Y-39293D01*
X41309Y-39293D01*
X41234Y-39274D01*
X41196Y-39256D01*
X41159Y-39218D01*
X41140Y-39162D01*
X41140Y-39068D01*
X41140Y-39462D02*
X41534Y-39462D01*
X41140Y-39687D01*
X41534Y-39687D01*
X41909Y-45425D02*
X41890Y-45481D01*
X41890Y-45575D01*
X41909Y-45612D01*
X41928Y-45631D01*
X41965Y-45650D01*
X42003Y-45650D01*
X42040Y-45631D01*
X42059Y-45612D01*
X42078Y-45575D01*
X42096Y-45500D01*
X42115Y-45462D01*
X42134Y-45443D01*
X42171Y-45425D01*
X42209Y-45425D01*
X42246Y-45443D01*
X42265Y-45462D01*
X42284Y-45500D01*
X42284Y-45593D01*
X42265Y-45650D01*
X41909Y-45800D02*
X41890Y-45856D01*
X41890Y-45950D01*
X41909Y-45987D01*
X41928Y-46006D01*
X41965Y-46025D01*
X42003Y-46025D01*
X42040Y-46006D01*
X42059Y-45987D01*
X42078Y-45950D01*
X42096Y-45875D01*
X42115Y-45837D01*
X42134Y-45818D01*
X42171Y-45800D01*
X42209Y-45800D01*
X42246Y-45818D01*
X42265Y-45837D01*
X42284Y-45875D01*
X42284Y-45968D01*
X42265Y-46025D01*
X42709Y-45012D02*
X42690Y-45068D01*
X42690Y-45162D01*
X42709Y-45200D01*
X42728Y-45218D01*
X42765Y-45237D01*
X42803Y-45237D01*
X42840Y-45218D01*
X42859Y-45200D01*
X42878Y-45162D01*
X42896Y-45087D01*
X42915Y-45050D01*
X42934Y-45031D01*
X42971Y-45012D01*
X43009Y-45012D01*
X43046Y-45031D01*
X43065Y-45050D01*
X43084Y-45087D01*
X43084Y-45181D01*
X43065Y-45237D01*
X42728Y-45631D02*
X42709Y-45612D01*
X42690Y-45556D01*
X42690Y-45518D01*
X42709Y-45462D01*
X42746Y-45425D01*
X42784Y-45406D01*
X42859Y-45387D01*
X42915Y-45387D01*
X42990Y-45406D01*
X43028Y-45425D01*
X43065Y-45462D01*
X43084Y-45518D01*
X43084Y-45556D01*
X43065Y-45612D01*
X43046Y-45631D01*
X42690Y-45800D02*
X43084Y-45800D01*
X42690Y-46025D02*
X42915Y-45856D01*
X43084Y-46025D02*
X42859Y-45800D01*
X43440Y-44768D02*
X43834Y-44768D01*
X43553Y-44900D01*
X43834Y-45031D01*
X43440Y-45031D01*
X43834Y-45293D02*
X43834Y-45368D01*
X43815Y-45406D01*
X43778Y-45443D01*
X43703Y-45462D01*
X43571Y-45462D01*
X43496Y-45443D01*
X43459Y-45406D01*
X43440Y-45368D01*
X43440Y-45293D01*
X43459Y-45256D01*
X43496Y-45218D01*
X43571Y-45200D01*
X43703Y-45200D01*
X43778Y-45218D01*
X43815Y-45256D01*
X43834Y-45293D01*
X43459Y-45612D02*
X43440Y-45668D01*
X43440Y-45762D01*
X43459Y-45800D01*
X43478Y-45818D01*
X43515Y-45837D01*
X43553Y-45837D01*
X43590Y-45818D01*
X43609Y-45800D01*
X43628Y-45762D01*
X43646Y-45687D01*
X43665Y-45650D01*
X43684Y-45631D01*
X43721Y-45612D01*
X43759Y-45612D01*
X43796Y-45631D01*
X43815Y-45650D01*
X43834Y-45687D01*
X43834Y-45781D01*
X43815Y-45837D01*
X43440Y-46006D02*
X43834Y-46006D01*
X44240Y-44768D02*
X44634Y-44768D01*
X44353Y-44900D01*
X44634Y-45031D01*
X44240Y-45031D01*
X44240Y-45218D02*
X44634Y-45218D01*
X44259Y-45387D02*
X44240Y-45443D01*
X44240Y-45537D01*
X44259Y-45575D01*
X44278Y-45593D01*
X44315Y-45612D01*
X44353Y-45612D01*
X44390Y-45593D01*
X44409Y-45575D01*
X44428Y-45537D01*
X44446Y-45462D01*
X44465Y-45425D01*
X44484Y-45406D01*
X44521Y-45387D01*
X44559Y-45387D01*
X44596Y-45406D01*
X44615Y-45425D01*
X44634Y-45462D01*
X44634Y-45556D01*
X44615Y-45612D01*
X44634Y-45856D02*
X44634Y-45931D01*
X44615Y-45968D01*
X44578Y-46006D01*
X44503Y-46025D01*
X44371Y-46025D01*
X44296Y-46006D01*
X44259Y-45968D01*
X44240Y-45931D01*
X44240Y-45856D01*
X44259Y-45818D01*
X44296Y-45781D01*
X44371Y-45762D01*
X44503Y-45762D01*
X44578Y-45781D01*
X44615Y-45818D01*
X44634Y-45856D01*
X37565Y-38899D02*
X37584Y-38862D01*
X37584Y-38806D01*
X37565Y-38749D01*
X37528Y-38712D01*
X37490Y-38693D01*
X37415Y-38674D01*
X37359Y-38674D01*
X37284Y-38693D01*
X37246Y-38712D01*
X37209Y-38749D01*
X37190Y-38806D01*
X37190Y-38843D01*
X37209Y-38899D01*
X37228Y-38918D01*
X37359Y-38918D01*
X37359Y-38843D01*
X37190Y-39087D02*
X37584Y-39087D01*
X37190Y-39312D01*
X37584Y-39312D01*
X37190Y-39499D02*
X37584Y-39499D01*
X37584Y-39593D01*
X37565Y-39649D01*
X37528Y-39687D01*
X37490Y-39706D01*
X37415Y-39724D01*
X37359Y-39724D01*
X37284Y-39706D01*
X37246Y-39687D01*
X37209Y-39649D01*
X37190Y-39593D01*
X37190Y-39499D01*
X44734Y-38637D02*
X44340Y-38768D01*
X44734Y-38899D01*
X44378Y-39256D02*
X44359Y-39237D01*
X44340Y-39181D01*
X44340Y-39143D01*
X44359Y-39087D01*
X44396Y-39049D01*
X44434Y-39031D01*
X44509Y-39012D01*
X44565Y-39012D01*
X44640Y-39031D01*
X44678Y-39049D01*
X44715Y-39087D01*
X44734Y-39143D01*
X44734Y-39181D01*
X44715Y-39237D01*
X44696Y-39256D01*
X44378Y-39649D02*
X44359Y-39631D01*
X44340Y-39574D01*
X44340Y-39537D01*
X44359Y-39481D01*
X44396Y-39443D01*
X44434Y-39424D01*
X44509Y-39406D01*
X44565Y-39406D01*
X44640Y-39424D01*
X44678Y-39443D01*
X44715Y-39481D01*
X44734Y-39537D01*
X44734Y-39574D01*
X44715Y-39631D01*
X44696Y-39649D01*
G54D10*
X38729Y-40962D02*
G75*
G03X38729Y-40962I-167J0D01*
G74*
G01*
X38562Y-40962D02*
X40137Y-40962D01*
X40137Y-40962D02*
X40137Y-42537D01*
X40137Y-42537D02*
X38562Y-42537D01*
X38562Y-42537D02*
X38562Y-40962D01*
X39477Y-43413D02*
G75*
G03X39477Y-43413I-88J0D01*
G74*
G01*
X40216Y-42822D02*
X39429Y-42822D01*
X39429Y-42822D02*
X39429Y-43374D01*
X39429Y-43374D02*
X40216Y-43374D01*
X40216Y-43374D02*
X40216Y-42822D01*
G54D12*
X36903Y-37683D02*
X44817Y-37683D01*
X44817Y-37683D02*
X44817Y-38470D01*
X44817Y-38509D02*
X36903Y-38509D01*
X36903Y-38470D02*
X36903Y-37683D01*
X36942Y-46187D02*
X44817Y-46187D01*
X44817Y-46187D02*
X44817Y-46974D01*
X44817Y-47013D02*
X36942Y-47013D01*
X36942Y-46974D02*
X36942Y-46187D01*
G54D13*
X40340Y-40843D02*
X40340Y-39943D01*
X40340Y-39943D02*
X40840Y-39943D01*
X40840Y-39943D02*
X40840Y-40843D01*
X40840Y-40843D02*
X40340Y-40843D01*
G54D14*
X41396Y-39810D02*
X41196Y-39810D01*
X41196Y-39810D02*
X41196Y-40110D01*
X41196Y-40110D02*
X41396Y-40110D01*
X41596Y-39810D02*
X41796Y-39810D01*
X41796Y-39810D02*
X41796Y-40110D01*
X41796Y-40110D02*
X41596Y-40110D01*
X40430Y-41842D02*
X40430Y-42042D01*
X40430Y-42042D02*
X40730Y-42042D01*
X40730Y-42042D02*
X40730Y-41842D01*
X40430Y-41642D02*
X40430Y-41442D01*
X40430Y-41442D02*
X40730Y-41442D01*
X40730Y-41442D02*
X40730Y-41642D01*
G54D10*
X45444Y-44213D02*
X45194Y-44213D01*
X45194Y-44213D02*
X45194Y-44463D01*
X45444Y-45313D02*
X45194Y-45313D01*
X45194Y-45313D02*
X45194Y-45113D01*
X46444Y-44213D02*
X46594Y-44213D01*
X46594Y-44213D02*
X46594Y-45313D01*
X46594Y-45313D02*
X46444Y-45313D01*
G54D13*
X43032Y-44134D02*
X43032Y-44412D01*
X43032Y-44412D02*
X43582Y-44412D01*
X43582Y-44412D02*
X43582Y-44134D01*
X43032Y-43462D02*
X43032Y-43740D01*
X43032Y-43462D02*
X43582Y-43462D01*
X43582Y-43462D02*
X43582Y-43740D01*
X43032Y-42519D02*
X43032Y-42797D01*
X43032Y-42797D02*
X43582Y-42797D01*
X43582Y-42797D02*
X43582Y-42519D01*
X43032Y-41847D02*
X43032Y-42125D01*
X43032Y-41847D02*
X43582Y-41847D01*
X43582Y-41847D02*
X43582Y-42125D01*
G54D10*
X37105Y-45488D02*
X36805Y-45488D01*
X36805Y-45488D02*
X36805Y-43488D01*
X36805Y-43488D02*
X37105Y-43488D01*
X38405Y-43488D02*
X38705Y-43488D01*
X38705Y-43488D02*
X38705Y-45488D01*
X38705Y-45488D02*
X38405Y-45488D01*
G54D15*
X42297Y-40956D02*
X42572Y-40956D01*
X41903Y-40956D02*
X41628Y-40956D01*
X42297Y-40444D02*
X42572Y-40444D01*
X41628Y-40444D02*
X41903Y-40444D01*
X42572Y-40450D02*
X42572Y-40950D01*
X41628Y-40950D02*
X41628Y-40450D01*
G54D14*
X41350Y-41550D02*
X41350Y-41350D01*
X41350Y-41350D02*
X41050Y-41350D01*
X41050Y-41350D02*
X41050Y-41550D01*
X41350Y-41750D02*
X41350Y-41950D01*
X41350Y-41950D02*
X41050Y-41950D01*
X41050Y-41950D02*
X41050Y-41750D01*
X41900Y-41550D02*
X41900Y-41350D01*
X41900Y-41350D02*
X41600Y-41350D01*
X41600Y-41350D02*
X41600Y-41550D01*
X41900Y-41750D02*
X41900Y-41950D01*
X41900Y-41950D02*
X41600Y-41950D01*
X41600Y-41950D02*
X41600Y-41750D01*
X39500Y-40400D02*
X39500Y-40600D01*
X39500Y-40600D02*
X39800Y-40600D01*
X39800Y-40600D02*
X39800Y-40400D01*
X39500Y-40200D02*
X39500Y-40000D01*
X39500Y-40000D02*
X39800Y-40000D01*
X39800Y-40000D02*
X39800Y-40200D01*
X40750Y-42650D02*
X40750Y-42450D01*
X40750Y-42450D02*
X40450Y-42450D01*
X40450Y-42450D02*
X40450Y-42650D01*
X40750Y-42850D02*
X40750Y-43050D01*
X40750Y-43050D02*
X40450Y-43050D01*
X40450Y-43050D02*
X40450Y-42850D01*
X37350Y-42850D02*
X37550Y-42850D01*
X37550Y-42850D02*
X37550Y-42550D01*
X37550Y-42550D02*
X37350Y-42550D01*
X37150Y-42850D02*
X36950Y-42850D01*
X36950Y-42850D02*
X36950Y-42550D01*
X36950Y-42550D02*
X37150Y-42550D01*
X39400Y-45400D02*
X39400Y-45200D01*
X39400Y-45200D02*
X39100Y-45200D01*
X39100Y-45200D02*
X39100Y-45400D01*
X39400Y-45600D02*
X39400Y-45800D01*
X39400Y-45800D02*
X39100Y-45800D01*
X39100Y-45800D02*
X39100Y-45600D01*
G54D10*
X37250Y-36865D02*
X37250Y-37184D01*
X37268Y-37221D01*
X37287Y-37240D01*
X37325Y-37259D01*
X37400Y-37259D01*
X37437Y-37240D01*
X37456Y-37221D01*
X37475Y-37184D01*
X37475Y-36865D01*
X37868Y-37259D02*
X37643Y-37259D01*
X37756Y-37259D02*
X37756Y-36865D01*
X37718Y-36921D01*
X37681Y-36959D01*
X37643Y-36978D01*
X36240Y-42031D02*
X36259Y-41974D01*
X36259Y-41881D01*
X36240Y-41843D01*
X36221Y-41824D01*
X36184Y-41806D01*
X36146Y-41806D01*
X36109Y-41824D01*
X36090Y-41843D01*
X36071Y-41881D01*
X36053Y-41956D01*
X36034Y-41993D01*
X36015Y-42012D01*
X35978Y-42031D01*
X35940Y-42031D01*
X35903Y-42012D01*
X35884Y-41993D01*
X35865Y-41956D01*
X35865Y-41862D01*
X35884Y-41806D01*
X36259Y-41637D02*
X35865Y-41637D01*
X35865Y-41487D01*
X35884Y-41449D01*
X35903Y-41431D01*
X35940Y-41412D01*
X35996Y-41412D01*
X36034Y-41431D01*
X36053Y-41449D01*
X36071Y-41487D01*
X36071Y-41637D01*
X36259Y-41243D02*
X35865Y-41243D01*
X36259Y-40831D02*
X36071Y-40962D01*
X36259Y-41056D02*
X35865Y-41056D01*
X35865Y-40906D01*
X35884Y-40868D01*
X35903Y-40850D01*
X35940Y-40831D01*
X35996Y-40831D01*
X36034Y-40850D01*
X36053Y-40868D01*
X36071Y-40906D01*
X36071Y-41056D01*
X36259Y-40662D02*
X35865Y-40662D01*
X35865Y-40531D02*
X35865Y-40306D01*
X36259Y-40418D02*
X35865Y-40418D01*
X36259Y-39968D02*
X36259Y-40193D01*
X36259Y-40081D02*
X35865Y-40081D01*
X35921Y-40118D01*
X35959Y-40156D01*
X35978Y-40193D01*
G54D16*
X47561Y-42902D02*
X47570Y-42911D01*
X47579Y-42939D01*
X47579Y-42958D01*
X47570Y-42986D01*
X47551Y-43005D01*
X47532Y-43014D01*
X47495Y-43023D01*
X47467Y-43023D01*
X47429Y-43014D01*
X47410Y-43005D01*
X47392Y-42986D01*
X47382Y-42958D01*
X47382Y-42939D01*
X47392Y-42911D01*
X47401Y-42902D01*
X47579Y-42817D02*
X47382Y-42817D01*
X47579Y-42705D01*
X47382Y-42705D01*
X47401Y-42620D02*
X47392Y-42611D01*
X47382Y-42592D01*
X47382Y-42545D01*
X47392Y-42526D01*
X47401Y-42517D01*
X47420Y-42508D01*
X47439Y-42508D01*
X47467Y-42517D01*
X47579Y-42629D01*
X47579Y-42508D01*
X47523Y-42420D02*
X47523Y-42326D01*
X47579Y-42438D02*
X47382Y-42373D01*
X47579Y-42307D01*
X47579Y-42241D02*
X47382Y-42241D01*
X47579Y-42129D01*
X47382Y-42129D01*
X47382Y-42063D02*
X47382Y-41951D01*
X47579Y-42007D02*
X47382Y-42007D01*
G54D10*
X35815Y-43049D02*
X36134Y-43049D01*
X36171Y-43031D01*
X36190Y-43012D01*
X36209Y-42974D01*
X36209Y-42899D01*
X36190Y-42862D01*
X36171Y-42843D01*
X36134Y-42824D01*
X35815Y-42824D01*
X35853Y-42656D02*
X35834Y-42637D01*
X35815Y-42600D01*
X35815Y-42506D01*
X35834Y-42468D01*
X35853Y-42450D01*
X35890Y-42431D01*
X35928Y-42431D01*
X35984Y-42450D01*
X36209Y-42675D01*
X36209Y-42431D01*
X35303Y-43443D02*
X35321Y-43387D01*
X35340Y-43368D01*
X35378Y-43349D01*
X35434Y-43349D01*
X35471Y-43368D01*
X35490Y-43387D01*
X35509Y-43424D01*
X35509Y-43574D01*
X35115Y-43574D01*
X35115Y-43443D01*
X35134Y-43405D01*
X35153Y-43387D01*
X35190Y-43368D01*
X35228Y-43368D01*
X35265Y-43387D01*
X35284Y-43405D01*
X35303Y-43443D01*
X35303Y-43574D01*
X35396Y-43199D02*
X35396Y-43012D01*
X35509Y-43237D02*
X35115Y-43106D01*
X35509Y-42974D01*
X35509Y-42656D02*
X35509Y-42843D01*
X35115Y-42843D01*
X35303Y-42393D02*
X35303Y-42524D01*
X35509Y-42524D02*
X35115Y-42524D01*
X35115Y-42337D01*
X35359Y-42187D02*
X35359Y-41887D01*
X35490Y-41718D02*
X35509Y-41662D01*
X35509Y-41568D01*
X35490Y-41531D01*
X35471Y-41512D01*
X35434Y-41493D01*
X35396Y-41493D01*
X35359Y-41512D01*
X35340Y-41531D01*
X35321Y-41568D01*
X35303Y-41643D01*
X35284Y-41681D01*
X35265Y-41699D01*
X35228Y-41718D01*
X35190Y-41718D01*
X35153Y-41699D01*
X35134Y-41681D01*
X35115Y-41643D01*
X35115Y-41549D01*
X35134Y-41493D01*
X35509Y-41324D02*
X35115Y-41324D01*
X35115Y-41175D01*
X35134Y-41137D01*
X35153Y-41118D01*
X35190Y-41100D01*
X35246Y-41100D01*
X35284Y-41118D01*
X35303Y-41137D01*
X35321Y-41175D01*
X35321Y-41324D01*
X35509Y-40931D02*
X35115Y-40931D01*
X35359Y-40743D02*
X35359Y-40443D01*
X35115Y-40181D02*
X35115Y-40143D01*
X35134Y-40106D01*
X35153Y-40087D01*
X35190Y-40068D01*
X35265Y-40050D01*
X35359Y-40050D01*
X35434Y-40068D01*
X35471Y-40087D01*
X35490Y-40106D01*
X35509Y-40143D01*
X35509Y-40181D01*
X35490Y-40218D01*
X35471Y-40237D01*
X35434Y-40256D01*
X35359Y-40275D01*
X35265Y-40275D01*
X35190Y-40256D01*
X35153Y-40237D01*
X35134Y-40218D01*
X35115Y-40181D01*
X35153Y-39900D02*
X35134Y-39881D01*
X35115Y-39843D01*
X35115Y-39750D01*
X35134Y-39712D01*
X35153Y-39693D01*
X35190Y-39675D01*
X35228Y-39675D01*
X35284Y-39693D01*
X35509Y-39918D01*
X35509Y-39675D01*
X35509Y-39506D02*
X35115Y-39506D01*
X35115Y-39412D01*
X35134Y-39356D01*
X35171Y-39318D01*
X35209Y-39300D01*
X35284Y-39281D01*
X35340Y-39281D01*
X35415Y-39300D01*
X35453Y-39318D01*
X35490Y-39356D01*
X35509Y-39412D01*
X35509Y-39506D01*
X35115Y-39150D02*
X35115Y-38906D01*
X35265Y-39037D01*
X35265Y-38981D01*
X35284Y-38944D01*
X35303Y-38925D01*
X35340Y-38906D01*
X35434Y-38906D01*
X35471Y-38925D01*
X35490Y-38944D01*
X35509Y-38981D01*
X35509Y-39094D01*
X35490Y-39131D01*
X35471Y-39150D01*
X38478Y-37221D02*
X38459Y-37240D01*
X38403Y-37259D01*
X38365Y-37259D01*
X38309Y-37240D01*
X38271Y-37203D01*
X38253Y-37165D01*
X38234Y-37090D01*
X38234Y-37034D01*
X38253Y-36959D01*
X38271Y-36921D01*
X38309Y-36884D01*
X38365Y-36865D01*
X38403Y-36865D01*
X38459Y-36884D01*
X38478Y-36903D01*
X38646Y-37259D02*
X38646Y-36865D01*
X38871Y-37259D01*
X38871Y-36865D01*
X39265Y-37259D02*
X39040Y-37259D01*
X39153Y-37259D02*
X39153Y-36865D01*
X39115Y-36921D01*
X39078Y-36959D01*
X39040Y-36978D01*
X40403Y-37309D02*
X40272Y-37121D01*
X40178Y-37309D02*
X40178Y-36915D01*
X40328Y-36915D01*
X40365Y-36934D01*
X40384Y-36953D01*
X40403Y-36990D01*
X40403Y-37046D01*
X40384Y-37084D01*
X40365Y-37103D01*
X40328Y-37121D01*
X40178Y-37121D01*
X40703Y-37103D02*
X40759Y-37121D01*
X40778Y-37140D01*
X40796Y-37178D01*
X40796Y-37234D01*
X40778Y-37271D01*
X40759Y-37290D01*
X40721Y-37309D01*
X40571Y-37309D01*
X40571Y-36915D01*
X40703Y-36915D01*
X40740Y-36934D01*
X40759Y-36953D01*
X40778Y-36990D01*
X40778Y-37028D01*
X40759Y-37065D01*
X40740Y-37084D01*
X40703Y-37103D01*
X40571Y-37103D01*
X40965Y-37159D02*
X41265Y-37159D01*
X41678Y-37271D02*
X41659Y-37290D01*
X41603Y-37309D01*
X41565Y-37309D01*
X41509Y-37290D01*
X41471Y-37253D01*
X41453Y-37215D01*
X41434Y-37140D01*
X41434Y-37084D01*
X41453Y-37009D01*
X41471Y-36971D01*
X41509Y-36934D01*
X41565Y-36915D01*
X41603Y-36915D01*
X41659Y-36934D01*
X41678Y-36953D01*
X41846Y-37309D02*
X41846Y-36915D01*
X42071Y-37309D01*
X42071Y-36915D01*
X42465Y-37309D02*
X42240Y-37309D01*
X42353Y-37309D02*
X42353Y-36915D01*
X42315Y-36971D01*
X42278Y-37009D01*
X42240Y-37028D01*
X42709Y-36915D02*
X42746Y-36915D01*
X42784Y-36934D01*
X42802Y-36953D01*
X42821Y-36990D01*
X42840Y-37065D01*
X42840Y-37159D01*
X42821Y-37234D01*
X42802Y-37271D01*
X42784Y-37290D01*
X42746Y-37309D01*
X42709Y-37309D01*
X42671Y-37290D01*
X42652Y-37271D01*
X42634Y-37234D01*
X42615Y-37159D01*
X42615Y-37065D01*
X42634Y-36990D01*
X42652Y-36953D01*
X42671Y-36934D01*
X42709Y-36915D01*
G54D17*
X41070Y-40530D02*
X40984Y-40530D01*
X40984Y-40330D01*
X41112Y-40330D02*
X41232Y-40330D01*
X41155Y-40530D01*
G54D14*
X41980Y-40005D02*
X41922Y-40005D01*
X41922Y-39867D01*
X42037Y-39927D02*
X42025Y-39920D01*
X42020Y-39913D01*
X42014Y-39900D01*
X42014Y-39894D01*
X42020Y-39881D01*
X42025Y-39874D01*
X42037Y-39867D01*
X42060Y-39867D01*
X42071Y-39874D01*
X42077Y-39881D01*
X42082Y-39894D01*
X42082Y-39900D01*
X42077Y-39913D01*
X42071Y-39920D01*
X42060Y-39927D01*
X42037Y-39927D01*
X42025Y-39933D01*
X42020Y-39940D01*
X42014Y-39953D01*
X42014Y-39979D01*
X42020Y-39992D01*
X42025Y-39999D01*
X42037Y-40005D01*
X42060Y-40005D01*
X42071Y-39999D01*
X42077Y-39992D01*
X42082Y-39979D01*
X42082Y-39953D01*
X42077Y-39940D01*
X42071Y-39933D01*
X42060Y-39927D01*
X40580Y-42255D02*
X40522Y-42255D01*
X40522Y-42117D01*
X40642Y-42117D02*
X40654Y-42117D01*
X40665Y-42124D01*
X40671Y-42131D01*
X40677Y-42144D01*
X40682Y-42170D01*
X40682Y-42203D01*
X40677Y-42229D01*
X40671Y-42242D01*
X40665Y-42249D01*
X40654Y-42255D01*
X40642Y-42255D01*
X40631Y-42249D01*
X40625Y-42242D01*
X40620Y-42229D01*
X40614Y-42203D01*
X40614Y-42170D01*
X40620Y-42144D01*
X40625Y-42131D01*
X40631Y-42124D01*
X40642Y-42117D01*
G54D10*
X48521Y-45071D02*
X48540Y-45090D01*
X48559Y-45146D01*
X48559Y-45184D01*
X48540Y-45240D01*
X48503Y-45278D01*
X48465Y-45296D01*
X48390Y-45315D01*
X48334Y-45315D01*
X48259Y-45296D01*
X48221Y-45278D01*
X48184Y-45240D01*
X48165Y-45184D01*
X48165Y-45146D01*
X48184Y-45090D01*
X48203Y-45071D01*
X48559Y-44903D02*
X48165Y-44903D01*
X48559Y-44678D01*
X48165Y-44678D01*
X48165Y-44528D02*
X48165Y-44284D01*
X48315Y-44415D01*
X48315Y-44359D01*
X48334Y-44321D01*
X48353Y-44303D01*
X48390Y-44284D01*
X48484Y-44284D01*
X48521Y-44303D01*
X48540Y-44321D01*
X48559Y-44359D01*
X48559Y-44471D01*
X48540Y-44509D01*
X48521Y-44528D01*
X47896Y-45199D02*
X47896Y-45012D01*
X48009Y-45237D02*
X47615Y-45106D01*
X48009Y-44974D01*
X48009Y-44843D02*
X47615Y-44843D01*
X48009Y-44618D01*
X47615Y-44618D01*
X47615Y-44487D02*
X47615Y-44262D01*
X48009Y-44375D02*
X47615Y-44375D01*
G54D17*
X43820Y-44029D02*
X43760Y-43935D01*
X43717Y-44029D02*
X43717Y-43832D01*
X43785Y-43832D01*
X43802Y-43842D01*
X43811Y-43851D01*
X43820Y-43870D01*
X43820Y-43898D01*
X43811Y-43917D01*
X43802Y-43926D01*
X43785Y-43935D01*
X43717Y-43935D01*
X43991Y-44029D02*
X43888Y-44029D01*
X43940Y-44029D02*
X43940Y-43832D01*
X43922Y-43860D01*
X43905Y-43879D01*
X43888Y-43889D01*
X42701Y-43830D02*
X42718Y-43830D01*
X42735Y-43840D01*
X42744Y-43850D01*
X42752Y-43869D01*
X42761Y-43907D01*
X42761Y-43954D01*
X42752Y-43992D01*
X42744Y-44011D01*
X42735Y-44021D01*
X42718Y-44030D01*
X42701Y-44030D01*
X42684Y-44021D01*
X42675Y-44011D01*
X42667Y-43992D01*
X42658Y-43954D01*
X42658Y-43907D01*
X42667Y-43869D01*
X42675Y-43850D01*
X42684Y-43840D01*
X42701Y-43830D01*
X42941Y-44030D02*
X42881Y-43935D01*
X42838Y-44030D02*
X42838Y-43830D01*
X42907Y-43830D01*
X42924Y-43840D01*
X42932Y-43850D01*
X42941Y-43869D01*
X42941Y-43897D01*
X42932Y-43916D01*
X42924Y-43926D01*
X42907Y-43935D01*
X42838Y-43935D01*
X43820Y-42379D02*
X43760Y-42285D01*
X43717Y-42379D02*
X43717Y-42182D01*
X43785Y-42182D01*
X43802Y-42192D01*
X43811Y-42201D01*
X43820Y-42220D01*
X43820Y-42248D01*
X43811Y-42267D01*
X43802Y-42276D01*
X43785Y-42285D01*
X43717Y-42285D01*
X43888Y-42201D02*
X43897Y-42192D01*
X43914Y-42182D01*
X43957Y-42182D01*
X43974Y-42192D01*
X43982Y-42201D01*
X43991Y-42220D01*
X43991Y-42239D01*
X43982Y-42267D01*
X43880Y-42379D01*
X43991Y-42379D01*
X42701Y-42230D02*
X42718Y-42230D01*
X42735Y-42240D01*
X42744Y-42250D01*
X42752Y-42269D01*
X42761Y-42307D01*
X42761Y-42354D01*
X42752Y-42392D01*
X42744Y-42411D01*
X42735Y-42421D01*
X42718Y-42430D01*
X42701Y-42430D01*
X42684Y-42421D01*
X42675Y-42411D01*
X42667Y-42392D01*
X42658Y-42354D01*
X42658Y-42307D01*
X42667Y-42269D01*
X42675Y-42250D01*
X42684Y-42240D01*
X42701Y-42230D01*
X42941Y-42430D02*
X42881Y-42335D01*
X42838Y-42430D02*
X42838Y-42230D01*
X42907Y-42230D01*
X42924Y-42240D01*
X42932Y-42250D01*
X42941Y-42269D01*
X42941Y-42297D01*
X42932Y-42316D01*
X42924Y-42326D01*
X42907Y-42335D01*
X42838Y-42335D01*
G54D10*
X37481Y-44315D02*
X37743Y-44709D01*
X37743Y-44315D02*
X37481Y-44709D01*
X38099Y-44709D02*
X37874Y-44709D01*
X37987Y-44709D02*
X37987Y-44315D01*
X37949Y-44371D01*
X37912Y-44409D01*
X37874Y-44428D01*
X35965Y-45206D02*
X35965Y-45393D01*
X36153Y-45412D01*
X36134Y-45393D01*
X36115Y-45356D01*
X36115Y-45262D01*
X36134Y-45224D01*
X36153Y-45206D01*
X36190Y-45187D01*
X36284Y-45187D01*
X36321Y-45206D01*
X36340Y-45224D01*
X36359Y-45262D01*
X36359Y-45356D01*
X36340Y-45393D01*
X36321Y-45412D01*
X35965Y-44943D02*
X35965Y-44906D01*
X35984Y-44868D01*
X36003Y-44849D01*
X36040Y-44831D01*
X36115Y-44812D01*
X36209Y-44812D01*
X36284Y-44831D01*
X36321Y-44849D01*
X36340Y-44868D01*
X36359Y-44906D01*
X36359Y-44943D01*
X36340Y-44981D01*
X36321Y-44999D01*
X36284Y-45018D01*
X36209Y-45037D01*
X36115Y-45037D01*
X36040Y-45018D01*
X36003Y-44999D01*
X35984Y-44981D01*
X35965Y-44943D01*
X36359Y-44643D02*
X35965Y-44643D01*
X36246Y-44512D01*
X35965Y-44381D01*
X36359Y-44381D01*
X36359Y-44193D02*
X35965Y-44193D01*
X36359Y-44025D02*
X36153Y-44025D01*
X36115Y-44043D01*
X36096Y-44081D01*
X36096Y-44137D01*
X36115Y-44175D01*
X36134Y-44193D01*
X36096Y-43875D02*
X36096Y-43668D01*
X36359Y-43875D01*
X36359Y-43668D01*
G54D17*
X42834Y-40761D02*
X42825Y-40771D01*
X42800Y-40780D01*
X42782Y-40780D01*
X42757Y-40771D01*
X42740Y-40752D01*
X42731Y-40733D01*
X42722Y-40695D01*
X42722Y-40666D01*
X42731Y-40628D01*
X42740Y-40609D01*
X42757Y-40590D01*
X42782Y-40580D01*
X42800Y-40580D01*
X42825Y-40590D01*
X42834Y-40600D01*
X43005Y-40780D02*
X42902Y-40780D01*
X42954Y-40780D02*
X42954Y-40580D01*
X42937Y-40609D01*
X42920Y-40628D01*
X42902Y-40638D01*
X43177Y-40780D02*
X43074Y-40780D01*
X43125Y-40780D02*
X43125Y-40580D01*
X43108Y-40609D01*
X43091Y-40628D01*
X43074Y-40638D01*
X41530Y-40807D02*
X41530Y-40910D01*
X41530Y-40858D02*
X41330Y-40858D01*
X41359Y-40875D01*
X41378Y-40892D01*
X41388Y-40910D01*
X41397Y-40652D02*
X41530Y-40652D01*
X41397Y-40730D02*
X41502Y-40730D01*
X41521Y-40721D01*
X41530Y-40704D01*
X41530Y-40678D01*
X41521Y-40661D01*
X41511Y-40652D01*
X41426Y-40507D02*
X41426Y-40567D01*
X41530Y-40567D02*
X41330Y-40567D01*
X41330Y-40481D01*
G54D14*
X41172Y-42242D02*
X41167Y-42249D01*
X41150Y-42255D01*
X41138Y-42255D01*
X41121Y-42249D01*
X41110Y-42236D01*
X41104Y-42223D01*
X41098Y-42196D01*
X41098Y-42177D01*
X41104Y-42150D01*
X41110Y-42137D01*
X41121Y-42124D01*
X41138Y-42117D01*
X41150Y-42117D01*
X41167Y-42124D01*
X41172Y-42131D01*
X41287Y-42255D02*
X41218Y-42255D01*
X41252Y-42255D02*
X41252Y-42117D01*
X41241Y-42137D01*
X41230Y-42150D01*
X41218Y-42157D01*
X41327Y-42117D02*
X41401Y-42117D01*
X41361Y-42170D01*
X41378Y-42170D01*
X41390Y-42177D01*
X41395Y-42183D01*
X41401Y-42196D01*
X41401Y-42229D01*
X41395Y-42242D01*
X41390Y-42249D01*
X41378Y-42255D01*
X41344Y-42255D01*
X41332Y-42249D01*
X41327Y-42242D01*
X41672Y-42242D02*
X41667Y-42249D01*
X41650Y-42255D01*
X41638Y-42255D01*
X41621Y-42249D01*
X41610Y-42236D01*
X41604Y-42223D01*
X41598Y-42196D01*
X41598Y-42177D01*
X41604Y-42150D01*
X41610Y-42137D01*
X41621Y-42124D01*
X41638Y-42117D01*
X41650Y-42117D01*
X41667Y-42124D01*
X41672Y-42131D01*
X41787Y-42255D02*
X41718Y-42255D01*
X41752Y-42255D02*
X41752Y-42117D01*
X41741Y-42137D01*
X41730Y-42150D01*
X41718Y-42157D01*
X41832Y-42131D02*
X41838Y-42124D01*
X41850Y-42117D01*
X41878Y-42117D01*
X41890Y-42124D01*
X41895Y-42131D01*
X41901Y-42144D01*
X41901Y-42157D01*
X41895Y-42177D01*
X41827Y-42255D01*
X41901Y-42255D01*
X39280Y-40342D02*
X39274Y-40349D01*
X39257Y-40355D01*
X39245Y-40355D01*
X39228Y-40349D01*
X39217Y-40336D01*
X39211Y-40323D01*
X39205Y-40296D01*
X39205Y-40277D01*
X39211Y-40250D01*
X39217Y-40237D01*
X39228Y-40224D01*
X39245Y-40217D01*
X39257Y-40217D01*
X39274Y-40224D01*
X39280Y-40231D01*
X39354Y-40217D02*
X39365Y-40217D01*
X39377Y-40224D01*
X39382Y-40231D01*
X39388Y-40244D01*
X39394Y-40270D01*
X39394Y-40303D01*
X39388Y-40329D01*
X39382Y-40342D01*
X39377Y-40349D01*
X39365Y-40355D01*
X39354Y-40355D01*
X39342Y-40349D01*
X39337Y-40342D01*
X39331Y-40329D01*
X39325Y-40303D01*
X39325Y-40270D01*
X39331Y-40244D01*
X39337Y-40231D01*
X39342Y-40224D01*
X39354Y-40217D01*
X40522Y-43292D02*
X40517Y-43299D01*
X40500Y-43305D01*
X40488Y-43305D01*
X40471Y-43299D01*
X40460Y-43286D01*
X40454Y-43273D01*
X40448Y-43246D01*
X40448Y-43227D01*
X40454Y-43200D01*
X40460Y-43187D01*
X40471Y-43174D01*
X40488Y-43167D01*
X40500Y-43167D01*
X40517Y-43174D01*
X40522Y-43181D01*
X40562Y-43167D02*
X40642Y-43305D01*
X40642Y-43167D02*
X40562Y-43305D01*
X40751Y-43305D02*
X40682Y-43305D01*
X40717Y-43305D02*
X40717Y-43167D01*
X40705Y-43187D01*
X40694Y-43200D01*
X40682Y-43207D01*
X37730Y-42742D02*
X37724Y-42749D01*
X37707Y-42755D01*
X37695Y-42755D01*
X37678Y-42749D01*
X37667Y-42736D01*
X37661Y-42723D01*
X37655Y-42696D01*
X37655Y-42677D01*
X37661Y-42650D01*
X37667Y-42637D01*
X37678Y-42624D01*
X37695Y-42617D01*
X37707Y-42617D01*
X37724Y-42624D01*
X37730Y-42631D01*
X37787Y-42755D02*
X37810Y-42755D01*
X37821Y-42749D01*
X37827Y-42742D01*
X37838Y-42723D01*
X37844Y-42696D01*
X37844Y-42644D01*
X37838Y-42631D01*
X37832Y-42624D01*
X37821Y-42617D01*
X37798Y-42617D01*
X37787Y-42624D01*
X37781Y-42631D01*
X37775Y-42644D01*
X37775Y-42677D01*
X37781Y-42690D01*
X37787Y-42696D01*
X37798Y-42703D01*
X37821Y-42703D01*
X37832Y-42696D01*
X37838Y-42690D01*
X37844Y-42677D01*
X39172Y-46042D02*
X39167Y-46049D01*
X39150Y-46055D01*
X39138Y-46055D01*
X39121Y-46049D01*
X39110Y-46036D01*
X39104Y-46023D01*
X39098Y-45996D01*
X39098Y-45977D01*
X39104Y-45950D01*
X39110Y-45937D01*
X39121Y-45924D01*
X39138Y-45917D01*
X39150Y-45917D01*
X39167Y-45924D01*
X39172Y-45931D01*
X39287Y-46055D02*
X39218Y-46055D01*
X39252Y-46055D02*
X39252Y-45917D01*
X39241Y-45937D01*
X39230Y-45950D01*
X39218Y-45957D01*
X39361Y-45917D02*
X39372Y-45917D01*
X39384Y-45924D01*
X39390Y-45931D01*
X39395Y-45944D01*
X39401Y-45970D01*
X39401Y-46003D01*
X39395Y-46029D01*
X39390Y-46042D01*
X39384Y-46049D01*
X39372Y-46055D01*
X39361Y-46055D01*
X39350Y-46049D01*
X39344Y-46042D01*
X39338Y-46029D01*
X39332Y-46003D01*
X39332Y-45970D01*
X39338Y-45944D01*
X39344Y-45931D01*
X39350Y-45924D01*
X39361Y-45917D01*
M02*
