G04 (created by PCBNEW (22-Jun-2014 BZR 4027)-stable) date Sun 25 Oct 2015 05:02:47 PM EET*
%MOIN*%
G04 Gerber Fmt 3.4, Leading zero omitted, Abs format*
%FSLAX34Y34*%
G01*
G70*
G90*
G04 APERTURE LIST*
%ADD10C,0.00590551*%
%ADD11C,0.011811*%
%ADD12C,0.0001*%
G04 APERTURE END LIST*
G54D10*
G54D11*
X46277Y-39460D02*
X46193Y-39489D01*
X46052Y-39489D01*
X45996Y-39460D01*
X45968Y-39432D01*
X45940Y-39376D01*
X45940Y-39320D01*
X45968Y-39264D01*
X45996Y-39235D01*
X46052Y-39207D01*
X46165Y-39179D01*
X46221Y-39151D01*
X46249Y-39123D01*
X46277Y-39067D01*
X46277Y-39010D01*
X46249Y-38954D01*
X46221Y-38926D01*
X46165Y-38898D01*
X46024Y-38898D01*
X45940Y-38926D01*
X45687Y-39489D02*
X45687Y-38898D01*
X45462Y-38898D01*
X45406Y-38926D01*
X45377Y-38954D01*
X45349Y-39010D01*
X45349Y-39095D01*
X45377Y-39151D01*
X45406Y-39179D01*
X45462Y-39207D01*
X45687Y-39207D01*
X45096Y-39489D02*
X45096Y-38898D01*
X44478Y-39489D02*
X44674Y-39207D01*
X44815Y-39489D02*
X44815Y-38898D01*
X44590Y-38898D01*
X44534Y-38926D01*
X44506Y-38954D01*
X44478Y-39010D01*
X44478Y-39095D01*
X44506Y-39151D01*
X44534Y-39179D01*
X44590Y-39207D01*
X44815Y-39207D01*
X44224Y-39489D02*
X44224Y-38898D01*
X44028Y-38898D02*
X43690Y-38898D01*
X43859Y-39489D02*
X43859Y-38898D01*
X43184Y-39489D02*
X43521Y-39489D01*
X43353Y-39489D02*
X43353Y-38898D01*
X43409Y-38982D01*
X43465Y-39039D01*
X43521Y-39067D01*
X42537Y-39095D02*
X42397Y-39489D01*
X42256Y-39095D01*
X41722Y-39489D02*
X42059Y-39489D01*
X41890Y-39489D02*
X41890Y-38898D01*
X41947Y-38982D01*
X42003Y-39039D01*
X42059Y-39067D01*
G54D12*
G36*
X41838Y-42172D02*
X41836Y-42179D01*
X41832Y-42191D01*
X41826Y-42208D01*
X41817Y-42227D01*
X41807Y-42249D01*
X41795Y-42274D01*
X41782Y-42299D01*
X41769Y-42325D01*
X41755Y-42352D01*
X41741Y-42377D01*
X41728Y-42401D01*
X41717Y-42419D01*
X41703Y-42443D01*
X41688Y-42467D01*
X41672Y-42491D01*
X41656Y-42515D01*
X41641Y-42536D01*
X41627Y-42556D01*
X41615Y-42572D01*
X41605Y-42585D01*
X41598Y-42592D01*
X41587Y-42599D01*
X41575Y-42600D01*
X41566Y-42598D01*
X41559Y-42593D01*
X41553Y-42586D01*
X41549Y-42578D01*
X41549Y-42569D01*
X41552Y-42559D01*
X41560Y-42545D01*
X41571Y-42530D01*
X41609Y-42476D01*
X41647Y-42418D01*
X41683Y-42357D01*
X41717Y-42294D01*
X41748Y-42231D01*
X41761Y-42204D01*
X41768Y-42187D01*
X41775Y-42173D01*
X41781Y-42161D01*
X41786Y-42152D01*
X41788Y-42150D01*
X41798Y-42143D01*
X41809Y-42141D01*
X41820Y-42143D01*
X41830Y-42150D01*
X41836Y-42161D01*
X41838Y-42172D01*
X41838Y-42172D01*
X41838Y-42172D01*
G37*
G36*
X41969Y-42213D02*
X41968Y-42220D01*
X41967Y-42226D01*
X41964Y-42236D01*
X41959Y-42251D01*
X41954Y-42270D01*
X41947Y-42292D01*
X41939Y-42317D01*
X41931Y-42344D01*
X41923Y-42371D01*
X41915Y-42399D01*
X41906Y-42427D01*
X41898Y-42453D01*
X41890Y-42478D01*
X41883Y-42501D01*
X41877Y-42520D01*
X41873Y-42535D01*
X41869Y-42546D01*
X41867Y-42551D01*
X41861Y-42564D01*
X41851Y-42572D01*
X41839Y-42574D01*
X41837Y-42574D01*
X41825Y-42572D01*
X41817Y-42567D01*
X41811Y-42557D01*
X41809Y-42547D01*
X41810Y-42542D01*
X41813Y-42532D01*
X41817Y-42517D01*
X41822Y-42499D01*
X41829Y-42477D01*
X41836Y-42452D01*
X41844Y-42425D01*
X41852Y-42398D01*
X41860Y-42369D01*
X41869Y-42341D01*
X41877Y-42314D01*
X41885Y-42288D01*
X41892Y-42264D01*
X41899Y-42244D01*
X41905Y-42227D01*
X41909Y-42214D01*
X41912Y-42206D01*
X41912Y-42205D01*
X41920Y-42194D01*
X41930Y-42188D01*
X41942Y-42187D01*
X41953Y-42190D01*
X41963Y-42199D01*
X41967Y-42205D01*
X41969Y-42213D01*
X41969Y-42213D01*
X41969Y-42213D01*
G37*
G36*
X42107Y-42238D02*
X42106Y-42247D01*
X42105Y-42260D01*
X42104Y-42277D01*
X42102Y-42299D01*
X42099Y-42325D01*
X42096Y-42351D01*
X42093Y-42379D01*
X42091Y-42405D01*
X42088Y-42428D01*
X42086Y-42449D01*
X42084Y-42466D01*
X42083Y-42478D01*
X42082Y-42485D01*
X42082Y-42486D01*
X42078Y-42495D01*
X42072Y-42504D01*
X42071Y-42505D01*
X42060Y-42513D01*
X42049Y-42514D01*
X42037Y-42509D01*
X42033Y-42506D01*
X42030Y-42503D01*
X42028Y-42500D01*
X42026Y-42497D01*
X42024Y-42492D01*
X42024Y-42486D01*
X42024Y-42478D01*
X42024Y-42466D01*
X42025Y-42452D01*
X42027Y-42433D01*
X42029Y-42410D01*
X42032Y-42381D01*
X42035Y-42348D01*
X42036Y-42341D01*
X42040Y-42307D01*
X42043Y-42279D01*
X42046Y-42256D01*
X42048Y-42238D01*
X42050Y-42225D01*
X42052Y-42217D01*
X42054Y-42213D01*
X42054Y-42213D01*
X42063Y-42204D01*
X42074Y-42200D01*
X42086Y-42201D01*
X42096Y-42207D01*
X42103Y-42215D01*
X42105Y-42218D01*
X42106Y-42221D01*
X42106Y-42225D01*
X42107Y-42230D01*
X42107Y-42238D01*
X42107Y-42238D01*
X42107Y-42238D01*
G37*
G36*
X42294Y-42427D02*
X42293Y-42431D01*
X42288Y-42442D01*
X42280Y-42450D01*
X42268Y-42454D01*
X42257Y-42454D01*
X42248Y-42450D01*
X42241Y-42442D01*
X42232Y-42428D01*
X42223Y-42410D01*
X42215Y-42388D01*
X42208Y-42363D01*
X42207Y-42360D01*
X42202Y-42341D01*
X42198Y-42319D01*
X42194Y-42294D01*
X42191Y-42270D01*
X42189Y-42247D01*
X42188Y-42229D01*
X42188Y-42225D01*
X42188Y-42212D01*
X42189Y-42203D01*
X42190Y-42198D01*
X42194Y-42193D01*
X42197Y-42190D01*
X42208Y-42182D01*
X42220Y-42180D01*
X42233Y-42185D01*
X42237Y-42188D01*
X42241Y-42191D01*
X42243Y-42196D01*
X42245Y-42202D01*
X42246Y-42212D01*
X42248Y-42227D01*
X42248Y-42228D01*
X42252Y-42272D01*
X42258Y-42310D01*
X42265Y-42343D01*
X42274Y-42372D01*
X42284Y-42397D01*
X42290Y-42410D01*
X42293Y-42420D01*
X42294Y-42427D01*
X42294Y-42427D01*
X42294Y-42427D01*
G37*
G36*
X43552Y-40582D02*
X43552Y-40585D01*
X43549Y-40587D01*
X43543Y-40588D01*
X43533Y-40589D01*
X43522Y-40590D01*
X43491Y-40592D01*
X43463Y-40595D01*
X43437Y-40599D01*
X43411Y-40604D01*
X43384Y-40610D01*
X43354Y-40618D01*
X43320Y-40627D01*
X43300Y-40633D01*
X43262Y-40646D01*
X43221Y-40661D01*
X43179Y-40678D01*
X43138Y-40697D01*
X43098Y-40717D01*
X43061Y-40737D01*
X43027Y-40757D01*
X42998Y-40776D01*
X42996Y-40778D01*
X42989Y-40784D01*
X42979Y-40795D01*
X42968Y-40809D01*
X42955Y-40827D01*
X42941Y-40846D01*
X42928Y-40865D01*
X42920Y-40876D01*
X42920Y-40729D01*
X42890Y-40717D01*
X42864Y-40708D01*
X42833Y-40698D01*
X42800Y-40688D01*
X42766Y-40678D01*
X42732Y-40670D01*
X42701Y-40663D01*
X42673Y-40657D01*
X42665Y-40656D01*
X42646Y-40654D01*
X42623Y-40652D01*
X42599Y-40651D01*
X42573Y-40651D01*
X42549Y-40651D01*
X42526Y-40652D01*
X42508Y-40654D01*
X42497Y-40656D01*
X42475Y-40662D01*
X42454Y-40671D01*
X42435Y-40681D01*
X42421Y-40693D01*
X42409Y-40708D01*
X42401Y-40730D01*
X42397Y-40748D01*
X42395Y-40761D01*
X42413Y-40770D01*
X42421Y-40774D01*
X42428Y-40776D01*
X42435Y-40777D01*
X42444Y-40778D01*
X42457Y-40777D01*
X42466Y-40777D01*
X42484Y-40775D01*
X42504Y-40773D01*
X42521Y-40771D01*
X42529Y-40770D01*
X42542Y-40768D01*
X42552Y-40767D01*
X42558Y-40766D01*
X42559Y-40767D01*
X42558Y-40768D01*
X42557Y-40768D01*
X42553Y-40771D01*
X42549Y-40778D01*
X42545Y-40786D01*
X42544Y-40793D01*
X42544Y-40793D01*
X42547Y-40802D01*
X42554Y-40810D01*
X42564Y-40818D01*
X42571Y-40821D01*
X42586Y-40824D01*
X42605Y-40824D01*
X42625Y-40822D01*
X42644Y-40817D01*
X42649Y-40815D01*
X42660Y-40809D01*
X42667Y-40803D01*
X42671Y-40796D01*
X42671Y-40795D01*
X42674Y-40784D01*
X42671Y-40773D01*
X42663Y-40764D01*
X42660Y-40761D01*
X42649Y-40753D01*
X42674Y-40753D01*
X42688Y-40752D01*
X42706Y-40751D01*
X42729Y-40750D01*
X42755Y-40747D01*
X42782Y-40745D01*
X42810Y-40742D01*
X42837Y-40740D01*
X42862Y-40737D01*
X42885Y-40734D01*
X42904Y-40731D01*
X42905Y-40731D01*
X42920Y-40729D01*
X42920Y-40876D01*
X42914Y-40885D01*
X42902Y-40903D01*
X42892Y-40920D01*
X42885Y-40934D01*
X42885Y-40934D01*
X42867Y-40970D01*
X42852Y-41006D01*
X42837Y-41042D01*
X42824Y-41079D01*
X42812Y-41118D01*
X42801Y-41159D01*
X42790Y-41204D01*
X42780Y-41252D01*
X42770Y-41305D01*
X42760Y-41362D01*
X42752Y-41413D01*
X42745Y-41455D01*
X42739Y-41491D01*
X42733Y-41523D01*
X42727Y-41550D01*
X42722Y-41576D01*
X42716Y-41599D01*
X42709Y-41620D01*
X42702Y-41642D01*
X42694Y-41663D01*
X42690Y-41673D01*
X42670Y-41721D01*
X42650Y-41765D01*
X42629Y-41805D01*
X42607Y-41841D01*
X42582Y-41876D01*
X42555Y-41909D01*
X42524Y-41943D01*
X42494Y-41973D01*
X42452Y-42011D01*
X42411Y-42043D01*
X42369Y-42071D01*
X42325Y-42095D01*
X42296Y-42109D01*
X42271Y-42120D01*
X42249Y-42128D01*
X42228Y-42135D01*
X42208Y-42140D01*
X42186Y-42144D01*
X42161Y-42147D01*
X42132Y-42150D01*
X42088Y-42153D01*
X42050Y-42155D01*
X42016Y-42154D01*
X41989Y-42151D01*
X41986Y-42150D01*
X41967Y-42147D01*
X41947Y-42142D01*
X41927Y-42137D01*
X41908Y-42132D01*
X41892Y-42126D01*
X41879Y-42122D01*
X41874Y-42119D01*
X41865Y-42112D01*
X41854Y-42103D01*
X41847Y-42097D01*
X41833Y-42082D01*
X41832Y-42049D01*
X41832Y-41997D01*
X41837Y-41942D01*
X41845Y-41884D01*
X41856Y-41824D01*
X41871Y-41763D01*
X41889Y-41703D01*
X41909Y-41643D01*
X41932Y-41585D01*
X41940Y-41568D01*
X41948Y-41550D01*
X41907Y-41525D01*
X41893Y-41516D01*
X41881Y-41509D01*
X41871Y-41503D01*
X41866Y-41500D01*
X41865Y-41500D01*
X41863Y-41502D01*
X41858Y-41509D01*
X41851Y-41521D01*
X41842Y-41536D01*
X41831Y-41553D01*
X41819Y-41573D01*
X41812Y-41584D01*
X41799Y-41605D01*
X41787Y-41625D01*
X41775Y-41643D01*
X41765Y-41658D01*
X41757Y-41670D01*
X41752Y-41677D01*
X41751Y-41678D01*
X41740Y-41687D01*
X41728Y-41689D01*
X41717Y-41684D01*
X41711Y-41680D01*
X41707Y-41675D01*
X41703Y-41671D01*
X41702Y-41666D01*
X41702Y-41660D01*
X41703Y-41652D01*
X41707Y-41643D01*
X41714Y-41630D01*
X41723Y-41614D01*
X41735Y-41594D01*
X41750Y-41569D01*
X41757Y-41557D01*
X41770Y-41536D01*
X41782Y-41516D01*
X41793Y-41499D01*
X41801Y-41485D01*
X41807Y-41474D01*
X41811Y-41468D01*
X41812Y-41467D01*
X41805Y-41462D01*
X41795Y-41454D01*
X41783Y-41444D01*
X41771Y-41433D01*
X41760Y-41423D01*
X41754Y-41417D01*
X41745Y-41408D01*
X41738Y-41400D01*
X41733Y-41396D01*
X41732Y-41396D01*
X41729Y-41397D01*
X41722Y-41402D01*
X41710Y-41409D01*
X41695Y-41419D01*
X41677Y-41431D01*
X41657Y-41444D01*
X41637Y-41457D01*
X41611Y-41474D01*
X41589Y-41489D01*
X41571Y-41500D01*
X41557Y-41508D01*
X41546Y-41514D01*
X41537Y-41517D01*
X41531Y-41519D01*
X41525Y-41518D01*
X41521Y-41516D01*
X41516Y-41512D01*
X41513Y-41509D01*
X41505Y-41498D01*
X41504Y-41486D01*
X41509Y-41474D01*
X41509Y-41474D01*
X41513Y-41470D01*
X41522Y-41463D01*
X41534Y-41454D01*
X41550Y-41443D01*
X41568Y-41430D01*
X41589Y-41416D01*
X41606Y-41404D01*
X41698Y-41344D01*
X41674Y-41301D01*
X41665Y-41286D01*
X41658Y-41273D01*
X41652Y-41263D01*
X41649Y-41257D01*
X41648Y-41256D01*
X41645Y-41256D01*
X41636Y-41257D01*
X41622Y-41258D01*
X41603Y-41260D01*
X41581Y-41263D01*
X41555Y-41266D01*
X41526Y-41269D01*
X41496Y-41273D01*
X41480Y-41276D01*
X41448Y-41280D01*
X41417Y-41284D01*
X41389Y-41287D01*
X41364Y-41291D01*
X41342Y-41293D01*
X41324Y-41295D01*
X41311Y-41297D01*
X41303Y-41298D01*
X41302Y-41298D01*
X41289Y-41295D01*
X41280Y-41287D01*
X41275Y-41275D01*
X41275Y-41273D01*
X41275Y-41259D01*
X41281Y-41248D01*
X41292Y-41242D01*
X41296Y-41241D01*
X41306Y-41239D01*
X41320Y-41237D01*
X41339Y-41234D01*
X41361Y-41231D01*
X41385Y-41227D01*
X41412Y-41224D01*
X41439Y-41220D01*
X41467Y-41216D01*
X41494Y-41212D01*
X41521Y-41209D01*
X41545Y-41205D01*
X41567Y-41203D01*
X41586Y-41200D01*
X41600Y-41198D01*
X41610Y-41197D01*
X41614Y-41197D01*
X41616Y-41197D01*
X41617Y-41196D01*
X41616Y-41193D01*
X41615Y-41187D01*
X41611Y-41177D01*
X41606Y-41163D01*
X41603Y-41154D01*
X41592Y-41123D01*
X41264Y-41052D01*
X41219Y-41042D01*
X41176Y-41033D01*
X41135Y-41024D01*
X41096Y-41015D01*
X41061Y-41007D01*
X41029Y-41000D01*
X41000Y-40994D01*
X40975Y-40988D01*
X40955Y-40984D01*
X40940Y-40980D01*
X40931Y-40978D01*
X40927Y-40976D01*
X40917Y-40969D01*
X40912Y-40959D01*
X40911Y-40951D01*
X40914Y-40938D01*
X40922Y-40929D01*
X40933Y-40924D01*
X40941Y-40923D01*
X40946Y-40923D01*
X40956Y-40925D01*
X40972Y-40928D01*
X40993Y-40933D01*
X41018Y-40938D01*
X41047Y-40944D01*
X41080Y-40951D01*
X41116Y-40958D01*
X41154Y-40966D01*
X41195Y-40975D01*
X41237Y-40984D01*
X41264Y-40990D01*
X41307Y-40999D01*
X41349Y-41008D01*
X41388Y-41017D01*
X41425Y-41025D01*
X41458Y-41032D01*
X41488Y-41038D01*
X41515Y-41044D01*
X41537Y-41049D01*
X41555Y-41053D01*
X41567Y-41055D01*
X41574Y-41057D01*
X41575Y-41057D01*
X41575Y-41054D01*
X41574Y-41045D01*
X41573Y-41034D01*
X41571Y-41019D01*
X41571Y-41019D01*
X41568Y-41003D01*
X41566Y-40992D01*
X41564Y-40985D01*
X41562Y-40981D01*
X41559Y-40979D01*
X41554Y-40977D01*
X41545Y-40974D01*
X41531Y-40968D01*
X41513Y-40962D01*
X41493Y-40954D01*
X41470Y-40945D01*
X41455Y-40939D01*
X41397Y-40917D01*
X41335Y-40892D01*
X41269Y-40866D01*
X41200Y-40839D01*
X41129Y-40810D01*
X41057Y-40781D01*
X40985Y-40752D01*
X40914Y-40723D01*
X40845Y-40695D01*
X40837Y-40691D01*
X40802Y-40677D01*
X40767Y-40662D01*
X40732Y-40648D01*
X40699Y-40634D01*
X40669Y-40622D01*
X40641Y-40610D01*
X40617Y-40600D01*
X40597Y-40592D01*
X40582Y-40586D01*
X40580Y-40585D01*
X40561Y-40577D01*
X40544Y-40570D01*
X40529Y-40563D01*
X40518Y-40558D01*
X40512Y-40554D01*
X40511Y-40554D01*
X40504Y-40544D01*
X40502Y-40533D01*
X40504Y-40521D01*
X40510Y-40511D01*
X40519Y-40504D01*
X40520Y-40504D01*
X40524Y-40503D01*
X40528Y-40502D01*
X40532Y-40502D01*
X40537Y-40504D01*
X40545Y-40506D01*
X40555Y-40510D01*
X40569Y-40515D01*
X40587Y-40523D01*
X40610Y-40532D01*
X40618Y-40535D01*
X40697Y-40568D01*
X40774Y-40600D01*
X40849Y-40631D01*
X40922Y-40661D01*
X40993Y-40690D01*
X41061Y-40717D01*
X41126Y-40744D01*
X41189Y-40769D01*
X41247Y-40792D01*
X41303Y-40814D01*
X41354Y-40835D01*
X41402Y-40854D01*
X41445Y-40870D01*
X41484Y-40885D01*
X41518Y-40898D01*
X41547Y-40909D01*
X41571Y-40918D01*
X41590Y-40924D01*
X41601Y-40928D01*
X41622Y-40934D01*
X41648Y-40943D01*
X41678Y-40953D01*
X41709Y-40964D01*
X41742Y-40977D01*
X41776Y-40989D01*
X41808Y-41002D01*
X41838Y-41014D01*
X41866Y-41026D01*
X41866Y-41026D01*
X41903Y-41042D01*
X41941Y-41061D01*
X41980Y-41080D01*
X42019Y-41100D01*
X42056Y-41121D01*
X42092Y-41141D01*
X42125Y-41160D01*
X42154Y-41179D01*
X42178Y-41196D01*
X42191Y-41206D01*
X42210Y-41220D01*
X42242Y-41195D01*
X42258Y-41183D01*
X42270Y-41173D01*
X42279Y-41166D01*
X42285Y-41160D01*
X42289Y-41155D01*
X42293Y-41150D01*
X42295Y-41146D01*
X42300Y-41134D01*
X42305Y-41121D01*
X42309Y-41105D01*
X42313Y-41087D01*
X42316Y-41065D01*
X42319Y-41040D01*
X42321Y-41010D01*
X42324Y-40976D01*
X42326Y-40936D01*
X42328Y-40891D01*
X42328Y-40890D01*
X42330Y-40851D01*
X42331Y-40819D01*
X42333Y-40791D01*
X42335Y-40768D01*
X42337Y-40749D01*
X42339Y-40733D01*
X42342Y-40719D01*
X42344Y-40707D01*
X42348Y-40697D01*
X42348Y-40696D01*
X42361Y-40670D01*
X42380Y-40648D01*
X42403Y-40629D01*
X42432Y-40614D01*
X42465Y-40602D01*
X42503Y-40594D01*
X42520Y-40592D01*
X42543Y-40590D01*
X42570Y-40589D01*
X42600Y-40590D01*
X42630Y-40592D01*
X42659Y-40594D01*
X42676Y-40597D01*
X42703Y-40601D01*
X42734Y-40608D01*
X42767Y-40616D01*
X42802Y-40625D01*
X42837Y-40635D01*
X42869Y-40645D01*
X42898Y-40655D01*
X42910Y-40660D01*
X42923Y-40665D01*
X42934Y-40669D01*
X42942Y-40672D01*
X42945Y-40673D01*
X42949Y-40672D01*
X42959Y-40669D01*
X42971Y-40665D01*
X42986Y-40659D01*
X42990Y-40657D01*
X43029Y-40641D01*
X43069Y-40628D01*
X43109Y-40616D01*
X43150Y-40606D01*
X43194Y-40597D01*
X43241Y-40590D01*
X43292Y-40584D01*
X43347Y-40580D01*
X43407Y-40577D01*
X43434Y-40575D01*
X43465Y-40574D01*
X43490Y-40574D01*
X43510Y-40573D01*
X43525Y-40574D01*
X43537Y-40574D01*
X43544Y-40575D01*
X43549Y-40577D01*
X43552Y-40579D01*
X43552Y-40582D01*
X43552Y-40582D01*
X43552Y-40582D01*
G37*
G36*
X43385Y-42139D02*
X43341Y-42139D01*
X43297Y-42139D01*
X43297Y-42038D01*
X43297Y-41937D01*
X43297Y-41861D01*
X43297Y-41748D01*
X43297Y-41634D01*
X43277Y-41604D01*
X43255Y-41574D01*
X43233Y-41549D01*
X43209Y-41527D01*
X43186Y-41510D01*
X43163Y-41497D01*
X43140Y-41490D01*
X43119Y-41488D01*
X43116Y-41488D01*
X43095Y-41493D01*
X43077Y-41503D01*
X43061Y-41519D01*
X43048Y-41539D01*
X43038Y-41564D01*
X43031Y-41592D01*
X43027Y-41625D01*
X43027Y-41657D01*
X43030Y-41695D01*
X43037Y-41729D01*
X43047Y-41758D01*
X43062Y-41785D01*
X43080Y-41809D01*
X43090Y-41820D01*
X43110Y-41838D01*
X43130Y-41852D01*
X43150Y-41861D01*
X43167Y-41867D01*
X43182Y-41869D01*
X43201Y-41871D01*
X43223Y-41871D01*
X43245Y-41870D01*
X43266Y-41867D01*
X43269Y-41866D01*
X43297Y-41861D01*
X43297Y-41937D01*
X43288Y-41939D01*
X43278Y-41940D01*
X43263Y-41941D01*
X43244Y-41942D01*
X43224Y-41943D01*
X43204Y-41943D01*
X43184Y-41943D01*
X43167Y-41942D01*
X43154Y-41941D01*
X43150Y-41941D01*
X43113Y-41931D01*
X43078Y-41915D01*
X43047Y-41894D01*
X43018Y-41868D01*
X42993Y-41836D01*
X42971Y-41798D01*
X42968Y-41794D01*
X42953Y-41759D01*
X42943Y-41723D01*
X42936Y-41683D01*
X42933Y-41640D01*
X42933Y-41629D01*
X42934Y-41598D01*
X42936Y-41571D01*
X42941Y-41548D01*
X42947Y-41526D01*
X42957Y-41504D01*
X42958Y-41501D01*
X42967Y-41485D01*
X42975Y-41472D01*
X42985Y-41460D01*
X42995Y-41451D01*
X43018Y-41432D01*
X43041Y-41418D01*
X43064Y-41410D01*
X43090Y-41406D01*
X43091Y-41406D01*
X43114Y-41406D01*
X43135Y-41409D01*
X43156Y-41415D01*
X43180Y-41425D01*
X43187Y-41429D01*
X43221Y-41450D01*
X43252Y-41477D01*
X43277Y-41505D01*
X43297Y-41531D01*
X43298Y-41475D01*
X43299Y-41419D01*
X43342Y-41418D01*
X43385Y-41417D01*
X43385Y-41778D01*
X43385Y-42139D01*
X43385Y-42139D01*
X43385Y-42139D01*
G37*
G36*
X46802Y-41834D02*
X46801Y-41879D01*
X46800Y-41923D01*
X46767Y-41934D01*
X46736Y-41943D01*
X46709Y-41950D01*
X46682Y-41954D01*
X46654Y-41957D01*
X46630Y-41958D01*
X46611Y-41958D01*
X46592Y-41958D01*
X46575Y-41958D01*
X46562Y-41957D01*
X46559Y-41956D01*
X46519Y-41949D01*
X46483Y-41937D01*
X46451Y-41921D01*
X46424Y-41900D01*
X46401Y-41875D01*
X46383Y-41845D01*
X46382Y-41844D01*
X46373Y-41821D01*
X46367Y-41798D01*
X46364Y-41772D01*
X46364Y-41755D01*
X46366Y-41722D01*
X46374Y-41692D01*
X46387Y-41663D01*
X46407Y-41636D01*
X46417Y-41625D01*
X46425Y-41616D01*
X46434Y-41608D01*
X46443Y-41600D01*
X46455Y-41592D01*
X46470Y-41582D01*
X46487Y-41570D01*
X46509Y-41557D01*
X46535Y-41541D01*
X46542Y-41537D01*
X46576Y-41517D01*
X46604Y-41499D01*
X46628Y-41483D01*
X46648Y-41469D01*
X46664Y-41456D01*
X46676Y-41444D01*
X46685Y-41432D01*
X46692Y-41420D01*
X46696Y-41408D01*
X46698Y-41395D01*
X46699Y-41381D01*
X46699Y-41377D01*
X46698Y-41355D01*
X46693Y-41337D01*
X46685Y-41321D01*
X46671Y-41306D01*
X46650Y-41289D01*
X46624Y-41276D01*
X46595Y-41269D01*
X46562Y-41267D01*
X46548Y-41268D01*
X46503Y-41273D01*
X46461Y-41282D01*
X46441Y-41288D01*
X46429Y-41292D01*
X46419Y-41294D01*
X46413Y-41295D01*
X46412Y-41295D01*
X46412Y-41292D01*
X46411Y-41283D01*
X46411Y-41271D01*
X46411Y-41256D01*
X46411Y-41219D01*
X46420Y-41216D01*
X46439Y-41210D01*
X46463Y-41204D01*
X46491Y-41200D01*
X46520Y-41197D01*
X46549Y-41196D01*
X46576Y-41196D01*
X46597Y-41197D01*
X46632Y-41201D01*
X46662Y-41208D01*
X46687Y-41218D01*
X46710Y-41230D01*
X46731Y-41247D01*
X46741Y-41256D01*
X46762Y-41280D01*
X46777Y-41307D01*
X46788Y-41337D01*
X46793Y-41369D01*
X46793Y-41388D01*
X46790Y-41421D01*
X46782Y-41452D01*
X46767Y-41482D01*
X46746Y-41510D01*
X46736Y-41520D01*
X46725Y-41531D01*
X46714Y-41540D01*
X46702Y-41550D01*
X46688Y-41560D01*
X46671Y-41571D01*
X46650Y-41584D01*
X46624Y-41599D01*
X46620Y-41600D01*
X46585Y-41621D01*
X46554Y-41640D01*
X46529Y-41658D01*
X46508Y-41674D01*
X46491Y-41689D01*
X46478Y-41704D01*
X46469Y-41718D01*
X46462Y-41733D01*
X46458Y-41749D01*
X46456Y-41760D01*
X46457Y-41784D01*
X46463Y-41807D01*
X46474Y-41829D01*
X46489Y-41848D01*
X46491Y-41850D01*
X46506Y-41861D01*
X46526Y-41871D01*
X46549Y-41879D01*
X46574Y-41885D01*
X46598Y-41887D01*
X46602Y-41887D01*
X46630Y-41885D01*
X46662Y-41881D01*
X46695Y-41873D01*
X46730Y-41863D01*
X46763Y-41851D01*
X46773Y-41847D01*
X46802Y-41834D01*
X46802Y-41834D01*
X46802Y-41834D01*
G37*
G36*
X43973Y-41711D02*
X43972Y-41755D01*
X43966Y-41798D01*
X43965Y-41805D01*
X43961Y-41820D01*
X43957Y-41835D01*
X43952Y-41848D01*
X43952Y-41849D01*
X43936Y-41876D01*
X43917Y-41900D01*
X43893Y-41921D01*
X43879Y-41930D01*
X43879Y-41717D01*
X43878Y-41692D01*
X43876Y-41668D01*
X43873Y-41647D01*
X43871Y-41637D01*
X43862Y-41606D01*
X43850Y-41579D01*
X43834Y-41556D01*
X43817Y-41537D01*
X43793Y-41516D01*
X43769Y-41501D01*
X43743Y-41491D01*
X43714Y-41485D01*
X43682Y-41485D01*
X43678Y-41485D01*
X43662Y-41486D01*
X43646Y-41488D01*
X43633Y-41490D01*
X43628Y-41491D01*
X43611Y-41495D01*
X43610Y-41609D01*
X43609Y-41722D01*
X43629Y-41752D01*
X43642Y-41771D01*
X43659Y-41791D01*
X43677Y-41810D01*
X43694Y-41827D01*
X43711Y-41841D01*
X43714Y-41843D01*
X43739Y-41857D01*
X43763Y-41866D01*
X43785Y-41868D01*
X43806Y-41865D01*
X43819Y-41859D01*
X43838Y-41844D01*
X43854Y-41824D01*
X43866Y-41799D01*
X43873Y-41779D01*
X43876Y-41762D01*
X43878Y-41741D01*
X43879Y-41717D01*
X43879Y-41930D01*
X43867Y-41937D01*
X43862Y-41940D01*
X43852Y-41944D01*
X43843Y-41946D01*
X43831Y-41949D01*
X43816Y-41951D01*
X43811Y-41951D01*
X43803Y-41952D01*
X43792Y-41951D01*
X43785Y-41950D01*
X43756Y-41943D01*
X43727Y-41931D01*
X43698Y-41915D01*
X43671Y-41895D01*
X43646Y-41872D01*
X43626Y-41848D01*
X43623Y-41843D01*
X43617Y-41834D01*
X43612Y-41827D01*
X43609Y-41824D01*
X43609Y-41824D01*
X43608Y-41827D01*
X43606Y-41835D01*
X43605Y-41846D01*
X43605Y-41849D01*
X43603Y-41863D01*
X43601Y-41881D01*
X43599Y-41898D01*
X43598Y-41905D01*
X43592Y-41938D01*
X43547Y-41938D01*
X43529Y-41938D01*
X43517Y-41937D01*
X43509Y-41937D01*
X43505Y-41936D01*
X43503Y-41934D01*
X43503Y-41932D01*
X43503Y-41932D01*
X43506Y-41921D01*
X43509Y-41909D01*
X43512Y-41897D01*
X43514Y-41884D01*
X43516Y-41869D01*
X43517Y-41852D01*
X43518Y-41832D01*
X43519Y-41809D01*
X43520Y-41782D01*
X43520Y-41752D01*
X43521Y-41716D01*
X43521Y-41675D01*
X43521Y-41629D01*
X43521Y-41621D01*
X43521Y-41418D01*
X43593Y-41416D01*
X43629Y-41415D01*
X43661Y-41414D01*
X43687Y-41413D01*
X43709Y-41413D01*
X43727Y-41414D01*
X43743Y-41414D01*
X43755Y-41416D01*
X43766Y-41418D01*
X43776Y-41420D01*
X43777Y-41420D01*
X43801Y-41428D01*
X43822Y-41438D01*
X43843Y-41450D01*
X43857Y-41461D01*
X43885Y-41486D01*
X43910Y-41516D01*
X43931Y-41550D01*
X43948Y-41587D01*
X43961Y-41627D01*
X43969Y-41668D01*
X43973Y-41711D01*
X43973Y-41711D01*
X43973Y-41711D01*
G37*
G36*
X44515Y-41655D02*
X44514Y-41699D01*
X44513Y-41710D01*
X44506Y-41752D01*
X44494Y-41791D01*
X44476Y-41827D01*
X44453Y-41859D01*
X44431Y-41883D01*
X44400Y-41908D01*
X44366Y-41927D01*
X44329Y-41940D01*
X44289Y-41949D01*
X44245Y-41951D01*
X44212Y-41950D01*
X44164Y-41944D01*
X44114Y-41932D01*
X44108Y-41931D01*
X44083Y-41923D01*
X44082Y-41881D01*
X44082Y-41864D01*
X44082Y-41853D01*
X44083Y-41845D01*
X44084Y-41842D01*
X44085Y-41841D01*
X44087Y-41841D01*
X44097Y-41845D01*
X44112Y-41849D01*
X44129Y-41854D01*
X44147Y-41859D01*
X44163Y-41864D01*
X44177Y-41867D01*
X44185Y-41869D01*
X44201Y-41870D01*
X44221Y-41871D01*
X44242Y-41871D01*
X44264Y-41870D01*
X44283Y-41868D01*
X44299Y-41865D01*
X44306Y-41863D01*
X44333Y-41850D01*
X44357Y-41832D01*
X44377Y-41810D01*
X44394Y-41781D01*
X44399Y-41772D01*
X44409Y-41747D01*
X44416Y-41724D01*
X44419Y-41700D01*
X44420Y-41674D01*
X44418Y-41637D01*
X44410Y-41603D01*
X44398Y-41572D01*
X44382Y-41545D01*
X44362Y-41521D01*
X44338Y-41503D01*
X44310Y-41488D01*
X44291Y-41482D01*
X44274Y-41479D01*
X44253Y-41478D01*
X44230Y-41478D01*
X44207Y-41479D01*
X44187Y-41482D01*
X44187Y-41482D01*
X44174Y-41486D01*
X44157Y-41490D01*
X44139Y-41496D01*
X44128Y-41500D01*
X44113Y-41505D01*
X44101Y-41510D01*
X44092Y-41513D01*
X44087Y-41514D01*
X44085Y-41515D01*
X44084Y-41513D01*
X44082Y-41508D01*
X44082Y-41500D01*
X44082Y-41488D01*
X44082Y-41475D01*
X44082Y-41434D01*
X44105Y-41427D01*
X44142Y-41418D01*
X44179Y-41411D01*
X44215Y-41407D01*
X44250Y-41405D01*
X44282Y-41406D01*
X44305Y-41409D01*
X44342Y-41420D01*
X44376Y-41434D01*
X44407Y-41455D01*
X44429Y-41474D01*
X44458Y-41505D01*
X44480Y-41538D01*
X44497Y-41575D01*
X44509Y-41614D01*
X44515Y-41655D01*
X44515Y-41655D01*
X44515Y-41655D01*
G37*
G36*
X45690Y-41679D02*
X45690Y-41700D01*
X45690Y-41717D01*
X45689Y-41729D01*
X45688Y-41740D01*
X45685Y-41751D01*
X45683Y-41763D01*
X45682Y-41764D01*
X45669Y-41803D01*
X45651Y-41838D01*
X45629Y-41869D01*
X45603Y-41896D01*
X45598Y-41901D01*
X45596Y-41902D01*
X45596Y-41678D01*
X45596Y-41656D01*
X45596Y-41640D01*
X45595Y-41627D01*
X45594Y-41617D01*
X45592Y-41607D01*
X45589Y-41598D01*
X45589Y-41596D01*
X45577Y-41563D01*
X45561Y-41536D01*
X45542Y-41513D01*
X45519Y-41496D01*
X45507Y-41489D01*
X45496Y-41484D01*
X45485Y-41481D01*
X45474Y-41479D01*
X45459Y-41478D01*
X45456Y-41478D01*
X45426Y-41479D01*
X45400Y-41484D01*
X45376Y-41495D01*
X45356Y-41510D01*
X45345Y-41522D01*
X45328Y-41545D01*
X45314Y-41572D01*
X45305Y-41604D01*
X45299Y-41639D01*
X45297Y-41676D01*
X45298Y-41711D01*
X45304Y-41749D01*
X45314Y-41782D01*
X45328Y-41811D01*
X45345Y-41835D01*
X45366Y-41854D01*
X45389Y-41867D01*
X45412Y-41876D01*
X45436Y-41880D01*
X45462Y-41879D01*
X45472Y-41878D01*
X45500Y-41870D01*
X45524Y-41857D01*
X45546Y-41839D01*
X45564Y-41815D01*
X45574Y-41799D01*
X45581Y-41782D01*
X45587Y-41767D01*
X45591Y-41753D01*
X45594Y-41737D01*
X45595Y-41719D01*
X45596Y-41696D01*
X45596Y-41678D01*
X45596Y-41902D01*
X45572Y-41919D01*
X45541Y-41934D01*
X45507Y-41945D01*
X45471Y-41951D01*
X45434Y-41952D01*
X45416Y-41950D01*
X45379Y-41943D01*
X45345Y-41931D01*
X45313Y-41913D01*
X45285Y-41890D01*
X45260Y-41863D01*
X45240Y-41831D01*
X45223Y-41796D01*
X45211Y-41757D01*
X45210Y-41749D01*
X45207Y-41736D01*
X45205Y-41724D01*
X45204Y-41711D01*
X45204Y-41695D01*
X45204Y-41676D01*
X45205Y-41667D01*
X45206Y-41643D01*
X45207Y-41623D01*
X45209Y-41606D01*
X45213Y-41591D01*
X45218Y-41575D01*
X45224Y-41556D01*
X45225Y-41555D01*
X45238Y-41527D01*
X45256Y-41500D01*
X45277Y-41475D01*
X45300Y-41452D01*
X45324Y-41436D01*
X45348Y-41423D01*
X45372Y-41415D01*
X45399Y-41409D01*
X45429Y-41406D01*
X45436Y-41406D01*
X45472Y-41406D01*
X45504Y-41410D01*
X45533Y-41418D01*
X45560Y-41429D01*
X45575Y-41438D01*
X45604Y-41460D01*
X45629Y-41487D01*
X45651Y-41517D01*
X45668Y-41552D01*
X45682Y-41589D01*
X45684Y-41596D01*
X45686Y-41608D01*
X45688Y-41619D01*
X45689Y-41631D01*
X45690Y-41645D01*
X45690Y-41663D01*
X45690Y-41679D01*
X45690Y-41679D01*
X45690Y-41679D01*
G37*
G36*
X45154Y-41418D02*
X45152Y-41426D01*
X45151Y-41431D01*
X45150Y-41441D01*
X45147Y-41456D01*
X45144Y-41476D01*
X45140Y-41501D01*
X45135Y-41529D01*
X45130Y-41560D01*
X45125Y-41595D01*
X45119Y-41631D01*
X45112Y-41669D01*
X45111Y-41679D01*
X45104Y-41718D01*
X45099Y-41755D01*
X45093Y-41789D01*
X45088Y-41821D01*
X45083Y-41850D01*
X45079Y-41875D01*
X45075Y-41897D01*
X45073Y-41913D01*
X45071Y-41924D01*
X45070Y-41930D01*
X45070Y-41931D01*
X45069Y-41933D01*
X45067Y-41935D01*
X45063Y-41937D01*
X45056Y-41937D01*
X45045Y-41938D01*
X45029Y-41938D01*
X45026Y-41938D01*
X44984Y-41938D01*
X44941Y-41770D01*
X44933Y-41737D01*
X44925Y-41705D01*
X44917Y-41675D01*
X44910Y-41646D01*
X44904Y-41621D01*
X44898Y-41599D01*
X44894Y-41582D01*
X44892Y-41570D01*
X44891Y-41567D01*
X44888Y-41552D01*
X44885Y-41541D01*
X44884Y-41534D01*
X44882Y-41531D01*
X44881Y-41534D01*
X44879Y-41542D01*
X44876Y-41553D01*
X44873Y-41567D01*
X44871Y-41576D01*
X44867Y-41592D01*
X44862Y-41611D01*
X44855Y-41635D01*
X44847Y-41662D01*
X44839Y-41691D01*
X44830Y-41722D01*
X44820Y-41755D01*
X44816Y-41769D01*
X44766Y-41936D01*
X44726Y-41937D01*
X44685Y-41938D01*
X44643Y-41680D01*
X44637Y-41641D01*
X44631Y-41603D01*
X44625Y-41567D01*
X44620Y-41535D01*
X44615Y-41505D01*
X44611Y-41479D01*
X44608Y-41457D01*
X44605Y-41440D01*
X44603Y-41428D01*
X44602Y-41421D01*
X44602Y-41420D01*
X44605Y-41419D01*
X44612Y-41418D01*
X44623Y-41418D01*
X44635Y-41418D01*
X44648Y-41418D01*
X44658Y-41418D01*
X44665Y-41419D01*
X44668Y-41420D01*
X44668Y-41424D01*
X44670Y-41433D01*
X44672Y-41447D01*
X44675Y-41465D01*
X44678Y-41486D01*
X44682Y-41510D01*
X44685Y-41531D01*
X44690Y-41561D01*
X44695Y-41593D01*
X44700Y-41625D01*
X44705Y-41656D01*
X44709Y-41684D01*
X44713Y-41707D01*
X44714Y-41714D01*
X44717Y-41735D01*
X44720Y-41755D01*
X44723Y-41772D01*
X44725Y-41785D01*
X44726Y-41793D01*
X44727Y-41796D01*
X44728Y-41797D01*
X44730Y-41794D01*
X44732Y-41786D01*
X44736Y-41772D01*
X44738Y-41764D01*
X44740Y-41753D01*
X44745Y-41737D01*
X44750Y-41716D01*
X44757Y-41692D01*
X44765Y-41665D01*
X44773Y-41635D01*
X44782Y-41604D01*
X44792Y-41573D01*
X44792Y-41572D01*
X44837Y-41419D01*
X44876Y-41419D01*
X44915Y-41419D01*
X44957Y-41578D01*
X44965Y-41610D01*
X44973Y-41641D01*
X44981Y-41670D01*
X44987Y-41698D01*
X44993Y-41722D01*
X44998Y-41742D01*
X45002Y-41758D01*
X45004Y-41768D01*
X45004Y-41770D01*
X45006Y-41783D01*
X45008Y-41793D01*
X45010Y-41800D01*
X45010Y-41801D01*
X45012Y-41798D01*
X45013Y-41789D01*
X45016Y-41775D01*
X45020Y-41755D01*
X45024Y-41730D01*
X45029Y-41698D01*
X45035Y-41661D01*
X45042Y-41618D01*
X45048Y-41578D01*
X45052Y-41548D01*
X45057Y-41519D01*
X45061Y-41493D01*
X45065Y-41470D01*
X45068Y-41451D01*
X45070Y-41436D01*
X45072Y-41426D01*
X45073Y-41422D01*
X45073Y-41422D01*
X45076Y-41420D01*
X45083Y-41419D01*
X45094Y-41418D01*
X45112Y-41418D01*
X45114Y-41418D01*
X45154Y-41418D01*
X45154Y-41418D01*
X45154Y-41418D01*
G37*
G36*
X46231Y-41938D02*
X46189Y-41938D01*
X46146Y-41938D01*
X46146Y-41786D01*
X46146Y-41635D01*
X46135Y-41616D01*
X46117Y-41588D01*
X46096Y-41562D01*
X46073Y-41540D01*
X46050Y-41520D01*
X46026Y-41504D01*
X46002Y-41493D01*
X45979Y-41486D01*
X45958Y-41484D01*
X45957Y-41484D01*
X45937Y-41489D01*
X45920Y-41500D01*
X45906Y-41515D01*
X45895Y-41533D01*
X45891Y-41548D01*
X45890Y-41556D01*
X45889Y-41569D01*
X45888Y-41588D01*
X45887Y-41613D01*
X45887Y-41644D01*
X45886Y-41681D01*
X45886Y-41723D01*
X45885Y-41751D01*
X45884Y-41938D01*
X45842Y-41938D01*
X45799Y-41938D01*
X45799Y-41765D01*
X45800Y-41719D01*
X45800Y-41678D01*
X45800Y-41643D01*
X45801Y-41612D01*
X45802Y-41586D01*
X45803Y-41564D01*
X45804Y-41545D01*
X45806Y-41529D01*
X45808Y-41515D01*
X45811Y-41504D01*
X45815Y-41494D01*
X45818Y-41484D01*
X45822Y-41477D01*
X45836Y-41456D01*
X45855Y-41438D01*
X45877Y-41423D01*
X45903Y-41413D01*
X45930Y-41406D01*
X45950Y-41405D01*
X45982Y-41408D01*
X46013Y-41417D01*
X46045Y-41432D01*
X46075Y-41452D01*
X46082Y-41458D01*
X46093Y-41467D01*
X46102Y-41477D01*
X46112Y-41487D01*
X46123Y-41501D01*
X46137Y-41518D01*
X46137Y-41519D01*
X46146Y-41529D01*
X46146Y-41474D01*
X46146Y-41418D01*
X46189Y-41418D01*
X46231Y-41418D01*
X46231Y-41678D01*
X46231Y-41938D01*
X46231Y-41938D01*
X46231Y-41938D01*
G37*
M02*
