G04 (created by PCBNEW (22-Jun-2014 BZR 4027)-stable) date Sun 08 Nov 2015 07:43:16 PM EET*
%MOIN*%
G04 Gerber Fmt 3.4, Leading zero omitted, Abs format*
%FSLAX34Y34*%
G01*
G70*
G90*
G04 APERTURE LIST*
%ADD10C,0.00590551*%
%ADD11C,0.011811*%
%ADD12C,0.0001*%
G04 APERTURE END LIST*
G54D10*
G54D11*
X46277Y-39460D02*
X46193Y-39489D01*
X46052Y-39489D01*
X45996Y-39460D01*
X45968Y-39432D01*
X45940Y-39376D01*
X45940Y-39320D01*
X45968Y-39264D01*
X45996Y-39235D01*
X46052Y-39207D01*
X46165Y-39179D01*
X46221Y-39151D01*
X46249Y-39123D01*
X46277Y-39067D01*
X46277Y-39010D01*
X46249Y-38954D01*
X46221Y-38926D01*
X46165Y-38898D01*
X46024Y-38898D01*
X45940Y-38926D01*
X45687Y-39489D02*
X45687Y-38898D01*
X45462Y-38898D01*
X45406Y-38926D01*
X45377Y-38954D01*
X45349Y-39010D01*
X45349Y-39095D01*
X45377Y-39151D01*
X45406Y-39179D01*
X45462Y-39207D01*
X45687Y-39207D01*
X45096Y-39489D02*
X45096Y-38898D01*
X44478Y-39489D02*
X44674Y-39207D01*
X44815Y-39489D02*
X44815Y-38898D01*
X44590Y-38898D01*
X44534Y-38926D01*
X44506Y-38954D01*
X44478Y-39010D01*
X44478Y-39095D01*
X44506Y-39151D01*
X44534Y-39179D01*
X44590Y-39207D01*
X44815Y-39207D01*
X44224Y-39489D02*
X44224Y-38898D01*
X44028Y-38898D02*
X43690Y-38898D01*
X43859Y-39489D02*
X43859Y-38898D01*
X43184Y-39489D02*
X43521Y-39489D01*
X43353Y-39489D02*
X43353Y-38898D01*
X43409Y-38982D01*
X43465Y-39039D01*
X43521Y-39067D01*
X42537Y-39095D02*
X42397Y-39489D01*
X42256Y-39095D01*
X41722Y-39489D02*
X42059Y-39489D01*
X41890Y-39489D02*
X41890Y-38898D01*
X41947Y-38982D01*
X42003Y-39039D01*
X42059Y-39067D01*
G54D12*
G36*
X41938Y-42122D02*
X41936Y-42129D01*
X41932Y-42141D01*
X41926Y-42158D01*
X41917Y-42177D01*
X41907Y-42199D01*
X41895Y-42224D01*
X41882Y-42249D01*
X41869Y-42275D01*
X41855Y-42302D01*
X41841Y-42327D01*
X41828Y-42351D01*
X41817Y-42369D01*
X41803Y-42393D01*
X41788Y-42417D01*
X41772Y-42441D01*
X41756Y-42465D01*
X41741Y-42486D01*
X41727Y-42506D01*
X41715Y-42522D01*
X41705Y-42535D01*
X41698Y-42542D01*
X41687Y-42549D01*
X41675Y-42550D01*
X41666Y-42548D01*
X41659Y-42543D01*
X41653Y-42536D01*
X41649Y-42528D01*
X41649Y-42519D01*
X41652Y-42509D01*
X41660Y-42495D01*
X41671Y-42480D01*
X41709Y-42426D01*
X41747Y-42368D01*
X41783Y-42307D01*
X41817Y-42244D01*
X41848Y-42181D01*
X41861Y-42154D01*
X41868Y-42137D01*
X41875Y-42123D01*
X41881Y-42111D01*
X41886Y-42102D01*
X41888Y-42100D01*
X41898Y-42093D01*
X41909Y-42091D01*
X41920Y-42093D01*
X41930Y-42100D01*
X41936Y-42111D01*
X41938Y-42122D01*
X41938Y-42122D01*
X41938Y-42122D01*
G37*
G36*
X42069Y-42163D02*
X42068Y-42170D01*
X42067Y-42176D01*
X42064Y-42186D01*
X42059Y-42201D01*
X42054Y-42220D01*
X42047Y-42242D01*
X42039Y-42267D01*
X42031Y-42294D01*
X42023Y-42321D01*
X42015Y-42349D01*
X42006Y-42377D01*
X41998Y-42403D01*
X41990Y-42428D01*
X41983Y-42451D01*
X41977Y-42470D01*
X41973Y-42485D01*
X41969Y-42496D01*
X41967Y-42501D01*
X41961Y-42514D01*
X41951Y-42522D01*
X41939Y-42524D01*
X41937Y-42524D01*
X41925Y-42522D01*
X41917Y-42517D01*
X41911Y-42507D01*
X41909Y-42497D01*
X41910Y-42492D01*
X41913Y-42482D01*
X41917Y-42467D01*
X41922Y-42449D01*
X41929Y-42427D01*
X41936Y-42402D01*
X41944Y-42375D01*
X41952Y-42348D01*
X41960Y-42319D01*
X41969Y-42291D01*
X41977Y-42264D01*
X41985Y-42238D01*
X41992Y-42214D01*
X41999Y-42194D01*
X42005Y-42177D01*
X42009Y-42164D01*
X42012Y-42156D01*
X42012Y-42155D01*
X42020Y-42144D01*
X42030Y-42138D01*
X42042Y-42137D01*
X42053Y-42140D01*
X42063Y-42149D01*
X42067Y-42155D01*
X42069Y-42163D01*
X42069Y-42163D01*
X42069Y-42163D01*
G37*
G36*
X42207Y-42188D02*
X42206Y-42197D01*
X42205Y-42210D01*
X42204Y-42227D01*
X42202Y-42249D01*
X42199Y-42275D01*
X42196Y-42301D01*
X42193Y-42329D01*
X42191Y-42355D01*
X42188Y-42378D01*
X42186Y-42399D01*
X42184Y-42416D01*
X42183Y-42428D01*
X42182Y-42435D01*
X42182Y-42436D01*
X42178Y-42445D01*
X42172Y-42454D01*
X42171Y-42455D01*
X42160Y-42463D01*
X42149Y-42464D01*
X42137Y-42459D01*
X42133Y-42456D01*
X42130Y-42453D01*
X42128Y-42450D01*
X42126Y-42447D01*
X42124Y-42442D01*
X42124Y-42436D01*
X42124Y-42428D01*
X42124Y-42416D01*
X42125Y-42402D01*
X42127Y-42383D01*
X42129Y-42360D01*
X42132Y-42331D01*
X42135Y-42298D01*
X42136Y-42291D01*
X42140Y-42257D01*
X42143Y-42229D01*
X42146Y-42206D01*
X42148Y-42188D01*
X42150Y-42175D01*
X42152Y-42167D01*
X42154Y-42163D01*
X42154Y-42163D01*
X42163Y-42154D01*
X42174Y-42150D01*
X42186Y-42151D01*
X42196Y-42157D01*
X42203Y-42165D01*
X42205Y-42168D01*
X42206Y-42171D01*
X42206Y-42175D01*
X42207Y-42180D01*
X42207Y-42188D01*
X42207Y-42188D01*
X42207Y-42188D01*
G37*
G36*
X42394Y-42377D02*
X42393Y-42381D01*
X42388Y-42392D01*
X42380Y-42400D01*
X42368Y-42404D01*
X42357Y-42404D01*
X42348Y-42400D01*
X42341Y-42392D01*
X42332Y-42378D01*
X42323Y-42360D01*
X42315Y-42338D01*
X42308Y-42313D01*
X42307Y-42310D01*
X42302Y-42291D01*
X42298Y-42269D01*
X42294Y-42244D01*
X42291Y-42220D01*
X42289Y-42197D01*
X42288Y-42179D01*
X42288Y-42175D01*
X42288Y-42162D01*
X42289Y-42153D01*
X42290Y-42148D01*
X42294Y-42143D01*
X42297Y-42140D01*
X42308Y-42132D01*
X42320Y-42130D01*
X42333Y-42135D01*
X42337Y-42138D01*
X42341Y-42141D01*
X42343Y-42146D01*
X42345Y-42152D01*
X42346Y-42162D01*
X42348Y-42177D01*
X42348Y-42178D01*
X42352Y-42222D01*
X42358Y-42260D01*
X42365Y-42293D01*
X42374Y-42322D01*
X42384Y-42347D01*
X42390Y-42360D01*
X42393Y-42370D01*
X42394Y-42377D01*
X42394Y-42377D01*
X42394Y-42377D01*
G37*
G36*
X43652Y-40532D02*
X43652Y-40535D01*
X43649Y-40537D01*
X43643Y-40538D01*
X43633Y-40539D01*
X43622Y-40540D01*
X43591Y-40542D01*
X43563Y-40545D01*
X43537Y-40549D01*
X43511Y-40554D01*
X43484Y-40560D01*
X43454Y-40568D01*
X43420Y-40577D01*
X43400Y-40583D01*
X43362Y-40596D01*
X43321Y-40611D01*
X43279Y-40628D01*
X43238Y-40647D01*
X43198Y-40667D01*
X43161Y-40687D01*
X43127Y-40707D01*
X43098Y-40726D01*
X43096Y-40728D01*
X43089Y-40734D01*
X43079Y-40745D01*
X43068Y-40759D01*
X43055Y-40777D01*
X43041Y-40796D01*
X43028Y-40815D01*
X43020Y-40826D01*
X43020Y-40679D01*
X42990Y-40667D01*
X42964Y-40658D01*
X42933Y-40648D01*
X42900Y-40638D01*
X42866Y-40628D01*
X42832Y-40620D01*
X42801Y-40613D01*
X42773Y-40607D01*
X42765Y-40606D01*
X42746Y-40604D01*
X42723Y-40602D01*
X42699Y-40601D01*
X42673Y-40601D01*
X42649Y-40601D01*
X42626Y-40602D01*
X42608Y-40604D01*
X42597Y-40606D01*
X42575Y-40612D01*
X42554Y-40621D01*
X42535Y-40631D01*
X42521Y-40643D01*
X42509Y-40658D01*
X42501Y-40680D01*
X42497Y-40698D01*
X42495Y-40711D01*
X42513Y-40720D01*
X42521Y-40724D01*
X42528Y-40726D01*
X42535Y-40727D01*
X42544Y-40728D01*
X42557Y-40727D01*
X42566Y-40727D01*
X42584Y-40725D01*
X42604Y-40723D01*
X42621Y-40721D01*
X42629Y-40720D01*
X42642Y-40718D01*
X42652Y-40717D01*
X42658Y-40716D01*
X42659Y-40717D01*
X42658Y-40718D01*
X42657Y-40718D01*
X42653Y-40721D01*
X42649Y-40728D01*
X42645Y-40736D01*
X42644Y-40743D01*
X42644Y-40743D01*
X42647Y-40752D01*
X42654Y-40760D01*
X42664Y-40768D01*
X42671Y-40771D01*
X42686Y-40774D01*
X42705Y-40774D01*
X42725Y-40772D01*
X42744Y-40767D01*
X42749Y-40765D01*
X42760Y-40759D01*
X42767Y-40753D01*
X42771Y-40746D01*
X42771Y-40745D01*
X42774Y-40734D01*
X42771Y-40723D01*
X42763Y-40714D01*
X42760Y-40711D01*
X42749Y-40703D01*
X42774Y-40703D01*
X42788Y-40702D01*
X42806Y-40701D01*
X42829Y-40700D01*
X42855Y-40697D01*
X42882Y-40695D01*
X42910Y-40692D01*
X42937Y-40690D01*
X42962Y-40687D01*
X42985Y-40684D01*
X43004Y-40681D01*
X43005Y-40681D01*
X43020Y-40679D01*
X43020Y-40826D01*
X43014Y-40835D01*
X43002Y-40853D01*
X42992Y-40870D01*
X42985Y-40884D01*
X42985Y-40884D01*
X42967Y-40920D01*
X42952Y-40956D01*
X42937Y-40992D01*
X42924Y-41029D01*
X42912Y-41068D01*
X42901Y-41109D01*
X42890Y-41154D01*
X42880Y-41202D01*
X42870Y-41255D01*
X42860Y-41312D01*
X42852Y-41363D01*
X42845Y-41405D01*
X42839Y-41441D01*
X42833Y-41473D01*
X42827Y-41500D01*
X42822Y-41526D01*
X42816Y-41549D01*
X42809Y-41570D01*
X42802Y-41592D01*
X42794Y-41613D01*
X42790Y-41623D01*
X42770Y-41671D01*
X42750Y-41715D01*
X42729Y-41755D01*
X42707Y-41791D01*
X42682Y-41826D01*
X42655Y-41859D01*
X42624Y-41893D01*
X42594Y-41923D01*
X42552Y-41961D01*
X42511Y-41993D01*
X42469Y-42021D01*
X42425Y-42045D01*
X42396Y-42059D01*
X42371Y-42070D01*
X42349Y-42078D01*
X42328Y-42085D01*
X42308Y-42090D01*
X42286Y-42094D01*
X42261Y-42097D01*
X42232Y-42100D01*
X42188Y-42103D01*
X42150Y-42105D01*
X42116Y-42104D01*
X42089Y-42101D01*
X42086Y-42100D01*
X42067Y-42097D01*
X42047Y-42092D01*
X42027Y-42087D01*
X42008Y-42082D01*
X41992Y-42076D01*
X41979Y-42072D01*
X41974Y-42069D01*
X41965Y-42062D01*
X41954Y-42053D01*
X41947Y-42047D01*
X41933Y-42032D01*
X41932Y-41999D01*
X41932Y-41947D01*
X41937Y-41892D01*
X41945Y-41834D01*
X41956Y-41774D01*
X41971Y-41713D01*
X41989Y-41653D01*
X42009Y-41593D01*
X42032Y-41535D01*
X42040Y-41518D01*
X42048Y-41500D01*
X42007Y-41475D01*
X41993Y-41466D01*
X41981Y-41459D01*
X41971Y-41453D01*
X41966Y-41450D01*
X41965Y-41450D01*
X41963Y-41452D01*
X41958Y-41459D01*
X41951Y-41471D01*
X41942Y-41486D01*
X41931Y-41503D01*
X41919Y-41523D01*
X41912Y-41534D01*
X41899Y-41555D01*
X41887Y-41575D01*
X41875Y-41593D01*
X41865Y-41608D01*
X41857Y-41620D01*
X41852Y-41627D01*
X41851Y-41628D01*
X41840Y-41637D01*
X41828Y-41639D01*
X41817Y-41634D01*
X41811Y-41630D01*
X41807Y-41625D01*
X41803Y-41621D01*
X41802Y-41616D01*
X41802Y-41610D01*
X41803Y-41602D01*
X41807Y-41593D01*
X41814Y-41580D01*
X41823Y-41564D01*
X41835Y-41544D01*
X41850Y-41519D01*
X41857Y-41507D01*
X41870Y-41486D01*
X41882Y-41466D01*
X41893Y-41449D01*
X41901Y-41435D01*
X41907Y-41424D01*
X41911Y-41418D01*
X41912Y-41417D01*
X41905Y-41412D01*
X41895Y-41404D01*
X41883Y-41394D01*
X41871Y-41383D01*
X41860Y-41373D01*
X41854Y-41367D01*
X41845Y-41358D01*
X41838Y-41350D01*
X41833Y-41346D01*
X41832Y-41346D01*
X41829Y-41347D01*
X41822Y-41352D01*
X41810Y-41359D01*
X41795Y-41369D01*
X41777Y-41381D01*
X41757Y-41394D01*
X41737Y-41407D01*
X41711Y-41424D01*
X41689Y-41439D01*
X41671Y-41450D01*
X41657Y-41458D01*
X41646Y-41464D01*
X41637Y-41467D01*
X41631Y-41469D01*
X41625Y-41468D01*
X41621Y-41466D01*
X41616Y-41462D01*
X41613Y-41459D01*
X41605Y-41448D01*
X41604Y-41436D01*
X41609Y-41424D01*
X41609Y-41424D01*
X41613Y-41420D01*
X41622Y-41413D01*
X41634Y-41404D01*
X41650Y-41393D01*
X41668Y-41380D01*
X41689Y-41366D01*
X41706Y-41354D01*
X41798Y-41294D01*
X41774Y-41251D01*
X41765Y-41236D01*
X41758Y-41223D01*
X41752Y-41213D01*
X41749Y-41207D01*
X41748Y-41206D01*
X41745Y-41206D01*
X41736Y-41207D01*
X41722Y-41208D01*
X41703Y-41210D01*
X41681Y-41213D01*
X41655Y-41216D01*
X41626Y-41219D01*
X41596Y-41223D01*
X41580Y-41226D01*
X41548Y-41230D01*
X41517Y-41234D01*
X41489Y-41237D01*
X41464Y-41241D01*
X41442Y-41243D01*
X41424Y-41245D01*
X41411Y-41247D01*
X41403Y-41248D01*
X41402Y-41248D01*
X41389Y-41245D01*
X41380Y-41237D01*
X41375Y-41225D01*
X41375Y-41223D01*
X41375Y-41209D01*
X41381Y-41198D01*
X41392Y-41192D01*
X41396Y-41191D01*
X41406Y-41189D01*
X41420Y-41187D01*
X41439Y-41184D01*
X41461Y-41181D01*
X41485Y-41177D01*
X41512Y-41174D01*
X41539Y-41170D01*
X41567Y-41166D01*
X41594Y-41162D01*
X41621Y-41159D01*
X41645Y-41155D01*
X41667Y-41153D01*
X41686Y-41150D01*
X41700Y-41148D01*
X41710Y-41147D01*
X41714Y-41147D01*
X41716Y-41147D01*
X41717Y-41146D01*
X41716Y-41143D01*
X41715Y-41137D01*
X41711Y-41127D01*
X41706Y-41113D01*
X41703Y-41104D01*
X41692Y-41073D01*
X41364Y-41002D01*
X41319Y-40992D01*
X41276Y-40983D01*
X41235Y-40974D01*
X41196Y-40965D01*
X41161Y-40957D01*
X41129Y-40950D01*
X41100Y-40944D01*
X41075Y-40938D01*
X41055Y-40934D01*
X41040Y-40930D01*
X41031Y-40928D01*
X41027Y-40926D01*
X41017Y-40919D01*
X41012Y-40909D01*
X41011Y-40901D01*
X41014Y-40888D01*
X41022Y-40879D01*
X41033Y-40874D01*
X41041Y-40873D01*
X41046Y-40873D01*
X41056Y-40875D01*
X41072Y-40878D01*
X41093Y-40883D01*
X41118Y-40888D01*
X41147Y-40894D01*
X41180Y-40901D01*
X41216Y-40908D01*
X41254Y-40916D01*
X41295Y-40925D01*
X41337Y-40934D01*
X41364Y-40940D01*
X41407Y-40949D01*
X41449Y-40958D01*
X41488Y-40967D01*
X41525Y-40975D01*
X41558Y-40982D01*
X41588Y-40988D01*
X41615Y-40994D01*
X41637Y-40999D01*
X41655Y-41003D01*
X41667Y-41005D01*
X41674Y-41007D01*
X41675Y-41007D01*
X41675Y-41004D01*
X41674Y-40995D01*
X41673Y-40984D01*
X41671Y-40969D01*
X41671Y-40969D01*
X41668Y-40953D01*
X41666Y-40942D01*
X41664Y-40935D01*
X41662Y-40931D01*
X41659Y-40929D01*
X41654Y-40927D01*
X41645Y-40924D01*
X41631Y-40918D01*
X41613Y-40912D01*
X41593Y-40904D01*
X41570Y-40895D01*
X41555Y-40889D01*
X41497Y-40867D01*
X41435Y-40842D01*
X41369Y-40816D01*
X41300Y-40789D01*
X41229Y-40760D01*
X41157Y-40731D01*
X41085Y-40702D01*
X41014Y-40673D01*
X40945Y-40645D01*
X40937Y-40641D01*
X40902Y-40627D01*
X40867Y-40612D01*
X40832Y-40598D01*
X40799Y-40584D01*
X40769Y-40572D01*
X40741Y-40560D01*
X40717Y-40550D01*
X40697Y-40542D01*
X40682Y-40536D01*
X40680Y-40535D01*
X40661Y-40527D01*
X40644Y-40520D01*
X40629Y-40513D01*
X40618Y-40508D01*
X40612Y-40504D01*
X40611Y-40504D01*
X40604Y-40494D01*
X40602Y-40483D01*
X40604Y-40471D01*
X40610Y-40461D01*
X40619Y-40454D01*
X40620Y-40454D01*
X40624Y-40453D01*
X40628Y-40452D01*
X40632Y-40452D01*
X40637Y-40454D01*
X40645Y-40456D01*
X40655Y-40460D01*
X40669Y-40465D01*
X40687Y-40473D01*
X40710Y-40482D01*
X40718Y-40485D01*
X40797Y-40518D01*
X40874Y-40550D01*
X40949Y-40581D01*
X41022Y-40611D01*
X41093Y-40640D01*
X41161Y-40667D01*
X41226Y-40694D01*
X41289Y-40719D01*
X41347Y-40742D01*
X41403Y-40764D01*
X41454Y-40785D01*
X41502Y-40804D01*
X41545Y-40820D01*
X41584Y-40835D01*
X41618Y-40848D01*
X41647Y-40859D01*
X41671Y-40868D01*
X41690Y-40874D01*
X41701Y-40878D01*
X41722Y-40884D01*
X41748Y-40893D01*
X41778Y-40903D01*
X41809Y-40914D01*
X41842Y-40927D01*
X41876Y-40939D01*
X41908Y-40952D01*
X41938Y-40964D01*
X41966Y-40976D01*
X41966Y-40976D01*
X42003Y-40992D01*
X42041Y-41011D01*
X42080Y-41030D01*
X42119Y-41050D01*
X42156Y-41071D01*
X42192Y-41091D01*
X42225Y-41110D01*
X42254Y-41129D01*
X42278Y-41146D01*
X42291Y-41156D01*
X42310Y-41170D01*
X42342Y-41145D01*
X42358Y-41133D01*
X42370Y-41123D01*
X42379Y-41116D01*
X42385Y-41110D01*
X42389Y-41105D01*
X42393Y-41100D01*
X42395Y-41096D01*
X42400Y-41084D01*
X42405Y-41071D01*
X42409Y-41055D01*
X42413Y-41037D01*
X42416Y-41015D01*
X42419Y-40990D01*
X42421Y-40960D01*
X42424Y-40926D01*
X42426Y-40886D01*
X42428Y-40841D01*
X42428Y-40840D01*
X42430Y-40801D01*
X42431Y-40769D01*
X42433Y-40741D01*
X42435Y-40718D01*
X42437Y-40699D01*
X42439Y-40683D01*
X42442Y-40669D01*
X42444Y-40657D01*
X42448Y-40647D01*
X42448Y-40646D01*
X42461Y-40620D01*
X42480Y-40598D01*
X42503Y-40579D01*
X42532Y-40564D01*
X42565Y-40552D01*
X42603Y-40544D01*
X42620Y-40542D01*
X42643Y-40540D01*
X42670Y-40539D01*
X42700Y-40540D01*
X42730Y-40542D01*
X42759Y-40544D01*
X42776Y-40547D01*
X42803Y-40551D01*
X42834Y-40558D01*
X42867Y-40566D01*
X42902Y-40575D01*
X42937Y-40585D01*
X42969Y-40595D01*
X42998Y-40605D01*
X43010Y-40610D01*
X43023Y-40615D01*
X43034Y-40619D01*
X43042Y-40622D01*
X43045Y-40623D01*
X43049Y-40622D01*
X43059Y-40619D01*
X43071Y-40615D01*
X43086Y-40609D01*
X43090Y-40607D01*
X43129Y-40591D01*
X43169Y-40578D01*
X43209Y-40566D01*
X43250Y-40556D01*
X43294Y-40547D01*
X43341Y-40540D01*
X43392Y-40534D01*
X43447Y-40530D01*
X43507Y-40527D01*
X43534Y-40525D01*
X43565Y-40524D01*
X43590Y-40524D01*
X43610Y-40523D01*
X43625Y-40524D01*
X43637Y-40524D01*
X43644Y-40525D01*
X43649Y-40527D01*
X43652Y-40529D01*
X43652Y-40532D01*
X43652Y-40532D01*
X43652Y-40532D01*
G37*
G36*
X43485Y-42089D02*
X43441Y-42089D01*
X43397Y-42089D01*
X43397Y-41988D01*
X43397Y-41887D01*
X43397Y-41811D01*
X43397Y-41698D01*
X43397Y-41584D01*
X43377Y-41554D01*
X43355Y-41524D01*
X43333Y-41499D01*
X43309Y-41477D01*
X43286Y-41460D01*
X43263Y-41447D01*
X43240Y-41440D01*
X43219Y-41438D01*
X43216Y-41438D01*
X43195Y-41443D01*
X43177Y-41453D01*
X43161Y-41469D01*
X43148Y-41489D01*
X43138Y-41514D01*
X43131Y-41542D01*
X43127Y-41575D01*
X43127Y-41607D01*
X43130Y-41645D01*
X43137Y-41679D01*
X43147Y-41708D01*
X43162Y-41735D01*
X43180Y-41759D01*
X43190Y-41770D01*
X43210Y-41788D01*
X43230Y-41802D01*
X43250Y-41811D01*
X43267Y-41817D01*
X43282Y-41819D01*
X43301Y-41821D01*
X43323Y-41821D01*
X43345Y-41820D01*
X43366Y-41817D01*
X43369Y-41816D01*
X43397Y-41811D01*
X43397Y-41887D01*
X43388Y-41889D01*
X43378Y-41890D01*
X43363Y-41891D01*
X43344Y-41892D01*
X43324Y-41893D01*
X43304Y-41893D01*
X43284Y-41893D01*
X43267Y-41892D01*
X43254Y-41891D01*
X43250Y-41891D01*
X43213Y-41881D01*
X43178Y-41865D01*
X43147Y-41844D01*
X43118Y-41818D01*
X43093Y-41786D01*
X43071Y-41748D01*
X43068Y-41744D01*
X43053Y-41709D01*
X43043Y-41673D01*
X43036Y-41633D01*
X43033Y-41590D01*
X43033Y-41579D01*
X43034Y-41548D01*
X43036Y-41521D01*
X43041Y-41498D01*
X43047Y-41476D01*
X43057Y-41454D01*
X43058Y-41451D01*
X43067Y-41435D01*
X43075Y-41422D01*
X43085Y-41410D01*
X43095Y-41401D01*
X43118Y-41382D01*
X43141Y-41368D01*
X43164Y-41360D01*
X43190Y-41356D01*
X43191Y-41356D01*
X43214Y-41356D01*
X43235Y-41359D01*
X43256Y-41365D01*
X43280Y-41375D01*
X43287Y-41379D01*
X43321Y-41400D01*
X43352Y-41427D01*
X43377Y-41455D01*
X43397Y-41481D01*
X43398Y-41425D01*
X43399Y-41369D01*
X43442Y-41368D01*
X43485Y-41367D01*
X43485Y-41728D01*
X43485Y-42089D01*
X43485Y-42089D01*
X43485Y-42089D01*
G37*
G36*
X46902Y-41784D02*
X46901Y-41829D01*
X46900Y-41873D01*
X46867Y-41884D01*
X46836Y-41893D01*
X46809Y-41900D01*
X46782Y-41904D01*
X46754Y-41907D01*
X46730Y-41908D01*
X46711Y-41908D01*
X46692Y-41908D01*
X46675Y-41908D01*
X46662Y-41907D01*
X46659Y-41906D01*
X46619Y-41899D01*
X46583Y-41887D01*
X46551Y-41871D01*
X46524Y-41850D01*
X46501Y-41825D01*
X46483Y-41795D01*
X46482Y-41794D01*
X46473Y-41771D01*
X46467Y-41748D01*
X46464Y-41722D01*
X46464Y-41705D01*
X46466Y-41672D01*
X46474Y-41642D01*
X46487Y-41613D01*
X46507Y-41586D01*
X46517Y-41575D01*
X46525Y-41566D01*
X46534Y-41558D01*
X46543Y-41550D01*
X46555Y-41542D01*
X46570Y-41532D01*
X46587Y-41520D01*
X46609Y-41507D01*
X46635Y-41491D01*
X46642Y-41487D01*
X46676Y-41467D01*
X46704Y-41449D01*
X46728Y-41433D01*
X46748Y-41419D01*
X46764Y-41406D01*
X46776Y-41394D01*
X46785Y-41382D01*
X46792Y-41370D01*
X46796Y-41358D01*
X46798Y-41345D01*
X46799Y-41331D01*
X46799Y-41327D01*
X46798Y-41305D01*
X46793Y-41287D01*
X46785Y-41271D01*
X46771Y-41256D01*
X46750Y-41239D01*
X46724Y-41226D01*
X46695Y-41219D01*
X46662Y-41217D01*
X46648Y-41218D01*
X46603Y-41223D01*
X46561Y-41232D01*
X46541Y-41238D01*
X46529Y-41242D01*
X46519Y-41244D01*
X46513Y-41245D01*
X46512Y-41245D01*
X46512Y-41242D01*
X46511Y-41233D01*
X46511Y-41221D01*
X46511Y-41206D01*
X46511Y-41169D01*
X46520Y-41166D01*
X46539Y-41160D01*
X46563Y-41154D01*
X46591Y-41150D01*
X46620Y-41147D01*
X46649Y-41146D01*
X46676Y-41146D01*
X46697Y-41147D01*
X46732Y-41151D01*
X46762Y-41158D01*
X46787Y-41168D01*
X46810Y-41180D01*
X46831Y-41197D01*
X46841Y-41206D01*
X46862Y-41230D01*
X46877Y-41257D01*
X46888Y-41287D01*
X46893Y-41319D01*
X46893Y-41338D01*
X46890Y-41371D01*
X46882Y-41402D01*
X46867Y-41432D01*
X46846Y-41460D01*
X46836Y-41470D01*
X46825Y-41481D01*
X46814Y-41490D01*
X46802Y-41500D01*
X46788Y-41510D01*
X46771Y-41521D01*
X46750Y-41534D01*
X46724Y-41549D01*
X46720Y-41550D01*
X46685Y-41571D01*
X46654Y-41590D01*
X46629Y-41608D01*
X46608Y-41624D01*
X46591Y-41639D01*
X46578Y-41654D01*
X46569Y-41668D01*
X46562Y-41683D01*
X46558Y-41699D01*
X46556Y-41710D01*
X46557Y-41734D01*
X46563Y-41757D01*
X46574Y-41779D01*
X46589Y-41798D01*
X46591Y-41800D01*
X46606Y-41811D01*
X46626Y-41821D01*
X46649Y-41829D01*
X46674Y-41835D01*
X46698Y-41837D01*
X46702Y-41837D01*
X46730Y-41835D01*
X46762Y-41831D01*
X46795Y-41823D01*
X46830Y-41813D01*
X46863Y-41801D01*
X46873Y-41797D01*
X46902Y-41784D01*
X46902Y-41784D01*
X46902Y-41784D01*
G37*
G36*
X44073Y-41661D02*
X44072Y-41705D01*
X44066Y-41748D01*
X44065Y-41755D01*
X44061Y-41770D01*
X44057Y-41785D01*
X44052Y-41798D01*
X44052Y-41799D01*
X44036Y-41826D01*
X44017Y-41850D01*
X43993Y-41871D01*
X43979Y-41880D01*
X43979Y-41667D01*
X43978Y-41642D01*
X43976Y-41618D01*
X43973Y-41597D01*
X43971Y-41587D01*
X43962Y-41556D01*
X43950Y-41529D01*
X43934Y-41506D01*
X43917Y-41487D01*
X43893Y-41466D01*
X43869Y-41451D01*
X43843Y-41441D01*
X43814Y-41435D01*
X43782Y-41435D01*
X43778Y-41435D01*
X43762Y-41436D01*
X43746Y-41438D01*
X43733Y-41440D01*
X43728Y-41441D01*
X43711Y-41445D01*
X43710Y-41559D01*
X43709Y-41672D01*
X43729Y-41702D01*
X43742Y-41721D01*
X43759Y-41741D01*
X43777Y-41760D01*
X43794Y-41777D01*
X43811Y-41791D01*
X43814Y-41793D01*
X43839Y-41807D01*
X43863Y-41816D01*
X43885Y-41818D01*
X43906Y-41815D01*
X43919Y-41809D01*
X43938Y-41794D01*
X43954Y-41774D01*
X43966Y-41749D01*
X43973Y-41729D01*
X43976Y-41712D01*
X43978Y-41691D01*
X43979Y-41667D01*
X43979Y-41880D01*
X43967Y-41887D01*
X43962Y-41890D01*
X43952Y-41894D01*
X43943Y-41896D01*
X43931Y-41899D01*
X43916Y-41901D01*
X43911Y-41901D01*
X43903Y-41902D01*
X43892Y-41901D01*
X43885Y-41900D01*
X43856Y-41893D01*
X43827Y-41881D01*
X43798Y-41865D01*
X43771Y-41845D01*
X43746Y-41822D01*
X43726Y-41798D01*
X43723Y-41793D01*
X43717Y-41784D01*
X43712Y-41777D01*
X43709Y-41774D01*
X43709Y-41774D01*
X43708Y-41777D01*
X43706Y-41785D01*
X43705Y-41796D01*
X43705Y-41799D01*
X43703Y-41813D01*
X43701Y-41831D01*
X43699Y-41848D01*
X43698Y-41855D01*
X43692Y-41888D01*
X43647Y-41888D01*
X43629Y-41888D01*
X43617Y-41887D01*
X43609Y-41887D01*
X43605Y-41886D01*
X43603Y-41884D01*
X43603Y-41882D01*
X43603Y-41882D01*
X43606Y-41871D01*
X43609Y-41859D01*
X43612Y-41847D01*
X43614Y-41834D01*
X43616Y-41819D01*
X43617Y-41802D01*
X43618Y-41782D01*
X43619Y-41759D01*
X43620Y-41732D01*
X43620Y-41702D01*
X43621Y-41666D01*
X43621Y-41625D01*
X43621Y-41579D01*
X43621Y-41571D01*
X43621Y-41368D01*
X43693Y-41366D01*
X43729Y-41365D01*
X43761Y-41364D01*
X43787Y-41363D01*
X43809Y-41363D01*
X43827Y-41364D01*
X43843Y-41364D01*
X43855Y-41366D01*
X43866Y-41368D01*
X43876Y-41370D01*
X43877Y-41370D01*
X43901Y-41378D01*
X43922Y-41388D01*
X43943Y-41400D01*
X43957Y-41411D01*
X43985Y-41436D01*
X44010Y-41466D01*
X44031Y-41500D01*
X44048Y-41537D01*
X44061Y-41577D01*
X44069Y-41618D01*
X44073Y-41661D01*
X44073Y-41661D01*
X44073Y-41661D01*
G37*
G36*
X44615Y-41605D02*
X44614Y-41649D01*
X44613Y-41660D01*
X44606Y-41702D01*
X44594Y-41741D01*
X44576Y-41777D01*
X44553Y-41809D01*
X44531Y-41833D01*
X44500Y-41858D01*
X44466Y-41877D01*
X44429Y-41890D01*
X44389Y-41899D01*
X44345Y-41901D01*
X44312Y-41900D01*
X44264Y-41894D01*
X44214Y-41882D01*
X44208Y-41881D01*
X44183Y-41873D01*
X44182Y-41831D01*
X44182Y-41814D01*
X44182Y-41803D01*
X44183Y-41795D01*
X44184Y-41792D01*
X44185Y-41791D01*
X44187Y-41791D01*
X44197Y-41795D01*
X44212Y-41799D01*
X44229Y-41804D01*
X44247Y-41809D01*
X44263Y-41814D01*
X44277Y-41817D01*
X44285Y-41819D01*
X44301Y-41820D01*
X44321Y-41821D01*
X44342Y-41821D01*
X44364Y-41820D01*
X44383Y-41818D01*
X44399Y-41815D01*
X44406Y-41813D01*
X44433Y-41800D01*
X44457Y-41782D01*
X44477Y-41760D01*
X44494Y-41731D01*
X44499Y-41722D01*
X44509Y-41697D01*
X44516Y-41674D01*
X44519Y-41650D01*
X44520Y-41624D01*
X44518Y-41587D01*
X44510Y-41553D01*
X44498Y-41522D01*
X44482Y-41495D01*
X44462Y-41471D01*
X44438Y-41453D01*
X44410Y-41438D01*
X44391Y-41432D01*
X44374Y-41429D01*
X44353Y-41428D01*
X44330Y-41428D01*
X44307Y-41429D01*
X44287Y-41432D01*
X44287Y-41432D01*
X44274Y-41436D01*
X44257Y-41440D01*
X44239Y-41446D01*
X44228Y-41450D01*
X44213Y-41455D01*
X44201Y-41460D01*
X44192Y-41463D01*
X44187Y-41464D01*
X44185Y-41465D01*
X44184Y-41463D01*
X44182Y-41458D01*
X44182Y-41450D01*
X44182Y-41438D01*
X44182Y-41425D01*
X44182Y-41384D01*
X44205Y-41377D01*
X44242Y-41368D01*
X44279Y-41361D01*
X44315Y-41357D01*
X44350Y-41355D01*
X44382Y-41356D01*
X44405Y-41359D01*
X44442Y-41370D01*
X44476Y-41384D01*
X44507Y-41405D01*
X44529Y-41424D01*
X44558Y-41455D01*
X44580Y-41488D01*
X44597Y-41525D01*
X44609Y-41564D01*
X44615Y-41605D01*
X44615Y-41605D01*
X44615Y-41605D01*
G37*
G36*
X45790Y-41629D02*
X45790Y-41650D01*
X45790Y-41667D01*
X45789Y-41679D01*
X45788Y-41690D01*
X45785Y-41701D01*
X45783Y-41713D01*
X45782Y-41714D01*
X45769Y-41753D01*
X45751Y-41788D01*
X45729Y-41819D01*
X45703Y-41846D01*
X45698Y-41851D01*
X45696Y-41852D01*
X45696Y-41628D01*
X45696Y-41606D01*
X45696Y-41590D01*
X45695Y-41577D01*
X45694Y-41567D01*
X45692Y-41557D01*
X45689Y-41548D01*
X45689Y-41546D01*
X45677Y-41513D01*
X45661Y-41486D01*
X45642Y-41463D01*
X45619Y-41446D01*
X45607Y-41439D01*
X45596Y-41434D01*
X45585Y-41431D01*
X45574Y-41429D01*
X45559Y-41428D01*
X45556Y-41428D01*
X45526Y-41429D01*
X45500Y-41434D01*
X45476Y-41445D01*
X45456Y-41460D01*
X45445Y-41472D01*
X45428Y-41495D01*
X45414Y-41522D01*
X45405Y-41554D01*
X45399Y-41589D01*
X45397Y-41626D01*
X45398Y-41661D01*
X45404Y-41699D01*
X45414Y-41732D01*
X45428Y-41761D01*
X45445Y-41785D01*
X45466Y-41804D01*
X45489Y-41817D01*
X45512Y-41826D01*
X45536Y-41830D01*
X45562Y-41829D01*
X45572Y-41828D01*
X45600Y-41820D01*
X45624Y-41807D01*
X45646Y-41789D01*
X45664Y-41765D01*
X45674Y-41749D01*
X45681Y-41732D01*
X45687Y-41717D01*
X45691Y-41703D01*
X45694Y-41687D01*
X45695Y-41669D01*
X45696Y-41646D01*
X45696Y-41628D01*
X45696Y-41852D01*
X45672Y-41869D01*
X45641Y-41884D01*
X45607Y-41895D01*
X45571Y-41901D01*
X45534Y-41902D01*
X45516Y-41900D01*
X45479Y-41893D01*
X45445Y-41881D01*
X45413Y-41863D01*
X45385Y-41840D01*
X45360Y-41813D01*
X45340Y-41781D01*
X45323Y-41746D01*
X45311Y-41707D01*
X45310Y-41699D01*
X45307Y-41686D01*
X45305Y-41674D01*
X45304Y-41661D01*
X45304Y-41645D01*
X45304Y-41626D01*
X45305Y-41617D01*
X45306Y-41593D01*
X45307Y-41573D01*
X45309Y-41556D01*
X45313Y-41541D01*
X45318Y-41525D01*
X45324Y-41506D01*
X45325Y-41505D01*
X45338Y-41477D01*
X45356Y-41450D01*
X45377Y-41425D01*
X45400Y-41402D01*
X45424Y-41386D01*
X45448Y-41373D01*
X45472Y-41365D01*
X45499Y-41359D01*
X45529Y-41356D01*
X45536Y-41356D01*
X45572Y-41356D01*
X45604Y-41360D01*
X45633Y-41368D01*
X45660Y-41379D01*
X45675Y-41388D01*
X45704Y-41410D01*
X45729Y-41437D01*
X45751Y-41467D01*
X45768Y-41502D01*
X45782Y-41539D01*
X45784Y-41546D01*
X45786Y-41558D01*
X45788Y-41569D01*
X45789Y-41581D01*
X45790Y-41595D01*
X45790Y-41613D01*
X45790Y-41629D01*
X45790Y-41629D01*
X45790Y-41629D01*
G37*
G36*
X45254Y-41368D02*
X45252Y-41376D01*
X45251Y-41381D01*
X45250Y-41391D01*
X45247Y-41406D01*
X45244Y-41426D01*
X45240Y-41451D01*
X45235Y-41479D01*
X45230Y-41510D01*
X45225Y-41545D01*
X45219Y-41581D01*
X45212Y-41619D01*
X45211Y-41629D01*
X45204Y-41668D01*
X45199Y-41705D01*
X45193Y-41739D01*
X45188Y-41771D01*
X45183Y-41800D01*
X45179Y-41825D01*
X45175Y-41847D01*
X45173Y-41863D01*
X45171Y-41874D01*
X45170Y-41880D01*
X45170Y-41881D01*
X45169Y-41883D01*
X45167Y-41885D01*
X45163Y-41887D01*
X45156Y-41887D01*
X45145Y-41888D01*
X45129Y-41888D01*
X45126Y-41888D01*
X45084Y-41888D01*
X45041Y-41720D01*
X45033Y-41687D01*
X45025Y-41655D01*
X45017Y-41625D01*
X45010Y-41596D01*
X45004Y-41571D01*
X44998Y-41549D01*
X44994Y-41532D01*
X44992Y-41520D01*
X44991Y-41517D01*
X44988Y-41502D01*
X44985Y-41491D01*
X44984Y-41484D01*
X44982Y-41481D01*
X44981Y-41484D01*
X44979Y-41492D01*
X44976Y-41503D01*
X44973Y-41517D01*
X44971Y-41526D01*
X44967Y-41542D01*
X44962Y-41561D01*
X44955Y-41585D01*
X44947Y-41612D01*
X44939Y-41641D01*
X44930Y-41672D01*
X44920Y-41705D01*
X44916Y-41719D01*
X44866Y-41886D01*
X44826Y-41887D01*
X44785Y-41888D01*
X44743Y-41630D01*
X44737Y-41591D01*
X44731Y-41553D01*
X44725Y-41517D01*
X44720Y-41485D01*
X44715Y-41455D01*
X44711Y-41429D01*
X44708Y-41407D01*
X44705Y-41390D01*
X44703Y-41378D01*
X44702Y-41371D01*
X44702Y-41370D01*
X44705Y-41369D01*
X44712Y-41368D01*
X44723Y-41368D01*
X44735Y-41368D01*
X44748Y-41368D01*
X44758Y-41368D01*
X44765Y-41369D01*
X44768Y-41370D01*
X44768Y-41374D01*
X44770Y-41383D01*
X44772Y-41397D01*
X44775Y-41415D01*
X44778Y-41436D01*
X44782Y-41460D01*
X44785Y-41481D01*
X44790Y-41511D01*
X44795Y-41543D01*
X44800Y-41575D01*
X44805Y-41606D01*
X44809Y-41634D01*
X44813Y-41657D01*
X44814Y-41664D01*
X44817Y-41685D01*
X44820Y-41705D01*
X44823Y-41722D01*
X44825Y-41735D01*
X44826Y-41743D01*
X44827Y-41746D01*
X44828Y-41747D01*
X44830Y-41744D01*
X44832Y-41736D01*
X44836Y-41722D01*
X44838Y-41714D01*
X44840Y-41703D01*
X44845Y-41687D01*
X44850Y-41666D01*
X44857Y-41642D01*
X44865Y-41615D01*
X44873Y-41585D01*
X44882Y-41554D01*
X44892Y-41523D01*
X44892Y-41522D01*
X44937Y-41369D01*
X44976Y-41369D01*
X45015Y-41369D01*
X45057Y-41528D01*
X45065Y-41560D01*
X45073Y-41591D01*
X45081Y-41620D01*
X45087Y-41648D01*
X45093Y-41672D01*
X45098Y-41692D01*
X45102Y-41708D01*
X45104Y-41718D01*
X45104Y-41720D01*
X45106Y-41733D01*
X45108Y-41743D01*
X45110Y-41750D01*
X45110Y-41751D01*
X45112Y-41748D01*
X45113Y-41739D01*
X45116Y-41725D01*
X45120Y-41705D01*
X45124Y-41680D01*
X45129Y-41648D01*
X45135Y-41611D01*
X45142Y-41568D01*
X45148Y-41528D01*
X45152Y-41498D01*
X45157Y-41469D01*
X45161Y-41443D01*
X45165Y-41420D01*
X45168Y-41401D01*
X45170Y-41386D01*
X45172Y-41376D01*
X45173Y-41372D01*
X45173Y-41372D01*
X45176Y-41370D01*
X45183Y-41369D01*
X45194Y-41368D01*
X45212Y-41368D01*
X45214Y-41368D01*
X45254Y-41368D01*
X45254Y-41368D01*
X45254Y-41368D01*
G37*
G36*
X46331Y-41888D02*
X46289Y-41888D01*
X46246Y-41888D01*
X46246Y-41736D01*
X46246Y-41585D01*
X46235Y-41566D01*
X46217Y-41538D01*
X46196Y-41512D01*
X46173Y-41490D01*
X46150Y-41470D01*
X46126Y-41454D01*
X46102Y-41443D01*
X46079Y-41436D01*
X46058Y-41434D01*
X46057Y-41434D01*
X46037Y-41439D01*
X46020Y-41450D01*
X46006Y-41465D01*
X45995Y-41483D01*
X45991Y-41498D01*
X45990Y-41506D01*
X45989Y-41519D01*
X45988Y-41538D01*
X45987Y-41563D01*
X45987Y-41594D01*
X45986Y-41631D01*
X45986Y-41673D01*
X45985Y-41701D01*
X45984Y-41888D01*
X45942Y-41888D01*
X45899Y-41888D01*
X45899Y-41715D01*
X45900Y-41669D01*
X45900Y-41628D01*
X45900Y-41593D01*
X45901Y-41562D01*
X45902Y-41536D01*
X45903Y-41514D01*
X45904Y-41495D01*
X45906Y-41479D01*
X45908Y-41465D01*
X45911Y-41454D01*
X45915Y-41444D01*
X45918Y-41434D01*
X45922Y-41427D01*
X45936Y-41406D01*
X45955Y-41388D01*
X45977Y-41373D01*
X46003Y-41363D01*
X46030Y-41356D01*
X46050Y-41355D01*
X46082Y-41358D01*
X46113Y-41367D01*
X46145Y-41382D01*
X46175Y-41402D01*
X46182Y-41408D01*
X46193Y-41417D01*
X46202Y-41427D01*
X46212Y-41437D01*
X46223Y-41451D01*
X46237Y-41468D01*
X46237Y-41469D01*
X46246Y-41479D01*
X46246Y-41424D01*
X46246Y-41368D01*
X46289Y-41368D01*
X46331Y-41368D01*
X46331Y-41628D01*
X46331Y-41888D01*
X46331Y-41888D01*
X46331Y-41888D01*
G37*
M02*
