G04 (created by PCBNEW (2013-jul-07)-stable) date Thu 18 Dec 2014 01:29:44 PM EET*
%MOIN*%
G04 Gerber Fmt 3.4, Leading zero omitted, Abs format*
%FSLAX34Y34*%
G01*
G70*
G90*
G04 APERTURE LIST*
%ADD10C,0.00590551*%
%ADD11C,0.008*%
%ADD12C,0.012*%
%ADD13C,0.0001*%
%ADD14C,0.00787402*%
G04 APERTURE END LIST*
G54D10*
X87462Y-55704D02*
X87462Y-55809D01*
X87627Y-55809D02*
X87312Y-55809D01*
X87312Y-55659D01*
X87627Y-55494D02*
X87612Y-55524D01*
X87582Y-55539D01*
X87312Y-55539D01*
X87627Y-55239D02*
X87462Y-55239D01*
X87432Y-55254D01*
X87417Y-55284D01*
X87417Y-55344D01*
X87432Y-55374D01*
X87612Y-55239D02*
X87627Y-55269D01*
X87627Y-55344D01*
X87612Y-55374D01*
X87582Y-55389D01*
X87552Y-55389D01*
X87522Y-55374D01*
X87507Y-55344D01*
X87507Y-55269D01*
X87492Y-55239D01*
X87612Y-55104D02*
X87627Y-55074D01*
X87627Y-55014D01*
X87612Y-54984D01*
X87582Y-54969D01*
X87567Y-54969D01*
X87537Y-54984D01*
X87522Y-55014D01*
X87522Y-55059D01*
X87507Y-55089D01*
X87477Y-55104D01*
X87462Y-55104D01*
X87432Y-55089D01*
X87417Y-55059D01*
X87417Y-55014D01*
X87432Y-54984D01*
X87627Y-54834D02*
X87312Y-54834D01*
X87627Y-54700D02*
X87462Y-54700D01*
X87432Y-54714D01*
X87417Y-54744D01*
X87417Y-54789D01*
X87432Y-54819D01*
X87447Y-54834D01*
X87612Y-54565D02*
X87627Y-54535D01*
X87627Y-54475D01*
X87612Y-54445D01*
X87582Y-54430D01*
X87567Y-54430D01*
X87537Y-54445D01*
X87522Y-54475D01*
X87522Y-54520D01*
X87507Y-54550D01*
X87477Y-54565D01*
X87462Y-54565D01*
X87432Y-54550D01*
X87417Y-54520D01*
X87417Y-54475D01*
X87432Y-54445D01*
X87417Y-54295D02*
X87627Y-54295D01*
X87447Y-54295D02*
X87432Y-54280D01*
X87417Y-54250D01*
X87417Y-54205D01*
X87432Y-54175D01*
X87462Y-54160D01*
X87627Y-54160D01*
X87627Y-53875D02*
X87462Y-53875D01*
X87432Y-53890D01*
X87417Y-53920D01*
X87417Y-53980D01*
X87432Y-54010D01*
X87612Y-53875D02*
X87627Y-53905D01*
X87627Y-53980D01*
X87612Y-54010D01*
X87582Y-54025D01*
X87552Y-54025D01*
X87522Y-54010D01*
X87507Y-53980D01*
X87507Y-53905D01*
X87492Y-53875D01*
X87417Y-53725D02*
X87732Y-53725D01*
X87432Y-53725D02*
X87417Y-53695D01*
X87417Y-53635D01*
X87432Y-53605D01*
X87447Y-53590D01*
X87477Y-53575D01*
X87567Y-53575D01*
X87597Y-53590D01*
X87612Y-53605D01*
X87627Y-53635D01*
X87627Y-53695D01*
X87612Y-53725D01*
X88097Y-55967D02*
X88112Y-55982D01*
X88127Y-56027D01*
X88127Y-56057D01*
X88112Y-56102D01*
X88082Y-56132D01*
X88052Y-56147D01*
X87992Y-56162D01*
X87947Y-56162D01*
X87887Y-56147D01*
X87857Y-56132D01*
X87827Y-56102D01*
X87812Y-56057D01*
X87812Y-56027D01*
X87827Y-55982D01*
X87842Y-55967D01*
X88007Y-55832D02*
X88007Y-55592D01*
X87917Y-55487D02*
X87917Y-55367D01*
X87812Y-55442D02*
X88082Y-55442D01*
X88112Y-55427D01*
X88127Y-55397D01*
X88127Y-55367D01*
X88127Y-55262D02*
X87917Y-55262D01*
X87977Y-55262D02*
X87947Y-55247D01*
X87932Y-55232D01*
X87917Y-55202D01*
X87917Y-55172D01*
X88127Y-55067D02*
X87917Y-55067D01*
X87812Y-55067D02*
X87827Y-55082D01*
X87842Y-55067D01*
X87827Y-55052D01*
X87812Y-55067D01*
X87842Y-55067D01*
X87917Y-54782D02*
X88172Y-54782D01*
X88202Y-54797D01*
X88217Y-54812D01*
X88232Y-54842D01*
X88232Y-54887D01*
X88217Y-54917D01*
X88112Y-54782D02*
X88127Y-54812D01*
X88127Y-54872D01*
X88112Y-54902D01*
X88097Y-54917D01*
X88067Y-54932D01*
X87977Y-54932D01*
X87947Y-54917D01*
X87932Y-54902D01*
X87917Y-54872D01*
X87917Y-54812D01*
X87932Y-54782D01*
X87917Y-54497D02*
X88172Y-54497D01*
X88202Y-54512D01*
X88217Y-54527D01*
X88232Y-54557D01*
X88232Y-54602D01*
X88217Y-54632D01*
X88112Y-54497D02*
X88127Y-54527D01*
X88127Y-54587D01*
X88112Y-54617D01*
X88097Y-54632D01*
X88067Y-54647D01*
X87977Y-54647D01*
X87947Y-54632D01*
X87932Y-54617D01*
X87917Y-54587D01*
X87917Y-54527D01*
X87932Y-54497D01*
X88112Y-54227D02*
X88127Y-54257D01*
X88127Y-54317D01*
X88112Y-54347D01*
X88082Y-54362D01*
X87962Y-54362D01*
X87932Y-54347D01*
X87917Y-54317D01*
X87917Y-54257D01*
X87932Y-54227D01*
X87962Y-54212D01*
X87992Y-54212D01*
X88022Y-54362D01*
X88127Y-54077D02*
X87917Y-54077D01*
X87977Y-54077D02*
X87947Y-54062D01*
X87932Y-54047D01*
X87917Y-54017D01*
X87917Y-53987D01*
X87917Y-53672D02*
X88127Y-53597D01*
X87917Y-53522D01*
X88127Y-53237D02*
X88127Y-53417D01*
X88127Y-53327D02*
X87812Y-53327D01*
X87857Y-53357D01*
X87887Y-53387D01*
X87902Y-53417D01*
X84515Y-56468D02*
X84515Y-52531D01*
X86090Y-52531D02*
X86090Y-51940D01*
X86090Y-51940D02*
X84948Y-51940D01*
X84515Y-52531D02*
X84948Y-52531D01*
X84948Y-52531D02*
X84948Y-51940D01*
X86484Y-56468D02*
X86484Y-52531D01*
X86484Y-52531D02*
X86090Y-52531D01*
X86484Y-56468D02*
X84515Y-56468D01*
X81500Y-56300D02*
X81500Y-55400D01*
X81500Y-55400D02*
X81000Y-54900D01*
X81000Y-54900D02*
X80400Y-54500D01*
X80400Y-54500D02*
X79600Y-54500D01*
X79600Y-54500D02*
X79000Y-54900D01*
X79000Y-54900D02*
X78500Y-55400D01*
X78500Y-55400D02*
X78500Y-56300D01*
X78500Y-56300D02*
X78700Y-56500D01*
X78700Y-56500D02*
X80000Y-56500D01*
X80000Y-56500D02*
X81300Y-56500D01*
X81300Y-56500D02*
X81500Y-56300D01*
X92500Y-56300D02*
X92500Y-55400D01*
X92500Y-55400D02*
X92000Y-54900D01*
X92000Y-54900D02*
X91400Y-54500D01*
X91400Y-54500D02*
X90600Y-54500D01*
X90600Y-54500D02*
X90000Y-54900D01*
X90000Y-54900D02*
X89500Y-55400D01*
X89500Y-55400D02*
X89500Y-56300D01*
X89500Y-56300D02*
X89700Y-56500D01*
X89700Y-56500D02*
X91000Y-56500D01*
X91000Y-56500D02*
X92300Y-56500D01*
X92300Y-56500D02*
X92500Y-56300D01*
G54D11*
X92500Y-53500D02*
X92300Y-53500D01*
X89500Y-53500D02*
X89700Y-53500D01*
X89700Y-53500D02*
X89700Y-53900D01*
X89700Y-53900D02*
X92300Y-53900D01*
X92300Y-53900D02*
X92300Y-53100D01*
X92300Y-53100D02*
X89700Y-53100D01*
X89700Y-53100D02*
X89700Y-53500D01*
X92300Y-53700D02*
X92100Y-53900D01*
X81500Y-53500D02*
X81300Y-53500D01*
X78500Y-53500D02*
X78700Y-53500D01*
X78700Y-53500D02*
X78700Y-53900D01*
X78700Y-53900D02*
X81300Y-53900D01*
X81300Y-53900D02*
X81300Y-53100D01*
X81300Y-53100D02*
X78700Y-53100D01*
X78700Y-53100D02*
X78700Y-53500D01*
X81300Y-53700D02*
X81100Y-53900D01*
G54D12*
X76500Y-57000D02*
X76500Y-57000D01*
X77500Y-57000D02*
X76500Y-57000D01*
X76500Y-57000D02*
X76500Y-57000D01*
X76500Y-57000D02*
X76500Y-53000D01*
X76500Y-53000D02*
X77500Y-53000D01*
X77500Y-53000D02*
X77500Y-57000D01*
X77500Y-56000D02*
X76500Y-56000D01*
X93500Y-57000D02*
X93500Y-57000D01*
X94500Y-57000D02*
X93500Y-57000D01*
X93500Y-57000D02*
X93500Y-57000D01*
X93500Y-57000D02*
X93500Y-53000D01*
X93500Y-53000D02*
X94500Y-53000D01*
X94500Y-53000D02*
X94500Y-57000D01*
X94500Y-56000D02*
X93500Y-56000D01*
G54D13*
G36*
X83513Y-53849D02*
X83517Y-53850D01*
X83520Y-53853D01*
X83524Y-53857D01*
X83526Y-53862D01*
X83525Y-53866D01*
X83525Y-53869D01*
X83523Y-53872D01*
X83520Y-53875D01*
X83515Y-53879D01*
X83509Y-53884D01*
X83501Y-53890D01*
X83463Y-53916D01*
X83423Y-53940D01*
X83381Y-53963D01*
X83342Y-53982D01*
X83331Y-53986D01*
X83324Y-53990D01*
X83318Y-53992D01*
X83313Y-53993D01*
X83310Y-53993D01*
X83307Y-53993D01*
X83304Y-53992D01*
X83304Y-53992D01*
X83300Y-53989D01*
X83297Y-53984D01*
X83296Y-53979D01*
X83296Y-53976D01*
X83297Y-53973D01*
X83299Y-53970D01*
X83302Y-53967D01*
X83307Y-53964D01*
X83314Y-53961D01*
X83324Y-53956D01*
X83327Y-53955D01*
X83355Y-53942D01*
X83383Y-53928D01*
X83411Y-53912D01*
X83438Y-53896D01*
X83463Y-53879D01*
X83486Y-53863D01*
X83489Y-53861D01*
X83497Y-53855D01*
X83504Y-53851D01*
X83509Y-53849D01*
X83513Y-53849D01*
X83513Y-53849D01*
X83513Y-53849D01*
G37*
G36*
X83499Y-53979D02*
X83505Y-53981D01*
X83509Y-53984D01*
X83512Y-53990D01*
X83513Y-53995D01*
X83511Y-54001D01*
X83510Y-54003D01*
X83507Y-54005D01*
X83503Y-54008D01*
X83501Y-54008D01*
X83498Y-54009D01*
X83493Y-54011D01*
X83485Y-54014D01*
X83475Y-54017D01*
X83464Y-54020D01*
X83452Y-54024D01*
X83438Y-54028D01*
X83425Y-54032D01*
X83411Y-54036D01*
X83397Y-54041D01*
X83384Y-54045D01*
X83371Y-54048D01*
X83360Y-54052D01*
X83351Y-54054D01*
X83343Y-54057D01*
X83338Y-54058D01*
X83335Y-54059D01*
X83331Y-54059D01*
X83328Y-54058D01*
X83322Y-54054D01*
X83319Y-54048D01*
X83319Y-54043D01*
X83320Y-54037D01*
X83325Y-54033D01*
X83328Y-54031D01*
X83331Y-54029D01*
X83337Y-54027D01*
X83345Y-54025D01*
X83355Y-54022D01*
X83367Y-54018D01*
X83380Y-54014D01*
X83393Y-54010D01*
X83407Y-54006D01*
X83421Y-54001D01*
X83435Y-53997D01*
X83449Y-53993D01*
X83461Y-53990D01*
X83473Y-53986D01*
X83482Y-53984D01*
X83490Y-53982D01*
X83496Y-53980D01*
X83499Y-53979D01*
X83499Y-53979D01*
X83499Y-53979D01*
X83499Y-53979D01*
G37*
G36*
X83463Y-54087D02*
X83468Y-54087D01*
X83471Y-54087D01*
X83473Y-54088D01*
X83475Y-54088D01*
X83476Y-54089D01*
X83478Y-54091D01*
X83478Y-54091D01*
X83482Y-54097D01*
X83482Y-54103D01*
X83480Y-54108D01*
X83478Y-54110D01*
X83474Y-54114D01*
X83469Y-54116D01*
X83468Y-54116D01*
X83465Y-54116D01*
X83460Y-54117D01*
X83452Y-54118D01*
X83442Y-54119D01*
X83431Y-54120D01*
X83418Y-54121D01*
X83404Y-54123D01*
X83401Y-54123D01*
X83385Y-54125D01*
X83372Y-54126D01*
X83362Y-54127D01*
X83354Y-54127D01*
X83348Y-54128D01*
X83343Y-54128D01*
X83340Y-54128D01*
X83337Y-54128D01*
X83336Y-54128D01*
X83334Y-54127D01*
X83333Y-54126D01*
X83328Y-54122D01*
X83325Y-54117D01*
X83325Y-54111D01*
X83328Y-54106D01*
X83332Y-54102D01*
X83334Y-54101D01*
X83338Y-54100D01*
X83344Y-54099D01*
X83353Y-54098D01*
X83365Y-54096D01*
X83379Y-54095D01*
X83396Y-54093D01*
X83396Y-54093D01*
X83413Y-54091D01*
X83428Y-54089D01*
X83440Y-54088D01*
X83450Y-54087D01*
X83457Y-54087D01*
X83463Y-54087D01*
X83463Y-54087D01*
X83463Y-54087D01*
G37*
G36*
X83338Y-54169D02*
X83346Y-54169D01*
X83357Y-54170D01*
X83369Y-54171D01*
X83382Y-54173D01*
X83393Y-54175D01*
X83403Y-54178D01*
X83405Y-54178D01*
X83417Y-54182D01*
X83428Y-54186D01*
X83438Y-54190D01*
X83445Y-54194D01*
X83450Y-54198D01*
X83451Y-54200D01*
X83452Y-54206D01*
X83451Y-54212D01*
X83449Y-54216D01*
X83445Y-54220D01*
X83440Y-54222D01*
X83434Y-54221D01*
X83426Y-54218D01*
X83424Y-54217D01*
X83411Y-54212D01*
X83396Y-54207D01*
X83380Y-54204D01*
X83360Y-54201D01*
X83339Y-54199D01*
X83332Y-54198D01*
X83327Y-54197D01*
X83323Y-54196D01*
X83321Y-54195D01*
X83319Y-54193D01*
X83319Y-54193D01*
X83316Y-54187D01*
X83316Y-54181D01*
X83318Y-54175D01*
X83320Y-54173D01*
X83322Y-54171D01*
X83325Y-54170D01*
X83328Y-54169D01*
X83333Y-54169D01*
X83338Y-54169D01*
X83338Y-54169D01*
X83338Y-54169D01*
G37*
G36*
X82491Y-53326D02*
X82496Y-53327D01*
X82501Y-53330D01*
X82502Y-53330D01*
X82503Y-53333D01*
X82505Y-53338D01*
X82509Y-53345D01*
X82512Y-53353D01*
X82516Y-53362D01*
X82517Y-53365D01*
X82520Y-53372D01*
X82524Y-53381D01*
X82529Y-53393D01*
X82535Y-53407D01*
X82541Y-53422D01*
X82547Y-53438D01*
X82555Y-53455D01*
X82562Y-53472D01*
X82569Y-53490D01*
X82570Y-53493D01*
X82584Y-53528D01*
X82599Y-53563D01*
X82614Y-53599D01*
X82628Y-53635D01*
X82642Y-53670D01*
X82656Y-53705D01*
X82669Y-53738D01*
X82682Y-53770D01*
X82693Y-53799D01*
X82694Y-53802D01*
X82699Y-53814D01*
X82703Y-53825D01*
X82707Y-53835D01*
X82710Y-53843D01*
X82712Y-53849D01*
X82714Y-53853D01*
X82714Y-53854D01*
X82715Y-53856D01*
X82717Y-53857D01*
X82721Y-53858D01*
X82727Y-53859D01*
X82734Y-53860D01*
X82741Y-53861D01*
X82747Y-53862D01*
X82752Y-53862D01*
X82753Y-53862D01*
X82753Y-53861D01*
X82752Y-53856D01*
X82750Y-53849D01*
X82748Y-53840D01*
X82746Y-53828D01*
X82743Y-53814D01*
X82740Y-53798D01*
X82736Y-53781D01*
X82732Y-53762D01*
X82727Y-53742D01*
X82723Y-53721D01*
X82720Y-53707D01*
X82715Y-53685D01*
X82711Y-53664D01*
X82706Y-53644D01*
X82702Y-53625D01*
X82699Y-53608D01*
X82695Y-53592D01*
X82693Y-53579D01*
X82690Y-53567D01*
X82688Y-53557D01*
X82687Y-53550D01*
X82686Y-53546D01*
X82686Y-53545D01*
X82687Y-53538D01*
X82691Y-53534D01*
X82696Y-53531D01*
X82700Y-53530D01*
X82706Y-53531D01*
X82711Y-53535D01*
X82713Y-53538D01*
X82714Y-53540D01*
X82715Y-53545D01*
X82717Y-53553D01*
X82719Y-53563D01*
X82722Y-53575D01*
X82725Y-53589D01*
X82729Y-53606D01*
X82733Y-53624D01*
X82737Y-53643D01*
X82741Y-53663D01*
X82746Y-53685D01*
X82751Y-53707D01*
X82786Y-53871D01*
X82802Y-53876D01*
X82810Y-53879D01*
X82816Y-53881D01*
X82820Y-53883D01*
X82822Y-53883D01*
X82823Y-53883D01*
X82823Y-53882D01*
X82823Y-53882D01*
X82823Y-53879D01*
X82824Y-53874D01*
X82825Y-53866D01*
X82826Y-53857D01*
X82828Y-53845D01*
X82829Y-53833D01*
X82831Y-53820D01*
X82833Y-53806D01*
X82835Y-53792D01*
X82837Y-53778D01*
X82839Y-53765D01*
X82840Y-53753D01*
X82842Y-53742D01*
X82843Y-53733D01*
X82844Y-53727D01*
X82845Y-53722D01*
X82846Y-53720D01*
X82849Y-53715D01*
X82855Y-53712D01*
X82861Y-53712D01*
X82868Y-53714D01*
X82872Y-53719D01*
X82874Y-53725D01*
X82874Y-53726D01*
X82873Y-53728D01*
X82873Y-53734D01*
X82872Y-53742D01*
X82871Y-53752D01*
X82869Y-53764D01*
X82867Y-53777D01*
X82866Y-53792D01*
X82863Y-53808D01*
X82863Y-53815D01*
X82860Y-53831D01*
X82859Y-53845D01*
X82857Y-53859D01*
X82855Y-53871D01*
X82854Y-53881D01*
X82853Y-53890D01*
X82853Y-53895D01*
X82853Y-53898D01*
X82853Y-53899D01*
X82854Y-53900D01*
X82858Y-53902D01*
X82864Y-53905D01*
X82871Y-53909D01*
X82875Y-53912D01*
X82896Y-53924D01*
X82927Y-53878D01*
X82934Y-53867D01*
X82941Y-53857D01*
X82947Y-53848D01*
X82953Y-53840D01*
X82957Y-53835D01*
X82960Y-53831D01*
X82962Y-53829D01*
X82968Y-53827D01*
X82974Y-53827D01*
X82979Y-53831D01*
X82979Y-53831D01*
X82982Y-53833D01*
X82983Y-53836D01*
X82984Y-53838D01*
X82984Y-53841D01*
X82983Y-53845D01*
X82981Y-53849D01*
X82978Y-53855D01*
X82973Y-53863D01*
X82967Y-53872D01*
X82960Y-53884D01*
X82953Y-53893D01*
X82946Y-53904D01*
X82940Y-53914D01*
X82934Y-53923D01*
X82929Y-53930D01*
X82925Y-53936D01*
X82923Y-53940D01*
X82923Y-53941D01*
X82924Y-53942D01*
X82927Y-53945D01*
X82931Y-53950D01*
X82933Y-53952D01*
X82938Y-53957D01*
X82943Y-53962D01*
X82949Y-53969D01*
X82953Y-53974D01*
X82957Y-53979D01*
X82958Y-53981D01*
X82959Y-53980D01*
X82963Y-53978D01*
X82969Y-53974D01*
X82976Y-53970D01*
X82985Y-53964D01*
X82995Y-53958D01*
X83004Y-53953D01*
X83017Y-53945D01*
X83028Y-53939D01*
X83037Y-53933D01*
X83044Y-53930D01*
X83050Y-53927D01*
X83054Y-53926D01*
X83057Y-53925D01*
X83060Y-53926D01*
X83062Y-53927D01*
X83064Y-53929D01*
X83065Y-53930D01*
X83069Y-53936D01*
X83069Y-53942D01*
X83067Y-53947D01*
X83064Y-53950D01*
X83062Y-53952D01*
X83057Y-53956D01*
X83050Y-53960D01*
X83042Y-53966D01*
X83032Y-53972D01*
X83021Y-53978D01*
X83017Y-53981D01*
X83007Y-53987D01*
X82997Y-53993D01*
X82989Y-53998D01*
X82982Y-54002D01*
X82977Y-54005D01*
X82975Y-54007D01*
X82975Y-54007D01*
X82975Y-54009D01*
X82977Y-54012D01*
X82981Y-54018D01*
X82985Y-54024D01*
X82987Y-54028D01*
X83000Y-54049D01*
X83009Y-54045D01*
X83044Y-54030D01*
X83081Y-54018D01*
X83119Y-54007D01*
X83138Y-54002D01*
X83157Y-53999D01*
X83176Y-53996D01*
X83196Y-53993D01*
X83216Y-53992D01*
X83234Y-53991D01*
X83250Y-53991D01*
X83266Y-53991D01*
X83274Y-53998D01*
X83279Y-54004D01*
X83284Y-54010D01*
X83287Y-54017D01*
X83290Y-54026D01*
X83293Y-54036D01*
X83298Y-54056D01*
X83301Y-54074D01*
X83302Y-54091D01*
X83303Y-54110D01*
X83301Y-54130D01*
X83301Y-54135D01*
X83300Y-54150D01*
X83298Y-54163D01*
X83296Y-54174D01*
X83294Y-54184D01*
X83291Y-54194D01*
X83287Y-54204D01*
X83283Y-54216D01*
X83281Y-54220D01*
X83270Y-54244D01*
X83257Y-54266D01*
X83252Y-54272D01*
X82605Y-54272D01*
X82599Y-54273D01*
X82587Y-54276D01*
X82577Y-54281D01*
X82571Y-54285D01*
X82565Y-54292D01*
X82560Y-54302D01*
X82556Y-54312D01*
X82553Y-54323D01*
X82551Y-54331D01*
X82551Y-54341D01*
X82550Y-54352D01*
X82550Y-54364D01*
X82550Y-54377D01*
X82551Y-54389D01*
X82552Y-54400D01*
X82553Y-54407D01*
X82555Y-54421D01*
X82558Y-54436D01*
X82562Y-54452D01*
X82567Y-54469D01*
X82572Y-54486D01*
X82577Y-54502D01*
X82582Y-54516D01*
X82583Y-54520D01*
X82589Y-54535D01*
X82590Y-54527D01*
X82592Y-54518D01*
X82593Y-54507D01*
X82594Y-54494D01*
X82596Y-54480D01*
X82597Y-54466D01*
X82598Y-54453D01*
X82599Y-54440D01*
X82600Y-54428D01*
X82601Y-54419D01*
X82601Y-54412D01*
X82601Y-54412D01*
X82601Y-54399D01*
X82605Y-54405D01*
X82610Y-54410D01*
X82615Y-54412D01*
X82621Y-54411D01*
X82622Y-54411D01*
X82627Y-54408D01*
X82630Y-54403D01*
X82634Y-54395D01*
X82635Y-54392D01*
X82636Y-54385D01*
X82637Y-54377D01*
X82636Y-54369D01*
X82635Y-54362D01*
X82633Y-54356D01*
X82633Y-54356D01*
X82628Y-54350D01*
X82623Y-54347D01*
X82617Y-54347D01*
X82612Y-54350D01*
X82610Y-54351D01*
X82609Y-54353D01*
X82608Y-54353D01*
X82608Y-54353D01*
X82608Y-54350D01*
X82609Y-54344D01*
X82610Y-54339D01*
X82611Y-54331D01*
X82612Y-54322D01*
X82613Y-54312D01*
X82613Y-54308D01*
X82614Y-54300D01*
X82614Y-54294D01*
X82613Y-54291D01*
X82612Y-54287D01*
X82611Y-54284D01*
X82610Y-54281D01*
X82605Y-54272D01*
X83252Y-54272D01*
X83242Y-54287D01*
X83225Y-54308D01*
X83212Y-54322D01*
X83194Y-54339D01*
X83178Y-54354D01*
X83161Y-54368D01*
X83143Y-54380D01*
X83125Y-54391D01*
X83105Y-54401D01*
X83083Y-54411D01*
X83062Y-54420D01*
X83050Y-54424D01*
X83040Y-54428D01*
X83029Y-54431D01*
X83018Y-54434D01*
X83006Y-54437D01*
X82992Y-54440D01*
X82977Y-54443D01*
X82960Y-54446D01*
X82940Y-54449D01*
X82931Y-54451D01*
X82900Y-54456D01*
X82872Y-54461D01*
X82846Y-54466D01*
X82822Y-54471D01*
X82800Y-54476D01*
X82780Y-54482D01*
X82761Y-54488D01*
X82742Y-54495D01*
X82724Y-54502D01*
X82706Y-54510D01*
X82692Y-54517D01*
X82685Y-54521D01*
X82677Y-54526D01*
X82667Y-54532D01*
X82658Y-54538D01*
X82648Y-54545D01*
X82638Y-54552D01*
X82630Y-54559D01*
X82622Y-54564D01*
X82617Y-54569D01*
X82614Y-54573D01*
X82614Y-54573D01*
X82604Y-54587D01*
X82594Y-54603D01*
X82584Y-54622D01*
X82574Y-54642D01*
X82565Y-54662D01*
X82556Y-54683D01*
X82548Y-54703D01*
X82542Y-54723D01*
X82541Y-54725D01*
X82536Y-54743D01*
X82532Y-54759D01*
X82528Y-54773D01*
X82526Y-54786D01*
X82523Y-54800D01*
X82522Y-54813D01*
X82520Y-54827D01*
X82520Y-54836D01*
X82519Y-54843D01*
X82519Y-54847D01*
X82518Y-54850D01*
X82517Y-54851D01*
X82516Y-54851D01*
X82514Y-54851D01*
X82513Y-54849D01*
X82512Y-54847D01*
X82512Y-54843D01*
X82511Y-54837D01*
X82511Y-54829D01*
X82512Y-54819D01*
X82512Y-54806D01*
X82512Y-54792D01*
X82514Y-54760D01*
X82516Y-54732D01*
X82519Y-54706D01*
X82522Y-54681D01*
X82526Y-54659D01*
X82530Y-54638D01*
X82536Y-54617D01*
X82542Y-54598D01*
X82550Y-54578D01*
X82553Y-54570D01*
X82556Y-54562D01*
X82559Y-54556D01*
X82561Y-54551D01*
X82561Y-54547D01*
X82561Y-54547D01*
X82560Y-54545D01*
X82558Y-54540D01*
X82556Y-54534D01*
X82555Y-54530D01*
X82550Y-54517D01*
X82545Y-54501D01*
X82540Y-54484D01*
X82535Y-54467D01*
X82531Y-54450D01*
X82527Y-54434D01*
X82524Y-54419D01*
X82523Y-54413D01*
X82521Y-54400D01*
X82520Y-54385D01*
X82520Y-54370D01*
X82519Y-54355D01*
X82520Y-54342D01*
X82521Y-54335D01*
X82524Y-54315D01*
X82529Y-54297D01*
X82536Y-54282D01*
X82545Y-54269D01*
X82555Y-54259D01*
X82567Y-54251D01*
X82573Y-54249D01*
X82578Y-54247D01*
X82583Y-54246D01*
X82590Y-54244D01*
X82598Y-54243D01*
X82607Y-54242D01*
X82618Y-54241D01*
X82632Y-54240D01*
X82648Y-54240D01*
X82666Y-54239D01*
X82670Y-54239D01*
X82692Y-54238D01*
X82712Y-54237D01*
X82729Y-54236D01*
X82744Y-54234D01*
X82757Y-54233D01*
X82768Y-54231D01*
X82777Y-54229D01*
X82785Y-54227D01*
X82792Y-54225D01*
X82798Y-54222D01*
X82798Y-54222D01*
X82801Y-54221D01*
X82803Y-54219D01*
X82806Y-54217D01*
X82809Y-54213D01*
X82812Y-54209D01*
X82818Y-54202D01*
X82822Y-54196D01*
X82835Y-54180D01*
X82828Y-54170D01*
X82820Y-54160D01*
X82811Y-54147D01*
X82802Y-54132D01*
X82792Y-54115D01*
X82781Y-54096D01*
X82771Y-54077D01*
X82761Y-54058D01*
X82752Y-54039D01*
X82743Y-54020D01*
X82738Y-54008D01*
X82732Y-53994D01*
X82726Y-53979D01*
X82719Y-53963D01*
X82713Y-53946D01*
X82707Y-53930D01*
X82701Y-53914D01*
X82696Y-53899D01*
X82692Y-53886D01*
X82689Y-53876D01*
X82689Y-53875D01*
X82686Y-53868D01*
X82683Y-53859D01*
X82679Y-53846D01*
X82673Y-53831D01*
X82666Y-53814D01*
X82659Y-53794D01*
X82650Y-53772D01*
X82641Y-53748D01*
X82630Y-53722D01*
X82619Y-53694D01*
X82607Y-53664D01*
X82595Y-53633D01*
X82581Y-53600D01*
X82567Y-53566D01*
X82553Y-53530D01*
X82538Y-53493D01*
X82522Y-53456D01*
X82506Y-53417D01*
X82492Y-53384D01*
X82487Y-53372D01*
X82483Y-53362D01*
X82480Y-53354D01*
X82478Y-53349D01*
X82477Y-53344D01*
X82476Y-53341D01*
X82476Y-53339D01*
X82476Y-53337D01*
X82477Y-53335D01*
X82477Y-53335D01*
X82480Y-53330D01*
X82485Y-53327D01*
X82491Y-53326D01*
X82491Y-53326D01*
X82491Y-53326D01*
G37*
G36*
X83040Y-54541D02*
X83062Y-54542D01*
X83082Y-54545D01*
X83100Y-54550D01*
X83118Y-54557D01*
X83122Y-54559D01*
X83141Y-54570D01*
X83158Y-54583D01*
X83163Y-54588D01*
X83054Y-54588D01*
X83036Y-54588D01*
X83020Y-54590D01*
X83006Y-54594D01*
X82993Y-54599D01*
X82983Y-54606D01*
X82976Y-54614D01*
X82971Y-54623D01*
X82969Y-54633D01*
X82969Y-54643D01*
X82973Y-54654D01*
X82979Y-54666D01*
X82987Y-54678D01*
X82997Y-54689D01*
X83010Y-54701D01*
X83025Y-54712D01*
X83027Y-54713D01*
X83042Y-54723D01*
X83099Y-54723D01*
X83156Y-54723D01*
X83158Y-54711D01*
X83160Y-54701D01*
X83161Y-54690D01*
X83161Y-54679D01*
X83160Y-54669D01*
X83159Y-54661D01*
X83159Y-54659D01*
X83155Y-54648D01*
X83150Y-54638D01*
X83143Y-54629D01*
X83135Y-54620D01*
X83123Y-54610D01*
X83111Y-54601D01*
X83097Y-54595D01*
X83081Y-54591D01*
X83063Y-54589D01*
X83054Y-54588D01*
X83163Y-54588D01*
X83171Y-54597D01*
X83182Y-54612D01*
X83190Y-54629D01*
X83195Y-54648D01*
X83196Y-54650D01*
X83196Y-54655D01*
X83197Y-54663D01*
X83197Y-54672D01*
X83197Y-54682D01*
X83197Y-54693D01*
X83196Y-54702D01*
X83196Y-54711D01*
X83195Y-54717D01*
X83195Y-54719D01*
X83194Y-54723D01*
X83244Y-54723D01*
X83295Y-54723D01*
X83295Y-54745D01*
X83295Y-54767D01*
X83114Y-54767D01*
X82933Y-54767D01*
X82934Y-54746D01*
X82934Y-54724D01*
X82962Y-54724D01*
X82990Y-54723D01*
X82977Y-54713D01*
X82962Y-54700D01*
X82949Y-54684D01*
X82939Y-54668D01*
X82934Y-54656D01*
X82930Y-54645D01*
X82928Y-54635D01*
X82928Y-54624D01*
X82928Y-54620D01*
X82929Y-54607D01*
X82934Y-54596D01*
X82940Y-54584D01*
X82950Y-54573D01*
X82950Y-54572D01*
X82956Y-54566D01*
X82962Y-54561D01*
X82969Y-54557D01*
X82975Y-54554D01*
X82986Y-54549D01*
X82997Y-54546D01*
X83009Y-54543D01*
X83022Y-54542D01*
X83037Y-54541D01*
X83040Y-54541D01*
X83040Y-54541D01*
X83040Y-54541D01*
G37*
G36*
X83099Y-56257D02*
X83116Y-56257D01*
X83132Y-56261D01*
X83146Y-56266D01*
X83161Y-56274D01*
X83173Y-56286D01*
X83184Y-56299D01*
X83193Y-56314D01*
X83199Y-56332D01*
X83201Y-56341D01*
X83202Y-56349D01*
X83203Y-56360D01*
X83204Y-56371D01*
X83204Y-56383D01*
X83204Y-56395D01*
X83204Y-56405D01*
X83203Y-56412D01*
X83201Y-56426D01*
X83198Y-56441D01*
X83193Y-56456D01*
X83191Y-56462D01*
X83187Y-56475D01*
X83164Y-56476D01*
X83142Y-56476D01*
X83149Y-56462D01*
X83155Y-56446D01*
X83160Y-56428D01*
X83164Y-56411D01*
X83167Y-56395D01*
X83169Y-56380D01*
X83169Y-56376D01*
X83168Y-56364D01*
X83165Y-56352D01*
X83162Y-56340D01*
X83157Y-56330D01*
X83151Y-56322D01*
X83150Y-56321D01*
X83141Y-56313D01*
X83130Y-56307D01*
X83118Y-56304D01*
X83106Y-56303D01*
X83105Y-56303D01*
X83097Y-56305D01*
X83089Y-56307D01*
X83082Y-56311D01*
X83074Y-56316D01*
X83067Y-56324D01*
X83059Y-56333D01*
X83051Y-56344D01*
X83042Y-56357D01*
X83032Y-56374D01*
X83025Y-56386D01*
X83018Y-56399D01*
X83011Y-56409D01*
X83006Y-56418D01*
X83001Y-56425D01*
X82996Y-56432D01*
X82991Y-56437D01*
X82986Y-56443D01*
X82985Y-56443D01*
X82971Y-56455D01*
X82957Y-56464D01*
X82941Y-56469D01*
X82925Y-56472D01*
X82919Y-56472D01*
X82901Y-56471D01*
X82886Y-56467D01*
X82872Y-56461D01*
X82859Y-56452D01*
X82853Y-56446D01*
X82844Y-56435D01*
X82836Y-56425D01*
X82831Y-56412D01*
X82827Y-56399D01*
X82824Y-56382D01*
X82823Y-56374D01*
X82822Y-56361D01*
X82823Y-56347D01*
X82824Y-56333D01*
X82825Y-56318D01*
X82827Y-56305D01*
X82830Y-56293D01*
X82833Y-56285D01*
X82834Y-56281D01*
X82853Y-56281D01*
X82860Y-56281D01*
X82866Y-56281D01*
X82871Y-56281D01*
X82872Y-56281D01*
X82872Y-56283D01*
X82871Y-56287D01*
X82870Y-56293D01*
X82869Y-56296D01*
X82863Y-56316D01*
X82860Y-56338D01*
X82859Y-56349D01*
X82859Y-56367D01*
X82861Y-56382D01*
X82866Y-56395D01*
X82874Y-56407D01*
X82878Y-56411D01*
X82885Y-56418D01*
X82893Y-56422D01*
X82902Y-56424D01*
X82913Y-56425D01*
X82920Y-56425D01*
X82927Y-56424D01*
X82933Y-56422D01*
X82939Y-56419D01*
X82945Y-56415D01*
X82951Y-56409D01*
X82957Y-56402D01*
X82964Y-56392D01*
X82972Y-56381D01*
X82981Y-56367D01*
X82991Y-56351D01*
X82993Y-56346D01*
X83003Y-56331D01*
X83011Y-56318D01*
X83018Y-56308D01*
X83024Y-56299D01*
X83030Y-56292D01*
X83035Y-56286D01*
X83041Y-56281D01*
X83046Y-56276D01*
X83053Y-56272D01*
X83054Y-56271D01*
X83068Y-56264D01*
X83083Y-56259D01*
X83099Y-56257D01*
X83099Y-56257D01*
X83099Y-56257D01*
G37*
G36*
X83075Y-55678D02*
X83090Y-55679D01*
X83103Y-55681D01*
X83115Y-55684D01*
X83127Y-55688D01*
X83145Y-55698D01*
X83161Y-55709D01*
X83174Y-55723D01*
X83175Y-55724D01*
X83062Y-55724D01*
X83043Y-55725D01*
X83026Y-55728D01*
X83010Y-55733D01*
X82996Y-55740D01*
X82986Y-55748D01*
X82976Y-55758D01*
X82970Y-55768D01*
X82965Y-55781D01*
X82964Y-55794D01*
X82964Y-55803D01*
X82964Y-55811D01*
X82965Y-55817D01*
X82966Y-55822D01*
X82969Y-55828D01*
X82969Y-55829D01*
X82977Y-55841D01*
X82987Y-55852D01*
X82999Y-55860D01*
X83015Y-55867D01*
X83023Y-55870D01*
X83028Y-55871D01*
X83033Y-55872D01*
X83038Y-55873D01*
X83044Y-55873D01*
X83052Y-55873D01*
X83062Y-55873D01*
X83064Y-55873D01*
X83077Y-55873D01*
X83087Y-55873D01*
X83096Y-55872D01*
X83104Y-55870D01*
X83111Y-55868D01*
X83119Y-55865D01*
X83125Y-55862D01*
X83138Y-55854D01*
X83149Y-55844D01*
X83157Y-55833D01*
X83162Y-55820D01*
X83165Y-55806D01*
X83165Y-55791D01*
X83164Y-55787D01*
X83160Y-55773D01*
X83154Y-55761D01*
X83145Y-55750D01*
X83133Y-55741D01*
X83120Y-55734D01*
X83103Y-55728D01*
X83085Y-55725D01*
X83081Y-55724D01*
X83062Y-55724D01*
X83175Y-55724D01*
X83185Y-55738D01*
X83193Y-55754D01*
X83199Y-55772D01*
X83201Y-55791D01*
X83201Y-55810D01*
X83198Y-55829D01*
X83192Y-55846D01*
X83184Y-55863D01*
X83173Y-55877D01*
X83160Y-55890D01*
X83144Y-55901D01*
X83126Y-55910D01*
X83107Y-55916D01*
X83102Y-55918D01*
X83096Y-55919D01*
X83091Y-55920D01*
X83084Y-55920D01*
X83077Y-55920D01*
X83066Y-55920D01*
X83065Y-55920D01*
X83054Y-55920D01*
X83046Y-55920D01*
X83039Y-55920D01*
X83033Y-55919D01*
X83028Y-55918D01*
X83023Y-55917D01*
X83005Y-55911D01*
X82987Y-55902D01*
X82971Y-55892D01*
X82957Y-55879D01*
X82946Y-55866D01*
X82944Y-55863D01*
X82937Y-55850D01*
X82932Y-55836D01*
X82929Y-55821D01*
X82927Y-55804D01*
X82928Y-55793D01*
X82929Y-55777D01*
X82931Y-55764D01*
X82935Y-55751D01*
X82941Y-55740D01*
X82943Y-55737D01*
X82951Y-55725D01*
X82962Y-55713D01*
X82975Y-55703D01*
X82989Y-55694D01*
X83003Y-55688D01*
X83012Y-55684D01*
X83020Y-55682D01*
X83028Y-55680D01*
X83036Y-55679D01*
X83046Y-55678D01*
X83058Y-55678D01*
X83059Y-55678D01*
X83075Y-55678D01*
X83075Y-55678D01*
X83075Y-55678D01*
G37*
G36*
X83186Y-55116D02*
X83188Y-55120D01*
X83189Y-55123D01*
X83190Y-55129D01*
X83192Y-55136D01*
X83193Y-55139D01*
X83198Y-55162D01*
X83200Y-55184D01*
X83201Y-55205D01*
X83200Y-55216D01*
X83198Y-55230D01*
X83194Y-55245D01*
X83188Y-55259D01*
X83183Y-55269D01*
X83173Y-55283D01*
X83161Y-55296D01*
X83148Y-55307D01*
X83133Y-55317D01*
X83130Y-55318D01*
X83113Y-55325D01*
X83095Y-55330D01*
X83076Y-55332D01*
X83056Y-55332D01*
X83037Y-55330D01*
X83019Y-55326D01*
X83002Y-55320D01*
X83001Y-55319D01*
X82984Y-55309D01*
X82969Y-55297D01*
X82955Y-55283D01*
X82944Y-55267D01*
X82936Y-55250D01*
X82931Y-55235D01*
X82928Y-55217D01*
X82927Y-55198D01*
X82929Y-55177D01*
X82932Y-55156D01*
X82937Y-55134D01*
X82938Y-55128D01*
X82942Y-55116D01*
X82962Y-55116D01*
X82971Y-55116D01*
X82976Y-55116D01*
X82980Y-55117D01*
X82982Y-55117D01*
X82982Y-55118D01*
X82982Y-55119D01*
X82981Y-55121D01*
X82979Y-55126D01*
X82977Y-55133D01*
X82975Y-55139D01*
X82972Y-55148D01*
X82969Y-55156D01*
X82967Y-55164D01*
X82966Y-55169D01*
X82964Y-55179D01*
X82964Y-55190D01*
X82964Y-55202D01*
X82964Y-55212D01*
X82966Y-55221D01*
X82966Y-55221D01*
X82971Y-55236D01*
X82979Y-55249D01*
X82990Y-55260D01*
X83003Y-55270D01*
X83017Y-55277D01*
X83033Y-55282D01*
X83051Y-55285D01*
X83062Y-55285D01*
X83076Y-55285D01*
X83088Y-55283D01*
X83100Y-55280D01*
X83111Y-55275D01*
X83126Y-55266D01*
X83138Y-55257D01*
X83148Y-55246D01*
X83155Y-55233D01*
X83157Y-55228D01*
X83158Y-55222D01*
X83160Y-55213D01*
X83160Y-55203D01*
X83161Y-55192D01*
X83161Y-55182D01*
X83160Y-55172D01*
X83160Y-55168D01*
X83158Y-55162D01*
X83157Y-55155D01*
X83154Y-55147D01*
X83152Y-55138D01*
X83149Y-55129D01*
X83147Y-55123D01*
X83146Y-55119D01*
X83146Y-55118D01*
X83147Y-55117D01*
X83149Y-55116D01*
X83154Y-55116D01*
X83161Y-55116D01*
X83166Y-55116D01*
X83186Y-55116D01*
X83186Y-55116D01*
X83186Y-55116D01*
G37*
G36*
X83192Y-54826D02*
X83193Y-54827D01*
X83194Y-54829D01*
X83194Y-54833D01*
X83194Y-54839D01*
X83194Y-54848D01*
X83194Y-54848D01*
X83194Y-54871D01*
X83178Y-54874D01*
X83169Y-54875D01*
X83160Y-54876D01*
X83152Y-54877D01*
X83150Y-54877D01*
X83144Y-54878D01*
X83139Y-54878D01*
X83137Y-54879D01*
X83137Y-54879D01*
X83137Y-54879D01*
X83086Y-54879D01*
X83030Y-54880D01*
X82972Y-54880D01*
X82970Y-54889D01*
X82969Y-54894D01*
X82968Y-54902D01*
X82968Y-54910D01*
X82967Y-54914D01*
X82967Y-54931D01*
X82970Y-54945D01*
X82974Y-54958D01*
X82982Y-54971D01*
X82992Y-54983D01*
X82993Y-54984D01*
X83005Y-54993D01*
X83017Y-55001D01*
X83030Y-55007D01*
X83044Y-55011D01*
X83053Y-55013D01*
X83065Y-55014D01*
X83077Y-55014D01*
X83089Y-55015D01*
X83101Y-55014D01*
X83110Y-55013D01*
X83115Y-55012D01*
X83129Y-55007D01*
X83141Y-55000D01*
X83150Y-54991D01*
X83155Y-54985D01*
X83159Y-54975D01*
X83159Y-54964D01*
X83157Y-54953D01*
X83156Y-54949D01*
X83153Y-54942D01*
X83149Y-54936D01*
X83147Y-54933D01*
X83141Y-54925D01*
X83133Y-54916D01*
X83123Y-54907D01*
X83113Y-54898D01*
X83104Y-54891D01*
X83101Y-54889D01*
X83086Y-54879D01*
X83137Y-54879D01*
X83139Y-54880D01*
X83142Y-54883D01*
X83145Y-54885D01*
X83153Y-54891D01*
X83162Y-54899D01*
X83170Y-54908D01*
X83178Y-54917D01*
X83181Y-54921D01*
X83190Y-54937D01*
X83197Y-54953D01*
X83200Y-54968D01*
X83201Y-54984D01*
X83200Y-54988D01*
X83197Y-55001D01*
X83191Y-55013D01*
X83183Y-55025D01*
X83173Y-55036D01*
X83161Y-55045D01*
X83150Y-55051D01*
X83144Y-55053D01*
X83137Y-55056D01*
X83129Y-55058D01*
X83128Y-55058D01*
X83106Y-55061D01*
X83084Y-55062D01*
X83063Y-55060D01*
X83042Y-55056D01*
X83022Y-55050D01*
X83003Y-55042D01*
X82985Y-55032D01*
X82970Y-55020D01*
X82957Y-55006D01*
X82955Y-55004D01*
X82948Y-54993D01*
X82942Y-54983D01*
X82937Y-54972D01*
X82935Y-54964D01*
X82934Y-54959D01*
X82933Y-54954D01*
X82932Y-54947D01*
X82932Y-54940D01*
X82931Y-54931D01*
X82931Y-54920D01*
X82932Y-54908D01*
X82932Y-54892D01*
X82933Y-54874D01*
X82933Y-54871D01*
X82934Y-54835D01*
X83036Y-54835D01*
X83060Y-54835D01*
X83080Y-54835D01*
X83099Y-54835D01*
X83114Y-54835D01*
X83128Y-54834D01*
X83140Y-54834D01*
X83150Y-54833D01*
X83159Y-54833D01*
X83166Y-54832D01*
X83173Y-54831D01*
X83179Y-54830D01*
X83185Y-54828D01*
X83190Y-54827D01*
X83191Y-54826D01*
X83192Y-54826D01*
X83192Y-54826D01*
X83192Y-54826D01*
G37*
G36*
X83194Y-55975D02*
X83194Y-55996D01*
X83194Y-56017D01*
X83101Y-56018D01*
X83078Y-56018D01*
X83058Y-56018D01*
X83041Y-56019D01*
X83027Y-56019D01*
X83015Y-56019D01*
X83007Y-56020D01*
X83001Y-56020D01*
X82999Y-56021D01*
X82988Y-56024D01*
X82980Y-56030D01*
X82973Y-56038D01*
X82968Y-56047D01*
X82967Y-56054D01*
X82967Y-56064D01*
X82971Y-56075D01*
X82976Y-56087D01*
X82984Y-56099D01*
X82994Y-56111D01*
X83005Y-56122D01*
X83018Y-56133D01*
X83032Y-56142D01*
X83033Y-56143D01*
X83043Y-56148D01*
X83118Y-56148D01*
X83194Y-56148D01*
X83194Y-56170D01*
X83194Y-56191D01*
X83064Y-56191D01*
X82934Y-56191D01*
X82934Y-56170D01*
X82934Y-56148D01*
X82962Y-56148D01*
X82989Y-56148D01*
X82984Y-56144D01*
X82975Y-56137D01*
X82969Y-56132D01*
X82963Y-56127D01*
X82959Y-56122D01*
X82954Y-56117D01*
X82954Y-56116D01*
X82943Y-56102D01*
X82935Y-56086D01*
X82930Y-56071D01*
X82927Y-56055D01*
X82928Y-56040D01*
X82931Y-56026D01*
X82938Y-56012D01*
X82940Y-56009D01*
X82946Y-55999D01*
X82954Y-55992D01*
X82963Y-55986D01*
X82974Y-55982D01*
X82986Y-55979D01*
X83002Y-55977D01*
X83004Y-55977D01*
X83009Y-55976D01*
X83017Y-55976D01*
X83027Y-55976D01*
X83039Y-55975D01*
X83053Y-55975D01*
X83068Y-55975D01*
X83084Y-55975D01*
X83101Y-55975D01*
X83108Y-55975D01*
X83194Y-55975D01*
X83194Y-55975D01*
X83194Y-55975D01*
G37*
G36*
X82935Y-55376D02*
X82936Y-55376D01*
X82941Y-55377D01*
X82948Y-55378D01*
X82958Y-55380D01*
X82970Y-55382D01*
X82983Y-55384D01*
X82999Y-55386D01*
X83016Y-55389D01*
X83035Y-55392D01*
X83054Y-55395D01*
X83065Y-55397D01*
X83194Y-55418D01*
X83194Y-55438D01*
X83193Y-55458D01*
X83110Y-55483D01*
X83093Y-55488D01*
X83078Y-55493D01*
X83063Y-55497D01*
X83048Y-55501D01*
X83036Y-55505D01*
X83025Y-55508D01*
X83016Y-55510D01*
X83010Y-55512D01*
X83009Y-55512D01*
X83002Y-55513D01*
X82995Y-55515D01*
X82992Y-55516D01*
X82990Y-55516D01*
X82992Y-55517D01*
X82996Y-55518D01*
X83002Y-55519D01*
X83009Y-55521D01*
X83013Y-55522D01*
X83021Y-55524D01*
X83031Y-55526D01*
X83043Y-55529D01*
X83057Y-55532D01*
X83071Y-55536D01*
X83087Y-55540D01*
X83103Y-55544D01*
X83110Y-55546D01*
X83194Y-55567D01*
X83194Y-55588D01*
X83194Y-55597D01*
X83194Y-55603D01*
X83194Y-55606D01*
X83193Y-55609D01*
X83192Y-55610D01*
X83191Y-55610D01*
X83191Y-55610D01*
X83188Y-55610D01*
X83183Y-55611D01*
X83176Y-55613D01*
X83166Y-55614D01*
X83154Y-55616D01*
X83140Y-55618D01*
X83124Y-55621D01*
X83107Y-55624D01*
X83089Y-55627D01*
X83070Y-55630D01*
X83065Y-55631D01*
X83046Y-55634D01*
X83027Y-55637D01*
X83010Y-55640D01*
X82993Y-55642D01*
X82979Y-55645D01*
X82966Y-55647D01*
X82955Y-55648D01*
X82947Y-55650D01*
X82941Y-55651D01*
X82938Y-55651D01*
X82938Y-55651D01*
X82934Y-55652D01*
X82934Y-55632D01*
X82934Y-55623D01*
X82934Y-55617D01*
X82935Y-55613D01*
X82935Y-55612D01*
X82936Y-55612D01*
X82937Y-55611D01*
X82942Y-55611D01*
X82949Y-55609D01*
X82959Y-55608D01*
X82970Y-55606D01*
X82983Y-55604D01*
X82997Y-55602D01*
X83013Y-55599D01*
X83014Y-55599D01*
X83038Y-55595D01*
X83060Y-55592D01*
X83078Y-55589D01*
X83093Y-55587D01*
X83105Y-55585D01*
X83114Y-55583D01*
X83121Y-55582D01*
X83125Y-55581D01*
X83126Y-55581D01*
X83125Y-55580D01*
X83121Y-55579D01*
X83115Y-55578D01*
X83110Y-55577D01*
X83105Y-55576D01*
X83098Y-55575D01*
X83088Y-55572D01*
X83077Y-55570D01*
X83063Y-55566D01*
X83049Y-55563D01*
X83034Y-55559D01*
X83018Y-55555D01*
X83014Y-55554D01*
X82934Y-55533D01*
X82934Y-55513D01*
X82934Y-55494D01*
X83011Y-55471D01*
X83027Y-55467D01*
X83042Y-55462D01*
X83057Y-55458D01*
X83071Y-55454D01*
X83083Y-55451D01*
X83094Y-55448D01*
X83102Y-55446D01*
X83107Y-55444D01*
X83107Y-55444D01*
X83116Y-55442D01*
X83121Y-55441D01*
X83124Y-55440D01*
X83124Y-55439D01*
X83123Y-55439D01*
X83121Y-55438D01*
X83115Y-55437D01*
X83108Y-55436D01*
X83099Y-55435D01*
X83089Y-55433D01*
X83082Y-55432D01*
X83071Y-55430D01*
X83058Y-55428D01*
X83043Y-55426D01*
X83027Y-55423D01*
X83011Y-55421D01*
X82995Y-55419D01*
X82990Y-55418D01*
X82978Y-55416D01*
X82966Y-55414D01*
X82956Y-55412D01*
X82947Y-55411D01*
X82940Y-55410D01*
X82936Y-55409D01*
X82935Y-55409D01*
X82934Y-55408D01*
X82934Y-55404D01*
X82934Y-55399D01*
X82934Y-55393D01*
X82934Y-55386D01*
X82934Y-55381D01*
X82934Y-55377D01*
X82935Y-55376D01*
X82935Y-55376D01*
X82935Y-55376D01*
G37*
G54D10*
X85141Y-53837D02*
X85126Y-53852D01*
X85081Y-53867D01*
X85051Y-53867D01*
X85006Y-53852D01*
X84976Y-53822D01*
X84961Y-53792D01*
X84946Y-53732D01*
X84946Y-53687D01*
X84961Y-53627D01*
X84976Y-53597D01*
X85006Y-53567D01*
X85051Y-53552D01*
X85081Y-53552D01*
X85126Y-53567D01*
X85141Y-53582D01*
X85336Y-53552D02*
X85396Y-53552D01*
X85426Y-53567D01*
X85456Y-53597D01*
X85471Y-53657D01*
X85471Y-53762D01*
X85456Y-53822D01*
X85426Y-53852D01*
X85396Y-53867D01*
X85336Y-53867D01*
X85306Y-53852D01*
X85276Y-53822D01*
X85261Y-53762D01*
X85261Y-53657D01*
X85276Y-53597D01*
X85306Y-53567D01*
X85336Y-53552D01*
X85606Y-53867D02*
X85606Y-53552D01*
X85786Y-53867D01*
X85786Y-53552D01*
X86101Y-53867D02*
X85921Y-53867D01*
X86011Y-53867D02*
X86011Y-53552D01*
X85981Y-53597D01*
X85951Y-53627D01*
X85921Y-53642D01*
X79973Y-56237D02*
X79947Y-56224D01*
X79921Y-56198D01*
X79881Y-56159D01*
X79855Y-56145D01*
X79829Y-56145D01*
X79842Y-56211D02*
X79816Y-56198D01*
X79790Y-56172D01*
X79776Y-56119D01*
X79776Y-56027D01*
X79790Y-55975D01*
X79816Y-55949D01*
X79842Y-55935D01*
X79895Y-55935D01*
X79921Y-55949D01*
X79947Y-55975D01*
X79960Y-56027D01*
X79960Y-56119D01*
X79947Y-56172D01*
X79921Y-56198D01*
X79895Y-56211D01*
X79842Y-56211D01*
X80223Y-56211D02*
X80065Y-56211D01*
X80144Y-56211D02*
X80144Y-55935D01*
X80118Y-55975D01*
X80091Y-56001D01*
X80065Y-56014D01*
X90973Y-56237D02*
X90947Y-56224D01*
X90921Y-56198D01*
X90881Y-56159D01*
X90855Y-56145D01*
X90829Y-56145D01*
X90842Y-56211D02*
X90816Y-56198D01*
X90790Y-56172D01*
X90776Y-56119D01*
X90776Y-56027D01*
X90790Y-55975D01*
X90816Y-55949D01*
X90842Y-55935D01*
X90895Y-55935D01*
X90921Y-55949D01*
X90947Y-55975D01*
X90960Y-56027D01*
X90960Y-56119D01*
X90947Y-56172D01*
X90921Y-56198D01*
X90895Y-56211D01*
X90842Y-56211D01*
X91065Y-55962D02*
X91078Y-55949D01*
X91104Y-55935D01*
X91170Y-55935D01*
X91196Y-55949D01*
X91209Y-55962D01*
X91223Y-55988D01*
X91223Y-56014D01*
X91209Y-56054D01*
X91052Y-56211D01*
X91223Y-56211D01*
G54D14*
X90947Y-53627D02*
X90842Y-53477D01*
X90767Y-53627D02*
X90767Y-53312D01*
X90887Y-53312D01*
X90917Y-53327D01*
X90932Y-53342D01*
X90947Y-53372D01*
X90947Y-53417D01*
X90932Y-53447D01*
X90917Y-53462D01*
X90887Y-53477D01*
X90767Y-53477D01*
X91067Y-53342D02*
X91082Y-53327D01*
X91112Y-53312D01*
X91187Y-53312D01*
X91217Y-53327D01*
X91232Y-53342D01*
X91247Y-53372D01*
X91247Y-53402D01*
X91232Y-53447D01*
X91052Y-53627D01*
X91247Y-53627D01*
X79916Y-53678D02*
X79811Y-53528D01*
X79736Y-53678D02*
X79736Y-53363D01*
X79856Y-53363D01*
X79886Y-53378D01*
X79901Y-53393D01*
X79916Y-53423D01*
X79916Y-53468D01*
X79901Y-53498D01*
X79886Y-53513D01*
X79856Y-53528D01*
X79736Y-53528D01*
X80215Y-53678D02*
X80035Y-53678D01*
X80125Y-53678D02*
X80125Y-53363D01*
X80095Y-53408D01*
X80065Y-53438D01*
X80035Y-53453D01*
X77720Y-56662D02*
X77720Y-56347D01*
X77840Y-56347D01*
X77870Y-56362D01*
X77885Y-56377D01*
X77900Y-56407D01*
X77900Y-56452D01*
X77885Y-56482D01*
X77870Y-56497D01*
X77840Y-56512D01*
X77720Y-56512D01*
X78200Y-56662D02*
X78020Y-56662D01*
X78110Y-56662D02*
X78110Y-56347D01*
X78080Y-56392D01*
X78050Y-56422D01*
X78020Y-56437D01*
X92810Y-56662D02*
X92810Y-56347D01*
X92930Y-56347D01*
X92960Y-56362D01*
X92975Y-56377D01*
X92990Y-56407D01*
X92990Y-56452D01*
X92975Y-56482D01*
X92960Y-56497D01*
X92930Y-56512D01*
X92810Y-56512D01*
X93110Y-56377D02*
X93125Y-56362D01*
X93155Y-56347D01*
X93230Y-56347D01*
X93260Y-56362D01*
X93275Y-56377D01*
X93290Y-56407D01*
X93290Y-56437D01*
X93275Y-56482D01*
X93095Y-56662D01*
X93290Y-56662D01*
M02*
