M48
;DRILL file {Pcbnew (2013-jul-07)-stable} date Thu 18 Dec 2014 01:29:50 PM EET
;FORMAT={2:4/ absolute / inch / suppress leading zeros}
FMAT,2
INCH,TZ
T1C0.031
T2C0.032
T3C0.039
%
G90
G05
M72
T1
X79000Y-56000
X80000Y-55000
X81000Y-56000
X90000Y-56000
X91000Y-55000
X92000Y-56000
T2
X77000Y-53500
X77000Y-54500
X77000Y-55500
X77000Y-56500
X78500Y-53500
X81500Y-53500
X89500Y-53500
X92500Y-53500
X94000Y-53500
X94000Y-54500
X94000Y-55500
X94000Y-56500
T3
X84752Y-55287
X85500Y-56469
X86248Y-55287
T0
M30
