G04 (created by PCBNEW-RS274X (2012-apr-16-27)-stable) date Sat 16 Nov 2013 11:41:47 AM EET*
G01*
G70*
G90*
%MOIN*%
G04 Gerber Fmt 3.4, Leading zero omitted, Abs format*
%FSLAX34Y34*%
G04 APERTURE LIST*
%ADD10C,0.006000*%
%ADD11C,0.007500*%
%ADD12C,0.015000*%
%ADD13C,0.005000*%
%ADD14C,0.010000*%
%ADD15C,0.003900*%
%ADD16C,0.003000*%
%ADD17C,0.008000*%
%ADD18C,0.004500*%
G04 APERTURE END LIST*
G54D10*
G54D11*
X15307Y-23271D02*
X15288Y-23328D01*
X15288Y-23424D01*
X15307Y-23462D01*
X15326Y-23481D01*
X15364Y-23500D01*
X15402Y-23500D01*
X15440Y-23481D01*
X15460Y-23462D01*
X15479Y-23424D01*
X15498Y-23347D01*
X15517Y-23309D01*
X15536Y-23290D01*
X15574Y-23271D01*
X15612Y-23271D01*
X15650Y-23290D01*
X15669Y-23309D01*
X15688Y-23347D01*
X15688Y-23443D01*
X15669Y-23500D01*
X15326Y-23900D02*
X15307Y-23881D01*
X15288Y-23824D01*
X15288Y-23786D01*
X15307Y-23728D01*
X15345Y-23690D01*
X15383Y-23671D01*
X15460Y-23652D01*
X15517Y-23652D01*
X15593Y-23671D01*
X15631Y-23690D01*
X15669Y-23728D01*
X15688Y-23786D01*
X15688Y-23824D01*
X15669Y-23881D01*
X15650Y-23900D01*
X15288Y-24262D02*
X15288Y-24071D01*
X15688Y-24071D01*
X14307Y-23252D02*
X14288Y-23309D01*
X14288Y-23405D01*
X14307Y-23443D01*
X14326Y-23462D01*
X14364Y-23481D01*
X14402Y-23481D01*
X14440Y-23462D01*
X14460Y-23443D01*
X14479Y-23405D01*
X14498Y-23328D01*
X14517Y-23290D01*
X14536Y-23271D01*
X14574Y-23252D01*
X14612Y-23252D01*
X14650Y-23271D01*
X14669Y-23290D01*
X14688Y-23328D01*
X14688Y-23424D01*
X14669Y-23481D01*
X14288Y-23652D02*
X14688Y-23652D01*
X14688Y-23747D01*
X14669Y-23805D01*
X14631Y-23843D01*
X14593Y-23862D01*
X14517Y-23881D01*
X14460Y-23881D01*
X14383Y-23862D01*
X14345Y-23843D01*
X14307Y-23805D01*
X14288Y-23747D01*
X14288Y-23652D01*
X14402Y-24033D02*
X14402Y-24224D01*
X14288Y-23995D02*
X14688Y-24128D01*
X14288Y-24262D01*
X13288Y-22147D02*
X13688Y-22147D01*
X13688Y-22242D01*
X13669Y-22300D01*
X13631Y-22338D01*
X13593Y-22357D01*
X13517Y-22376D01*
X13460Y-22376D01*
X13383Y-22357D01*
X13345Y-22338D01*
X13307Y-22300D01*
X13288Y-22242D01*
X13288Y-22147D01*
X13288Y-22776D02*
X13479Y-22642D01*
X13288Y-22547D02*
X13688Y-22547D01*
X13688Y-22700D01*
X13669Y-22738D01*
X13650Y-22757D01*
X13612Y-22776D01*
X13555Y-22776D01*
X13517Y-22757D01*
X13498Y-22738D01*
X13479Y-22700D01*
X13479Y-22547D01*
X13288Y-22947D02*
X13688Y-22947D01*
X13688Y-23042D01*
X13669Y-23100D01*
X13631Y-23138D01*
X13593Y-23157D01*
X13517Y-23176D01*
X13460Y-23176D01*
X13383Y-23157D01*
X13345Y-23138D01*
X13307Y-23100D01*
X13288Y-23042D01*
X13288Y-22947D01*
X13479Y-23423D02*
X13288Y-23423D01*
X13688Y-23290D02*
X13479Y-23423D01*
X13688Y-23557D01*
X13250Y-23595D02*
X13250Y-23900D01*
X13669Y-24205D02*
X13688Y-24167D01*
X13688Y-24110D01*
X13669Y-24052D01*
X13631Y-24014D01*
X13593Y-23995D01*
X13517Y-23976D01*
X13460Y-23976D01*
X13383Y-23995D01*
X13345Y-24014D01*
X13307Y-24052D01*
X13288Y-24110D01*
X13288Y-24148D01*
X13307Y-24205D01*
X13326Y-24224D01*
X13460Y-24224D01*
X13460Y-24148D01*
X12288Y-22776D02*
X12688Y-22776D01*
X12288Y-22966D02*
X12688Y-22966D01*
X12288Y-23195D01*
X12688Y-23195D01*
X12688Y-23328D02*
X12688Y-23557D01*
X12288Y-23442D02*
X12688Y-23442D01*
X12250Y-23595D02*
X12250Y-23900D01*
X12669Y-24205D02*
X12688Y-24167D01*
X12688Y-24110D01*
X12669Y-24052D01*
X12631Y-24014D01*
X12593Y-23995D01*
X12517Y-23976D01*
X12460Y-23976D01*
X12383Y-23995D01*
X12345Y-24014D01*
X12307Y-24052D01*
X12288Y-24110D01*
X12288Y-24148D01*
X12307Y-24205D01*
X12326Y-24224D01*
X12460Y-24224D01*
X12460Y-24148D01*
X15288Y-08595D02*
X15688Y-08595D01*
X15288Y-08785D02*
X15688Y-08785D01*
X15288Y-09014D01*
X15688Y-09014D01*
X15688Y-09147D02*
X15688Y-09376D01*
X15288Y-09261D02*
X15688Y-09261D01*
X15288Y-09719D02*
X15288Y-09490D01*
X15288Y-09604D02*
X15688Y-09604D01*
X15631Y-09566D01*
X15593Y-09528D01*
X15574Y-09490D01*
X15250Y-09795D02*
X15250Y-10100D01*
X15688Y-10157D02*
X15288Y-10424D01*
X15688Y-10424D02*
X15288Y-10157D01*
X15288Y-10576D02*
X15688Y-10576D01*
X15402Y-10710D01*
X15688Y-10843D01*
X15288Y-10843D01*
X14288Y-08595D02*
X14688Y-08595D01*
X14288Y-08785D02*
X14688Y-08785D01*
X14288Y-09014D01*
X14688Y-09014D01*
X14688Y-09147D02*
X14688Y-09376D01*
X14288Y-09261D02*
X14688Y-09261D01*
X14650Y-09490D02*
X14669Y-09509D01*
X14688Y-09547D01*
X14688Y-09643D01*
X14669Y-09681D01*
X14650Y-09700D01*
X14612Y-09719D01*
X14574Y-09719D01*
X14517Y-09700D01*
X14288Y-09471D01*
X14288Y-09719D01*
X14250Y-09795D02*
X14250Y-10100D01*
X14688Y-10157D02*
X14288Y-10424D01*
X14688Y-10424D02*
X14288Y-10157D01*
X14288Y-10576D02*
X14688Y-10576D01*
X14402Y-10710D01*
X14688Y-10843D01*
X14288Y-10843D01*
X13669Y-08805D02*
X13688Y-08767D01*
X13688Y-08710D01*
X13669Y-08652D01*
X13631Y-08614D01*
X13593Y-08595D01*
X13517Y-08576D01*
X13460Y-08576D01*
X13383Y-08595D01*
X13345Y-08614D01*
X13307Y-08652D01*
X13288Y-08710D01*
X13288Y-08748D01*
X13307Y-08805D01*
X13326Y-08824D01*
X13460Y-08824D01*
X13460Y-08748D01*
X13288Y-08995D02*
X13688Y-08995D01*
X13288Y-09224D01*
X13688Y-09224D01*
X13288Y-09414D02*
X13688Y-09414D01*
X13688Y-09509D01*
X13669Y-09567D01*
X13631Y-09605D01*
X13593Y-09624D01*
X13517Y-09643D01*
X13460Y-09643D01*
X13383Y-09624D01*
X13345Y-09605D01*
X13307Y-09567D01*
X13288Y-09509D01*
X13288Y-09414D01*
X12688Y-08557D02*
X12688Y-08805D01*
X12536Y-08671D01*
X12536Y-08729D01*
X12517Y-08767D01*
X12498Y-08786D01*
X12460Y-08805D01*
X12364Y-08805D01*
X12326Y-08786D01*
X12307Y-08767D01*
X12288Y-08729D01*
X12288Y-08614D01*
X12307Y-08576D01*
X12326Y-08557D01*
X12326Y-08976D02*
X12307Y-08995D01*
X12288Y-08976D01*
X12307Y-08957D01*
X12326Y-08976D01*
X12288Y-08976D01*
X12688Y-09128D02*
X12688Y-09376D01*
X12536Y-09242D01*
X12536Y-09300D01*
X12517Y-09338D01*
X12498Y-09357D01*
X12460Y-09376D01*
X12364Y-09376D01*
X12326Y-09357D01*
X12307Y-09338D01*
X12288Y-09300D01*
X12288Y-09185D01*
X12307Y-09147D01*
X12326Y-09128D01*
X12688Y-09490D02*
X12288Y-09623D01*
X12688Y-09757D01*
G54D12*
X16100Y-07250D02*
X16100Y-25550D01*
X11800Y-07250D02*
X16100Y-07250D01*
X11800Y-25550D02*
X11800Y-07250D01*
X16100Y-25550D02*
X11800Y-25550D01*
G54D13*
X12200Y-16100D02*
X12200Y-16300D01*
X12200Y-16300D02*
X12500Y-16300D01*
X12500Y-16300D02*
X12500Y-16100D01*
X12200Y-15900D02*
X12200Y-15700D01*
X12200Y-15700D02*
X12500Y-15700D01*
X12500Y-15700D02*
X12500Y-15900D01*
X13300Y-14950D02*
X13500Y-14950D01*
X13500Y-14950D02*
X13500Y-14650D01*
X13500Y-14650D02*
X13300Y-14650D01*
X13100Y-14950D02*
X12900Y-14950D01*
X12900Y-14950D02*
X12900Y-14650D01*
X12900Y-14650D02*
X13100Y-14650D01*
G54D14*
X15950Y-08400D02*
X11950Y-08400D01*
X15950Y-07400D02*
X11950Y-07400D01*
X11950Y-07400D02*
X11950Y-08400D01*
X15950Y-08400D02*
X15950Y-07400D01*
X11950Y-24400D02*
X15950Y-24400D01*
X11950Y-25400D02*
X15950Y-25400D01*
X15950Y-25400D02*
X15950Y-24400D01*
X11950Y-24400D02*
X11950Y-25400D01*
G54D13*
X14350Y-18350D02*
X14550Y-18350D01*
X14550Y-18350D02*
X14550Y-18050D01*
X14550Y-18050D02*
X14350Y-18050D01*
X14150Y-18350D02*
X13950Y-18350D01*
X13950Y-18350D02*
X13950Y-18050D01*
X13950Y-18050D02*
X14150Y-18050D01*
G54D15*
X14658Y-15731D02*
X14657Y-15738D01*
X14655Y-15745D01*
X14651Y-15752D01*
X14646Y-15758D01*
X14640Y-15763D01*
X14634Y-15766D01*
X14626Y-15769D01*
X14619Y-15769D01*
X14612Y-15769D01*
X14605Y-15767D01*
X14598Y-15763D01*
X14592Y-15758D01*
X14587Y-15753D01*
X14584Y-15746D01*
X14581Y-15739D01*
X14581Y-15731D01*
X14581Y-15724D01*
X14583Y-15717D01*
X14587Y-15710D01*
X14591Y-15704D01*
X14597Y-15699D01*
X14604Y-15696D01*
X14611Y-15693D01*
X14619Y-15693D01*
X14625Y-15693D01*
X14633Y-15695D01*
X14639Y-15699D01*
X14645Y-15703D01*
X14650Y-15709D01*
X14654Y-15716D01*
X14657Y-15723D01*
X14657Y-15730D01*
X14658Y-15731D01*
X14737Y-15613D02*
X14737Y-17187D01*
X14737Y-17187D02*
X13163Y-17187D01*
X13163Y-17187D02*
X13163Y-15613D01*
X13163Y-15613D02*
X14737Y-15613D01*
G54D13*
X14900Y-14700D02*
X14700Y-14700D01*
X14700Y-14700D02*
X14700Y-15000D01*
X14700Y-15000D02*
X14900Y-15000D01*
X15100Y-14700D02*
X15300Y-14700D01*
X15300Y-14700D02*
X15300Y-15000D01*
X15300Y-15000D02*
X15100Y-15000D01*
X14150Y-18750D02*
X13950Y-18750D01*
X13950Y-18750D02*
X13950Y-19050D01*
X13950Y-19050D02*
X14150Y-19050D01*
X14350Y-18750D02*
X14550Y-18750D01*
X14550Y-18750D02*
X14550Y-19050D01*
X14550Y-19050D02*
X14350Y-19050D01*
X14750Y-18300D02*
X14750Y-17400D01*
X14750Y-17400D02*
X15250Y-17400D01*
X15250Y-17400D02*
X15250Y-18300D01*
X15250Y-18300D02*
X14750Y-18300D01*
G54D16*
X12687Y-16020D02*
X12693Y-16026D01*
X12699Y-16043D01*
X12699Y-16054D01*
X12693Y-16071D01*
X12681Y-16083D01*
X12670Y-16088D01*
X12647Y-16094D01*
X12630Y-16094D01*
X12607Y-16088D01*
X12596Y-16083D01*
X12584Y-16071D01*
X12579Y-16054D01*
X12579Y-16043D01*
X12584Y-16026D01*
X12590Y-16020D01*
X12590Y-15974D02*
X12584Y-15968D01*
X12579Y-15957D01*
X12579Y-15928D01*
X12584Y-15917D01*
X12590Y-15911D01*
X12601Y-15906D01*
X12613Y-15906D01*
X12630Y-15911D01*
X12699Y-15980D01*
X12699Y-15906D01*
X13180Y-14537D02*
X13174Y-14543D01*
X13157Y-14549D01*
X13146Y-14549D01*
X13129Y-14543D01*
X13117Y-14531D01*
X13112Y-14520D01*
X13106Y-14497D01*
X13106Y-14480D01*
X13112Y-14457D01*
X13117Y-14446D01*
X13129Y-14434D01*
X13146Y-14429D01*
X13157Y-14429D01*
X13174Y-14434D01*
X13180Y-14440D01*
X13294Y-14549D02*
X13226Y-14549D01*
X13260Y-14549D02*
X13260Y-14429D01*
X13249Y-14446D01*
X13237Y-14457D01*
X13226Y-14463D01*
G54D17*
X13674Y-07024D02*
X13655Y-07043D01*
X13598Y-07062D01*
X13560Y-07062D01*
X13502Y-07043D01*
X13464Y-07005D01*
X13445Y-06967D01*
X13426Y-06890D01*
X13426Y-06833D01*
X13445Y-06757D01*
X13464Y-06719D01*
X13502Y-06681D01*
X13560Y-06662D01*
X13598Y-06662D01*
X13655Y-06681D01*
X13674Y-06700D01*
X13845Y-07062D02*
X13845Y-06662D01*
X14074Y-07062D01*
X14074Y-06662D01*
X14245Y-06700D02*
X14264Y-06681D01*
X14302Y-06662D01*
X14398Y-06662D01*
X14436Y-06681D01*
X14455Y-06700D01*
X14474Y-06738D01*
X14474Y-06776D01*
X14455Y-06833D01*
X14226Y-07062D01*
X14474Y-07062D01*
X13674Y-26024D02*
X13655Y-26043D01*
X13598Y-26062D01*
X13560Y-26062D01*
X13502Y-26043D01*
X13464Y-26005D01*
X13445Y-25967D01*
X13426Y-25890D01*
X13426Y-25833D01*
X13445Y-25757D01*
X13464Y-25719D01*
X13502Y-25681D01*
X13560Y-25662D01*
X13598Y-25662D01*
X13655Y-25681D01*
X13674Y-25700D01*
X13845Y-26062D02*
X13845Y-25662D01*
X14074Y-26062D01*
X14074Y-25662D01*
X14474Y-26062D02*
X14245Y-26062D01*
X14359Y-26062D02*
X14359Y-25662D01*
X14321Y-25719D01*
X14283Y-25757D01*
X14245Y-25776D01*
G54D16*
X14230Y-17937D02*
X14224Y-17943D01*
X14207Y-17949D01*
X14196Y-17949D01*
X14179Y-17943D01*
X14167Y-17931D01*
X14162Y-17920D01*
X14156Y-17897D01*
X14156Y-17880D01*
X14162Y-17857D01*
X14167Y-17846D01*
X14179Y-17834D01*
X14196Y-17829D01*
X14207Y-17829D01*
X14224Y-17834D01*
X14230Y-17840D01*
X14270Y-17829D02*
X14344Y-17829D01*
X14304Y-17874D01*
X14322Y-17874D01*
X14333Y-17880D01*
X14339Y-17886D01*
X14344Y-17897D01*
X14344Y-17926D01*
X14339Y-17937D01*
X14333Y-17943D01*
X14322Y-17949D01*
X14287Y-17949D01*
X14276Y-17943D01*
X14270Y-17937D01*
G54D15*
X15211Y-16700D02*
X15530Y-16700D01*
X15568Y-16681D01*
X15587Y-16663D01*
X15605Y-16625D01*
X15605Y-16550D01*
X15587Y-16513D01*
X15568Y-16494D01*
X15530Y-16475D01*
X15211Y-16475D01*
X15605Y-16081D02*
X15605Y-16306D01*
X15605Y-16193D02*
X15211Y-16193D01*
X15268Y-16231D01*
X15305Y-16268D01*
X15324Y-16306D01*
G54D16*
X14980Y-15199D02*
X14940Y-15141D01*
X14912Y-15199D02*
X14912Y-15079D01*
X14957Y-15079D01*
X14969Y-15084D01*
X14974Y-15090D01*
X14980Y-15101D01*
X14980Y-15119D01*
X14974Y-15130D01*
X14969Y-15136D01*
X14957Y-15141D01*
X14912Y-15141D01*
X15094Y-15199D02*
X15026Y-15199D01*
X15060Y-15199D02*
X15060Y-15079D01*
X15049Y-15096D01*
X15037Y-15107D01*
X15026Y-15113D01*
X14230Y-19249D02*
X14190Y-19191D01*
X14162Y-19249D02*
X14162Y-19129D01*
X14207Y-19129D01*
X14219Y-19134D01*
X14224Y-19140D01*
X14230Y-19151D01*
X14230Y-19169D01*
X14224Y-19180D01*
X14219Y-19186D01*
X14207Y-19191D01*
X14162Y-19191D01*
X14276Y-19140D02*
X14282Y-19134D01*
X14293Y-19129D01*
X14322Y-19129D01*
X14333Y-19134D01*
X14339Y-19140D01*
X14344Y-19151D01*
X14344Y-19163D01*
X14339Y-19180D01*
X14270Y-19249D01*
X14344Y-19249D01*
G54D18*
X15062Y-17879D02*
X15071Y-17888D01*
X15081Y-17914D01*
X15081Y-17931D01*
X15071Y-17956D01*
X15052Y-17974D01*
X15033Y-17982D01*
X14995Y-17991D01*
X14967Y-17991D01*
X14929Y-17982D01*
X14910Y-17974D01*
X14890Y-17956D01*
X14881Y-17931D01*
X14881Y-17914D01*
X14890Y-17888D01*
X14900Y-17879D01*
X14948Y-17725D02*
X15081Y-17725D01*
X14871Y-17768D02*
X15014Y-17811D01*
X15014Y-17699D01*
M02*
