G04 (created by PCBNEW (2013-dec-23)-stable) date Mon 21 Jul 2014 03:55:54 PM UTC*
%MOIN*%
G04 Gerber Fmt 3.4, Leading zero omitted, Abs format*
%FSLAX34Y34*%
G01*
G70*
G90*
G04 APERTURE LIST*
%ADD10C,0.00590551*%
%ADD11R,0.06X0.06*%
%ADD12C,0.06*%
%ADD13C,0.035*%
%ADD14C,0.032*%
%ADD15C,0.01*%
G04 APERTURE END LIST*
G54D10*
G54D11*
X25100Y-16000D03*
G54D12*
X26100Y-16000D03*
X25984Y-19500D03*
X24015Y-19500D03*
X22284Y-17500D03*
X20315Y-17500D03*
X18684Y-19500D03*
X16715Y-19500D03*
G54D11*
X10600Y-21000D03*
G54D12*
X10600Y-20000D03*
X10600Y-19000D03*
X10600Y-18000D03*
X10600Y-17000D03*
X10600Y-16000D03*
G54D11*
X27600Y-21000D03*
G54D12*
X27600Y-20000D03*
X27600Y-19000D03*
X27600Y-18000D03*
X27600Y-17000D03*
X27600Y-16000D03*
X15084Y-17500D03*
X13115Y-17500D03*
G54D13*
X19300Y-16000D03*
X14400Y-21000D03*
X19700Y-21200D03*
G54D14*
X14400Y-21000D02*
X10600Y-21000D01*
X26100Y-16000D02*
X26700Y-16600D01*
X26100Y-21200D02*
X19700Y-21200D01*
X26700Y-20600D02*
X26100Y-21200D01*
X26700Y-16600D02*
X26700Y-20600D01*
G54D10*
G36*
X26390Y-20471D02*
X25971Y-20890D01*
X25090Y-20890D01*
X25090Y-16427D01*
X25090Y-16010D01*
X24672Y-16010D01*
X24630Y-16052D01*
X24629Y-16266D01*
X24630Y-16333D01*
X24655Y-16396D01*
X24703Y-16444D01*
X24766Y-16470D01*
X25047Y-16470D01*
X25090Y-16427D01*
X25090Y-20890D01*
X24465Y-20890D01*
X24465Y-19410D01*
X24397Y-19245D01*
X24270Y-19118D01*
X24105Y-19050D01*
X23926Y-19049D01*
X23761Y-19118D01*
X23634Y-19244D01*
X23565Y-19410D01*
X23565Y-19589D01*
X23634Y-19754D01*
X23760Y-19881D01*
X23925Y-19949D01*
X24104Y-19950D01*
X24270Y-19881D01*
X24397Y-19755D01*
X24465Y-19589D01*
X24465Y-19410D01*
X24465Y-20890D01*
X22734Y-20890D01*
X22734Y-17410D01*
X22665Y-17245D01*
X22539Y-17118D01*
X22374Y-17050D01*
X22195Y-17049D01*
X22029Y-17118D01*
X21902Y-17244D01*
X21834Y-17410D01*
X21834Y-17589D01*
X21902Y-17754D01*
X22029Y-17881D01*
X22194Y-17949D01*
X22373Y-17950D01*
X22538Y-17881D01*
X22665Y-17755D01*
X22734Y-17589D01*
X22734Y-17410D01*
X22734Y-20890D01*
X20765Y-20890D01*
X20765Y-17410D01*
X20697Y-17245D01*
X20570Y-17118D01*
X20405Y-17050D01*
X20226Y-17049D01*
X20061Y-17118D01*
X19934Y-17244D01*
X19865Y-17410D01*
X19865Y-17589D01*
X19934Y-17754D01*
X20060Y-17881D01*
X20225Y-17949D01*
X20404Y-17950D01*
X20570Y-17881D01*
X20697Y-17755D01*
X20765Y-17589D01*
X20765Y-17410D01*
X20765Y-20890D01*
X19800Y-20890D01*
X19764Y-20875D01*
X19635Y-20874D01*
X19516Y-20924D01*
X19424Y-21015D01*
X19375Y-21135D01*
X19374Y-21264D01*
X19424Y-21383D01*
X19460Y-21420D01*
X19134Y-21420D01*
X19134Y-19410D01*
X19065Y-19245D01*
X18939Y-19118D01*
X18774Y-19050D01*
X18595Y-19049D01*
X18429Y-19118D01*
X18302Y-19244D01*
X18234Y-19410D01*
X18234Y-19589D01*
X18302Y-19754D01*
X18429Y-19881D01*
X18594Y-19949D01*
X18773Y-19950D01*
X18938Y-19881D01*
X19065Y-19755D01*
X19134Y-19589D01*
X19134Y-19410D01*
X19134Y-21420D01*
X17165Y-21420D01*
X17165Y-19410D01*
X17097Y-19245D01*
X16970Y-19118D01*
X16805Y-19050D01*
X16626Y-19049D01*
X16461Y-19118D01*
X16334Y-19244D01*
X16265Y-19410D01*
X16265Y-19589D01*
X16334Y-19754D01*
X16460Y-19881D01*
X16625Y-19949D01*
X16804Y-19950D01*
X16970Y-19881D01*
X17097Y-19755D01*
X17165Y-19589D01*
X17165Y-19410D01*
X17165Y-21420D01*
X15534Y-21420D01*
X15534Y-17410D01*
X15465Y-17245D01*
X15339Y-17118D01*
X15174Y-17050D01*
X14995Y-17049D01*
X14829Y-17118D01*
X14702Y-17244D01*
X14634Y-17410D01*
X14634Y-17589D01*
X14702Y-17754D01*
X14829Y-17881D01*
X14994Y-17949D01*
X15173Y-17950D01*
X15338Y-17881D01*
X15465Y-17755D01*
X15534Y-17589D01*
X15534Y-17410D01*
X15534Y-21420D01*
X10991Y-21420D01*
X11027Y-21385D01*
X11049Y-21329D01*
X11049Y-21310D01*
X14299Y-21310D01*
X14335Y-21324D01*
X14464Y-21325D01*
X14583Y-21275D01*
X14675Y-21184D01*
X14724Y-21064D01*
X14725Y-20935D01*
X14675Y-20816D01*
X14584Y-20724D01*
X14464Y-20675D01*
X14335Y-20674D01*
X14299Y-20690D01*
X13587Y-20690D01*
X13587Y-17415D01*
X13519Y-17241D01*
X13509Y-17226D01*
X13431Y-17198D01*
X13417Y-17212D01*
X13417Y-17184D01*
X13389Y-17106D01*
X13217Y-17031D01*
X13030Y-17028D01*
X12856Y-17096D01*
X12842Y-17106D01*
X12814Y-17184D01*
X13115Y-17485D01*
X13417Y-17184D01*
X13417Y-17212D01*
X13129Y-17500D01*
X13431Y-17801D01*
X13509Y-17773D01*
X13583Y-17602D01*
X13587Y-17415D01*
X13587Y-20690D01*
X13417Y-20690D01*
X13417Y-17815D01*
X13115Y-17514D01*
X13101Y-17528D01*
X13101Y-17500D01*
X12799Y-17198D01*
X12722Y-17226D01*
X12647Y-17397D01*
X12644Y-17584D01*
X12712Y-17758D01*
X12722Y-17773D01*
X12799Y-17801D01*
X13101Y-17500D01*
X13101Y-17528D01*
X12814Y-17815D01*
X12842Y-17893D01*
X13013Y-17968D01*
X13200Y-17971D01*
X13374Y-17903D01*
X13389Y-17893D01*
X13417Y-17815D01*
X13417Y-20690D01*
X11071Y-20690D01*
X11071Y-19915D01*
X11003Y-19741D01*
X10993Y-19726D01*
X10915Y-19698D01*
X10901Y-19712D01*
X10901Y-19684D01*
X10873Y-19606D01*
X10702Y-19531D01*
X10515Y-19528D01*
X10341Y-19596D01*
X10326Y-19606D01*
X10298Y-19684D01*
X10600Y-19985D01*
X10901Y-19684D01*
X10901Y-19712D01*
X10614Y-20000D01*
X10915Y-20301D01*
X10993Y-20273D01*
X11068Y-20102D01*
X11071Y-19915D01*
X11071Y-20690D01*
X11050Y-20690D01*
X11050Y-20670D01*
X11027Y-20615D01*
X10985Y-20572D01*
X10929Y-20550D01*
X10901Y-20550D01*
X10901Y-20315D01*
X10600Y-20014D01*
X10298Y-20315D01*
X10326Y-20393D01*
X10497Y-20468D01*
X10684Y-20471D01*
X10858Y-20403D01*
X10873Y-20393D01*
X10901Y-20315D01*
X10901Y-20550D01*
X10870Y-20549D01*
X10270Y-20549D01*
X10215Y-20572D01*
X10179Y-20608D01*
X10179Y-20215D01*
X10196Y-20258D01*
X10206Y-20273D01*
X10284Y-20301D01*
X10585Y-20000D01*
X10284Y-19698D01*
X10206Y-19726D01*
X10179Y-19788D01*
X10179Y-19160D01*
X10218Y-19254D01*
X10344Y-19381D01*
X10510Y-19449D01*
X10689Y-19450D01*
X10854Y-19381D01*
X10981Y-19255D01*
X11049Y-19089D01*
X11050Y-18910D01*
X10981Y-18745D01*
X10855Y-18618D01*
X10689Y-18550D01*
X10510Y-18549D01*
X10345Y-18618D01*
X10218Y-18744D01*
X10179Y-18839D01*
X10179Y-18160D01*
X10218Y-18254D01*
X10344Y-18381D01*
X10510Y-18449D01*
X10689Y-18450D01*
X10854Y-18381D01*
X10981Y-18255D01*
X11049Y-18089D01*
X11050Y-17910D01*
X10981Y-17745D01*
X10855Y-17618D01*
X10689Y-17550D01*
X10510Y-17549D01*
X10345Y-17618D01*
X10218Y-17744D01*
X10179Y-17839D01*
X10179Y-17160D01*
X10218Y-17254D01*
X10344Y-17381D01*
X10510Y-17449D01*
X10689Y-17450D01*
X10854Y-17381D01*
X10981Y-17255D01*
X11049Y-17089D01*
X11050Y-16910D01*
X10981Y-16745D01*
X10855Y-16618D01*
X10689Y-16550D01*
X10510Y-16549D01*
X10345Y-16618D01*
X10218Y-16744D01*
X10179Y-16839D01*
X10179Y-16160D01*
X10218Y-16254D01*
X10344Y-16381D01*
X10510Y-16449D01*
X10689Y-16450D01*
X10854Y-16381D01*
X10981Y-16255D01*
X11049Y-16089D01*
X11050Y-15910D01*
X10981Y-15745D01*
X10855Y-15618D01*
X10760Y-15579D01*
X24680Y-15579D01*
X24655Y-15603D01*
X24630Y-15666D01*
X24629Y-15733D01*
X24630Y-15947D01*
X24672Y-15990D01*
X25090Y-15990D01*
X25090Y-15982D01*
X25110Y-15982D01*
X25110Y-15990D01*
X25527Y-15990D01*
X25570Y-15947D01*
X25570Y-15733D01*
X25569Y-15666D01*
X25544Y-15603D01*
X25519Y-15579D01*
X25939Y-15579D01*
X25845Y-15618D01*
X25718Y-15744D01*
X25650Y-15910D01*
X25649Y-16089D01*
X25718Y-16254D01*
X25844Y-16381D01*
X26010Y-16449D01*
X26111Y-16450D01*
X26390Y-16728D01*
X26390Y-19303D01*
X26365Y-19245D01*
X26239Y-19118D01*
X26074Y-19050D01*
X25895Y-19049D01*
X25729Y-19118D01*
X25602Y-19244D01*
X25570Y-19324D01*
X25570Y-16266D01*
X25570Y-16052D01*
X25527Y-16010D01*
X25110Y-16010D01*
X25110Y-16427D01*
X25152Y-16470D01*
X25433Y-16470D01*
X25496Y-16444D01*
X25544Y-16396D01*
X25569Y-16333D01*
X25570Y-16266D01*
X25570Y-19324D01*
X25534Y-19410D01*
X25534Y-19589D01*
X25602Y-19754D01*
X25729Y-19881D01*
X25894Y-19949D01*
X26073Y-19950D01*
X26238Y-19881D01*
X26365Y-19755D01*
X26390Y-19696D01*
X26390Y-20471D01*
X26390Y-20471D01*
G37*
G54D15*
X26390Y-20471D02*
X25971Y-20890D01*
X25090Y-20890D01*
X25090Y-16427D01*
X25090Y-16010D01*
X24672Y-16010D01*
X24630Y-16052D01*
X24629Y-16266D01*
X24630Y-16333D01*
X24655Y-16396D01*
X24703Y-16444D01*
X24766Y-16470D01*
X25047Y-16470D01*
X25090Y-16427D01*
X25090Y-20890D01*
X24465Y-20890D01*
X24465Y-19410D01*
X24397Y-19245D01*
X24270Y-19118D01*
X24105Y-19050D01*
X23926Y-19049D01*
X23761Y-19118D01*
X23634Y-19244D01*
X23565Y-19410D01*
X23565Y-19589D01*
X23634Y-19754D01*
X23760Y-19881D01*
X23925Y-19949D01*
X24104Y-19950D01*
X24270Y-19881D01*
X24397Y-19755D01*
X24465Y-19589D01*
X24465Y-19410D01*
X24465Y-20890D01*
X22734Y-20890D01*
X22734Y-17410D01*
X22665Y-17245D01*
X22539Y-17118D01*
X22374Y-17050D01*
X22195Y-17049D01*
X22029Y-17118D01*
X21902Y-17244D01*
X21834Y-17410D01*
X21834Y-17589D01*
X21902Y-17754D01*
X22029Y-17881D01*
X22194Y-17949D01*
X22373Y-17950D01*
X22538Y-17881D01*
X22665Y-17755D01*
X22734Y-17589D01*
X22734Y-17410D01*
X22734Y-20890D01*
X20765Y-20890D01*
X20765Y-17410D01*
X20697Y-17245D01*
X20570Y-17118D01*
X20405Y-17050D01*
X20226Y-17049D01*
X20061Y-17118D01*
X19934Y-17244D01*
X19865Y-17410D01*
X19865Y-17589D01*
X19934Y-17754D01*
X20060Y-17881D01*
X20225Y-17949D01*
X20404Y-17950D01*
X20570Y-17881D01*
X20697Y-17755D01*
X20765Y-17589D01*
X20765Y-17410D01*
X20765Y-20890D01*
X19800Y-20890D01*
X19764Y-20875D01*
X19635Y-20874D01*
X19516Y-20924D01*
X19424Y-21015D01*
X19375Y-21135D01*
X19374Y-21264D01*
X19424Y-21383D01*
X19460Y-21420D01*
X19134Y-21420D01*
X19134Y-19410D01*
X19065Y-19245D01*
X18939Y-19118D01*
X18774Y-19050D01*
X18595Y-19049D01*
X18429Y-19118D01*
X18302Y-19244D01*
X18234Y-19410D01*
X18234Y-19589D01*
X18302Y-19754D01*
X18429Y-19881D01*
X18594Y-19949D01*
X18773Y-19950D01*
X18938Y-19881D01*
X19065Y-19755D01*
X19134Y-19589D01*
X19134Y-19410D01*
X19134Y-21420D01*
X17165Y-21420D01*
X17165Y-19410D01*
X17097Y-19245D01*
X16970Y-19118D01*
X16805Y-19050D01*
X16626Y-19049D01*
X16461Y-19118D01*
X16334Y-19244D01*
X16265Y-19410D01*
X16265Y-19589D01*
X16334Y-19754D01*
X16460Y-19881D01*
X16625Y-19949D01*
X16804Y-19950D01*
X16970Y-19881D01*
X17097Y-19755D01*
X17165Y-19589D01*
X17165Y-19410D01*
X17165Y-21420D01*
X15534Y-21420D01*
X15534Y-17410D01*
X15465Y-17245D01*
X15339Y-17118D01*
X15174Y-17050D01*
X14995Y-17049D01*
X14829Y-17118D01*
X14702Y-17244D01*
X14634Y-17410D01*
X14634Y-17589D01*
X14702Y-17754D01*
X14829Y-17881D01*
X14994Y-17949D01*
X15173Y-17950D01*
X15338Y-17881D01*
X15465Y-17755D01*
X15534Y-17589D01*
X15534Y-17410D01*
X15534Y-21420D01*
X10991Y-21420D01*
X11027Y-21385D01*
X11049Y-21329D01*
X11049Y-21310D01*
X14299Y-21310D01*
X14335Y-21324D01*
X14464Y-21325D01*
X14583Y-21275D01*
X14675Y-21184D01*
X14724Y-21064D01*
X14725Y-20935D01*
X14675Y-20816D01*
X14584Y-20724D01*
X14464Y-20675D01*
X14335Y-20674D01*
X14299Y-20690D01*
X13587Y-20690D01*
X13587Y-17415D01*
X13519Y-17241D01*
X13509Y-17226D01*
X13431Y-17198D01*
X13417Y-17212D01*
X13417Y-17184D01*
X13389Y-17106D01*
X13217Y-17031D01*
X13030Y-17028D01*
X12856Y-17096D01*
X12842Y-17106D01*
X12814Y-17184D01*
X13115Y-17485D01*
X13417Y-17184D01*
X13417Y-17212D01*
X13129Y-17500D01*
X13431Y-17801D01*
X13509Y-17773D01*
X13583Y-17602D01*
X13587Y-17415D01*
X13587Y-20690D01*
X13417Y-20690D01*
X13417Y-17815D01*
X13115Y-17514D01*
X13101Y-17528D01*
X13101Y-17500D01*
X12799Y-17198D01*
X12722Y-17226D01*
X12647Y-17397D01*
X12644Y-17584D01*
X12712Y-17758D01*
X12722Y-17773D01*
X12799Y-17801D01*
X13101Y-17500D01*
X13101Y-17528D01*
X12814Y-17815D01*
X12842Y-17893D01*
X13013Y-17968D01*
X13200Y-17971D01*
X13374Y-17903D01*
X13389Y-17893D01*
X13417Y-17815D01*
X13417Y-20690D01*
X11071Y-20690D01*
X11071Y-19915D01*
X11003Y-19741D01*
X10993Y-19726D01*
X10915Y-19698D01*
X10901Y-19712D01*
X10901Y-19684D01*
X10873Y-19606D01*
X10702Y-19531D01*
X10515Y-19528D01*
X10341Y-19596D01*
X10326Y-19606D01*
X10298Y-19684D01*
X10600Y-19985D01*
X10901Y-19684D01*
X10901Y-19712D01*
X10614Y-20000D01*
X10915Y-20301D01*
X10993Y-20273D01*
X11068Y-20102D01*
X11071Y-19915D01*
X11071Y-20690D01*
X11050Y-20690D01*
X11050Y-20670D01*
X11027Y-20615D01*
X10985Y-20572D01*
X10929Y-20550D01*
X10901Y-20550D01*
X10901Y-20315D01*
X10600Y-20014D01*
X10298Y-20315D01*
X10326Y-20393D01*
X10497Y-20468D01*
X10684Y-20471D01*
X10858Y-20403D01*
X10873Y-20393D01*
X10901Y-20315D01*
X10901Y-20550D01*
X10870Y-20549D01*
X10270Y-20549D01*
X10215Y-20572D01*
X10179Y-20608D01*
X10179Y-20215D01*
X10196Y-20258D01*
X10206Y-20273D01*
X10284Y-20301D01*
X10585Y-20000D01*
X10284Y-19698D01*
X10206Y-19726D01*
X10179Y-19788D01*
X10179Y-19160D01*
X10218Y-19254D01*
X10344Y-19381D01*
X10510Y-19449D01*
X10689Y-19450D01*
X10854Y-19381D01*
X10981Y-19255D01*
X11049Y-19089D01*
X11050Y-18910D01*
X10981Y-18745D01*
X10855Y-18618D01*
X10689Y-18550D01*
X10510Y-18549D01*
X10345Y-18618D01*
X10218Y-18744D01*
X10179Y-18839D01*
X10179Y-18160D01*
X10218Y-18254D01*
X10344Y-18381D01*
X10510Y-18449D01*
X10689Y-18450D01*
X10854Y-18381D01*
X10981Y-18255D01*
X11049Y-18089D01*
X11050Y-17910D01*
X10981Y-17745D01*
X10855Y-17618D01*
X10689Y-17550D01*
X10510Y-17549D01*
X10345Y-17618D01*
X10218Y-17744D01*
X10179Y-17839D01*
X10179Y-17160D01*
X10218Y-17254D01*
X10344Y-17381D01*
X10510Y-17449D01*
X10689Y-17450D01*
X10854Y-17381D01*
X10981Y-17255D01*
X11049Y-17089D01*
X11050Y-16910D01*
X10981Y-16745D01*
X10855Y-16618D01*
X10689Y-16550D01*
X10510Y-16549D01*
X10345Y-16618D01*
X10218Y-16744D01*
X10179Y-16839D01*
X10179Y-16160D01*
X10218Y-16254D01*
X10344Y-16381D01*
X10510Y-16449D01*
X10689Y-16450D01*
X10854Y-16381D01*
X10981Y-16255D01*
X11049Y-16089D01*
X11050Y-15910D01*
X10981Y-15745D01*
X10855Y-15618D01*
X10760Y-15579D01*
X24680Y-15579D01*
X24655Y-15603D01*
X24630Y-15666D01*
X24629Y-15733D01*
X24630Y-15947D01*
X24672Y-15990D01*
X25090Y-15990D01*
X25090Y-15982D01*
X25110Y-15982D01*
X25110Y-15990D01*
X25527Y-15990D01*
X25570Y-15947D01*
X25570Y-15733D01*
X25569Y-15666D01*
X25544Y-15603D01*
X25519Y-15579D01*
X25939Y-15579D01*
X25845Y-15618D01*
X25718Y-15744D01*
X25650Y-15910D01*
X25649Y-16089D01*
X25718Y-16254D01*
X25844Y-16381D01*
X26010Y-16449D01*
X26111Y-16450D01*
X26390Y-16728D01*
X26390Y-19303D01*
X26365Y-19245D01*
X26239Y-19118D01*
X26074Y-19050D01*
X25895Y-19049D01*
X25729Y-19118D01*
X25602Y-19244D01*
X25570Y-19324D01*
X25570Y-16266D01*
X25570Y-16052D01*
X25527Y-16010D01*
X25110Y-16010D01*
X25110Y-16427D01*
X25152Y-16470D01*
X25433Y-16470D01*
X25496Y-16444D01*
X25544Y-16396D01*
X25569Y-16333D01*
X25570Y-16266D01*
X25570Y-19324D01*
X25534Y-19410D01*
X25534Y-19589D01*
X25602Y-19754D01*
X25729Y-19881D01*
X25894Y-19949D01*
X26073Y-19950D01*
X26238Y-19881D01*
X26365Y-19755D01*
X26390Y-19696D01*
X26390Y-20471D01*
M02*
