G04 (created by PCBNEW (2013-dec-23)-stable) date Mon 21 Jul 2014 03:55:54 PM UTC*
%MOIN*%
G04 Gerber Fmt 3.4, Leading zero omitted, Abs format*
%FSLAX34Y34*%
G01*
G70*
G90*
G04 APERTURE LIST*
%ADD10C,0.00590551*%
%ADD11C,0.011811*%
%ADD12C,0.00787402*%
%ADD13C,0.0001*%
G04 APERTURE END LIST*
G54D10*
G54D11*
X26734Y-16968D02*
X26667Y-16991D01*
X26554Y-16991D01*
X26509Y-16968D01*
X26487Y-16946D01*
X26464Y-16901D01*
X26464Y-16856D01*
X26487Y-16811D01*
X26509Y-16788D01*
X26554Y-16766D01*
X26644Y-16743D01*
X26689Y-16721D01*
X26712Y-16698D01*
X26734Y-16653D01*
X26734Y-16608D01*
X26712Y-16563D01*
X26689Y-16541D01*
X26644Y-16518D01*
X26532Y-16518D01*
X26464Y-16541D01*
X26172Y-16518D02*
X26082Y-16518D01*
X26037Y-16541D01*
X25992Y-16586D01*
X25969Y-16676D01*
X25969Y-16833D01*
X25992Y-16923D01*
X26037Y-16968D01*
X26082Y-16991D01*
X26172Y-16991D01*
X26217Y-16968D01*
X26262Y-16923D01*
X26284Y-16833D01*
X26284Y-16676D01*
X26262Y-16586D01*
X26217Y-16541D01*
X26172Y-16518D01*
X25542Y-16991D02*
X25767Y-16991D01*
X25767Y-16518D01*
X25407Y-16856D02*
X25182Y-16856D01*
X25452Y-16991D02*
X25294Y-16518D01*
X25137Y-16991D01*
X24709Y-16991D02*
X24867Y-16766D01*
X24979Y-16991D02*
X24979Y-16518D01*
X24799Y-16518D01*
X24754Y-16541D01*
X24732Y-16563D01*
X24709Y-16608D01*
X24709Y-16676D01*
X24732Y-16721D01*
X24754Y-16743D01*
X24799Y-16766D01*
X24979Y-16766D01*
X24147Y-16991D02*
X24147Y-16518D01*
X24147Y-16743D02*
X23877Y-16743D01*
X23877Y-16991D02*
X23877Y-16518D01*
X23674Y-16856D02*
X23449Y-16856D01*
X23719Y-16991D02*
X23562Y-16518D01*
X23404Y-16991D01*
X22977Y-16991D02*
X23134Y-16766D01*
X23247Y-16991D02*
X23247Y-16518D01*
X23067Y-16518D01*
X23022Y-16541D01*
X22999Y-16563D01*
X22977Y-16608D01*
X22977Y-16676D01*
X22999Y-16721D01*
X23022Y-16743D01*
X23067Y-16766D01*
X23247Y-16766D01*
X22842Y-16518D02*
X22685Y-16991D01*
X22527Y-16518D01*
X22370Y-16743D02*
X22212Y-16743D01*
X22145Y-16991D02*
X22370Y-16991D01*
X22370Y-16518D01*
X22145Y-16518D01*
X21965Y-16968D02*
X21897Y-16991D01*
X21785Y-16991D01*
X21740Y-16968D01*
X21717Y-16946D01*
X21695Y-16901D01*
X21695Y-16856D01*
X21717Y-16811D01*
X21740Y-16788D01*
X21785Y-16766D01*
X21875Y-16743D01*
X21920Y-16721D01*
X21942Y-16698D01*
X21965Y-16653D01*
X21965Y-16608D01*
X21942Y-16563D01*
X21920Y-16541D01*
X21875Y-16518D01*
X21762Y-16518D01*
X21695Y-16541D01*
X21560Y-16518D02*
X21290Y-16518D01*
X21425Y-16991D02*
X21425Y-16518D01*
X21132Y-16743D02*
X20975Y-16743D01*
X20907Y-16991D02*
X21132Y-16991D01*
X21132Y-16518D01*
X20907Y-16518D01*
X20435Y-16991D02*
X20592Y-16766D01*
X20705Y-16991D02*
X20705Y-16518D01*
X20525Y-16518D01*
X20480Y-16541D01*
X20457Y-16563D01*
X20435Y-16608D01*
X20435Y-16676D01*
X20457Y-16721D01*
X20480Y-16743D01*
X20525Y-16766D01*
X20705Y-16766D01*
X19917Y-16676D02*
X19805Y-16991D01*
X19692Y-16676D01*
X19265Y-16991D02*
X19535Y-16991D01*
X19400Y-16991D02*
X19400Y-16518D01*
X19445Y-16586D01*
X19490Y-16631D01*
X19535Y-16653D01*
G54D12*
X26967Y-19912D02*
X26862Y-20227D01*
X26757Y-19912D01*
X26727Y-20257D02*
X26487Y-20257D01*
X26412Y-20227D02*
X26412Y-19912D01*
X26307Y-20137D01*
X26202Y-19912D01*
X26202Y-20227D01*
X26052Y-20062D02*
X25947Y-20062D01*
X25902Y-20227D02*
X26052Y-20227D01*
X26052Y-19912D01*
X25902Y-19912D01*
X25782Y-20137D02*
X25632Y-20137D01*
X25812Y-20227D02*
X25707Y-19912D01*
X25602Y-20227D01*
X25512Y-20212D02*
X25467Y-20227D01*
X25392Y-20227D01*
X25362Y-20212D01*
X25347Y-20197D01*
X25332Y-20167D01*
X25332Y-20137D01*
X25347Y-20107D01*
X25362Y-20092D01*
X25392Y-20077D01*
X25452Y-20062D01*
X25482Y-20047D01*
X25497Y-20032D01*
X25512Y-20002D01*
X25512Y-19972D01*
X25497Y-19942D01*
X25482Y-19927D01*
X25452Y-19912D01*
X25377Y-19912D01*
X25332Y-19927D01*
X25197Y-19912D02*
X25197Y-20167D01*
X25182Y-20197D01*
X25167Y-20212D01*
X25137Y-20227D01*
X25077Y-20227D01*
X25047Y-20212D01*
X25032Y-20197D01*
X25017Y-20167D01*
X25017Y-19912D01*
X24687Y-20227D02*
X24792Y-20077D01*
X24867Y-20227D02*
X24867Y-19912D01*
X24747Y-19912D01*
X24717Y-19927D01*
X24702Y-19942D01*
X24687Y-19972D01*
X24687Y-20017D01*
X24702Y-20047D01*
X24717Y-20062D01*
X24747Y-20077D01*
X24867Y-20077D01*
X24552Y-20062D02*
X24447Y-20062D01*
X24402Y-20227D02*
X24552Y-20227D01*
X24552Y-19912D01*
X24402Y-19912D01*
X24282Y-19942D02*
X24267Y-19927D01*
X24237Y-19912D01*
X24162Y-19912D01*
X24132Y-19927D01*
X24117Y-19942D01*
X24102Y-19972D01*
X24102Y-20002D01*
X24117Y-20047D01*
X24297Y-20227D01*
X24102Y-20227D01*
X24042Y-20257D02*
X23802Y-20257D01*
X23547Y-20197D02*
X23562Y-20212D01*
X23607Y-20227D01*
X23637Y-20227D01*
X23682Y-20212D01*
X23712Y-20182D01*
X23727Y-20152D01*
X23742Y-20092D01*
X23742Y-20047D01*
X23727Y-19987D01*
X23712Y-19957D01*
X23682Y-19927D01*
X23637Y-19912D01*
X23607Y-19912D01*
X23562Y-19927D01*
X23547Y-19942D01*
X23427Y-20137D02*
X23277Y-20137D01*
X23457Y-20227D02*
X23352Y-19912D01*
X23247Y-20227D01*
X23142Y-20227D02*
X23142Y-19912D01*
X23022Y-19912D01*
X22992Y-19927D01*
X22977Y-19942D01*
X22962Y-19972D01*
X22962Y-20017D01*
X22977Y-20047D01*
X22992Y-20062D01*
X23022Y-20077D01*
X23142Y-20077D01*
X22842Y-20212D02*
X22797Y-20227D01*
X22722Y-20227D01*
X22692Y-20212D01*
X22677Y-20197D01*
X22662Y-20167D01*
X22662Y-20137D01*
X22677Y-20107D01*
X22692Y-20092D01*
X22722Y-20077D01*
X22782Y-20062D01*
X22812Y-20047D01*
X22827Y-20032D01*
X22842Y-20002D01*
X22842Y-19972D01*
X22827Y-19942D01*
X22812Y-19927D01*
X22782Y-19912D01*
X22707Y-19912D01*
X22662Y-19927D01*
X15802Y-15812D02*
X15697Y-16127D01*
X15592Y-15812D01*
X15562Y-16157D02*
X15322Y-16157D01*
X15247Y-16127D02*
X15247Y-15812D01*
X15142Y-16037D01*
X15037Y-15812D01*
X15037Y-16127D01*
X14887Y-15962D02*
X14782Y-15962D01*
X14737Y-16127D02*
X14887Y-16127D01*
X14887Y-15812D01*
X14737Y-15812D01*
X14617Y-16037D02*
X14467Y-16037D01*
X14647Y-16127D02*
X14542Y-15812D01*
X14437Y-16127D01*
X14347Y-16112D02*
X14302Y-16127D01*
X14227Y-16127D01*
X14197Y-16112D01*
X14182Y-16097D01*
X14167Y-16067D01*
X14167Y-16037D01*
X14182Y-16007D01*
X14197Y-15992D01*
X14227Y-15977D01*
X14287Y-15962D01*
X14317Y-15947D01*
X14332Y-15932D01*
X14347Y-15902D01*
X14347Y-15872D01*
X14332Y-15842D01*
X14317Y-15827D01*
X14287Y-15812D01*
X14212Y-15812D01*
X14167Y-15827D01*
X14032Y-15812D02*
X14032Y-16067D01*
X14017Y-16097D01*
X14002Y-16112D01*
X13972Y-16127D01*
X13912Y-16127D01*
X13882Y-16112D01*
X13867Y-16097D01*
X13852Y-16067D01*
X13852Y-15812D01*
X13522Y-16127D02*
X13627Y-15977D01*
X13702Y-16127D02*
X13702Y-15812D01*
X13582Y-15812D01*
X13552Y-15827D01*
X13537Y-15842D01*
X13522Y-15872D01*
X13522Y-15917D01*
X13537Y-15947D01*
X13552Y-15962D01*
X13582Y-15977D01*
X13702Y-15977D01*
X13387Y-15962D02*
X13282Y-15962D01*
X13237Y-16127D02*
X13387Y-16127D01*
X13387Y-15812D01*
X13237Y-15812D01*
X12937Y-16127D02*
X13117Y-16127D01*
X13027Y-16127D02*
X13027Y-15812D01*
X13057Y-15857D01*
X13087Y-15887D01*
X13117Y-15902D01*
X12877Y-16157D02*
X12637Y-16157D01*
X12577Y-16112D02*
X12532Y-16127D01*
X12457Y-16127D01*
X12427Y-16112D01*
X12412Y-16097D01*
X12397Y-16067D01*
X12397Y-16037D01*
X12412Y-16007D01*
X12427Y-15992D01*
X12457Y-15977D01*
X12517Y-15962D01*
X12547Y-15947D01*
X12562Y-15932D01*
X12577Y-15902D01*
X12577Y-15872D01*
X12562Y-15842D01*
X12547Y-15827D01*
X12517Y-15812D01*
X12442Y-15812D01*
X12397Y-15827D01*
X12202Y-15812D02*
X12142Y-15812D01*
X12112Y-15827D01*
X12082Y-15857D01*
X12067Y-15917D01*
X12067Y-16022D01*
X12082Y-16082D01*
X12112Y-16112D01*
X12142Y-16127D01*
X12202Y-16127D01*
X12232Y-16112D01*
X12262Y-16082D01*
X12277Y-16022D01*
X12277Y-15917D01*
X12262Y-15857D01*
X12232Y-15827D01*
X12202Y-15812D01*
X11782Y-16127D02*
X11932Y-16127D01*
X11932Y-15812D01*
X11692Y-16037D02*
X11542Y-16037D01*
X11722Y-16127D02*
X11617Y-15812D01*
X11512Y-16127D01*
X11227Y-16127D02*
X11332Y-15977D01*
X11407Y-16127D02*
X11407Y-15812D01*
X11287Y-15812D01*
X11257Y-15827D01*
X11242Y-15842D01*
X11227Y-15872D01*
X11227Y-15917D01*
X11242Y-15947D01*
X11257Y-15962D01*
X11287Y-15977D01*
X11407Y-15977D01*
G54D13*
G36*
X17388Y-18922D02*
X17386Y-18929D01*
X17382Y-18941D01*
X17376Y-18958D01*
X17367Y-18977D01*
X17357Y-18999D01*
X17345Y-19024D01*
X17332Y-19049D01*
X17319Y-19075D01*
X17305Y-19102D01*
X17291Y-19127D01*
X17278Y-19151D01*
X17267Y-19169D01*
X17253Y-19193D01*
X17238Y-19217D01*
X17222Y-19241D01*
X17206Y-19265D01*
X17191Y-19286D01*
X17177Y-19306D01*
X17165Y-19322D01*
X17155Y-19335D01*
X17148Y-19342D01*
X17137Y-19349D01*
X17125Y-19350D01*
X17116Y-19348D01*
X17109Y-19343D01*
X17103Y-19336D01*
X17099Y-19328D01*
X17099Y-19319D01*
X17102Y-19309D01*
X17110Y-19295D01*
X17121Y-19280D01*
X17159Y-19226D01*
X17197Y-19168D01*
X17233Y-19107D01*
X17267Y-19044D01*
X17298Y-18981D01*
X17311Y-18954D01*
X17318Y-18937D01*
X17325Y-18923D01*
X17331Y-18911D01*
X17336Y-18902D01*
X17338Y-18900D01*
X17348Y-18893D01*
X17359Y-18891D01*
X17370Y-18893D01*
X17380Y-18900D01*
X17386Y-18911D01*
X17388Y-18922D01*
X17388Y-18922D01*
X17388Y-18922D01*
G37*
G36*
X17519Y-18963D02*
X17518Y-18970D01*
X17517Y-18976D01*
X17514Y-18986D01*
X17509Y-19001D01*
X17504Y-19020D01*
X17497Y-19042D01*
X17489Y-19067D01*
X17481Y-19094D01*
X17473Y-19121D01*
X17465Y-19149D01*
X17456Y-19177D01*
X17448Y-19203D01*
X17440Y-19228D01*
X17433Y-19251D01*
X17427Y-19270D01*
X17423Y-19285D01*
X17419Y-19296D01*
X17417Y-19301D01*
X17411Y-19314D01*
X17401Y-19322D01*
X17389Y-19324D01*
X17387Y-19324D01*
X17375Y-19322D01*
X17367Y-19317D01*
X17361Y-19307D01*
X17359Y-19297D01*
X17360Y-19292D01*
X17363Y-19282D01*
X17367Y-19267D01*
X17372Y-19249D01*
X17379Y-19227D01*
X17386Y-19202D01*
X17394Y-19175D01*
X17402Y-19148D01*
X17410Y-19119D01*
X17419Y-19091D01*
X17427Y-19064D01*
X17435Y-19038D01*
X17442Y-19014D01*
X17449Y-18994D01*
X17455Y-18977D01*
X17459Y-18964D01*
X17462Y-18956D01*
X17462Y-18955D01*
X17470Y-18944D01*
X17480Y-18938D01*
X17492Y-18937D01*
X17503Y-18940D01*
X17513Y-18949D01*
X17517Y-18955D01*
X17519Y-18963D01*
X17519Y-18963D01*
X17519Y-18963D01*
G37*
G36*
X17657Y-18988D02*
X17656Y-18997D01*
X17655Y-19010D01*
X17654Y-19027D01*
X17652Y-19049D01*
X17649Y-19075D01*
X17646Y-19101D01*
X17643Y-19129D01*
X17641Y-19155D01*
X17638Y-19178D01*
X17636Y-19199D01*
X17634Y-19216D01*
X17633Y-19228D01*
X17632Y-19235D01*
X17632Y-19236D01*
X17628Y-19245D01*
X17622Y-19254D01*
X17621Y-19255D01*
X17610Y-19263D01*
X17599Y-19264D01*
X17587Y-19259D01*
X17583Y-19256D01*
X17580Y-19253D01*
X17578Y-19250D01*
X17576Y-19247D01*
X17574Y-19242D01*
X17574Y-19236D01*
X17574Y-19228D01*
X17574Y-19216D01*
X17575Y-19202D01*
X17577Y-19183D01*
X17579Y-19160D01*
X17582Y-19131D01*
X17585Y-19098D01*
X17586Y-19091D01*
X17590Y-19057D01*
X17593Y-19029D01*
X17596Y-19006D01*
X17598Y-18988D01*
X17600Y-18975D01*
X17602Y-18967D01*
X17604Y-18963D01*
X17604Y-18963D01*
X17613Y-18954D01*
X17624Y-18950D01*
X17636Y-18951D01*
X17646Y-18957D01*
X17653Y-18965D01*
X17655Y-18968D01*
X17656Y-18971D01*
X17656Y-18975D01*
X17657Y-18980D01*
X17657Y-18988D01*
X17657Y-18988D01*
X17657Y-18988D01*
G37*
G36*
X17844Y-19177D02*
X17843Y-19181D01*
X17838Y-19192D01*
X17830Y-19200D01*
X17818Y-19204D01*
X17807Y-19204D01*
X17798Y-19200D01*
X17791Y-19192D01*
X17782Y-19178D01*
X17773Y-19160D01*
X17765Y-19138D01*
X17758Y-19113D01*
X17757Y-19110D01*
X17752Y-19091D01*
X17748Y-19069D01*
X17744Y-19044D01*
X17741Y-19020D01*
X17739Y-18997D01*
X17738Y-18979D01*
X17738Y-18975D01*
X17738Y-18962D01*
X17739Y-18953D01*
X17740Y-18948D01*
X17744Y-18943D01*
X17747Y-18940D01*
X17758Y-18932D01*
X17770Y-18930D01*
X17783Y-18935D01*
X17787Y-18938D01*
X17791Y-18941D01*
X17793Y-18946D01*
X17795Y-18952D01*
X17796Y-18962D01*
X17798Y-18977D01*
X17798Y-18978D01*
X17802Y-19022D01*
X17808Y-19060D01*
X17815Y-19093D01*
X17824Y-19122D01*
X17834Y-19147D01*
X17840Y-19160D01*
X17843Y-19170D01*
X17844Y-19177D01*
X17844Y-19177D01*
X17844Y-19177D01*
G37*
G36*
X19102Y-17332D02*
X19102Y-17335D01*
X19099Y-17337D01*
X19093Y-17338D01*
X19083Y-17339D01*
X19072Y-17340D01*
X19041Y-17342D01*
X19013Y-17345D01*
X18987Y-17349D01*
X18961Y-17354D01*
X18934Y-17360D01*
X18904Y-17368D01*
X18870Y-17377D01*
X18850Y-17383D01*
X18812Y-17396D01*
X18771Y-17411D01*
X18729Y-17428D01*
X18688Y-17447D01*
X18648Y-17467D01*
X18611Y-17487D01*
X18577Y-17507D01*
X18548Y-17526D01*
X18546Y-17528D01*
X18539Y-17534D01*
X18529Y-17545D01*
X18518Y-17559D01*
X18505Y-17577D01*
X18491Y-17596D01*
X18478Y-17615D01*
X18470Y-17626D01*
X18470Y-17479D01*
X18440Y-17467D01*
X18414Y-17458D01*
X18383Y-17448D01*
X18350Y-17438D01*
X18316Y-17428D01*
X18282Y-17420D01*
X18251Y-17413D01*
X18223Y-17407D01*
X18215Y-17406D01*
X18196Y-17404D01*
X18173Y-17402D01*
X18149Y-17401D01*
X18123Y-17401D01*
X18099Y-17401D01*
X18076Y-17402D01*
X18058Y-17404D01*
X18047Y-17406D01*
X18025Y-17412D01*
X18004Y-17421D01*
X17985Y-17431D01*
X17971Y-17443D01*
X17959Y-17458D01*
X17951Y-17480D01*
X17947Y-17498D01*
X17945Y-17511D01*
X17963Y-17520D01*
X17971Y-17524D01*
X17978Y-17526D01*
X17985Y-17527D01*
X17994Y-17528D01*
X18007Y-17527D01*
X18016Y-17527D01*
X18034Y-17525D01*
X18054Y-17523D01*
X18071Y-17521D01*
X18079Y-17520D01*
X18092Y-17518D01*
X18102Y-17517D01*
X18108Y-17516D01*
X18109Y-17517D01*
X18108Y-17518D01*
X18107Y-17518D01*
X18103Y-17521D01*
X18099Y-17528D01*
X18095Y-17536D01*
X18094Y-17543D01*
X18094Y-17543D01*
X18097Y-17552D01*
X18104Y-17560D01*
X18114Y-17568D01*
X18121Y-17571D01*
X18136Y-17574D01*
X18155Y-17574D01*
X18175Y-17572D01*
X18194Y-17567D01*
X18199Y-17565D01*
X18210Y-17559D01*
X18217Y-17553D01*
X18221Y-17546D01*
X18221Y-17545D01*
X18224Y-17534D01*
X18221Y-17523D01*
X18213Y-17514D01*
X18210Y-17511D01*
X18199Y-17503D01*
X18224Y-17503D01*
X18238Y-17502D01*
X18256Y-17501D01*
X18279Y-17500D01*
X18305Y-17497D01*
X18332Y-17495D01*
X18360Y-17492D01*
X18387Y-17490D01*
X18412Y-17487D01*
X18435Y-17484D01*
X18454Y-17481D01*
X18455Y-17481D01*
X18470Y-17479D01*
X18470Y-17626D01*
X18464Y-17635D01*
X18452Y-17653D01*
X18442Y-17670D01*
X18435Y-17684D01*
X18435Y-17684D01*
X18417Y-17720D01*
X18402Y-17756D01*
X18387Y-17792D01*
X18374Y-17829D01*
X18362Y-17868D01*
X18351Y-17909D01*
X18340Y-17954D01*
X18330Y-18002D01*
X18320Y-18055D01*
X18310Y-18112D01*
X18302Y-18163D01*
X18295Y-18205D01*
X18289Y-18241D01*
X18283Y-18273D01*
X18277Y-18300D01*
X18272Y-18326D01*
X18266Y-18349D01*
X18259Y-18370D01*
X18252Y-18392D01*
X18244Y-18413D01*
X18240Y-18423D01*
X18220Y-18471D01*
X18200Y-18515D01*
X18179Y-18555D01*
X18157Y-18591D01*
X18132Y-18626D01*
X18105Y-18659D01*
X18074Y-18693D01*
X18044Y-18723D01*
X18002Y-18761D01*
X17961Y-18793D01*
X17919Y-18821D01*
X17875Y-18845D01*
X17846Y-18859D01*
X17821Y-18870D01*
X17799Y-18878D01*
X17778Y-18885D01*
X17758Y-18890D01*
X17736Y-18894D01*
X17711Y-18897D01*
X17682Y-18900D01*
X17638Y-18903D01*
X17600Y-18905D01*
X17566Y-18904D01*
X17539Y-18901D01*
X17536Y-18900D01*
X17517Y-18897D01*
X17497Y-18892D01*
X17477Y-18887D01*
X17458Y-18882D01*
X17442Y-18876D01*
X17429Y-18872D01*
X17424Y-18869D01*
X17415Y-18862D01*
X17404Y-18853D01*
X17397Y-18847D01*
X17383Y-18832D01*
X17382Y-18799D01*
X17382Y-18747D01*
X17387Y-18692D01*
X17395Y-18634D01*
X17406Y-18574D01*
X17421Y-18513D01*
X17439Y-18453D01*
X17459Y-18393D01*
X17482Y-18335D01*
X17490Y-18318D01*
X17498Y-18300D01*
X17457Y-18275D01*
X17443Y-18266D01*
X17431Y-18259D01*
X17421Y-18253D01*
X17416Y-18250D01*
X17415Y-18250D01*
X17413Y-18252D01*
X17408Y-18259D01*
X17401Y-18271D01*
X17392Y-18286D01*
X17381Y-18303D01*
X17369Y-18323D01*
X17362Y-18334D01*
X17349Y-18355D01*
X17337Y-18375D01*
X17325Y-18393D01*
X17315Y-18408D01*
X17307Y-18420D01*
X17302Y-18427D01*
X17301Y-18428D01*
X17290Y-18437D01*
X17278Y-18439D01*
X17267Y-18434D01*
X17261Y-18430D01*
X17257Y-18425D01*
X17253Y-18421D01*
X17252Y-18416D01*
X17252Y-18410D01*
X17253Y-18402D01*
X17257Y-18393D01*
X17264Y-18380D01*
X17273Y-18364D01*
X17285Y-18344D01*
X17300Y-18319D01*
X17307Y-18307D01*
X17320Y-18286D01*
X17332Y-18266D01*
X17343Y-18249D01*
X17351Y-18235D01*
X17357Y-18224D01*
X17361Y-18218D01*
X17362Y-18217D01*
X17355Y-18212D01*
X17345Y-18204D01*
X17333Y-18194D01*
X17321Y-18183D01*
X17310Y-18173D01*
X17304Y-18167D01*
X17295Y-18158D01*
X17288Y-18150D01*
X17283Y-18146D01*
X17282Y-18146D01*
X17279Y-18147D01*
X17272Y-18152D01*
X17260Y-18159D01*
X17245Y-18169D01*
X17227Y-18181D01*
X17207Y-18194D01*
X17187Y-18207D01*
X17161Y-18224D01*
X17139Y-18239D01*
X17121Y-18250D01*
X17107Y-18258D01*
X17096Y-18264D01*
X17087Y-18267D01*
X17081Y-18269D01*
X17075Y-18268D01*
X17071Y-18266D01*
X17066Y-18262D01*
X17063Y-18259D01*
X17055Y-18248D01*
X17054Y-18236D01*
X17059Y-18224D01*
X17059Y-18224D01*
X17063Y-18220D01*
X17072Y-18213D01*
X17084Y-18204D01*
X17100Y-18193D01*
X17118Y-18180D01*
X17139Y-18166D01*
X17156Y-18154D01*
X17248Y-18094D01*
X17224Y-18051D01*
X17215Y-18036D01*
X17208Y-18023D01*
X17202Y-18013D01*
X17199Y-18007D01*
X17198Y-18006D01*
X17195Y-18006D01*
X17186Y-18007D01*
X17172Y-18008D01*
X17153Y-18010D01*
X17131Y-18013D01*
X17105Y-18016D01*
X17076Y-18019D01*
X17046Y-18023D01*
X17030Y-18026D01*
X16998Y-18030D01*
X16967Y-18034D01*
X16939Y-18037D01*
X16914Y-18041D01*
X16892Y-18043D01*
X16874Y-18045D01*
X16861Y-18047D01*
X16853Y-18048D01*
X16852Y-18048D01*
X16839Y-18045D01*
X16830Y-18037D01*
X16825Y-18025D01*
X16825Y-18023D01*
X16825Y-18009D01*
X16831Y-17998D01*
X16842Y-17992D01*
X16846Y-17991D01*
X16856Y-17989D01*
X16870Y-17987D01*
X16889Y-17984D01*
X16911Y-17981D01*
X16935Y-17977D01*
X16962Y-17974D01*
X16989Y-17970D01*
X17017Y-17966D01*
X17044Y-17962D01*
X17071Y-17959D01*
X17095Y-17955D01*
X17117Y-17953D01*
X17136Y-17950D01*
X17150Y-17948D01*
X17160Y-17947D01*
X17164Y-17947D01*
X17166Y-17947D01*
X17167Y-17946D01*
X17166Y-17943D01*
X17165Y-17937D01*
X17161Y-17927D01*
X17156Y-17913D01*
X17153Y-17904D01*
X17142Y-17873D01*
X16814Y-17802D01*
X16769Y-17792D01*
X16726Y-17783D01*
X16685Y-17774D01*
X16646Y-17765D01*
X16611Y-17757D01*
X16579Y-17750D01*
X16550Y-17744D01*
X16525Y-17738D01*
X16505Y-17734D01*
X16490Y-17730D01*
X16481Y-17728D01*
X16477Y-17726D01*
X16467Y-17719D01*
X16462Y-17709D01*
X16461Y-17701D01*
X16464Y-17688D01*
X16472Y-17679D01*
X16483Y-17674D01*
X16491Y-17673D01*
X16496Y-17673D01*
X16506Y-17675D01*
X16522Y-17678D01*
X16543Y-17683D01*
X16568Y-17688D01*
X16597Y-17694D01*
X16630Y-17701D01*
X16666Y-17708D01*
X16704Y-17716D01*
X16745Y-17725D01*
X16787Y-17734D01*
X16814Y-17740D01*
X16857Y-17749D01*
X16899Y-17758D01*
X16938Y-17767D01*
X16975Y-17775D01*
X17008Y-17782D01*
X17038Y-17788D01*
X17065Y-17794D01*
X17087Y-17799D01*
X17105Y-17803D01*
X17117Y-17805D01*
X17124Y-17807D01*
X17125Y-17807D01*
X17125Y-17804D01*
X17124Y-17795D01*
X17123Y-17784D01*
X17121Y-17769D01*
X17121Y-17769D01*
X17118Y-17753D01*
X17116Y-17742D01*
X17114Y-17735D01*
X17112Y-17731D01*
X17109Y-17729D01*
X17104Y-17727D01*
X17095Y-17724D01*
X17081Y-17718D01*
X17063Y-17712D01*
X17043Y-17704D01*
X17020Y-17695D01*
X17005Y-17689D01*
X16947Y-17667D01*
X16885Y-17642D01*
X16819Y-17616D01*
X16750Y-17589D01*
X16679Y-17560D01*
X16607Y-17531D01*
X16535Y-17502D01*
X16464Y-17473D01*
X16395Y-17445D01*
X16387Y-17441D01*
X16352Y-17427D01*
X16317Y-17412D01*
X16282Y-17398D01*
X16249Y-17384D01*
X16219Y-17372D01*
X16191Y-17360D01*
X16167Y-17350D01*
X16147Y-17342D01*
X16132Y-17336D01*
X16130Y-17335D01*
X16111Y-17327D01*
X16094Y-17320D01*
X16079Y-17313D01*
X16068Y-17308D01*
X16062Y-17304D01*
X16061Y-17304D01*
X16054Y-17294D01*
X16052Y-17283D01*
X16054Y-17271D01*
X16060Y-17261D01*
X16069Y-17254D01*
X16070Y-17254D01*
X16074Y-17253D01*
X16078Y-17252D01*
X16082Y-17252D01*
X16087Y-17254D01*
X16095Y-17256D01*
X16105Y-17260D01*
X16119Y-17265D01*
X16137Y-17273D01*
X16160Y-17282D01*
X16168Y-17285D01*
X16247Y-17318D01*
X16324Y-17350D01*
X16399Y-17381D01*
X16472Y-17411D01*
X16543Y-17440D01*
X16611Y-17467D01*
X16676Y-17494D01*
X16739Y-17519D01*
X16797Y-17542D01*
X16853Y-17564D01*
X16904Y-17585D01*
X16952Y-17604D01*
X16995Y-17620D01*
X17034Y-17635D01*
X17068Y-17648D01*
X17097Y-17659D01*
X17121Y-17668D01*
X17140Y-17674D01*
X17151Y-17678D01*
X17172Y-17684D01*
X17198Y-17693D01*
X17228Y-17703D01*
X17259Y-17714D01*
X17292Y-17727D01*
X17326Y-17739D01*
X17358Y-17752D01*
X17388Y-17764D01*
X17416Y-17776D01*
X17416Y-17776D01*
X17453Y-17792D01*
X17491Y-17811D01*
X17530Y-17830D01*
X17569Y-17850D01*
X17606Y-17871D01*
X17642Y-17891D01*
X17675Y-17910D01*
X17704Y-17929D01*
X17728Y-17946D01*
X17741Y-17956D01*
X17760Y-17970D01*
X17792Y-17945D01*
X17808Y-17933D01*
X17820Y-17923D01*
X17829Y-17916D01*
X17835Y-17910D01*
X17839Y-17905D01*
X17843Y-17900D01*
X17845Y-17896D01*
X17850Y-17884D01*
X17855Y-17871D01*
X17859Y-17855D01*
X17863Y-17837D01*
X17866Y-17815D01*
X17869Y-17790D01*
X17871Y-17760D01*
X17874Y-17726D01*
X17876Y-17686D01*
X17878Y-17641D01*
X17878Y-17640D01*
X17880Y-17601D01*
X17881Y-17569D01*
X17883Y-17541D01*
X17885Y-17518D01*
X17887Y-17499D01*
X17889Y-17483D01*
X17892Y-17469D01*
X17894Y-17457D01*
X17898Y-17447D01*
X17898Y-17446D01*
X17911Y-17420D01*
X17930Y-17398D01*
X17953Y-17379D01*
X17982Y-17364D01*
X18015Y-17352D01*
X18053Y-17344D01*
X18070Y-17342D01*
X18093Y-17340D01*
X18120Y-17339D01*
X18150Y-17340D01*
X18180Y-17342D01*
X18209Y-17344D01*
X18226Y-17347D01*
X18253Y-17351D01*
X18284Y-17358D01*
X18317Y-17366D01*
X18352Y-17375D01*
X18387Y-17385D01*
X18419Y-17395D01*
X18448Y-17405D01*
X18460Y-17410D01*
X18473Y-17415D01*
X18484Y-17419D01*
X18492Y-17422D01*
X18495Y-17423D01*
X18499Y-17422D01*
X18509Y-17419D01*
X18521Y-17415D01*
X18536Y-17409D01*
X18540Y-17407D01*
X18579Y-17391D01*
X18619Y-17378D01*
X18659Y-17366D01*
X18700Y-17356D01*
X18744Y-17347D01*
X18791Y-17340D01*
X18842Y-17334D01*
X18897Y-17330D01*
X18957Y-17327D01*
X18984Y-17325D01*
X19015Y-17324D01*
X19040Y-17324D01*
X19060Y-17323D01*
X19075Y-17324D01*
X19087Y-17324D01*
X19094Y-17325D01*
X19099Y-17327D01*
X19102Y-17329D01*
X19102Y-17332D01*
X19102Y-17332D01*
X19102Y-17332D01*
G37*
G36*
X18935Y-18889D02*
X18891Y-18889D01*
X18847Y-18889D01*
X18847Y-18788D01*
X18847Y-18687D01*
X18847Y-18611D01*
X18847Y-18498D01*
X18847Y-18384D01*
X18827Y-18354D01*
X18805Y-18324D01*
X18783Y-18299D01*
X18759Y-18277D01*
X18736Y-18260D01*
X18713Y-18247D01*
X18690Y-18240D01*
X18669Y-18238D01*
X18666Y-18238D01*
X18645Y-18243D01*
X18627Y-18253D01*
X18611Y-18269D01*
X18598Y-18289D01*
X18588Y-18314D01*
X18581Y-18342D01*
X18577Y-18375D01*
X18577Y-18407D01*
X18580Y-18445D01*
X18587Y-18479D01*
X18597Y-18508D01*
X18612Y-18535D01*
X18630Y-18559D01*
X18640Y-18570D01*
X18660Y-18588D01*
X18680Y-18602D01*
X18700Y-18611D01*
X18717Y-18617D01*
X18732Y-18619D01*
X18751Y-18621D01*
X18773Y-18621D01*
X18795Y-18620D01*
X18816Y-18617D01*
X18819Y-18616D01*
X18847Y-18611D01*
X18847Y-18687D01*
X18838Y-18689D01*
X18828Y-18690D01*
X18813Y-18691D01*
X18794Y-18692D01*
X18774Y-18693D01*
X18754Y-18693D01*
X18734Y-18693D01*
X18717Y-18692D01*
X18704Y-18691D01*
X18700Y-18691D01*
X18663Y-18681D01*
X18628Y-18665D01*
X18597Y-18644D01*
X18568Y-18618D01*
X18543Y-18586D01*
X18521Y-18548D01*
X18518Y-18544D01*
X18503Y-18509D01*
X18493Y-18473D01*
X18486Y-18433D01*
X18483Y-18390D01*
X18483Y-18379D01*
X18484Y-18348D01*
X18486Y-18321D01*
X18491Y-18298D01*
X18497Y-18276D01*
X18507Y-18254D01*
X18508Y-18251D01*
X18517Y-18235D01*
X18525Y-18222D01*
X18535Y-18210D01*
X18545Y-18201D01*
X18568Y-18182D01*
X18591Y-18168D01*
X18614Y-18160D01*
X18640Y-18156D01*
X18641Y-18156D01*
X18664Y-18156D01*
X18685Y-18159D01*
X18706Y-18165D01*
X18730Y-18175D01*
X18737Y-18179D01*
X18771Y-18200D01*
X18802Y-18227D01*
X18827Y-18255D01*
X18847Y-18281D01*
X18848Y-18225D01*
X18849Y-18169D01*
X18892Y-18168D01*
X18935Y-18167D01*
X18935Y-18528D01*
X18935Y-18889D01*
X18935Y-18889D01*
X18935Y-18889D01*
G37*
G36*
X22352Y-18584D02*
X22351Y-18629D01*
X22350Y-18673D01*
X22317Y-18684D01*
X22286Y-18693D01*
X22259Y-18700D01*
X22232Y-18704D01*
X22204Y-18707D01*
X22180Y-18708D01*
X22161Y-18708D01*
X22142Y-18708D01*
X22125Y-18708D01*
X22112Y-18707D01*
X22109Y-18706D01*
X22069Y-18699D01*
X22033Y-18687D01*
X22001Y-18671D01*
X21974Y-18650D01*
X21951Y-18625D01*
X21933Y-18595D01*
X21932Y-18594D01*
X21923Y-18571D01*
X21917Y-18548D01*
X21914Y-18522D01*
X21914Y-18505D01*
X21916Y-18472D01*
X21924Y-18442D01*
X21937Y-18413D01*
X21957Y-18386D01*
X21967Y-18375D01*
X21975Y-18366D01*
X21984Y-18358D01*
X21993Y-18350D01*
X22005Y-18342D01*
X22020Y-18332D01*
X22037Y-18320D01*
X22059Y-18307D01*
X22085Y-18291D01*
X22092Y-18287D01*
X22126Y-18267D01*
X22154Y-18249D01*
X22178Y-18233D01*
X22198Y-18219D01*
X22214Y-18206D01*
X22226Y-18194D01*
X22235Y-18182D01*
X22242Y-18170D01*
X22246Y-18158D01*
X22248Y-18145D01*
X22249Y-18131D01*
X22249Y-18127D01*
X22248Y-18105D01*
X22243Y-18087D01*
X22235Y-18071D01*
X22221Y-18056D01*
X22200Y-18039D01*
X22174Y-18026D01*
X22145Y-18019D01*
X22112Y-18017D01*
X22098Y-18018D01*
X22053Y-18023D01*
X22011Y-18032D01*
X21991Y-18038D01*
X21979Y-18042D01*
X21969Y-18044D01*
X21963Y-18045D01*
X21962Y-18045D01*
X21962Y-18042D01*
X21961Y-18033D01*
X21961Y-18021D01*
X21961Y-18006D01*
X21961Y-17969D01*
X21970Y-17966D01*
X21989Y-17960D01*
X22013Y-17954D01*
X22041Y-17950D01*
X22070Y-17947D01*
X22099Y-17946D01*
X22126Y-17946D01*
X22147Y-17947D01*
X22182Y-17951D01*
X22212Y-17958D01*
X22237Y-17968D01*
X22260Y-17980D01*
X22281Y-17997D01*
X22291Y-18006D01*
X22312Y-18030D01*
X22327Y-18057D01*
X22338Y-18087D01*
X22343Y-18119D01*
X22343Y-18138D01*
X22340Y-18171D01*
X22332Y-18202D01*
X22317Y-18232D01*
X22296Y-18260D01*
X22286Y-18270D01*
X22275Y-18281D01*
X22264Y-18290D01*
X22252Y-18300D01*
X22238Y-18310D01*
X22221Y-18321D01*
X22200Y-18334D01*
X22174Y-18349D01*
X22170Y-18350D01*
X22135Y-18371D01*
X22104Y-18390D01*
X22079Y-18408D01*
X22058Y-18424D01*
X22041Y-18439D01*
X22028Y-18454D01*
X22019Y-18468D01*
X22012Y-18483D01*
X22008Y-18499D01*
X22006Y-18510D01*
X22007Y-18534D01*
X22013Y-18557D01*
X22024Y-18579D01*
X22039Y-18598D01*
X22041Y-18600D01*
X22056Y-18611D01*
X22076Y-18621D01*
X22099Y-18629D01*
X22124Y-18635D01*
X22148Y-18637D01*
X22152Y-18637D01*
X22180Y-18635D01*
X22212Y-18631D01*
X22245Y-18623D01*
X22280Y-18613D01*
X22313Y-18601D01*
X22323Y-18597D01*
X22352Y-18584D01*
X22352Y-18584D01*
X22352Y-18584D01*
G37*
G36*
X19523Y-18461D02*
X19522Y-18505D01*
X19516Y-18548D01*
X19515Y-18555D01*
X19511Y-18570D01*
X19507Y-18585D01*
X19502Y-18598D01*
X19502Y-18599D01*
X19486Y-18626D01*
X19467Y-18650D01*
X19443Y-18671D01*
X19429Y-18680D01*
X19429Y-18467D01*
X19428Y-18442D01*
X19426Y-18418D01*
X19423Y-18397D01*
X19421Y-18387D01*
X19412Y-18356D01*
X19400Y-18329D01*
X19384Y-18306D01*
X19367Y-18287D01*
X19343Y-18266D01*
X19319Y-18251D01*
X19293Y-18241D01*
X19264Y-18235D01*
X19232Y-18235D01*
X19228Y-18235D01*
X19212Y-18236D01*
X19196Y-18238D01*
X19183Y-18240D01*
X19178Y-18241D01*
X19161Y-18245D01*
X19160Y-18359D01*
X19159Y-18472D01*
X19179Y-18502D01*
X19192Y-18521D01*
X19209Y-18541D01*
X19227Y-18560D01*
X19244Y-18577D01*
X19261Y-18591D01*
X19264Y-18593D01*
X19289Y-18607D01*
X19313Y-18616D01*
X19335Y-18618D01*
X19356Y-18615D01*
X19369Y-18609D01*
X19388Y-18594D01*
X19404Y-18574D01*
X19416Y-18549D01*
X19423Y-18529D01*
X19426Y-18512D01*
X19428Y-18491D01*
X19429Y-18467D01*
X19429Y-18680D01*
X19417Y-18687D01*
X19412Y-18690D01*
X19402Y-18694D01*
X19393Y-18696D01*
X19381Y-18699D01*
X19366Y-18701D01*
X19361Y-18701D01*
X19353Y-18702D01*
X19342Y-18701D01*
X19335Y-18700D01*
X19306Y-18693D01*
X19277Y-18681D01*
X19248Y-18665D01*
X19221Y-18645D01*
X19196Y-18622D01*
X19176Y-18598D01*
X19173Y-18593D01*
X19167Y-18584D01*
X19162Y-18577D01*
X19159Y-18574D01*
X19159Y-18574D01*
X19158Y-18577D01*
X19156Y-18585D01*
X19155Y-18596D01*
X19155Y-18599D01*
X19153Y-18613D01*
X19151Y-18631D01*
X19149Y-18648D01*
X19148Y-18655D01*
X19142Y-18688D01*
X19097Y-18688D01*
X19079Y-18688D01*
X19067Y-18687D01*
X19059Y-18687D01*
X19055Y-18686D01*
X19053Y-18684D01*
X19053Y-18682D01*
X19053Y-18682D01*
X19056Y-18671D01*
X19059Y-18659D01*
X19062Y-18647D01*
X19064Y-18634D01*
X19066Y-18619D01*
X19067Y-18602D01*
X19068Y-18582D01*
X19069Y-18559D01*
X19070Y-18532D01*
X19070Y-18502D01*
X19071Y-18466D01*
X19071Y-18425D01*
X19071Y-18379D01*
X19071Y-18371D01*
X19071Y-18168D01*
X19143Y-18166D01*
X19179Y-18165D01*
X19211Y-18164D01*
X19237Y-18163D01*
X19259Y-18163D01*
X19277Y-18164D01*
X19293Y-18164D01*
X19305Y-18166D01*
X19316Y-18168D01*
X19326Y-18170D01*
X19327Y-18170D01*
X19351Y-18178D01*
X19372Y-18188D01*
X19393Y-18200D01*
X19407Y-18211D01*
X19435Y-18236D01*
X19460Y-18266D01*
X19481Y-18300D01*
X19498Y-18337D01*
X19511Y-18377D01*
X19519Y-18418D01*
X19523Y-18461D01*
X19523Y-18461D01*
X19523Y-18461D01*
G37*
G36*
X20065Y-18405D02*
X20064Y-18449D01*
X20063Y-18460D01*
X20056Y-18502D01*
X20044Y-18541D01*
X20026Y-18577D01*
X20003Y-18609D01*
X19981Y-18633D01*
X19950Y-18658D01*
X19916Y-18677D01*
X19879Y-18690D01*
X19839Y-18699D01*
X19795Y-18701D01*
X19762Y-18700D01*
X19714Y-18694D01*
X19664Y-18682D01*
X19658Y-18681D01*
X19633Y-18673D01*
X19632Y-18631D01*
X19632Y-18614D01*
X19632Y-18603D01*
X19633Y-18595D01*
X19634Y-18592D01*
X19635Y-18591D01*
X19637Y-18591D01*
X19647Y-18595D01*
X19662Y-18599D01*
X19679Y-18604D01*
X19697Y-18609D01*
X19713Y-18614D01*
X19727Y-18617D01*
X19735Y-18619D01*
X19751Y-18620D01*
X19771Y-18621D01*
X19792Y-18621D01*
X19814Y-18620D01*
X19833Y-18618D01*
X19849Y-18615D01*
X19856Y-18613D01*
X19883Y-18600D01*
X19907Y-18582D01*
X19927Y-18560D01*
X19944Y-18531D01*
X19949Y-18522D01*
X19959Y-18497D01*
X19966Y-18474D01*
X19969Y-18450D01*
X19970Y-18424D01*
X19968Y-18387D01*
X19960Y-18353D01*
X19948Y-18322D01*
X19932Y-18295D01*
X19912Y-18271D01*
X19888Y-18253D01*
X19860Y-18238D01*
X19841Y-18232D01*
X19824Y-18229D01*
X19803Y-18228D01*
X19780Y-18228D01*
X19757Y-18229D01*
X19737Y-18232D01*
X19737Y-18232D01*
X19724Y-18236D01*
X19707Y-18240D01*
X19689Y-18246D01*
X19678Y-18250D01*
X19663Y-18255D01*
X19651Y-18260D01*
X19642Y-18263D01*
X19637Y-18264D01*
X19635Y-18265D01*
X19634Y-18263D01*
X19632Y-18258D01*
X19632Y-18250D01*
X19632Y-18238D01*
X19632Y-18225D01*
X19632Y-18184D01*
X19655Y-18177D01*
X19692Y-18168D01*
X19729Y-18161D01*
X19765Y-18157D01*
X19800Y-18155D01*
X19832Y-18156D01*
X19855Y-18159D01*
X19892Y-18170D01*
X19926Y-18184D01*
X19957Y-18205D01*
X19979Y-18224D01*
X20008Y-18255D01*
X20030Y-18288D01*
X20047Y-18325D01*
X20059Y-18364D01*
X20065Y-18405D01*
X20065Y-18405D01*
X20065Y-18405D01*
G37*
G36*
X21240Y-18429D02*
X21240Y-18450D01*
X21240Y-18467D01*
X21239Y-18479D01*
X21238Y-18490D01*
X21235Y-18501D01*
X21233Y-18513D01*
X21232Y-18514D01*
X21219Y-18553D01*
X21201Y-18588D01*
X21179Y-18619D01*
X21153Y-18646D01*
X21148Y-18651D01*
X21146Y-18652D01*
X21146Y-18428D01*
X21146Y-18406D01*
X21146Y-18390D01*
X21145Y-18377D01*
X21144Y-18367D01*
X21142Y-18357D01*
X21139Y-18348D01*
X21139Y-18346D01*
X21127Y-18313D01*
X21111Y-18286D01*
X21092Y-18263D01*
X21069Y-18246D01*
X21057Y-18239D01*
X21046Y-18234D01*
X21035Y-18231D01*
X21024Y-18229D01*
X21009Y-18228D01*
X21006Y-18228D01*
X20976Y-18229D01*
X20950Y-18234D01*
X20926Y-18245D01*
X20906Y-18260D01*
X20895Y-18272D01*
X20878Y-18295D01*
X20864Y-18322D01*
X20855Y-18354D01*
X20849Y-18389D01*
X20847Y-18426D01*
X20848Y-18461D01*
X20854Y-18499D01*
X20864Y-18532D01*
X20878Y-18561D01*
X20895Y-18585D01*
X20916Y-18604D01*
X20939Y-18617D01*
X20962Y-18626D01*
X20986Y-18630D01*
X21012Y-18629D01*
X21022Y-18628D01*
X21050Y-18620D01*
X21074Y-18607D01*
X21096Y-18589D01*
X21114Y-18565D01*
X21124Y-18549D01*
X21131Y-18532D01*
X21137Y-18517D01*
X21141Y-18503D01*
X21144Y-18487D01*
X21145Y-18469D01*
X21146Y-18446D01*
X21146Y-18428D01*
X21146Y-18652D01*
X21122Y-18669D01*
X21091Y-18684D01*
X21057Y-18695D01*
X21021Y-18701D01*
X20984Y-18702D01*
X20966Y-18700D01*
X20929Y-18693D01*
X20895Y-18681D01*
X20863Y-18663D01*
X20835Y-18640D01*
X20810Y-18613D01*
X20790Y-18581D01*
X20773Y-18546D01*
X20761Y-18507D01*
X20760Y-18499D01*
X20757Y-18486D01*
X20755Y-18474D01*
X20754Y-18461D01*
X20754Y-18445D01*
X20754Y-18426D01*
X20755Y-18417D01*
X20756Y-18393D01*
X20757Y-18373D01*
X20759Y-18356D01*
X20763Y-18341D01*
X20768Y-18325D01*
X20774Y-18306D01*
X20775Y-18305D01*
X20788Y-18277D01*
X20806Y-18250D01*
X20827Y-18225D01*
X20850Y-18202D01*
X20874Y-18186D01*
X20898Y-18173D01*
X20922Y-18165D01*
X20949Y-18159D01*
X20979Y-18156D01*
X20986Y-18156D01*
X21022Y-18156D01*
X21054Y-18160D01*
X21083Y-18168D01*
X21110Y-18179D01*
X21125Y-18188D01*
X21154Y-18210D01*
X21179Y-18237D01*
X21201Y-18267D01*
X21218Y-18302D01*
X21232Y-18339D01*
X21234Y-18346D01*
X21236Y-18358D01*
X21238Y-18369D01*
X21239Y-18381D01*
X21240Y-18395D01*
X21240Y-18413D01*
X21240Y-18429D01*
X21240Y-18429D01*
X21240Y-18429D01*
G37*
G36*
X20704Y-18168D02*
X20702Y-18176D01*
X20701Y-18181D01*
X20700Y-18191D01*
X20697Y-18206D01*
X20694Y-18226D01*
X20690Y-18251D01*
X20685Y-18279D01*
X20680Y-18310D01*
X20675Y-18345D01*
X20669Y-18381D01*
X20662Y-18419D01*
X20661Y-18429D01*
X20654Y-18468D01*
X20649Y-18505D01*
X20643Y-18539D01*
X20638Y-18571D01*
X20633Y-18600D01*
X20629Y-18625D01*
X20625Y-18647D01*
X20623Y-18663D01*
X20621Y-18674D01*
X20620Y-18680D01*
X20620Y-18681D01*
X20619Y-18683D01*
X20617Y-18685D01*
X20613Y-18687D01*
X20606Y-18687D01*
X20595Y-18688D01*
X20579Y-18688D01*
X20576Y-18688D01*
X20534Y-18688D01*
X20491Y-18520D01*
X20483Y-18487D01*
X20475Y-18455D01*
X20467Y-18425D01*
X20460Y-18396D01*
X20454Y-18371D01*
X20448Y-18349D01*
X20444Y-18332D01*
X20442Y-18320D01*
X20441Y-18317D01*
X20438Y-18302D01*
X20435Y-18291D01*
X20434Y-18284D01*
X20432Y-18281D01*
X20431Y-18284D01*
X20429Y-18292D01*
X20426Y-18303D01*
X20423Y-18317D01*
X20421Y-18326D01*
X20417Y-18342D01*
X20412Y-18361D01*
X20405Y-18385D01*
X20397Y-18412D01*
X20389Y-18441D01*
X20380Y-18472D01*
X20370Y-18505D01*
X20366Y-18519D01*
X20316Y-18686D01*
X20276Y-18687D01*
X20235Y-18688D01*
X20193Y-18430D01*
X20187Y-18391D01*
X20181Y-18353D01*
X20175Y-18317D01*
X20170Y-18285D01*
X20165Y-18255D01*
X20161Y-18229D01*
X20158Y-18207D01*
X20155Y-18190D01*
X20153Y-18178D01*
X20152Y-18171D01*
X20152Y-18170D01*
X20155Y-18169D01*
X20162Y-18168D01*
X20173Y-18168D01*
X20185Y-18168D01*
X20198Y-18168D01*
X20208Y-18168D01*
X20215Y-18169D01*
X20218Y-18170D01*
X20218Y-18174D01*
X20220Y-18183D01*
X20222Y-18197D01*
X20225Y-18215D01*
X20228Y-18236D01*
X20232Y-18260D01*
X20235Y-18281D01*
X20240Y-18311D01*
X20245Y-18343D01*
X20250Y-18375D01*
X20255Y-18406D01*
X20259Y-18434D01*
X20263Y-18457D01*
X20264Y-18464D01*
X20267Y-18485D01*
X20270Y-18505D01*
X20273Y-18522D01*
X20275Y-18535D01*
X20276Y-18543D01*
X20277Y-18546D01*
X20278Y-18547D01*
X20280Y-18544D01*
X20282Y-18536D01*
X20286Y-18522D01*
X20288Y-18514D01*
X20290Y-18503D01*
X20295Y-18487D01*
X20300Y-18466D01*
X20307Y-18442D01*
X20315Y-18415D01*
X20323Y-18385D01*
X20332Y-18354D01*
X20342Y-18323D01*
X20342Y-18322D01*
X20387Y-18169D01*
X20426Y-18169D01*
X20465Y-18169D01*
X20507Y-18328D01*
X20515Y-18360D01*
X20523Y-18391D01*
X20531Y-18420D01*
X20537Y-18448D01*
X20543Y-18472D01*
X20548Y-18492D01*
X20552Y-18508D01*
X20554Y-18518D01*
X20554Y-18520D01*
X20556Y-18533D01*
X20558Y-18543D01*
X20560Y-18550D01*
X20560Y-18551D01*
X20562Y-18548D01*
X20563Y-18539D01*
X20566Y-18525D01*
X20570Y-18505D01*
X20574Y-18480D01*
X20579Y-18448D01*
X20585Y-18411D01*
X20592Y-18368D01*
X20598Y-18328D01*
X20602Y-18298D01*
X20607Y-18269D01*
X20611Y-18243D01*
X20615Y-18220D01*
X20618Y-18201D01*
X20620Y-18186D01*
X20622Y-18176D01*
X20623Y-18172D01*
X20623Y-18172D01*
X20626Y-18170D01*
X20633Y-18169D01*
X20644Y-18168D01*
X20662Y-18168D01*
X20664Y-18168D01*
X20704Y-18168D01*
X20704Y-18168D01*
X20704Y-18168D01*
G37*
G36*
X21781Y-18688D02*
X21739Y-18688D01*
X21696Y-18688D01*
X21696Y-18536D01*
X21696Y-18385D01*
X21685Y-18366D01*
X21667Y-18338D01*
X21646Y-18312D01*
X21623Y-18290D01*
X21600Y-18270D01*
X21576Y-18254D01*
X21552Y-18243D01*
X21529Y-18236D01*
X21508Y-18234D01*
X21507Y-18234D01*
X21487Y-18239D01*
X21470Y-18250D01*
X21456Y-18265D01*
X21445Y-18283D01*
X21441Y-18298D01*
X21440Y-18306D01*
X21439Y-18319D01*
X21438Y-18338D01*
X21437Y-18363D01*
X21437Y-18394D01*
X21436Y-18431D01*
X21436Y-18473D01*
X21435Y-18501D01*
X21434Y-18688D01*
X21392Y-18688D01*
X21349Y-18688D01*
X21349Y-18515D01*
X21350Y-18469D01*
X21350Y-18428D01*
X21350Y-18393D01*
X21351Y-18362D01*
X21352Y-18336D01*
X21353Y-18314D01*
X21354Y-18295D01*
X21356Y-18279D01*
X21358Y-18265D01*
X21361Y-18254D01*
X21365Y-18244D01*
X21368Y-18234D01*
X21372Y-18227D01*
X21386Y-18206D01*
X21405Y-18188D01*
X21427Y-18173D01*
X21453Y-18163D01*
X21480Y-18156D01*
X21500Y-18155D01*
X21532Y-18158D01*
X21563Y-18167D01*
X21595Y-18182D01*
X21625Y-18202D01*
X21632Y-18208D01*
X21643Y-18217D01*
X21652Y-18227D01*
X21662Y-18237D01*
X21673Y-18251D01*
X21687Y-18268D01*
X21687Y-18269D01*
X21696Y-18279D01*
X21696Y-18224D01*
X21696Y-18168D01*
X21739Y-18168D01*
X21781Y-18168D01*
X21781Y-18428D01*
X21781Y-18688D01*
X21781Y-18688D01*
X21781Y-18688D01*
G37*
M02*
