M48
;DRILL file {Pcbnew (2013-dec-23)-stable} date Mon 21 Jul 2014 03:55:58 PM UTC
;FORMAT={-:-/ absolute / metric / decimal}
FMAT,2
METRIC,TZ
T1C0.635
T2C0.813
T3C1.016
%
G90
G05
M71
T1
X36.576Y-53.34
X49.022Y-40.64
X50.038Y-53.848
T2
X33.314Y-44.45
X38.314Y-44.45
X42.458Y-49.53
X47.458Y-49.53
X51.602Y-44.45
X56.602Y-44.45
X61.Y-49.53
X66.Y-49.53
T3
X26.924Y-40.64
X26.924Y-43.18
X26.924Y-45.72
X26.924Y-48.26
X26.924Y-50.8
X26.924Y-53.34
X63.754Y-40.64
X66.294Y-40.64
X70.104Y-40.64
X70.104Y-43.18
X70.104Y-45.72
X70.104Y-48.26
X70.104Y-50.8
X70.104Y-53.34
T0
M30
