G04 (created by PCBNEW (2013-dec-23)-stable) date Mon 21 Jul 2014 03:55:54 PM UTC*
%MOIN*%
G04 Gerber Fmt 3.4, Leading zero omitted, Abs format*
%FSLAX34Y34*%
G01*
G70*
G90*
G04 APERTURE LIST*
%ADD10C,0.00590551*%
%ADD11R,0.06X0.06*%
%ADD12C,0.06*%
%ADD13R,0.035X0.055*%
%ADD14R,0.055X0.035*%
%ADD15R,0.025X0.045*%
%ADD16R,0.045X0.025*%
%ADD17R,0.03X0.02*%
%ADD18R,0.0787402X0.0866142*%
%ADD19R,0.063X0.0866*%
%ADD20C,0.035*%
%ADD21C,0.008*%
%ADD22C,0.032*%
%ADD23C,0.016*%
%ADD24C,0.01*%
G04 APERTURE END LIST*
G54D10*
G54D11*
X25100Y-16000D03*
G54D12*
X26100Y-16000D03*
G54D13*
X25475Y-17000D03*
X24725Y-17000D03*
G54D14*
X11600Y-19175D03*
X11600Y-18425D03*
X11600Y-17775D03*
X11600Y-17025D03*
G54D15*
X26100Y-17000D03*
X26700Y-17000D03*
G54D16*
X11600Y-16300D03*
X11600Y-15700D03*
G54D12*
X25984Y-19500D03*
X24015Y-19500D03*
G54D14*
X23800Y-17075D03*
X23800Y-16325D03*
G54D12*
X22284Y-17500D03*
X20315Y-17500D03*
X18684Y-19500D03*
X16715Y-19500D03*
G54D11*
X10600Y-21000D03*
G54D12*
X10600Y-20000D03*
X10600Y-19000D03*
X10600Y-18000D03*
X10600Y-17000D03*
X10600Y-16000D03*
G54D11*
X27600Y-21000D03*
G54D12*
X27600Y-20000D03*
X27600Y-19000D03*
X27600Y-18000D03*
X27600Y-17000D03*
X27600Y-16000D03*
G54D16*
X18600Y-16800D03*
X18600Y-16200D03*
G54D17*
X17800Y-16875D03*
X17800Y-16125D03*
X16800Y-16875D03*
X17800Y-16500D03*
X16800Y-16125D03*
G54D18*
X12289Y-20700D03*
X13510Y-20700D03*
G54D12*
X15084Y-17500D03*
X13115Y-17500D03*
G54D19*
X20552Y-20600D03*
X22048Y-20600D03*
G54D20*
X19300Y-16000D03*
X14400Y-21000D03*
X19700Y-21200D03*
G54D21*
X11600Y-18425D02*
X11600Y-17775D01*
X11600Y-17775D02*
X11275Y-17775D01*
X11600Y-16500D02*
X11600Y-16300D01*
X11500Y-16600D02*
X11600Y-16500D01*
X11200Y-16600D02*
X11500Y-16600D01*
X11100Y-16700D02*
X11200Y-16600D01*
X11100Y-17600D02*
X11100Y-16700D01*
X11275Y-17775D02*
X11100Y-17600D01*
X11600Y-16300D02*
X11300Y-16300D01*
X11000Y-16000D02*
X10600Y-16000D01*
X11300Y-16300D02*
X11000Y-16000D01*
X23800Y-16325D02*
X24125Y-16325D01*
X25475Y-17425D02*
X25475Y-17000D01*
X25400Y-17500D02*
X25475Y-17425D01*
X24500Y-17500D02*
X25400Y-17500D01*
X24300Y-17300D02*
X24500Y-17500D01*
X24300Y-16500D02*
X24300Y-17300D01*
X24125Y-16325D02*
X24300Y-16500D01*
X26100Y-17000D02*
X25475Y-17000D01*
X26100Y-17000D02*
X26100Y-17300D01*
X27200Y-20000D02*
X27600Y-20000D01*
X27100Y-19900D02*
X27200Y-20000D01*
X27100Y-18300D02*
X27100Y-19900D01*
X26100Y-17300D02*
X27100Y-18300D01*
G54D22*
X19300Y-16000D02*
X19600Y-15700D01*
X18600Y-16200D02*
X19100Y-16200D01*
X24800Y-15700D02*
X25100Y-16000D01*
X19600Y-15700D02*
X24800Y-15700D01*
X19100Y-16200D02*
X19300Y-16000D01*
X24725Y-17000D02*
X24725Y-16375D01*
X24725Y-16375D02*
X25100Y-16000D01*
G54D21*
X18600Y-16200D02*
X18600Y-16000D01*
X17825Y-16100D02*
X17800Y-16125D01*
X18000Y-16100D02*
X17825Y-16100D01*
X18100Y-16000D02*
X18000Y-16100D01*
X18200Y-15900D02*
X18100Y-16000D01*
X18500Y-15900D02*
X18200Y-15900D01*
X18600Y-16000D02*
X18500Y-15900D01*
G54D23*
X17800Y-16500D02*
X18100Y-16500D01*
X18300Y-16200D02*
X18600Y-16200D01*
X18200Y-16300D02*
X18300Y-16200D01*
X18200Y-16400D02*
X18200Y-16300D01*
X18100Y-16500D02*
X18200Y-16400D01*
G54D22*
X13115Y-17500D02*
X13115Y-18515D01*
X13510Y-18910D02*
X13510Y-20700D01*
X13115Y-18515D02*
X13510Y-18910D01*
X13115Y-17500D02*
X13100Y-17500D01*
X12625Y-17025D02*
X11600Y-17025D01*
X13100Y-17500D02*
X12625Y-17025D01*
X10600Y-20000D02*
X11100Y-20000D01*
X11100Y-20000D02*
X11300Y-19800D01*
X11300Y-19800D02*
X13400Y-19800D01*
X13400Y-19800D02*
X13510Y-19910D01*
X13510Y-19910D02*
X13510Y-20700D01*
X16800Y-16875D02*
X14725Y-16875D01*
X14400Y-17200D02*
X14400Y-21000D01*
X14725Y-16875D02*
X14400Y-17200D01*
X10600Y-21000D02*
X11000Y-21000D01*
X11300Y-20700D02*
X12289Y-20700D01*
X11000Y-21000D02*
X11300Y-20700D01*
X24015Y-19500D02*
X23300Y-19500D01*
X22284Y-18484D02*
X22284Y-17500D01*
X23300Y-19500D02*
X22284Y-18484D01*
X23800Y-17075D02*
X23175Y-17075D01*
X22900Y-16800D02*
X18600Y-16800D01*
X23175Y-17075D02*
X22900Y-16800D01*
X17800Y-16875D02*
X18525Y-16875D01*
X18525Y-16875D02*
X18600Y-16800D01*
X23800Y-17075D02*
X23800Y-17500D01*
X25984Y-18584D02*
X25984Y-19500D01*
X25400Y-18000D02*
X25984Y-18584D01*
X24300Y-18000D02*
X25400Y-18000D01*
X23800Y-17500D02*
X24300Y-18000D01*
X22048Y-20600D02*
X25500Y-20600D01*
X25984Y-20115D02*
X25984Y-19500D01*
X25500Y-20600D02*
X25984Y-20115D01*
X16715Y-19500D02*
X15800Y-19500D01*
X15084Y-18784D02*
X15084Y-17500D01*
X15800Y-19500D02*
X15084Y-18784D01*
X20315Y-17500D02*
X20315Y-18415D01*
X19231Y-19500D02*
X18684Y-19500D01*
X20315Y-18415D02*
X19231Y-19500D01*
G54D21*
X11600Y-19175D02*
X11325Y-19175D01*
X19400Y-21500D02*
X19700Y-21200D01*
X10200Y-21500D02*
X19400Y-21500D01*
X10100Y-21400D02*
X10200Y-21500D01*
X10100Y-19700D02*
X10100Y-21400D01*
X10300Y-19500D02*
X10100Y-19700D01*
X11000Y-19500D02*
X10300Y-19500D01*
X11325Y-19175D02*
X11000Y-19500D01*
G54D22*
X20452Y-20500D02*
X20552Y-20600D01*
X19900Y-20500D02*
X20452Y-20500D01*
X19700Y-20700D02*
X19900Y-20500D01*
X19700Y-21200D02*
X19700Y-20700D01*
G54D10*
G36*
X28020Y-20608D02*
X27985Y-20572D01*
X27929Y-20550D01*
X27870Y-20549D01*
X27270Y-20549D01*
X27215Y-20572D01*
X27172Y-20614D01*
X27150Y-20670D01*
X27149Y-20729D01*
X27149Y-21329D01*
X27172Y-21384D01*
X27208Y-21420D01*
X19939Y-21420D01*
X19975Y-21384D01*
X20024Y-21264D01*
X20025Y-21135D01*
X20010Y-21099D01*
X20010Y-20828D01*
X20028Y-20810D01*
X20086Y-20810D01*
X20086Y-21062D01*
X20109Y-21117D01*
X20151Y-21160D01*
X20207Y-21182D01*
X20266Y-21183D01*
X20896Y-21183D01*
X20951Y-21160D01*
X20994Y-21118D01*
X21016Y-21062D01*
X21017Y-21003D01*
X21017Y-20137D01*
X20994Y-20082D01*
X20952Y-20039D01*
X20896Y-20017D01*
X20837Y-20016D01*
X20207Y-20016D01*
X20152Y-20039D01*
X20109Y-20081D01*
X20087Y-20137D01*
X20086Y-20190D01*
X19900Y-20190D01*
X19781Y-20213D01*
X19680Y-20280D01*
X19480Y-20480D01*
X19413Y-20581D01*
X19390Y-20700D01*
X19390Y-21099D01*
X19375Y-21135D01*
X19374Y-21256D01*
X19321Y-21310D01*
X14500Y-21310D01*
X14583Y-21275D01*
X14675Y-21184D01*
X14724Y-21064D01*
X14725Y-20935D01*
X14710Y-20899D01*
X14710Y-17762D01*
X14774Y-17826D01*
X14774Y-18784D01*
X14797Y-18902D01*
X14865Y-19003D01*
X15580Y-19719D01*
X15681Y-19786D01*
X15800Y-19810D01*
X16389Y-19810D01*
X16460Y-19881D01*
X16625Y-19949D01*
X16804Y-19950D01*
X16970Y-19881D01*
X17097Y-19755D01*
X17165Y-19589D01*
X17165Y-19410D01*
X17097Y-19245D01*
X16970Y-19118D01*
X16805Y-19050D01*
X16626Y-19049D01*
X16461Y-19118D01*
X16389Y-19190D01*
X15928Y-19190D01*
X15394Y-18655D01*
X15394Y-17826D01*
X15465Y-17755D01*
X15534Y-17589D01*
X15534Y-17410D01*
X15465Y-17245D01*
X15405Y-17185D01*
X16800Y-17185D01*
X16918Y-17161D01*
X16973Y-17125D01*
X16979Y-17125D01*
X17034Y-17102D01*
X17077Y-17060D01*
X17099Y-17004D01*
X17100Y-16945D01*
X17100Y-16925D01*
X17110Y-16875D01*
X17100Y-16824D01*
X17100Y-16745D01*
X17100Y-16195D01*
X17100Y-15995D01*
X17077Y-15940D01*
X17035Y-15897D01*
X16979Y-15875D01*
X16920Y-15874D01*
X16620Y-15874D01*
X16565Y-15897D01*
X16522Y-15939D01*
X16500Y-15995D01*
X16499Y-16054D01*
X16499Y-16254D01*
X16522Y-16309D01*
X16564Y-16352D01*
X16620Y-16374D01*
X16679Y-16375D01*
X16979Y-16375D01*
X17034Y-16352D01*
X17077Y-16310D01*
X17099Y-16254D01*
X17100Y-16195D01*
X17100Y-16745D01*
X17077Y-16690D01*
X17035Y-16647D01*
X16979Y-16625D01*
X16973Y-16625D01*
X16918Y-16588D01*
X16800Y-16565D01*
X14725Y-16565D01*
X14606Y-16588D01*
X14505Y-16655D01*
X14180Y-16980D01*
X14113Y-17081D01*
X14090Y-17200D01*
X14090Y-20899D01*
X14075Y-20935D01*
X14074Y-21064D01*
X14124Y-21183D01*
X14215Y-21275D01*
X14299Y-21310D01*
X14073Y-21310D01*
X14073Y-21099D01*
X14073Y-20300D01*
X14073Y-20232D01*
X14047Y-20170D01*
X14000Y-20122D01*
X13937Y-20096D01*
X13587Y-20096D01*
X13587Y-17415D01*
X13519Y-17241D01*
X13509Y-17226D01*
X13431Y-17198D01*
X13417Y-17212D01*
X13417Y-17184D01*
X13389Y-17106D01*
X13217Y-17031D01*
X13030Y-17028D01*
X12856Y-17096D01*
X12842Y-17106D01*
X12814Y-17184D01*
X13115Y-17485D01*
X13417Y-17184D01*
X13417Y-17212D01*
X13129Y-17500D01*
X13431Y-17801D01*
X13509Y-17773D01*
X13583Y-17602D01*
X13587Y-17415D01*
X13587Y-20096D01*
X13562Y-20096D01*
X13520Y-20139D01*
X13520Y-20690D01*
X14031Y-20690D01*
X14073Y-20647D01*
X14073Y-20300D01*
X14073Y-21099D01*
X14073Y-20752D01*
X14031Y-20710D01*
X13520Y-20710D01*
X13520Y-21260D01*
X13562Y-21303D01*
X13937Y-21303D01*
X14000Y-21277D01*
X14047Y-21229D01*
X14073Y-21167D01*
X14073Y-21099D01*
X14073Y-21310D01*
X13500Y-21310D01*
X13500Y-21260D01*
X13500Y-20710D01*
X13500Y-20690D01*
X13500Y-20139D01*
X13457Y-20096D01*
X13417Y-20096D01*
X13417Y-17815D01*
X13115Y-17514D01*
X13101Y-17528D01*
X13101Y-17500D01*
X12799Y-17198D01*
X12722Y-17226D01*
X12647Y-17397D01*
X12644Y-17584D01*
X12712Y-17758D01*
X12722Y-17773D01*
X12799Y-17801D01*
X13101Y-17500D01*
X13101Y-17528D01*
X12814Y-17815D01*
X12842Y-17893D01*
X13013Y-17968D01*
X13200Y-17971D01*
X13374Y-17903D01*
X13389Y-17893D01*
X13417Y-17815D01*
X13417Y-20096D01*
X13082Y-20096D01*
X13020Y-20122D01*
X12972Y-20170D01*
X12946Y-20232D01*
X12946Y-20300D01*
X12946Y-20647D01*
X12989Y-20690D01*
X13500Y-20690D01*
X13500Y-20710D01*
X12989Y-20710D01*
X12946Y-20752D01*
X12946Y-21099D01*
X12946Y-21167D01*
X12972Y-21229D01*
X13020Y-21277D01*
X13082Y-21303D01*
X13457Y-21303D01*
X13500Y-21260D01*
X13500Y-21310D01*
X11049Y-21310D01*
X11050Y-21300D01*
X11118Y-21286D01*
X11219Y-21219D01*
X11428Y-21010D01*
X11746Y-21010D01*
X11746Y-21162D01*
X11768Y-21217D01*
X11810Y-21260D01*
X11866Y-21283D01*
X11925Y-21283D01*
X12713Y-21283D01*
X12768Y-21260D01*
X12810Y-21218D01*
X12833Y-21163D01*
X12833Y-21103D01*
X12833Y-20237D01*
X12810Y-20182D01*
X12768Y-20139D01*
X12713Y-20116D01*
X12653Y-20116D01*
X12045Y-20116D01*
X12045Y-17233D01*
X12045Y-17077D01*
X12002Y-17035D01*
X11610Y-17035D01*
X11610Y-17327D01*
X11652Y-17370D01*
X11841Y-17370D01*
X11908Y-17369D01*
X11971Y-17344D01*
X12019Y-17296D01*
X12045Y-17233D01*
X12045Y-20116D01*
X11866Y-20116D01*
X11811Y-20139D01*
X11768Y-20181D01*
X11746Y-20236D01*
X11746Y-20296D01*
X11746Y-20390D01*
X11300Y-20390D01*
X11299Y-20390D01*
X11276Y-20394D01*
X11181Y-20413D01*
X11080Y-20480D01*
X11080Y-20480D01*
X11071Y-20489D01*
X10986Y-20574D01*
X10985Y-20572D01*
X10929Y-20550D01*
X10901Y-20550D01*
X10870Y-20549D01*
X10290Y-20549D01*
X10290Y-20324D01*
X10298Y-20315D01*
X10326Y-20393D01*
X10497Y-20468D01*
X10684Y-20471D01*
X10858Y-20403D01*
X10873Y-20393D01*
X10901Y-20315D01*
X10600Y-20014D01*
X10594Y-20019D01*
X10580Y-20005D01*
X10585Y-20000D01*
X10580Y-19994D01*
X10594Y-19980D01*
X10600Y-19985D01*
X10605Y-19980D01*
X10619Y-19994D01*
X10614Y-20000D01*
X10915Y-20301D01*
X10993Y-20273D01*
X11068Y-20102D01*
X11071Y-19915D01*
X11003Y-19741D01*
X10993Y-19726D01*
X10915Y-19698D01*
X10924Y-19690D01*
X11000Y-19690D01*
X11072Y-19675D01*
X11134Y-19634D01*
X11276Y-19492D01*
X11295Y-19499D01*
X11354Y-19500D01*
X11904Y-19500D01*
X11959Y-19477D01*
X12002Y-19435D01*
X12024Y-19379D01*
X12025Y-19320D01*
X12025Y-18970D01*
X12002Y-18915D01*
X11960Y-18872D01*
X11904Y-18850D01*
X11845Y-18849D01*
X11295Y-18849D01*
X11240Y-18872D01*
X11197Y-18914D01*
X11175Y-18970D01*
X11174Y-19029D01*
X11174Y-19056D01*
X10984Y-19246D01*
X11049Y-19089D01*
X11050Y-18910D01*
X10981Y-18745D01*
X10855Y-18618D01*
X10689Y-18550D01*
X10510Y-18549D01*
X10345Y-18618D01*
X10218Y-18744D01*
X10179Y-18839D01*
X10179Y-18160D01*
X10218Y-18254D01*
X10344Y-18381D01*
X10510Y-18449D01*
X10689Y-18450D01*
X10854Y-18381D01*
X10981Y-18255D01*
X11049Y-18089D01*
X11050Y-17910D01*
X10985Y-17753D01*
X11140Y-17909D01*
X11140Y-17909D01*
X11174Y-17932D01*
X11174Y-17979D01*
X11197Y-18034D01*
X11239Y-18077D01*
X11295Y-18099D01*
X11295Y-18099D01*
X11240Y-18122D01*
X11197Y-18164D01*
X11175Y-18220D01*
X11174Y-18279D01*
X11174Y-18629D01*
X11197Y-18684D01*
X11239Y-18727D01*
X11295Y-18749D01*
X11354Y-18750D01*
X11904Y-18750D01*
X11959Y-18727D01*
X12002Y-18685D01*
X12024Y-18629D01*
X12025Y-18570D01*
X12025Y-18220D01*
X12002Y-18165D01*
X11960Y-18122D01*
X11904Y-18100D01*
X11904Y-18100D01*
X11959Y-18077D01*
X12002Y-18035D01*
X12024Y-17979D01*
X12025Y-17920D01*
X12025Y-17570D01*
X12002Y-17515D01*
X11960Y-17472D01*
X11904Y-17450D01*
X11845Y-17449D01*
X11295Y-17449D01*
X11290Y-17452D01*
X11290Y-17369D01*
X11291Y-17369D01*
X11358Y-17370D01*
X11547Y-17370D01*
X11590Y-17327D01*
X11590Y-17035D01*
X11582Y-17035D01*
X11582Y-17015D01*
X11590Y-17015D01*
X11590Y-17007D01*
X11610Y-17007D01*
X11610Y-17015D01*
X12002Y-17015D01*
X12045Y-16972D01*
X12045Y-16816D01*
X12019Y-16753D01*
X11995Y-16729D01*
X11995Y-15858D01*
X11995Y-15752D01*
X11952Y-15710D01*
X11610Y-15710D01*
X11610Y-15952D01*
X11652Y-15995D01*
X11791Y-15995D01*
X11858Y-15994D01*
X11921Y-15969D01*
X11969Y-15921D01*
X11995Y-15858D01*
X11995Y-16729D01*
X11971Y-16705D01*
X11908Y-16680D01*
X11841Y-16679D01*
X11688Y-16679D01*
X11734Y-16634D01*
X11773Y-16575D01*
X11854Y-16575D01*
X11909Y-16552D01*
X11952Y-16510D01*
X11974Y-16454D01*
X11975Y-16395D01*
X11975Y-16145D01*
X11952Y-16090D01*
X11910Y-16047D01*
X11854Y-16025D01*
X11795Y-16024D01*
X11590Y-16024D01*
X11590Y-15952D01*
X11590Y-15710D01*
X11247Y-15710D01*
X11205Y-15752D01*
X11204Y-15858D01*
X11230Y-15921D01*
X11278Y-15969D01*
X11341Y-15994D01*
X11408Y-15995D01*
X11547Y-15995D01*
X11590Y-15952D01*
X11590Y-16024D01*
X11345Y-16024D01*
X11308Y-16040D01*
X11134Y-15865D01*
X11072Y-15824D01*
X11009Y-15811D01*
X10981Y-15745D01*
X10855Y-15618D01*
X10760Y-15579D01*
X11204Y-15579D01*
X11205Y-15647D01*
X11247Y-15690D01*
X11590Y-15690D01*
X11590Y-15682D01*
X11610Y-15682D01*
X11610Y-15690D01*
X11952Y-15690D01*
X11995Y-15647D01*
X11995Y-15579D01*
X24680Y-15579D01*
X24655Y-15603D01*
X24630Y-15666D01*
X24629Y-15733D01*
X24630Y-15947D01*
X24672Y-15990D01*
X25090Y-15990D01*
X25090Y-15982D01*
X25110Y-15982D01*
X25110Y-15990D01*
X25527Y-15990D01*
X25570Y-15947D01*
X25570Y-15733D01*
X25569Y-15666D01*
X25544Y-15603D01*
X25519Y-15579D01*
X25939Y-15579D01*
X25845Y-15618D01*
X25718Y-15744D01*
X25650Y-15910D01*
X25649Y-16089D01*
X25718Y-16254D01*
X25844Y-16381D01*
X26010Y-16449D01*
X26189Y-16450D01*
X26354Y-16381D01*
X26481Y-16255D01*
X26549Y-16089D01*
X26550Y-15910D01*
X26481Y-15745D01*
X26355Y-15618D01*
X26260Y-15579D01*
X27439Y-15579D01*
X27345Y-15618D01*
X27218Y-15744D01*
X27150Y-15910D01*
X27149Y-16089D01*
X27218Y-16254D01*
X27344Y-16381D01*
X27510Y-16449D01*
X27689Y-16450D01*
X27854Y-16381D01*
X27981Y-16255D01*
X28020Y-16160D01*
X28020Y-16839D01*
X27981Y-16745D01*
X27855Y-16618D01*
X27689Y-16550D01*
X27510Y-16549D01*
X27345Y-16618D01*
X27218Y-16744D01*
X27150Y-16910D01*
X27149Y-17089D01*
X27218Y-17254D01*
X27344Y-17381D01*
X27510Y-17449D01*
X27689Y-17450D01*
X27854Y-17381D01*
X27981Y-17255D01*
X28020Y-17160D01*
X28020Y-17839D01*
X27981Y-17745D01*
X27855Y-17618D01*
X27689Y-17550D01*
X27510Y-17549D01*
X27345Y-17618D01*
X27218Y-17744D01*
X27150Y-17910D01*
X27149Y-18081D01*
X26995Y-17926D01*
X26995Y-17191D01*
X26995Y-16808D01*
X26994Y-16741D01*
X26969Y-16678D01*
X26921Y-16630D01*
X26858Y-16604D01*
X26752Y-16605D01*
X26710Y-16647D01*
X26710Y-16990D01*
X26952Y-16990D01*
X26995Y-16947D01*
X26995Y-16808D01*
X26995Y-17191D01*
X26995Y-17052D01*
X26952Y-17010D01*
X26710Y-17010D01*
X26710Y-17352D01*
X26752Y-17395D01*
X26858Y-17395D01*
X26921Y-17369D01*
X26969Y-17321D01*
X26994Y-17258D01*
X26995Y-17191D01*
X26995Y-17926D01*
X26690Y-17621D01*
X26690Y-17352D01*
X26690Y-17010D01*
X26690Y-16990D01*
X26690Y-16647D01*
X26647Y-16605D01*
X26541Y-16604D01*
X26478Y-16630D01*
X26430Y-16678D01*
X26405Y-16741D01*
X26404Y-16808D01*
X26405Y-16947D01*
X26447Y-16990D01*
X26690Y-16990D01*
X26690Y-17010D01*
X26447Y-17010D01*
X26405Y-17052D01*
X26404Y-17191D01*
X26405Y-17258D01*
X26430Y-17321D01*
X26478Y-17369D01*
X26541Y-17395D01*
X26647Y-17395D01*
X26690Y-17352D01*
X26690Y-17621D01*
X26359Y-17291D01*
X26374Y-17254D01*
X26375Y-17195D01*
X26375Y-16745D01*
X26352Y-16690D01*
X26310Y-16647D01*
X26254Y-16625D01*
X26195Y-16624D01*
X25945Y-16624D01*
X25890Y-16647D01*
X25847Y-16689D01*
X25825Y-16745D01*
X25824Y-16804D01*
X25824Y-16810D01*
X25800Y-16810D01*
X25800Y-16695D01*
X25777Y-16640D01*
X25735Y-16597D01*
X25679Y-16575D01*
X25620Y-16574D01*
X25570Y-16574D01*
X25570Y-16266D01*
X25570Y-16052D01*
X25527Y-16010D01*
X25110Y-16010D01*
X25110Y-16427D01*
X25152Y-16470D01*
X25433Y-16470D01*
X25496Y-16444D01*
X25544Y-16396D01*
X25569Y-16333D01*
X25570Y-16266D01*
X25570Y-16574D01*
X25270Y-16574D01*
X25215Y-16597D01*
X25172Y-16639D01*
X25150Y-16695D01*
X25149Y-16754D01*
X25149Y-17304D01*
X25152Y-17310D01*
X25090Y-17310D01*
X25090Y-16427D01*
X25090Y-16010D01*
X24672Y-16010D01*
X24630Y-16052D01*
X24629Y-16266D01*
X24630Y-16333D01*
X24655Y-16396D01*
X24703Y-16444D01*
X24766Y-16470D01*
X25047Y-16470D01*
X25090Y-16427D01*
X25090Y-17310D01*
X25069Y-17310D01*
X25069Y-17308D01*
X25070Y-17241D01*
X25070Y-16758D01*
X25069Y-16691D01*
X25044Y-16628D01*
X24996Y-16580D01*
X24933Y-16554D01*
X24777Y-16555D01*
X24735Y-16597D01*
X24735Y-16990D01*
X25027Y-16990D01*
X25070Y-16947D01*
X25070Y-16758D01*
X25070Y-17241D01*
X25070Y-17052D01*
X25027Y-17010D01*
X24735Y-17010D01*
X24735Y-17017D01*
X24715Y-17017D01*
X24715Y-17010D01*
X24707Y-17010D01*
X24707Y-16990D01*
X24715Y-16990D01*
X24715Y-16597D01*
X24672Y-16555D01*
X24516Y-16554D01*
X24490Y-16565D01*
X24490Y-16500D01*
X24489Y-16499D01*
X24490Y-16499D01*
X24487Y-16485D01*
X24475Y-16427D01*
X24475Y-16427D01*
X24434Y-16365D01*
X24434Y-16365D01*
X24259Y-16190D01*
X24225Y-16167D01*
X24225Y-16120D01*
X24202Y-16065D01*
X24160Y-16022D01*
X24104Y-16000D01*
X24045Y-15999D01*
X23495Y-15999D01*
X23440Y-16022D01*
X23397Y-16064D01*
X23375Y-16120D01*
X23374Y-16179D01*
X23374Y-16529D01*
X23397Y-16584D01*
X23439Y-16627D01*
X23495Y-16649D01*
X23554Y-16650D01*
X24104Y-16650D01*
X24110Y-16647D01*
X24110Y-16752D01*
X24104Y-16750D01*
X24045Y-16749D01*
X23495Y-16749D01*
X23458Y-16765D01*
X23303Y-16765D01*
X23119Y-16580D01*
X23018Y-16513D01*
X22900Y-16490D01*
X18870Y-16490D01*
X18921Y-16469D01*
X18969Y-16421D01*
X18995Y-16358D01*
X18995Y-16041D01*
X18969Y-15978D01*
X18921Y-15930D01*
X18858Y-15905D01*
X18791Y-15904D01*
X18652Y-15905D01*
X18610Y-15947D01*
X18610Y-16190D01*
X18952Y-16190D01*
X18995Y-16147D01*
X18995Y-16041D01*
X18995Y-16358D01*
X18995Y-16252D01*
X18952Y-16210D01*
X18610Y-16210D01*
X18610Y-16217D01*
X18590Y-16217D01*
X18590Y-16210D01*
X18590Y-16190D01*
X18590Y-15947D01*
X18547Y-15905D01*
X18408Y-15904D01*
X18341Y-15905D01*
X18278Y-15930D01*
X18230Y-15978D01*
X18204Y-16041D01*
X18205Y-16147D01*
X18247Y-16190D01*
X18590Y-16190D01*
X18590Y-16210D01*
X18247Y-16210D01*
X18205Y-16252D01*
X18204Y-16358D01*
X18230Y-16421D01*
X18278Y-16469D01*
X18341Y-16494D01*
X18408Y-16495D01*
X18547Y-16495D01*
X18589Y-16452D01*
X18589Y-16491D01*
X18481Y-16513D01*
X18464Y-16524D01*
X18345Y-16524D01*
X18290Y-16547D01*
X18272Y-16565D01*
X18120Y-16565D01*
X18120Y-16366D01*
X18097Y-16312D01*
X18120Y-16258D01*
X18120Y-15991D01*
X18094Y-15928D01*
X18046Y-15880D01*
X17983Y-15855D01*
X17916Y-15854D01*
X17852Y-15855D01*
X17810Y-15897D01*
X17810Y-16115D01*
X18077Y-16115D01*
X18120Y-16072D01*
X18120Y-15991D01*
X18120Y-16258D01*
X18120Y-16177D01*
X18077Y-16135D01*
X17810Y-16135D01*
X17810Y-16272D01*
X17810Y-16352D01*
X17810Y-16490D01*
X18077Y-16490D01*
X18120Y-16447D01*
X18120Y-16366D01*
X18120Y-16565D01*
X18120Y-16565D01*
X18120Y-16552D01*
X18077Y-16510D01*
X17810Y-16510D01*
X17810Y-16517D01*
X17790Y-16517D01*
X17790Y-16510D01*
X17790Y-16490D01*
X17790Y-16352D01*
X17790Y-16272D01*
X17790Y-16135D01*
X17790Y-16115D01*
X17790Y-15897D01*
X17747Y-15855D01*
X17683Y-15854D01*
X17616Y-15855D01*
X17553Y-15880D01*
X17505Y-15928D01*
X17479Y-15991D01*
X17480Y-16072D01*
X17522Y-16115D01*
X17790Y-16115D01*
X17790Y-16135D01*
X17522Y-16135D01*
X17480Y-16177D01*
X17479Y-16258D01*
X17502Y-16312D01*
X17479Y-16366D01*
X17480Y-16447D01*
X17522Y-16490D01*
X17790Y-16490D01*
X17790Y-16510D01*
X17522Y-16510D01*
X17480Y-16552D01*
X17479Y-16633D01*
X17505Y-16696D01*
X17516Y-16706D01*
X17500Y-16745D01*
X17499Y-16804D01*
X17499Y-16824D01*
X17490Y-16875D01*
X17499Y-16925D01*
X17499Y-17004D01*
X17522Y-17059D01*
X17564Y-17102D01*
X17620Y-17124D01*
X17626Y-17124D01*
X17681Y-17161D01*
X17800Y-17185D01*
X18525Y-17185D01*
X18643Y-17161D01*
X18720Y-17110D01*
X20081Y-17110D01*
X20061Y-17118D01*
X19934Y-17244D01*
X19865Y-17410D01*
X19865Y-17589D01*
X19934Y-17754D01*
X20005Y-17826D01*
X20005Y-18287D01*
X19103Y-19190D01*
X19010Y-19190D01*
X18939Y-19118D01*
X18774Y-19050D01*
X18595Y-19049D01*
X18429Y-19118D01*
X18302Y-19244D01*
X18234Y-19410D01*
X18234Y-19589D01*
X18302Y-19754D01*
X18429Y-19881D01*
X18594Y-19949D01*
X18773Y-19950D01*
X18938Y-19881D01*
X19010Y-19810D01*
X19231Y-19810D01*
X19350Y-19786D01*
X19450Y-19719D01*
X20534Y-18634D01*
X20602Y-18534D01*
X20625Y-18415D01*
X20625Y-17826D01*
X20697Y-17755D01*
X20765Y-17589D01*
X20765Y-17410D01*
X20697Y-17245D01*
X20570Y-17118D01*
X20549Y-17110D01*
X22049Y-17110D01*
X22029Y-17118D01*
X21902Y-17244D01*
X21834Y-17410D01*
X21834Y-17589D01*
X21902Y-17754D01*
X21974Y-17826D01*
X21974Y-18484D01*
X21997Y-18602D01*
X22065Y-18703D01*
X23080Y-19719D01*
X23080Y-19719D01*
X23181Y-19786D01*
X23181Y-19786D01*
X23299Y-19809D01*
X23300Y-19810D01*
X23689Y-19810D01*
X23760Y-19881D01*
X23925Y-19949D01*
X24104Y-19950D01*
X24270Y-19881D01*
X24397Y-19755D01*
X24465Y-19589D01*
X24465Y-19410D01*
X24397Y-19245D01*
X24270Y-19118D01*
X24105Y-19050D01*
X23926Y-19049D01*
X23761Y-19118D01*
X23689Y-19190D01*
X23428Y-19190D01*
X22594Y-18355D01*
X22594Y-17826D01*
X22665Y-17755D01*
X22734Y-17589D01*
X22734Y-17410D01*
X22665Y-17245D01*
X22539Y-17118D01*
X22518Y-17110D01*
X22771Y-17110D01*
X22955Y-17294D01*
X23056Y-17361D01*
X23175Y-17385D01*
X23458Y-17385D01*
X23490Y-17397D01*
X23490Y-17500D01*
X23513Y-17618D01*
X23580Y-17719D01*
X24080Y-18219D01*
X24181Y-18286D01*
X24300Y-18310D01*
X25271Y-18310D01*
X25674Y-18712D01*
X25674Y-19173D01*
X25602Y-19244D01*
X25534Y-19410D01*
X25534Y-19589D01*
X25602Y-19754D01*
X25674Y-19826D01*
X25674Y-19987D01*
X25371Y-20290D01*
X22513Y-20290D01*
X22513Y-20137D01*
X22490Y-20082D01*
X22448Y-20039D01*
X22392Y-20017D01*
X22333Y-20016D01*
X21703Y-20016D01*
X21648Y-20039D01*
X21605Y-20081D01*
X21583Y-20137D01*
X21582Y-20196D01*
X21582Y-21062D01*
X21605Y-21117D01*
X21647Y-21160D01*
X21703Y-21182D01*
X21762Y-21183D01*
X22392Y-21183D01*
X22447Y-21160D01*
X22490Y-21118D01*
X22512Y-21062D01*
X22513Y-21003D01*
X22513Y-20910D01*
X25500Y-20910D01*
X25618Y-20886D01*
X25719Y-20819D01*
X26203Y-20334D01*
X26203Y-20334D01*
X26203Y-20334D01*
X26270Y-20234D01*
X26270Y-20234D01*
X26294Y-20115D01*
X26294Y-19826D01*
X26365Y-19755D01*
X26434Y-19589D01*
X26434Y-19410D01*
X26365Y-19245D01*
X26294Y-19173D01*
X26294Y-18584D01*
X26294Y-18584D01*
X26294Y-18584D01*
X26289Y-18560D01*
X26270Y-18465D01*
X26270Y-18465D01*
X26203Y-18365D01*
X26203Y-18365D01*
X25619Y-17780D01*
X25518Y-17713D01*
X25400Y-17690D01*
X25472Y-17675D01*
X25534Y-17634D01*
X25609Y-17559D01*
X25609Y-17559D01*
X25609Y-17559D01*
X25650Y-17497D01*
X25664Y-17425D01*
X25679Y-17425D01*
X25734Y-17402D01*
X25777Y-17360D01*
X25799Y-17304D01*
X25800Y-17245D01*
X25800Y-17190D01*
X25824Y-17190D01*
X25824Y-17254D01*
X25847Y-17309D01*
X25889Y-17352D01*
X25923Y-17365D01*
X25924Y-17372D01*
X25965Y-17434D01*
X26910Y-18378D01*
X26910Y-19900D01*
X26924Y-19972D01*
X26965Y-20034D01*
X27065Y-20134D01*
X27127Y-20175D01*
X27190Y-20188D01*
X27218Y-20254D01*
X27344Y-20381D01*
X27510Y-20449D01*
X27689Y-20450D01*
X27854Y-20381D01*
X27981Y-20255D01*
X28020Y-20160D01*
X28020Y-20608D01*
X28020Y-20608D01*
G37*
G54D24*
X28020Y-20608D02*
X27985Y-20572D01*
X27929Y-20550D01*
X27870Y-20549D01*
X27270Y-20549D01*
X27215Y-20572D01*
X27172Y-20614D01*
X27150Y-20670D01*
X27149Y-20729D01*
X27149Y-21329D01*
X27172Y-21384D01*
X27208Y-21420D01*
X19939Y-21420D01*
X19975Y-21384D01*
X20024Y-21264D01*
X20025Y-21135D01*
X20010Y-21099D01*
X20010Y-20828D01*
X20028Y-20810D01*
X20086Y-20810D01*
X20086Y-21062D01*
X20109Y-21117D01*
X20151Y-21160D01*
X20207Y-21182D01*
X20266Y-21183D01*
X20896Y-21183D01*
X20951Y-21160D01*
X20994Y-21118D01*
X21016Y-21062D01*
X21017Y-21003D01*
X21017Y-20137D01*
X20994Y-20082D01*
X20952Y-20039D01*
X20896Y-20017D01*
X20837Y-20016D01*
X20207Y-20016D01*
X20152Y-20039D01*
X20109Y-20081D01*
X20087Y-20137D01*
X20086Y-20190D01*
X19900Y-20190D01*
X19781Y-20213D01*
X19680Y-20280D01*
X19480Y-20480D01*
X19413Y-20581D01*
X19390Y-20700D01*
X19390Y-21099D01*
X19375Y-21135D01*
X19374Y-21256D01*
X19321Y-21310D01*
X14500Y-21310D01*
X14583Y-21275D01*
X14675Y-21184D01*
X14724Y-21064D01*
X14725Y-20935D01*
X14710Y-20899D01*
X14710Y-17762D01*
X14774Y-17826D01*
X14774Y-18784D01*
X14797Y-18902D01*
X14865Y-19003D01*
X15580Y-19719D01*
X15681Y-19786D01*
X15800Y-19810D01*
X16389Y-19810D01*
X16460Y-19881D01*
X16625Y-19949D01*
X16804Y-19950D01*
X16970Y-19881D01*
X17097Y-19755D01*
X17165Y-19589D01*
X17165Y-19410D01*
X17097Y-19245D01*
X16970Y-19118D01*
X16805Y-19050D01*
X16626Y-19049D01*
X16461Y-19118D01*
X16389Y-19190D01*
X15928Y-19190D01*
X15394Y-18655D01*
X15394Y-17826D01*
X15465Y-17755D01*
X15534Y-17589D01*
X15534Y-17410D01*
X15465Y-17245D01*
X15405Y-17185D01*
X16800Y-17185D01*
X16918Y-17161D01*
X16973Y-17125D01*
X16979Y-17125D01*
X17034Y-17102D01*
X17077Y-17060D01*
X17099Y-17004D01*
X17100Y-16945D01*
X17100Y-16925D01*
X17110Y-16875D01*
X17100Y-16824D01*
X17100Y-16745D01*
X17100Y-16195D01*
X17100Y-15995D01*
X17077Y-15940D01*
X17035Y-15897D01*
X16979Y-15875D01*
X16920Y-15874D01*
X16620Y-15874D01*
X16565Y-15897D01*
X16522Y-15939D01*
X16500Y-15995D01*
X16499Y-16054D01*
X16499Y-16254D01*
X16522Y-16309D01*
X16564Y-16352D01*
X16620Y-16374D01*
X16679Y-16375D01*
X16979Y-16375D01*
X17034Y-16352D01*
X17077Y-16310D01*
X17099Y-16254D01*
X17100Y-16195D01*
X17100Y-16745D01*
X17077Y-16690D01*
X17035Y-16647D01*
X16979Y-16625D01*
X16973Y-16625D01*
X16918Y-16588D01*
X16800Y-16565D01*
X14725Y-16565D01*
X14606Y-16588D01*
X14505Y-16655D01*
X14180Y-16980D01*
X14113Y-17081D01*
X14090Y-17200D01*
X14090Y-20899D01*
X14075Y-20935D01*
X14074Y-21064D01*
X14124Y-21183D01*
X14215Y-21275D01*
X14299Y-21310D01*
X14073Y-21310D01*
X14073Y-21099D01*
X14073Y-20300D01*
X14073Y-20232D01*
X14047Y-20170D01*
X14000Y-20122D01*
X13937Y-20096D01*
X13587Y-20096D01*
X13587Y-17415D01*
X13519Y-17241D01*
X13509Y-17226D01*
X13431Y-17198D01*
X13417Y-17212D01*
X13417Y-17184D01*
X13389Y-17106D01*
X13217Y-17031D01*
X13030Y-17028D01*
X12856Y-17096D01*
X12842Y-17106D01*
X12814Y-17184D01*
X13115Y-17485D01*
X13417Y-17184D01*
X13417Y-17212D01*
X13129Y-17500D01*
X13431Y-17801D01*
X13509Y-17773D01*
X13583Y-17602D01*
X13587Y-17415D01*
X13587Y-20096D01*
X13562Y-20096D01*
X13520Y-20139D01*
X13520Y-20690D01*
X14031Y-20690D01*
X14073Y-20647D01*
X14073Y-20300D01*
X14073Y-21099D01*
X14073Y-20752D01*
X14031Y-20710D01*
X13520Y-20710D01*
X13520Y-21260D01*
X13562Y-21303D01*
X13937Y-21303D01*
X14000Y-21277D01*
X14047Y-21229D01*
X14073Y-21167D01*
X14073Y-21099D01*
X14073Y-21310D01*
X13500Y-21310D01*
X13500Y-21260D01*
X13500Y-20710D01*
X13500Y-20690D01*
X13500Y-20139D01*
X13457Y-20096D01*
X13417Y-20096D01*
X13417Y-17815D01*
X13115Y-17514D01*
X13101Y-17528D01*
X13101Y-17500D01*
X12799Y-17198D01*
X12722Y-17226D01*
X12647Y-17397D01*
X12644Y-17584D01*
X12712Y-17758D01*
X12722Y-17773D01*
X12799Y-17801D01*
X13101Y-17500D01*
X13101Y-17528D01*
X12814Y-17815D01*
X12842Y-17893D01*
X13013Y-17968D01*
X13200Y-17971D01*
X13374Y-17903D01*
X13389Y-17893D01*
X13417Y-17815D01*
X13417Y-20096D01*
X13082Y-20096D01*
X13020Y-20122D01*
X12972Y-20170D01*
X12946Y-20232D01*
X12946Y-20300D01*
X12946Y-20647D01*
X12989Y-20690D01*
X13500Y-20690D01*
X13500Y-20710D01*
X12989Y-20710D01*
X12946Y-20752D01*
X12946Y-21099D01*
X12946Y-21167D01*
X12972Y-21229D01*
X13020Y-21277D01*
X13082Y-21303D01*
X13457Y-21303D01*
X13500Y-21260D01*
X13500Y-21310D01*
X11049Y-21310D01*
X11050Y-21300D01*
X11118Y-21286D01*
X11219Y-21219D01*
X11428Y-21010D01*
X11746Y-21010D01*
X11746Y-21162D01*
X11768Y-21217D01*
X11810Y-21260D01*
X11866Y-21283D01*
X11925Y-21283D01*
X12713Y-21283D01*
X12768Y-21260D01*
X12810Y-21218D01*
X12833Y-21163D01*
X12833Y-21103D01*
X12833Y-20237D01*
X12810Y-20182D01*
X12768Y-20139D01*
X12713Y-20116D01*
X12653Y-20116D01*
X12045Y-20116D01*
X12045Y-17233D01*
X12045Y-17077D01*
X12002Y-17035D01*
X11610Y-17035D01*
X11610Y-17327D01*
X11652Y-17370D01*
X11841Y-17370D01*
X11908Y-17369D01*
X11971Y-17344D01*
X12019Y-17296D01*
X12045Y-17233D01*
X12045Y-20116D01*
X11866Y-20116D01*
X11811Y-20139D01*
X11768Y-20181D01*
X11746Y-20236D01*
X11746Y-20296D01*
X11746Y-20390D01*
X11300Y-20390D01*
X11299Y-20390D01*
X11276Y-20394D01*
X11181Y-20413D01*
X11080Y-20480D01*
X11080Y-20480D01*
X11071Y-20489D01*
X10986Y-20574D01*
X10985Y-20572D01*
X10929Y-20550D01*
X10901Y-20550D01*
X10870Y-20549D01*
X10290Y-20549D01*
X10290Y-20324D01*
X10298Y-20315D01*
X10326Y-20393D01*
X10497Y-20468D01*
X10684Y-20471D01*
X10858Y-20403D01*
X10873Y-20393D01*
X10901Y-20315D01*
X10600Y-20014D01*
X10594Y-20019D01*
X10580Y-20005D01*
X10585Y-20000D01*
X10580Y-19994D01*
X10594Y-19980D01*
X10600Y-19985D01*
X10605Y-19980D01*
X10619Y-19994D01*
X10614Y-20000D01*
X10915Y-20301D01*
X10993Y-20273D01*
X11068Y-20102D01*
X11071Y-19915D01*
X11003Y-19741D01*
X10993Y-19726D01*
X10915Y-19698D01*
X10924Y-19690D01*
X11000Y-19690D01*
X11072Y-19675D01*
X11134Y-19634D01*
X11276Y-19492D01*
X11295Y-19499D01*
X11354Y-19500D01*
X11904Y-19500D01*
X11959Y-19477D01*
X12002Y-19435D01*
X12024Y-19379D01*
X12025Y-19320D01*
X12025Y-18970D01*
X12002Y-18915D01*
X11960Y-18872D01*
X11904Y-18850D01*
X11845Y-18849D01*
X11295Y-18849D01*
X11240Y-18872D01*
X11197Y-18914D01*
X11175Y-18970D01*
X11174Y-19029D01*
X11174Y-19056D01*
X10984Y-19246D01*
X11049Y-19089D01*
X11050Y-18910D01*
X10981Y-18745D01*
X10855Y-18618D01*
X10689Y-18550D01*
X10510Y-18549D01*
X10345Y-18618D01*
X10218Y-18744D01*
X10179Y-18839D01*
X10179Y-18160D01*
X10218Y-18254D01*
X10344Y-18381D01*
X10510Y-18449D01*
X10689Y-18450D01*
X10854Y-18381D01*
X10981Y-18255D01*
X11049Y-18089D01*
X11050Y-17910D01*
X10985Y-17753D01*
X11140Y-17909D01*
X11140Y-17909D01*
X11174Y-17932D01*
X11174Y-17979D01*
X11197Y-18034D01*
X11239Y-18077D01*
X11295Y-18099D01*
X11295Y-18099D01*
X11240Y-18122D01*
X11197Y-18164D01*
X11175Y-18220D01*
X11174Y-18279D01*
X11174Y-18629D01*
X11197Y-18684D01*
X11239Y-18727D01*
X11295Y-18749D01*
X11354Y-18750D01*
X11904Y-18750D01*
X11959Y-18727D01*
X12002Y-18685D01*
X12024Y-18629D01*
X12025Y-18570D01*
X12025Y-18220D01*
X12002Y-18165D01*
X11960Y-18122D01*
X11904Y-18100D01*
X11904Y-18100D01*
X11959Y-18077D01*
X12002Y-18035D01*
X12024Y-17979D01*
X12025Y-17920D01*
X12025Y-17570D01*
X12002Y-17515D01*
X11960Y-17472D01*
X11904Y-17450D01*
X11845Y-17449D01*
X11295Y-17449D01*
X11290Y-17452D01*
X11290Y-17369D01*
X11291Y-17369D01*
X11358Y-17370D01*
X11547Y-17370D01*
X11590Y-17327D01*
X11590Y-17035D01*
X11582Y-17035D01*
X11582Y-17015D01*
X11590Y-17015D01*
X11590Y-17007D01*
X11610Y-17007D01*
X11610Y-17015D01*
X12002Y-17015D01*
X12045Y-16972D01*
X12045Y-16816D01*
X12019Y-16753D01*
X11995Y-16729D01*
X11995Y-15858D01*
X11995Y-15752D01*
X11952Y-15710D01*
X11610Y-15710D01*
X11610Y-15952D01*
X11652Y-15995D01*
X11791Y-15995D01*
X11858Y-15994D01*
X11921Y-15969D01*
X11969Y-15921D01*
X11995Y-15858D01*
X11995Y-16729D01*
X11971Y-16705D01*
X11908Y-16680D01*
X11841Y-16679D01*
X11688Y-16679D01*
X11734Y-16634D01*
X11773Y-16575D01*
X11854Y-16575D01*
X11909Y-16552D01*
X11952Y-16510D01*
X11974Y-16454D01*
X11975Y-16395D01*
X11975Y-16145D01*
X11952Y-16090D01*
X11910Y-16047D01*
X11854Y-16025D01*
X11795Y-16024D01*
X11590Y-16024D01*
X11590Y-15952D01*
X11590Y-15710D01*
X11247Y-15710D01*
X11205Y-15752D01*
X11204Y-15858D01*
X11230Y-15921D01*
X11278Y-15969D01*
X11341Y-15994D01*
X11408Y-15995D01*
X11547Y-15995D01*
X11590Y-15952D01*
X11590Y-16024D01*
X11345Y-16024D01*
X11308Y-16040D01*
X11134Y-15865D01*
X11072Y-15824D01*
X11009Y-15811D01*
X10981Y-15745D01*
X10855Y-15618D01*
X10760Y-15579D01*
X11204Y-15579D01*
X11205Y-15647D01*
X11247Y-15690D01*
X11590Y-15690D01*
X11590Y-15682D01*
X11610Y-15682D01*
X11610Y-15690D01*
X11952Y-15690D01*
X11995Y-15647D01*
X11995Y-15579D01*
X24680Y-15579D01*
X24655Y-15603D01*
X24630Y-15666D01*
X24629Y-15733D01*
X24630Y-15947D01*
X24672Y-15990D01*
X25090Y-15990D01*
X25090Y-15982D01*
X25110Y-15982D01*
X25110Y-15990D01*
X25527Y-15990D01*
X25570Y-15947D01*
X25570Y-15733D01*
X25569Y-15666D01*
X25544Y-15603D01*
X25519Y-15579D01*
X25939Y-15579D01*
X25845Y-15618D01*
X25718Y-15744D01*
X25650Y-15910D01*
X25649Y-16089D01*
X25718Y-16254D01*
X25844Y-16381D01*
X26010Y-16449D01*
X26189Y-16450D01*
X26354Y-16381D01*
X26481Y-16255D01*
X26549Y-16089D01*
X26550Y-15910D01*
X26481Y-15745D01*
X26355Y-15618D01*
X26260Y-15579D01*
X27439Y-15579D01*
X27345Y-15618D01*
X27218Y-15744D01*
X27150Y-15910D01*
X27149Y-16089D01*
X27218Y-16254D01*
X27344Y-16381D01*
X27510Y-16449D01*
X27689Y-16450D01*
X27854Y-16381D01*
X27981Y-16255D01*
X28020Y-16160D01*
X28020Y-16839D01*
X27981Y-16745D01*
X27855Y-16618D01*
X27689Y-16550D01*
X27510Y-16549D01*
X27345Y-16618D01*
X27218Y-16744D01*
X27150Y-16910D01*
X27149Y-17089D01*
X27218Y-17254D01*
X27344Y-17381D01*
X27510Y-17449D01*
X27689Y-17450D01*
X27854Y-17381D01*
X27981Y-17255D01*
X28020Y-17160D01*
X28020Y-17839D01*
X27981Y-17745D01*
X27855Y-17618D01*
X27689Y-17550D01*
X27510Y-17549D01*
X27345Y-17618D01*
X27218Y-17744D01*
X27150Y-17910D01*
X27149Y-18081D01*
X26995Y-17926D01*
X26995Y-17191D01*
X26995Y-16808D01*
X26994Y-16741D01*
X26969Y-16678D01*
X26921Y-16630D01*
X26858Y-16604D01*
X26752Y-16605D01*
X26710Y-16647D01*
X26710Y-16990D01*
X26952Y-16990D01*
X26995Y-16947D01*
X26995Y-16808D01*
X26995Y-17191D01*
X26995Y-17052D01*
X26952Y-17010D01*
X26710Y-17010D01*
X26710Y-17352D01*
X26752Y-17395D01*
X26858Y-17395D01*
X26921Y-17369D01*
X26969Y-17321D01*
X26994Y-17258D01*
X26995Y-17191D01*
X26995Y-17926D01*
X26690Y-17621D01*
X26690Y-17352D01*
X26690Y-17010D01*
X26690Y-16990D01*
X26690Y-16647D01*
X26647Y-16605D01*
X26541Y-16604D01*
X26478Y-16630D01*
X26430Y-16678D01*
X26405Y-16741D01*
X26404Y-16808D01*
X26405Y-16947D01*
X26447Y-16990D01*
X26690Y-16990D01*
X26690Y-17010D01*
X26447Y-17010D01*
X26405Y-17052D01*
X26404Y-17191D01*
X26405Y-17258D01*
X26430Y-17321D01*
X26478Y-17369D01*
X26541Y-17395D01*
X26647Y-17395D01*
X26690Y-17352D01*
X26690Y-17621D01*
X26359Y-17291D01*
X26374Y-17254D01*
X26375Y-17195D01*
X26375Y-16745D01*
X26352Y-16690D01*
X26310Y-16647D01*
X26254Y-16625D01*
X26195Y-16624D01*
X25945Y-16624D01*
X25890Y-16647D01*
X25847Y-16689D01*
X25825Y-16745D01*
X25824Y-16804D01*
X25824Y-16810D01*
X25800Y-16810D01*
X25800Y-16695D01*
X25777Y-16640D01*
X25735Y-16597D01*
X25679Y-16575D01*
X25620Y-16574D01*
X25570Y-16574D01*
X25570Y-16266D01*
X25570Y-16052D01*
X25527Y-16010D01*
X25110Y-16010D01*
X25110Y-16427D01*
X25152Y-16470D01*
X25433Y-16470D01*
X25496Y-16444D01*
X25544Y-16396D01*
X25569Y-16333D01*
X25570Y-16266D01*
X25570Y-16574D01*
X25270Y-16574D01*
X25215Y-16597D01*
X25172Y-16639D01*
X25150Y-16695D01*
X25149Y-16754D01*
X25149Y-17304D01*
X25152Y-17310D01*
X25090Y-17310D01*
X25090Y-16427D01*
X25090Y-16010D01*
X24672Y-16010D01*
X24630Y-16052D01*
X24629Y-16266D01*
X24630Y-16333D01*
X24655Y-16396D01*
X24703Y-16444D01*
X24766Y-16470D01*
X25047Y-16470D01*
X25090Y-16427D01*
X25090Y-17310D01*
X25069Y-17310D01*
X25069Y-17308D01*
X25070Y-17241D01*
X25070Y-16758D01*
X25069Y-16691D01*
X25044Y-16628D01*
X24996Y-16580D01*
X24933Y-16554D01*
X24777Y-16555D01*
X24735Y-16597D01*
X24735Y-16990D01*
X25027Y-16990D01*
X25070Y-16947D01*
X25070Y-16758D01*
X25070Y-17241D01*
X25070Y-17052D01*
X25027Y-17010D01*
X24735Y-17010D01*
X24735Y-17017D01*
X24715Y-17017D01*
X24715Y-17010D01*
X24707Y-17010D01*
X24707Y-16990D01*
X24715Y-16990D01*
X24715Y-16597D01*
X24672Y-16555D01*
X24516Y-16554D01*
X24490Y-16565D01*
X24490Y-16500D01*
X24489Y-16499D01*
X24490Y-16499D01*
X24487Y-16485D01*
X24475Y-16427D01*
X24475Y-16427D01*
X24434Y-16365D01*
X24434Y-16365D01*
X24259Y-16190D01*
X24225Y-16167D01*
X24225Y-16120D01*
X24202Y-16065D01*
X24160Y-16022D01*
X24104Y-16000D01*
X24045Y-15999D01*
X23495Y-15999D01*
X23440Y-16022D01*
X23397Y-16064D01*
X23375Y-16120D01*
X23374Y-16179D01*
X23374Y-16529D01*
X23397Y-16584D01*
X23439Y-16627D01*
X23495Y-16649D01*
X23554Y-16650D01*
X24104Y-16650D01*
X24110Y-16647D01*
X24110Y-16752D01*
X24104Y-16750D01*
X24045Y-16749D01*
X23495Y-16749D01*
X23458Y-16765D01*
X23303Y-16765D01*
X23119Y-16580D01*
X23018Y-16513D01*
X22900Y-16490D01*
X18870Y-16490D01*
X18921Y-16469D01*
X18969Y-16421D01*
X18995Y-16358D01*
X18995Y-16041D01*
X18969Y-15978D01*
X18921Y-15930D01*
X18858Y-15905D01*
X18791Y-15904D01*
X18652Y-15905D01*
X18610Y-15947D01*
X18610Y-16190D01*
X18952Y-16190D01*
X18995Y-16147D01*
X18995Y-16041D01*
X18995Y-16358D01*
X18995Y-16252D01*
X18952Y-16210D01*
X18610Y-16210D01*
X18610Y-16217D01*
X18590Y-16217D01*
X18590Y-16210D01*
X18590Y-16190D01*
X18590Y-15947D01*
X18547Y-15905D01*
X18408Y-15904D01*
X18341Y-15905D01*
X18278Y-15930D01*
X18230Y-15978D01*
X18204Y-16041D01*
X18205Y-16147D01*
X18247Y-16190D01*
X18590Y-16190D01*
X18590Y-16210D01*
X18247Y-16210D01*
X18205Y-16252D01*
X18204Y-16358D01*
X18230Y-16421D01*
X18278Y-16469D01*
X18341Y-16494D01*
X18408Y-16495D01*
X18547Y-16495D01*
X18589Y-16452D01*
X18589Y-16491D01*
X18481Y-16513D01*
X18464Y-16524D01*
X18345Y-16524D01*
X18290Y-16547D01*
X18272Y-16565D01*
X18120Y-16565D01*
X18120Y-16366D01*
X18097Y-16312D01*
X18120Y-16258D01*
X18120Y-15991D01*
X18094Y-15928D01*
X18046Y-15880D01*
X17983Y-15855D01*
X17916Y-15854D01*
X17852Y-15855D01*
X17810Y-15897D01*
X17810Y-16115D01*
X18077Y-16115D01*
X18120Y-16072D01*
X18120Y-15991D01*
X18120Y-16258D01*
X18120Y-16177D01*
X18077Y-16135D01*
X17810Y-16135D01*
X17810Y-16272D01*
X17810Y-16352D01*
X17810Y-16490D01*
X18077Y-16490D01*
X18120Y-16447D01*
X18120Y-16366D01*
X18120Y-16565D01*
X18120Y-16565D01*
X18120Y-16552D01*
X18077Y-16510D01*
X17810Y-16510D01*
X17810Y-16517D01*
X17790Y-16517D01*
X17790Y-16510D01*
X17790Y-16490D01*
X17790Y-16352D01*
X17790Y-16272D01*
X17790Y-16135D01*
X17790Y-16115D01*
X17790Y-15897D01*
X17747Y-15855D01*
X17683Y-15854D01*
X17616Y-15855D01*
X17553Y-15880D01*
X17505Y-15928D01*
X17479Y-15991D01*
X17480Y-16072D01*
X17522Y-16115D01*
X17790Y-16115D01*
X17790Y-16135D01*
X17522Y-16135D01*
X17480Y-16177D01*
X17479Y-16258D01*
X17502Y-16312D01*
X17479Y-16366D01*
X17480Y-16447D01*
X17522Y-16490D01*
X17790Y-16490D01*
X17790Y-16510D01*
X17522Y-16510D01*
X17480Y-16552D01*
X17479Y-16633D01*
X17505Y-16696D01*
X17516Y-16706D01*
X17500Y-16745D01*
X17499Y-16804D01*
X17499Y-16824D01*
X17490Y-16875D01*
X17499Y-16925D01*
X17499Y-17004D01*
X17522Y-17059D01*
X17564Y-17102D01*
X17620Y-17124D01*
X17626Y-17124D01*
X17681Y-17161D01*
X17800Y-17185D01*
X18525Y-17185D01*
X18643Y-17161D01*
X18720Y-17110D01*
X20081Y-17110D01*
X20061Y-17118D01*
X19934Y-17244D01*
X19865Y-17410D01*
X19865Y-17589D01*
X19934Y-17754D01*
X20005Y-17826D01*
X20005Y-18287D01*
X19103Y-19190D01*
X19010Y-19190D01*
X18939Y-19118D01*
X18774Y-19050D01*
X18595Y-19049D01*
X18429Y-19118D01*
X18302Y-19244D01*
X18234Y-19410D01*
X18234Y-19589D01*
X18302Y-19754D01*
X18429Y-19881D01*
X18594Y-19949D01*
X18773Y-19950D01*
X18938Y-19881D01*
X19010Y-19810D01*
X19231Y-19810D01*
X19350Y-19786D01*
X19450Y-19719D01*
X20534Y-18634D01*
X20602Y-18534D01*
X20625Y-18415D01*
X20625Y-17826D01*
X20697Y-17755D01*
X20765Y-17589D01*
X20765Y-17410D01*
X20697Y-17245D01*
X20570Y-17118D01*
X20549Y-17110D01*
X22049Y-17110D01*
X22029Y-17118D01*
X21902Y-17244D01*
X21834Y-17410D01*
X21834Y-17589D01*
X21902Y-17754D01*
X21974Y-17826D01*
X21974Y-18484D01*
X21997Y-18602D01*
X22065Y-18703D01*
X23080Y-19719D01*
X23080Y-19719D01*
X23181Y-19786D01*
X23181Y-19786D01*
X23299Y-19809D01*
X23300Y-19810D01*
X23689Y-19810D01*
X23760Y-19881D01*
X23925Y-19949D01*
X24104Y-19950D01*
X24270Y-19881D01*
X24397Y-19755D01*
X24465Y-19589D01*
X24465Y-19410D01*
X24397Y-19245D01*
X24270Y-19118D01*
X24105Y-19050D01*
X23926Y-19049D01*
X23761Y-19118D01*
X23689Y-19190D01*
X23428Y-19190D01*
X22594Y-18355D01*
X22594Y-17826D01*
X22665Y-17755D01*
X22734Y-17589D01*
X22734Y-17410D01*
X22665Y-17245D01*
X22539Y-17118D01*
X22518Y-17110D01*
X22771Y-17110D01*
X22955Y-17294D01*
X23056Y-17361D01*
X23175Y-17385D01*
X23458Y-17385D01*
X23490Y-17397D01*
X23490Y-17500D01*
X23513Y-17618D01*
X23580Y-17719D01*
X24080Y-18219D01*
X24181Y-18286D01*
X24300Y-18310D01*
X25271Y-18310D01*
X25674Y-18712D01*
X25674Y-19173D01*
X25602Y-19244D01*
X25534Y-19410D01*
X25534Y-19589D01*
X25602Y-19754D01*
X25674Y-19826D01*
X25674Y-19987D01*
X25371Y-20290D01*
X22513Y-20290D01*
X22513Y-20137D01*
X22490Y-20082D01*
X22448Y-20039D01*
X22392Y-20017D01*
X22333Y-20016D01*
X21703Y-20016D01*
X21648Y-20039D01*
X21605Y-20081D01*
X21583Y-20137D01*
X21582Y-20196D01*
X21582Y-21062D01*
X21605Y-21117D01*
X21647Y-21160D01*
X21703Y-21182D01*
X21762Y-21183D01*
X22392Y-21183D01*
X22447Y-21160D01*
X22490Y-21118D01*
X22512Y-21062D01*
X22513Y-21003D01*
X22513Y-20910D01*
X25500Y-20910D01*
X25618Y-20886D01*
X25719Y-20819D01*
X26203Y-20334D01*
X26203Y-20334D01*
X26203Y-20334D01*
X26270Y-20234D01*
X26270Y-20234D01*
X26294Y-20115D01*
X26294Y-19826D01*
X26365Y-19755D01*
X26434Y-19589D01*
X26434Y-19410D01*
X26365Y-19245D01*
X26294Y-19173D01*
X26294Y-18584D01*
X26294Y-18584D01*
X26294Y-18584D01*
X26289Y-18560D01*
X26270Y-18465D01*
X26270Y-18465D01*
X26203Y-18365D01*
X26203Y-18365D01*
X25619Y-17780D01*
X25518Y-17713D01*
X25400Y-17690D01*
X25472Y-17675D01*
X25534Y-17634D01*
X25609Y-17559D01*
X25609Y-17559D01*
X25609Y-17559D01*
X25650Y-17497D01*
X25664Y-17425D01*
X25679Y-17425D01*
X25734Y-17402D01*
X25777Y-17360D01*
X25799Y-17304D01*
X25800Y-17245D01*
X25800Y-17190D01*
X25824Y-17190D01*
X25824Y-17254D01*
X25847Y-17309D01*
X25889Y-17352D01*
X25923Y-17365D01*
X25924Y-17372D01*
X25965Y-17434D01*
X26910Y-18378D01*
X26910Y-19900D01*
X26924Y-19972D01*
X26965Y-20034D01*
X27065Y-20134D01*
X27127Y-20175D01*
X27190Y-20188D01*
X27218Y-20254D01*
X27344Y-20381D01*
X27510Y-20449D01*
X27689Y-20450D01*
X27854Y-20381D01*
X27981Y-20255D01*
X28020Y-20160D01*
X28020Y-20608D01*
M02*
